<?xml version="1.0" encoding="utf-8"?>
<!-- Generator: Adobe Illustrator 23.0.5, SVG Export Plug-In . SVG Version: 6.00 Build 0)  -->
<svg version="1.1" id="Layer_1" xmlns="http://www.w3.org/2000/svg" xmlns:xlink="http://www.w3.org/1999/xlink" x="0px" y="0px"
	 viewBox="0 0 1080 1080" style="enable-background:new 0 0 1080 1080;" xml:space="preserve">
<style type="text/css">
	.st0{fill:#C9CDB9;}
	.st1{fill:#CBD5BE;}
	.st2{fill:#FFFFFE;}
	.st3{fill:#94A063;}
	.st4{fill:#828081;}
	.st5{fill:#AEB884;}
	.st6{fill:#CDD5C2;}
	.st7{fill:#AAAE9D;}
	.st8{fill:#CCD2BC;}
	.st9{fill:#CDD4BC;}
	.st10{fill:#BCBCB4;}
	.st11{fill:#9D9B99;}
	.st12{fill:#656366;}
	.st13{fill:#9BA867;}
	.st14{fill:#9AA668;}
	.st15{fill:#BDC6A0;}
	.st16{fill:#FDFDF9;}
</style>
<g>
	<g>
		<g id="XMLID_1_">
			<g>
				<path d="M963.9,430.48v29.1c0,4.81-3.91,8.72-8.71,8.72h-5.93v10.83c0,0.83-0.67,1.5-1.5,1.5c-0.83,0-1.5-0.67-1.5-1.5V468.3
					h-7.08v18.24c0,5.14-4.18,9.33-9.33,9.33c-5.14,0-9.33-4.19-9.33-9.33v-3.36c0-0.83,0.67-1.5,1.5-1.5c0.83,0,1.5,0.67,1.5,1.5
					v3.36c0,3.49,2.84,6.33,6.33,6.33s6.33-2.84,6.33-6.33V468.3h-5.6c-4.8,0-8.71-3.91-8.71-8.72v-29.1c0-4.8,3.91-8.71,8.71-8.71
					h10.01v-15.09c0-5.14,4.19-9.33,9.33-9.33s9.33,4.19,9.33,9.33v4.38c0,0.83-0.67,1.5-1.5,1.5s-1.5-0.67-1.5-1.5v-4.38
					c0-3.49-2.84-6.33-6.33-6.33s-6.33,2.84-6.33,6.33v15.09h11.6C959.99,421.77,963.9,425.68,963.9,430.48z M960.9,459.58v-29.1
					c0-3.15-2.56-5.71-5.71-5.71h-24.61c-3.15,0-5.71,2.56-5.71,5.71v29.1c0,3.16,2.56,5.72,5.71,5.72h24.61
					C958.34,465.3,960.9,462.74,960.9,459.58z"/>
				<path class="st0" d="M960.9,430.48v29.1c0,3.16-2.56,5.72-5.71,5.72h-24.61c-3.15,0-5.71-2.56-5.71-5.72v-29.1
					c0-3.15,2.56-5.71,5.71-5.71h24.61C958.34,424.77,960.9,427.33,960.9,430.48z M954.18,445.04c0-6.23-5.07-11.3-11.3-11.3
					c-6.22,0-11.29,5.07-11.29,11.3c0,6.22,5.07,11.29,11.29,11.29C949.11,456.33,954.18,451.26,954.18,445.04z"/>
				<path d="M942.88,433.74c6.23,0,11.3,5.07,11.3,11.3c0,6.22-5.07,11.29-11.3,11.29c-6.22,0-11.29-5.07-11.29-11.29
					C931.59,438.81,936.66,433.74,942.88,433.74z M951.18,445.04c0-4.58-3.72-8.3-8.3-8.3c-4.57,0-8.29,3.72-8.29,8.3
					c0,4.57,3.72,8.29,8.29,8.29C947.46,453.33,951.18,449.61,951.18,445.04z"/>
				<path class="st0" d="M942.88,436.74c4.58,0,8.3,3.72,8.3,8.3c0,4.57-3.72,8.29-8.3,8.29c-4.57,0-8.29-3.72-8.29-8.29
					C934.59,440.46,938.31,436.74,942.88,436.74z M944.38,449.07v-7.74c0-0.83-0.67-1.5-1.5-1.5c-0.82,0-1.5,0.67-1.5,1.5v7.74
					c0,0.83,0.68,1.5,1.5,1.5C943.71,450.57,944.38,449.9,944.38,449.07z"/>
				<path d="M944.38,441.33v7.74c0,0.83-0.67,1.5-1.5,1.5c-0.82,0-1.5-0.67-1.5-1.5v-7.74c0-0.83,0.68-1.5,1.5-1.5
					C943.71,439.83,944.38,440.5,944.38,441.33z"/>
				<path d="M790.61,393.28l-25.31,23.2v-11.63h-20.46c0.69,5.6,1.88,23.1-8.13,35.62c-10.74,13.43-23.49,15.94-34.83,16.19
					l-0.05-2.99c10.65-0.25,22.57-2.6,32.54-15.08c10.95-13.68,7.29-34.76,7.25-34.97l-0.31-1.77h26.99v7.81l17.89-16.4
					l-18.13-16.83v7.3h-26.64v-11.28h-20.1v31.08c0,0.76,0,1.52,0.01,2.28c0.05,8.24,0.09,16.76-5.3,22.18
					c-2.49,2.51-5.9,4.11-10.34,4.83l-0.47-2.95c3.79-0.63,6.66-1.95,8.69-4c4.51-4.54,4.46-12.42,4.42-20.04
					c-0.01-0.77-0.01-1.54-0.01-2.3v-31.08h-5.88V361.6h14.64h8.76h14.52v10.85h-5.94v8.28h20.64v-11.18L790.61,393.28z
					 M747.36,369.45v-4.85h-31.92v4.85H747.36z"/>
				<path class="st1" d="M786.19,393.26l-17.89,16.4v-7.81h-26.99l0.31,1.77c0.04,0.21,3.7,21.29-7.25,34.97
					c-9.97,12.48-21.89,14.83-32.54,15.08c-0.71,0.01-1.41,0.02-2.11,0.02h-98.28c-1.43,0-4.42-1.07-6.31-3.38
					c-1.63-1.99-2.17-4.49-1.58-7.43c0.37-1.83,0.89-3.35,1.64-4.6c2.26-3.73,6.59-4.99,15.13-4.99h89.16
					c2.26,0,4.33-0.15,6.21-0.47c4.44-0.72,7.85-2.32,10.34-4.83c5.39-5.42,5.35-13.94,5.3-22.18c-0.01-0.76-0.01-1.52-0.01-2.28
					v-31.08h20.1v11.28h26.64v-7.3L786.19,393.26z"/>
				<path d="M757.64,588.48c0.48,4.03-0.15,6.86-1.96,8.91c-3.4,3.82-10.38,4.47-24.73,4.47h-24.03c-2.95,0-5.48-1.03-7.32-2.97
					c-2.13-2.26-3.29-5.78-3.09-9.41c0.3-5.34,5.16-8.64,9.92-9.67c0.79-3.95,4.5-16.92,19.15-17.49
					c12.35-0.42,17.68,9.74,18.98,14.05C749.2,576.87,756.61,579.83,757.64,588.48z M753.43,595.4c1.21-1.36,1.6-3.45,1.23-6.56
					c-1.09-9.17-10.91-9.54-11.33-9.55l-1.24-0.03l-0.2-1.23c-0.42-2.57-4.49-12.72-15.55-12.72c-0.21,0-0.43,0-0.65,0.01
					c-14.59,0.57-16.4,15.32-16.47,15.94l-0.13,1.16l-1.15,0.16c-4.03,0.58-8.22,3.19-8.43,7.06c-0.16,2.83,0.69,5.52,2.27,7.19
					c1.28,1.35,3.01,2.03,5.14,2.03h24.03C743.82,598.86,750.83,598.33,753.43,595.4z"/>
				<path d="M755.74,514.85c0.59,0.59,0.59,1.54,0,2.12l-22.68,22.68c-0.29,0.29-0.67,0.44-1.06,0.44c-0.19,0-0.39-0.04-0.57-0.11
					c-0.56-0.24-0.93-0.78-0.93-1.39v-9.78h-96.6v54.3h23.65c1.95-2.8,4.52-4.67,7.37-5.17v-6.77h-8.22c-0.83,0-1.5-0.67-1.5-1.5
					s0.67-1.5,1.5-1.5h19.74c0.83,0,1.5,0.67,1.5,1.5s-0.67,1.5-1.5,1.5h-8.52v6.77c6.27,1.09,11.16,8.88,11.16,18.32
					c0,10.19-5.68,18.47-12.66,18.47c-3.35,0-6.4-1.92-8.67-5.04H633.9v13.86c0,0.56-0.15,1.32-0.5,2.25l-2.86-0.8
					c0.25-0.62,0.36-1.11,0.36-1.45v-13.86h-18.34c-3.41,6.63-9.02,10.56-15.17,10.56c-10.11,0-18.33-10.79-18.33-24.06
					c0-13.27,8.22-24.06,18.33-24.06c6.21,0,12.03,4.19,15.38,10.98h18.13v-54.3h-17.64c-3.4,6.76-9.39,10.92-15.84,10.92
					c-10.32,0-18.72-10.47-18.72-23.34c0-12.87,8.4-23.34,18.72-23.34c6.35,0,12.12,3.89,15.6,10.44h17.88v-46.8h-17.78
					c-0.64,1.27-1.38,2.44-2.19,3.52l-2.42-1.74c0.42-0.56,0.82-1.16,1.19-1.78h-8.26c-1.99,0-5.94-1.19-8.63-4.48
					c-1.53-1.87-3.16-5.11-2.2-9.91c0.43-2.14,1.07-3.91,1.93-5.38l2.65,1.36c-0.75,1.25-1.27,2.77-1.64,4.6
					c-0.59,2.94-0.05,5.44,1.58,7.43c1.89,2.31,4.88,3.38,6.31,3.38h98.28c0.7,0,1.4-0.01,2.11-0.02l0.05,2.99
					c-0.73,0.02-1.45,0.03-2.16,0.03H633.9v46.8h96.6v-10.26c0-0.61,0.37-1.15,0.93-1.39c0.56-0.23,1.2-0.1,1.63,0.33L755.74,514.85
					z M733.5,534.97l19.06-19.06l-19.06-19.06v8.14c0,0.83-0.67,1.5-1.5,1.5H602.98c-2.58,0-5,1.01-6.83,2.83
					c-1.82,1.83-2.83,4.25-2.83,6.83c0,5.33,4.33,9.66,9.66,9.66H732c0.83,0,1.5,0.67,1.5,1.5V534.97z M676.08,596.26
					c0-8.49-4.3-15.39-9.59-15.45c-0.02,0-0.05,0-0.07,0c-0.02,0-0.05,0-0.07,0c-5.2,0.06-9.59,7.11-9.59,15.45
					c0,8.39,4.42,15.47,9.66,15.47C671.75,611.73,676.08,604.79,676.08,596.26z M603.96,606.69h52.02
					c-1.4-2.97-2.22-6.56-2.22-10.43c0-3.75,0.77-7.23,2.1-10.15h-44h-7.9c-2.74,0-5.33,1.07-7.28,3.01
					c-1.94,1.95-3.01,4.54-3.01,7.28C593.67,602.07,598.29,606.69,603.96,606.69z M609.85,528.81h-6.87
					c-6.98,0-12.66-5.68-12.66-12.66c0-3.38,1.32-6.56,3.71-8.95c2.39-2.39,5.57-3.71,8.95-3.71h6.58
					c-2.97-4.7-7.38-7.44-12.14-7.44c-8.67,0-15.72,9.12-15.72,20.34c0,11.22,7.05,20.34,15.72,20.34
					C602.29,536.73,606.9,533.75,609.85,528.81z M603.96,583.11h5.42c-2.9-4.97-7.34-7.98-11.99-7.98
					c-8.45,0-15.33,9.45-15.33,21.06c0,11.61,6.88,21.06,15.33,21.06c4.58,0,8.84-2.78,11.75-7.56h-5.18
					c-7.33,0-13.29-5.96-13.29-13.29c0-3.54,1.38-6.88,3.89-9.4C597.08,584.49,600.42,583.11,603.96,583.11z"/>
				<path class="st2" d="M754.66,588.84c0.37,3.11-0.02,5.2-1.23,6.56c-2.6,2.93-9.61,3.46-22.48,3.46h-24.03
					c-2.13,0-3.86-0.68-5.14-2.03c-1.58-1.67-2.43-4.36-2.27-7.19c0.21-3.87,4.4-6.48,8.43-7.06l1.15-0.16l0.13-1.16
					c0.07-0.62,1.88-15.37,16.47-15.94c0.22-0.01,0.44-0.01,0.65-0.01c11.06,0,15.13,10.15,15.55,12.72l0.2,1.23l1.24,0.03
					C743.75,579.3,753.57,579.67,754.66,588.84z"/>
				<path class="st3" d="M752.56,515.91l-19.06,19.06v-7.66c0-0.83-0.67-1.5-1.5-1.5H602.98c-5.33,0-9.66-4.33-9.66-9.66
					c0-2.58,1.01-5,2.83-6.83c1.83-1.82,4.25-2.83,6.83-2.83H732c0.83,0,1.5-0.67,1.5-1.5v-8.14L752.56,515.91z"/>
				<path d="M746.05,323.34c0.21,0.39,5.01,9.8,3.27,19.91c-1.87,10.83-10.13,14.73-12.84,16.01c-0.2,0.09-0.42,0.14-0.64,0.14
					c-0.39,0-0.78-0.15-1.07-0.45c-0.45-0.45-0.56-1.14-0.28-1.71c0.03-0.07,3.25-6.8,0.94-11.96c-1.44-3.21-2.77-5.66-3.66-7.19
					c-2.14,2.97-5.26,7.82-5.48,10.54c-0.31,4.04,2.08,8.51,2.11,8.55c0.3,0.55,0.22,1.23-0.19,1.71c-0.29,0.33-0.71,0.51-1.13,0.51
					c-0.18,0-0.36-0.03-0.54-0.1c-0.13-0.05-13.65-5.39-12.35-18.62c0.56-5.73,3.88-9.17,7.1-12.5c4.19-4.35,8.16-8.46,6.94-17.88
					c-0.07-0.57,0.19-1.13,0.67-1.44c0.47-0.32,1.09-0.33,1.59-0.04c0.42,0.25,9.5,5.78,11.79,16.94c0.34-0.6,0.7-1.34,1.03-2.24
					c0.2-0.56,0.72-0.95,1.31-0.99C745.21,322.49,745.78,322.81,746.05,323.34z M746.36,342.73c1.02-5.89-0.52-11.68-1.73-15.05
					c-1.23,1.97-2.4,2.77-2.58,2.89c-0.44,0.29-1.01,0.32-1.48,0.08c-0.48-0.24-0.79-0.71-0.83-1.24
					c-0.52-8.06-5.27-13.45-8.29-16.1c0.09,8.56-4.18,12.99-8.01,16.95c-3.11,3.23-5.81,6.02-6.27,10.72
					c-0.68,6.95,3.65,11.3,6.94,13.57c-0.55-1.79-0.98-3.99-0.81-6.16c0.39-4.87,6.7-12.98,7.42-13.89
					c0.29-0.36,0.72-0.57,1.18-0.57c0.02,0,0.04,0,0.06,0c0.47,0.02,0.91,0.27,1.18,0.66c0.1,0.14,2.37,3.54,5.03,9.47
					c1.64,3.65,1.16,7.72,0.4,10.62C741.92,352.47,745.29,348.92,746.36,342.73z"/>
				<rect x="715.44" y="364.6" class="st4" width="31.92" height="4.85"/>
				<path class="st5" d="M744.63,327.68c1.21,3.37,2.75,9.16,1.73,15.05c-1.07,6.19-4.44,9.74-7.79,11.95
					c0.76-2.9,1.24-6.97-0.4-10.62c-2.66-5.93-4.93-9.33-5.03-9.47c-0.27-0.39-0.71-0.64-1.18-0.66c-0.02,0-0.04,0-0.06,0
					c-0.46,0-0.89,0.21-1.18,0.57c-0.72,0.91-7.03,9.02-7.42,13.89c-0.17,2.17,0.26,4.37,0.81,6.16c-3.29-2.27-7.62-6.62-6.94-13.57
					c0.46-4.7,3.16-7.49,6.27-10.72c3.83-3.96,8.1-8.39,8.01-16.95c3.02,2.65,7.77,8.04,8.29,16.1c0.04,0.53,0.35,1,0.83,1.24
					c0.47,0.24,1.04,0.21,1.48-0.08C742.23,330.45,743.4,329.65,744.63,327.68z"/>
				<path d="M705.22,429.87l0.47,2.95c-1.88,0.32-3.95,0.47-6.21,0.47h-89.16c-8.54,0-12.87,1.26-15.13,4.99l-2.65-1.36
					c3.04-5.24,8.77-6.54,16.95-6.62c-2.99-4.78-7.4-7.57-12.13-7.57c-8.7,0-15.78,9.39-15.78,20.94c0,11.55,7.08,20.94,15.78,20.94
					c4.26,0,8.23-2.24,11.15-6.14l2.42,1.74c-3.5,4.65-8.4,7.4-13.57,7.4c-10.36,0-18.78-10.74-18.78-23.94
					c0-13.2,8.42-23.94,18.78-23.94c6.31,0,12.07,3.93,15.57,10.56h17.97v-74.86c-13.1,19.4-67.79,33.56-135.18,33.56
					c-65.35,0-118.76-13.31-133.9-31.8l2.34-1.87c5.71,6.92,17.9,13.45,35.32,18.69c25.69,7.73,59.87,11.98,96.24,11.98
					c36.36,0,70.53-4.25,96.22-11.98c24.76-7.44,38.96-17.51,38.96-27.62v-6.29v-0.83l-0.88-0.55l-1.27-0.8
					c1.43-2.28,2.15-4.59,2.15-6.87c0-8.18-9.26-16.36-26.13-23.16l1.11-2.78c18.34,7.38,28.02,16.32,28.02,25.94v99.24h65.58
					C701.59,430.29,703.5,430.15,705.22,429.87z"/>
				<path class="st4" d="M666.49,580.81c5.29,0.06,9.59,6.96,9.59,15.45c0,8.53-4.33,15.47-9.66,15.47c-5.24,0-9.66-7.08-9.66-15.47
					c0-8.34,4.39-15.39,9.59-15.45c0.02,0,0.05,0,0.07,0C666.44,580.81,666.47,580.81,666.49,580.81z"/>
				<path class="st6" d="M655.98,606.69h-52.02c-5.67,0-10.29-4.62-10.29-10.29c0-2.74,1.07-5.33,3.01-7.28
					c1.95-1.94,4.54-3.01,7.28-3.01h7.9h44c-1.33,2.92-2.1,6.4-2.1,10.15C653.76,600.13,654.58,603.72,655.98,606.69z"/>
				<path d="M630.54,625l2.86,0.8c-2.86,7.56-18.81,26.03-71.6,33.08c-24.95,3.33-49.47,4.99-72.11,4.99
					c-24.42,0-46.67-1.93-64.96-5.79c-29.18-6.16-67.97-16.77-67.97-37.65c0-13.88,0.43-168.2,0.65-245.63
					c0.08-25.81,0.13-43.07,0.13-43.75c0.01-23.89,60.7-42.6,138.18-42.6c20.05,0,39.36,1.27,57.08,3.73l-0.42,2.96
					c-17.58-2.43-36.75-3.69-56.66-3.69c-36.37,0-70.54,4.25-96.22,11.97c-24.76,7.45-38.96,17.52-38.96,27.63
					c0,2.28,0.72,4.59,2.15,6.87l-1.27,0.8l-0.9,0.57l-0.01,0.78c0,1.85-0.01,3.96-0.01,6.32c0,3,1.25,6,3.66,8.93l-2.34,1.87
					c-0.49-0.59-0.94-1.19-1.35-1.8c-0.19,66.96-0.71,249.87-0.71,265.04c0,14.04,21.45,25.4,65.59,34.71
					c34.92,7.37,84.5,7.65,136.05,0.76C612.77,649.04,628.11,630.99,630.54,625z"/>
				<path class="st7" d="M630.9,609.69v13.86c0,0.34-0.11,0.83-0.36,1.45c-2.43,5.99-17.77,24.04-69.14,30.9
					c-51.55,6.89-101.13,6.61-136.05-0.76c-44.14-9.31-65.59-20.67-65.59-34.71c0-15.17,0.52-198.08,0.71-265.04
					c0.41,0.61,0.86,1.21,1.35,1.8c15.14,18.49,68.55,31.8,133.9,31.8c67.39,0,122.08-14.16,135.18-33.56v74.86h-17.97
					c-3.5-6.63-9.26-10.56-15.57-10.56c-10.36,0-18.78,10.74-18.78,23.94c0,13.2,8.42,23.94,18.78,23.94
					c5.17,0,10.07-2.75,13.57-7.4c0.81-1.08,1.55-2.25,2.19-3.52h17.78v46.8h-17.88c-3.48-6.55-9.25-10.44-15.6-10.44
					c-10.32,0-18.72,10.47-18.72,23.34c0,12.87,8.4,23.34,18.72,23.34c6.45,0,12.44-4.16,15.84-10.92h17.64v54.3h-18.13
					c-3.35-6.79-9.17-10.98-15.38-10.98c-10.11,0-18.33,10.79-18.33,24.06c0,13.27,8.22,24.06,18.33,24.06
					c6.15,0,11.76-3.93,15.17-10.56H630.9z M391.74,479.67v-51.84c0-0.83-0.67-1.5-1.5-1.5c-0.83,0-1.5,0.67-1.5,1.5v51.84
					c0,0.83,0.67,1.5,1.5,1.5C391.07,481.17,391.74,480.5,391.74,479.67z"/>
				<path class="st8" d="M630.9,340.1v6.29c0,10.11-14.2,20.18-38.96,27.62c-25.69,7.73-59.86,11.98-96.22,11.98
					c-36.37,0-70.55-4.25-96.24-11.98c-17.42-5.24-29.61-11.77-35.32-18.69c-2.41-2.93-3.66-5.93-3.66-8.93
					c0-2.36,0.01-4.47,0.01-6.32c13.12,19.49,69.68,33.58,135.21,33.58C561.21,373.65,617.74,359.58,630.9,340.1z"/>
				<path d="M630.9,339.27v0.83c-13.16,19.48-69.69,33.55-135.18,33.55c-65.53,0-122.09-14.09-135.21-33.58l0.01-0.78l0.9-0.57
					l1.27-0.8c11.9,18.97,67.85,32.73,133.03,32.73c32.59,0,62.87-3.44,86.5-9.25c23.62-5.81,40.58-13.99,46.53-23.48l1.27,0.8
					L630.9,339.27z"/>
				<path class="st9" d="M630.9,331.05c0,2.28-0.72,4.59-2.15,6.87c-5.95,9.49-22.91,17.67-46.53,23.48
					c-23.63,5.81-53.91,9.25-86.5,9.25c-65.18,0-121.13-13.76-133.03-32.73c-1.43-2.28-2.15-4.59-2.15-6.87
					c0-10.11,14.2-20.18,38.96-27.63c25.68-7.72,59.85-11.97,96.22-11.97c19.91,0,39.08,1.26,56.66,3.69
					c9.21,1.28,17.98,2.87,26.2,4.77v12.28l0.33,0.41c7.01,8.83,14.75,10.53,19.7,10.53c2.96,0,4.92-0.61,5.12-0.67l1.04-0.34
					v-14.23C621.64,314.69,630.9,322.87,630.9,331.05z M471.98,305.12c0.83-0.08,1.43-0.81,1.35-1.63c-0.08-0.83-0.8-1.43-1.63-1.35
					c-44.82,4.33-64.74,32.76-64.94,33.04c-0.47,0.69-0.29,1.62,0.39,2.09c0.26,0.18,0.56,0.26,0.85,0.26
					c0.48,0,0.95-0.23,1.24-0.65C409.43,336.6,428.54,309.33,471.98,305.12z"/>
				<path d="M613.02,287.07c0,3.31-3.18,6.14-8.25,7.91v9.69c0.37,0.15,0.74,0.29,1.11,0.44l-1.11,2.78v14.23l-1.04,0.34
					c-0.2,0.06-2.16,0.67-5.12,0.67c-4.95,0-12.69-1.7-19.7-10.53l-0.33-0.41v-12.28c-8.22-1.9-16.99-3.49-26.2-4.77l0.42-2.96
					c9.04,1.24,17.67,2.8,25.78,4.65v-1.84c-5.09-1.77-8.28-4.6-8.28-7.92c0-5.64,9.18-9.9,21.36-9.9S613.02,281.43,613.02,287.07z
					 M602.99,292.41c4.38-1.36,7.03-3.41,7.03-5.34c0-3.26-7.54-6.9-18.36-6.9s-18.36,3.64-18.36,6.9c0,1.85,2.43,3.82,6.51,5.18
					c0.09-0.02,0.18-0.03,0.27-0.03c0.41,0,0.78,0.17,1.05,0.44c2.91,0.8,6.49,1.31,10.53,1.31c4.27,0,8.02-0.57,11.01-1.46
					C602.77,292.47,602.88,292.43,602.99,292.41z M601.77,319.84v-23.98c-2.98,0.71-6.4,1.11-10.11,1.11c-3.7,0-7.11-0.4-10.08-1.1
					v15.27C589.68,321.02,598.75,320.39,601.77,319.84z"/>
				<path class="st4" d="M602.98,528.81h6.87c-2.95,4.94-7.56,7.92-12.43,7.92c-8.67,0-15.72-9.12-15.72-20.34
					c0-11.22,7.05-20.34,15.72-20.34c4.76,0,9.17,2.74,12.14,7.44h-6.58c-3.38,0-6.56,1.32-8.95,3.71
					c-2.39,2.39-3.71,5.57-3.71,8.95C590.32,523.13,596,528.81,602.98,528.81z"/>
				<path class="st4" d="M601.44,456.69h8.26c-0.37,0.62-0.77,1.22-1.19,1.78c-2.92,3.9-6.89,6.14-11.15,6.14
					c-8.7,0-15.78-9.39-15.78-20.94c0-11.55,7.08-20.94,15.78-20.94c4.73,0,9.14,2.79,12.13,7.57c-8.18,0.08-13.91,1.38-16.95,6.62
					c-0.86,1.47-1.5,3.24-1.93,5.38c-0.96,4.8,0.67,8.04,2.2,9.91C595.5,455.5,599.45,456.69,601.44,456.69z"/>
				<path class="st4" d="M609.38,583.11h-5.42c-3.54,0-6.88,1.38-9.4,3.89c-2.51,2.52-3.89,5.86-3.89,9.4
					c0,7.33,5.96,13.29,13.29,13.29h5.18c-2.91,4.78-7.17,7.56-11.75,7.56c-8.45,0-15.33-9.45-15.33-21.06
					c0-11.61,6.88-21.06,15.33-21.06C602.04,575.13,606.48,578.14,609.38,583.11z"/>
				<path class="st10" d="M610.02,287.07c0,1.93-2.65,3.98-7.03,5.34c-0.11,0.02-0.22,0.06-0.32,0.1
					c-2.99,0.89-6.74,1.46-11.01,1.46c-4.04,0-7.62-0.51-10.53-1.31c-0.27-0.27-0.64-0.44-1.05-0.44c-0.09,0-0.18,0.01-0.27,0.03
					c-4.08-1.36-6.51-3.33-6.51-5.18c0-3.26,7.54-6.9,18.36-6.9S610.02,283.81,610.02,287.07z"/>
				<path class="st11" d="M601.77,295.86v23.98c-3.02,0.55-12.09,1.18-20.19-8.7v-15.27c2.97,0.7,6.38,1.1,10.08,1.1
					C595.37,296.97,598.79,296.57,601.77,295.86z"/>
				<polygon points="561.01,751.81 535.68,777.05 524.72,766.09 526.84,763.97 535.68,772.81 558.89,749.69 				"/>
				<path d="M559.81,762.93c0.19,1.2,0.29,2.44,0.29,3.66c0,12.54-10.2,22.74-22.74,22.74c-12.54,0-22.74-10.2-22.74-22.74
					c0-12.54,10.2-22.74,22.74-22.74c4.88,0,9.54,1.52,13.46,4.41l-1.78,2.42c-3.4-2.51-7.44-3.83-11.68-3.83
					c-10.88,0-19.74,8.86-19.74,19.74s8.86,19.74,19.74,19.74s19.74-8.86,19.74-19.74c0-1.06-0.09-2.14-0.26-3.18L559.81,762.93z"/>
				<path d="M473.33,303.49c0.08,0.82-0.52,1.55-1.35,1.63c-43.44,4.21-62.55,31.48-62.74,31.76c-0.29,0.42-0.76,0.65-1.24,0.65
					c-0.29,0-0.59-0.08-0.85-0.26c-0.68-0.47-0.86-1.4-0.39-2.09c0.2-0.28,20.12-28.71,64.94-33.04
					C472.53,302.06,473.25,302.66,473.33,303.49z"/>
				<path d="M461.67,784.54c1.03,5.29,0.31,9.48-2.14,12.45c-4.24,5.15-12.78,5.84-20.57,5.84h-75.12c-4.73,0-11.51-0.5-15.7-4.85
					c-2.62-2.71-3.85-6.55-3.68-11.4c0.45-12.44,16.82-19.11,21.55-20.77c-0.37-3.08-0.73-10.87,3.95-16.66
					c3.32-4.1,8.44-6.32,15.23-6.59c1.32-3.6,6.51-14.81,19.67-13.95c9.61,0.64,14.72,8.48,16.5,13.72
					c2.82,0.19,10.18,1.21,15.04,6.77c3.55,4.05,4.96,9.59,4.22,16.48C445.09,766.83,459.17,771.72,461.67,784.54z M457.22,795.08
					c1.88-2.28,2.37-5.54,1.51-9.96c-2.54-13.01-19.91-16.91-20.09-16.94c-0.77-0.17-1.28-0.91-1.16-1.69
					c0.95-6.6-0.17-11.79-3.34-15.42c-5.09-5.81-13.78-5.76-13.88-5.78c-0.69-0.03-1.29-0.45-1.47-1.11
					c-0.13-0.48-3.35-11.85-14.13-12.57c-0.41-0.03-0.81-0.04-1.2-0.04c-12.17,0-15.69,12.71-15.73,12.85
					c-0.17,0.65-0.76,1.1-1.43,1.11c-6.39,0.07-11.1,1.92-14,5.5c-4.97,6.14-3.17,15.41-3.15,15.5c0.15,0.76-0.29,1.51-1.03,1.73
					c-0.2,0.07-20.23,6.33-20.66,18.42c-0.15,4.01,0.81,7.11,2.84,9.22c3.4,3.52,9.36,3.93,13.54,3.93h75.12
					C445.64,799.83,453.75,799.29,457.22,795.08z"/>
				<path class="st12" d="M458.73,785.12c0.86,4.42,0.37,7.68-1.51,9.96c-3.47,4.21-11.58,4.75-18.26,4.75h-75.12
					c-4.18,0-10.14-0.41-13.54-3.93c-2.03-2.11-2.99-5.21-2.84-9.22c0.43-12.09,20.46-18.35,20.66-18.42
					c0.74-0.22,1.18-0.97,1.03-1.73c-0.02-0.09-1.82-9.36,3.15-15.5c2.9-3.58,7.61-5.43,14-5.5c0.67-0.01,1.26-0.46,1.43-1.11
					c0.04-0.14,3.56-12.85,15.73-12.85c0.39,0,0.79,0.01,1.2,0.04c10.78,0.72,14,12.09,14.13,12.57c0.18,0.66,0.78,1.08,1.47,1.11
					c0.1,0.02,8.79-0.03,13.88,5.78c3.17,3.63,4.29,8.82,3.34,15.42c-0.12,0.78,0.39,1.52,1.16,1.69
					C438.82,768.21,456.19,772.11,458.73,785.12z M431.54,779.56c0.69-3.09-0.14-6.25-2.27-8.68c-2.38-2.7-5.95-4.12-9.58-3.8
					c-0.83,0.07-1.44,0.8-1.36,1.62c0.07,0.83,0.8,1.43,1.62,1.36c2.63-0.23,5.34,0.84,7.07,2.8c1.51,1.73,2.08,3.88,1.6,6.05
					c-0.18,0.81,0.33,1.61,1.13,1.79c0.11,0.02,0.22,0.04,0.33,0.04C430.77,780.74,431.39,780.26,431.54,779.56z M408.52,787.9
					c0.45-2.74-0.26-5.41-2.02-7.54c-1.66-2-4.1-3.36-6.86-3.82c-0.82-0.13-1.59,0.42-1.73,1.23c-0.14,0.82,0.42,1.59,1.23,1.73
					c2.06,0.34,3.85,1.33,5.05,2.77c0.84,1.03,1.77,2.75,1.37,5.13c-0.14,0.82,0.42,1.59,1.23,1.73c0.09,0.01,0.17,0.02,0.25,0.02
					C407.76,789.15,408.4,788.63,408.52,787.9z M401.96,753.15c0.09-0.82-0.51-1.56-1.34-1.64c-5.54-0.58-10.2,3.25-11.34,9.31
					c-0.16,0.82,0.38,1.6,1.19,1.75c0.1,0.02,0.19,0.03,0.28,0.03c0.71,0,1.34-0.5,1.47-1.22c0.71-3.77,3.48-7.38,8.1-6.89
					C401.13,754.56,401.88,753.98,401.96,753.15z M382.62,774.78c0-0.83-0.67-1.5-1.5-1.5c-6.14,0-10.08,5.27-10.67,10.23
					c-0.1,0.83,0.49,1.57,1.31,1.67c0.06,0.01,0.12,0.01,0.18,0.01c0.75,0,1.4-0.56,1.49-1.32c0.35-2.94,2.75-7.59,7.69-7.59
					C381.95,776.28,382.62,775.61,382.62,774.78z"/>
				<path d="M429.27,770.88c2.13,2.43,2.96,5.59,2.27,8.68c-0.15,0.7-0.77,1.18-1.46,1.18c-0.11,0-0.22-0.02-0.33-0.04
					c-0.8-0.18-1.31-0.98-1.13-1.79c0.48-2.17-0.09-4.32-1.6-6.05c-1.73-1.96-4.44-3.03-7.07-2.8c-0.82,0.07-1.55-0.53-1.62-1.36
					c-0.08-0.82,0.53-1.55,1.36-1.62C423.32,766.76,426.89,768.18,429.27,770.88z"/>
				<path d="M406.5,780.36c1.76,2.13,2.47,4.8,2.02,7.54c-0.12,0.73-0.76,1.25-1.48,1.25c-0.08,0-0.16-0.01-0.25-0.02
					c-0.81-0.14-1.37-0.91-1.23-1.73c0.4-2.38-0.53-4.1-1.37-5.13c-1.2-1.44-2.99-2.43-5.05-2.77c-0.81-0.14-1.37-0.91-1.23-1.73
					c0.14-0.81,0.91-1.36,1.73-1.23C402.4,777,404.84,778.36,406.5,780.36z"/>
				<path d="M400.62,751.51c0.83,0.08,1.43,0.82,1.34,1.64c-0.08,0.83-0.83,1.41-1.64,1.34c-4.62-0.49-7.39,3.12-8.1,6.89
					c-0.13,0.72-0.76,1.22-1.47,1.22c-0.09,0-0.18-0.01-0.28-0.03c-0.81-0.15-1.35-0.93-1.19-1.75
					C390.42,754.76,395.08,750.93,400.62,751.51z"/>
				<path d="M391.74,427.83v51.84c0,0.83-0.67,1.5-1.5,1.5c-0.83,0-1.5-0.67-1.5-1.5v-51.84c0-0.83,0.67-1.5,1.5-1.5
					C391.07,426.33,391.74,427,391.74,427.83z"/>
				<path d="M381.12,773.28c0.83,0,1.5,0.67,1.5,1.5s-0.67,1.5-1.5,1.5c-4.94,0-7.34,4.65-7.69,7.59c-0.09,0.76-0.74,1.32-1.49,1.32
					c-0.06,0-0.12,0-0.18-0.01c-0.82-0.1-1.41-0.84-1.31-1.67C371.04,778.55,374.98,773.28,381.12,773.28z"/>
				<path d="M353.5,467.81c0.59,0.58,0.59,1.54,0,2.12l-46.2,46.2c-0.29,0.29-0.67,0.44-1.06,0.44c-0.19,0-0.39-0.04-0.57-0.11
					c-0.56-0.24-0.93-0.78-0.93-1.39v-21.84H117.6c-0.83,0-1.5-0.67-1.5-1.5v-45.72c0-0.83,0.67-1.5,1.5-1.5h187.14v-21.84
					c0-0.61,0.37-1.15,0.93-1.39c0.56-0.23,1.2-0.1,1.63,0.33L353.5,467.81z M307.74,511.45l42.58-42.58l-42.58-42.58v19.72
					c0,0.83-0.67,1.5-1.5,1.5H119.1v42.72h187.14c0.83,0,1.5,0.67,1.5,1.5V511.45z"/>
				<path class="st13" d="M350.32,468.87l-42.58,42.58v-19.72c0-0.83-0.67-1.5-1.5-1.5H119.1v-42.72h187.14c0.83,0,1.5-0.67,1.5-1.5
					v-19.72L350.32,468.87z"/>
				<path d="M319.57,766.82c0.28,0.28,0.44,0.66,0.44,1.06c0,0.4-0.16,0.78-0.44,1.06l-29.31,29.31c-0.29,0.29-0.67,0.44-1.06,0.44
					c-0.19,0-0.39-0.04-0.57-0.11c-0.56-0.24-0.93-0.78-0.93-1.39v-14.52H117.96c-0.83,0-1.5-0.67-1.5-1.5v-26.64
					c0-0.83,0.67-1.5,1.5-1.5H287.7v-14.46c0-0.61,0.37-1.15,0.93-1.39c0.56-0.23,1.2-0.1,1.63,0.33L319.57,766.82z M290.7,793.57
					l25.69-25.69l-25.69-25.69v12.34c0,0.83-0.67,1.5-1.5,1.5H119.46v23.64H289.2c0.83,0,1.5,0.67,1.5,1.5V793.57z"/>
				<path class="st14" d="M316.39,767.88l-25.69,25.69v-12.4c0-0.83-0.67-1.5-1.5-1.5H119.46v-23.64H289.2c0.83,0,1.5-0.67,1.5-1.5
					v-12.34L316.39,767.88z"/>
				<path d="M217.64,399.76c1.66,3.09,2.01,6.63,0.99,9.98c-1.01,3.36-3.28,6.12-6.39,7.78c-1.97,1.05-4.09,1.55-6.18,1.55
					c-4.7,0-9.25-2.52-11.62-6.94c-2.06-3.84-2.06-8.46-0.01-12.36l10.29-19.18c0.26-0.49,0.77-0.79,1.32-0.79s1.06,0.3,1.32,0.79
					L217.64,399.76z M215.76,408.87c0.79-2.58,0.51-5.31-0.76-7.69l-8.96-16.71l-8.96,16.71c-1.58,3.01-1.58,6.58,0,9.54
					c2.64,4.92,8.81,6.78,13.75,4.15C213.23,413.59,214.98,411.46,215.76,408.87z"/>
				<path class="st15" d="M215,401.18c1.27,2.38,1.55,5.11,0.76,7.69c-0.78,2.59-2.53,4.72-4.93,6c-4.94,2.63-11.11,0.77-13.75-4.15
					c-1.58-2.96-1.58-6.53,0-9.54l8.96-16.71L215,401.18z M208.32,411.12c0.02-0.83-0.64-1.51-1.47-1.53
					c-4.38-0.09-5.17-4.8-5.21-5.02c-0.12-0.82-0.88-1.39-1.7-1.26c-0.82,0.12-1.38,0.88-1.26,1.7c0.37,2.57,2.55,7.46,8.11,7.58
					c0.01,0,0.02,0,0.03,0C207.63,412.59,208.3,411.94,208.32,411.12z"/>
				<path d="M206.85,409.59c0.83,0.02,1.49,0.7,1.47,1.53c-0.02,0.82-0.69,1.47-1.5,1.47c-0.01,0-0.02,0-0.03,0
					c-5.56-0.12-7.74-5.01-8.11-7.58c-0.12-0.82,0.44-1.58,1.26-1.7c0.82-0.13,1.58,0.44,1.7,1.26
					C201.68,404.79,202.47,409.5,206.85,409.59z"/>
				<path d="M178.08,408.45c1.67,1.11,5.03,4.13,4.56,10.14c-0.46,5.81-8.4,6.72-18.72,6.72c-2.28,0-4.67-0.04-7.13-0.09
					c-2.47-0.04-5.02-0.09-7.51-0.09h-19.32c-4.87,0-11.49-0.7-12.66-6.73c-0.75-3.84,1.87-8.51,5.73-10.57
					c-0.11-2.14,0.05-6.88,3.01-10.67c2.21-2.83,5.49-4.53,9.75-5.05c1.64-1.66,7.93-7.42,15.56-6.9c4.91,0.34,9.3,3.2,13.05,8.49
					c1.9,0.15,6.67,0.89,10.07,4.47C176.91,400.74,178.12,404.19,178.08,408.45z M179.64,418.35c0.46-5.73-3.67-7.68-3.71-7.7
					c-0.56-0.25-0.91-0.82-0.88-1.44c0.2-3.81-0.73-6.82-2.74-8.95c-3.34-3.53-8.67-3.6-8.72-3.6c-0.5,0-0.96-0.25-1.24-0.66
					c-3.31-4.89-7.08-7.51-11.21-7.8c-0.26-0.01-0.52-0.02-0.77-0.02c-6.93,0-12.7,6.3-12.76,6.36c-0.25,0.28-0.59,0.46-0.97,0.49
					c-3.68,0.36-6.46,1.7-8.24,3.98c-3.09,3.95-2.3,9.46-2.3,9.52c0.11,0.69-0.28,1.37-0.94,1.62c-3.36,1.3-5.4,5.19-4.92,7.67
					c0.25,1.29,0.84,4.31,9.72,4.31h19.32c2.51,0,5.08,0.05,7.57,0.09C167.37,422.42,179.31,422.64,179.64,418.35z"/>
				<path class="st16" d="M175.93,410.65c0.04,0.02,4.17,1.97,3.71,7.7c-0.33,4.29-12.27,4.07-22.79,3.87
					c-2.49-0.04-5.06-0.09-7.57-0.09h-19.32c-8.88,0-9.47-3.02-9.72-4.31c-0.48-2.48,1.56-6.37,4.92-7.67
					c0.66-0.25,1.05-0.93,0.94-1.62c0-0.06-0.79-5.57,2.3-9.52c1.78-2.28,4.56-3.62,8.24-3.98c0.38-0.03,0.72-0.21,0.97-0.49
					c0.06-0.06,5.83-6.36,12.76-6.36c0.25,0,0.51,0.01,0.77,0.02c4.13,0.29,7.9,2.91,11.21,7.8c0.28,0.41,0.74,0.66,1.24,0.66
					c0.05,0,5.38,0.07,8.72,3.6c2.01,2.13,2.94,5.14,2.74,8.95C175.02,409.83,175.37,410.4,175.93,410.65z"/>
			</g>
		</g>
	</g>
	<g>
		<circle cx="130.38" cy="416.49" r="2.16"/>
		<circle cx="144.06" cy="412.17" r="2.16"/>
		<circle cx="154.41" cy="416.49" r="2.16"/>
		<circle cx="169.17" cy="414.78" r="2.16"/>
		<circle cx="168.63" cy="404.25" r="2.16"/>
		<circle cx="158.73" cy="407.22" r="2.16"/>
		<circle cx="154.86" cy="396.42" r="2.16"/>
		<circle cx="143.07" cy="396.42" r="2.16"/>
		<circle cx="136.05" cy="405.24" r="1.98"/>
	</g>
</g>
</svg>
