<svg xmlns="http://www.w3.org/2000/svg" width="1024" height="1024" viewBox="0 0 1024 1024">
<g>
<path d="M 489.00 818.35 C487.08,818.16 480.55,817.53 474.50,816.95 C424.19,812.10 367.03,793.54 323.36,767.89 C309.32,759.64 288.58,745.37 275.00,734.62 C251.40,715.92 219.87,682.43 201.70,656.74 C164.26,603.83 141.42,542.15 133.83,473.50 C132.13,458.19 132.15,414.48 133.85,398.00 C145.56,284.63 202.79,186.78 296.29,120.25 C341.69,87.95 394.79,65.97 450.00,56.62 C475.19,52.35 486.01,51.52 516.00,51.56 C545.50,51.59 558.44,52.66 583.50,57.13 C727.75,82.85 848.07,195.54 884.99,339.50 C892.51,368.83 895.77,392.63 896.68,425.00 C897.66,459.71 894.52,490.63 886.43,525.72 C861.94,631.99 790.74,723.28 691.00,776.30 C649.74,798.23 596.07,813.81 547.50,817.96 C536.56,818.89 497.42,819.15 489.00,818.35 ZM 491.50 808.38 C502.14,809.23 545.07,808.06 557.00,806.59 C629.25,797.69 691.23,771.64 748.00,726.31 C810.60,676.32 857.10,603.47 875.50,526.56 C883.50,493.15 886.27,469.70 886.27,435.50 C886.27,386.26 878.44,343.46 861.44,299.78 C832.35,225.03 778.68,160.37 709.82,117.10 C636.88,71.26 550.02,52.96 463.00,65.10 C301.68,87.59 171.46,216.36 147.06,377.50 C143.48,401.20 142.71,414.63 143.30,443.78 C144.16,487.11 149.73,519.47 163.04,558.50 C201.46,671.15 295.03,760.20 410.44,793.95 C434.36,800.94 463.54,806.13 491.50,808.38 ZM 546.59 775.49 C468.34,782.91 389.06,762.54 324.11,718.31 C250.35,668.08 198.33,590.17 181.07,504.10 C175.79,477.76 174.55,464.96 174.52,436.50 C174.49,394.86 179.77,362.09 192.52,325.00 C209.71,274.98 237.34,230.51 273.95,193.97 C323.59,144.41 381.22,113.52 450.00,99.60 C486.36,92.24 533.23,91.64 571.23,98.06 C620.73,106.42 670.31,127.01 711.43,156.30 C734.56,172.77 764.90,201.69 781.41,223.00 C823.43,277.25 847.99,339.08 854.05,405.89 C855.77,424.78 854.76,465.34 852.13,483.00 C842.36,548.77 817.59,604.20 775.53,654.48 C717.12,724.29 636.38,766.97 546.59,775.49 ZM 495.50 766.34 C505.08,767.11 527.66,766.92 540.05,765.97 C616.87,760.09 687.80,727.91 743.88,673.51 C794.11,624.78 828.05,561.72 839.96,495.00 C849.79,439.89 845.38,381.07 827.50,329.05 C798.29,244.09 739.16,176.44 660.50,137.98 C613.09,114.80 569.09,104.63 516.00,104.59 C491.20,104.57 478.98,105.51 458.10,109.07 C358.20,126.11 269.94,190.85 222.74,281.72 C213.58,299.37 208.86,310.41 202.48,329.16 C174.24,412.20 180.50,505.24 219.57,583.13 C255.22,654.22 317.23,712.06 389.76,741.86 C423.86,755.88 455.20,763.13 495.50,766.34 ZM 675.25 586.52 C666.95,587.77 641.49,587.97 504.50,587.87 C411.70,587.80 340.75,587.36 337.00,586.83 C328.67,585.64 314.03,580.74 307.28,576.87 C292.16,568.23 280.68,556.22 273.43,541.50 C266.70,527.82 265.50,522.15 265.50,504.00 C265.50,490.54 265.81,487.51 267.85,481.00 C275.35,457.00 291.27,438.67 313.58,428.37 L 321.00 424.94 L 321.00 417.18 C321.00,407.24 322.95,399.62 328.22,389.00 C334.23,376.88 346.99,364.13 359.00,358.23 C371.24,352.23 378.81,350.72 394.00,351.24 C403.00,351.55 408.10,352.23 412.20,353.67 L 417.90 355.66 L 419.14 352.67 C421.46,347.06 429.80,335.25 435.35,329.69 C445.75,319.29 458.85,311.82 473.50,307.92 C485.09,304.83 503.40,304.82 514.96,307.88 C528.41,311.44 539.82,317.93 550.27,327.94 L 559.21 336.51 L 566.86 332.75 C577.94,327.29 588.10,325.00 601.21,325.00 C615.36,325.00 624.06,326.98 636.78,333.11 C644.84,336.99 648.70,339.62 654.60,345.23 C667.83,357.79 676.24,373.61 678.93,390.96 C679.56,395.06 680.30,398.63 680.56,398.90 C680.83,399.16 684.75,400.44 689.27,401.73 C721.29,410.87 744.65,434.07 754.69,466.72 C757.18,474.80 757.39,476.86 757.39,492.50 C757.39,508.14 757.18,510.20 754.69,518.29 C749.74,534.37 743.18,545.59 731.59,557.80 C716.43,573.75 698.17,583.06 675.25,586.52 ZM 330.78 574.96 C338.20,576.78 344.92,576.86 503.00,576.91 C607.49,576.94 670.02,576.60 674.41,575.96 C683.99,574.58 697.85,569.75 706.35,564.84 C716.14,559.19 731.13,543.94 736.69,534.00 C750.24,509.78 751.28,480.92 739.49,456.40 C734.75,446.56 725.46,434.43 717.78,428.09 C707.13,419.29 690.72,412.05 675.74,409.54 C670.61,408.68 668.76,405.61 668.87,398.13 C669.09,382.56 658.98,362.00 645.61,350.84 C632.63,339.99 619.82,335.63 601.00,335.65 C590.03,335.67 587.52,336.00 580.50,338.40 C576.10,339.90 569.28,343.13 565.35,345.58 C557.01,350.76 554.98,350.59 550.85,344.34 C542.00,330.98 524.42,319.87 507.43,316.92 C498.88,315.43 481.38,316.27 474.00,318.52 C453.95,324.66 437.64,338.48 429.80,356.00 C424.82,367.13 424.58,367.48 421.78,367.81 C420.33,367.98 417.64,367.35 415.82,366.40 C407.48,362.09 392.51,360.16 381.00,361.91 C368.82,363.76 358.37,369.35 348.55,379.28 C335.86,392.10 330.10,406.67 331.38,422.66 C332.07,431.24 331.02,432.96 323.63,435.37 C314.15,438.47 305.76,444.03 296.48,453.40 C286.29,463.68 281.49,471.70 277.85,484.55 C275.18,493.97 274.68,512.10 276.85,521.00 C279.01,529.90 287.26,545.86 293.02,552.27 C302.51,562.85 317.05,571.58 330.78,574.96 ZM 555.10 519.57 C548.98,521.42 537.68,522.09 531.50,520.98 C511.71,517.44 498.37,505.11 493.33,485.73 C491.12,477.23 491.17,461.28 493.43,453.50 C499.91,431.20 516.35,419.04 540.04,419.01 C564.39,418.98 581.78,431.68 587.51,453.69 C589.42,461.04 589.41,477.62 587.49,485.77 C583.58,502.38 571.98,514.49 555.10,519.57 ZM 445.00 520.97 C436.78,522.25 434.04,522.18 426.00,520.43 C407.81,516.49 394.56,503.97 390.54,486.91 C388.61,478.74 388.60,462.33 390.51,454.23 C394.70,436.47 407.84,423.68 425.74,419.95 C433.77,418.27 449.04,419.26 456.00,421.90 C469.69,427.09 479.81,439.80 480.37,452.50 L 480.50 455.50 L 459.23 456.07 L 458.56 453.28 C457.34,448.29 453.05,442.93 448.68,440.94 C443.63,438.65 431.54,438.33 426.69,440.36 C417.92,444.02 412.93,453.03 412.23,466.49 C411.18,486.39 417.69,498.00 431.64,501.12 C442.44,503.54 453.12,498.89 457.20,490.00 L 459.49 485.00 L 470.24 485.00 C476.70,485.00 479.71,484.90 480.64,486.24 C481.49,487.48 480.55,489.95 478.89,494.87 C474.60,507.57 460.29,518.59 445.00,520.97 ZM 532.22 500.59 C537.92,502.45 546.85,501.74 552.58,498.96 C561.62,494.59 566.00,484.92 566.00,469.33 C566.00,454.97 561.22,444.82 552.62,440.91 C546.99,438.36 534.07,438.33 528.49,440.86 C518.52,445.39 514.56,454.78 515.19,472.36 C515.54,482.04 515.95,484.18 518.28,488.69 C521.34,494.58 525.99,498.56 532.22,500.59 ZM 643.80 536.75 L 643.50 542.50 L 621.25 542.77 L 599.00 543.04 L 599.00 532.72 L 612.57 519.68 C627.04,505.77 629.00,503.13 629.00,497.55 C629.00,492.78 626.13,490.00 621.22,490.00 C616.26,490.00 613.23,492.25 612.43,496.53 L 611.78 500.00 L 599.00 500.00 L 599.00 496.82 C599.00,491.88 602.76,485.19 607.17,482.27 C610.33,480.18 612.66,479.57 618.92,479.21 C627.79,478.70 632.52,479.89 637.16,483.79 C641.11,487.11 643.01,491.65 642.98,497.72 C642.94,505.27 639.95,510.32 629.49,520.49 C624.27,525.55 620.00,529.99 620.00,530.35 C620.00,530.71 625.42,531.00 632.05,531.00 L 644.10 531.00 ZM 592.80 290.80 C591.10,292.50 586.48,292.29 584.95,290.44 C584.02,289.32 583.53,282.99 583.19,267.86 L 582.73 246.83 L 576.59 252.91 C572.81,256.66 569.60,259.00 568.25,259.00 C565.58,259.00 562.60,254.82 563.43,252.24 C563.75,251.21 569.12,245.34 575.35,239.19 C583.32,231.32 587.39,228.00 589.04,228.00 C592.06,228.00 613.91,250.44 613.96,253.60 C614.01,256.12 611.07,259.00 608.45,259.00 C607.41,259.00 603.73,256.20 600.28,252.78 L 594.00 246.56 L 594.00 268.08 C594.00,283.48 593.66,289.94 592.80,290.80 ZM 438.13 280.66 C437.60,288.75 437.18,290.47 435.50,291.56 C433.84,292.64 433.03,292.61 430.75,291.40 L 428.00 289.94 L 428.00 268.47 C428.00,256.66 427.74,247.00 427.43,247.00 C427.12,247.00 424.30,249.70 421.16,253.00 C415.22,259.24 412.44,260.30 409.57,257.43 C406.07,253.93 407.53,251.22 419.27,239.37 C427.49,231.07 431.19,228.00 432.97,228.00 C434.74,228.00 438.49,231.09 446.70,239.30 C456.08,248.68 458.00,251.11 458.00,253.60 C458.00,255.25 457.46,257.14 456.80,257.80 C454.28,260.32 451.20,259.02 445.42,253.00 C442.25,249.70 439.39,247.00 439.06,247.00 C438.73,247.00 438.53,252.41 438.61,259.03 C438.70,265.65 438.48,275.38 438.13,280.66 ZM 514.17 259.35 C511.74,261.54 509.43,261.43 507.00,259.00 C505.13,257.13 505.00,255.67 505.00,236.34 L 505.00 215.68 L 499.23 221.84 C496.05,225.23 492.65,228.00 491.66,228.00 C488.21,228.00 486.00,226.04 486.00,222.97 C486.00,220.56 487.99,217.94 496.63,209.00 C503.67,201.71 507.03,198.08 510.40,198.07 C513.75,198.05 517.11,201.63 524.13,208.75 C529.96,214.66 535.03,220.35 535.39,221.39 C536.30,224.01 533.46,228.00 530.69,228.00 C529.28,228.00 526.40,225.94 523.00,222.50 C520.01,219.48 517.22,217.00 516.78,217.00 C516.35,217.00 516.00,226.16 516.00,237.35 C516.00,255.78 515.83,257.85 514.17,259.35 Z" fill="rgba(0,0,0,1)"/>
<path d="M 491.50 808.38 C463.54,806.13 434.36,800.94 410.44,793.95 C295.03,760.20 201.46,671.15 163.04,558.50 C149.73,519.47 144.16,487.11 143.30,443.78 C142.71,414.63 143.48,401.20 147.06,377.50 C171.46,216.36 301.68,87.59 463.00,65.10 C550.02,52.96 636.88,71.26 709.82,117.10 C778.68,160.37 832.35,225.03 861.44,299.78 C878.44,343.46 886.27,386.26 886.27,435.50 C886.27,469.70 883.50,493.15 875.50,526.56 C857.10,603.47 810.60,676.32 748.00,726.31 C691.23,771.64 629.25,797.69 557.00,806.59 C545.07,808.06 502.14,809.23 491.50,808.38 ZM 546.59 775.49 C636.38,766.97 717.12,724.29 775.53,654.48 C817.59,604.20 842.36,548.77 852.13,483.00 C854.76,465.34 855.77,424.78 854.05,405.89 C847.99,339.08 823.43,277.25 781.41,223.00 C764.90,201.69 734.56,172.77 711.43,156.30 C670.31,127.01 620.73,106.42 571.23,98.06 C533.23,91.64 486.36,92.24 450.00,99.60 C381.22,113.52 323.59,144.41 273.95,193.97 C237.34,230.51 209.71,274.98 192.52,325.00 C179.77,362.09 174.49,394.86 174.52,436.50 C174.55,464.96 175.79,477.76 181.07,504.10 C198.33,590.17 250.35,668.08 324.11,718.31 C389.06,762.54 468.34,782.91 546.59,775.49 Z" fill="rgba(95,95,95,1)"/>
<path d="M 611.28 500.00 C610.23,502.23 608.75,503.00 606.20,503.00 C604.24,503.00 603.14,502.59 603.50,502.00 C603.85,501.43 603.01,501.00 601.56,501.00 C600.17,501.00 599.53,500.85 599.23,500.00 L 611.28 500.00 ZM 601.68 488.35 C603.13,485.86 605.04,483.68 607.17,482.27 C605.09,483.65 603.15,485.87 601.68,488.35 Z" fill="rgba(190,193,194,1)"/>
<path d="M 495.50 766.34 C455.20,763.13 423.86,755.88 389.76,741.86 C317.23,712.06 255.22,654.22 219.57,583.13 C180.50,505.24 174.24,412.20 202.48,329.16 C208.86,310.41 213.58,299.37 222.74,281.72 C269.94,190.85 358.20,126.11 458.10,109.07 C478.98,105.51 491.20,104.57 516.00,104.59 C569.09,104.63 613.09,114.80 660.50,137.98 C739.16,176.44 798.29,244.09 827.50,329.05 C845.38,381.07 849.79,439.89 839.96,495.00 C828.05,561.72 794.11,624.78 743.88,673.51 C687.80,727.91 616.87,760.09 540.05,765.97 C527.66,766.92 505.08,767.11 495.50,766.34 ZM 675.25 586.52 C698.17,583.06 716.43,573.75 731.59,557.80 C743.18,545.59 749.74,534.37 754.69,518.29 C757.18,510.20 757.39,508.14 757.39,492.50 C757.39,476.86 757.18,474.80 754.69,466.72 C744.65,434.07 721.29,410.87 689.27,401.73 C684.75,400.44 680.83,399.16 680.56,398.90 C680.30,398.63 679.56,395.06 678.93,390.96 C676.24,373.61 667.83,357.79 654.60,345.23 C648.70,339.62 644.84,336.99 636.78,333.11 C624.06,326.98 615.36,325.00 601.21,325.00 C588.10,325.00 577.94,327.29 566.86,332.75 L 559.21 336.51 L 550.27 327.94 C539.82,317.93 528.41,311.44 514.96,307.88 C503.40,304.82 485.09,304.83 473.50,307.92 C458.85,311.82 445.75,319.29 435.35,329.69 C429.80,335.25 421.46,347.06 419.14,352.67 L 417.90 355.66 L 412.20 353.67 C408.10,352.23 403.00,351.55 394.00,351.24 C378.81,350.72 371.24,352.23 359.00,358.23 C346.99,364.13 334.23,376.88 328.22,389.00 C322.95,399.62 321.00,407.24 321.00,417.18 L 321.00 424.94 L 313.58 428.37 C291.27,438.67 275.35,457.00 267.85,481.00 C265.81,487.51 265.50,490.54 265.50,504.00 C265.50,522.15 266.70,527.82 273.43,541.50 C280.68,556.22 292.16,568.23 307.28,576.87 C314.03,580.74 328.67,585.64 337.00,586.83 C340.75,587.36 411.70,587.80 504.50,587.87 C641.49,587.97 666.95,587.77 675.25,586.52 ZM 438.13 280.66 C438.48,275.38 438.70,265.65 438.61,259.03 C438.53,252.41 438.73,247.00 439.06,247.00 C439.39,247.00 442.25,249.70 445.42,253.00 C451.20,259.02 454.28,260.32 456.80,257.80 C457.46,257.14 458.00,255.25 458.00,253.60 C458.00,251.11 456.08,248.68 446.70,239.30 C438.49,231.09 434.74,228.00 432.97,228.00 C431.19,228.00 427.49,231.07 419.27,239.37 C407.53,251.22 406.07,253.93 409.57,257.43 C412.44,260.30 415.22,259.24 421.16,253.00 C424.30,249.70 427.12,247.00 427.43,247.00 C427.74,247.00 428.00,256.66 428.00,268.47 L 428.00 289.94 L 430.75 291.40 C433.03,292.61 433.84,292.64 435.50,291.56 C437.18,290.47 437.60,288.75 438.13,280.66 ZM 592.80 290.80 C593.66,289.94 594.00,283.48 594.00,268.08 L 594.00 246.56 L 600.28 252.78 C603.73,256.20 607.41,259.00 608.45,259.00 C611.07,259.00 614.01,256.12 613.96,253.60 C613.91,250.44 592.06,228.00 589.04,228.00 C587.39,228.00 583.32,231.32 575.35,239.19 C569.12,245.34 563.75,251.21 563.43,252.24 C562.60,254.82 565.58,259.00 568.25,259.00 C569.60,259.00 572.81,256.66 576.59,252.91 L 582.73 246.83 L 583.19 267.86 C583.53,282.99 584.02,289.32 584.95,290.44 C586.48,292.29 591.10,292.50 592.80,290.80 ZM 514.17 259.35 C515.83,257.85 516.00,255.78 516.00,237.35 C516.00,226.16 516.35,217.00 516.78,217.00 C517.22,217.00 520.01,219.48 523.00,222.50 C526.40,225.94 529.28,228.00 530.69,228.00 C533.46,228.00 536.30,224.01 535.39,221.39 C535.03,220.35 529.96,214.66 524.13,208.75 C510.05,194.47 510.68,194.46 496.63,209.00 C487.99,217.94 486.00,220.56 486.00,222.97 C486.00,226.04 488.21,228.00 491.66,228.00 C492.65,228.00 496.05,225.23 499.23,221.84 L 505.00 215.68 L 505.00 236.34 C505.00,255.67 505.13,257.13 507.00,259.00 C509.43,261.43 511.74,261.54 514.17,259.35 ZM 330.78 574.96 C317.05,571.58 302.51,562.85 293.02,552.27 C287.26,545.86 279.01,529.90 276.85,521.00 C274.68,512.10 275.18,493.97 277.85,484.55 C281.49,471.70 286.29,463.68 296.48,453.40 C305.76,444.03 314.15,438.47 323.63,435.37 C331.02,432.96 332.07,431.24 331.38,422.66 C330.10,406.67 335.86,392.10 348.55,379.28 C358.37,369.35 368.82,363.76 381.00,361.91 C392.51,360.16 407.48,362.09 415.82,366.40 C417.64,367.35 420.33,367.98 421.78,367.81 C424.58,367.48 424.82,367.13 429.80,356.00 C437.64,338.48 453.95,324.66 474.00,318.52 C481.38,316.27 498.88,315.43 507.43,316.92 C524.42,319.87 542.00,330.98 550.85,344.34 C554.98,350.59 557.01,350.76 565.35,345.58 C569.28,343.13 576.10,339.90 580.50,338.40 C587.52,336.00 590.03,335.67 601.00,335.65 C619.82,335.63 632.63,339.99 645.61,350.84 C658.98,362.00 669.09,382.56 668.87,398.13 C668.76,405.61 670.61,408.68 675.74,409.54 C690.72,412.05 707.13,419.29 717.78,428.09 C725.46,434.43 734.75,446.56 739.49,456.40 C751.28,480.92 750.24,509.78 736.69,534.00 C731.13,543.94 716.14,559.19 706.35,564.84 C697.85,569.75 683.99,574.58 674.41,575.96 C670.02,576.60 607.49,576.94 503.00,576.91 C344.92,576.86 338.20,576.78 330.78,574.96 ZM 643.80 536.75 L 644.10 531.00 L 632.05 531.00 C625.42,531.00 620.00,530.71 620.00,530.35 C620.00,529.99 624.27,525.55 629.49,520.49 C639.95,510.32 642.94,505.27 642.98,497.72 C643.01,491.65 641.11,487.11 637.16,483.79 C632.52,479.89 627.79,478.70 618.92,479.21 C612.66,479.57 610.33,480.18 607.17,482.27 C602.60,485.29 599.00,491.92 599.00,497.32 C599.00,500.60 599.28,501.00 601.56,501.00 C603.01,501.00 603.85,501.43 603.50,502.00 C603.14,502.59 604.24,503.00 606.20,503.00 C609.85,503.00 611.31,501.42 612.45,496.22 C613.34,492.16 616.39,490.00 621.22,490.00 C626.13,490.00 629.00,492.78 629.00,497.55 C629.00,503.13 627.04,505.77 612.57,519.68 L 599.00 532.72 L 599.00 537.88 L 599.00 543.04 L 621.25 542.77 L 643.50 542.50 L 643.80 536.75 ZM 445.00 520.97 C460.29,518.59 474.60,507.57 478.89,494.87 C482.35,484.63 482.67,485.00 470.24,485.00 L 459.49 485.00 L 457.20 490.00 C453.12,498.89 442.44,503.54 431.64,501.12 C417.69,498.00 411.18,486.39 412.23,466.49 C412.93,453.03 417.92,444.02 426.69,440.36 C431.54,438.33 443.63,438.65 448.68,440.94 C453.05,442.93 457.34,448.29 458.56,453.28 L 459.23 456.07 L 469.87 455.78 L 480.50 455.50 L 480.37 452.50 C479.81,439.80 469.69,427.09 456.00,421.90 C449.04,419.26 433.77,418.27 425.74,419.95 C407.84,423.68 394.70,436.47 390.51,454.23 C388.60,462.33 388.61,478.74 390.54,486.91 C394.56,503.97 407.81,516.49 426.00,520.43 C434.04,522.18 436.78,522.25 445.00,520.97 ZM 555.10 519.57 C571.98,514.49 583.58,502.38 587.49,485.77 C589.41,477.62 589.42,461.04 587.51,453.69 C581.78,431.68 564.39,418.98 540.04,419.01 C516.35,419.04 499.91,431.20 493.43,453.50 C491.17,461.28 491.12,477.23 493.33,485.73 C498.37,505.11 511.71,517.44 531.50,520.98 C537.68,522.09 548.98,521.42 555.10,519.57 ZM 532.22 500.59 C525.99,498.56 521.34,494.58 518.28,488.69 C515.95,484.18 515.54,482.04 515.19,472.36 C514.56,454.78 518.52,445.39 528.49,440.86 C534.07,438.33 546.99,438.36 552.62,440.91 C561.22,444.82 566.00,454.97 566.00,469.33 C566.00,484.92 561.62,494.59 552.58,498.96 C546.85,501.74 537.92,502.45 532.22,500.59 Z" fill="rgba(239,238,229,1)"/>
</g>
</svg>