<?xml version="1.0" encoding="utf-8"?>
<!-- Generator: Adobe Illustrator 23.0.5, SVG Export Plug-In . SVG Version: 6.00 Build 0)  -->
<svg version="1.1" id="Layer_1" xmlns="http://www.w3.org/2000/svg" xmlns:xlink="http://www.w3.org/1999/xlink" x="0px" y="0px"
	 viewBox="0 0 1080 1080" style="enable-background:new 0 0 1080 1080;" xml:space="preserve">
<style type="text/css">
	.st0{fill:#BA8E65;}
	.st1{fill:#D69866;}
	.st2{fill:#F3AA40;}
	.st3{fill:#E63B3C;}
	.st4{fill:#DDE0DF;}
	.st5{fill:#F5B144;}
	.st6{fill:#E44841;}
	.st7{fill:#FFFFFF;}
	.st8{fill:#E8E7E6;}
	.st9{fill:#E4E4E3;}
	.st10{fill:#FEFFFF;}
	.st11{fill:#E0E0E0;}
</style>
<g>
	<g>
		<path class="st0" d="M475.94,620.22c0,0-38.04,2.4-59.04,2.04c-21-0.36-63.12-4.56-79.5-9.42s-24.9-10.62-25.5-18.18
			s19.44-19.2,29.4-17.28c9.96,1.92,138.12-10.08,138.12-10.08l28.71-12.06c0,0,12.69,2.43,24.66,3.51
			c11.97,1.08,32.76-1.35,32.76-1.35l109.23,13.98l75.3-5.94c0,0,16.08,4.92,17.88,14.1c1.8,9.18-12.15,15.75-19.08,17.46
			c-6.93,1.71-46.44,10.8-46.44,10.8s-39.6,7.74-69.48,7.02c-29.88-0.72-58.32-2.34-68.04-3.6c-9.72-1.26-31.86,6.48-52.02,4.5
			L475.94,620.22z"/>
		<g id="XMLID_1_">
			<g>
				<g>
					<ellipse cx="605.65" cy="661.4" rx="4.57" ry="2.28"/>
				</g>
				<g>
					<ellipse cx="583.02" cy="665.46" rx="4.57" ry="2.28"/>
				</g>
				<g>
					<path d="M552.96,662.81c2.53,0.1,4.52,1.37,4.46,2.83c-0.06,1.46-2.15,2.56-4.66,2.47c-2.53-0.1-4.53-1.37-4.47-2.83
						C548.34,663.82,550.43,662.72,552.96,662.81z"/>
				</g>
				<g>
					<path d="M583.69,648.32c2.4,0.77,4.06,2.36,3.71,3.56c-0.37,1.2-2.63,1.56-5.04,0.79c-2.4-0.76-4.06-2.35-3.71-3.56
						C579.01,647.92,581.27,647.56,583.69,648.32z"/>
				</g>
				<g>
					<path d="M563.7,653.53c2.53,0.1,4.53,1.37,4.47,2.83c-0.06,1.46-2.15,2.57-4.67,2.47c-2.53-0.1-4.53-1.37-4.47-2.83
						C559.09,654.53,561.18,653.43,563.7,653.53z"/>
				</g>
				<g>
					<path d="M565.59,642.65c0.29,1.43-1.48,3.01-3.96,3.52c-2.47,0.51-4.71-0.24-5-1.67c-0.29-1.44,1.48-3.01,3.96-3.52
						C563.06,640.46,565.3,641.21,565.59,642.65z"/>
				</g>
				<g>
					<path d="M546.45,655.25c0.39,1.41-1.27,3.12-3.69,3.82c-2.44,0.7-4.72,0.12-5.11-1.29c-0.39-1.41,1.26-3.12,3.69-3.81
						C543.77,653.26,546.06,653.84,546.45,655.25z"/>
				</g>
				<g>
					<path class="st1" d="M632.23,672.03H510.55c0.11-1.29,0.57-2.46,1.36-3.54c3.49-4.7,12.13-5.92,12.22-5.93l1.11-0.15l0.55-1
						c6.28-11.56,18.71-15.63,18.84-15.66l0.95-0.29l0.42-0.93c5.25-11.65,15.87-9.44,16.3-9.34l0.87,0.2l0.76-0.45
						c12.36-7.34,18.88,2.15,19.15,2.56l0.76,1.16l1.36-0.16c10.84-1.28,13.92,8.2,14.04,8.6l0.48,1.62l1.66-0.01
						c0.04,0,0.08,0,0.12,0c11.58,0,17.4,13.1,17.46,13.22l0.57,1.33l1.42,0.03C629.31,663.49,631.61,668.85,632.23,672.03z
						 M610.22,661.4c0-1.26-2.05-2.28-4.57-2.28c-2.53,0-4.57,1.02-4.57,2.28s2.05,2.28,4.57,2.28
						C608.18,663.68,610.22,662.66,610.22,661.4z M587.39,651.88c0.36-1.2-1.3-2.79-3.71-3.56c-2.41-0.76-4.67-0.41-5.04,0.79
						c-0.36,1.21,1.3,2.8,3.71,3.56C584.77,653.45,587.03,653.08,587.39,651.88z M587.59,665.46c0-1.26-2.05-2.28-4.57-2.28
						c-2.53,0-4.57,1.02-4.57,2.28s2.05,2.28,4.57,2.28C585.55,667.74,587.59,666.72,587.59,665.46z M568.18,656.36
						c0.06-1.46-1.95-2.73-4.47-2.83c-2.53-0.09-4.62,1.01-4.67,2.47c-0.06,1.46,1.95,2.73,4.47,2.83
						C566.03,658.93,568.12,657.82,568.18,656.36z M561.62,646.17c2.48-0.51,4.25-2.1,3.96-3.52c-0.29-1.44-2.53-2.19-5-1.67
						c-2.48,0.51-4.25,2.09-3.96,3.52C556.92,645.93,559.15,646.68,561.62,646.17z M557.42,665.64c0.06-1.46-1.94-2.73-4.46-2.83
						c-2.53-0.09-4.62,1.01-4.67,2.47c-0.06,1.46,1.95,2.73,4.47,2.83C555.27,668.2,557.36,667.1,557.42,665.64z M542.75,659.07
						c2.43-0.7,4.08-2.41,3.69-3.82c-0.39-1.41-2.68-1.98-5.11-1.28c-2.44,0.69-4.08,2.4-3.69,3.81
						C538.04,659.19,540.32,659.77,542.75,659.07z"/>
				</g>
				<g>
					<path d="M622.38,658.84c11.63,0.94,14.61,10.43,14.53,15.49l-0.03,2.23H506.49l-0.28-1.94c-0.48-3.32,0.24-6.3,2.16-8.87
						c3.77-5.09,11.23-6.95,14.06-7.49c6.24-10.67,16.71-15.29,19.93-16.5c5.24-10.57,14.86-11.98,20.04-11.15
						c12.8-7.15,20.95,0.31,23.51,3.28c9.65-0.58,15,5.77,16.99,10.35C614.22,645.03,620.48,655.18,622.38,658.84z M510.55,672.03
						h121.68c-0.62-3.18-2.93-8.54-11.3-8.73l-1.42-0.03l-0.57-1.33c-0.06-0.12-5.87-13.22-17.46-13.22c-0.04,0-0.08,0-0.12,0
						l-1.66,0.01l-0.48-1.62c-0.12-0.4-3.2-9.88-14.04-8.6l-1.36,0.16l-0.76-1.16c-0.27-0.41-6.79-9.9-19.15-2.56l-0.76,0.45
						l-0.87-0.2c-0.43-0.1-11.05-2.31-16.3,9.34l-0.42,0.93l-0.95,0.29c-0.12,0.03-12.56,4.1-18.84,15.66l-0.55,1l-1.11,0.15
						c-0.09,0.01-8.72,1.22-12.22,5.93C511.12,669.57,510.67,670.74,510.55,672.03z"/>
				</g>
			</g>
		</g>
		<g id="XMLID_2_">
			<g>
				<path class="st2" d="M386.25,443.73c0.04-2.35,0.33-9.09,1.16-11.93c0.24-0.82,0.88-1.33,1.07-1.34
					c0.02,0.01,2.12,1.47,0.47,12.29c-0.13,0.88,0.41,1.72,1.27,1.95c0.86,0.23,1.76-0.22,2.09-1.04c1.58-4,4.18-7.59,5.41-7.39
					c0.62,0.77-0.23,6.55-8.39,18.34c-0.2,0.3-0.31,0.64-0.31,1v15.6c-1.75-0.19-3.62-0.12-5.59,0.33V452.7
					c0-0.29-0.07-0.57-0.21-0.82c-0.04-0.09-4.92-9.27-6.06-12.69c-0.26-0.78,0.07-1.56,0.41-1.69c0.43-0.16,2.6,0.53,5.32,6.89
					c0.33,0.76,1.14,1.19,1.95,1.03C385.65,445.26,386.24,444.56,386.25,443.73z"/>
				<path class="st2" d="M465.35,435.44c-2.21,6.28-8.4,13.85-8.46,13.93c-0.24,0.29-0.38,0.64-0.4,1.02l-0.93,17.3
					c-1-0.36-2.05-0.63-3.15-0.81c-0.57-0.1-1.13-0.16-1.68-0.2l1.63-18.02c0.04-0.39-0.06-0.78-0.27-1.11
					c-2.57-3.97-6.78-11.03-7.12-13.08c-0.15-0.87,0.2-1.7,0.34-1.8c0.01,0,0.48,0.05,1.36,0.93c0.88,0.87,2.17,2.56,3.83,5.85
					c0.35,0.7,1.12,1.07,1.89,0.93c0.77-0.15,1.34-0.79,1.41-1.56c0.01-0.1,0.84-9.33,1.52-12.24c0.19-0.79,0.9-1.31,1.19-1.28
					c0.12,0.02,0.85,0.78,0.76,3.65c-0.24,7.68-0.3,10.09-0.3,10.09c-0.02,0.88,0.62,1.64,1.49,1.77c0.87,0.14,1.7-0.4,1.94-1.25
					c1.38-4.84,3.72-9.59,4.91-9.97c0.57-0.18,0.85-0.15,0.9-0.13C466.22,429.47,467.06,430.57,465.35,435.44z"/>
				<path class="st3" d="M485.83,548.23c-3.48,0.14-14.63,0.1-18.13-5.85c-2.38-4.03-1.26-8.72,1.06-11.27
					c0.67-0.73,2.19-2.07,4.33-2.07c0.76,0,1.61,0.17,2.52,0.6C481.16,532.26,484.68,543.19,485.83,548.23z"/>
				<path class="st4" d="M508.08,558.58c0.82,0.68,1.25,1.36,1.19,1.93c-0.04,0.47-0.39,0.83-0.63,1c-0.3-0.29-0.71-0.93-1.03-1.61
					C507.77,559.49,507.93,559.05,508.08,558.58z"/>
				<path class="st5" d="M501.38,544.23l-13.14,11.46c-0.15-0.42-0.28-0.85-0.34-1.28c-0.31-2.23,0.65-4.39,2.72-6.1
					C493.43,545.98,497.87,544.81,501.38,544.23z"/>
				<path class="st5" d="M505.75,545.06c0.48,2.46,0.8,6.61-0.73,11.65c-1.02,3.36-2.16,5.3-3.48,5.9
					c-1.58,0.74-4.18-0.11-7.86-1.71c-1.37-0.6-2.53-1.39-3.46-2.29L505.75,545.06z"/>
				<path class="st6" d="M510.21,590.16c0.56,0.05,1.79,0.41,3.67,2.27c0.01,0.01,0.01,0.02,0.02,0.03
					c0.01,0.01,0.03,0.02,0.04,0.03c0.93,0.94,2.02,2.24,3.28,4.06c5.71,8.32,3.19,12.64,2.36,14.06c-0.6,1.03-1.87,1.23-2.57,1.26
					c-1.69,0.06-3.24-0.65-3.76-1.39c-0.49-0.7-1.42-0.94-2.2-0.56c-0.77,0.37-1.15,1.26-0.9,2.08c0.02,0.08,2.58,8.69,0.57,14.09
					c-0.7,1.87-2.47,3.06-4.74,3.17c-2.62,0.11-6.17-1.25-8.25-5.49c-0.31-0.63-0.97-1.03-1.68-0.98s-1.32,0.51-1.55,1.18
					c-0.15,0.44-3.81,10.8-11.26,8.61c-2.43-0.71-3.83-2.24-4.28-4.67c-0.7-3.78,1.16-8.06,2.34-9.33
					c10.47-2.13,20.12-7.36,26.13-21.31c1.03-2.4,1.72-4.74,2.16-7.02C509.77,590.17,509.97,590.14,510.21,590.16z"/>
				<path class="st7" d="M520.66,570.82c0.01,0.05,0.02,0.09,0.03,0.14c-1.93,1.92-5.56,4.91-11.02,7.1
					c-1.08-6.3-3.62-11.12-5-13.38c0.37-0.34,0.72-0.75,1.05-1.2c0.63,0.76,1.43,1.41,2.39,1.58c0.14,0.03,0.29,0.04,0.44,0.04
					c1.58,0,3.36-1.39,3.98-3.21c0.1-0.3,0.2-0.71,0.23-1.19C515.85,562.73,519.36,565.99,520.66,570.82z"/>
				<path class="st4" d="M520.69,570.96c1.49,5.72-0.52,11.99-5.68,17.8c-1.56-1.25-3.06-1.96-4.49-2.08c-0.15-0.02-0.3,0-0.45,0
					c0.25-3.08,0.05-5.98-0.4-8.62C515.13,575.87,518.76,572.88,520.69,570.96z"/>
				<path class="st8" d="M409.95,578.74c-0.34,7.24-3.95,11.06-4.14,11.24c-0.04,0.05-0.09,0.1-0.13,0.15
					c-0.08,0.1-8.45,10.43-33.5,12.51c-27.93,2.3-37.45-4.45-40.64-8.67c-1.41-1.87-1.41-4.82-0.12-7.32
					c1.81,6.13,9.76,7.92,40.24,8.13C397.02,594.96,406.63,584.42,409.95,578.74z"/>
				<path class="st9" d="M506.43,580.42c0.54,4.6,0.17,9.92-2.22,15.47c-6.67,15.49-17.9,19.37-32.71,20.43
					c-7.42,0.52-15.27-2.62-23.57-5.96c-5.98-2.39-12.15-4.87-18.26-5.91c-11.42-1.93-22.83-4.55-29.17-6.02
					c5.1-2.87,7.44-5.53,7.87-6.06c0.68-0.72,5.41-6.08,5.09-15.61c2.49,1.97,8.15,6.32,20.78,15.74
					c20.76,15.48,42.66,12.24,52.86,6.6C495.24,594.6,503.44,584.38,506.43,580.42z"/>
				<path class="st10" d="M409.88,575.38c0.11,1.19,0.13,2.32,0.07,3.36c-3.32,5.68-12.93,16.22-38.29,16.04
					c-30.48-0.21-38.43-2-40.24-8.13c0.23-0.44,0.5-0.87,0.81-1.28c1.81-2.39,4.56-3.6,7.94-3.6c2.21,0,4.68,0.51,7.33,1.56
					c0.84,0.33,1.79-0.03,2.2-0.84c0.41-0.8,0.14-1.78-0.62-2.27c-0.07-0.04-7.25-4.71-6.64-11.69c0.15-1.61,0.84-2.01,1.5-2.18
					c2.49-0.67,7.02,1.4,9.69,3.36c1.04,1.08,1.87,1.81,2.12,2.03c0.67,0.58,1.67,0.57,2.32-0.02c0.66-0.59,0.77-1.58,0.26-2.3
					c-0.48-0.69-1.29-1.49-2.32-2.29c-2.41-2.53-5.46-6.46-5.4-9.51c0.03-1.41,0.68-2.62,1.93-3.61c2.11-1.66,5.71-2.42,8.54-1.8
					c3.27,0.72,6,0.35,8.11-1.1c2.32-1.59,3.82-4.45,4.44-8.5c0.03-0.22,0.08-0.44,0.13-0.66c0.76-3.25,3.37-6.07,6.56-6.99
					c4.1-1.18,8.65,0.82,12.82,5.64C402.77,551.75,408.87,564.43,409.88,575.38z"/>
				<path class="st11" d="M378.44,493.5c-13.95,17.77-9.57,38.65-7.48,45.74c-0.37,0.9-0.64,1.85-0.79,2.83
					c-0.47,3.06-1.47,5.13-2.96,6.15c-1.3,0.89-3.06,1.08-5.37,0.57c-0.64-0.14-1.3-0.21-1.97-0.25c-0.75-3.87-2.6-15.79,0.27-27.63
					c3.46-14.27,12.81-24.12,12.9-24.22c0.37-0.38,0.54-0.91,0.48-1.44c-0.03-0.15-1.91-15.77,8.77-19.73
					c1.69-0.63,3.31-0.9,4.83-0.92C379.47,483.72,378.44,493.5,378.44,493.5z"/>
				<path class="st7" d="M501.53,566.26c1.25,2.04,4.1,7.3,4.9,14.16c-2.99,3.96-11.19,14.18-19.33,18.68
					c-10.2,5.64-32.1,8.88-52.86-6.6c-12.63-9.42-18.29-13.77-20.78-15.74c-0.01-0.55-0.05-1.12-0.1-1.7
					c-1.07-11.66-7.48-25.06-17.58-36.74c-6.89-7.98-13.25-7.64-16.43-6.72c-3.79,1.09-6.91,4-8.39,7.64
					c-2.09-7.09-6.47-27.97,7.48-45.74c0,0,1.03-9.78,8.68-18.9c0.94-0.01,1.84,0.08,2.7,0.24c0.27,0.18,0.6,0.29,0.95,0.29
					c0.07,0,0.13-0.02,0.19-0.02c5.96,1.63,9.78,6.7,10.01,7c0.47,0.65,1.33,0.9,2.08,0.59c0.14-0.06,14.28-5.81,30.4-3.49
					c0.65,0.09,1.3-0.19,1.68-0.73c0.07-0.09,7.02-9.8,16.7-8.15c9.24,1.57,12.11,9.91,12.89,16.62c0.06,0.52,0.35,0.98,0.78,1.26
					c0.16,0.11,16.01,10.63,23.19,23.51c6.33,11.35,9.26,25.9,9.92,29.48c-3.37,0.73-7.13,2-9.9,4.16
					c-1.44-5.3-5.05-15.79-11.6-18.88c-3.88-1.83-7.96-0.98-10.93,2.27c-2.8,3.06-4.32,8.36-2.49,13.32
					c-2.83,0.78-7.95,2.57-12.7,6.14c-2-0.17-6.73-0.46-8.89,0.33c-0.91,0.34-1.38,1.34-1.04,2.25c0.26,0.71,0.93,1.15,1.64,1.15
					c0.2,0,0.4-0.04,0.6-0.11c0.7-0.26,2.27-0.33,3.96-0.3c-1.92,2.03-3.64,4.45-4.9,7.33c-0.39,0.88,0.01,1.91,0.9,2.3
					c0.23,0.1,0.46,0.15,0.7,0.15c0.67,0,1.31-0.39,1.6-1.05c4.56-10.37,16.24-14.09,19.86-15.02c4.38,5.73,13.83,6.53,18.72,6.53
					c0.14,0,0.27,0,0.41,0c-0.21,1.02-0.26,2.07-0.11,3.13c0.21,1.54,0.83,3.01,1.74,4.34c0.07,0.13,0.14,0.25,0.24,0.36
					c0.03,0.04,0.07,0.06,0.1,0.1c1.38,1.81,3.34,3.35,5.76,4.4c2.86,1.25,5.5,2.29,7.89,2.29
					C500.63,566.39,501.08,566.34,501.53,566.26z M492.66,577.93c0.3-0.92-0.2-1.91-1.11-2.21c-7.35-2.41-12.53-0.24-15.57,2
					c-4.72,3.48-7.17,9.27-7.13,12.11c0.01,0.95,0.8,1.72,1.75,1.72c0.01,0,0.02,0,0.03,0c0.96-0.02,1.73-0.81,1.72-1.78
					c-0.03-1.73,1.91-6.43,5.7-9.23c3.47-2.55,7.64-3.06,12.41-1.5C491.37,579.34,492.36,578.84,492.66,577.93z"/>
				<path d="M524.04,569.9c1.88,6.99-0.43,14.51-6.52,21.31c0.85,0.97,1.71,2.09,2.58,3.36c4.69,6.83,5.51,12.65,2.5,17.8
					c-1.05,1.8-3.04,2.9-5.44,3c-0.94,0.03-1.86-0.07-2.73-0.29c0.6,3.42,1.02,8.35-0.43,12.23c-1.19,3.18-4.19,5.26-7.85,5.44
					c-3,0.17-6.86-1.03-9.71-4.52c-2.09,3.89-5.87,8.16-11.15,8.16c-0.96,0-1.97-0.14-3.03-0.45c-3.66-1.08-6.05-3.7-6.74-7.39
					c-0.57-3.05,0.08-6.55,1.27-9.23c-1.68,0.21-3.36,0.37-5.05,0.49c-0.62,0.04-1.24,0.06-1.87,0.06c-7.65,0-15.57-3.18-23.25-6.26
					c-5.8-2.33-11.8-4.73-17.53-5.7c-11.77-2-23.49-4.71-29.79-6.16c-1.28-0.3-2.32-0.54-3.06-0.7c-0.21-0.05-0.41-0.14-0.58-0.25
					c-5.52,2.35-13.08,4.49-23.2,5.32c-4,0.34-7.66,0.49-11.01,0.49c-20.14,0-28.91-5.5-32.71-10.54c-2.61-3.46-2.32-8.85,0.7-12.82
					l1.54,0.61c0.06,1.02,0.19,1.95,0.44,2.79c-1.29,2.5-1.29,5.45,0.12,7.32c3.19,4.22,12.71,10.97,40.64,8.67
					c25.05-2.08,33.42-12.41,33.5-12.51c0.04-0.05,0.09-0.1,0.13-0.15c0.19-0.18,3.8-4,4.14-11.24c1.23-2.09,1.61-3.52,1.61-3.52
					s0.29,0.28,1.9,1.54c0.32,9.53-4.41,14.89-5.09,15.61c-0.43,0.53-2.77,3.19-7.87,6.06c6.34,1.47,17.75,4.09,29.17,6.02
					c6.11,1.04,12.28,3.52,18.26,5.91c8.3,3.34,16.15,6.48,23.57,5.96c14.81-1.06,26.04-4.94,32.71-20.43
					c2.39-5.55,2.76-10.87,2.22-15.47c0.76-1,1.18-1.6,1.18-1.6c0.71-0.24,1.4-0.49,2.06-0.76c0.45,2.64,0.65,5.54,0.4,8.62
					c0.15,0,0.3-0.02,0.45,0c1.43,0.12,2.93,0.83,4.49,2.08c5.16-5.81,7.17-12.08,5.68-17.8c1.14-1.11,1.69-1.86,1.69-1.86l1.39-0.1
					C523.87,569.29,523.96,569.59,524.04,569.9z M519.58,610.61c0.83-1.42,3.35-5.74-2.36-14.06c-1.26-1.82-2.35-3.12-3.28-4.06
					c-0.01-0.01-0.03-0.02-0.04-0.03c-0.01-0.01-0.01-0.02-0.02-0.03c-1.88-1.86-3.11-2.22-3.67-2.27
					c-0.24-0.02-0.44,0.01-0.62,0.09c-0.44,2.28-1.13,4.62-2.16,7.02c-6.01,13.95-15.66,19.18-26.13,21.31
					c-1.18,1.27-3.04,5.55-2.34,9.33c0.45,2.43,1.85,3.96,4.28,4.67c7.45,2.19,11.11-8.17,11.26-8.61c0.23-0.67,0.84-1.13,1.55-1.18
					s1.37,0.35,1.68,0.98c2.08,4.24,5.63,5.6,8.25,5.49c2.27-0.11,4.04-1.3,4.74-3.17c2.01-5.4-0.55-14.01-0.57-14.09
					c-0.25-0.82,0.13-1.71,0.9-2.08c0.78-0.38,1.71-0.14,2.2,0.56c0.52,0.74,2.07,1.45,3.76,1.39
					C517.71,611.84,518.98,611.64,519.58,610.61z"/>
				<path d="M389.02,471.21v-15.6c0-0.36,0.11-0.7,0.31-1c8.16-11.79,9.01-17.57,8.39-18.34c-1.23-0.2-3.83,3.39-5.41,7.39
					c-0.33,0.82-1.23,1.27-2.09,1.04c-0.86-0.23-1.4-1.07-1.27-1.95c1.65-10.82-0.45-12.28-0.47-12.29
					c-0.19,0.01-0.83,0.52-1.07,1.34c-0.83,2.84-1.12,9.58-1.16,11.93c-0.01,0.83-0.6,1.53-1.41,1.69
					c-0.81,0.16-1.62-0.27-1.95-1.03c-2.72-6.36-4.89-7.05-5.32-6.89c-0.34,0.13-0.67,0.91-0.41,1.69
					c1.14,3.42,6.02,12.6,6.06,12.69c0.14,0.25,0.21,0.53,0.21,0.82v18.84C385.4,471.09,387.27,471.02,389.02,471.21z M387.12,474.6
					c-1.52,0.02-3.14,0.29-4.83,0.92c-10.68,3.96-8.8,19.58-8.77,19.73c0.06,0.53-0.11,1.06-0.48,1.44
					c-0.09,0.1-9.44,9.95-12.9,24.22c-2.87,11.84-1.02,23.76-0.27,27.63c0.67,0.04,1.33,0.11,1.97,0.25
					c2.31,0.51,4.07,0.32,5.37-0.57c1.49-1.02,2.49-3.09,2.96-6.15c0.15-0.98,0.42-1.93,0.79-2.83c0.47,1.6,0.82,2.5,0.82,2.5
					l1.98,0.21c-0.05,0.22-0.1,0.44-0.13,0.66c-0.62,4.05-2.12,6.91-4.44,8.5c-2.11,1.45-4.84,1.82-8.11,1.1
					c-2.83-0.62-6.43,0.14-8.54,1.8c-1.25,0.99-1.9,2.2-1.93,3.61c-0.06,3.05,2.99,6.98,5.4,9.51c1.03,0.8,1.84,1.6,2.32,2.29
					c0.51,0.72,0.4,1.71-0.26,2.3c-0.65,0.59-1.65,0.6-2.32,0.02c-0.25-0.22-1.08-0.95-2.12-2.03c-2.67-1.96-7.2-4.03-9.69-3.36
					c-0.66,0.17-1.35,0.57-1.5,2.18c-0.61,6.98,6.57,11.65,6.64,11.69c0.76,0.49,1.03,1.47,0.62,2.27c-0.41,0.81-1.36,1.17-2.2,0.84
					c-2.65-1.05-5.12-1.56-7.33-1.56c-3.38,0-6.13,1.21-7.94,3.6c-0.31,0.41-0.58,0.84-0.81,1.28c-0.25-0.84-0.38-1.77-0.44-2.79
					l-1.54-0.61c2.84-3.73,7.36-5.4,12.69-4.86c-1.91-2.52-3.54-5.97-3.17-10.16c0.24-2.76,1.69-4.63,4.08-5.26
					c1.7-0.46,3.73-0.23,5.75,0.38c-1.02-1.86-1.72-3.86-1.68-5.81c0.05-2.47,1.18-4.64,3.26-6.28c1.6-1.25,3.73-2.11,5.97-2.5
					c-0.86-4.56-2.55-16.48,0.4-28.67c3.23-13.32,11.04-22.77,13.22-25.21c-0.3-3.58-0.69-17.3,9.97-22.17v-19.58
					c-0.97-1.83-4.99-9.52-6.09-12.84c-0.84-2.5,0.28-5.22,2.48-6.06c1.18-0.44,3.77-0.74,6.74,3.24c0.19-2.4,0.5-4.97,0.99-6.65
					c0.65-2.22,2.82-4.3,5.2-3.77c2.5,0.55,3.78,3.33,3.83,8.29c1.45-1.67,3.22-2.85,5.18-2.52c1.26,0.22,2.23,0.98,2.72,2.16
					c2.05,4.87-4.99,16.1-8.46,21.17v15.81c5.11,1.64,8.81,5.25,10.4,7.04c3.8-1.37,15.94-5.16,30.01-3.39
					c1.77-2.2,6.94-7.79,14.28-8.81l1.61-17.86c-1.67-2.62-6.78-10.77-7.31-13.89c-0.38-2.24,0.54-4.99,2.73-5.71
					c2.52-0.83,4.86,1.34,6.62,3.8c0.3-2.73,0.69-5.8,1.06-7.36c0.58-2.47,2.84-4.24,5.05-3.95c1.2,0.16,3.99,1.19,3.8,7.22
					c-0.01,0.19-0.01,0.36-0.02,0.54c1.01-1.62,2.19-2.92,3.5-3.34c2.46-0.79,3.86,0.15,4.47,0.77c1.63,1.68,1.61,4.81-0.07,9.58
					c-2.11,6.02-7.26,12.74-8.69,14.54l-0.99,18.22c4.91,3.1,8.07,8.7,9.13,16.38c3.22,2.22,16.84,12.06,23.65,24.28
					c6.67,11.97,9.63,26.81,10.31,30.56c2.55-0.35,4.4-0.41,4.59-0.41c0.02,0,0.04,0.01,0.06,0.01c0.11,0,0.22,0.01,0.33,0.03
					c0.09,0.02,0.17,0.04,0.25,0.08c0.09,0.03,0.17,0.06,0.25,0.11c0.05,0.02,0.1,0.05,0.14,0.09c0.12,0.08,0.23,0.17,0.33,0.28
					c0.01,0.01,0.01,0.02,0.02,0.03c0.1,0.12,0.17,0.24,0.24,0.38c0,0.01,0.02,0.03,0.03,0.04c0.11,0.26,2.38,5.69,0.77,13.66
					c2.54,0.95,11.72,4.94,14.7,14.12l-1.39,0.1c0,0-0.55,0.75-1.69,1.86c-0.01-0.05-0.02-0.09-0.03-0.14
					c-1.3-4.83-4.81-8.09-7.9-10.12c-0.03,0.48-0.13,0.89-0.23,1.19c-0.62,1.82-2.4,3.21-3.98,3.21c-0.15,0-0.3-0.01-0.44-0.04
					c-0.96-0.17-1.76-0.82-2.39-1.58c-0.33,0.45-0.68,0.86-1.05,1.2c1.38,2.26,3.92,7.08,5,13.38c-0.66,0.27-1.35,0.52-2.06,0.76
					c0,0-0.42,0.6-1.18,1.6c-0.8-6.86-3.65-12.12-4.9-14.16c-0.45,0.08-0.9,0.13-1.36,0.13c-2.39,0-5.03-1.04-7.89-2.29
					c-2.42-1.05-4.38-2.59-5.76-4.4c-0.03-0.04-0.07-0.06-0.1-0.1c-0.1-0.11-0.17-0.23-0.24-0.36c-0.91-1.33-1.53-2.8-1.74-4.34
					c-0.15-1.06-0.1-2.11,0.11-3.13c-0.14,0-0.27,0-0.41,0c-4.89,0-14.34-0.8-18.72-6.53c-3.62,0.93-15.3,4.65-19.86,15.02
					c-0.29,0.66-0.93,1.05-1.6,1.05c-0.24,0-0.47-0.05-0.7-0.15c-0.89-0.39-1.29-1.42-0.9-2.3c1.26-2.88,2.98-5.3,4.9-7.33
					c-1.69-0.03-3.26,0.04-3.96,0.3c-0.2,0.07-0.4,0.11-0.6,0.11c-0.71,0-1.38-0.44-1.64-1.15c-0.34-0.91,0.13-1.91,1.04-2.25
					c2.16-0.79,6.89-0.5,8.89-0.33c4.75-3.57,9.87-5.36,12.7-6.14c-1.83-4.96-0.31-10.26,2.49-13.32c2.97-3.25,7.05-4.1,10.93-2.27
					c6.55,3.09,10.16,13.58,11.6,18.88c2.77-2.16,6.53-3.43,9.9-4.16c-0.66-3.58-3.59-18.13-9.92-29.48
					c-7.18-12.88-23.03-23.4-23.19-23.51c-0.43-0.28-0.72-0.74-0.78-1.26c-0.78-6.71-3.65-15.05-12.89-16.62
					c-9.68-1.65-16.63,8.06-16.7,8.15c-0.38,0.54-1.03,0.82-1.68,0.73c-16.12-2.32-30.26,3.43-30.4,3.49
					c-0.75,0.31-1.61,0.06-2.08-0.59c-0.23-0.3-4.05-5.37-10.01-7c-0.06,0-0.12,0.02-0.19,0.02c-0.35,0-0.68-0.11-0.95-0.29
					C388.96,474.68,388.06,474.59,387.12,474.6z M509.27,560.51c0.06-0.57-0.37-1.25-1.19-1.93c-0.15,0.47-0.31,0.91-0.47,1.32
					c0.32,0.68,0.73,1.32,1.03,1.61C508.88,561.34,509.23,560.98,509.27,560.51z M505.02,556.71c1.53-5.04,1.21-9.19,0.73-11.65
					l-15.53,13.55c0.93,0.9,2.09,1.69,3.46,2.29c3.68,1.6,6.28,2.45,7.86,1.71C502.86,562.01,504,560.07,505.02,556.71z
					 M488.24,555.69l13.14-11.46c-3.51,0.58-7.95,1.75-10.76,4.08c-2.07,1.71-3.03,3.87-2.72,6.1
					C487.96,554.84,488.09,555.27,488.24,555.69z M467.7,542.38c3.5,5.95,14.65,5.99,18.13,5.85c-1.15-5.04-4.67-15.97-10.22-18.59
					c-0.91-0.43-1.76-0.6-2.52-0.6c-2.14,0-3.66,1.34-4.33,2.07C466.44,533.66,465.32,538.35,467.7,542.38z M465.35,435.44
					c1.71-4.87,0.87-5.97,0.86-5.98c-0.05-0.02-0.33-0.05-0.9,0.13c-1.19,0.38-3.53,5.13-4.91,9.97c-0.24,0.85-1.07,1.39-1.94,1.25
					c-0.87-0.13-1.51-0.89-1.49-1.77c0,0,0.06-2.41,0.3-10.09c0.09-2.87-0.64-3.63-0.76-3.65c-0.29-0.03-1,0.49-1.19,1.28
					c-0.68,2.91-1.51,12.14-1.52,12.24c-0.07,0.77-0.64,1.41-1.41,1.56c-0.77,0.14-1.54-0.23-1.89-0.93
					c-1.66-3.29-2.95-4.98-3.83-5.85c-0.88-0.88-1.35-0.93-1.36-0.93c-0.14,0.1-0.49,0.93-0.34,1.8c0.34,2.05,4.55,9.11,7.12,13.08
					c0.21,0.33,0.31,0.72,0.27,1.11l-1.63,18.02c0.55,0.04,1.11,0.1,1.68,0.2c1.1,0.18,2.15,0.45,3.15,0.81l0.93-17.3
					c0.02-0.38,0.16-0.73,0.4-1.02C456.95,449.29,463.14,441.72,465.35,435.44z"/>
				<path d="M491.55,575.72c0.91,0.3,1.41,1.29,1.11,2.21c-0.3,0.91-1.29,1.41-2.2,1.11c-4.77-1.56-8.94-1.05-12.41,1.5
					c-3.79,2.8-5.73,7.5-5.7,9.23c0.01,0.97-0.76,1.76-1.72,1.78c-0.01,0-0.02,0-0.03,0c-0.95,0-1.74-0.77-1.75-1.72
					c-0.04-2.84,2.41-8.63,7.13-12.11C479.02,575.48,484.2,573.31,491.55,575.72z"/>
				<path d="M411.56,575.22c0,0-0.38,1.43-1.61,3.52c0.06-1.04,0.04-2.17-0.07-3.36c-1.01-10.95-7.11-23.63-16.74-34.78
					c-4.17-4.82-8.72-6.82-12.82-5.64c-3.19,0.92-5.8,3.74-6.56,6.99l-1.98-0.21c0,0-0.35-0.9-0.82-2.5
					c1.48-3.64,4.6-6.55,8.39-7.64c3.18-0.92,9.54-1.26,16.43,6.72c10.1,11.68,16.51,25.08,17.58,36.74c0.05,0.58,0.09,1.15,0.1,1.7
					C411.85,575.5,411.56,575.22,411.56,575.22z"/>
			</g>
		</g>
		<g id="XMLID_3_">
			<g>
				<path class="st2" d="M612.95,423.6c0.12-2.4,0.63-9.27,1.57-12.15c0.27-0.83,0.94-1.33,1.14-1.33
					c0.02,0.01,2.12,1.57,0.09,12.57c-0.16,0.89,0.36,1.77,1.24,2.03c0.87,0.26,1.81-0.17,2.17-1c1.74-4.04,4.52-7.62,5.77-7.38
					c0.61,0.81-0.44,6.68-9.16,18.47c-0.21,0.3-0.34,0.64-0.35,1.01l-0.5,15.94c-1.78-0.25-3.7-0.24-5.73,0.16l0.6-19.25
					c0.01-0.3-0.05-0.58-0.19-0.84c-0.04-0.09-4.74-9.63-5.79-13.16c-0.24-0.81,0.12-1.59,0.47-1.71c0.44-0.15,2.64,0.62,5.22,7.21
					c0.31,0.79,1.13,1.25,1.96,1.11S612.92,424.45,612.95,423.6z"/>
				<path class="st2" d="M694.09,417.65c-2.46,6.34-9.03,13.88-9.09,13.96c-0.25,0.29-0.41,0.64-0.44,1.03l-1.5,17.64
					c-1.01-0.4-2.08-0.71-3.19-0.93c-0.58-0.12-1.15-0.2-1.71-0.26l2.24-18.36c0.05-0.4-0.04-0.8-0.24-1.14
					c-2.5-4.14-6.58-11.48-6.86-13.59c-0.13-0.89,0.26-1.73,0.4-1.83c0.01,0,0.49,0.07,1.36,0.99c0.87,0.92,2.14,2.68,3.73,6.1
					c0.34,0.73,1.11,1.13,1.9,1.01c0.79-0.13,1.4-0.76,1.49-1.55c0.01-0.1,1.16-9.5,1.94-12.45c0.22-0.8,0.96-1.31,1.26-1.27
					c0.12,0.02,0.84,0.82,0.66,3.75c-0.49,7.84-0.63,10.3-0.63,10.3c-0.05,0.9,0.58,1.7,1.47,1.86c0.89,0.17,1.75-0.35,2.02-1.22
					c1.57-4.9,4.11-9.68,5.34-10.03c0.59-0.17,0.87-0.13,0.92-0.1C695.17,411.58,695.99,412.73,694.09,417.65z"/>
				<path class="st3" d="M711.44,533.52c-3.56,0.03-14.96-0.36-18.35-6.55c-2.31-4.19-1.01-8.95,1.44-11.48
					c0.71-0.72,2.3-2.04,4.49-1.98c0.78,0.02,1.64,0.22,2.56,0.69C707.17,517.06,710.42,528.34,711.44,533.52z"/>
				<path class="st4" d="M733.86,544.8c0.82,0.72,1.23,1.43,1.16,2.01c-0.06,0.48-0.43,0.84-0.68,1c-0.3-0.31-0.7-0.97-1-1.68
					C733.51,545.72,733.69,545.28,733.86,544.8z"/>
				<path class="st5" d="M727.46,529.93l-13.8,11.29c-0.14-0.43-0.26-0.88-0.31-1.32c-0.25-2.29,0.8-4.46,2.98-6.14
					C719.28,531.47,723.86,530.41,727.46,529.93z"/>
				<path class="st5" d="M731.91,530.92c0.41,2.53,0.61,6.78-1.12,11.88c-1.15,3.4-2.38,5.35-3.75,5.92c-1.64,0.71-4.27-0.25-7.98-2
					c-1.38-0.66-2.54-1.5-3.46-2.45L731.91,530.92z"/>
				<path class="st6" d="M735.03,577.13c0.57,0.07,1.82,0.48,3.68,2.44c0.01,0.01,0.01,0.02,0.02,0.03
					c0.01,0.01,0.03,0.02,0.04,0.03c0.92,0.99,1.99,2.35,3.22,4.25c5.57,8.68,2.86,13.01,1.97,14.44c-0.65,1.03-1.95,1.2-2.67,1.21
					c-1.73,0.01-3.29-0.77-3.8-1.54c-0.48-0.73-1.42-1.01-2.23-0.64c-0.8,0.35-1.22,1.25-0.99,2.1c0.02,0.08,2.36,8.96,0.13,14.41
					c-0.78,1.89-2.62,3.05-4.95,3.09c-2.68,0.03-6.27-1.47-8.26-5.87c-0.3-0.65-0.96-1.08-1.69-1.05c-0.73,0.03-1.37,0.48-1.62,1.16
					c-0.17,0.44-4.24,10.91-11.79,8.44c-2.46-0.8-3.84-2.41-4.23-4.91c-0.6-3.88,1.44-8.2,2.69-9.46
					c10.77-1.84,20.81-6.88,27.39-20.94c1.13-2.42,1.91-4.79,2.43-7.1C734.58,577.13,734.78,577.1,735.03,577.13z"/>
				<path class="st7" d="M746.33,557.71c0.01,0.05,0.02,0.09,0.03,0.14c-2.03,1.9-5.84,4.84-11.49,6.9
					c-0.9-6.47-3.35-11.47-4.69-13.83c0.39-0.34,0.76-0.74,1.11-1.19c0.62,0.8,1.42,1.49,2.39,1.69c0.14,0.04,0.3,0.05,0.45,0.05
					c1.62,0.05,3.48-1.31,4.17-3.15c0.11-0.3,0.23-0.72,0.27-1.21C741.67,549.29,745.15,552.73,746.33,557.71z"/>
				<path class="st4" d="M746.36,557.85c1.34,5.89-0.91,12.23-6.37,18c-1.56-1.33-3.07-2.1-4.52-2.27
					c-0.15-0.03-0.31-0.01-0.46-0.01c0.35-3.14,0.24-6.11-0.13-8.82C740.51,562.69,744.32,559.75,746.36,557.85z"/>
				<path class="st8" d="M632.89,562.27c-0.58,7.38-4.39,11.17-4.59,11.35c-0.04,0.05-0.1,0.1-0.14,0.15
					c-0.08,0.1-8.97,10.39-34.65,11.71c-28.63,1.46-38.15-5.74-41.27-10.15c-1.38-1.96-1.29-4.97,0.11-7.48
					c1.66,6.32,9.73,8.4,40.88,9.59C619.15,578.43,629.31,567.97,632.89,562.27z"/>
				<path class="st9" d="M731.47,567.06c0.41,4.72-0.14,10.14-2.76,15.73c-7.31,15.61-18.92,19.22-34.09,19.83
					c-7.6,0.29-15.53-3.16-23.91-6.84c-6.04-2.63-12.27-5.36-18.48-6.62c-11.61-2.34-23.2-5.38-29.63-7.08
					c5.31-2.77,7.78-5.41,8.24-5.94c0.72-0.71,5.72-6.04,5.7-15.78c2.48,2.09,8.13,6.72,20.74,16.74
					c20.73,16.47,43.23,13.86,53.83,8.43C719.58,581.19,728.29,571.01,731.47,567.06z"/>
				<path class="st10" d="M632.92,558.84c0.07,1.22,0.06,2.37-0.04,3.43c-3.58,5.7-13.74,16.16-39.66,15.16
					c-31.16-1.19-39.23-3.27-40.88-9.59c0.25-0.44,0.54-0.87,0.87-1.28c1.93-2.38,4.78-3.53,8.23-3.42
					c2.26,0.07,4.77,0.67,7.44,1.83c0.85,0.36,1.83,0.03,2.28-0.79c0.44-0.8,0.2-1.81-0.56-2.34c-0.07-0.04-7.26-5.04-6.42-12.15
					c0.2-1.64,0.92-2.03,1.6-2.18c2.57-0.61,7.13,1.65,9.8,3.74c1.03,1.14,1.85,1.91,2.1,2.14c0.67,0.61,1.69,0.64,2.37,0.05
					c0.69-0.58,0.84-1.59,0.34-2.34c-0.47-0.72-1.27-1.56-2.3-2.41c-2.38-2.66-5.38-6.77-5.22-9.89c0.08-1.44,0.78-2.65,2.09-3.63
					c2.21-1.63,5.92-2.29,8.79-1.57c3.32,0.84,6.12,0.55,8.33-0.87c2.42-1.55,4.05-4.42,4.81-8.54c0.04-0.22,0.1-0.45,0.15-0.67
					c0.88-3.3,3.64-6.09,6.93-6.93c4.23-1.07,8.82,1.11,12.93,6.17C626.4,534.47,632.24,547.62,632.92,558.84z"/>
				<path class="st11" d="M603.38,474.19c-14.83,17.71-11.02,39.18-9.1,46.49c-0.41,0.91-0.71,1.87-0.9,2.87
					c-0.58,3.11-1.67,5.19-3.22,6.19c-1.36,0.87-3.16,1.01-5.51,0.41c-0.65-0.16-1.32-0.26-2.01-0.32
					c-0.64-3.98-2.16-16.21,1.16-28.22c3.99-14.47,13.87-24.23,13.96-24.33c0.39-0.38,0.58-0.91,0.54-1.46
					c-0.03-0.15-1.45-16.17,9.59-19.87c1.75-0.59,3.41-0.81,4.97-0.79C604.75,464.24,603.38,474.19,603.38,474.19z"/>
				<path class="st7" d="M726.92,552.44c1.21,2.12,3.96,7.59,4.56,14.62c-3.18,3.95-11.89,14.13-20.36,18.47
					c-10.61,5.44-33.1,8.05-53.83-8.43c-12.61-10.03-18.26-14.65-20.74-16.74c0.01-0.56-0.02-1.15-0.05-1.74
					c-0.72-11.94-6.85-25.84-16.8-38.09c-6.79-8.37-13.3-8.23-16.58-7.39c-3.91,0.99-7.19,3.87-8.82,7.54
					c-1.91-7.31-5.72-28.78,9.1-46.49c0,0,1.36-9.96,9.48-19.03c0.96,0.02,1.88,0.14,2.75,0.33c0.27,0.19,0.6,0.32,0.96,0.33
					c0.07,0,0.13-0.02,0.19-0.01c6.04,1.85,9.79,7.16,10.01,7.47c0.46,0.68,1.33,0.96,2.11,0.67c0.15-0.06,14.79-5.48,31.19-2.6
					c0.66,0.11,1.34-0.15,1.74-0.69c0.07-0.09,7.49-9.79,17.33-7.79c9.4,1.9,12.07,10.51,12.65,17.39c0.04,0.53,0.33,1.01,0.76,1.31
					c0.16,0.12,16.03,11.37,22.96,24.75c6.11,11.8,8.64,26.75,9.2,30.43c-3.47,0.64-7.35,1.82-10.25,3.93
					c-1.3-5.46-4.66-16.29-11.26-19.66c-3.91-1.99-8.11-1.25-11.25,1.97c-2.96,3.04-4.68,8.4-2.97,13.53
					c-2.92,0.71-8.21,2.37-13.18,5.87c-2.04-0.24-6.87-0.68-9.1,0.05c-0.94,0.32-1.45,1.32-1.13,2.27c0.24,0.73,0.91,1.2,1.64,1.23
					c0.2,0.01,0.41-0.03,0.62-0.09c0.72-0.24,2.33-0.26,4.06-0.18c-2.03,2.01-3.86,4.43-5.24,7.33c-0.43,0.89-0.05,1.95,0.85,2.38
					c0.23,0.11,0.47,0.17,0.71,0.18c0.68,0.02,1.35-0.36,1.67-1.02c4.99-10.45,17.05-13.88,20.78-14.71
					c4.3,5.99,13.93,7.11,18.93,7.27c0.14,0,0.28,0.01,0.42,0.01c-0.25,1.04-0.33,2.11-0.21,3.19c0.17,1.58,0.75,3.1,1.64,4.49
					c0.07,0.14,0.14,0.26,0.23,0.38c0.03,0.04,0.07,0.06,0.1,0.11c1.35,1.89,3.31,3.53,5.75,4.68c2.88,1.37,5.55,2.51,7.99,2.59
					C725.99,552.55,726.45,552.51,726.92,552.44z M717.48,564.08c0.34-0.93-0.14-1.96-1.06-2.29c-7.44-2.7-12.8-0.64-15.98,1.55
					c-4.94,3.4-7.63,9.24-7.68,12.14c-0.02,0.97,0.76,1.78,1.73,1.81c0.01,0,0.02,0,0.03,0c0.98,0.01,1.79-0.77,1.82-1.76
					c0.02-1.77,2.16-6.51,6.12-9.25c3.63-2.49,7.91-2.88,12.74-1.14C716.11,565.48,717.14,565,717.48,564.08z"/>
				<path d="M749.81,556.88c1.7,7.2-0.9,14.81-7.34,21.56c0.84,1.02,1.68,2.19,2.53,3.51c4.58,7.13,5.23,13.1,1.99,18.26
					c-1.13,1.81-3.2,2.87-5.66,2.89c-0.96,0-1.9-0.13-2.78-0.38c0.5,3.51,0.78,8.56-0.83,12.48c-1.32,3.21-4.45,5.24-8.2,5.31
					c-3.07,0.08-6.98-1.27-9.78-4.93c-2.26,3.91-6.26,8.15-11.66,7.98c-0.98-0.03-2.01-0.21-3.08-0.56
					c-3.71-1.22-6.07-3.97-6.66-7.76c-0.49-3.13,0.29-6.69,1.59-9.39c-1.72,0.16-3.45,0.27-5.18,0.34c-0.64,0.02-1.27,0.02-1.91,0
					c-7.82-0.24-15.82-3.74-23.57-7.14c-5.86-2.56-11.91-5.21-17.74-6.38c-11.97-2.42-23.87-5.56-30.26-7.24
					c-1.3-0.35-2.35-0.63-3.11-0.81c-0.21-0.06-0.41-0.16-0.59-0.27c-5.72,2.22-13.52,4.17-23.89,4.7
					c-4.1,0.22-7.85,0.26-11.27,0.15c-20.59-0.64-29.38-6.54-33.11-11.81c-2.56-3.62-2.09-9.11,1.12-13.07l1.56,0.67
					c0.03,1.04,0.13,2,0.36,2.86c-1.4,2.51-1.49,5.53-0.11,7.48c3.13,4.41,12.65,11.61,41.27,10.15
					c25.68-1.33,34.56-11.61,34.65-11.71c0.04-0.05,0.1-0.1,0.14-0.15c0.2-0.18,4.01-3.96,4.59-11.35c1.32-2.1,1.76-3.54,1.76-3.54
					s0.29,0.3,1.89,1.63c0.02,9.75-4.98,15.07-5.7,15.78c-0.46,0.53-2.93,3.17-8.24,5.94c6.44,1.7,18.02,4.74,29.63,7.08
					c6.21,1.26,12.44,3.99,18.48,6.62c8.38,3.68,16.31,7.13,23.91,6.84c15.18-0.61,26.78-4.22,34.09-19.83
					c2.62-5.59,3.17-11.02,2.76-15.73c0.81-1,1.26-1.6,1.26-1.6c0.73-0.22,1.45-0.46,2.13-0.71c0.38,2.71,0.49,5.68,0.13,8.82
					c0.15,0,0.31-0.01,0.46,0.01c1.46,0.17,2.97,0.94,4.52,2.27c5.46-5.77,7.72-12.11,6.37-18c1.2-1.1,1.79-1.85,1.79-1.85
					l1.42-0.06C749.66,556.25,749.74,556.56,749.81,556.88z M743.96,598.32c0.89-1.42,3.61-5.76-1.97-14.44
					c-1.23-1.9-2.3-3.26-3.22-4.25c-0.01-0.01-0.03-0.02-0.04-0.03c-0.01-0.01-0.01-0.02-0.02-0.03c-1.86-1.96-3.11-2.37-3.68-2.44
					c-0.24-0.03-0.45,0-0.64,0.07c-0.52,2.32-1.3,4.68-2.43,7.1c-6.59,14.06-16.62,19.09-27.39,20.94
					c-1.25,1.26-3.28,5.57-2.69,9.46c0.38,2.5,1.77,4.1,4.23,4.91c7.55,2.47,11.62-7.99,11.79-8.44c0.26-0.68,0.89-1.13,1.62-1.16
					c0.73-0.03,1.39,0.4,1.69,1.05c1.99,4.4,5.58,5.9,8.26,5.87c2.32-0.04,4.17-1.2,4.95-3.09c2.23-5.45-0.12-14.33-0.13-14.41
					c-0.23-0.85,0.19-1.74,0.99-2.1c0.81-0.36,1.75-0.09,2.23,0.64c0.51,0.77,2.07,1.55,3.8,1.54
					C742.01,599.52,743.31,599.35,743.96,598.32z"/>
				<path d="M614.91,451.76l0.5-15.94c0.01-0.37,0.13-0.71,0.35-1.01c8.72-11.78,9.77-17.66,9.16-18.47
					c-1.25-0.24-4.02,3.34-5.77,7.38c-0.36,0.83-1.3,1.26-2.17,1c-0.87-0.26-1.4-1.14-1.24-2.03c2.03-11-0.07-12.56-0.09-12.57
					c-0.19,0-0.87,0.5-1.14,1.33c-0.94,2.87-1.45,9.75-1.57,12.15c-0.04,0.85-0.66,1.54-1.5,1.68s-1.65-0.33-1.96-1.11
					c-2.58-6.58-4.78-7.36-5.22-7.21c-0.35,0.12-0.71,0.91-0.47,1.71c1.06,3.53,5.75,13.06,5.79,13.16c0.14,0.26,0.2,0.55,0.19,0.84
					l-0.6,19.25C611.21,451.52,613.13,451.51,614.91,451.76z M612.86,455.16c-1.55-0.03-3.22,0.2-4.97,0.79
					c-11.05,3.7-9.62,19.72-9.59,19.87c0.04,0.54-0.15,1.08-0.54,1.46c-0.1,0.1-9.97,9.86-13.96,24.33
					c-3.31,12-1.8,24.24-1.16,28.22c0.68,0.06,1.36,0.15,2.01,0.32c2.35,0.59,4.15,0.46,5.51-0.41c1.56-0.99,2.64-3.08,3.22-6.19
					c0.18-1,0.49-1.96,0.9-2.87c0.43,1.65,0.76,2.58,0.76,2.58l2.02,0.28c-0.06,0.22-0.12,0.45-0.15,0.67
					c-0.76,4.12-2.39,6.99-4.81,8.54c-2.2,1.41-5.01,1.7-8.33,0.87c-2.87-0.72-6.58-0.06-8.79,1.57c-1.31,0.97-2.01,2.19-2.09,3.63
					c-0.16,3.11,2.83,7.23,5.22,9.89c1.03,0.85,1.83,1.69,2.3,2.41c0.5,0.75,0.35,1.76-0.34,2.34c-0.68,0.58-1.71,0.56-2.37-0.05
					c-0.25-0.23-1.07-1-2.1-2.14c-2.67-2.09-7.23-4.35-9.8-3.74c-0.68,0.15-1.4,0.54-1.6,2.18c-0.85,7.11,6.35,12.11,6.42,12.15
					c0.76,0.52,1.01,1.53,0.56,2.34c-0.44,0.81-1.43,1.15-2.28,0.79c-2.68-1.16-5.19-1.76-7.44-1.83c-3.46-0.11-6.31,1.04-8.23,3.42
					c-0.33,0.41-0.62,0.84-0.87,1.28c-0.23-0.87-0.33-1.82-0.36-2.86l-1.56-0.67c3.02-3.72,7.7-5.28,13.13-4.56
					c-1.87-2.64-3.43-6.21-2.92-10.48c0.33-2.81,1.88-4.68,4.34-5.24c1.75-0.42,3.82-0.12,5.87,0.57c-0.98-1.93-1.64-4-1.53-5.99
					c0.13-2.52,1.35-4.7,3.53-6.31c1.68-1.23,3.88-2.04,6.18-2.36c-0.73-4.69-2.08-16.92,1.32-29.27
					c3.73-13.5,12.01-22.91,14.32-25.33c-0.19-3.67-0.15-17.69,10.9-22.33l0.62-20c-0.93-1.9-4.8-9.88-5.82-13.31
					c-0.78-2.58,0.45-5.32,2.73-6.11c1.22-0.41,3.88-0.64,6.79,3.52c0.27-2.45,0.67-5.06,1.22-6.76c0.74-2.25,3.02-4.3,5.44-3.69
					c2.54,0.64,3.76,3.52,3.65,8.59c1.54-1.66,3.38-2.81,5.38-2.41c1.28,0.26,2.25,1.07,2.71,2.29c1.94,5.04-5.61,16.29-9.32,21.36
					l-0.5,16.15c5.17,1.84,8.84,5.64,10.41,7.52c3.93-1.28,16.46-4.76,30.79-2.51c1.88-2.19,7.34-7.74,14.88-8.54l2.21-18.19
					c-1.62-2.73-6.59-11.22-7.03-14.42c-0.32-2.3,0.71-5.08,2.97-5.75c2.6-0.77,4.93,1.52,6.65,4.09c0.39-2.78,0.89-5.9,1.32-7.48
					c0.67-2.5,3.04-4.24,5.29-3.87c1.22,0.2,4.04,1.34,3.66,7.5c-0.02,0.19-0.02,0.37-0.04,0.55c1.08-1.62,2.33-2.91,3.68-3.3
					c2.54-0.73,3.94,0.28,4.55,0.93c1.61,1.77,1.49,4.96-0.38,9.78c-2.35,6.08-7.83,12.78-9.35,14.58l-1.59,18.58
					c4.92,3.32,7.97,9.14,8.81,17.02c3.22,2.37,16.83,12.86,23.41,25.56c6.44,12.44,8.99,27.69,9.57,31.55
					c2.62-0.28,4.51-0.28,4.71-0.27c0.02,0,0.04,0.01,0.06,0.01c0.11,0,0.22,0.02,0.34,0.04c0.09,0.02,0.17,0.05,0.25,0.09
					c0.09,0.03,0.17,0.07,0.25,0.12c0.05,0.02,0.1,0.05,0.14,0.1c0.12,0.09,0.23,0.18,0.33,0.3c0.01,0.01,0.01,0.02,0.02,0.03
					c0.1,0.13,0.17,0.25,0.23,0.4c0,0.01,0.02,0.03,0.03,0.04c0.1,0.27,2.25,5.89,0.35,13.98c2.57,1.05,11.83,5.42,14.58,14.89
					l-1.42,0.06c0,0-0.59,0.75-1.79,1.85c-0.01-0.05-0.02-0.09-0.03-0.14c-1.18-4.98-4.66-8.42-7.75-10.59
					c-0.05,0.49-0.16,0.9-0.27,1.21c-0.69,1.84-2.56,3.2-4.17,3.15c-0.15,0-0.31-0.02-0.45-0.05c-0.98-0.2-1.77-0.89-2.39-1.69
					c-0.35,0.45-0.72,0.86-1.11,1.19c1.34,2.35,3.78,7.36,4.69,13.83c-0.68,0.25-1.4,0.49-2.13,0.71c0,0-0.45,0.6-1.26,1.6
					c-0.6-7.03-3.35-12.5-4.56-14.62c-0.46,0.07-0.92,0.1-1.39,0.09c-2.44-0.08-5.11-1.22-7.99-2.59c-2.44-1.15-4.4-2.79-5.75-4.68
					c-0.03-0.04-0.07-0.06-0.1-0.11c-0.1-0.12-0.17-0.24-0.23-0.38c-0.89-1.39-1.48-2.91-1.64-4.49c-0.12-1.09-0.04-2.16,0.21-3.19
					c-0.14,0-0.28-0.01-0.42-0.01c-5-0.16-14.64-1.27-18.93-7.27c-3.73,0.83-15.79,4.26-20.78,14.71c-0.32,0.66-0.98,1.04-1.67,1.02
					c-0.25-0.01-0.48-0.07-0.71-0.18c-0.9-0.43-1.27-1.49-0.85-2.38c1.38-2.9,3.22-5.32,5.24-7.33c-1.73-0.08-3.33-0.06-4.06,0.18
					c-0.21,0.07-0.41,0.1-0.62,0.09c-0.73-0.02-1.4-0.49-1.64-1.23c-0.32-0.94,0.19-1.95,1.13-2.27c2.23-0.74,7.06-0.29,9.1-0.05
					c4.97-3.5,10.26-5.16,13.18-5.87c-1.71-5.13,0.01-10.49,2.97-13.53c3.14-3.23,7.34-3.96,11.25-1.97
					c6.6,3.37,9.96,14.2,11.26,19.66c2.9-2.12,6.79-3.3,10.25-3.93c-0.56-3.68-3.09-18.63-9.2-30.43
					c-6.93-13.39-22.8-24.64-22.96-24.75c-0.43-0.3-0.71-0.78-0.76-1.31c-0.58-6.88-3.25-15.49-12.65-17.39
					c-9.84-1.99-17.26,7.7-17.33,7.79c-0.41,0.54-1.08,0.8-1.74,0.69c-16.41-2.88-31.05,2.54-31.19,2.6
					c-0.78,0.29-1.65,0.01-2.11-0.67c-0.23-0.31-3.97-5.61-10.01-7.47c-0.06,0-0.12,0.02-0.19,0.01c-0.36-0.01-0.69-0.13-0.96-0.33
					C614.74,455.3,613.82,455.18,612.86,455.16z M735.01,546.81c0.08-0.58-0.34-1.29-1.16-2.01c-0.17,0.48-0.35,0.92-0.52,1.33
					c0.31,0.7,0.7,1.37,1,1.68C734.59,547.65,734.96,547.29,735.01,546.81z M730.79,542.8c1.72-5.1,1.53-9.35,1.12-11.88
					l-16.31,13.35c0.92,0.95,2.08,1.79,3.46,2.45c3.71,1.75,6.34,2.7,7.98,2C728.41,548.14,729.64,546.2,730.79,542.8z
					 M713.66,541.22l13.8-11.29c-3.61,0.48-8.18,1.53-11.13,3.82c-2.17,1.68-3.22,3.86-2.98,6.14
					C713.41,540.34,713.52,540.79,713.66,541.22z M693.09,526.97c3.39,6.19,14.79,6.59,18.35,6.55c-1.02-5.19-4.27-16.46-9.86-19.32
					c-0.92-0.47-1.78-0.67-2.56-0.69c-2.19-0.07-3.78,1.25-4.49,1.98C692.08,518.02,690.78,522.78,693.09,526.97z M694.09,417.65
					c1.9-4.92,1.08-6.07,1.07-6.08c-0.05-0.02-0.34-0.06-0.92,0.1c-1.23,0.35-3.77,5.13-5.34,10.03c-0.27,0.86-1.14,1.39-2.02,1.22
					c-0.89-0.16-1.52-0.96-1.47-1.86c0,0,0.14-2.46,0.63-10.3c0.18-2.93-0.54-3.73-0.66-3.75c-0.3-0.04-1.04,0.47-1.26,1.27
					c-0.79,2.95-1.93,12.35-1.94,12.45c-0.1,0.78-0.7,1.42-1.49,1.55c-0.79,0.12-1.57-0.28-1.9-1.01c-1.59-3.41-2.86-5.18-3.73-6.1
					c-0.87-0.93-1.35-0.99-1.36-0.99c-0.15,0.1-0.53,0.93-0.4,1.83c0.28,2.1,4.36,9.45,6.86,13.59c0.2,0.34,0.29,0.75,0.24,1.14
					l-2.24,18.36c0.56,0.06,1.13,0.14,1.71,0.26c1.12,0.22,2.18,0.53,3.19,0.93l1.5-17.64c0.03-0.39,0.19-0.74,0.44-1.03
					C685.06,431.53,691.63,424,694.09,417.65z"/>
				<path d="M716.41,561.79c0.92,0.34,1.4,1.36,1.06,2.29c-0.34,0.92-1.36,1.4-2.28,1.06c-4.83-1.75-9.11-1.36-12.74,1.14
					c-3.96,2.74-6.1,7.48-6.12,9.25c-0.02,0.99-0.83,1.77-1.82,1.76c-0.01,0-0.02,0-0.03,0c-0.97-0.03-1.75-0.84-1.73-1.81
					c0.05-2.9,2.74-8.74,7.68-12.14C703.61,561.14,708.97,559.09,716.41,561.79z"/>
				<path d="M634.64,558.73c0,0-0.43,1.45-1.76,3.54c0.09-1.06,0.11-2.22,0.04-3.43c-0.68-11.22-6.52-24.36-16.01-36.06
					c-4.11-5.06-8.7-7.24-12.93-6.17c-3.29,0.84-6.05,3.64-6.93,6.93l-2.02-0.28c0,0-0.33-0.93-0.76-2.58
					c1.63-3.67,4.91-6.54,8.82-7.54c3.28-0.84,9.79-0.98,16.58,7.39c9.95,12.25,16.08,26.15,16.8,38.09
					c0.03,0.59,0.06,1.18,0.05,1.74C634.93,559.02,634.64,558.73,634.64,558.73z"/>
			</g>
		</g>
	</g>
	<g>
		<path d="M540,867.14c-87.38,0-169.54-34.03-231.32-95.82S212.86,627.38,212.86,540c0-87.38,34.03-169.54,95.82-231.32
			c61.79-61.79,143.94-95.82,231.32-95.82s169.54,34.03,231.32,95.82c61.79,61.79,95.82,143.94,95.82,231.32
			c0,87.38-34.03,169.53-95.82,231.32S627.38,867.14,540,867.14z M540,243.86c-163.29,0-296.14,132.85-296.14,296.14
			c0,163.29,132.85,296.14,296.14,296.14c163.29,0,296.14-132.85,296.14-296.14C836.14,376.71,703.29,243.86,540,243.86z"/>
	</g>
</g>
</svg>
