<?xml version="1.0" encoding="utf-8"?>
<!-- Generator: Adobe Illustrator 23.0.5, SVG Export Plug-In . SVG Version: 6.00 Build 0)  -->
<svg version="1.1" id="Layer_1" xmlns="http://www.w3.org/2000/svg" xmlns:xlink="http://www.w3.org/1999/xlink" x="0px" y="0px"
	 viewBox="0 0 1080 1080" style="enable-background:new 0 0 1080 1080;" xml:space="preserve">
<g>
	<g>
		<g id="XMLID_1_">
			<g>
				<path d="M687.6,580.98c12,31.92-5.52,51.6-25.44,51.6s-213.18,0-232.26,0c-19.08,0-38.22-3.72-40.62-30.96
					c-2.4-27.24,26.58-52.62,58.08-57.48c0,0-7.68-23.76,8.04-42.24c15.72-18.48,36.84-16.92,40.8-16.92c0,0,4.62-30.84,35.04-37.14
					c30.42-6.3,50.76,14.94,54.72,36.72c0,0,25.92-2.52,41.76,19.08c15.84,21.6,7.2,41.4,7.2,41.4S675.6,549.06,687.6,580.98z
					 M611.49,577.88c1.94-0.09,3.43-1.72,3.35-3.65c-0.82-18.4-16.82-25.41-25.17-26.54c-1.92-0.25-3.68,1.08-3.94,3
					s1.08,3.68,3,3.94c0.75,0.1,18.35,2.68,19.11,19.9c0.09,1.88,1.64,3.35,3.5,3.35C611.39,577.88,611.44,577.88,611.49,577.88z
					 M552.03,599.83c1.93-0.15,3.37-1.84,3.22-3.76c-1.3-16.62-15.36-23.7-22.62-25.12c-1.88-0.37-3.72,0.86-4.1,2.74
					c-0.37,1.9,0.85,3.74,2.74,4.12c0.65,0.13,15.79,3.39,17,18.8c0.14,1.84,1.68,3.23,3.49,3.23
					C551.85,599.84,551.94,599.84,552.03,599.83z M532.06,513.26c1.93-0.06,3.45-1.67,3.4-3.6c-0.06-1.93-1.68-3.45-3.6-3.4
					c-16.8,0.49-24.7,15.65-26.53,23.6c-0.43,1.88,0.74,3.76,2.63,4.19c0.26,0.06,0.52,0.09,0.78,0.09c1.6,0,3.04-1.1,3.41-2.72
					C512.19,531.25,516.41,513.71,532.06,513.26z M483.28,569.83c1.93-0.16,3.36-1.84,3.21-3.77c-0.16-1.93-1.84-3.36-3.77-3.21
					c-18.96,1.53-24.6,16.98-24.94,24.94c-0.08,1.93,1.42,3.57,3.35,3.65c0.05,0,0.1,0,0.15,0c1.87,0,3.42-1.47,3.5-3.35
					C464.81,587.4,465.69,571.24,483.28,569.83z"/>
			</g>
		</g>
	</g>
	<g>
		<path d="M706.58,373.95c-44.5-44.35-103.66-68.77-166.58-68.77s-122.08,24.42-166.58,68.77C328.91,418.3,304.4,477.27,304.4,540
			s24.51,121.7,69.02,166.06c44.5,44.34,103.66,68.76,166.58,68.76s122.08-24.42,166.58-68.76C751.09,661.7,775.6,602.73,775.6,540
			S751.09,418.3,706.58,373.95z M540,754.82c-118.88,0-215.6-96.37-215.6-214.82S421.12,325.18,540,325.18S755.6,421.55,755.6,540
			S658.88,754.82,540,754.82z"/>
	</g>
</g>
</svg>
