<svg xmlns="http://www.w3.org/2000/svg" width="1024" height="1024" viewBox="0 0 1024 1024">
<g>
<path d="M 433.22 599.44 C432.00,598.59 431.00,597.40 431.00,596.81 C431.00,595.25 449.60,547.23 481.43,466.61 C487.27,451.82 491.86,439.53 491.63,439.30 C491.41,439.07 477.66,438.92 461.10,438.97 C440.53,439.03 430.30,438.70 428.87,437.93 C428.41,437.69 427.98,437.60 427.66,437.35 C425.36,435.64 428.75,426.31 471.93,300.56 C479.66,278.05 486.55,259.27 487.24,258.83 C487.93,258.39 514.87,258.02 547.10,258.02 C604.74,258.00 605.72,258.03 607.53,260.03 C609.32,262.01 609.31,262.18 607.28,266.28 C606.13,268.60 590.57,294.80 572.71,324.50 C554.85,354.20 540.43,378.84 540.68,379.25 C540.92,379.66 557.43,380.00 577.36,380.00 C614.98,380.00 616.00,380.11 616.00,384.16 C616.00,385.12 607.31,396.40 596.68,409.21 C586.06,422.02 557.80,456.35 533.89,485.50 C460.95,574.42 441.93,597.43 439.81,599.25 C437.31,601.40 436.07,601.44 433.22,599.44 ZM 453.00 565.50 C453.00,568.95 474.79,544.26 501.54,510.50 C503.72,507.75 505.75,505.27 506.06,505.00 C506.36,504.73 519.08,489.20 534.33,470.50 C549.57,451.80 563.72,434.51 565.77,432.09 C567.82,429.66 576.59,419.08 585.25,408.59 L 601.00 389.50 L 565.82 389.24 C534.83,389.01 530.41,388.78 528.81,387.33 C527.82,386.43 527.00,385.03 527.00,384.22 C527.00,383.41 530.38,377.13 534.50,370.27 C538.62,363.41 542.00,357.17 542.00,356.40 C542.00,355.63 542.39,355.00 542.86,355.00 C543.54,355.00 560.12,328.10 571.64,308.30 C572.66,306.54 578.54,296.76 584.70,286.55 L 595.90 268.00 L 544.45 268.00 C516.15,268.00 493.00,268.12 493.00,268.27 C493.00,268.81 475.98,319.03 468.51,340.50 C453.61,383.37 439.67,424.50 438.85,428.00 C438.55,429.30 442.79,429.57 471.00,430.00 L 503.50 430.50 L 503.82 432.75 C504.00,433.99 503.18,437.59 502.00,440.75 C499.78,446.75 484.67,485.28 482.50,490.50 C481.81,492.15 478.76,499.80 475.72,507.50 C457.98,552.34 453.00,565.06 453.00,565.50 ZM 630.20 674.80 C629.31,673.91 629.00,664.09 629.00,636.80 L 629.00 600.00 L 624.93 600.00 C617.78,600.00 617.00,599.03 617.00,590.10 L 617.00 582.28 L 611.59 581.64 C599.95,580.27 591.06,573.93 585.79,563.23 L 582.50 556.55 L 582.18 535.28 L 581.86 514.00 L 577.50 514.00 C570.70,514.00 570.00,512.69 570.00,500.05 C570.00,492.34 570.38,488.93 571.31,488.15 C572.07,487.53 578.12,486.94 585.56,486.78 L 598.50 486.50 L 598.77 465.58 C598.94,452.20 599.44,444.18 600.14,443.33 C601.52,441.67 605.20,441.60 606.80,443.20 C607.66,444.06 608.00,450.47 608.00,465.70 L 608.00 487.00 L 659.00 487.00 L 659.00 465.56 C659.00,444.86 659.07,444.06 661.12,442.63 C662.49,441.67 663.98,441.42 665.37,441.94 C667.43,442.70 667.52,443.40 668.00,464.61 L 668.50 486.50 L 681.44 486.78 C688.88,486.94 694.93,487.53 695.69,488.15 C696.63,488.94 697.00,492.44 697.00,500.59 C697.00,513.41 696.65,514.00 689.14,514.00 L 685.14 514.00 L 684.82 535.75 C684.52,555.94 684.34,557.83 682.25,562.08 C677.13,572.46 666.75,580.17 655.97,581.60 C651.46,582.20 651.14,582.44 650.53,585.70 C650.17,587.61 650.17,590.50 650.53,592.12 C650.96,594.09 650.64,595.91 649.57,597.54 C648.21,599.61 647.16,600.00 642.98,600.00 L 638.00 600.00 L 638.00 636.80 C638.00,675.50 637.94,676.00 633.50,676.00 C632.34,676.00 630.86,675.46 630.20,674.80 ZM 112.34 517.25 C109.13,514.64 94.57,502.42 80.00,490.09 C65.43,477.76 50.92,465.60 47.76,463.08 C44.11,460.17 42.01,457.75 42.01,456.43 C42.00,454.97 46.95,450.21 58.75,440.32 C67.96,432.60 84.28,418.76 95.00,409.56 C117.92,389.91 118.29,389.64 120.93,390.48 C122.85,391.09 122.97,392.05 123.23,408.81 L 123.50 426.50 L 159.82 426.65 C179.79,426.73 196.35,427.02 196.61,427.28 C196.88,427.54 197.19,440.75 197.30,456.63 L 197.50 485.50 L 123.00 486.02 L 123.00 503.41 C123.00,518.33 122.78,520.87 121.42,521.39 C118.83,522.39 118.43,522.20 112.34,517.25 ZM 903.00 521.02 C901.78,520.26 901.44,516.85 901.18,503.05 L 900.87 486.02 L 863.68 485.76 L 826.50 485.50 L 826.72 481.00 C826.83,478.52 827.06,465.36 827.22,451.75 L 827.50 427.00 L 862.67 427.00 C882.01,427.00 898.55,426.73 899.42,426.39 C900.77,425.87 901.00,423.43 901.00,409.46 C901.00,395.96 901.27,392.87 902.57,391.57 C903.44,390.71 904.54,390.00 905.03,390.00 C906.01,390.00 906.49,390.40 950.79,427.96 C969.97,444.22 982.00,455.10 982.00,456.19 C982.00,458.24 981.58,458.63 956.00,480.16 C945.28,489.19 929.76,502.29 921.51,509.29 C913.27,516.28 906.07,521.99 905.51,521.98 C904.96,521.98 903.83,521.54 903.00,521.02 ZM 160.66 410.21 C160.00,409.07 162.77,389.57 165.58,375.60 C180.67,300.65 221.19,231.87 280.50,180.54 C331.52,136.39 394.30,107.80 461.67,98.03 C567.05,82.75 671.30,115.12 752.04,188.18 C805.41,236.47 844.18,305.01 858.52,376.37 C861.33,390.41 864.00,409.08 863.34,410.21 C863.12,410.59 858.28,410.80 852.25,410.87 C854.71,410.69 855.35,410.25 855.69,409.37 C856.72,406.69 852.33,380.48 847.89,362.82 C826.92,279.30 776.33,208.04 703.50,159.46 C659.36,130.02 612.76,112.54 556.50,104.30 C538.99,101.73 484.42,101.76 468.00,104.34 C411.65,113.20 370.04,128.21 327.00,155.21 C288.59,179.31 250.35,216.12 225.40,253.00 C206.74,280.59 190.04,314.97 180.95,344.50 C174.19,366.45 166.51,406.77 168.47,409.96 C168.71,410.34 169.97,410.60 172.23,410.73 C165.65,410.71 160.83,410.51 160.66,410.21 ZM 492.50 797.38 C424.22,792.90 359.55,770.23 306.50,732.17 C289.09,719.67 278.33,710.44 260.93,693.06 C241.05,673.19 230.09,659.96 216.15,638.99 C190.95,601.08 174.37,561.35 165.03,516.46 C162.95,506.48 162.51,502.74 163.39,502.41 C163.86,502.22 168.20,502.13 174.07,502.15 C170.96,502.33 170.00,502.70 170.00,503.39 C170.00,504.15 170.91,509.22 172.02,514.64 C190.45,604.60 243.96,682.70 322.50,734.28 C368.34,764.39 419.58,782.08 482.00,789.37 C483.92,789.60 499.23,789.66 516.00,789.52 C548.50,789.23 559.54,788.12 585.80,782.45 C653.33,767.88 712.88,734.74 762.07,684.35 C797.27,648.29 825.66,601.37 841.38,553.25 C846.04,539.01 852.25,515.15 853.53,506.63 L 854.20 502.16 C858.91,502.18 862.00,502.29 862.00,502.46 C862.00,504.78 856.16,529.70 852.98,540.94 C832.21,614.46 787.66,679.37 725.80,726.28 C676.55,763.63 619.14,786.78 555.20,795.05 C540.00,797.02 506.20,798.28 492.50,797.38 ZM 99.93 497.74 C108.50,505.03 115.84,510.99 116.25,510.99 C116.66,511.00 117.00,504.34 117.00,496.20 C117.00,486.02 117.37,481.03 118.20,480.20 C119.09,479.31 128.72,479.00 155.34,479.00 L 191.29 479.00 L 190.65 472.25 C190.30,468.54 190.01,458.41 190.01,449.75 L 190.00 434.00 L 155.19 434.00 C128.90,434.00 119.97,433.69 118.71,432.75 C117.29,431.69 116.99,429.14 116.77,416.16 L 116.50 400.81 L 85.50 427.00 C68.45,441.41 53.72,453.95 52.76,454.87 C51.11,456.45 51.96,457.33 67.69,470.52 C76.86,478.21 91.37,490.46 99.93,497.74 ZM 207.00 410.31 C207.00,406.95 211.62,382.44 214.10,372.60 C233.06,297.50 278.23,234.51 344.50,190.78 C357.96,181.90 389.40,165.99 404.33,160.51 C425.64,152.69 449.72,146.84 475.00,143.33 C492.41,140.92 532.59,140.92 550.00,143.33 C620.32,153.09 680.59,182.73 729.48,231.62 C763.90,266.03 788.31,305.55 803.45,351.33 C808.48,366.52 814.01,389.23 815.44,400.50 C815.79,403.25 816.33,406.77 816.63,408.32 C817.17,411.04 817.07,411.12 813.43,410.82 L 809.68 410.50 L 807.40 397.00 C793.58,315.27 746.59,243.89 676.00,197.43 C565.77,124.87 420.56,133.64 318.68,219.02 C263.92,264.91 228.43,326.95 216.59,397.50 L 214.40 410.50 L 210.70 410.81 C208.67,410.98 207.00,410.76 207.00,410.31 ZM 482.50 749.94 C411.28,742.98 344.89,711.74 294.49,661.50 C252.51,619.65 224.92,569.80 211.56,511.69 C209.38,502.19 209.42,502.00 213.48,502.00 C216.28,502.00 217.05,502.44 217.43,504.25 C225.91,544.60 239.62,577.22 262.52,611.50 C327.14,708.22 445.18,759.07 560.64,739.94 C625.73,729.15 681.80,699.82 728.03,652.36 C743.11,636.89 751.36,626.73 762.74,609.62 C781.48,581.44 796.45,547.12 804.56,513.75 L 807.41 502.00 L 810.71 502.00 C814.77,502.00 814.78,502.25 811.46,516.00 C802.90,551.39 789.41,582.39 769.47,612.50 C726.35,677.61 662.58,722.95 587.50,741.87 C573.34,745.44 555.55,748.55 541.14,749.97 C529.39,751.14 494.52,751.12 482.50,749.94 ZM 609.68 571.95 C611.78,572.48 623.40,572.79 635.50,572.64 C660.38,572.35 662.15,571.94 668.84,565.05 C675.12,558.58 676.00,554.61 676.00,532.82 L 676.00 514.00 L 590.82 514.00 L 591.16 533.75 C591.49,553.07 591.56,553.62 594.33,559.25 C597.45,565.63 603.13,570.32 609.68,571.95 ZM 831.55 410.53 C829.36,410.39 828.00,410.22 828.00,410.02 C828.00,409.55 826.87,402.51 825.50,394.37 C809.28,298.65 750.89,217.02 664.32,169.03 C631.45,150.80 589.44,137.30 550.63,132.49 C485.70,124.45 416.36,137.82 358.90,169.48 C298.47,202.77 249.40,255.65 221.68,317.36 C211.01,341.10 203.57,365.84 198.16,395.50 L 195.43 410.50 L 189.24 410.57 L 192.30 410.50 L 195.02 394.50 C202.81,348.66 218.57,308.50 243.46,271.00 C297.93,188.94 386.20,136.65 484.95,127.93 C504.11,126.24 540.58,127.24 558.50,129.96 C626.11,140.20 687.87,170.83 736.74,218.34 C774.52,255.07 801.57,298.70 817.89,349.20 C823.01,365.04 825.45,375.24 828.89,395.13 L 831.55 410.53 ZM 194.88 502.44 L 198.27 502.50 L 201.53 516.50 C212.83,564.99 234.77,609.15 266.74,647.76 C277.50,660.76 300.79,683.32 314.34,693.87 C356.66,726.83 405.55,748.57 457.34,757.47 C496.18,764.14 541.42,763.22 579.34,754.99 C699.98,728.80 794.68,636.03 822.38,516.91 L 825.73 502.50 L 829.05 502.45 L 828.00 507.75 C818.43,556.04 797.23,601.89 765.44,643.00 C754.73,656.85 728.38,683.49 714.22,694.80 C629.02,762.77 514.47,783.49 411.50,749.55 C378.09,738.53 352.58,725.71 325.26,706.18 C266.31,664.03 224.18,605.66 203.51,537.50 C200.59,527.88 195.00,504.89 195.00,502.52 C195.00,502.49 194.96,502.47 194.88,502.44 ZM 579.59 504.26 C579.92,504.59 601.63,504.68 627.84,504.46 C654.05,504.25 678.31,504.06 681.75,504.04 L 688.00 504.00 L 688.00 496.00 L 579.00 496.00 L 579.00 499.83 C579.00,501.94 579.27,503.93 579.59,504.26 ZM 626.00 582.00 L 626.00 591.00 L 641.00 591.00 L 641.00 582.00 L 626.00 582.00 Z" fill="rgba(0,0,0,1)"/>
<path d="M 367.59 534.44 C362.90,529.76 353.93,516.64 346.76,504.00 C342.18,495.92 335.92,479.72 333.04,468.50 C329.03,452.89 327.63,438.95 328.26,420.83 C329.37,388.76 337.83,362.31 355.73,335.00 C363.91,322.52 368.57,317.00 370.95,317.00 C372.93,317.00 376.00,320.01 376.00,321.95 C376.00,322.66 373.60,326.44 370.66,330.37 C341.74,369.03 331.34,413.43 340.59,458.89 C345.13,481.22 355.99,504.50 370.67,523.35 C376.41,530.73 376.85,532.01 374.43,534.43 C372.43,536.43 369.58,536.44 367.59,534.44 ZM 387.51 507.75 C374.27,492.30 364.14,469.61 360.44,447.12 C358.40,434.69 358.92,411.88 361.51,400.00 C365.22,383.05 373.09,365.46 383.54,350.76 C389.94,341.76 392.93,339.36 395.81,340.90 C399.59,342.92 399.08,345.62 393.51,353.17 C382.54,368.04 376.57,380.36 372.44,396.62 C363.25,432.85 371.02,471.46 393.17,499.64 C398.07,505.87 398.97,508.63 396.80,510.80 C394.46,513.14 391.23,512.08 387.51,507.75 ZM 410.61 487.91 C404.01,482.72 394.75,465.42 390.82,450.93 C387.57,438.96 387.57,414.37 390.83,402.50 C393.56,392.53 399.68,379.60 405.58,371.33 C410.78,364.04 413.07,362.43 416.00,364.00 C419.08,365.65 418.52,370.04 414.55,375.23 C398.60,396.12 393.43,427.23 401.61,453.17 C404.86,463.48 407.48,468.73 413.39,476.75 C418.34,483.47 419.18,487.30 416.07,488.96 C414.96,489.56 414.36,489.90 413.78,489.88 C413.05,489.86 412.34,489.27 410.61,487.91 Z" fill="rgba(49,169,230,1)"/>
<path d="M 99.93 497.74 C91.37,490.46 76.86,478.21 67.69,470.52 C51.96,457.33 51.11,456.45 52.76,454.87 C53.72,453.95 68.45,441.41 85.50,427.00 L 116.50 400.81 L 116.77 416.16 C116.99,429.14 117.29,431.69 118.71,432.75 C119.97,433.69 128.90,434.00 155.19,434.00 L 190.00 434.00 L 190.01 449.75 C190.01,458.41 190.30,468.54 190.65,472.25 L 191.29 479.00 L 155.34 479.00 C128.72,479.00 119.09,479.31 118.20,480.20 C117.37,481.03 117.00,486.02 117.00,496.20 C117.00,504.34 116.66,511.00 116.25,510.99 C115.84,510.99 108.50,505.03 99.93,497.74 Z" fill="rgba(70,183,110,1)"/>
<path d="M 168.47 409.96 C166.51,406.77 174.19,366.45 180.95,344.50 C190.04,314.97 206.74,280.59 225.40,253.00 C250.35,216.12 288.59,179.31 327.00,155.21 C370.04,128.21 411.65,113.20 468.00,104.34 C484.42,101.76 538.99,101.73 556.50,104.30 C612.76,112.54 659.36,130.02 703.50,159.46 C776.33,208.04 826.92,279.30 847.89,362.82 C852.33,380.48 856.72,406.69 855.69,409.37 C855.10,410.90 853.61,411.09 843.31,410.93 L 831.59 410.76 L 828.89 395.13 C825.45,375.24 823.01,365.04 817.89,349.20 C801.57,298.70 774.52,255.07 736.74,218.34 C687.87,170.83 626.11,140.20 558.50,129.96 C540.58,127.24 504.11,126.24 484.95,127.93 C386.20,136.65 297.93,188.94 243.46,271.00 C218.57,308.50 202.81,348.66 195.02,394.50 L 192.30 410.50 L 180.73 410.78 C173.06,410.97 168.93,410.69 168.47,409.96 ZM 482.00 789.37 C419.58,782.08 368.34,764.39 322.50,734.28 C243.96,682.70 190.45,604.60 172.02,514.64 C170.91,509.22 170.00,504.15 170.00,503.39 C170.00,502.28 172.50,502.00 182.50,502.00 C189.38,502.00 195.00,502.23 195.00,502.52 C195.00,504.89 200.59,527.88 203.51,537.50 C224.18,605.66 266.31,664.03 325.26,706.18 C352.58,725.71 378.09,738.53 411.50,749.55 C514.47,783.49 629.02,762.77 714.22,694.80 C728.38,683.49 754.73,656.85 765.44,643.00 C797.23,601.89 818.43,556.04 828.00,507.75 L 829.14 502.00 L 854.23 502.00 L 853.53 506.63 C852.25,515.15 846.04,539.01 841.38,553.25 C825.66,601.37 797.27,648.29 762.07,684.35 C712.88,734.74 653.33,767.88 585.80,782.45 C559.54,788.12 548.50,789.23 516.00,789.52 C499.23,789.66 483.92,789.60 482.00,789.37 ZM 609.68 571.95 C603.13,570.32 597.45,565.63 594.33,559.25 C591.56,553.62 591.49,553.07 591.16,533.75 L 590.82 514.00 L 676.00 514.00 L 676.00 532.82 C676.00,554.61 675.12,558.58 668.84,565.05 C662.15,571.94 660.38,572.35 635.50,572.64 C623.40,572.79 611.78,572.48 609.68,571.95 ZM 579.59 504.26 C579.27,503.93 579.00,501.94 579.00,499.83 L 579.00 496.00 L 688.00 496.00 L 688.00 504.00 L 681.75 504.04 C678.31,504.06 654.05,504.25 627.84,504.46 C601.63,504.68 579.92,504.59 579.59,504.26 ZM 626.00 582.00 L 641.00 582.00 L 641.00 591.00 L 626.00 591.00 L 626.00 582.00 Z" fill="rgba(83,84,84,1)"/>
<path d="M 453.00 565.50 C453.00,565.06 457.98,552.34 475.72,507.50 C478.76,499.80 481.81,492.15 482.50,490.50 C483.45,488.20 486.92,479.45 490.68,469.85 C489.82,472.30 490.16,472.64 491.56,473.67 C494.56,475.86 496.42,474.84 497.33,470.49 C498.18,466.43 496.92,461.00 495.14,461.00 C494.65,461.00 493.25,463.46 492.00,466.49 C496.40,455.27 500.87,443.80 502.00,440.75 C503.18,437.59 504.00,433.99 503.82,432.75 L 503.58 431.04 C503.98,431.15 503.82,430.49 503.00,429.50 C501.96,428.24 497.89,428.00 477.94,428.00 C463.14,428.00 453.88,427.62 453.50,427.00 C453.16,426.45 452.12,425.99 451.19,425.97 C449.47,425.93 445.00,422.72 445.00,421.52 C445.00,421.15 444.38,420.23 443.62,419.47 C442.52,418.38 442.01,418.79 440.58,422.42 C443.05,414.79 447.94,400.31 453.96,382.71 C452.85,386.00 452.00,388.81 452.00,389.25 C452.00,390.08 457.46,389.38 459.25,388.32 C459.66,388.08 460.00,386.93 460.00,385.76 C460.00,384.60 460.52,382.19 461.16,380.42 C462.07,377.92 462.04,376.52 461.04,374.10 C458.91,368.96 458.60,369.28 454.45,381.26 C458.74,368.74 463.57,354.72 468.51,340.50 C475.98,319.03 493.00,268.81 493.00,268.27 C493.00,268.27 493.03,268.26 493.08,268.26 L 490.97 274.59 C489.76,278.21 489.17,281.53 489.64,281.95 C491.59,283.70 496.54,280.91 499.32,276.50 C503.90,269.23 504.23,269.17 540.34,269.13 C563.44,269.10 572.72,269.42 574.16,270.30 C575.25,270.96 577.07,273.52 578.20,275.99 C579.34,278.46 580.94,281.50 581.75,282.74 C583.81,285.88 584.81,285.97 588.51,280.25 L 584.70 286.55 C578.54,296.76 572.66,306.54 571.64,308.30 C560.12,328.10 543.54,355.00 542.86,355.00 C542.39,355.00 542.00,355.63 542.00,356.40 C542.00,357.17 538.62,363.41 534.50,370.27 C530.38,377.13 527.00,383.41 527.00,384.22 C527.00,384.32 527.01,384.43 527.04,384.55 C526.54,383.14 526.92,381.93 528.16,380.59 C529.16,379.52 529.73,378.39 529.42,378.09 C528.66,377.32 525.05,382.15 525.01,384.00 C524.98,385.22 524.81,385.25 524.11,384.14 C523.60,383.34 523.00,383.19 522.65,383.76 C522.32,384.29 523.43,386.35 525.11,388.32 C528.62,392.43 533.55,393.65 541.00,392.25 C547.24,391.08 563.63,392.39 568.71,394.46 C571.08,395.43 573.21,397.08 573.57,398.22 C573.93,399.34 576.30,402.22 578.86,404.61 C581.41,407.01 583.78,408.97 584.13,408.98 C585.03,409.01 593.53,398.82 594.26,396.83 C594.62,395.85 594.29,394.94 593.44,394.61 C592.65,394.31 592.00,392.92 592.00,391.53 L 592.00 389.43 L 601.00 389.50 L 585.25 408.59 C579.84,415.14 574.39,421.72 570.56,426.34 C570.50,425.95 570.17,425.62 569.55,425.38 C567.53,424.61 564.95,426.71 565.66,428.55 C566.06,429.59 566.69,429.70 568.04,428.98 C568.26,428.86 568.47,428.74 568.66,428.62 C567.32,430.24 566.31,431.45 565.77,432.09 C564.09,434.07 554.34,445.97 542.51,460.46 C543.21,459.27 542.89,459.00 541.80,459.00 C539.83,459.00 534.11,465.13 534.68,466.62 C535.20,467.97 535.76,468.29 536.96,467.27 C536.09,468.34 535.21,469.42 534.33,470.50 C528.62,477.50 523.27,484.05 518.79,489.53 C519.64,488.26 519.29,488.05 517.97,487.70 C515.84,487.14 510.53,492.43 511.55,494.08 C512.40,495.46 513.77,495.22 515.65,493.36 C509.92,500.36 506.22,504.85 506.06,505.00 C505.75,505.27 503.72,507.75 501.54,510.50 C499.65,512.88 497.79,515.22 495.96,517.50 L 493.43 516.82 C492.01,516.44 490.00,515.15 488.95,513.95 C487.10,511.81 484.00,511.83 484.00,513.97 C484.00,514.54 483.59,515.00 483.08,515.00 C482.58,515.00 482.19,512.61 482.21,509.69 C482.24,506.76 481.60,503.11 480.79,501.56 L 479.31 498.75 L 476.61 505.50 C475.13,509.21 474.08,512.41 474.28,512.61 C474.48,512.82 476.41,513.59 478.57,514.34 C482.56,515.72 483.85,517.77 485.47,525.32 C485.80,526.87 486.46,528.00 486.94,527.82 C487.41,527.64 489.65,525.25 491.91,522.51 L 492.87 521.34 C484.83,531.30 477.47,540.15 471.32,547.27 C473.19,544.76 473.31,544.00 472.21,544.00 C471.17,544.00 469.54,543.14 468.59,542.10 C464.81,537.92 463.42,538.72 460.24,546.86 C457.46,553.99 457.37,554.61 458.88,556.61 C459.70,557.71 460.81,558.45 461.45,558.36 C456.12,564.08 453.00,566.81 453.00,565.50 ZM 473.25 538.36 C474.49,539.70 475.78,540.84 476.13,540.89 C476.48,540.95 477.88,539.53 479.25,537.74 L 481.74 534.48 L 479.30 532.64 C477.96,531.63 477.10,530.56 477.40,530.27 C478.17,529.49 476.11,526.00 474.88,526.00 C474.30,526.00 473.03,525.02 472.06,523.83 C470.30,521.65 470.30,521.65 468.45,526.49 L 466.60 531.33 L 468.80 532.78 C470.01,533.59 471.00,534.62 471.00,535.09 C471.00,535.55 472.01,537.02 473.25,538.36 ZM 478.04 313.25 C477.03,316.41 476.43,319.00 476.70,319.00 C478.73,319.00 483.54,314.82 485.17,311.65 C487.24,307.60 487.01,301.02 484.68,298.15 C483.55,296.75 482.60,298.92 478.04,313.25 ZM 467.66 343.26 L 464.18 353.00 L 466.97 353.00 C468.50,353.00 470.20,352.44 470.75,351.75 C473.85,347.84 475.35,335.45 472.90,333.94 C472.16,333.48 471.46,333.20 471.35,333.32 C471.23,333.43 469.57,337.91 467.66,343.26 ZM 443.45 416.91 C444.18,418.10 447.62,417.16 449.11,415.37 C450.47,413.73 449.17,405.88 447.44,405.31 C446.24,404.91 442.59,415.53 443.45,416.91 ZM 498.07 451.08 C498.03,451.40 499.01,451.59 500.25,451.50 C502.77,451.31 503.53,449.17 502.47,445.17 C501.76,442.50 501.76,442.51 499.95,446.50 C498.96,448.70 498.11,450.76 498.07,451.08 ZM 502.78 430.45 C502.79,430.46 502.81,430.48 502.82,430.49 L 471.00 430.00 C470.44,429.99 469.89,429.98 469.35,429.97 C469.79,429.97 470.24,429.97 470.69,429.97 C488.03,429.93 502.47,430.14 502.78,430.45 ZM 529.08 387.54 C530.16,388.28 532.50,388.66 540.29,388.90 C532.13,388.74 530.07,388.38 529.08,387.54 Z" fill="rgba(246,212,59,1)"/>
<path d="M 458.88 556.61 C457.37,554.61 457.46,553.99 460.24,546.86 C463.42,538.72 464.81,537.92 468.59,542.10 C469.54,543.14 471.17,544.00 472.21,544.00 C473.72,544.00 472.92,545.45 468.40,550.96 C465.25,554.78 462.18,558.10 461.58,558.33 C460.98,558.56 459.76,557.79 458.88,556.61 ZM 473.25 538.36 C472.01,537.02 471.00,535.55 471.00,535.09 C471.00,534.62 470.01,533.59 468.80,532.78 L 466.60 531.33 L 468.45 526.49 C470.30,521.65 470.30,521.65 472.06,523.83 C473.03,525.02 474.30,526.00 474.88,526.00 C476.11,526.00 478.17,529.49 477.40,530.27 C477.10,530.56 477.96,531.63 479.30,532.64 L 481.74 534.48 L 479.25 537.74 C477.88,539.53 476.48,540.95 476.13,540.89 C475.78,540.84 474.49,539.70 473.25,538.36 ZM 485.47 525.32 C483.85,517.77 482.56,515.72 478.57,514.34 C476.41,513.59 474.48,512.82 474.28,512.61 C474.08,512.41 475.13,509.21 476.61,505.50 L 479.31 498.75 L 480.79 501.56 C481.60,503.11 482.24,506.76 482.21,509.69 C482.19,512.61 482.58,515.00 483.08,515.00 C483.59,515.00 484.00,514.54 484.00,513.97 C484.00,511.83 487.10,511.81 488.95,513.95 C490.00,515.15 492.01,516.44 493.43,516.82 L 496.02 517.51 L 491.91 522.51 C489.65,525.25 487.41,527.64 486.94,527.82 C486.46,528.00 485.80,526.87 485.47,525.32 ZM 511.55 494.08 C510.53,492.43 515.84,487.14 517.97,487.70 C519.81,488.18 519.77,488.40 517.21,491.61 C514.51,494.99 512.62,495.82 511.55,494.08 ZM 491.56 473.67 C489.70,472.31 489.71,472.15 491.94,466.64 C493.20,463.54 494.64,461.00 495.14,461.00 C496.92,461.00 498.18,466.43 497.33,470.49 C496.42,474.84 494.56,475.86 491.56,473.67 ZM 534.68 466.62 C534.11,465.13 539.83,459.00 541.80,459.00 C543.59,459.00 543.31,459.73 539.83,464.06 C536.42,468.31 535.51,468.76 534.68,466.62 ZM 498.07 451.08 C498.11,450.76 498.96,448.70 499.95,446.50 C501.76,442.51 501.76,442.50 502.47,445.17 C503.53,449.17 502.77,451.31 500.25,451.50 C499.01,451.59 498.03,451.40 498.07,451.08 ZM 502.78 430.45 C502.47,430.14 488.03,429.93 470.69,429.97 C453.34,430.02 438.94,429.70 438.69,429.28 C438.44,428.85 439.14,426.16 440.24,423.30 C441.94,418.86 442.44,418.30 443.62,419.47 C444.38,420.23 445.00,421.15 445.00,421.52 C445.00,422.72 449.47,425.93 451.19,425.97 C452.12,425.99 453.16,426.45 453.50,427.00 C453.88,427.62 463.14,428.00 477.94,428.00 C497.89,428.00 501.96,428.24 503.00,429.50 C504.17,430.91 503.99,431.66 502.78,430.45 ZM 565.66 428.55 C564.95,426.71 567.53,424.61 569.55,425.38 C571.35,426.07 570.74,427.54 568.04,428.98 C566.69,429.70 566.06,429.59 565.66,428.55 ZM 443.45 416.91 C442.59,415.53 446.24,404.91 447.44,405.31 C449.17,405.88 450.47,413.73 449.11,415.37 C447.62,417.16 444.18,418.10 443.45,416.91 ZM 578.86 404.61 C576.30,402.22 573.93,399.34 573.57,398.22 C573.21,397.08 571.08,395.43 568.71,394.46 C563.63,392.39 547.24,391.08 541.00,392.25 C533.55,393.65 528.62,392.43 525.11,388.32 C523.43,386.35 522.32,384.29 522.65,383.76 C523.00,383.19 523.60,383.34 524.11,384.14 C524.81,385.25 524.98,385.22 525.01,384.00 C525.05,382.15 528.66,377.32 529.42,378.09 C529.73,378.39 529.16,379.52 528.16,380.59 C526.21,382.69 526.38,384.48 528.79,387.25 C530.18,388.85 533.03,389.00 561.15,389.00 L 592.00 389.00 L 592.00 391.53 C592.00,392.92 592.65,394.31 593.44,394.61 C594.29,394.94 594.62,395.85 594.26,396.83 C593.53,398.82 585.03,409.01 584.13,408.98 C583.78,408.97 581.41,407.01 578.86,404.61 ZM 452.00 389.25 C452.00,388.76 453.08,385.23 454.39,381.43 C458.59,369.28 458.90,368.94 461.04,374.10 C462.04,376.52 462.07,377.92 461.16,380.42 C460.52,382.19 460.00,384.60 460.00,385.76 C460.00,386.93 459.66,388.08 459.25,388.32 C457.46,389.38 452.00,390.08 452.00,389.25 ZM 467.66 343.26 C469.57,337.91 471.23,333.43 471.35,333.32 C471.46,333.20 472.16,333.48 472.90,333.94 C475.35,335.45 473.85,347.84 470.75,351.75 C470.20,352.44 468.50,353.00 466.97,353.00 L 464.18 353.00 L 467.66 343.26 ZM 478.04 313.25 C482.60,298.92 483.55,296.75 484.68,298.15 C487.01,301.02 487.24,307.60 485.17,311.65 C483.54,314.82 478.73,319.00 476.70,319.00 C476.43,319.00 477.03,316.41 478.04,313.25 ZM 581.75 282.74 C580.94,281.50 579.34,278.46 578.20,275.99 C577.07,273.52 575.25,270.96 574.16,270.30 C572.72,269.42 563.44,269.10 540.34,269.13 C504.23,269.17 503.90,269.23 499.32,276.50 C496.54,280.91 491.59,283.70 489.64,281.95 C489.17,281.53 489.76,278.21 490.97,274.59 L 493.16 268.00 L 544.56 268.00 L 595.96 268.00 L 591.29 275.75 C585.20,285.86 584.25,286.56 581.75,282.74 Z" fill="rgba(247,214,63,1)"/>
</g>
</svg>