<svg xmlns="http://www.w3.org/2000/svg" width="1024" height="1024" viewBox="0 0 1024 1024">
<g>
<path d="M 493.50 921.33 C389.56,916.57 292.64,872.80 219.00,797.38 C158.24,735.14 119.30,656.71 105.91,569.62 C104.82,562.53 104.14,556.53 104.40,556.27 C104.65,556.01 111.42,560.39 119.43,565.99 C128.77,572.51 134.19,576.95 134.51,578.33 C134.79,579.53 135.92,585.00 137.02,590.50 C138.11,596.00 140.85,607.10 143.10,615.16 L 147.19 629.83 L 152.84 630.30 C155.95,630.56 196.52,630.58 243.00,630.33 L 327.50 629.89 L 327.33 627.69 C327.23,626.49 325.58,616.95 323.65,606.50 C319.38,583.40 317.54,570.99 315.59,552.00 C308.95,487.34 312.31,421.09 325.62,354.54 L 328.21 341.57 L 309.50 304.85 L 309.50 296.03 C309.50,287.72 309.69,286.94 312.64,282.85 C319.04,273.99 330.54,271.35 341.29,276.27 C344.19,277.60 351.05,281.52 356.53,284.98 L 366.50 291.28 L 380.00 288.66 C414.75,281.91 433.41,279.95 469.07,279.29 C510.81,278.52 535.00,280.42 574.34,287.59 L 593.17 291.01 L 601.88 285.63 C620.38,274.19 626.98,271.98 635.40,274.43 C644.59,277.10 650.94,285.72 650.98,295.59 C651.01,302.65 648.26,309.95 639.51,326.11 C635.38,333.73 632.00,340.85 632.00,341.92 C632.00,342.99 632.68,347.11 633.52,351.07 C638.52,374.88 643.25,408.17 645.61,436.28 C647.35,457.05 647.96,505.90 646.68,522.50 L 645.91 532.50 L 654.21 536.42 C660.99,539.62 664.05,541.90 671.01,548.92 C676.27,554.22 680.78,559.88 682.82,563.75 C684.63,567.19 686.26,570.00 686.44,570.00 C686.62,570.00 688.05,567.41 689.63,564.25 C691.42,560.67 695.70,555.26 701.00,549.89 C708.16,542.63 710.99,540.55 719.00,536.64 C730.94,530.82 737.73,529.06 751.13,528.31 L 761.77 527.71 L 763.53 530.41 C765.05,532.72 765.21,534.55 764.67,543.30 C762.82,573.58 749.26,595.60 725.50,606.94 C716.30,611.32 708.36,613.58 698.75,614.55 L 692.00 615.23 L 692.00 622.87 L 692.00 630.50 L 773.25 630.79 C817.94,630.95 859.50,630.80 865.61,630.45 L 876.73 629.82 L 880.86 615.16 C884.14,603.52 890.00,578.79 890.00,576.60 C890.00,576.03 917.07,556.91 918.85,556.23 C919.16,556.11 919.42,555.97 919.59,556.04 C920.25,556.31 919.66,559.67 916.46,579.00 C905.86,643.01 878.37,706.30 838.04,759.50 C815.44,789.32 784.41,819.77 753.00,842.97 C679.22,897.45 586.09,925.57 493.50,921.33 ZM 452.00 647.00 C476.76,648.70 518.09,647.11 546.00,643.38 C568.70,640.35 609.25,631.90 619.13,628.14 C622.01,627.05 623.35,622.60 626.75,602.89 L 628.40 593.29 L 624.63 588.89 C620.03,583.53 613.58,570.62 611.44,562.50 C609.28,554.31 608.28,531.58 609.98,529.52 C611.40,527.82 619.61,527.57 629.00,528.96 C632.03,529.41 634.88,529.42 635.35,528.98 C635.82,528.55 636.66,519.04 637.21,507.85 C638.84,474.95 636.19,430.08 630.38,392.00 C627.80,375.08 623.35,349.86 622.41,346.77 C621.77,344.69 617.57,343.38 596.40,338.63 C555.16,329.37 521.83,325.63 480.50,325.61 C449.40,325.59 434.33,326.63 407.50,330.61 C384.58,334.01 340.28,343.39 338.44,345.22 C337.57,346.10 330.81,385.51 328.56,402.87 C324.16,436.83 323.50,447.91 323.52,487.00 C323.54,535.58 326.40,566.05 335.12,610.33 L 338.40 627.04 L 344.95 628.98 C373.39,637.45 415.03,644.46 452.00,647.00 ZM 554.50 892.52 C601.42,886.95 640.63,875.45 680.70,855.52 C720.08,835.93 749.94,814.26 782.56,781.59 C798.06,766.08 816.00,745.71 816.00,743.64 C816.00,743.29 679.20,743.01 512.00,743.01 C344.80,743.02 208.00,743.36 208.00,743.77 C208.00,744.18 211.22,748.57 215.15,753.51 C225.19,766.14 258.19,798.71 272.57,810.20 C316.49,845.29 364.53,869.38 417.86,883.09 C439.53,888.66 458.96,891.71 490.00,894.41 C499.52,895.24 542.11,893.99 554.50,892.52 ZM 196.93 728.75 L 200.01 733.00 L 512.26 733.00 L 824.50 733.00 L 831.66 722.25 C842.02,706.68 848.41,695.50 856.61,678.51 C863.51,664.22 872.00,644.08 872.00,641.98 C872.00,641.35 840.10,641.00 782.00,641.00 L 692.00 641.00 L 692.00 663.96 L 694.75 664.55 C704.24,666.58 712.10,671.39 717.02,678.19 C721.05,683.75 721.69,686.58 719.46,689.04 C716.37,692.46 713.45,691.52 709.18,685.74 C704.74,679.73 697.90,675.53 690.87,674.49 C681.17,673.06 667.85,678.39 664.20,685.17 C662.15,688.97 659.38,692.00 657.95,692.00 C657.38,692.00 655.78,690.87 654.39,689.48 C651.53,686.62 651.74,684.76 655.61,678.75 C659.06,673.41 666.41,668.33 674.25,665.90 L 681.00 663.81 L 681.00 641.00 L 637.22 641.00 L 644.30 654.90 C650.88,667.83 651.37,669.23 651.36,675.15 C651.32,689.65 638.84,700.77 625.89,697.86 C620.88,696.74 615.07,693.79 603.64,686.59 C598.77,683.51 594.05,681.00 593.14,681.01 C592.24,681.01 586.33,682.10 580.00,683.44 C548.15,690.18 517.46,693.23 482.00,693.19 C443.86,693.15 421.41,691.08 386.50,684.40 C371.93,681.61 368.06,680.69 364.89,681.80 C363.38,682.32 362.02,683.31 359.74,684.77 C343.62,695.07 338.88,697.38 332.97,697.81 C325.81,698.33 321.45,696.93 316.22,692.46 C310.80,687.82 308.64,682.03 309.17,673.60 C309.53,668.03 310.51,665.27 316.17,654.06 L 322.75 641.00 L 237.38 641.00 C190.42,641.00 152.00,641.22 152.00,641.49 C152.00,643.44 161.88,666.39 168.57,680.00 C176.17,695.46 189.93,719.11 196.93,728.75 ZM 104.00 467.25 C104.02,462.83 109.91,430.88 113.09,418.00 C136.34,323.66 188.61,244.02 266.02,185.03 C320.52,143.49 384.93,116.61 454.00,106.57 C493.87,100.77 540.07,101.31 579.75,108.02 C666.11,122.64 743.08,163.16 805.02,226.62 C864.48,287.54 902.77,363.36 917.00,448.34 C918.74,458.70 920.01,467.32 919.83,467.50 C919.65,467.68 912.90,463.28 904.82,457.72 C891.44,448.50 890.09,447.29 889.52,444.05 C886.08,424.48 875.85,390.48 866.34,367.00 C829.65,276.42 754.69,200.08 663.87,160.81 C590.54,129.09 512.06,121.20 432.50,137.54 C376.54,149.04 320.57,175.62 273.50,213.06 C247.65,233.63 217.84,265.48 197.30,294.50 C169.76,333.39 147.90,383.68 137.00,433.18 C135.47,440.15 133.92,446.31 133.58,446.88 C133.23,447.44 129.24,450.49 124.72,453.64 C120.20,456.80 113.95,461.32 110.83,463.69 C105.10,468.04 104.00,468.61 104.00,467.25 ZM 327.52 316.80 C332.56,326.75 336.84,334.00 337.65,334.00 C338.42,334.00 346.58,332.22 355.78,330.04 C404.68,318.45 442.83,314.31 491.50,315.30 C533.92,316.17 562.27,319.87 605.28,330.17 C614.52,332.38 622.63,333.97 623.30,333.71 C623.98,333.45 628.24,326.00 632.77,317.15 C641.85,299.39 642.75,295.38 639.00,289.23 C633.96,280.96 626.43,282.54 605.64,296.24 L 595.79 302.74 L 587.14 300.80 C548.37,292.13 501.57,288.22 458.65,290.08 C428.99,291.36 417.79,292.77 370.50,301.23 L 364.50 302.31 L 353.13 295.05 C333.82,282.72 329.57,281.62 323.39,287.28 C320.57,289.87 319.69,291.53 319.29,295.09 C318.83,299.24 319.49,300.99 327.52,316.80 ZM 326.27 686.52 C328.05,687.29 330.30,687.94 331.28,687.96 C333.71,688.01 341.46,683.99 353.60,676.37 C359.18,672.87 364.54,670.00 365.51,670.00 C366.48,670.00 374.97,671.56 384.38,673.46 C421.60,680.97 437.84,682.48 481.50,682.48 C524.52,682.48 544.52,680.48 581.83,672.44 C588.06,671.10 594.07,670.00 595.17,670.00 C596.28,670.00 601.75,672.86 607.34,676.37 C619.77,684.16 627.26,688.00 630.02,688.00 C633.39,688.00 637.85,685.19 639.48,682.03 C642.81,675.60 640.70,668.33 629.80,648.75 C626.52,642.84 623.53,638.00 623.16,638.00 C622.80,638.00 618.45,639.11 613.50,640.46 C590.63,646.69 558.17,652.70 532.00,655.55 C511.72,657.75 470.34,658.51 449.00,657.08 C416.52,654.89 384.56,649.76 351.78,641.47 C344.23,639.56 337.63,638.00 337.11,638.00 C335.41,638.00 319.00,671.77 319.00,675.26 C319.01,679.65 322.34,684.81 326.27,686.52 ZM 872.50 531.50 L 838.50 531.00 C819.80,530.72 804.61,530.16 804.75,529.75 C804.89,529.34 805.00,520.68 805.00,510.51 L 805.00 492.03 L 872.50 491.50 L 873.50 453.84 L 885.63 462.28 C908.20,477.98 954.00,511.35 954.00,512.10 C954.00,512.51 946.24,518.37 936.75,525.11 C927.26,531.86 913.42,541.71 906.00,547.00 C898.58,552.29 888.12,559.66 882.77,563.37 L 873.04 570.12 L 872.50 531.50 ZM 550.73 519.36 C541.60,523.71 532.87,523.46 524.65,518.63 C519.13,515.39 516.54,512.47 513.93,506.58 C511.44,500.94 510.98,490.22 512.94,483.13 C514.58,477.16 521.77,469.61 527.75,467.57 C533.62,465.57 543.49,465.56 549.12,467.54 C558.68,470.91 565.00,481.18 565.00,493.36 C565.00,506.14 560.23,514.84 550.73,519.36 ZM 540.50 414.50 L 539.50 445.50 L 533.25 445.80 L 527.00 446.10 L 527.00 392.00 L 533.42 392.00 C536.95,392.00 540.45,391.76 541.20,391.48 C542.18,391.10 544.37,395.47 548.96,406.97 C552.47,415.78 555.49,422.84 555.66,422.67 C555.83,422.50 558.62,415.64 561.86,407.43 L 567.74 392.50 L 575.89 392.21 L 584.03 391.92 L 583.50 445.50 L 577.12 445.80 L 570.73 446.10 L 571.20 430.05 C571.45,421.22 571.40,414.01 571.08,414.02 C570.76,414.03 568.03,420.11 565.00,427.54 C560.70,438.09 559.02,441.17 557.32,441.61 C552.68,442.82 551.47,441.36 545.91,427.73 L 540.50 414.50 ZM 472.79 512.25 L 472.50 521.50 L 466.46 521.79 C463.14,521.95 460.10,521.77 459.71,521.38 C459.32,520.99 459.00,508.31 459.00,493.22 L 459.00 465.77 L 475.25 466.19 C489.66,466.57 491.99,466.87 495.83,468.87 C500.90,471.51 503.94,477.08 503.98,483.78 C504.01,489.50 502.04,493.88 497.77,497.63 L 494.24 500.73 L 500.09 510.91 C504.30,518.22 505.57,521.23 504.62,521.59 C503.89,521.87 500.41,521.97 496.90,521.80 L 490.51 521.50 L 485.51 512.25 C480.58,503.16 480.44,503.01 476.79,503.00 L 473.08 503.00 ZM 661.00 601.40 C670.20,604.53 673.52,604.78 672.06,602.25 C671.50,601.29 664.97,593.53 657.55,585.00 C649.48,575.73 644.05,568.65 644.03,567.37 C643.99,564.48 646.28,562.80 649.75,563.18 C652.05,563.44 655.39,566.67 666.56,579.48 C682.00,597.18 682.76,597.41 679.53,583.49 C674.19,560.44 655.87,543.63 631.62,539.51 C623.93,538.20 620.76,537.46 619.58,538.66 C618.62,539.64 618.99,541.92 619.31,546.25 C620.57,563.25 625.82,575.78 636.00,586.07 C643.40,593.56 650.22,597.73 661.00,601.40 ZM 701.20 602.25 C699.83,603.84 699.88,604.00 701.79,604.00 C705.82,604.00 719.54,599.03 725.87,595.28 C739.94,586.93 750.55,570.93 753.49,553.62 C754.32,548.73 755.00,543.18 755.00,541.27 L 755.00 537.80 L 748.75 538.53 C739.59,539.58 732.43,541.62 724.11,545.55 C714.29,550.18 702.66,561.63 698.25,571.00 C695.16,577.59 691.55,591.51 692.16,594.51 C692.38,595.57 697.48,590.40 706.86,579.57 C718.79,565.80 721.67,563.00 723.91,563.00 C725.39,563.00 727.14,563.54 727.80,564.20 C731.01,567.41 729.85,569.07 701.20,602.25 ZM 486.79 436.69 L 486.50 445.50 L 479.78 445.79 L 473.06 446.09 L 472.78 419.04 L 472.50 392.00 L 488.04 392.00 C502.18,392.00 503.97,392.20 507.98,394.25 C513.71,397.18 516.17,400.70 516.76,406.81 C517.38,413.33 515.66,418.21 511.44,421.92 C509.55,423.58 508.00,425.20 508.00,425.52 C508.00,425.84 510.46,430.38 513.48,435.59 C517.44,442.45 518.59,445.22 517.62,445.59 C516.89,445.87 513.42,445.97 509.92,445.80 L 503.56 445.50 L 498.89 437.00 C494.50,429.01 494.00,428.48 490.65,428.19 L 487.08 427.88 ZM 418.79 513.39 L 418.50 521.50 L 412.46 521.79 C409.14,521.95 406.10,521.77 405.71,521.38 C405.32,520.99 405.00,508.31 405.00,493.21 L 405.00 465.76 L 420.75 466.19 C434.58,466.57 437.02,466.90 440.79,468.85 C447.69,472.44 451.00,480.09 449.50,488.98 C447.89,498.52 440.36,503.82 427.13,504.73 L 419.08 505.28 ZM 430.47 435.00 L 427.49 445.50 L 420.12 445.80 C414.42,446.03 412.86,445.80 413.22,444.80 C413.49,444.08 416.94,433.83 420.89,422.00 C424.85,410.17 428.79,398.57 429.64,396.21 L 431.19 391.92 L 439.71 392.21 L 448.22 392.50 L 457.10 418.46 C461.99,432.74 465.60,444.80 465.14,445.26 C464.68,445.72 461.45,445.97 457.98,445.80 L 451.66 445.50 L 450.20 440.25 L 448.74 435.00 L 430.47 435.00 ZM 391.07 425.07 L 390.50 445.50 L 377.00 446.09 L 377.00 392.00 L 415.10 392.00 L 414.80 397.25 L 414.50 402.50 L 391.00 403.06 L 391.00 414.00 L 413.10 414.00 L 412.80 419.25 L 412.50 424.50 L 391.07 425.07 ZM 679.42 630.39 C680.66,629.92 681.00,628.21 681.00,622.39 L 681.00 615.00 L 677.46 615.00 C668.15,615.00 651.80,610.16 643.67,605.00 C641.06,603.35 638.56,602.00 638.11,602.00 C637.65,602.00 636.30,607.06 635.10,613.25 C633.90,619.44 632.68,625.73 632.39,627.23 L 631.85 629.96 L 654.17 630.25 C666.45,630.41 676.80,630.64 677.17,630.77 C677.54,630.90 678.55,630.73 679.42,630.39 ZM 535.64 509.96 C541.13,511.59 546.28,508.79 549.06,502.67 C552.38,495.36 551.16,485.43 546.35,480.62 C544.16,478.43 542.83,478.00 538.26,478.00 C533.50,478.00 532.45,478.38 530.03,480.96 C527.05,484.16 526.00,487.72 526.00,494.66 C526.00,502.43 529.62,508.18 535.64,509.96 ZM 361.62 710.46 L 359.95 713.00 L 332.63 713.00 C307.43,713.00 305.18,712.86 303.65,711.17 C301.69,709.00 301.50,705.65 303.25,704.24 C305.42,702.50 321.41,701.79 341.62,702.54 C360.78,703.26 361.19,703.32 362.23,705.59 C363.05,707.40 362.91,708.48 361.62,710.46 ZM 245.17 673.35 C243.58,674.78 240.51,674.99 221.92,674.93 C208.83,674.89 199.63,674.45 198.27,673.79 C195.24,672.33 194.51,669.40 196.44,666.45 L 198.05 664.00 L 220.95 664.00 C240.44,664.00 244.09,664.23 245.43,665.57 C247.54,667.68 247.42,671.31 245.17,673.35 ZM 826.78 673.44 C824.94,674.73 820.96,675.00 803.53,674.99 C780.97,674.97 777.78,674.38 777.17,670.14 C776.99,668.87 777.62,666.97 778.57,665.92 C780.19,664.13 781.91,664.00 803.08,664.00 C822.45,664.00 826.09,664.23 827.43,665.57 C829.68,667.83 829.37,671.63 826.78,673.44 ZM 260.43 711.67 C257.98,713.47 236.07,713.53 233.76,711.75 C230.59,709.31 231.54,703.63 235.28,702.62 C236.50,702.29 242.25,702.02 248.06,702.01 C259.87,702.00 262.25,702.92 262.25,707.50 C262.25,709.09 261.45,710.93 260.43,711.67 ZM 564.07 711.96 C563.00,712.53 556.93,713.00 550.57,713.00 C540.24,713.00 538.78,712.78 536.95,710.95 C534.90,708.90 534.99,705.80 537.18,703.50 C538.47,702.14 562.95,702.71 564.67,704.14 C566.70,705.83 566.32,710.76 564.07,711.96 ZM 791.43 711.43 C790.17,712.69 787.41,713.00 777.58,713.00 C766.96,713.00 765.09,712.75 763.65,711.17 C761.71,709.02 761.51,705.89 763.20,704.20 C764.01,703.39 768.68,703.00 777.66,703.00 C789.76,703.00 791.02,703.17 791.96,704.93 C793.42,707.65 793.26,709.60 791.43,711.43 ZM 410.94 589.25 C407.92,591.70 404.34,591.43 401.45,588.55 C399.41,586.50 399.00,585.12 399.00,580.27 C399.00,572.40 400.74,570.00 406.43,570.00 C408.92,570.00 411.25,570.60 411.92,571.40 C415.57,575.80 415.02,585.95 410.94,589.25 ZM 430.53 710.97 C428.88,712.79 427.48,713.00 416.92,713.00 C404.18,713.00 402.00,712.20 402.00,707.55 C402.00,703.45 403.91,702.92 417.62,703.22 L 430.45 703.50 L 431.41 706.22 C432.17,708.37 431.98,709.36 430.53,710.97 ZM 435.80 589.80 C432.70,592.90 432.00,590.95 432.00,579.33 L 432.00 569.00 L 434.50 569.00 C436.67,569.00 437.00,569.44 437.00,572.33 C437.00,575.46 437.17,575.63 440.04,575.21 C444.34,574.58 447.00,577.25 447.00,582.20 C447.00,588.20 441.42,593.02 438.20,589.80 C437.27,588.87 436.73,588.87 435.80,589.80 ZM 419.75 493.43 C420.16,493.85 422.94,493.99 425.92,493.75 C432.88,493.18 436.52,489.62 435.65,484.24 C434.77,478.78 433.55,478.00 425.88,478.00 L 419.00 478.00 L 419.00 485.33 C419.00,489.37 419.34,493.01 419.75,493.43 ZM 586.78 594.44 C582.03,597.77 572.74,595.46 574.49,591.39 C574.94,590.35 575.21,588.69 575.08,587.69 C574.96,586.70 575.36,585.27 575.98,584.53 C576.75,583.60 576.77,582.98 576.05,582.53 C575.47,582.17 575.00,580.80 575.00,579.48 C575.00,576.78 577.55,575.00 581.43,575.00 C582.85,575.00 584.00,574.55 584.00,574.00 C584.00,573.45 585.12,573.00 586.50,573.00 C589.21,573.00 589.90,574.72 587.55,575.62 C586.41,576.06 586.34,576.57 587.23,577.99 C588.97,580.79 585.82,585.00 581.98,585.00 C580.34,585.00 579.00,585.45 579.00,586.00 C579.00,586.55 580.38,587.00 582.07,587.00 C588.57,587.00 591.28,591.29 586.78,594.44 ZM 544.93 589.53 C541.52,591.30 541.17,591.31 538.02,589.72 C532.93,587.14 531.44,579.06 534.99,573.25 C536.74,570.38 537.48,570.00 541.36,570.00 C546.21,570.00 549.22,572.18 547.18,574.22 C546.33,575.07 545.41,575.02 543.55,574.03 C541.54,572.95 540.78,572.94 539.53,573.97 C537.06,576.03 537.60,578.14 540.43,577.43 C548.29,575.45 552.14,585.81 544.93,589.53 ZM 473.00 478.00 L 473.00 492.23 L 479.63 491.81 C485.05,491.47 486.61,490.97 488.13,489.08 C490.41,486.27 490.52,483.18 488.44,480.22 C487.09,478.29 485.98,478.00 479.94,478.00 L 473.00 478.00 ZM 486.50 403.00 L 487.16 417.00 L 492.45 417.00 C499.29,417.00 503.00,414.36 503.00,409.50 C503.00,404.37 500.93,403.00 493.18,403.00 L 486.50 403.00 ZM 562.82 587.74 C562.51,590.36 560.18,591.85 558.70,590.37 C558.32,589.98 558.00,585.02 558.00,579.33 L 558.00 569.00 L 560.50 569.00 C562.87,569.00 563.00,569.29 563.04,574.75 L 563.07 580.50 L 565.32 577.75 C566.56,576.24 568.57,575.00 569.79,575.00 C572.57,575.00 572.57,575.76 569.79,578.73 C568.93,579.64 568.38,580.18 568.22,580.82 C567.95,581.95 568.94,583.39 571.76,587.74 C573.07,589.75 573.04,590.05 571.46,590.65 C570.22,591.13 568.95,590.40 567.11,588.15 C563.92,584.28 563.22,584.21 562.82,587.74 ZM 393.55 588.55 C392.20,589.90 390.01,591.00 388.68,591.00 C386.19,591.00 381.00,587.57 381.00,585.93 C381.00,584.60 384.68,584.78 387.00,586.23 C388.62,587.24 389.26,587.17 390.58,585.85 C391.90,584.53 391.98,583.83 391.01,582.02 C389.88,579.90 388.92,579.80 385.00,581.38 C382.17,582.51 381.21,580.71 381.74,575.25 L 382.25 570.00 L 388.70 570.00 C394.30,570.00 395.10,570.23 394.81,571.75 C394.57,573.03 393.34,573.58 390.24,573.81 C384.92,574.19 384.14,577.00 389.35,577.00 C395.77,577.00 398.26,583.84 393.55,588.55 ZM 505.00 589.00 C505.00,590.80 504.33,591.00 498.17,591.00 C488.16,591.00 487.91,590.33 495.00,582.50 C497.75,579.46 500.00,576.29 500.00,575.46 C500.00,573.16 497.16,572.55 495.11,574.40 C493.40,575.94 490.00,575.71 490.00,574.05 C490.00,572.09 494.01,570.00 497.77,570.00 C500.89,570.00 502.26,570.54 503.44,572.22 C505.64,575.36 505.45,576.26 501.50,581.43 C499.58,583.95 498.00,586.24 498.00,586.51 C498.00,586.78 499.58,587.00 501.50,587.00 C504.33,587.00 505.00,587.38 505.00,589.00 ZM 522.00 589.00 C522.00,590.80 521.33,591.00 515.47,591.00 C506.87,591.00 506.36,589.63 512.39,582.58 C514.92,579.61 517.00,576.45 517.00,575.56 C517.00,573.11 513.93,572.38 512.40,574.46 C510.93,576.48 508.00,575.88 508.00,573.57 C508.00,571.44 511.21,570.00 515.96,570.00 C519.32,570.00 520.24,570.43 521.16,572.45 C522.53,575.45 521.04,579.68 517.42,583.08 C514.14,586.16 514.37,587.00 518.50,587.00 C521.33,587.00 522.00,587.38 522.00,589.00 ZM 459.83 589.40 C458.58,590.28 456.87,590.99 456.03,590.99 C453.82,590.96 449.73,588.71 449.25,587.25 C448.73,585.67 453.16,585.56 454.71,587.11 C455.32,587.72 456.31,587.92 456.91,587.55 C458.83,586.37 458.08,585.18 455.00,584.50 C452.34,583.92 449.00,580.77 449.00,578.85 C449.00,575.52 458.52,573.51 460.87,576.34 C462.51,578.32 461.10,579.11 457.19,578.38 C452.59,577.51 453.25,579.83 458.04,581.38 C462.44,582.80 463.36,586.93 459.83,589.40 ZM 434.00 422.95 C434.00,423.56 436.32,424.00 439.50,424.00 C443.24,424.00 444.99,423.60 444.98,422.75 C444.96,421.36 440.22,404.89 439.69,404.36 C439.31,403.97 434.00,421.32 434.00,422.95 ZM 428.78 579.74 C428.55,588.49 428.21,590.53 426.95,590.77 C424.33,591.28 424.00,590.01 424.00,579.33 L 424.00 569.00 L 429.07 569.00 ZM 474.52 593.96 C473.76,595.20 472.31,595.32 471.63,594.21 C471.36,593.77 472.74,587.69 474.69,580.71 C477.51,570.65 478.62,568.00 480.00,568.00 C481.57,568.00 481.42,569.20 478.45,580.46 C476.64,587.32 474.88,593.39 474.52,593.96 ZM 404.04 585.07 C406.53,589.73 410.31,585.63 409.81,578.81 C409.42,573.69 406.67,571.44 404.44,574.44 C402.76,576.70 402.55,582.29 404.04,585.07 ZM 437.67 586.33 C439.05,587.72 441.08,586.91 442.15,584.56 C443.66,581.26 442.59,579.00 439.53,579.00 C437.33,579.00 437.00,579.43 437.00,582.33 C437.00,584.17 437.30,585.97 437.67,586.33 ZM 538.39 585.57 C539.42,588.27 543.45,586.92 543.82,583.75 C544.09,581.37 543.78,581.00 541.54,581.00 C538.77,581.00 537.40,582.99 538.39,585.57 ZM 529.96 589.54 C529.30,590.34 528.42,591.00 528.00,591.00 C526.65,591.00 524.81,588.12 525.47,587.04 C525.83,586.47 526.96,586.00 528.00,586.00 C530.50,586.00 531.46,587.74 529.96,589.54 ZM 580.25 582.28 C582.07,582.94 583.00,582.15 583.00,579.94 C583.00,578.67 582.31,578.00 581.00,578.00 C578.76,578.00 578.14,581.53 580.25,582.28 ZM 579.25 593.34 C581.49,594.24 582.73,594.02 584.00,592.50 C585.07,591.21 584.73,591.00 581.62,591.00 C578.09,591.00 576.74,592.33 579.25,593.34 Z" fill="rgba(0,0,0,1)"/>
<path d="M 129.42 554.86 C118.46,547.09 100.61,534.46 89.75,526.80 C78.89,519.15 70.00,512.50 70.00,512.03 C70.00,511.57 88.11,498.26 110.25,482.47 L 150.50 453.75 L 151.50 491.50 L 219.00 492.03 L 219.00 530.97 L 151.50 531.50 L 151.23 550.25 C151.08,560.56 150.59,569.00 150.15,569.00 C149.70,569.00 140.38,562.64 129.42,554.86 ZM 661.00 601.40 C650.22,597.73 643.40,593.56 636.00,586.07 C625.82,575.78 620.57,563.25 619.31,546.25 C618.99,541.92 618.62,539.64 619.58,538.66 C620.76,537.46 623.93,538.20 631.62,539.51 C655.87,543.63 674.19,560.44 679.53,583.49 C682.76,597.41 682.00,597.18 666.56,579.48 C655.39,566.67 652.05,563.44 649.75,563.18 C646.28,562.80 643.99,564.48 644.03,567.37 C644.05,568.65 649.48,575.73 657.55,585.00 C664.97,593.53 671.50,601.29 672.06,602.25 C673.52,604.78 670.20,604.53 661.00,601.40 ZM 701.20 602.25 C729.85,569.07 731.01,567.41 727.80,564.20 C727.14,563.54 725.39,563.00 723.91,563.00 C721.67,563.00 718.79,565.80 706.86,579.57 C697.48,590.40 692.38,595.57 692.16,594.51 C691.55,591.51 695.16,577.59 698.25,571.00 C702.66,561.63 714.29,550.18 724.11,545.55 C732.43,541.62 739.59,539.58 748.75,538.53 L 755.00 537.80 L 755.00 541.27 C755.00,543.18 754.32,548.73 753.49,553.62 C750.55,570.93 739.94,586.93 725.87,595.28 C719.54,599.03 705.82,604.00 701.79,604.00 C699.88,604.00 699.83,603.84 701.20,602.25 Z" fill="rgba(140,179,100,1)"/>
<path d="M 196.93 728.75 C189.93,719.11 176.17,695.46 168.57,680.00 C161.88,666.39 152.00,643.44 152.00,641.49 C152.00,641.22 190.42,641.00 237.38,641.00 L 322.75 641.00 L 316.17 654.06 C310.51,665.27 309.53,668.03 309.17,673.60 C308.64,682.03 310.80,687.82 316.22,692.46 C321.45,696.93 325.81,698.33 332.97,697.81 C338.88,697.38 343.62,695.07 359.74,684.77 C362.02,683.31 363.38,682.32 364.89,681.80 C368.06,680.69 371.93,681.61 386.50,684.40 C421.41,691.08 443.86,693.15 482.00,693.19 C517.46,693.23 548.15,690.18 580.00,683.44 C586.33,682.10 592.24,681.01 593.14,681.01 C594.05,681.00 598.77,683.51 603.64,686.59 C615.07,693.79 620.88,696.74 625.89,697.86 C638.84,700.77 651.32,689.65 651.36,675.15 C651.37,669.23 650.88,667.83 644.30,654.90 L 637.22 641.00 L 681.00 641.00 L 681.00 663.81 L 674.25 665.90 C666.41,668.33 659.06,673.41 655.61,678.75 C651.74,684.76 651.53,686.62 654.39,689.48 C655.78,690.87 657.38,692.00 657.95,692.00 C659.38,692.00 662.15,688.97 664.20,685.17 C667.85,678.39 681.17,673.06 690.87,674.49 C697.90,675.53 704.74,679.73 709.18,685.74 C713.45,691.52 716.37,692.46 719.46,689.04 C721.69,686.58 721.05,683.75 717.02,678.19 C712.10,671.39 704.24,666.58 694.75,664.55 L 692.00 663.96 L 692.00 641.00 L 782.00 641.00 C840.10,641.00 872.00,641.35 872.00,641.98 C872.00,644.08 863.51,664.22 856.61,678.51 C848.41,695.50 842.02,706.68 831.66,722.25 L 824.50 733.00 L 512.26 733.00 L 200.01 733.00 ZM 361.62 710.46 C362.91,708.48 363.05,707.40 362.23,705.59 C361.19,703.32 360.78,703.26 341.62,702.54 C321.41,701.79 305.42,702.50 303.25,704.24 C301.50,705.65 301.69,709.00 303.65,711.17 C305.18,712.86 307.43,713.00 332.63,713.00 L 359.95 713.00 ZM 245.17 673.35 C247.42,671.31 247.54,667.68 245.43,665.57 C244.09,664.23 240.44,664.00 220.95,664.00 L 198.05 664.00 L 196.44 666.45 C194.51,669.40 195.24,672.33 198.27,673.79 C199.63,674.45 208.83,674.89 221.92,674.93 C240.51,674.99 243.58,674.78 245.17,673.35 ZM 826.78 673.44 C829.37,671.63 829.68,667.83 827.43,665.57 C826.09,664.23 822.45,664.00 803.08,664.00 C781.91,664.00 780.19,664.13 778.57,665.92 C777.62,666.97 776.99,668.87 777.17,670.14 C777.78,674.38 780.97,674.97 803.53,674.99 C820.96,675.00 824.94,674.73 826.78,673.44 ZM 260.43 711.67 C261.45,710.93 262.25,709.09 262.25,707.50 C262.25,702.92 259.87,702.00 248.06,702.01 C242.25,702.02 236.50,702.29 235.28,702.62 C231.54,703.63 230.59,709.31 233.76,711.75 C236.07,713.53 257.98,713.47 260.43,711.67 ZM 564.07 711.96 C566.32,710.76 566.70,705.83 564.67,704.14 C562.95,702.71 538.47,702.14 537.18,703.50 C534.99,705.80 534.90,708.90 536.95,710.95 C538.78,712.78 540.24,713.00 550.57,713.00 C556.93,713.00 563.00,712.53 564.07,711.96 ZM 791.43 711.43 C793.26,709.60 793.42,707.65 791.96,704.93 C791.02,703.17 789.76,703.00 777.66,703.00 C768.68,703.00 764.01,703.39 763.20,704.20 C761.51,705.89 761.71,709.02 763.65,711.17 C765.09,712.75 766.96,713.00 777.58,713.00 C787.41,713.00 790.17,712.69 791.43,711.43 ZM 430.53 710.97 C431.98,709.36 432.17,708.37 431.41,706.22 L 430.45 703.50 L 417.62 703.22 C403.91,702.92 402.00,703.45 402.00,707.55 C402.00,712.20 404.18,713.00 416.92,713.00 C427.48,713.00 428.88,712.79 430.53,710.97 ZM 656.63 714.93 C660.01,717.58 662.78,717.55 665.69,714.83 C670.37,710.43 667.59,703.00 661.27,703.00 C656.64,703.00 654.00,705.39 654.00,709.58 C654.00,711.93 654.75,713.44 656.63,714.93 ZM 600.63 714.93 C603.96,717.54 607.43,717.57 610.00,715.00 C614.51,710.49 611.80,703.00 605.66,703.00 C598.84,703.00 595.51,710.90 600.63,714.93 ZM 724.32 669.99 C727.78,671.39 728.93,671.16 731.55,668.55 C734.36,665.73 734.68,662.42 732.44,659.22 C730.53,656.50 724.57,656.18 721.83,658.65 C718.54,661.63 720.00,668.25 724.32,669.99 ZM 722.19 706.96 C725.28,709.84 729.39,709.59 731.93,706.37 C734.55,703.03 734.56,699.98 731.96,697.19 C729.39,694.43 724.66,694.34 722.00,697.00 C719.34,699.66 719.43,704.39 722.19,706.96 ZM 677.63 714.93 C679.08,716.07 681.13,717.00 682.18,717.00 C684.79,717.00 689.00,712.59 689.00,709.86 C689.00,706.56 685.18,703.00 681.65,703.00 C675.07,703.00 672.43,710.83 677.63,714.93 Z" fill="rgba(156,112,77,1)"/>
<path d="M 452.00 647.00 C415.03,644.46 373.39,637.45 344.95,628.98 L 338.40 627.04 L 335.12 610.33 C326.40,566.05 323.54,535.58 323.52,487.00 C323.50,447.91 324.16,436.83 328.56,402.87 C330.81,385.51 337.57,346.10 338.44,345.22 C339.35,344.32 350.59,341.58 364.50,338.63 L 359.89 361.50 C355.09,385.30 349.79,424.13 348.02,448.50 C346.73,466.29 346.74,503.07 348.03,522.50 C349.90,550.65 357.53,604.45 360.05,607.34 C362.90,610.60 417.33,619.67 448.00,621.98 C464.63,623.24 515.03,622.41 531.00,620.62 C559.01,617.49 586.63,612.62 612.15,606.33 C624.19,603.37 626.35,602.80 627.08,600.98 L 626.75 602.89 C623.35,622.60 622.01,627.05 619.13,628.14 C609.25,631.90 568.70,640.35 546.00,643.38 C518.09,647.11 476.76,648.70 452.00,647.00 ZM 326.27 686.52 C322.34,684.81 319.01,679.65 319.00,675.26 C319.00,671.77 335.41,638.00 337.11,638.00 C337.63,638.00 344.23,639.56 351.78,641.47 C384.56,649.76 416.52,654.89 449.00,657.08 C470.34,658.51 511.72,657.75 532.00,655.55 C558.17,652.70 590.63,646.69 613.50,640.46 C618.45,639.11 622.80,638.00 623.16,638.00 C623.53,638.00 626.52,642.84 629.80,648.75 C640.70,668.33 642.81,675.60 639.48,682.03 C637.85,685.19 633.39,688.00 630.02,688.00 C627.26,688.00 619.77,684.16 607.34,676.37 C601.75,672.86 596.28,670.00 595.17,670.00 C594.07,670.00 588.06,671.10 581.83,672.44 C544.52,680.48 524.52,682.48 481.50,682.48 C437.84,682.48 421.60,680.97 384.38,673.46 C374.97,671.56 366.48,670.00 365.51,670.00 C364.54,670.00 359.18,672.87 353.60,676.37 C341.46,683.99 333.71,688.01 331.28,687.96 C330.30,687.94 328.05,687.29 326.27,686.52 ZM 327.52 316.80 C319.49,300.99 318.83,299.24 319.29,295.09 C319.69,291.53 320.57,289.87 323.39,287.28 C326.04,284.85 328.33,283.67 331.61,284.08 C330.50,284.16 330.00,284.83 330.00,286.03 C330.00,293.26 350.23,327.07 355.75,329.07 C356.62,329.38 360.74,328.84 364.91,327.86 C372.04,326.18 380.17,324.56 388.77,323.07 C378.18,325.00 367.28,327.31 355.78,330.04 C346.58,332.22 338.42,334.00 337.65,334.00 C336.84,334.00 332.56,326.75 327.52,316.80 ZM 516.59 326.72 C504.88,325.97 492.85,325.62 480.00,325.63 C459.56,325.64 441.92,326.45 424.54,328.30 C442.14,326.21 456.58,325.60 480.50,325.61 C493.13,325.62 505.00,325.97 516.59,326.72 ZM 473.84 315.18 C460.66,315.27 448.11,315.79 435.71,316.81 C439.39,316.47 443.00,316.17 446.50,315.93 C453.49,315.44 463.22,315.20 473.84,315.18 ZM 540.33 318.25 C528.08,316.89 515.62,316.05 501.77,315.58 C514.44,315.96 526.15,316.61 533.89,317.47 C535.93,317.70 538.08,317.96 540.33,318.25 ZM 613.00 331.93 C610.63,331.42 608.01,330.82 605.28,330.17 C599.72,328.84 594.40,327.61 589.26,326.49 C598.61,328.38 606.98,330.28 613.00,331.93 ZM 627.91 596.15 C628.01,593.47 627.13,591.84 624.63,588.89 C624.57,588.82 624.50,588.74 624.43,588.66 C622.02,585.85 619.01,580.71 616.42,575.32 C619.04,580.76 622.11,585.96 624.63,588.89 L 628.40 593.29 L 627.91 596.15 ZM 626.15 329.42 C624.67,331.98 623.61,333.59 623.30,333.71 C623.17,333.77 622.72,333.74 622.02,333.65 C623.35,333.20 624.56,331.95 626.15,329.42 ZM 639.33 289.80 C642.70,295.67 641.58,299.98 632.68,317.30 C632.24,318.16 631.82,318.98 631.42,319.76 C631.86,318.91 632.32,318.04 632.77,317.15 C641.57,299.95 642.68,295.64 639.33,289.80 ZM 342.15 288.36 C345.17,290.05 348.77,292.27 353.13,295.05 C348.79,292.28 345.15,290.06 342.15,288.36 Z" fill="rgba(213,187,150,1)"/>
<path d="M 448.00 621.98 C417.33,619.67 362.90,610.60 360.05,607.34 C357.53,604.45 349.90,550.65 348.03,522.50 C346.74,503.07 346.73,466.29 348.02,448.50 C349.79,424.13 355.09,385.30 359.89,361.50 L 364.52 338.50 L 377.51 335.82 C413.01,328.48 441.56,325.65 480.00,325.63 C521.77,325.61 554.85,329.30 596.40,338.63 C617.57,343.38 621.77,344.69 622.41,346.77 C623.35,349.86 627.80,375.08 630.38,392.00 C636.19,430.08 638.84,474.95 637.21,507.85 C636.66,519.04 635.82,528.55 635.35,528.98 C634.88,529.42 632.03,529.41 629.00,528.96 C619.61,527.57 611.40,527.82 609.98,529.52 C608.28,531.58 609.28,554.31 611.44,562.50 C613.54,570.49 620.01,583.51 624.43,588.66 C628.06,592.88 628.47,594.41 627.40,599.73 C626.82,602.67 626.56,602.78 612.15,606.33 C586.63,612.62 559.01,617.49 531.00,620.62 C515.03,622.41 464.63,623.24 448.00,621.98 ZM 616.50 332.95 C600.82,328.11 558.80,320.24 533.89,317.47 C513.95,315.26 467.66,314.44 446.50,315.93 C420.11,317.78 387.53,322.54 364.91,327.86 C360.74,328.84 356.62,329.38 355.75,329.07 C350.23,327.07 330.00,293.26 330.00,286.03 C330.00,281.82 336.15,284.22 353.13,295.05 L 364.50 302.31 L 370.50 301.23 C417.79,292.77 428.99,291.36 458.65,290.08 C501.57,288.22 548.37,292.13 587.14,300.80 L 595.79 302.74 L 605.64 296.24 C626.43,282.54 633.96,280.96 639.00,289.23 C642.77,295.41 641.86,299.42 632.68,317.30 C623.70,334.80 623.41,335.08 616.50,332.95 ZM 550.73 519.36 C560.23,514.84 565.00,506.14 565.00,493.36 C565.00,481.18 558.68,470.91 549.12,467.54 C543.49,465.56 533.62,465.57 527.75,467.57 C521.77,469.61 514.58,477.16 512.94,483.13 C510.98,490.22 511.44,500.94 513.93,506.58 C516.54,512.47 519.13,515.39 524.65,518.63 C532.87,523.46 541.60,523.71 550.73,519.36 ZM 540.50 414.50 L 545.91 427.73 C551.47,441.36 552.68,442.82 557.32,441.61 C559.02,441.17 560.70,438.09 565.00,427.54 C568.03,420.11 570.76,414.03 571.08,414.02 C571.40,414.01 571.45,421.22 571.20,430.05 L 570.73 446.10 L 577.12 445.80 L 583.50 445.50 L 584.03 391.92 L 575.89 392.21 L 567.74 392.50 L 561.86 407.43 C558.62,415.64 555.83,422.50 555.66,422.67 C555.49,422.84 552.47,415.78 548.96,406.97 C544.37,395.47 542.18,391.10 541.20,391.48 C540.45,391.76 536.95,392.00 533.42,392.00 L 527.00 392.00 L 527.00 446.10 L 533.25 445.80 L 539.50 445.50 L 540.50 414.50 ZM 472.79 512.25 L 473.08 503.00 L 476.79 503.00 C480.44,503.01 480.58,503.16 485.51,512.25 L 490.51 521.50 L 496.90 521.80 C500.41,521.97 503.89,521.87 504.62,521.59 C505.57,521.23 504.30,518.22 500.09,510.91 L 494.24 500.73 L 497.77 497.63 C502.04,493.88 504.01,489.50 503.98,483.78 C503.94,477.08 500.90,471.51 495.83,468.87 C491.99,466.87 489.66,466.57 475.25,466.19 L 459.00 465.77 L 459.00 493.22 C459.00,508.31 459.32,520.99 459.71,521.38 C460.10,521.77 463.14,521.95 466.46,521.79 L 472.50 521.50 ZM 486.79 436.69 L 487.08 427.88 L 490.65 428.19 C494.00,428.48 494.50,429.01 498.89,437.00 L 503.56 445.50 L 509.92 445.80 C513.42,445.97 516.89,445.87 517.62,445.59 C518.59,445.22 517.44,442.45 513.48,435.59 C510.46,430.38 508.00,425.84 508.00,425.52 C508.00,425.20 509.55,423.58 511.44,421.92 C515.66,418.21 517.38,413.33 516.76,406.81 C516.17,400.70 513.71,397.18 507.98,394.25 C503.97,392.20 502.18,392.00 488.04,392.00 L 472.50 392.00 L 472.78 419.04 L 473.06 446.09 L 479.78 445.79 L 486.50 445.50 ZM 418.79 513.39 L 419.08 505.28 L 427.13 504.73 C440.36,503.82 447.89,498.52 449.50,488.98 C451.00,480.09 447.69,472.44 440.79,468.85 C437.02,466.90 434.58,466.57 420.75,466.19 L 405.00 465.76 L 405.00 493.21 C405.00,508.31 405.32,520.99 405.71,521.38 C406.10,521.77 409.14,521.95 412.46,521.79 L 418.50 521.50 ZM 430.47 435.00 L 448.74 435.00 L 450.20 440.25 L 451.66 445.50 L 457.98 445.80 C461.45,445.97 464.68,445.72 465.14,445.26 C465.60,444.80 461.99,432.74 457.10,418.46 L 448.22 392.50 L 439.71 392.21 L 431.19 391.92 L 429.64 396.21 C428.79,398.57 424.85,410.17 420.89,422.00 C416.94,433.83 413.49,444.08 413.22,444.80 C412.86,445.80 414.42,446.03 420.12,445.80 L 427.49 445.50 L 430.47 435.00 ZM 391.07 425.07 L 412.50 424.50 L 412.80 419.25 L 413.10 414.00 L 391.00 414.00 L 391.00 403.06 L 414.50 402.50 L 414.80 397.25 L 415.10 392.00 L 377.00 392.00 L 377.00 446.09 L 390.50 445.50 L 391.07 425.07 ZM 535.64 509.96 C529.62,508.18 526.00,502.43 526.00,494.66 C526.00,487.72 527.05,484.16 530.03,480.96 C532.45,478.38 533.50,478.00 538.26,478.00 C542.83,478.00 544.16,478.43 546.35,480.62 C551.16,485.43 552.38,495.36 549.06,502.67 C546.28,508.79 541.13,511.59 535.64,509.96 ZM 410.94 589.25 C415.02,585.95 415.57,575.80 411.92,571.40 C411.25,570.60 408.92,570.00 406.43,570.00 C400.74,570.00 399.00,572.40 399.00,580.27 C399.00,585.12 399.41,586.50 401.45,588.55 C404.34,591.43 407.92,591.70 410.94,589.25 ZM 435.80 589.80 C436.73,588.87 437.27,588.87 438.20,589.80 C441.42,593.02 447.00,588.20 447.00,582.20 C447.00,577.25 444.34,574.58 440.04,575.21 C437.17,575.63 437.00,575.46 437.00,572.33 C437.00,569.44 436.67,569.00 434.50,569.00 L 432.00 569.00 L 432.00 579.33 C432.00,590.95 432.70,592.90 435.80,589.80 ZM 419.75 493.43 C419.34,493.01 419.00,489.37 419.00,485.33 L 419.00 478.00 L 425.88 478.00 C433.55,478.00 434.77,478.78 435.65,484.24 C436.52,489.62 432.88,493.18 425.92,493.75 C422.94,493.99 420.16,493.85 419.75,493.43 ZM 586.78 594.44 C591.28,591.29 588.57,587.00 582.07,587.00 C580.38,587.00 579.00,586.55 579.00,586.00 C579.00,585.45 580.34,585.00 581.98,585.00 C585.82,585.00 588.97,580.79 587.23,577.99 C586.34,576.57 586.41,576.06 587.55,575.62 C589.90,574.72 589.21,573.00 586.50,573.00 C585.12,573.00 584.00,573.45 584.00,574.00 C584.00,574.55 582.85,575.00 581.43,575.00 C577.55,575.00 575.00,576.78 575.00,579.48 C575.00,580.80 575.47,582.17 576.05,582.53 C576.77,582.98 576.75,583.60 575.98,584.53 C575.36,585.27 574.96,586.70 575.08,587.69 C575.21,588.69 574.94,590.35 574.49,591.39 C572.74,595.46 582.03,597.77 586.78,594.44 ZM 544.93 589.53 C552.14,585.81 548.29,575.45 540.43,577.43 C537.60,578.14 537.06,576.03 539.53,573.97 C540.78,572.94 541.54,572.95 543.55,574.03 C545.41,575.02 546.33,575.07 547.18,574.22 C549.22,572.18 546.21,570.00 541.36,570.00 C537.48,570.00 536.74,570.38 534.99,573.25 C531.44,579.06 532.93,587.14 538.02,589.72 C541.17,591.31 541.52,591.30 544.93,589.53 ZM 473.00 478.00 L 479.94 478.00 C485.98,478.00 487.09,478.29 488.44,480.22 C490.52,483.18 490.41,486.27 488.13,489.08 C486.61,490.97 485.05,491.47 479.63,491.81 L 473.00 492.23 L 473.00 478.00 ZM 486.50 403.00 L 493.18 403.00 C500.93,403.00 503.00,404.37 503.00,409.50 C503.00,414.36 499.29,417.00 492.45,417.00 L 487.16 417.00 L 486.50 403.00 ZM 562.82 587.74 C563.22,584.21 563.92,584.28 567.11,588.15 C568.95,590.40 570.22,591.13 571.46,590.65 C573.04,590.05 573.07,589.75 571.76,587.74 C568.94,583.39 567.95,581.95 568.22,580.82 C568.38,580.18 568.93,579.64 569.79,578.73 C572.57,575.76 572.57,575.00 569.79,575.00 C568.57,575.00 566.56,576.24 565.32,577.75 L 563.07 580.50 L 563.04 574.75 C563.00,569.29 562.87,569.00 560.50,569.00 L 558.00 569.00 L 558.00 579.33 C558.00,585.02 558.32,589.98 558.70,590.37 C560.18,591.85 562.51,590.36 562.82,587.74 ZM 393.55 588.55 C398.26,583.84 395.77,577.00 389.35,577.00 C384.14,577.00 384.92,574.19 390.24,573.81 C393.34,573.58 394.57,573.03 394.81,571.75 C395.10,570.23 394.30,570.00 388.70,570.00 L 382.25 570.00 L 381.74 575.25 C381.21,580.71 382.17,582.51 385.00,581.38 C388.92,579.80 389.88,579.90 391.01,582.02 C391.98,583.83 391.90,584.53 390.58,585.85 C389.26,587.17 388.62,587.24 387.00,586.23 C384.68,584.78 381.00,584.60 381.00,585.93 C381.00,587.57 386.19,591.00 388.68,591.00 C390.01,591.00 392.20,589.90 393.55,588.55 ZM 505.00 589.00 C505.00,587.38 504.33,587.00 501.50,587.00 C499.58,587.00 498.00,586.78 498.00,586.51 C498.00,586.24 499.58,583.95 501.50,581.43 C505.45,576.26 505.64,575.36 503.44,572.22 C502.26,570.54 500.89,570.00 497.77,570.00 C494.01,570.00 490.00,572.09 490.00,574.05 C490.00,575.71 493.40,575.94 495.11,574.40 C497.16,572.55 500.00,573.16 500.00,575.46 C500.00,576.29 497.75,579.46 495.00,582.50 C487.91,590.33 488.16,591.00 498.17,591.00 C504.33,591.00 505.00,590.80 505.00,589.00 ZM 522.00 589.00 C522.00,587.38 521.33,587.00 518.50,587.00 C514.37,587.00 514.14,586.16 517.42,583.08 C521.04,579.68 522.53,575.45 521.16,572.45 C520.24,570.43 519.32,570.00 515.96,570.00 C511.21,570.00 508.00,571.44 508.00,573.57 C508.00,575.88 510.93,576.48 512.40,574.46 C513.93,572.38 517.00,573.11 517.00,575.56 C517.00,576.45 514.92,579.61 512.39,582.58 C506.36,589.63 506.87,591.00 515.47,591.00 C521.33,591.00 522.00,590.80 522.00,589.00 ZM 459.83 589.40 C463.36,586.93 462.44,582.80 458.04,581.38 C453.25,579.83 452.59,577.51 457.19,578.38 C461.10,579.11 462.51,578.32 460.87,576.34 C458.52,573.51 449.00,575.52 449.00,578.85 C449.00,580.77 452.34,583.92 455.00,584.50 C458.08,585.18 458.83,586.37 456.91,587.55 C456.31,587.92 455.32,587.72 454.71,587.11 C453.16,585.56 448.73,585.67 449.25,587.25 C449.73,588.71 453.82,590.96 456.03,590.99 C456.87,590.99 458.58,590.28 459.83,589.40 ZM 434.00 422.95 C434.00,421.32 439.31,403.97 439.69,404.36 C440.22,404.89 444.96,421.36 444.98,422.75 C444.99,423.60 443.24,424.00 439.50,424.00 C436.32,424.00 434.00,423.56 434.00,422.95 ZM 428.78 579.74 L 429.07 569.00 L 424.00 569.00 L 424.00 579.33 C424.00,590.01 424.33,591.28 426.95,590.77 C428.21,590.53 428.55,588.49 428.78,579.74 ZM 474.52 593.96 C474.88,593.39 476.64,587.32 478.45,580.46 C481.42,569.20 481.57,568.00 480.00,568.00 C478.62,568.00 477.51,570.65 474.69,580.71 C472.74,587.69 471.36,593.77 471.63,594.21 C472.31,595.32 473.76,595.20 474.52,593.96 ZM 404.04 585.07 C402.55,582.29 402.76,576.70 404.44,574.44 C406.67,571.44 409.42,573.69 409.81,578.81 C410.31,585.63 406.53,589.73 404.04,585.07 ZM 437.67 586.33 C437.30,585.97 437.00,584.17 437.00,582.33 C437.00,579.43 437.33,579.00 439.53,579.00 C442.59,579.00 443.66,581.26 442.15,584.56 C441.08,586.91 439.05,587.72 437.67,586.33 ZM 538.39 585.57 C537.40,582.99 538.77,581.00 541.54,581.00 C543.78,581.00 544.09,581.37 543.82,583.75 C543.45,586.92 539.42,588.27 538.39,585.57 ZM 529.96 589.54 C531.46,587.74 530.50,586.00 528.00,586.00 C526.96,586.00 525.83,586.47 525.47,587.04 C524.81,588.12 526.65,591.00 528.00,591.00 C528.42,591.00 529.30,590.34 529.96,589.54 ZM 580.25 582.28 C578.14,581.53 578.76,578.00 581.00,578.00 C582.31,578.00 583.00,578.67 583.00,579.94 C583.00,582.15 582.07,582.94 580.25,582.28 ZM 579.25 593.34 C576.74,592.33 578.09,591.00 581.62,591.00 C584.73,591.00 585.07,591.21 584.00,592.50 C582.73,594.02 581.49,594.24 579.25,593.34 Z" fill="rgba(236,211,175,1)"/>
<path d="M 600.63 714.93 C595.51,710.90 598.84,703.00 605.66,703.00 C611.80,703.00 614.51,710.49 610.00,715.00 C607.43,717.57 603.96,717.54 600.63,714.93 ZM 656.63 714.93 C654.75,713.44 654.00,711.93 654.00,709.58 C654.00,705.39 656.64,703.00 661.27,703.00 C667.59,703.00 670.37,710.43 665.69,714.83 C662.78,717.55 660.01,717.58 656.63,714.93 ZM 677.63 714.93 C672.43,710.83 675.07,703.00 681.65,703.00 C685.18,703.00 689.00,706.56 689.00,709.86 C689.00,712.59 684.79,717.00 682.18,717.00 C681.13,717.00 679.08,716.07 677.63,714.93 ZM 722.19 706.96 C719.43,704.39 719.34,699.66 722.00,697.00 C724.66,694.34 729.39,694.43 731.96,697.19 C734.56,699.98 734.55,703.03 731.93,706.37 C729.39,709.59 725.28,709.84 722.19,706.96 ZM 724.32 669.99 C720.00,668.25 718.54,661.63 721.83,658.65 C724.57,656.18 730.53,656.50 732.44,659.22 C734.68,662.42 734.36,665.73 731.55,668.55 C728.93,671.16 727.78,671.39 724.32,669.99 Z" fill="rgba(253,252,251,1)"/>
</g>
</svg>