<svg xmlns="http://www.w3.org/2000/svg" width="1024" height="1024" viewBox="0 0 1024 1024">
<g>
<path d="M 264.50 652.00 C264.16,651.45 264.16,650.55 264.50,650.00 C264.90,649.35 283.58,649.00 317.25,649.00 L 369.39 649.00 L 364.90 646.15 C358.14,641.86 352.97,634.81 350.61,626.63 L 349.42 622.50 L 343.72 622.20 C338.61,621.93 337.95,621.64 337.40,619.45 C336.79,617.02 336.70,617.00 324.46,617.00 C312.44,617.00 312.13,617.06 311.82,619.25 C311.52,621.34 311.00,621.50 304.50,621.50 L 297.50 621.50 L 297.50 600.50 L 303.19 600.20 C308.79,599.91 308.89,599.85 309.19,596.70 L 309.50 593.50 L 324.50 592.50 L 324.83 579.00 L 296.42 579.00 L 285.21 569.82 C277.50,563.50 274.00,559.98 274.00,558.57 C274.00,557.43 278.01,546.60 282.91,534.50 C289.11,519.18 291.46,512.28 290.65,511.77 C290.02,511.36 278.81,511.02 265.75,511.02 C245.79,511.00 242.00,510.77 242.00,509.57 C242.00,507.65 264.04,488.09 299.54,458.49 C315.51,445.18 330.54,431.94 332.93,429.08 C335.33,426.22 339.47,422.63 342.13,421.11 L 346.96 418.35 L 343.57 415.06 C341.70,413.26 339.95,410.92 339.68,409.87 C339.01,407.31 341.51,405.00 344.95,405.00 C346.92,405.00 347.92,404.40 348.29,403.01 C349.01,400.24 351.65,399.47 355.55,400.88 C361.34,402.98 362.93,401.78 370.88,389.38 C401.82,341.07 424.37,315.99 447.19,304.53 C459.34,298.42 464.14,297.97 478.56,301.54 L 489.86 304.33 L 495.68 302.24 C498.88,301.09 505.33,298.77 510.00,297.09 C524.62,291.82 535.26,292.94 549.21,301.20 C557.57,306.15 561.71,306.74 572.49,304.47 C582.54,302.36 588.31,303.19 596.50,307.92 C608.35,314.76 616.09,324.17 632.34,351.48 C644.11,371.25 646.98,374.72 655.91,379.97 C662.78,384.00 667.24,388.20 673.27,396.29 C677.12,401.45 677.46,401.42 678.52,395.73 C678.91,393.67 679.61,391.74 680.08,391.45 C681.45,390.60 692.00,394.03 691.99,395.32 C691.98,395.97 691.31,398.98 690.50,402.00 C688.36,409.98 688.53,410.91 692.47,412.55 C698.11,414.91 698.65,414.56 701.27,406.75 C703.57,399.91 703.88,399.51 706.61,399.63 C708.20,399.69 711.19,400.46 713.24,401.32 L 716.99 402.89 L 713.97 411.09 C712.31,415.59 711.07,419.37 711.22,419.48 C711.38,419.59 713.42,420.42 715.76,421.33 L 720.03 422.99 L 722.41 417.60 C723.73,414.63 725.10,411.25 725.47,410.10 C725.83,408.94 726.74,408.00 727.48,408.00 C730.37,408.00 738.00,411.99 738.00,413.49 C738.00,414.36 736.84,417.82 735.42,421.19 C733.18,426.50 733.04,427.44 734.35,428.18 C735.68,428.92 735.61,429.76 733.81,435.09 C731.94,440.65 731.56,441.11 729.36,440.55 C727.25,440.02 726.71,440.51 724.99,444.53 L 723.02 449.11 L 753.13 478.95 C770.65,496.31 782.96,509.26 782.56,509.90 C782.10,510.65 774.23,511.00 757.69,511.01 C744.39,511.02 732.49,511.30 731.25,511.63 L 729.00 512.23 L 731.11 515.99 C732.67,518.75 734.80,520.49 739.22,522.61 C746.05,525.87 749.47,529.41 750.96,534.78 C751.55,536.90 751.99,549.78 751.99,564.75 L 752.00 591.00 L 754.30 591.00 C758.49,591.00 759.00,592.64 759.00,606.08 C759.00,616.69 758.73,618.98 757.34,620.13 C756.00,621.23 749.01,621.50 721.67,621.50 L 687.66 621.50 L 686.51 626.59 C685.88,629.39 684.35,633.31 683.12,635.30 C680.82,639.03 671.47,648.00 669.89,648.00 C669.40,648.00 669.00,648.34 669.00,648.75 C669.00,649.16 683.06,649.50 700.25,649.50 C727.36,649.50 731.50,649.70 731.50,651.00 C731.50,652.33 704.81,652.53 498.31,652.75 C343.33,652.92 264.91,652.67 264.50,652.00 ZM 475.50 830.55 C392.60,821.35 320.00,786.83 261.94,729.00 C214.75,682.00 183.48,627.21 166.93,562.50 C164.42,552.72 162.33,544.49 162.06,543.35 C162.38,543.23 163.92,541.92 165.75,540.18 C167.81,538.23 174.29,532.78 180.15,528.07 C185.31,523.92 191.04,519.24 196.62,514.66 C192.96,517.77 190.41,520.01 189.98,520.52 C188.79,521.96 188.85,523.69 190.36,532.62 C211.44,657.24 306.66,760.53 430.33,792.94 C469.18,803.13 515.56,805.97 554.35,800.56 C630.14,789.98 693.63,757.55 747.53,701.89 C786.93,661.20 814.74,610.79 828.86,554.50 C832.21,541.13 835.00,527.01 835.00,523.43 C835.00,521.59 831.09,517.86 817.25,506.49 C807.49,498.46 799.37,491.53 799.21,491.08 C799.05,490.63 806.99,483.56 816.86,475.38 C826.73,467.20 835.03,460.01 835.31,459.41 C835.59,458.81 835.22,452.73 834.50,445.91 C826.51,370.34 792.51,301.77 736.45,248.19 C687.03,200.94 624.65,170.50 556.90,160.56 C531.67,156.86 492.25,156.86 467.16,160.56 C397.19,170.88 335.83,201.08 285.71,249.88 C265.34,269.71 249.78,288.88 235.84,311.32 C208.65,355.08 194.20,398.50 188.47,453.58 L 187.84 459.66 L 204.17 473.20 C212.47,480.08 217.44,484.27 220.29,486.94 C214.61,481.80 200.63,470.28 167.50,442.88 C148.32,427.02 140.98,421.04 137.87,418.98 C140.55,420.69 145.58,424.60 152.44,430.33 C156.81,433.97 160.49,436.85 160.62,436.71 C160.75,436.58 161.84,430.41 163.04,423.00 C175.26,347.30 215.52,273.27 272.22,222.27 C332.22,168.29 399.45,138.17 478.00,130.08 C541.89,123.49 608.46,135.61 667.50,164.58 C748.51,204.33 812.42,274.84 843.92,359.23 C851.71,380.11 858.91,408.42 861.55,428.62 C862.65,436.98 862.87,436.99 872.63,428.86 C881.98,421.09 887.41,417.00 888.40,417.00 C888.73,417.00 889.00,426.01 889.00,437.02 L 889.00 457.03 L 934.50 456.35 L 980.00 455.68 L 980.00 525.00 L 889.00 525.00 L 889.00 544.50 C889.00,555.81 888.61,564.00 888.07,564.00 C887.56,564.00 881.68,559.50 875.00,554.00 C868.32,548.50 862.53,544.00 862.13,544.00 C861.73,544.00 859.92,550.41 858.09,558.25 C830.87,675.24 742.22,773.50 628.56,812.64 C609.78,819.10 583.13,825.65 563.50,828.61 C548.87,830.82 542.38,831.23 517.00,831.53 C496.85,831.77 483.70,831.46 475.50,830.55 ZM 288.25 567.43 L 298.50 575.99 L 439.25 575.99 C516.66,576.00 580.00,575.89 580.01,575.75 C580.03,575.42 592.83,500.38 597.67,472.27 L 601.50 450.04 L 621.00 449.77 L 640.50 449.50 L 641.10 439.00 L 588.36 439.00 L 571.34 469.50 L 313.67 470.50 L 307.76 484.50 C297.17,509.58 278.00,556.84 278.00,557.87 C278.00,558.42 282.61,562.72 288.25,567.43 ZM 595.85 507.52 C596.17,507.83 598.24,507.96 600.46,507.80 L 604.50 507.50 L 605.00 489.00 C605.41,473.86 605.82,469.91 607.27,467.27 C607.93,466.06 608.46,465.09 609.19,464.30 C612.33,460.91 619.19,460.96 655.84,461.22 L 696.66 461.50 L 700.25 464.24 C702.41,465.89 705.91,470.66 709.05,476.24 C711.92,481.33 717.17,490.56 720.71,496.75 L 727.16 508.00 L 751.02 508.00 C764.14,508.00 775.11,507.62 775.40,507.17 C775.68,506.71 767.72,498.22 757.71,488.31 C747.69,478.40 736.00,466.63 731.73,462.15 C727.45,457.67 723.38,454.00 722.68,454.00 C721.97,454.00 720.41,456.02 719.21,458.50 C718.01,460.98 716.46,462.99 715.76,462.98 C713.12,462.93 706.00,459.03 706.00,457.63 C706.00,456.83 706.88,454.12 707.95,451.62 L 709.90 447.07 L 707.05 445.03 C705.48,443.91 703.79,443.00 703.30,443.00 C702.81,443.00 701.56,445.52 700.51,448.61 C699.46,451.69 698.03,454.43 697.33,454.70 C695.97,455.23 687.25,452.21 686.46,450.94 C686.20,450.52 687.29,446.43 688.88,441.84 C692.07,432.62 693.08,429.76 692.07,428.25 C691.60,427.55 690.71,427.14 689.41,426.52 C687.45,425.59 685.69,424.98 685.51,425.16 C685.33,425.35 683.97,430.00 682.48,435.50 C680.09,444.32 679.35,447.47 677.64,448.15 C676.58,448.57 675.15,448.06 672.74,447.35 C669.86,446.51 667.16,445.50 666.75,445.11 C666.34,444.72 667.51,439.03 669.35,432.45 L 672.70 420.50 L 670.35 419.22 C667.72,417.78 667.47,415.38 669.41,410.03 C670.20,407.82 671.49,406.36 672.92,406.02 C675.15,405.49 675.13,405.41 671.46,399.99 C665.90,391.78 662.32,388.31 653.49,382.56 C643.64,376.16 642.24,374.51 631.95,357.28 C614.11,327.41 606.84,318.22 595.95,311.79 C587.77,306.95 582.95,306.28 572.37,308.50 C561.65,310.75 557.54,310.14 548.96,305.05 C539.37,299.35 534.98,298.00 526.12,298.02 C520.45,298.04 516.71,298.70 511.50,300.62 C507.65,302.03 501.24,304.35 497.26,305.76 L 490.02 308.33 L 480.08 305.67 C468.16,302.47 463.85,302.36 455.96,305.01 C444.74,308.79 436.32,314.70 422.45,328.50 C408.09,342.80 397.09,356.90 379.20,384.00 C370.59,397.05 367.70,402.21 367.84,404.31 C367.95,405.85 367.13,409.17 366.02,411.69 C364.91,414.20 364.00,416.36 364.00,416.50 C364.00,416.63 365.69,417.02 367.75,417.35 C369.81,417.68 373.13,418.78 375.11,419.80 L 378.72 421.64 L 385.11 413.60 C388.63,409.18 392.69,404.90 394.15,404.08 C396.53,402.75 397.20,402.79 400.88,404.44 C404.89,406.26 405.04,406.25 410.11,404.14 C416.86,401.34 418.08,401.43 421.48,404.98 L 424.33 407.96 L 427.66 404.73 C429.48,402.95 430.98,400.88 430.99,400.13 C431.00,399.38 429.65,397.23 428.00,395.35 C426.35,393.47 425.00,391.36 425.00,390.67 C425.00,388.61 427.21,387.00 430.05,387.00 C432.21,387.00 432.99,386.26 434.27,383.00 C435.51,379.84 436.36,379.00 438.30,379.00 C439.65,379.00 441.32,379.68 442.01,380.52 C442.90,381.59 444.78,381.95 448.39,381.77 L 453.50 381.50 L 453.81 385.19 C453.98,387.22 453.41,390.25 452.54,391.92 C450.99,394.92 451.00,394.96 453.74,395.55 C461.96,397.31 465.71,399.47 472.50,406.36 C476.35,410.26 479.95,413.30 480.50,413.10 C481.05,412.90 484.20,412.46 487.50,412.12 C493.86,411.46 494.03,411.25 492.64,405.69 C492.30,404.34 492.64,402.51 493.43,401.43 C494.69,399.70 495.15,399.65 498.51,400.87 C501.19,401.84 502.50,401.90 503.30,401.10 C503.90,400.50 505.65,400.00 507.17,400.00 C509.46,400.00 510.09,400.57 510.78,403.25 C511.31,405.27 512.36,406.63 513.56,406.86 C516.91,407.48 518.21,409.20 517.61,412.19 C517.16,414.43 517.41,415.00 518.83,415.00 C521.48,415.00 530.33,419.66 532.92,422.42 L 535.18 424.82 L 540.34 422.42 C543.18,421.10 546.06,420.02 546.75,420.01 C548.47,420.00 548.36,419.63 545.46,415.34 C541.81,409.96 542.45,407.58 547.64,407.20 C550.18,407.01 552.47,406.14 553.55,404.95 C554.52,403.88 556.30,403.00 557.50,403.00 C558.70,403.00 560.48,403.88 561.45,404.95 C562.53,406.14 564.82,407.01 567.36,407.20 C571.02,407.46 571.54,407.81 571.81,410.18 C572.03,412.11 571.13,413.96 568.57,416.79 L 565.03 420.71 L 569.02 422.51 C573.75,424.64 581.65,432.75 582.57,436.41 C583.34,439.50 584.62,439.76 585.50,437.00 C586.12,435.06 587.01,435.00 614.95,435.00 L 643.77 435.00 L 644.37 437.25 C645.34,440.87 645.09,449.96 643.96,452.07 C643.00,453.88 641.69,454.00 623.59,454.00 L 604.25 454.00 L 602.63 464.25 C601.73,469.89 599.71,481.80 598.14,490.72 C596.56,499.64 595.53,507.20 595.85,507.52 ZM 701.71 606.28 C701.95,606.71 708.08,606.93 715.33,606.78 L 728.50 606.50 L 729.50 591.50 L 748.00 590.92 L 748.00 576.00 L 743.55 576.00 C733.91,576.00 731.00,572.33 731.00,560.16 C731.00,549.41 732.31,547.77 741.37,547.19 L 748.00 546.77 L 748.00 540.83 C748.00,532.60 746.37,530.03 738.71,526.18 C735.16,524.40 731.58,522.16 730.76,521.22 C729.95,520.27 723.83,509.83 717.18,498.00 C700.70,468.70 700.50,468.37 697.36,466.31 C694.80,464.64 691.55,464.50 654.71,464.50 L 614.84 464.50 L 609.00 471.03 L 609.00 568.00 L 625.79 568.00 L 626.54 553.25 C626.94,545.14 627.04,524.44 626.75,507.25 C626.24,477.08 626.28,476.00 628.11,476.00 C629.94,476.00 630.00,477.55 630.00,522.00 L 630.00 568.00 L 645.75 568.01 C667.93,568.03 676.03,570.50 686.92,580.59 C692.65,585.89 697.60,593.80 700.01,601.50 C700.70,603.70 701.46,605.85 701.71,606.28 ZM 636.00 647.25 C634.62,646.34 631.42,643.50 628.87,640.93 C624.71,636.73 623.17,633.83 619.50,623.25 C619.22,622.46 617.07,622.00 613.60,622.00 C608.70,622.00 608.11,621.77 607.82,619.75 C607.53,617.73 606.86,617.47 601.37,617.21 C595.40,616.92 595.22,616.98 594.54,619.70 C594.22,620.96 594.02,621.93 593.49,622.66 C591.77,625.07 586.57,625.00 562.45,625.00 C530.61,625.00 530.00,624.89 530.00,619.43 L 530.00 617.00 L 430.14 617.00 L 429.82 619.25 C429.54,621.22 428.78,621.56 423.60,622.00 C417.72,622.50 417.71,622.51 416.52,626.50 C413.96,635.15 409.17,641.67 402.07,646.17 L 397.61 649.00 L 518.05 648.95 C630.21,648.90 638.33,648.78 636.00,647.25 ZM 718.12 532.25 L 717.05 535.00 L 692.64 535.00 L 688.22 530.25 L 683.80 525.50 L 661.66 525.18 C648.16,524.98 639.04,524.45 638.27,523.81 C636.35,522.22 636.45,475.70 638.37,474.11 C639.34,473.30 647.49,473.04 666.08,473.23 L 692.42 473.50 L 695.30 477.50 C696.89,479.70 702.70,489.60 708.22,499.50 C717.13,515.49 718.30,518.17 718.72,523.50 C718.98,526.80 718.71,530.74 718.12,532.25 ZM 418.40 588.74 L 422.31 593.00 L 476.15 593.00 C528.81,593.00 530.00,592.96 530.00,591.06 C530.00,587.22 533.66,586.00 545.19,586.00 C554.91,586.00 556.03,585.81 557.00,584.00 C557.82,582.47 559.09,582.00 562.42,582.00 C565.93,582.00 566.87,582.39 567.29,584.00 C567.78,585.86 568.65,586.00 579.58,586.00 C592.06,586.00 595.00,586.98 595.00,591.15 C595.00,592.82 595.94,593.00 604.88,593.00 L 614.76 593.00 L 624.15 582.00 L 605.00 582.00 L 605.00 525.00 L 598.57 525.00 C593.30,525.00 592.04,525.32 591.63,526.75 C591.35,527.71 589.49,538.85 587.50,551.50 C585.51,564.15 583.67,575.51 583.42,576.75 L 582.96 579.00 L 495.23 579.01 L 407.50 579.02 L 411.00 581.75 C412.92,583.26 416.26,586.40 418.40,588.74 ZM 351.48 560.42 C349.59,561.66 346.21,562.00 335.67,562.00 C323.63,562.00 322.00,561.79 319.63,559.93 C317.94,558.60 317.00,556.88 317.00,555.14 C317.00,553.65 318.97,542.09 321.39,529.46 C323.80,516.83 326.56,502.07 327.52,496.65 C328.77,489.61 329.92,486.04 331.55,484.15 C333.79,481.54 334.05,481.49 348.38,481.18 C362.82,480.86 362.97,480.87 365.47,483.38 C366.86,484.77 368.00,486.82 368.00,487.93 C368.00,490.58 356.21,551.57 354.91,555.67 C354.35,557.41 352.81,559.55 351.48,560.42 ZM 460.41 558.92 L 457.82 562.00 L 443.66 561.97 C435.87,561.95 428.72,561.48 427.76,560.93 C423.71,558.56 423.77,557.16 429.41,527.29 C432.40,511.46 435.16,496.25 435.55,493.50 C437.19,481.96 439.51,480.71 458.48,481.17 C473.66,481.54 475.00,482.13 475.00,488.44 C475.00,490.12 472.30,505.65 469.00,522.95 C465.70,540.24 463.00,554.72 463.00,555.12 C463.00,555.52 461.83,557.23 460.41,558.92 ZM 405.04 560.98 C402.21,562.50 375.78,562.30 373.73,560.75 C370.44,558.26 370.26,555.13 372.66,542.60 C373.94,535.94 376.82,520.60 379.08,508.50 C382.08,492.37 382.96,485.89 386.61,483.22 C389.41,481.18 393.83,481.37 402.08,481.17 C417.01,480.83 420.09,481.57 421.45,485.85 C422.09,487.87 409.45,555.28 407.88,558.22 C407.37,559.17 406.09,560.41 405.04,560.98 ZM 567.50 559.59 C565.18,561.91 564.58,562.00 550.72,562.00 C536.99,562.00 536.25,561.90 534.17,559.69 C532.98,558.41 532.00,556.27 532.00,554.93 C532.00,553.58 534.92,537.43 538.50,519.03 C543.67,492.36 545.40,485.15 547.02,483.53 C548.84,481.71 550.55,481.47 563.30,481.18 C576.62,480.88 577.73,481.00 580.28,483.00 C581.77,484.18 583.00,486.04 583.00,487.13 C583.00,488.74 572.27,546.56 570.44,554.84 C570.15,556.12 568.83,558.26 567.50,559.59 ZM 513.59 559.68 C511.04,561.87 510.10,562.00 496.90,562.00 C483.38,562.00 482.83,561.92 480.45,559.55 C479.10,558.20 478.00,556.61 478.00,556.02 C478.00,553.16 491.05,486.77 491.94,485.11 C493.59,482.04 498.53,481.00 511.51,481.00 C522.36,481.00 524.03,481.23 526.37,483.07 C528.24,484.55 528.99,486.06 528.97,488.32 C528.95,490.07 526.09,506.32 522.61,524.43 C516.70,555.24 516.12,557.50 513.59,559.68 ZM 645.00 647.06 C649.91,648.57 659.80,648.05 665.26,646.01 C671.39,643.71 677.99,637.81 681.24,631.72 C683.12,628.19 683.49,625.94 683.49,618.00 C683.49,606.98 682.01,603.25 674.83,596.30 C668.67,590.34 663.04,588.05 654.43,588.02 C645.47,587.99 639.32,590.09 633.61,595.11 C626.85,601.06 623.49,608.67 623.52,618.00 C623.56,632.11 631.58,642.97 645.00,647.06 ZM 374.36 646.97 C380.15,648.75 391.95,647.61 397.62,644.71 C419.59,633.49 419.12,602.10 396.81,590.37 C394.69,589.26 390.40,588.48 384.90,588.20 C374.84,587.70 369.94,589.35 363.05,595.57 C355.01,602.84 351.15,615.51 353.90,625.66 C356.34,634.66 365.55,644.25 374.36,646.97 ZM 321.67 466.28 C322.01,466.83 324.46,466.98 327.39,466.63 C330.20,466.29 345.87,466.01 362.21,466.01 L 391.92 466.00 L 393.01 461.75 C393.61,459.41 394.56,456.31 395.13,454.85 C396.41,451.55 394.52,447.47 390.22,444.31 C388.32,442.91 387.01,440.86 386.59,438.63 C385.73,434.07 378.08,425.58 372.08,422.54 C366.61,419.77 358.00,418.17 358.00,419.92 C358.00,420.55 358.65,422.61 359.44,424.51 C360.34,426.68 360.51,428.18 359.90,428.56 C358.38,429.50 356.20,427.19 355.47,423.86 C355.11,422.21 354.22,420.64 353.50,420.36 C351.12,419.45 341.30,424.95 337.03,429.58 C332.05,434.99 330.48,438.50 329.53,446.42 C328.97,451.05 328.19,452.97 325.94,455.21 C323.04,458.12 320.57,464.50 321.67,466.28 ZM 471.53 463.25 L 472.22 466.00 L 515.00 466.00 L 515.00 463.60 C515.00,462.28 516.34,458.65 517.98,455.53 C519.14,453.33 519.86,451.98 520.22,450.55 C520.80,448.19 520.40,445.58 519.35,438.50 C519.03,436.30 517.94,432.87 516.93,430.89 C514.95,426.97 505.59,418.00 503.49,418.00 C502.78,418.00 501.73,419.35 501.15,421.00 C499.85,424.74 496.46,425.27 497.39,421.59 C497.72,420.27 498.26,418.49 498.59,417.63 C499.40,415.52 495.35,414.60 488.09,415.26 C480.73,415.93 474.43,419.15 471.81,423.60 C470.68,425.52 468.06,427.95 466.00,429.00 C462.25,430.91 457.00,436.26 457.00,438.17 C457.00,438.73 458.56,441.01 460.47,443.24 C462.38,445.47 464.47,448.91 465.12,450.90 C465.77,452.88 467.33,455.85 468.57,457.50 C469.82,459.15 471.15,461.74 471.53,463.25 ZM 689.32 527.00 L 694.50 532.00 L 714.50 531.50 L 714.80 525.24 C715.09,519.01 715.05,518.90 706.43,503.74 C701.67,495.36 696.40,486.02 694.72,483.00 C693.04,479.98 691.55,477.34 691.41,477.15 C691.26,476.96 683.23,476.67 673.55,476.51 L 655.96 476.21 L 656.23 498.85 L 656.50 521.50 L 665.50 521.74 L 674.50 521.97 L 679.90 514.99 C682.87,511.14 685.90,508.00 686.65,508.00 C688.88,508.00 688.22,509.54 683.50,515.34 C681.03,518.38 679.00,521.12 679.00,521.43 C679.00,521.74 680.16,522.00 681.57,522.00 C683.31,522.00 685.84,523.64 689.32,527.00 ZM 536.58 557.09 C538.10,558.77 539.77,559.00 550.54,559.00 C560.75,559.00 563.12,558.71 564.82,557.25 C566.48,555.82 567.79,550.54 571.92,528.50 C574.71,513.65 577.64,498.42 578.43,494.65 C579.22,490.89 579.62,487.18 579.33,486.40 C578.55,484.38 550.78,484.35 549.10,486.37 C548.48,487.13 546.83,493.77 545.45,501.12 C544.06,508.48 541.11,523.65 538.89,534.84 C535.05,554.19 534.93,555.27 536.58,557.09 ZM 429.47 557.60 C430.86,558.62 434.72,559.00 443.62,559.00 C456.36,559.00 458.15,558.46 459.38,554.24 C461.26,547.77 471.91,487.92 471.41,486.62 C470.87,485.23 468.74,485.00 456.43,485.00 C443.40,485.00 441.98,485.17 441.06,486.88 C440.51,487.91 437.75,501.08 434.94,516.13 C428.11,552.61 427.33,555.96 428.55,557.01 C428.79,557.22 429.11,557.34 429.47,557.60 ZM 321.61 557.12 C323.10,558.77 324.85,559.00 335.65,559.00 C346.34,559.00 348.25,558.75 349.85,557.15 C351.23,555.77 353.19,547.71 357.47,525.90 C360.64,509.73 363.29,494.02 363.37,491.00 L 363.50 485.50 L 349.29 485.22 C340.48,485.05 336.46,484.82 334.27,486.70 C332.25,488.44 331.78,491.97 330.53,499.00 C329.60,504.23 326.84,519.02 324.38,531.87 C320.16,553.96 320.00,555.35 321.61,557.12 ZM 375.49 557.62 C376.86,558.62 380.80,559.00 389.69,559.00 C400.10,559.00 402.27,558.73 403.76,557.24 C405.04,555.96 407.25,546.33 411.89,521.82 C415.40,503.30 418.00,487.45 417.67,486.58 C417.16,485.25 414.92,485.00 403.28,485.02 C395.70,485.02 388.87,485.43 388.10,485.91 C386.82,486.73 384.94,495.66 375.83,544.37 C373.65,555.98 373.65,556.27 375.49,557.62 ZM 483.49 557.62 C484.85,558.61 488.71,559.00 497.08,559.00 C506.74,559.00 509.15,558.69 510.93,557.25 C512.76,555.76 514.02,550.54 519.52,521.78 C523.06,503.24 525.69,487.36 525.36,486.50 C524.85,485.18 522.62,484.99 510.13,485.22 L 495.50 485.50 L 494.26 489.50 C493.06,493.37 484.96,535.37 482.71,549.37 C481.70,555.67 481.76,556.35 483.49,557.62 ZM 519.00 462.59 L 519.00 466.03 L 544.25 465.77 L 569.50 465.50 L 575.39 454.68 C581.20,444.00 581.26,443.82 579.97,439.92 C577.42,432.17 570.06,425.75 560.80,423.21 L 557.10 422.19 L 556.80 426.84 C556.59,430.18 556.08,431.50 555.00,431.50 C553.89,431.50 553.50,430.33 553.50,427.00 L 553.50 422.50 L 550.09 422.78 C544.39,423.24 538.18,426.64 532.39,432.48 C526.18,438.74 524.00,443.05 524.00,449.07 C524.00,452.03 523.29,454.06 521.50,456.18 C519.89,458.09 519.00,460.38 519.00,462.59 ZM 429.67 613.33 C430.03,613.70 452.76,614.00 480.17,614.00 L 530.00 614.00 L 530.00 597.00 L 424.22 597.00 L 426.59 602.75 C427.89,605.91 428.96,609.44 428.98,610.58 C428.99,611.73 429.30,612.97 429.67,613.33 ZM 396.01 463.75 L 396.00 466.00 L 432.50 466.00 C452.58,466.00 469.00,465.81 469.00,465.57 C469.00,463.30 459.16,446.47 456.43,444.08 C447.84,436.53 435.66,433.56 424.52,436.31 C415.30,438.59 409.61,441.61 404.86,446.77 C400.54,451.45 396.03,460.12 396.01,463.75 ZM 250.24 506.78 C249.91,507.77 254.50,507.98 271.99,507.77 L 294.16 507.50 L 297.10 500.50 C309.37,471.31 310.84,467.47 313.01,467.03 C313.48,466.93 313.99,467.00 314.65,467.00 C316.66,467.00 318.00,466.50 318.01,465.75 C318.02,462.44 320.39,456.62 322.91,453.72 C325.57,450.66 327.99,441.49 325.95,442.20 C322.49,443.40 251.06,504.33 250.24,506.78 ZM 446.23 434.65 C449.68,435.82 452.73,436.81 453.00,436.85 C453.27,436.89 454.72,435.16 456.21,433.00 C457.70,430.84 460.67,428.19 462.81,427.10 C464.95,426.01 467.52,423.85 468.53,422.31 C469.54,420.76 471.41,418.68 472.69,417.68 C473.96,416.67 475.00,415.49 475.00,415.04 C475.00,412.83 465.33,403.82 460.35,401.38 C449.86,396.25 436.72,398.86 429.06,407.59 L 425.98 411.09 L 430.20 416.30 C434.13,421.15 434.69,421.49 438.20,421.15 C443.75,420.62 444.20,422.50 440.61,431.02 C440.12,432.17 441.44,433.03 446.23,434.65 ZM 394.91 444.83 C396.88,446.88 398.73,448.31 399.00,448.03 C399.28,447.74 401.01,445.86 402.86,443.85 L 406.21 440.19 L 402.26 434.85 C400.08,431.90 397.56,428.88 396.65,428.13 C394.38,426.24 394.58,424.00 397.02,424.00 C398.36,424.00 400.74,426.34 404.14,431.00 C406.95,434.85 409.40,438.00 409.59,438.00 C409.95,438.00 417.21,434.76 417.92,434.28 C418.15,434.12 417.33,432.91 416.09,431.59 C412.53,427.81 413.58,424.72 418.84,423.45 C421.79,422.74 423.70,421.55 424.79,419.75 C426.37,417.16 426.31,416.98 422.41,412.38 C416.56,405.48 416.11,405.32 409.77,407.89 C404.44,410.05 404.21,410.07 400.60,408.34 C395.91,406.11 395.25,406.51 387.21,416.41 L 380.91 424.16 L 384.32 427.93 C386.19,430.00 388.53,433.81 389.51,436.40 C390.50,438.99 392.93,442.78 394.91,444.83 ZM 691.64 611.86 L 692.29 618.04 L 710.39 617.77 L 728.50 617.50 L 728.81 614.25 C729.12,611.05 729.06,611.00 724.81,610.87 C722.44,610.80 715.58,610.47 709.56,610.12 L 698.62 609.50 L 697.43 604.81 C694.31,592.55 685.24,581.21 674.18,575.77 L 667.55 572.50 L 638.28 572.19 L 609.00 571.89 L 609.00 579.00 L 664.50 579.00 L 670.50 581.85 C681.82,587.24 690.33,599.31 691.64,611.86 ZM 341.00 615.59 C341.00,618.89 341.13,619.00 344.91,619.00 L 348.81 619.00 L 349.49 614.08 C351.16,601.93 360.43,590.25 371.80,585.96 C378.99,583.24 390.09,583.59 397.18,586.74 C407.45,591.31 415.95,602.75 417.51,614.08 L 418.19 619.00 L 426.28 619.00 L 425.64 612.75 C424.78,604.34 420.34,595.59 413.51,588.81 C404.43,579.80 402.30,579.13 383.05,579.14 C373.52,579.14 365.74,579.59 364.55,580.20 C359.07,583.01 351.93,589.40 348.50,594.56 C344.35,600.81 341.00,610.21 341.00,615.59 ZM 658.15 633.97 C653.23,635.34 652.16,635.26 647.46,633.12 C636.37,628.08 633.60,615.16 641.86,606.91 C648.94,599.82 658.94,599.87 665.39,607.01 C671.45,613.72 671.43,622.30 665.35,629.04 C663.29,631.31 660.27,633.39 658.15,633.97 ZM 391.00 632.47 C384.17,635.99 376.76,634.54 371.31,628.62 C364.17,620.87 366.53,608.40 376.07,603.46 C380.48,601.18 388.75,601.57 392.70,604.25 C396.55,606.85 400.00,613.24 400.00,617.75 C400.00,623.83 396.42,629.69 391.00,632.47 ZM 551.00 590.00 L 551.00 622.00 L 573.00 622.00 L 573.00 590.00 L 551.00 590.00 ZM 732.68 616.25 L 733.16 619.00 L 743.97 619.00 C752.91,619.00 754.89,618.73 755.39,617.42 C755.73,616.55 756.00,611.22 756.00,605.57 L 756.00 595.30 L 744.86 594.62 C738.73,594.25 733.47,594.19 733.17,594.50 C732.45,595.21 732.06,612.70 732.68,616.25 ZM 641.00 500.05 L 641.00 522.10 L 646.75 521.80 L 652.50 521.50 L 652.77 498.70 L 653.04 475.90 L 646.77 476.20 C643.32,476.37 640.61,476.84 640.75,477.25 C640.89,477.66 641.00,487.92 641.00,500.05 ZM 647.30 629.04 C654.30,633.31 662.54,630.40 665.52,622.58 C667.17,618.26 667.18,617.75 665.58,613.58 C662.84,606.39 655.82,603.38 648.72,606.34 C639.28,610.29 638.44,623.64 647.30,629.04 ZM 378.27 629.52 C385.33,632.59 391.75,630.22 395.09,623.32 C397.02,619.33 397.13,618.37 396.06,614.79 C393.74,607.05 386.56,603.37 379.22,606.17 C369.01,610.05 368.39,625.22 378.27,629.52 ZM 611.01 618.25 C611.00,618.66 613.03,619.00 615.50,619.00 L 620.00 619.00 L 620.00 615.04 C620.00,604.81 628.41,592.40 638.80,587.30 C643.76,584.86 645.67,584.50 653.50,584.50 C661.26,584.50 663.26,584.87 668.00,587.20 C674.85,590.57 681.25,596.63 684.45,602.79 C685.80,605.38 686.93,607.15 686.95,606.72 C686.98,606.29 685.85,603.66 684.44,600.88 C681.16,594.41 674.80,588.06 668.47,584.95 C664.00,582.74 662.01,582.47 648.61,582.18 C640.43,582.00 632.75,582.10 631.55,582.40 C627.89,583.32 619.34,592.38 616.12,598.76 C613.69,603.57 611.05,613.63 611.01,618.25 ZM 533.48 619.75 C533.99,621.82 534.61,622.00 541.02,622.00 L 548.00 622.00 L 548.00 589.91 L 533.50 590.50 L 533.21 604.00 C533.05,611.42 533.17,618.51 533.48,619.75 ZM 312.00 597.00 L 312.00 614.06 L 324.65 613.78 L 337.30 613.50 L 338.96 607.50 C339.87,604.20 341.17,600.49 341.84,599.25 L 343.07 597.00 L 312.00 597.00 ZM 577.00 588.91 L 577.00 622.09 L 583.75 621.80 L 590.50 621.50 L 590.50 589.50 L 583.75 589.20 L 577.00 588.91 ZM 665.26 319.82 C663.38,317.93 662.74,317.80 660.50,318.82 C656.78,320.51 653.56,320.28 651.65,318.17 C649.58,315.88 649.51,311.65 651.52,309.98 C652.60,309.09 652.86,307.75 652.41,305.36 C650.99,297.83 659.15,293.52 662.51,300.02 C663.81,302.54 664.38,302.87 665.97,302.02 C670.36,299.67 675.00,301.96 675.00,306.47 C675.00,308.75 669.07,315.00 666.89,315.00 C666.32,315.00 666.79,316.19 667.93,317.63 C669.07,319.08 670.00,320.66 670.00,321.13 C670.00,322.73 667.47,322.02 665.26,319.82 ZM 718.50 432.77 C724.00,434.98 728.79,436.84 729.15,436.90 C729.51,436.95 730.27,435.65 730.85,434.01 C732.05,430.55 731.80,430.34 723.00,427.48 C719.97,426.50 708.10,422.16 696.62,417.85 C685.14,413.53 675.13,410.00 674.39,410.00 C673.04,410.00 671.30,414.63 672.28,415.61 C672.56,415.90 680.83,418.97 690.65,422.43 C700.47,425.90 713.00,430.55 718.50,432.77 ZM 367.00 336.83 C367.00,336.18 367.68,334.91 368.50,334.00 C369.86,332.49 369.65,332.11 366.27,329.92 C361.45,326.79 359.93,322.84 362.47,320.03 C364.46,317.83 367.10,317.45 369.91,318.95 C371.32,319.71 372.15,319.29 373.88,316.95 C378.17,311.15 384.98,314.94 383.59,322.36 C383.14,324.75 383.40,326.09 384.48,326.98 C386.46,328.63 386.43,333.43 384.43,335.43 C382.69,337.17 376.47,337.57 375.50,336.00 C374.55,334.47 371.01,334.81 370.36,336.50 C369.68,338.27 367.00,338.53 367.00,336.83 ZM 328.00 579.00 L 328.00 593.00 L 344.07 593.00 L 358.07 579.00 L 328.00 579.00 ZM 736.53 570.39 C737.58,571.43 739.88,572.00 743.07,572.00 L 748.00 572.00 L 748.00 550.90 L 735.50 551.50 L 735.21 560.14 C734.98,567.02 735.25,569.11 736.53,570.39 ZM 595.00 597.00 L 595.00 614.00 L 607.74 614.00 L 608.42 609.79 C608.79,607.48 609.94,603.65 610.99,601.29 L 612.89 597.00 L 595.00 597.00 ZM 521.68 432.96 L 523.37 437.72 L 527.60 432.61 C531.34,428.08 531.68,427.27 530.55,425.50 C528.56,422.40 519.33,418.00 514.79,418.00 L 510.81 418.00 L 515.40 423.10 C517.93,425.91 520.75,430.35 521.68,432.96 ZM 433.07 394.82 C436.40,397.07 439.02,397.20 445.14,395.41 C446.89,394.90 451.55,385.22 450.54,384.21 C450.21,383.88 448.57,384.41 446.89,385.40 C443.92,387.16 443.79,387.15 441.61,385.10 C438.47,382.15 437.32,382.47 436.57,386.50 C435.96,389.72 435.62,390.00 432.37,390.00 C428.04,390.00 428.27,391.56 433.07,394.82 ZM 347.07 413.33 C351.16,416.83 352.87,417.16 358.51,415.54 C359.85,415.15 364.37,406.04 363.61,405.27 C363.28,404.94 361.82,405.22 360.36,405.88 C358.05,406.93 357.42,406.80 355.35,404.86 C352.84,402.50 351.47,403.00 350.83,406.50 C350.56,407.99 349.65,408.52 347.26,408.56 C345.49,408.59 343.79,408.88 343.48,409.19 C343.16,409.51 344.78,411.37 347.07,413.33 ZM 692.35 449.82 C693.53,450.40 694.78,450.90 695.11,450.93 C695.45,450.97 697.39,446.62 699.41,441.27 C702.84,432.19 702.97,431.45 701.35,430.27 C697.56,427.50 697.46,427.63 692.99,440.64 L 690.20 448.78 ZM 671.71 443.31 C675.80,444.40 676.46,443.55 679.23,433.54 C682.12,423.13 681.91,421.67 677.59,422.24 C676.11,422.44 675.20,424.30 673.53,430.50 C672.35,434.90 671.05,439.48 670.65,440.67 C670.10,442.29 670.37,442.96 671.71,443.31 ZM 420.23 430.74 C421.70,432.30 423.15,432.93 424.48,432.57 C425.59,432.27 428.57,432.02 431.09,432.01 C435.30,432.00 435.84,431.71 437.55,428.54 C439.65,424.64 439.14,423.32 436.15,424.92 C433.20,426.50 432.45,426.28 431.18,423.50 C429.68,420.21 428.39,420.34 426.50,424.00 C425.23,426.46 424.32,427.00 421.47,427.00 C417.40,427.00 417.22,427.54 420.23,430.74 ZM 557.82 416.25 C558.24,419.91 560.10,419.72 564.52,415.55 C568.71,411.60 568.42,409.90 563.69,410.66 C560.82,411.13 560.25,410.84 559.11,408.35 L 557.81 405.50 L 555.56 408.32 C553.57,410.81 552.87,411.07 549.65,410.46 C547.64,410.09 546.00,410.04 546.00,410.35 C546.00,411.32 552.15,418.00 553.03,418.00 C553.49,418.00 554.00,416.99 554.18,415.75 C554.64,412.52 557.43,412.91 557.82,416.25 ZM 711.54 457.65 C712.57,458.41 713.79,458.90 714.25,458.75 C715.22,458.43 724.19,438.85 723.62,438.29 C723.41,438.08 722.06,437.82 720.60,437.70 C718.18,437.52 717.62,438.27 713.81,446.89 C709.81,455.92 709.72,456.33 711.54,457.65 ZM 301.00 604.00 L 301.00 619.00 L 309.00 619.00 L 309.00 604.00 L 301.00 604.00 ZM 593.54 521.06 C593.86,521.58 596.57,522.00 599.56,522.00 L 605.00 522.00 L 605.00 512.00 L 594.26 512.00 L 593.61 516.06 C593.25,518.29 593.22,520.54 593.54,521.06 ZM 504.72 414.38 C505.67,415.33 506.84,415.13 510.05,413.47 C513.74,411.57 513.81,410.23 510.25,409.82 C508.69,409.64 507.44,408.85 507.37,408.00 C507.29,407.17 507.18,405.94 507.12,405.25 C506.96,403.52 504.51,403.68 502.98,405.52 C501.85,406.88 501.46,406.88 499.27,405.44 C496.01,403.31 495.42,404.19 497.12,408.65 C498.81,413.09 500.18,413.77 501.51,410.82 C502.06,409.61 503.13,408.43 503.90,408.18 C504.98,407.84 505.16,408.44 504.70,410.75 C504.37,412.41 504.38,414.04 504.72,414.38 ZM 660.42 543.39 C658.55,544.11 642.06,544.07 640.25,543.34 C639.56,543.06 639.00,542.20 639.00,541.42 C639.00,540.28 641.25,540.00 650.50,540.00 C659.66,540.00 662.00,540.28 662.00,541.39 C662.00,542.16 661.29,543.06 660.42,543.39 ZM 705.14 416.88 C707.26,417.69 707.68,417.36 709.32,413.64 C711.58,408.51 712.54,404.00 711.38,403.99 C710.89,403.98 709.52,403.71 708.32,403.39 C706.45,402.89 705.98,403.36 705.12,406.65 C703.37,413.31 702.85,415.19 703.57,416.05 C703.87,416.42 704.39,416.60 705.14,416.88 ZM 681.87 408.83 C685.12,409.97 685.45,409.64 686.86,403.81 C688.56,396.80 688.39,396.00 685.21,396.00 C682.65,396.00 682.29,396.49 680.83,401.96 L 679.23 407.91 ZM 726.79 424.78 C729.36,425.66 729.62,425.45 731.75,420.73 C734.51,414.62 734.51,414.35 731.89,412.94 C729.29,411.55 728.66,412.17 726.11,418.68 L 724.08 423.86 ZM 712.55 439.91 C714.54,436.05 713.99,434.54 710.08,433.18 C707.22,432.18 706.89,432.31 705.50,435.00 C704.67,436.60 704.00,438.10 704.00,438.35 C704.00,438.74 710.09,442.94 710.72,442.98 C710.85,442.99 711.67,441.61 712.55,439.91 ZM 656.00 436.74 C656.00,439.49 653.88,438.77 651.69,435.29 C646.73,427.38 645.94,425.00 648.29,425.00 C649.62,425.00 656.00,434.71 656.00,436.74 ZM 496.46 444.07 C494.54,447.16 488.00,440.81 488.00,435.85 C488.00,431.60 491.19,432.37 492.10,436.83 C492.47,438.66 493.74,440.83 494.91,441.65 C496.08,442.47 496.77,443.56 496.46,444.07 ZM 543.66 451.50 C542.39,455.39 534.00,449.67 534.00,444.91 C534.00,441.32 535.71,441.11 537.02,444.54 C537.55,445.94 539.33,447.85 540.98,448.79 C542.64,449.73 543.84,450.95 543.66,451.50 ZM 446.38 454.91 C444.39,455.45 441.96,456.63 440.98,457.52 C438.78,459.51 437.45,457.90 438.97,455.06 C439.91,453.30 445.41,451.02 448.75,451.01 C451.57,450.99 449.76,453.97 446.38,454.91 ZM 588.00 352.53 C588.00,354.33 586.60,354.44 585.24,352.75 C583.25,350.26 580.10,343.23 580.71,342.62 C582.21,341.12 583.75,342.31 585.80,346.53 C587.01,349.02 588.00,351.72 588.00,352.53 ZM 752.67 651.58 C752.25,650.49 752.99,649.91 755.36,649.46 C760.46,648.50 765.50,649.27 765.50,651.00 C765.50,653.20 753.50,653.74 752.67,651.58 ZM 413.05 452.41 C411.43,455.43 409.00,455.85 409.00,453.10 C409.00,450.73 415.39,445.00 418.03,445.00 C420.87,445.00 420.45,446.72 417.21,448.39 C415.68,449.18 413.81,450.99 413.05,452.41 ZM 372.53 441.95 C370.95,444.51 365.99,441.01 364.57,436.33 C363.71,433.47 366.01,432.01 367.44,434.51 C368.02,435.53 369.55,437.39 370.84,438.63 C372.13,439.88 372.89,441.37 372.53,441.95 ZM 456.27 416.25 C454.65,418.04 451.00,418.67 451.00,417.15 C451.00,416.69 451.90,415.50 453.00,414.50 C454.10,413.50 455.00,411.91 455.00,410.97 C455.00,410.02 455.63,408.72 456.41,408.07 C459.67,405.37 459.54,412.62 456.27,416.25 ZM 517.26 353.46 C514.68,357.72 512.00,359.45 512.00,356.84 C512.00,354.65 517.08,347.00 518.54,347.00 C520.63,347.00 520.37,348.31 517.26,353.46 ZM 346.00 457.98 C346.00,458.54 344.73,459.00 343.17,459.00 C340.07,459.00 336.00,455.42 336.00,452.69 C336.00,450.41 337.30,450.56 339.60,453.11 C340.64,454.28 342.51,455.62 343.75,456.09 C344.99,456.56 346.00,457.41 346.00,457.98 ZM 570.52 440.98 C568.25,443.48 561.00,443.88 561.00,441.50 C561.00,440.61 561.92,440.00 563.28,440.00 C564.53,440.00 566.59,439.27 567.86,438.38 C571.09,436.12 573.12,438.10 570.52,440.98 ZM 457.00 342.30 C457.00,343.01 455.22,345.34 453.03,347.47 C449.64,350.78 448.97,351.09 448.40,349.60 C447.94,348.41 448.78,346.79 451.06,344.43 C454.48,340.91 457.00,340.00 457.00,342.30 ZM 373.87 455.66 C372.58,457.22 365.41,457.48 364.50,456.00 C363.33,454.10 365.13,453.00 369.39,453.00 C374.25,453.00 375.47,453.72 373.87,455.66 ZM 574.55 391.39 C575.44,396.15 573.41,396.22 571.44,391.51 C569.49,386.83 569.23,383.82 570.74,383.28 C572.10,382.80 573.49,385.76 574.55,391.39 ZM 490.27 353.40 C489.01,354.66 488.01,353.87 485.54,349.66 C482.52,344.50 482.45,344.00 484.80,344.00 C486.65,344.00 491.44,352.23 490.27,353.40 ZM 668.06 310.30 C671.51,308.27 672.34,306.53 670.58,305.07 C668.87,303.65 664.00,307.36 664.00,310.07 C664.00,312.43 664.42,312.46 668.06,310.30 ZM 372.00 327.07 C372.00,324.95 367.28,320.71 365.88,321.57 C364.25,322.58 364.98,324.84 367.63,326.93 C370.91,329.51 372.00,329.54 372.00,327.07 ZM 409.97 366.75 C409.96,367.16 408.70,369.00 407.17,370.84 C404.82,373.68 404.22,373.96 403.19,372.73 C402.23,371.57 402.41,370.75 404.07,368.64 C405.96,366.24 410.04,364.93 409.97,366.75 ZM 504.80 451.89 C505.24,453.22 500.47,453.26 497.25,451.97 C494.97,451.05 494.32,449.54 495.82,448.61 C496.99,447.89 504.36,450.58 504.80,451.89 ZM 529.31 321.11 C526.74,324.99 525.58,325.74 524.60,324.17 C524.01,323.21 528.66,316.00 529.87,316.00 C531.86,316.00 531.69,317.51 529.31,321.11 ZM 660.16 304.48 C659.55,299.00 656.00,298.50 656.00,303.89 C656.00,307.13 656.80,308.19 658.95,307.77 C660.03,307.55 660.40,306.56 660.16,304.48 ZM 632.56 403.90 C631.54,405.55 630.59,405.26 627.99,402.49 C626.15,400.53 625.89,399.71 626.83,398.77 C627.76,397.84 628.61,398.15 630.64,400.18 C632.07,401.62 632.94,403.29 632.56,403.90 ZM 658.80 314.38 C659.20,311.59 656.01,310.27 654.35,312.54 C652.68,314.81 653.81,317.17 656.38,316.80 C657.65,316.62 658.62,315.65 658.80,314.38 ZM 380.00 320.69 C380.00,318.53 379.58,317.93 378.25,318.18 C377.02,318.42 376.41,319.65 376.19,322.31 C375.89,325.91 375.97,326.03 377.94,324.81 C379.23,324.00 380.00,322.46 380.00,320.69 ZM 381.96 332.54 C383.46,330.74 382.50,329.00 380.00,329.00 C377.75,329.00 376.61,330.54 377.38,332.55 C378.10,334.41 380.41,334.41 381.96,332.54 ZM 135.84 418.00 C135.84,418.00 135.85,418.00 135.85,418.00 C135.93,418.00 136.04,418.02 136.16,418.06 C136.04,418.03 135.93,418.01 135.84,418.00 Z" fill="rgba(0,0,0,1)"/>
<path d="M 135.00 544.50 L 135.00 525.00 L 91.08 525.00 C66.93,525.00 46.45,524.73 45.58,524.39 C44.18,523.86 44.00,519.92 44.00,490.39 L 44.00 457.00 L 87.92 457.00 C112.07,457.00 132.55,456.73 133.42,456.39 C134.78,455.87 135.00,453.20 135.00,436.89 C135.00,426.50 135.35,418.00 135.78,418.00 C137.21,418.00 141.34,421.24 167.50,442.88 C220.48,486.70 224.48,489.91 223.92,491.33 C223.85,491.52 223.70,491.67 223.57,491.88 C222.91,492.95 198.03,513.68 180.15,528.07 C174.29,532.78 167.81,538.23 165.75,540.18 C163.69,542.14 162.00,543.55 162.00,543.33 C162.00,543.11 156.34,547.67 149.43,553.46 C142.51,559.26 136.43,564.00 135.93,564.00 C135.39,564.00 135.00,555.78 135.00,544.50 ZM 418.40 588.74 C416.26,586.40 412.92,583.26 411.00,581.75 L 407.50 579.02 L 495.23 579.01 L 582.96 579.00 L 583.42 576.75 C583.67,575.51 585.51,564.15 587.50,551.50 C589.49,538.85 591.35,527.71 591.63,526.75 C592.04,525.32 593.30,525.00 598.57,525.00 L 605.00 525.00 L 605.00 582.00 L 624.15 582.00 L 614.76 593.00 L 604.88 593.00 C595.94,593.00 595.00,592.82 595.00,591.15 C595.00,586.98 592.06,586.00 579.58,586.00 C568.65,586.00 567.78,585.86 567.29,584.00 C566.87,582.39 565.93,582.00 562.42,582.00 C559.09,582.00 557.82,582.47 557.00,584.00 C556.03,585.81 554.91,586.00 545.19,586.00 C533.66,586.00 530.00,587.22 530.00,591.06 C530.00,592.96 528.81,593.00 476.15,593.00 L 422.31 593.00 ZM 645.00 647.06 C631.58,642.97 623.56,632.11 623.52,618.00 C623.49,608.67 626.85,601.06 633.61,595.11 C639.32,590.09 645.47,587.99 654.43,588.02 C663.04,588.05 668.67,590.34 674.83,596.30 C682.01,603.25 683.49,606.98 683.49,618.00 C683.49,625.94 683.12,628.19 681.24,631.72 C677.99,637.81 671.39,643.71 665.26,646.01 C659.80,648.05 649.91,648.57 645.00,647.06 ZM 374.36 646.97 C365.55,644.25 356.34,634.66 353.90,625.66 C351.15,615.51 355.01,602.84 363.05,595.57 C369.94,589.35 374.84,587.70 384.90,588.20 C390.40,588.48 394.69,589.26 396.81,590.37 C419.12,602.10 419.59,633.49 397.62,644.71 C391.95,647.61 380.15,648.75 374.36,646.97 ZM 321.67 466.28 C320.57,464.50 323.04,458.12 325.94,455.21 C328.19,452.97 328.97,451.05 329.53,446.42 C330.48,438.50 332.05,434.99 337.03,429.58 C341.30,424.95 351.12,419.45 353.50,420.36 C354.22,420.64 355.11,422.21 355.47,423.86 C356.20,427.19 358.38,429.50 359.90,428.56 C360.51,428.18 360.34,426.68 359.44,424.51 C358.65,422.61 358.00,420.55 358.00,419.92 C358.00,418.17 366.61,419.77 372.08,422.54 C378.08,425.58 385.73,434.07 386.59,438.63 C387.01,440.86 388.32,442.91 390.22,444.31 C394.52,447.47 396.41,451.55 395.13,454.85 C394.56,456.31 393.61,459.41 393.01,461.75 L 391.92 466.00 L 362.21 466.01 C345.87,466.01 330.20,466.29 327.39,466.63 C324.46,466.98 322.01,466.83 321.67,466.28 ZM 471.53 463.25 C471.15,461.74 469.82,459.15 468.57,457.50 C467.33,455.85 465.77,452.88 465.12,450.90 C464.47,448.91 462.38,445.47 460.47,443.24 C458.56,441.01 457.00,438.73 457.00,438.17 C457.00,436.26 462.25,430.91 466.00,429.00 C468.06,427.95 470.68,425.52 471.81,423.60 C474.43,419.15 480.73,415.93 488.09,415.26 C495.35,414.60 499.40,415.52 498.59,417.63 C498.26,418.49 497.72,420.27 497.39,421.59 C496.46,425.27 499.85,424.74 501.15,421.00 C501.73,419.35 502.78,418.00 503.49,418.00 C505.59,418.00 514.95,426.97 516.93,430.89 C517.94,432.87 519.03,436.30 519.35,438.50 C520.40,445.58 520.80,448.19 520.22,450.55 C519.86,451.98 519.14,453.33 517.98,455.53 C516.34,458.65 515.00,462.28 515.00,463.60 L 515.00 466.00 L 472.22 466.00 ZM 519.00 462.59 C519.00,460.38 519.89,458.09 521.50,456.18 C523.29,454.06 524.00,452.03 524.00,449.07 C524.00,443.05 526.18,438.74 532.39,432.48 C538.18,426.64 544.39,423.24 550.09,422.78 L 553.50 422.50 L 553.50 427.00 C553.50,430.33 553.89,431.50 555.00,431.50 C556.08,431.50 556.59,430.18 556.80,426.84 L 557.10 422.19 L 560.80 423.21 C570.06,425.75 577.42,432.17 579.97,439.92 C581.26,443.82 581.20,444.00 575.39,454.68 L 569.50 465.50 L 544.25 465.77 L 519.00 466.03 ZM 429.67 613.33 C429.30,612.97 428.99,611.73 428.98,610.58 C428.96,609.44 427.89,605.91 426.59,602.75 L 424.22 597.00 L 530.00 597.00 L 530.00 614.00 L 480.17 614.00 C452.76,614.00 430.03,613.70 429.67,613.33 ZM 396.01 463.75 C396.03,460.12 400.54,451.45 404.86,446.77 C409.61,441.61 415.30,438.59 424.52,436.31 C435.66,433.56 447.84,436.53 456.43,444.08 C459.16,446.47 469.00,463.30 469.00,465.57 C469.00,465.81 452.58,466.00 432.50,466.00 L 396.00 466.00 ZM 446.23 434.65 C441.44,433.03 440.12,432.17 440.61,431.02 C444.20,422.50 443.75,420.62 438.20,421.15 C434.69,421.49 434.13,421.15 430.20,416.30 L 425.98 411.09 L 429.06 407.59 C436.72,398.86 449.86,396.25 460.35,401.38 C465.33,403.82 475.00,412.83 475.00,415.04 C475.00,415.49 473.96,416.67 472.69,417.68 C471.41,418.68 469.54,420.76 468.53,422.31 C467.52,423.85 464.95,426.01 462.81,427.10 C460.67,428.19 457.70,430.84 456.21,433.00 C454.72,435.16 453.27,436.89 453.00,436.85 C452.73,436.81 449.68,435.82 446.23,434.65 ZM 394.91 444.83 C392.93,442.78 390.50,438.99 389.51,436.40 C388.53,433.81 386.19,430.00 384.32,427.93 L 380.91 424.16 L 387.21 416.41 C395.25,406.51 395.91,406.11 400.60,408.34 C404.21,410.07 404.44,410.05 409.77,407.89 C416.11,405.32 416.56,405.48 422.41,412.38 C426.31,416.98 426.37,417.16 424.79,419.75 C423.70,421.55 421.79,422.74 418.84,423.45 C413.58,424.72 412.53,427.81 416.09,431.59 C417.33,432.91 418.15,434.12 417.92,434.28 C417.21,434.76 409.95,438.00 409.59,438.00 C409.40,438.00 406.95,434.85 404.14,431.00 C400.74,426.34 398.36,424.00 397.02,424.00 C394.58,424.00 394.38,426.24 396.65,428.13 C397.56,428.88 400.08,431.90 402.26,434.85 L 406.21 440.19 L 402.86 443.85 C401.01,445.86 399.28,447.74 399.00,448.03 C398.73,448.31 396.88,446.88 394.91,444.83 ZM 341.00 615.59 C341.00,610.21 344.35,600.81 348.50,594.56 C351.93,589.40 359.07,583.01 364.55,580.20 C365.74,579.59 373.52,579.14 383.05,579.14 C402.30,579.13 404.43,579.80 413.51,588.81 C420.34,595.59 424.78,604.34 425.64,612.75 L 426.28 619.00 L 418.19 619.00 L 417.51 614.08 C415.95,602.75 407.45,591.31 397.18,586.74 C390.09,583.59 378.99,583.24 371.80,585.96 C360.43,590.25 351.16,601.93 349.49,614.08 L 348.81 619.00 L 344.91 619.00 C341.13,619.00 341.00,618.89 341.00,615.59 ZM 658.15 633.97 C660.27,633.39 663.29,631.31 665.35,629.04 C671.43,622.30 671.45,613.72 665.39,607.01 C658.94,599.87 648.94,599.82 641.86,606.91 C633.60,615.16 636.37,628.08 647.46,633.12 C652.16,635.26 653.23,635.34 658.15,633.97 ZM 391.00 632.47 C396.42,629.69 400.00,623.83 400.00,617.75 C400.00,613.24 396.55,606.85 392.70,604.25 C388.75,601.57 380.48,601.18 376.07,603.46 C366.53,608.40 364.17,620.87 371.31,628.62 C376.76,634.54 384.17,635.99 391.00,632.47 ZM 551.00 590.00 L 573.00 590.00 L 573.00 622.00 L 551.00 622.00 L 551.00 590.00 ZM 611.01 618.25 C611.05,613.63 613.69,603.57 616.12,598.76 C619.34,592.38 627.89,583.32 631.55,582.40 C632.75,582.10 640.43,582.00 648.61,582.18 C662.01,582.47 664.00,582.74 668.47,584.95 C674.80,588.06 681.16,594.41 684.44,600.88 C685.85,603.66 686.98,606.29 686.95,606.72 C686.93,607.15 685.80,605.38 684.45,602.79 C681.25,596.63 674.85,590.57 668.00,587.20 C663.26,584.87 661.26,584.50 653.50,584.50 C645.67,584.50 643.76,584.86 638.80,587.30 C628.41,592.40 620.00,604.81 620.00,615.04 L 620.00 619.00 L 615.50 619.00 C613.03,619.00 611.00,618.66 611.01,618.25 ZM 533.48 619.75 C533.17,618.51 533.05,611.42 533.21,604.00 L 533.50 590.50 L 548.00 589.91 L 548.00 622.00 L 541.02 622.00 C534.61,622.00 533.99,621.82 533.48,619.75 ZM 312.00 597.00 L 343.07 597.00 L 341.84 599.25 C341.17,600.49 339.87,604.20 338.96,607.50 L 337.30 613.50 L 324.65 613.78 L 312.00 614.06 L 312.00 597.00 ZM 577.00 588.91 L 583.75 589.20 L 590.50 589.50 L 590.50 621.50 L 583.75 621.80 L 577.00 622.09 L 577.00 588.91 ZM 328.00 579.00 L 358.07 579.00 L 344.07 593.00 L 328.00 593.00 L 328.00 579.00 ZM 595.00 597.00 L 612.89 597.00 L 610.99 601.29 C609.94,603.65 608.79,607.48 608.42,609.79 L 607.74 614.00 L 595.00 614.00 L 595.00 597.00 ZM 521.68 432.96 C520.75,430.35 517.93,425.91 515.40,423.10 L 510.81 418.00 L 514.79 418.00 C519.33,418.00 528.56,422.40 530.55,425.50 C531.68,427.27 531.34,428.08 527.60,432.61 L 523.37 437.72 ZM 433.07 394.82 C428.27,391.56 428.04,390.00 432.37,390.00 C435.62,390.00 435.96,389.72 436.57,386.50 C437.32,382.47 438.47,382.15 441.61,385.10 C443.79,387.15 443.92,387.16 446.89,385.40 C448.57,384.41 450.21,383.88 450.54,384.21 C451.55,385.22 446.89,394.90 445.14,395.41 C439.02,397.20 436.40,397.07 433.07,394.82 ZM 347.07 413.33 C344.78,411.37 343.16,409.51 343.48,409.19 C343.79,408.88 345.49,408.59 347.26,408.56 C349.65,408.52 350.56,407.99 350.83,406.50 C351.47,403.00 352.84,402.50 355.35,404.86 C357.42,406.80 358.05,406.93 360.36,405.88 C361.82,405.22 363.28,404.94 363.61,405.27 C364.37,406.04 359.85,415.15 358.51,415.54 C352.87,417.16 351.16,416.83 347.07,413.33 ZM 420.23 430.74 C417.22,427.54 417.40,427.00 421.47,427.00 C424.32,427.00 425.23,426.46 426.50,424.00 C428.39,420.34 429.68,420.21 431.18,423.50 C432.45,426.28 433.20,426.50 436.15,424.92 C439.14,423.32 439.65,424.64 437.55,428.54 C435.84,431.71 435.30,432.00 431.09,432.01 C428.57,432.02 425.59,432.27 424.48,432.57 C423.15,432.93 421.70,432.30 420.23,430.74 ZM 557.82 416.25 C557.43,412.91 554.64,412.52 554.18,415.75 C554.00,416.99 553.49,418.00 553.03,418.00 C552.15,418.00 546.00,411.32 546.00,410.35 C546.00,410.04 547.64,410.09 549.65,410.46 C552.87,411.07 553.57,410.81 555.56,408.32 L 557.81 405.50 L 559.11 408.35 C560.25,410.84 560.82,411.13 563.69,410.66 C568.42,409.90 568.71,411.60 564.52,415.55 C560.10,419.72 558.24,419.91 557.82,416.25 ZM 504.72 414.38 C504.38,414.04 504.37,412.41 504.70,410.75 C505.16,408.44 504.98,407.84 503.90,408.18 C503.13,408.43 502.06,409.61 501.51,410.82 C500.18,413.77 498.81,413.09 497.12,408.65 C495.42,404.19 496.01,403.31 499.27,405.44 C501.46,406.88 501.85,406.88 502.98,405.52 C504.51,403.68 506.96,403.52 507.12,405.25 C507.18,405.94 507.29,407.17 507.37,408.00 C507.44,408.85 508.69,409.64 510.25,409.82 C513.81,410.23 513.74,411.57 510.05,413.47 C506.84,415.13 505.67,415.33 504.72,414.38 ZM 496.46 444.07 C496.77,443.56 496.08,442.47 494.91,441.65 C493.74,440.83 492.47,438.66 492.10,436.83 C491.19,432.37 488.00,431.60 488.00,435.85 C488.00,440.81 494.54,447.16 496.46,444.07 ZM 543.66 451.50 C543.84,450.95 542.64,449.73 540.98,448.79 C539.33,447.85 537.55,445.94 537.02,444.54 C535.71,441.11 534.00,441.32 534.00,444.91 C534.00,449.67 542.39,455.39 543.66,451.50 ZM 446.38 454.91 C449.76,453.97 451.57,450.99 448.75,451.01 C445.41,451.02 439.91,453.30 438.97,455.06 C437.45,457.90 438.78,459.51 440.98,457.52 C441.96,456.63 444.39,455.45 446.38,454.91 ZM 413.05 452.41 C413.81,450.99 415.68,449.18 417.21,448.39 C420.45,446.72 420.87,445.00 418.03,445.00 C415.39,445.00 409.00,450.73 409.00,453.10 C409.00,455.85 411.43,455.43 413.05,452.41 ZM 372.53 441.95 C372.89,441.37 372.13,439.88 370.84,438.63 C369.55,437.39 368.02,435.53 367.44,434.51 C366.01,432.01 363.71,433.47 364.57,436.33 C365.99,441.01 370.95,444.51 372.53,441.95 ZM 456.27 416.25 C459.54,412.62 459.67,405.37 456.41,408.07 C455.63,408.72 455.00,410.02 455.00,410.97 C455.00,411.91 454.10,413.50 453.00,414.50 C451.90,415.50 451.00,416.69 451.00,417.15 C451.00,418.67 454.65,418.04 456.27,416.25 ZM 346.00 457.98 C346.00,457.41 344.99,456.56 343.75,456.09 C342.51,455.62 340.64,454.28 339.60,453.11 C337.30,450.56 336.00,450.41 336.00,452.69 C336.00,455.42 340.07,459.00 343.17,459.00 C344.73,459.00 346.00,458.54 346.00,457.98 ZM 570.52 440.98 C573.12,438.10 571.09,436.12 567.86,438.38 C566.59,439.27 564.53,440.00 563.28,440.00 C561.92,440.00 561.00,440.61 561.00,441.50 C561.00,443.88 568.25,443.48 570.52,440.98 ZM 373.87 455.66 C375.47,453.72 374.25,453.00 369.39,453.00 C365.13,453.00 363.33,454.10 364.50,456.00 C365.41,457.48 372.58,457.22 373.87,455.66 ZM 504.80 451.89 C504.36,450.58 496.99,447.89 495.82,448.61 C494.32,449.54 494.97,451.05 497.25,451.97 C500.47,453.26 505.24,453.22 504.80,451.89 ZM 710.07 411.83 C711.10,408.98 710.89,408.64 709.40,407.55 C706.85,405.68 705.23,406.63 704.07,410.69 C704.35,409.58 704.70,408.26 705.12,406.65 C705.98,403.36 706.45,402.89 708.32,403.39 C709.52,403.71 710.89,403.98 711.38,403.99 C712.40,404.00 711.78,407.50 710.07,411.83 ZM 711.00 406.00 C711.00,405.45 709.76,405.03 708.25,405.07 C705.81,405.13 705.73,405.24 707.50,406.00 C710.23,407.17 711.00,407.17 711.00,406.00 Z" fill="rgba(92,102,84,1)"/>
<path d="M 732.68 616.25 C732.06,612.70 732.45,595.21 733.17,594.50 C733.47,594.19 738.73,594.25 744.86,594.62 L 756.00 595.30 L 756.00 605.57 C756.00,611.22 755.73,616.55 755.39,617.42 C754.89,618.73 752.91,619.00 743.97,619.00 L 733.16 619.00 ZM 647.30 629.04 C638.44,623.64 639.28,610.29 648.72,606.34 C655.82,603.38 662.84,606.39 665.58,613.58 C667.18,617.75 667.17,618.26 665.52,622.58 C662.54,630.40 654.30,633.31 647.30,629.04 ZM 378.27 629.52 C368.39,625.22 369.01,610.05 379.22,606.17 C386.56,603.37 393.74,607.05 396.06,614.79 C397.13,618.37 397.02,619.33 395.09,623.32 C391.75,630.22 385.33,632.59 378.27,629.52 ZM 718.50 432.77 C715.90,431.72 711.72,430.13 707.00,428.37 C714.95,431.21 717.99,431.55 718.02,429.75 C718.03,428.92 718.35,429.00 719.00,430.00 C719.53,430.83 719.97,431.05 719.96,430.50 C719.94,427.75 715.60,424.88 706.28,421.46 C698.18,418.49 695.75,417.96 694.62,418.90 C691.60,421.41 693.49,423.26 702.95,426.87 C698.83,425.36 694.53,423.80 690.65,422.43 C680.83,418.97 672.56,415.90 672.28,415.61 C671.30,414.63 673.04,410.00 674.39,410.00 C675.13,410.00 685.14,413.53 696.62,417.85 C708.10,422.16 719.97,426.50 723.00,427.48 C731.80,430.34 732.05,430.55 730.85,434.01 C730.27,435.65 729.51,436.95 729.15,436.90 C728.79,436.84 724.00,434.98 718.50,432.77 ZM 692.35 449.82 L 690.20 448.78 L 692.99 440.64 C697.46,427.63 697.56,427.50 701.35,430.27 C702.97,431.45 702.84,432.19 699.41,441.27 C697.39,446.62 695.45,450.97 695.11,450.93 C694.78,450.90 693.53,450.40 692.35,449.82 ZM 711.54 457.65 C709.72,456.33 709.81,455.92 713.81,446.89 C717.62,438.27 718.18,437.52 720.60,437.70 C722.06,437.82 723.41,438.08 723.62,438.29 C724.19,438.85 715.22,458.43 714.25,458.75 C713.79,458.90 712.57,458.41 711.54,457.65 ZM 301.00 604.00 L 309.00 604.00 L 309.00 619.00 L 301.00 619.00 L 301.00 604.00 ZM 726.79 424.78 L 724.08 423.86 L 726.11 418.68 C728.66,412.17 729.29,411.55 731.89,412.94 C734.51,414.35 734.51,414.62 731.75,420.73 C729.62,425.45 729.36,425.66 726.79,424.78 ZM 671.71 443.31 C670.37,442.96 670.10,442.29 670.65,440.67 C671.05,439.48 672.35,434.90 673.53,430.50 C675.20,424.30 676.11,422.44 677.59,422.24 C681.91,421.67 682.12,423.13 679.23,433.54 C678.82,435.05 678.44,436.35 678.10,437.47 C679.07,433.20 678.14,431.00 675.35,431.00 C672.83,431.00 671.01,439.72 672.79,443.31 C672.84,443.41 672.90,443.51 672.96,443.59 C672.58,443.53 672.16,443.43 671.71,443.31 ZM 681.87 408.83 L 679.23 407.91 L 680.83 401.96 C681.14,400.78 681.41,399.83 681.66,399.07 C681.44,400.47 681.46,402.03 681.71,402.69 C682.88,405.74 686.25,403.05 685.83,399.40 C685.59,397.29 684.61,396.17 683.66,396.16 C684.07,396.03 684.57,396.00 685.21,396.00 C688.39,396.00 688.56,396.80 686.86,403.81 C685.45,409.64 685.12,409.97 681.87,408.83 ZM 538.13 423.45 C539.26,422.64 540.35,421.14 541.41,418.95 C542.46,416.78 543.69,415.00 544.14,415.00 C544.55,415.00 544.48,414.08 543.99,412.90 C544.36,413.64 544.85,414.45 545.46,415.34 C548.36,419.63 548.47,420.00 546.75,420.01 C546.06,420.02 543.18,421.10 540.34,422.42 L 538.13 423.45 ZM 705.25 416.97 C703.72,416.36 703.09,416.06 703.12,414.88 C703.30,415.74 704.02,416.45 705.25,416.93 C707.13,417.64 707.69,417.35 708.66,415.14 C710.50,410.93 707.68,408.46 704.57,411.57 C704.05,412.09 703.67,412.60 703.42,413.09 C703.57,412.48 703.78,411.74 704.03,410.85 C705.19,406.65 706.81,405.66 709.40,407.55 C711.14,408.82 711.14,409.07 709.47,413.44 C708.51,415.95 707.68,417.97 707.61,417.94 C707.55,417.90 706.49,417.47 705.25,416.97 ZM 543.21 410.71 C542.67,408.19 544.17,407.00 547.81,407.00 C548.60,407.00 549.32,406.94 549.97,406.82 C549.24,407.01 548.45,407.14 547.64,407.20 C544.28,407.44 542.83,408.53 543.21,410.71 ZM 532.94 422.43 C534.23,423.81 535.50,424.36 536.75,424.10 L 535.18 424.82 L 532.94 422.43 ZM 558.87 403.28 C559.80,403.55 560.69,404.11 561.45,404.95 C560.81,404.24 559.82,403.62 558.87,403.28 ZM 553.75 404.73 C554.43,404.07 555.18,403.60 555.97,403.34 C555.17,403.65 554.35,404.16 553.75,404.73 Z" fill="rgba(150,143,132,1)"/>
<path d="M 595.85 507.52 C595.53,507.20 596.56,499.64 598.14,490.72 C599.71,481.80 601.73,469.89 602.63,464.25 L 604.25 454.00 L 623.59 454.00 C641.69,454.00 643.00,453.88 643.96,452.07 C645.09,449.96 645.34,440.87 644.37,437.25 L 643.77 435.00 L 614.95 435.00 C587.01,435.00 586.12,435.06 585.50,437.00 C584.62,439.76 583.34,439.50 582.57,436.41 C581.65,432.75 573.75,424.64 569.02,422.51 L 565.03 420.71 L 568.57 416.79 C571.13,413.96 572.03,412.11 571.81,410.18 C571.54,407.81 571.02,407.46 567.36,407.20 C564.82,407.01 562.53,406.14 561.45,404.95 C559.18,402.44 555.80,402.46 553.50,405.00 C552.28,406.34 550.42,407.00 547.81,407.00 C543.38,407.00 542.12,408.77 543.85,412.56 C544.46,413.90 544.59,415.00 544.14,415.00 C543.69,415.00 542.46,416.78 541.41,418.95 C538.77,424.41 535.90,425.59 532.94,422.43 C530.34,419.66 521.48,415.00 518.83,415.00 C517.41,415.00 517.16,414.43 517.61,412.19 C518.21,409.20 516.91,407.48 513.56,406.86 C512.36,406.63 511.31,405.27 510.78,403.25 C510.09,400.57 509.46,400.00 507.17,400.00 C505.65,400.00 503.90,400.50 503.30,401.10 C502.50,401.90 501.19,401.84 498.51,400.87 C495.15,399.65 494.69,399.70 493.43,401.43 C492.64,402.51 492.30,404.34 492.64,405.69 C494.03,411.25 493.86,411.46 487.50,412.12 C484.20,412.46 481.05,412.90 480.50,413.10 C479.95,413.30 476.35,410.26 472.50,406.36 C465.71,399.47 461.96,397.31 453.74,395.55 C451.00,394.96 450.99,394.92 452.54,391.92 C453.41,390.25 453.98,387.22 453.81,385.19 L 453.50 381.50 L 448.39 381.77 C444.78,381.95 442.90,381.59 442.01,380.52 C441.32,379.68 439.65,379.00 438.30,379.00 C436.36,379.00 435.51,379.84 434.27,383.00 C432.99,386.26 432.21,387.00 430.05,387.00 C427.21,387.00 425.00,388.61 425.00,390.67 C425.00,391.36 426.35,393.47 428.00,395.35 C429.65,397.23 431.00,399.38 430.99,400.13 C430.98,400.88 429.48,402.95 427.66,404.73 L 424.33 407.96 L 421.48 404.98 C418.08,401.43 416.86,401.34 410.11,404.14 C405.04,406.25 404.89,406.26 400.88,404.44 C397.20,402.79 396.53,402.75 394.15,404.08 C392.69,404.90 388.63,409.18 385.11,413.60 L 378.72 421.64 L 375.11 419.80 C373.13,418.78 369.81,417.68 367.75,417.35 C365.69,417.02 364.00,416.63 364.00,416.50 C364.00,416.36 364.91,414.20 366.02,411.69 C367.13,409.17 367.95,405.85 367.84,404.31 C367.70,402.21 370.59,397.05 379.20,384.00 C397.09,356.90 408.09,342.80 422.45,328.50 C436.32,314.70 444.74,308.79 455.96,305.01 C463.85,302.36 468.16,302.47 480.08,305.67 L 490.02 308.33 L 497.26 305.76 C501.24,304.35 507.65,302.03 511.50,300.62 C516.71,298.70 520.45,298.04 526.12,298.02 C534.98,298.00 539.37,299.35 548.96,305.05 C557.54,310.14 561.65,310.75 572.37,308.50 C582.95,306.28 587.77,306.95 595.95,311.79 C606.84,318.22 614.11,327.41 631.95,357.28 C642.24,374.51 643.64,376.16 653.49,382.56 C662.32,388.31 665.90,391.78 671.46,399.99 C675.13,405.41 675.15,405.49 672.92,406.02 C671.49,406.36 670.20,407.82 669.41,410.03 C667.47,415.38 667.72,417.78 670.35,419.22 L 672.70 420.50 L 669.35 432.45 C667.51,439.03 666.34,444.72 666.75,445.11 C667.16,445.50 669.86,446.51 672.74,447.35 C675.15,448.06 676.58,448.57 677.64,448.15 C679.35,447.47 680.09,444.32 682.48,435.50 C683.97,430.00 685.33,425.35 685.51,425.16 C685.69,424.98 687.45,425.59 689.41,426.52 C690.71,427.14 691.60,427.55 692.07,428.25 C693.08,429.76 692.07,432.62 688.88,441.84 C687.29,446.43 686.20,450.52 686.46,450.94 C687.25,452.21 695.97,455.23 697.33,454.70 C698.03,454.43 699.46,451.69 700.51,448.61 C701.56,445.52 702.81,443.00 703.30,443.00 C703.79,443.00 705.48,443.91 707.05,445.03 L 709.90 447.07 L 707.95 451.62 C706.88,454.12 706.00,456.83 706.00,457.63 C706.00,459.03 713.12,462.93 715.76,462.98 C716.46,462.99 718.01,460.98 719.21,458.50 C720.41,456.02 721.97,454.00 722.68,454.00 C723.38,454.00 727.45,457.67 731.73,462.15 C736.00,466.63 747.69,478.40 757.71,488.31 C767.72,498.22 775.68,506.71 775.40,507.17 C775.11,507.62 764.14,508.00 751.02,508.00 L 727.16 508.00 L 720.71 496.75 C717.17,490.56 711.92,481.33 709.05,476.24 C705.91,470.66 702.41,465.89 700.25,464.24 L 696.66 461.50 L 655.84 461.22 C619.19,460.96 612.33,460.91 609.19,464.30 C608.46,465.09 607.93,466.06 607.27,467.27 C605.82,469.91 605.41,473.86 605.00,489.00 L 604.50 507.50 L 600.46 507.80 C598.24,507.96 596.17,507.83 595.85,507.52 ZM 250.24 506.78 C251.06,504.33 322.49,443.40 325.95,442.20 C327.99,441.49 325.57,450.66 322.91,453.72 C320.39,456.62 318.02,462.44 318.01,465.75 C318.00,466.50 316.66,467.00 314.65,467.00 C313.99,467.00 313.48,466.93 313.01,467.03 C310.84,467.47 309.37,471.31 297.10,500.50 L 294.16 507.50 L 271.99 507.77 C254.50,507.98 249.91,507.77 250.24,506.78 ZM 703.59 427.12 C693.58,423.34 691.53,421.46 694.62,418.90 C695.75,417.96 698.18,418.49 706.28,421.46 C715.60,424.88 719.94,427.75 719.96,430.50 C719.97,431.05 719.53,430.83 719.00,430.00 C718.35,429.00 718.03,428.92 718.02,429.75 C717.99,431.79 714.09,431.08 703.59,427.12 ZM 672.79 443.31 C671.01,439.72 672.83,431.00 675.35,431.00 C678.39,431.00 679.22,433.62 677.79,438.68 C676.56,443.06 673.89,445.52 672.79,443.31 ZM 656.00 436.74 C656.00,434.71 649.62,425.00 648.29,425.00 C645.94,425.00 646.73,427.38 651.69,435.29 C653.88,438.77 656.00,439.49 656.00,436.74 ZM 588.00 352.53 C588.00,351.72 587.01,349.02 585.80,346.53 C583.75,342.31 582.21,341.12 580.71,342.62 C580.10,343.23 583.25,350.26 585.24,352.75 C586.60,354.44 588.00,354.33 588.00,352.53 ZM 517.26 353.46 C520.37,348.31 520.63,347.00 518.54,347.00 C517.08,347.00 512.00,354.65 512.00,356.84 C512.00,359.45 514.68,357.72 517.26,353.46 ZM 457.00 342.30 C457.00,340.00 454.48,340.91 451.06,344.43 C448.78,346.79 447.94,348.41 448.40,349.60 C448.97,351.09 449.64,350.78 453.03,347.47 C455.22,345.34 457.00,343.01 457.00,342.30 ZM 574.55 391.39 C573.49,385.76 572.10,382.80 570.74,383.28 C569.23,383.82 569.49,386.83 571.44,391.51 C573.41,396.22 575.44,396.15 574.55,391.39 ZM 490.27 353.40 C491.44,352.23 486.65,344.00 484.80,344.00 C482.45,344.00 482.52,344.50 485.54,349.66 C488.01,353.87 489.01,354.66 490.27,353.40 ZM 705.25 416.93 C702.62,415.92 702.35,413.79 704.57,411.57 C707.68,408.46 710.50,410.93 708.66,415.14 C707.69,417.35 707.13,417.64 705.25,416.93 ZM 409.97 366.75 C410.04,364.93 405.96,366.24 404.07,368.64 C402.41,370.75 402.23,371.57 403.19,372.73 C404.22,373.96 404.82,373.68 407.17,370.84 C408.70,369.00 409.96,367.16 409.97,366.75 ZM 681.71 402.69 C681.43,401.96 681.44,400.14 681.73,398.64 C682.43,394.96 685.38,395.51 685.83,399.40 C686.25,403.05 682.88,405.74 681.71,402.69 ZM 529.31 321.11 C531.69,317.51 531.86,316.00 529.87,316.00 C528.66,316.00 524.01,323.21 524.60,324.17 C525.58,325.74 526.74,324.99 529.31,321.11 ZM 632.56 403.90 C632.94,403.29 632.07,401.62 630.64,400.18 C628.61,398.15 627.76,397.84 626.83,398.77 C625.89,399.71 626.15,400.53 627.99,402.49 C630.59,405.26 631.54,405.55 632.56,403.90 Z" fill="rgba(169,156,134,1)"/>
<path d="M 689.32 527.00 C685.84,523.64 683.31,522.00 681.57,522.00 C680.16,522.00 679.00,521.74 679.00,521.43 C679.00,521.12 681.03,518.38 683.50,515.34 C688.22,509.54 688.88,508.00 686.65,508.00 C685.90,508.00 682.87,511.14 679.90,514.99 L 674.50 521.97 L 665.50 521.74 L 656.50 521.50 L 656.23 498.85 L 655.96 476.21 L 673.55 476.51 C683.23,476.67 691.26,476.96 691.41,477.15 C691.55,477.34 693.04,479.98 694.72,483.00 C696.40,486.02 701.67,495.36 706.43,503.74 C715.05,518.90 715.09,519.01 714.80,525.24 L 714.50 531.50 L 694.50 532.00 ZM 429.47 557.60 C429.11,557.34 428.79,557.22 428.55,557.01 C427.33,555.96 428.11,552.61 434.94,516.13 C437.75,501.08 440.51,487.91 441.06,486.88 C441.98,485.17 443.40,485.00 456.43,485.00 C468.74,485.00 470.87,485.23 471.41,486.62 C471.51,486.88 471.16,489.47 470.53,493.51 C467.46,493.33 450.30,494.37 449.84,494.83 C449.30,495.39 437.98,555.95 438.00,558.25 C438.00,558.63 441.40,558.95 445.77,558.99 C445.09,559.00 444.37,559.00 443.62,559.00 C434.72,559.00 430.86,558.62 429.47,557.60 ZM 375.49 557.62 C373.65,556.27 373.65,555.98 375.83,544.37 C384.94,495.66 386.82,486.73 388.10,485.91 C388.87,485.43 395.70,485.02 403.28,485.02 C414.92,485.00 417.16,485.25 417.67,486.58 C418.00,487.45 415.40,503.30 411.89,521.82 C411.23,525.33 410.61,528.54 410.04,531.46 C410.38,529.72 410.74,527.88 411.11,525.93 C414.32,509.22 416.62,495.23 416.22,494.85 C415.20,493.88 413.57,493.75 404.29,493.88 L 396.08 494.00 L 395.10 497.75 C394.56,499.81 392.05,513.20 389.53,527.50 C387.01,541.80 384.70,554.74 384.39,556.25 L 383.86 558.92 C378.97,558.77 376.51,558.36 375.49,557.62 ZM 483.49 557.62 C481.76,556.35 481.70,555.67 482.71,549.37 C484.96,535.37 493.06,493.37 494.26,489.50 L 495.50 485.50 L 510.13 485.22 C522.62,484.99 524.85,485.18 525.36,486.50 C525.49,486.84 525.18,489.41 524.54,493.51 C523.25,493.56 519.34,493.68 514.75,493.83 C509.11,494.02 504.21,494.47 503.86,494.83 C503.51,495.20 500.67,509.15 497.55,525.84 C494.42,542.52 491.63,556.81 491.33,557.59 C491.06,558.30 492.54,558.76 494.81,558.99 C488.00,558.92 484.72,558.51 483.49,557.62 ZM 536.58 557.09 C534.93,555.27 535.05,554.19 538.89,534.84 C541.11,523.65 544.06,508.48 545.45,501.12 C546.83,493.77 548.48,487.13 549.10,486.37 C550.78,484.35 578.55,484.38 579.33,486.40 C579.60,487.13 579.27,490.42 578.58,493.92 C578.07,493.30 575.62,493.31 568.33,493.69 C562.38,494.01 557.33,494.41 557.13,494.59 C556.92,494.77 554.35,508.18 551.41,524.39 C548.48,540.60 545.78,555.01 545.43,556.43 L 544.79 558.96 C539.06,558.84 537.78,558.41 536.58,557.09 ZM 321.61 557.12 C320.00,555.35 320.16,553.96 324.38,531.87 C326.84,519.02 329.60,504.23 330.53,499.00 C331.78,491.97 332.25,488.44 334.27,486.70 C336.46,484.82 340.48,485.05 349.29,485.22 L 363.50 485.50 L 363.37 491.00 C363.35,491.72 363.19,493.15 362.91,495.13 C362.48,494.16 360.38,494.00 352.52,494.00 C342.47,494.00 342.02,494.09 341.52,496.25 C340.61,500.18 334.18,535.12 332.54,545.00 C331.68,550.22 330.74,555.51 330.47,556.75 C330.01,558.79 330.12,558.98 337.10,559.00 C336.64,559.00 336.16,559.00 335.65,559.00 C324.85,559.00 323.10,558.77 321.61,557.12 ZM 641.00 500.05 C641.00,487.92 640.89,477.66 640.75,477.25 C640.61,476.84 643.32,476.37 646.77,476.20 L 653.04 475.90 L 652.77 498.70 L 652.50 521.50 L 646.75 521.80 L 641.00 522.10 ZM 466.09 519.61 C463.31,535.19 460.30,551.08 459.38,554.24 C458.85,556.07 458.21,557.20 456.63,557.91 C458.28,557.12 459.01,555.81 459.52,553.68 C459.73,552.77 463.07,535.43 466.09,519.61 ZM 359.85 513.32 C359.12,517.32 358.31,521.59 357.47,525.90 C354.93,538.83 353.21,546.93 351.94,551.67 C353.19,546.98 354.88,539.01 357.35,526.31 C358.25,521.72 359.10,517.30 359.85,513.32 ZM 504.55 558.87 C507.47,558.56 509.99,558.01 510.92,557.25 C511.23,557.00 511.52,556.65 511.81,556.11 C511.52,556.65 511.23,557.00 510.93,557.25 C509.74,558.21 508.27,558.67 504.55,558.87 ZM 564.15 557.74 C564.39,557.59 564.61,557.43 564.82,557.25 C566.38,555.91 567.68,550.85 571.60,530.20 C567.72,550.81 566.44,555.86 564.82,557.25 C564.61,557.43 564.39,557.59 564.15,557.74 ZM 402.32 558.17 C401.25,558.59 399.63,558.81 396.75,558.91 C399.25,558.79 401.13,558.54 402.32,558.17 Z" fill="rgba(189,206,205,1)"/>
<path d="M 288.25 567.43 C282.61,562.72 278.00,558.42 278.00,557.87 C278.00,556.84 297.17,509.58 307.76,484.50 L 313.67 470.50 L 571.34 469.50 L 588.36 439.00 L 641.10 439.00 L 640.50 449.50 L 621.00 449.77 L 601.50 450.04 L 597.67 472.27 C592.83,500.38 580.03,575.42 580.01,575.75 C580.00,575.89 516.66,576.00 439.25,575.99 L 298.50 575.99 ZM 701.71 606.28 C701.46,605.85 700.70,603.70 700.01,601.50 C697.60,593.80 692.65,585.89 686.92,580.59 C676.03,570.50 667.93,568.03 645.75,568.01 L 630.00 568.00 L 630.00 522.00 C630.00,477.55 629.94,476.00 628.11,476.00 C626.28,476.00 626.24,477.08 626.75,507.25 C627.04,524.44 626.94,545.14 626.54,553.25 L 625.79 568.00 L 609.00 568.00 L 609.00 471.03 L 614.84 464.50 L 654.71 464.50 C691.55,464.50 694.80,464.64 697.36,466.31 C700.50,468.37 700.70,468.70 717.18,498.00 C723.83,509.83 729.95,520.27 730.76,521.22 C731.58,522.16 735.16,524.40 738.71,526.18 C746.37,530.03 748.00,532.60 748.00,540.83 L 748.00 546.77 L 741.37 547.19 C732.31,547.77 731.00,549.41 731.00,560.16 C731.00,572.33 733.91,576.00 743.55,576.00 L 748.00 576.00 L 748.00 590.92 L 729.50 591.50 L 728.50 606.50 L 715.33 606.78 C708.08,606.93 701.95,606.71 701.71,606.28 ZM 718.12 532.25 C718.71,530.74 718.98,526.80 718.72,523.50 C718.30,518.17 717.13,515.49 708.22,499.50 C702.70,489.60 696.89,479.70 695.30,477.50 L 692.42 473.50 L 666.08 473.23 C647.49,473.04 639.34,473.30 638.37,474.11 C636.45,475.70 636.35,522.22 638.27,523.81 C639.04,524.45 648.16,524.98 661.66,525.18 L 683.80 525.50 L 688.22 530.25 L 692.64 535.00 L 717.05 535.00 ZM 351.48 560.42 C352.81,559.55 354.35,557.41 354.91,555.67 C356.21,551.57 368.00,490.58 368.00,487.93 C368.00,486.82 366.86,484.77 365.47,483.38 C362.97,480.87 362.82,480.86 348.38,481.18 C334.05,481.49 333.79,481.54 331.55,484.15 C329.92,486.04 328.77,489.61 327.52,496.65 C326.56,502.07 323.80,516.83 321.39,529.46 C318.97,542.09 317.00,553.65 317.00,555.14 C317.00,556.88 317.94,558.60 319.63,559.93 C322.00,561.79 323.63,562.00 335.67,562.00 C346.21,562.00 349.59,561.66 351.48,560.42 ZM 460.41 558.92 C461.83,557.23 463.00,555.52 463.00,555.12 C463.00,554.72 465.70,540.24 469.00,522.95 C472.30,505.65 475.00,490.12 475.00,488.44 C475.00,482.13 473.66,481.54 458.48,481.17 C439.51,480.71 437.19,481.96 435.55,493.50 C435.16,496.25 432.40,511.46 429.41,527.29 C423.77,557.16 423.71,558.56 427.76,560.93 C428.72,561.48 435.87,561.95 443.66,561.97 L 457.82 562.00 ZM 405.04 560.98 C406.09,560.41 407.37,559.17 407.88,558.22 C409.45,555.28 422.09,487.87 421.45,485.85 C420.09,481.57 417.01,480.83 402.08,481.17 C393.83,481.37 389.41,481.18 386.61,483.22 C382.96,485.89 382.08,492.37 379.08,508.50 C376.82,520.60 373.94,535.94 372.66,542.60 C370.26,555.13 370.44,558.26 373.73,560.75 C375.78,562.30 402.21,562.50 405.04,560.98 ZM 567.50 559.59 C568.83,558.26 570.15,556.12 570.44,554.84 C572.27,546.56 583.00,488.74 583.00,487.13 C583.00,486.04 581.77,484.18 580.28,483.00 C577.73,481.00 576.62,480.88 563.30,481.18 C550.55,481.47 548.84,481.71 547.02,483.53 C545.40,485.15 543.67,492.36 538.50,519.03 C534.92,537.43 532.00,553.58 532.00,554.93 C532.00,556.27 532.98,558.41 534.17,559.69 C536.25,561.90 536.99,562.00 550.72,562.00 C564.58,562.00 565.18,561.91 567.50,559.59 ZM 513.59 559.68 C516.12,557.50 516.70,555.24 522.61,524.43 C526.09,506.32 528.95,490.07 528.97,488.32 C528.99,486.06 528.24,484.55 526.37,483.07 C524.03,481.23 522.36,481.00 511.51,481.00 C498.53,481.00 493.59,482.04 491.94,485.11 C491.05,486.77 478.00,553.16 478.00,556.02 C478.00,556.61 479.10,558.20 480.45,559.55 C482.83,561.92 483.38,562.00 496.90,562.00 C510.10,562.00 511.04,561.87 513.59,559.68 ZM 545.43 556.43 C545.78,555.01 548.48,540.60 551.41,524.39 C554.35,508.18 556.92,494.77 557.13,494.59 C557.33,494.41 562.38,494.01 568.33,493.69 C577.72,493.20 579.09,493.32 578.59,494.63 C578.27,495.45 575.50,509.49 572.43,525.82 C567.86,550.15 566.49,555.82 564.82,557.25 C563.20,558.64 560.91,559.00 553.78,559.00 L 544.78 559.00 ZM 330.47 556.75 C330.74,555.51 331.68,550.22 332.54,545.00 C334.18,535.12 340.61,500.18 341.52,496.25 C342.02,494.09 342.47,494.00 352.52,494.00 C361.63,494.00 363.00,494.22 363.00,495.67 C363.00,496.58 360.46,510.37 357.35,526.31 C353.16,547.83 351.23,555.77 349.85,557.15 C348.32,558.68 346.43,559.00 338.98,559.00 C330.15,559.00 329.97,558.95 330.47,556.75 ZM 491.33 557.59 C491.63,556.81 494.42,542.52 497.55,525.84 C500.67,509.15 503.51,495.20 503.86,494.83 C504.21,494.47 509.11,494.02 514.75,493.83 C520.38,493.65 524.99,493.50 524.99,493.50 C524.98,493.50 522.30,507.45 519.02,524.50 C513.97,550.76 512.74,555.77 510.92,557.25 C508.06,559.58 490.45,559.89 491.33,557.59 ZM 438.00 558.25 C437.98,555.95 449.30,495.39 449.84,494.83 C450.34,494.33 471.01,493.12 471.00,493.60 C471.00,494.03 459.92,552.00 459.52,553.68 C458.45,558.14 456.43,559.00 446.93,559.00 C442.02,559.00 438.00,558.66 438.00,558.25 ZM 384.39 556.25 C384.70,554.74 387.01,541.80 389.53,527.50 C392.05,513.20 394.56,499.81 395.10,497.75 L 396.08 494.00 L 404.29 493.88 C413.57,493.75 415.20,493.88 416.22,494.85 C416.62,495.23 414.32,509.22 411.11,525.93 C406.54,549.78 404.89,556.61 403.45,557.66 C402.24,558.54 398.58,559.00 392.73,559.00 L 383.84 559.00 ZM 691.64 611.86 C690.33,599.31 681.82,587.24 670.50,581.85 L 664.50 579.00 L 609.00 579.00 L 609.00 571.89 L 638.28 572.19 L 667.55 572.50 L 674.18 575.77 C685.24,581.21 694.31,592.55 697.43,604.81 L 698.62 609.50 L 709.56 610.12 C715.58,610.47 722.44,610.80 724.81,610.87 C729.06,611.00 729.12,611.05 728.81,614.25 L 728.50 617.50 L 710.39 617.77 L 692.29 618.04 ZM 593.54 521.06 C593.22,520.54 593.25,518.29 593.61,516.06 L 594.26 512.00 L 605.00 512.00 L 605.00 522.00 L 599.56 522.00 C596.57,522.00 593.86,521.58 593.54,521.06 ZM 660.42 543.39 C661.29,543.06 662.00,542.16 662.00,541.39 C662.00,540.28 659.66,540.00 650.50,540.00 C641.25,540.00 639.00,540.28 639.00,541.42 C639.00,542.20 639.56,543.06 640.25,543.34 C642.06,544.07 658.55,544.11 660.42,543.39 Z" fill="rgba(239,240,240,1)"/>
<path d="M 736.53 570.39 C735.25,569.11 734.98,567.02 735.21,560.14 L 735.50 551.50 L 741.75 551.20 L 748.00 550.90 L 748.00 561.45 L 748.00 572.00 L 743.07 572.00 C739.88,572.00 737.58,571.43 736.53,570.39 Z" fill="rgba(254,198,120,1)"/>
</g>
</svg>