<svg xmlns="http://www.w3.org/2000/svg" width="1024" height="1024" viewBox="0 0 1024 1024">
<g>
<path d="M 149.55 782.08 C149.23,781.57 148.91,707.08 148.82,616.54 L 148.67 451.93 L 151.99 448.51 C155.18,445.22 156.38,444.71 163.97,443.46 C165.88,443.15 167.51,442.81 167.60,442.70 C167.68,442.59 170.87,435.98 174.69,428.00 C178.50,420.02 185.24,406.98 189.66,399.00 C226.41,332.68 262.58,291.68 308.49,264.31 L 319.79 257.57 L 320.42 252.01 C321.63,241.33 327.50,235.70 336.91,236.21 L 342.33 236.50 L 343.63 230.77 C351.38,196.90 383.52,194.07 393.97,226.33 C395.03,229.62 395.54,230.08 397.50,229.59 C413.34,225.61 460.54,218.66 499.96,214.49 C508.46,213.59 515.74,212.66 516.12,212.42 C516.51,212.19 517.15,210.09 517.54,207.77 C518.60,201.47 523.45,197.00 529.22,197.00 L 533.63 197.00 L 535.30 191.72 C542.17,169.92 565.08,169.57 571.44,191.17 C572.68,195.41 572.82,195.51 577.66,196.01 C583.97,196.66 587.50,198.99 589.17,203.60 L 590.49 207.24 L 596.99 206.65 C600.57,206.32 614.53,205.12 628.00,203.97 C676.37,199.84 677.19,199.72 690.52,194.42 C724.60,180.88 777.11,150.85 808.72,126.83 C823.09,115.91 825.28,116.75 820.46,131.31 C813.28,153.02 795.91,177.98 777.17,193.50 C773.85,196.25 770.92,199.01 770.64,199.64 C770.28,200.47 776.40,200.95 792.82,201.38 C847.37,202.82 873.29,203.89 874.13,204.73 C874.67,205.27 874.93,257.40 874.77,333.07 L 874.50 460.50 L 871.69 469.46 C865.55,489.08 853.92,507.08 835.50,525.50 C804.98,556.02 765.03,579.78 687.50,613.52 C639.07,634.59 620.72,644.93 607.00,658.88 C597.13,668.91 593.62,675.81 593.15,686.13 C592.56,698.91 593.58,700.33 614.64,716.26 C642.80,737.54 651.85,746.91 658.96,762.11 C662.20,769.02 664.37,778.26 663.44,781.18 C662.89,782.93 653.33,783.00 406.49,783.00 C250.74,783.00 149.89,782.64 149.55,782.08 ZM 155.00 627.71 L 155.00 777.00 L 218.86 777.00 L 215.77 769.41 C213.27,763.26 211.96,761.37 208.85,759.41 C199.11,753.26 196.48,741.33 201.39,725.58 C204.78,714.72 204.70,710.44 201.00,702.00 C196.31,691.32 197.40,686.00 204.26,686.00 C206.72,686.00 208.48,687.13 212.54,691.32 C221.39,700.46 222.92,709.31 218.52,726.05 C217.15,731.25 216.03,738.33 216.02,741.79 C216.00,748.44 219.64,765.00 221.12,765.00 C221.61,765.00 222.00,761.46 222.00,757.13 C222.00,752.80 222.96,743.91 224.14,737.38 C227.95,716.29 226.21,691.29 220.60,686.54 C216.78,683.31 216.00,680.73 216.01,671.32 C216.01,657.19 218.47,652.00 225.14,652.00 C232.43,652.00 234.00,655.27 234.00,670.39 C234.00,680.91 233.81,682.11 231.72,684.54 L 229.45 687.18 L 231.19 697.34 C233.51,710.87 233.43,720.80 230.92,733.21 C228.61,744.58 227.11,769.00 228.72,769.00 C230.03,769.00 238.54,750.76 240.06,744.69 C241.62,738.47 240.77,729.80 237.98,723.50 C235.02,716.81 234.27,706.58 236.30,700.62 C239.99,689.80 251.15,681.55 255.80,686.20 C257.75,688.15 257.18,694.63 254.50,701.00 C251.23,708.78 251.35,712.35 255.19,721.72 C257.84,728.16 258.40,730.88 258.44,737.50 C258.53,749.89 254.09,756.96 242.33,763.20 C239.24,764.84 237.41,766.72 235.99,769.74 C234.91,772.04 233.79,773.62 234.15,774.69 C235.02,777.31 244.67,777.00 285.00,777.00 C313.05,777.00 336.00,776.78 336.00,776.52 C336.00,776.25 334.57,773.13 332.81,769.58 C330.51,764.90 328.68,762.61 326.22,761.31 C320.33,758.18 318.46,751.89 321.60,745.80 C323.11,742.89 323.08,742.49 321.10,738.97 C316.81,731.32 319.18,724.00 325.95,724.00 C329.09,724.00 330.36,724.64 332.85,727.48 C337.33,732.58 338.71,738.00 337.02,743.84 C334.76,751.63 334.63,756.75 336.57,761.83 L 338.36 766.50 L 339.25 763.50 C339.74,761.85 340.35,752.49 340.61,742.69 L 341.08 724.89 L 338.54 721.87 C336.26,719.15 336.00,717.99 336.00,710.38 C336.00,702.72 336.23,701.67 338.45,699.45 C341.76,696.15 345.47,696.32 349.08,699.92 C351.78,702.63 352.00,703.40 352.00,710.28 C352.00,716.35 351.58,718.34 349.73,721.11 C348.48,722.97 347.52,725.06 347.60,725.75 C347.68,726.44 347.83,728.91 347.92,731.25 L 348.09 735.50 L 350.02 731.84 C351.09,729.83 353.15,727.24 354.61,726.09 C357.83,723.56 363.62,723.34 366.17,725.65 C368.40,727.68 368.57,733.00 366.52,736.97 C365.21,739.50 365.21,740.17 366.51,742.67 C368.38,746.26 368.39,749.34 366.54,752.93 C364.87,756.16 359.98,760.56 357.01,761.50 C355.90,761.85 355.00,762.77 355.00,763.54 C355.00,764.31 353.88,767.49 352.50,770.60 C351.12,773.71 350.00,776.42 350.00,776.62 C350.00,776.83 370.46,777.00 395.46,777.00 L 440.93 777.00 L 436.99 768.85 C433.49,761.63 432.47,760.37 427.98,757.80 C425.20,756.21 422.04,753.47 420.96,751.71 C418.43,747.56 418.46,741.40 421.03,737.19 L 423.05 733.87 L 421.02 731.02 C417.83,726.54 417.50,722.91 419.99,719.73 C421.74,717.51 422.95,717.00 426.45,717.00 C430.25,717.00 431.21,717.51 434.84,721.44 C439.98,727.02 440.76,729.98 438.64,735.90 C436.54,741.76 436.57,742.64 439.00,745.73 C441.13,748.44 441.56,752.41 440.12,756.19 C439.48,757.86 439.83,759.98 441.37,763.76 C445.23,773.24 445.78,770.36 443.83,751.08 C442.92,742.10 442.94,737.04 443.90,728.25 L 445.14 716.95 L 442.63 713.97 C439.75,710.55 438.55,704.41 439.21,696.45 C439.81,689.23 442.67,685.99 448.42,686.02 C453.03,686.03 453.92,686.48 456.31,689.97 C457.56,691.80 458.00,694.58 458.00,700.66 C458.00,709.81 457.26,712.54 453.74,716.33 C450.37,719.97 448.51,736.74 449.99,750.16 C450.56,755.30 451.13,762.19 451.26,765.48 L 451.50 771.45 L 454.75 765.34 C458.55,758.18 458.80,754.33 456.01,746.03 C453.01,737.14 454.64,731.26 461.94,724.67 C468.58,718.68 475.03,720.34 476.55,728.42 C477.09,731.30 476.62,733.01 474.00,737.65 C470.87,743.21 470.83,743.42 472.40,746.70 C473.28,748.55 474.00,751.90 474.00,754.13 C474.00,757.43 473.35,758.85 470.59,761.61 C468.72,763.48 465.89,765.27 464.30,765.59 C462.16,766.02 460.71,767.42 458.71,770.98 C457.22,773.63 456.00,776.07 456.00,776.40 C456.00,776.73 501.28,777.00 556.63,777.00 L 657.26 777.00 L 656.60 772.92 C655.87,768.35 652.28,760.76 647.65,754.01 C642.50,746.50 631.41,736.48 612.50,722.25 C590.59,705.77 585.59,701.69 576.16,692.58 C566.60,683.35 560.67,675.63 556.71,667.27 C553.84,661.21 553.50,659.55 553.50,651.50 C553.50,643.32 553.82,641.82 556.99,635.00 C559.79,628.99 562.17,625.85 568.98,619.21 C581.59,606.91 598.76,596.11 626.72,582.90 C643.52,574.96 643.80,574.84 650.25,572.34 C652.86,571.33 654.99,570.16 655.00,569.75 C655.00,569.34 655.67,569.00 656.49,569.00 C658.39,569.00 731.93,539.81 748.77,532.37 C762.39,526.36 777.18,519.15 778.00,518.12 C778.28,517.78 781.95,515.79 786.16,513.70 C790.37,511.61 798.25,506.94 803.66,503.33 C853.55,470.05 857.31,433.28 813.79,404.31 C801.65,396.23 786.48,389.36 765.50,382.45 C744.54,375.55 708.25,367.00 685.50,363.62 C683.30,363.29 674.53,361.92 666.00,360.56 C648.63,357.81 620.59,353.93 614.50,353.44 C612.30,353.26 609.38,352.87 608.00,352.57 C606.62,352.27 596.95,350.62 586.50,348.89 C557.04,344.04 536.96,337.53 533.92,331.86 C533.20,330.50 532.92,326.27 533.18,320.37 C533.56,311.68 533.79,310.82 536.55,307.88 C542.35,301.67 560.43,294.99 602.50,283.47 C679.18,262.49 713.19,249.49 735.79,232.50 C746.63,224.35 754.94,212.90 755.01,206.00 C755.04,202.57 755.58,201.96 763.00,197.02 C770.84,191.79 790.64,172.18 797.83,162.50 C803.15,155.33 814.75,133.41 813.74,132.41 C813.43,132.10 809.87,134.30 805.82,137.30 C793.75,146.22 773.54,159.21 756.50,169.01 C737.25,180.07 701.05,197.95 691.89,200.92 C688.17,202.13 684.24,204.19 682.89,205.64 C678.20,210.68 659.48,221.74 645.75,227.58 C642.60,228.92 637.65,231.12 634.75,232.47 C628.42,235.43 603.85,243.83 588.00,248.47 C569.86,253.77 519.43,266.84 507.00,269.46 C494.62,272.07 463.49,280.01 461.75,281.01 C460.79,281.56 458.54,282.20 456.75,282.43 C451.85,283.06 421.55,292.21 421.16,293.17 C420.98,293.63 420.40,293.75 419.87,293.42 C419.34,293.09 417.82,293.54 416.49,294.41 C415.16,295.29 413.30,296.00 412.37,296.00 C409.91,296.00 384.07,306.47 373.50,311.74 C361.46,317.76 348.99,325.95 343.43,331.52 C337.64,337.30 333.77,345.27 335.08,348.70 C337.97,356.31 347.84,364.48 364.25,372.86 C387.74,384.85 424.37,395.55 476.00,405.48 C498.77,409.87 518.71,414.55 525.60,417.12 C532.10,419.56 538.51,424.14 540.90,428.08 C542.93,431.41 544.88,442.19 545.14,451.50 C545.31,457.71 542.67,464.96 539.60,466.70 C538.82,467.14 536.68,468.85 534.84,470.50 C530.33,474.55 505.60,486.76 498.50,488.44 C496.85,488.83 494.15,489.73 492.50,490.44 C486.12,493.17 444.14,505.75 425.00,510.66 C419.77,512.00 414.12,513.73 412.44,514.50 C410.76,515.28 407.84,516.09 405.94,516.32 C402.31,516.74 379.91,522.52 376.50,523.90 C375.40,524.35 371.12,525.51 367.00,526.48 C362.88,527.45 359.05,528.59 358.50,529.01 C357.95,529.43 355.92,530.09 354.00,530.48 C347.14,531.89 328.48,537.23 327.42,538.09 C326.82,538.57 324.79,539.17 322.92,539.42 C319.14,539.93 282.70,551.71 276.45,554.45 C274.28,555.40 271.31,556.81 269.85,557.59 C268.39,558.37 266.56,559.00 265.80,559.00 C263.41,559.00 237.16,570.76 222.35,578.47 C198.65,590.80 178.86,604.71 162.25,620.73 L 155.00 627.71 ZM 155.73 583.39 C156.08,583.75 157.75,582.73 159.43,581.12 C168.96,572.08 200.65,552.32 221.00,542.74 C265.26,521.91 299.46,511.30 394.31,488.94 C432.82,479.87 461.52,472.37 479.00,466.81 C512.35,456.20 536.00,442.74 536.00,434.37 C536.00,426.17 523.34,421.15 483.25,413.46 C394.52,396.42 349.39,379.35 331.77,356.16 C320.31,341.08 321.95,326.15 336.75,310.81 C348.60,298.52 370.69,285.88 395.82,277.02 C402.54,274.65 407.77,272.44 407.44,272.11 C407.11,271.77 388.55,271.27 366.21,271.00 L 325.57 270.50 L 324.04 267.50 C323.19,265.85 322.41,264.33 322.30,264.13 C321.96,263.52 311.14,269.84 301.50,276.26 C256.66,306.17 218.38,354.71 182.37,427.33 C177.76,436.61 174.00,444.83 174.00,445.60 C174.00,448.72 176.77,446.72 177.95,442.75 C180.94,432.75 188.30,423.16 195.50,419.87 C201.13,417.30 211.10,417.39 216.62,420.06 C225.58,424.40 232.73,435.88 235.66,450.62 C236.63,455.50 237.48,459.62 237.56,459.76 C237.63,459.91 239.32,459.35 241.31,458.51 C243.31,457.68 247.56,457.00 250.77,457.00 C258.62,457.00 264.71,460.74 268.11,467.64 C271.55,474.63 271.47,488.84 267.94,497.50 L 265.49 503.50 L 210.22 503.76 L 154.96 504.02 L 155.02 543.39 C155.06,565.04 155.38,583.04 155.73,583.39 ZM 865.59 411.82 C867.19,414.67 868.61,417.00 868.75,417.00 C868.89,417.00 869.00,400.35 869.00,380.00 L 869.00 343.00 L 825.25 342.90 C801.19,342.85 780.38,342.49 779.00,342.11 C775.05,341.02 771.65,331.58 771.56,321.50 C771.51,314.73 771.88,312.83 773.99,309.15 C778.55,301.19 789.38,297.56 796.92,301.46 C800.29,303.20 801.00,302.69 801.00,298.51 C801.00,296.78 801.72,292.92 802.61,289.93 C807.27,274.20 815.83,266.07 827.79,266.02 C838.77,265.98 847.12,273.88 852.37,289.31 C852.94,290.98 853.16,291.00 855.21,289.56 C856.61,288.58 859.60,288.00 863.22,288.00 L 869.00 288.00 L 869.00 210.30 L 858.75 209.65 C853.11,209.29 828.81,208.70 804.75,208.33 C761.43,207.68 761.00,207.70 761.00,209.68 C761.00,210.78 759.64,214.41 757.97,217.74 C754.36,224.97 744.05,235.17 733.00,242.44 C711.07,256.87 674.37,270.36 606.50,288.94 C592.20,292.85 574.88,297.86 568.00,300.07 C554.19,304.50 541.50,310.69 541.50,312.99 C541.50,313.80 543.71,315.52 546.41,316.80 C558.23,322.41 583.37,327.05 642.00,334.45 C690.66,340.59 704.82,342.60 724.00,346.08 C777.65,355.83 812.23,367.22 836.78,383.25 C846.10,389.33 861.59,404.69 865.59,411.82 ZM 579.16 687.50 L 586.50 694.50 L 587.10 685.78 C587.96,673.22 591.58,666.25 603.41,654.38 C618.87,638.87 632.85,630.90 684.50,608.16 C735.41,585.75 752.83,577.13 778.50,561.68 C822.88,534.96 854.21,502.26 864.56,471.82 C875.43,439.86 865.65,411.34 836.85,391.01 C825.22,382.79 796.32,369.07 793.85,370.59 C793.38,370.88 793.00,370.72 793.00,370.23 C793.00,369.20 790.59,368.39 771.50,363.03 C744.11,355.33 705.71,348.62 651.29,342.00 C589.09,334.44 555.69,328.46 544.88,322.94 C539.60,320.24 539.00,320.45 539.00,324.98 C539.00,328.58 539.36,329.14 542.81,330.90 C555.33,337.29 578.11,342.03 629.50,348.94 C669.77,354.35 690.32,357.68 716.50,363.06 C793.02,378.75 838.09,403.64 847.97,435.65 C852.75,451.10 848.27,468.67 835.59,484.24 C829.15,492.14 813.52,504.89 800.30,513.04 C777.60,527.02 756.14,536.82 696.15,560.61 C642.20,582.00 624.87,589.76 602.00,602.79 C553.62,630.35 546.59,656.45 579.16,687.50 ZM 155.07 592.50 L 155.00 618.21 L 162.75 611.29 C178.21,597.48 195.30,585.65 215.50,574.79 C254.97,553.58 297.88,538.41 384.50,515.01 C444.59,498.79 458.91,494.69 480.77,487.45 C508.92,478.13 525.69,470.28 533.40,462.81 L 539.00 457.39 L 539.00 451.19 C539.00,447.79 538.70,445.00 538.34,445.00 C537.98,445.00 535.26,446.83 532.30,449.06 C514.04,462.85 482.72,473.83 415.50,489.99 C348.71,506.05 319.86,513.39 300.00,519.38 C240.36,537.37 196.72,558.55 163.53,585.61 L 155.07 592.50 ZM 155.00 476.58 L 155.00 498.00 L 261.10 498.00 L 262.69 494.25 C265.17,488.38 265.59,477.84 263.56,472.53 C260.99,465.80 257.09,463.00 250.28,463.00 C244.93,463.00 244.52,463.19 239.68,468.04 C232.51,475.20 231.63,474.65 230.89,462.48 C229.96,447.20 226.97,438.29 220.27,430.88 C215.51,425.60 212.18,424.00 206.00,424.00 C199.77,424.00 196.50,425.60 191.56,431.06 C186.79,436.35 184.29,441.97 182.45,451.60 C181.65,455.78 180.75,459.60 180.44,460.10 C179.37,461.83 177.03,460.98 175.34,458.25 C171.29,451.71 168.89,450.00 163.81,450.00 C161.17,450.00 159.00,450.45 159.00,451.00 C159.00,451.55 158.37,452.00 157.61,452.00 C156.84,452.00 155.94,452.71 155.61,453.58 C155.27,454.45 155.00,464.80 155.00,476.58 ZM 418.47 267.25 C417.56,269.59 418.00,269.53 431.68,265.64 C446.17,261.52 481.93,252.96 516.00,245.46 C547.66,238.49 594.96,226.58 615.21,220.48 C635.67,214.32 649.00,209.88 649.00,209.24 C649.00,208.70 646.11,208.89 613.50,211.58 C594.94,213.11 591.23,213.30 590.18,215.08 C589.85,215.63 589.79,216.33 589.61,217.28 C589.27,219.09 588.29,221.57 587.44,222.78 C585.90,224.99 585.70,225.00 556.57,225.00 C540.44,225.00 525.84,224.72 524.11,224.37 C521.92,223.93 520.79,223.03 520.38,221.37 C520.05,220.07 519.33,219.00 518.78,219.00 C510.98,219.00 436.03,228.73 417.41,232.17 L 411.21 233.31 L 414.15 235.78 C422.01,242.39 423.61,254.05 418.47,267.25 ZM 779.85 333.75 L 781.07 336.00 L 869.00 336.00 L 869.00 315.61 C869.00,300.30 869.10,295.82 867.12,294.52 C866.21,293.93 864.85,294.00 862.85,294.00 C858.80,294.00 856.31,295.49 854.48,299.03 C851.75,304.33 848.44,302.59 847.02,295.12 C844.45,281.53 836.65,272.00 828.11,272.00 C815.62,272.00 807.00,286.05 807.00,306.43 C807.00,311.42 806.56,314.12 805.63,314.89 C803.79,316.42 801.58,315.45 799.95,312.41 C798.25,309.23 793.03,306.00 789.58,306.00 C785.57,306.00 781.24,308.64 779.40,312.19 C777.50,315.87 777.79,329.94 779.85,333.75 ZM 328.45 261.53 L 329.90 265.00 L 412.76 265.00 L 413.88 260.56 C415.43,254.40 415.28,249.74 413.38,244.99 C410.48,237.73 404.41,236.83 397.92,242.69 C393.12,247.02 390.66,246.45 390.25,240.90 C388.54,217.91 377.46,205.60 363.64,211.38 C356.13,214.52 350.19,226.02 349.26,239.25 C348.55,249.35 347.32,250.43 342.00,245.62 C337.06,241.16 333.87,240.98 329.92,244.92 C327.46,247.39 327.00,248.64 327.00,252.96 C327.00,255.77 327.65,259.62 328.45,261.53 ZM 331.41 332.00 L 330.72 336.50 L 334.83 331.39 C345.91,317.63 373.76,302.35 411.29,289.46 C435.56,281.12 454.68,275.76 497.00,265.41 C569.47,247.68 598.19,239.59 624.52,229.47 C640.37,223.37 658.47,215.14 657.71,214.37 C657.43,214.09 648.49,216.63 637.85,220.00 C613.95,227.58 593.51,233.36 567.50,239.90 C547.75,244.86 539.06,246.87 491.03,257.59 C463.36,263.76 433.57,271.36 417.41,276.35 C366.32,292.16 334.36,312.84 331.41,332.00 ZM 525.04 216.07 C526.02,217.91 527.42,218.00 554.50,218.00 L 582.92 218.00 L 584.04 213.85 C586.55,204.52 580.01,198.55 573.69,204.42 C569.22,208.55 567.90,207.21 566.54,197.16 C565.32,188.19 560.20,181.60 554.46,181.60 C547.39,181.60 541.39,189.67 540.29,200.66 C539.50,208.51 538.00,209.59 533.59,205.50 C530.45,202.58 528.37,202.36 525.83,204.65 C523.78,206.51 523.34,212.89 525.04,216.07 ZM 288.59 690.50 C285.29,693.02 282.54,693.69 281.62,692.20 C281.22,691.54 280.70,675.66 280.94,671.36 C281.08,668.77 284.47,669.00 288.48,671.88 L 292.59 674.83 L 298.54 672.81 C308.86,669.31 319.32,671.51 324.34,678.25 L 326.39 681.00 L 324.35 683.75 C319.16,690.75 309.65,693.25 300.24,690.08 C295.62,688.52 293.77,687.90 292.18,688.30 C291.12,688.56 290.18,689.29 288.59,690.50 ZM 402.75 697.75 C401.39,699.46 401.10,699.39 396.14,696.10 L 391.77 693.20 L 387.64 695.08 C379.20,698.91 366.81,696.86 361.13,690.69 C353.32,682.21 372.35,673.29 386.61,678.74 L 391.71 680.70 L 395.59 677.81 C397.72,676.22 400.37,675.05 401.48,675.21 C403.35,675.48 403.51,676.28 403.62,686.00 C403.69,691.78 403.30,697.06 402.75,697.75 ZM 346.60 659.82 C344.17,661.57 341.96,663.00 341.71,663.00 C339.91,663.00 339.22,659.17 339.35,650.01 C339.53,637.74 340.41,636.83 347.36,641.76 L 351.50 644.70 L 355.50 642.88 C360.47,640.61 369.76,640.45 374.77,642.55 C385.69,647.11 385.72,654.29 374.83,658.98 C368.70,661.61 360.96,661.40 354.76,658.43 L 351.03 656.64 ZM 245.08 748.98 L 243.17 755.13 L 245.33 753.75 C246.53,752.99 248.77,749.92 250.33,746.93 C253.85,740.17 253.57,734.97 249.08,723.83 C245.20,714.17 245.04,707.78 248.49,698.62 C249.86,694.98 250.62,692.00 250.18,692.00 C248.90,692.00 244.38,697.20 242.61,700.70 C240.16,705.57 240.62,712.56 244.00,721.84 C247.60,731.70 247.92,739.85 245.08,748.98 ZM 207.25 748.00 L 209.50 751.50 L 210.14 740.00 C210.55,732.60 211.53,726.18 212.88,722.00 C215.28,714.59 215.51,710.42 213.82,704.79 C212.65,700.88 205.71,692.00 204.64,693.04 C204.33,693.34 205.24,696.04 206.66,699.04 C210.54,707.24 210.83,716.24 207.57,726.93 C204.35,737.49 204.26,743.33 207.25,748.00 ZM 286.80 366.80 C285.17,368.43 284.60,368.32 282.51,366.01 C280.99,364.33 280.81,362.95 281.35,357.13 C281.70,353.34 282.91,347.26 284.04,343.62 C285.81,337.87 286.39,337.00 288.48,337.00 C292.02,337.00 292.27,338.26 290.03,344.92 C288.72,348.79 288.00,353.55 288.00,358.27 C288.00,362.64 287.52,366.08 286.80,366.80 ZM 762.39 274.42 C760.89,278.34 756.00,274.60 756.00,269.52 C756.00,264.37 758.69,251.50 760.50,248.01 C761.68,245.71 762.70,244.96 764.31,245.19 C766.92,245.56 767.03,248.41 764.65,254.50 C763.77,256.74 763.07,261.65 763.04,265.67 C763.02,269.61 762.73,273.55 762.39,274.42 ZM 637.80 318.80 C636.38,320.22 635.95,320.25 634.14,319.11 C632.03,317.77 631.68,310.22 633.36,302.25 C635.24,293.35 636.94,289.63 639.36,289.17 C642.78,288.51 643.21,290.45 641.06,296.83 C639.72,300.79 639.00,305.51 639.00,310.27 C639.00,314.64 638.52,318.08 637.80,318.80 ZM 431.50 752.83 C432.60,753.44 433.84,753.95 434.25,753.97 C435.73,754.03 434.96,750.22 433.00,747.73 C430.62,744.70 430.42,739.63 432.50,734.65 C433.42,732.45 433.92,731.45 433.79,730.53 C433.65,729.55 432.77,728.67 430.90,726.53 C425.94,720.89 422.21,722.18 426.53,728.05 C429.52,732.09 429.65,735.42 427.00,739.77 C423.58,745.38 424.88,749.17 431.50,752.83 ZM 338.85 445.99 C338.46,448.77 335.88,449.78 334.27,447.79 C333.70,447.08 332.90,444.48 332.51,442.00 C332.11,439.52 330.89,435.40 329.80,432.83 C327.43,427.25 327.73,424.61 330.77,424.18 C332.59,423.92 333.37,424.69 334.89,428.25 C337.32,433.91 339.30,442.80 338.85,445.99 ZM 329.34 448.82 C329.48,452.97 329.24,453.54 327.25,453.82 C326.01,454.00 324.80,453.55 324.56,452.82 C324.33,452.09 323.44,448.98 322.59,445.91 C321.73,442.83 320.09,439.12 318.94,437.66 C316.26,434.24 316.73,431.50 320.01,431.50 C322.05,431.50 323.11,432.65 325.84,437.82 C328.10,442.09 329.24,445.68 329.34,448.82 ZM 278.43 366.23 C277.22,370.04 272.00,367.15 272.00,362.67 C272.00,361.86 270.42,358.86 268.50,356.00 C266.58,353.14 265.00,350.22 265.00,349.51 C265.00,347.66 267.81,346.83 270.04,348.02 C273.92,350.10 279.62,362.47 278.43,366.23 ZM 753.36 274.78 C751.20,278.21 748.78,276.94 747.45,271.67 C747.07,270.12 745.19,266.59 743.28,263.81 C740.17,259.30 739.97,258.61 741.33,257.25 C743.41,255.16 745.38,256.16 748.97,261.11 C752.77,266.37 754.77,272.56 753.36,274.78 ZM 629.79 317.44 C629.39,320.26 625.46,320.73 624.07,318.13 C623.48,317.03 623.00,315.54 623.00,314.82 C623.00,314.11 621.37,311.16 619.39,308.27 C615.64,302.84 615.47,300.00 618.88,300.00 C622.67,300.00 630.50,312.50 629.79,317.44 ZM 369.25 689.01 C371.15,690.17 374.28,690.99 376.78,691.00 C381.44,691.00 388.00,688.71 388.00,687.09 C388.00,683.87 375.39,682.03 369.75,684.43 C367.69,685.31 366.00,686.25 366.00,686.53 C366.00,686.80 367.46,687.92 369.25,689.01 ZM 464.71 755.74 C464.21,758.35 465.75,758.34 467.41,755.72 C468.16,754.52 468.08,753.13 467.10,750.78 C464.54,744.57 464.60,741.35 467.39,736.59 C469.94,732.25 470.88,727.00 469.12,727.00 C468.63,727.00 466.61,728.80 464.62,731.00 C460.34,735.74 460.09,738.37 463.08,747.23 C464.22,750.63 464.96,754.45 464.71,755.74 ZM 299.75 683.43 C303.55,685.49 311.75,685.32 315.92,683.09 L 319.34 681.27 L 316.54 679.44 C313.14,677.21 304.88,676.92 300.25,678.87 C296.28,680.55 296.18,681.49 299.75,683.43 ZM 427.56 438.83 C426.35,443.59 424.43,445.03 422.23,442.83 C418.56,439.16 424.89,425.00 430.21,425.00 C433.08,425.00 433.41,427.61 430.97,431.04 C429.75,432.75 428.22,436.26 427.56,438.83 ZM 360.38 653.91 C365.06,655.27 368.68,655.16 372.53,653.55 C376.83,651.75 376.90,650.52 372.82,648.41 C369.41,646.65 360.70,647.02 356.83,649.09 C354.31,650.44 355.91,652.62 360.38,653.91 ZM 775.10 268.25 C773.96,271.21 770.35,272.07 769.40,269.60 C767.97,265.86 773.80,253.85 777.39,253.16 C781.11,252.45 781.56,254.74 778.79,260.26 C777.35,263.14 775.69,266.74 775.10,268.25 ZM 299.77 360.76 C299.45,361.99 298.58,362.96 297.84,362.92 C293.41,362.66 292.93,359.96 296.08,353.02 C298.61,347.43 300.77,345.00 303.19,345.00 C306.24,345.00 306.25,347.31 303.22,353.08 C301.65,356.08 300.09,359.53 299.77,360.76 ZM 447.64 710.49 C450.26,713.11 451.45,710.74 451.84,702.16 C452.13,695.83 451.89,694.15 450.51,693.01 C447.61,690.60 445.54,692.95 445.19,699.05 C444.82,705.42 445.44,708.29 447.64,710.49 ZM 650.77 312.76 C650.09,315.39 646.26,315.85 645.33,313.42 C643.84,309.53 649.88,297.74 653.66,297.20 C656.98,296.72 657.15,299.52 654.14,305.24 C652.61,308.14 651.09,311.53 650.77,312.76 ZM 223.59 681.15 C224.32,682.33 225.39,682.21 226.80,680.80 C228.06,679.54 228.53,662.55 227.39,659.58 C226.70,657.77 224.44,657.48 223.45,659.08 C222.68,660.33 222.80,679.87 223.59,681.15 ZM 352.94 448.75 C351.91,451.34 349.80,451.67 348.00,449.50 C347.00,448.30 347.13,446.90 348.63,442.33 C350.64,436.24 353.11,433.71 355.12,435.72 C356.29,436.89 355.29,442.83 352.94,448.75 ZM 354.01 754.25 C353.99,755.71 356.40,754.97 358.69,752.83 C361.31,750.36 361.61,746.69 359.50,743.00 C357.53,739.55 357.66,737.25 360.00,734.27 C362.36,731.27 362.53,730.00 360.57,730.00 C359.78,730.00 358.21,731.30 357.08,732.89 C355.15,735.59 355.12,736.03 356.51,739.36 C358.51,744.14 358.38,746.91 356.00,750.50 C354.91,752.15 354.01,753.84 354.01,754.25 ZM 417.80 436.83 C417.35,439.19 413.35,439.54 412.20,437.31 C411.68,436.31 410.97,433.87 410.61,431.89 C409.90,427.95 411.73,425.30 414.43,426.34 C416.02,426.94 418.32,434.11 417.80,436.83 ZM 346.07 761.95 C346.01,766.31 346.25,767.15 347.25,766.15 C348.03,765.37 348.50,762.02 348.50,757.20 C348.50,751.72 348.97,748.84 350.12,747.22 C351.60,745.12 351.60,744.58 350.12,740.45 L 348.50 735.96 L 347.32 746.23 C346.67,751.88 346.10,758.95 346.07,761.95 ZM 326.60 753.30 C327.16,755.07 327.66,754.22 329.13,749.00 C331.66,740.08 331.71,736.42 329.35,733.27 C325.11,727.58 323.50,730.13 327.00,737.00 C329.41,741.71 329.50,744.13 327.45,748.10 C326.52,749.90 326.18,751.98 326.60,753.30 ZM 342.67 716.33 C344.58,718.25 346.00,715.76 346.00,710.50 C346.00,706.17 345.13,704.00 343.39,704.00 C342.36,704.00 342.00,705.51 342.00,709.83 C342.00,713.04 342.30,715.97 342.67,716.33 Z" fill="rgba(0,0,0,1)"/>
<path d="M 650.35 763.75 C651.82,766.09 653.47,768.00 654.01,768.00 C654.68,768.00 655.00,767.88 654.88,767.22 C655.66,769.16 656.23,770.95 656.52,772.44 C656.02,771.73 655.22,771.84 654.50,773.00 C654.11,773.64 640.66,774.00 617.44,774.00 C583.44,774.00 580.88,773.88 579.17,772.17 C578.16,771.16 574.36,766.77 570.73,762.42 C567.10,758.06 562.87,753.26 561.32,751.75 C559.77,750.24 557.99,748.51 557.36,747.89 C554.27,744.86 551.26,742.27 549.01,740.71 C544.23,737.38 534.42,728.47 523.48,717.53 C507.08,701.11 500.65,689.10 499.36,672.50 C498.27,658.47 502.74,646.65 514.91,631.32 C534.59,606.53 575.47,581.96 651.00,549.50 C662.83,544.42 674.53,539.34 677.00,538.20 C679.47,537.06 684.42,534.93 688.00,533.46 C691.58,531.99 703.95,526.20 715.50,520.58 C759.12,499.35 779.03,483.42 787.96,462.59 C791.11,455.25 790.78,445.16 787.16,437.50 C779.93,422.23 759.98,408.09 730.00,396.97 C709.12,389.23 664.86,377.81 631.50,371.55 C599.04,365.46 561.09,356.95 546.19,352.42 C536.51,349.48 526.58,344.92 522.90,341.74 C515.64,335.45 516.53,327.03 525.08,320.94 L 528.08 318.80 L 529.69 322.90 C530.58,325.16 531.63,327.00 532.02,327.00 C532.42,327.00 532.95,323.39 533.21,318.98 C533.29,317.61 533.36,316.45 533.46,315.47 C533.35,316.76 533.27,318.36 533.18,320.37 C532.92,326.27 533.20,330.50 533.92,331.86 C536.96,337.53 557.04,344.04 586.50,348.89 C596.95,350.62 606.62,352.27 608.00,352.57 C609.38,352.87 612.30,353.26 614.50,353.44 C620.59,353.93 648.63,357.81 666.00,360.56 C674.53,361.92 683.30,363.29 685.50,363.62 C697.74,365.44 713.91,368.76 729.50,372.51 C728.23,372.29 727.44,372.22 727.33,372.34 C726.12,373.54 740.90,379.11 750.09,380.92 C752.52,381.39 754.72,381.82 755.00,381.88 C755.28,381.93 756.16,381.55 756.97,381.04 C757.50,380.71 757.90,380.49 757.91,380.27 C757.91,380.19 757.86,380.12 757.76,380.03 C760.51,380.85 763.10,381.66 765.50,382.45 C765.59,382.48 765.68,382.51 765.77,382.54 C759.53,380.73 757.09,380.75 762.08,383.14 C768.90,386.39 776.63,389.31 782.93,391.00 C786.72,392.02 790.07,393.61 791.10,394.87 C792.05,396.05 794.20,397.29 795.87,397.62 C797.53,397.96 799.67,399.08 800.60,400.11 C801.54,401.15 803.14,402.00 804.15,402.00 C805.17,402.00 806.90,402.90 808.00,404.00 C809.10,405.10 810.28,406.00 810.62,406.00 C810.96,406.00 812.81,407.38 814.73,409.07 C816.65,410.75 818.79,411.91 819.49,411.64 C820.85,411.12 830.14,419.53 829.22,420.45 C828.91,420.75 829.22,421.00 829.89,421.00 C830.57,421.00 830.87,421.40 830.57,421.89 C830.27,422.37 830.69,423.33 831.51,424.01 C832.33,424.69 833.00,425.85 833.00,426.59 C833.00,427.33 834.27,429.41 835.82,431.22 C837.36,433.02 839.46,436.30 840.48,438.50 C842.34,442.51 843.40,441.97 842.54,438.38 C843.83,442.94 844.23,447.57 843.75,452.24 C843.92,448.32 842.77,447.18 841.15,450.28 C838.84,454.72 835.11,467.12 835.65,468.54 C835.96,469.34 836.64,470.00 837.16,470.00 C837.47,470.00 837.88,469.60 838.34,468.92 C837.43,470.60 836.40,472.28 835.27,473.97 C835.41,473.49 835.27,473.17 834.87,472.92 C833.23,471.91 832.00,472.68 832.00,474.73 C832.00,476.75 829.13,480.00 827.35,480.00 C826.61,480.00 826.00,480.35 826.00,480.78 C826.00,481.21 824.65,482.07 823.00,482.69 C821.35,483.32 819.70,484.65 819.33,485.66 C818.12,488.93 813.67,494.17 811.37,495.05 C810.13,495.52 808.63,496.82 808.04,497.93 C807.11,499.66 807.21,499.86 808.73,499.30 C809.34,499.08 809.94,498.81 810.51,498.53 C808.62,499.92 806.65,501.32 804.60,502.70 C806.12,501.52 806.57,500.85 806.11,500.57 C804.68,499.69 800.73,501.48 794.93,505.64 C792.06,507.71 788.34,510.09 786.67,510.95 C784.99,511.80 783.44,513.06 783.23,513.75 C782.95,514.61 783.08,515.01 783.91,514.83 C780.71,516.46 778.22,517.84 778.00,518.12 C777.43,518.84 770.02,522.58 760.97,526.82 C767.59,523.63 773.78,520.45 773.54,520.20 C772.85,519.52 764.14,522.00 760.00,524.06 C758.08,525.02 754.70,526.36 752.50,527.05 C747.69,528.55 744.07,531.02 744.03,532.82 C744.01,533.72 744.69,533.92 746.21,533.43 C746.39,533.38 746.59,533.31 746.83,533.22 C741.81,535.38 733.70,538.73 724.34,542.52 C729.14,540.28 728.31,539.79 722.50,540.47 C716.49,541.16 712.00,543.14 712.00,545.08 C712.00,545.65 711.55,545.84 711.00,545.50 C710.45,545.16 710.00,545.31 710.00,545.83 C710.00,546.35 709.44,546.76 708.75,546.73 C705.61,546.61 704.17,547.11 703.64,548.50 C702.96,550.27 704.13,550.42 709.59,548.46 C698.45,552.93 686.92,557.49 677.46,561.18 C684.46,558.17 688.00,555.99 683.00,557.47 C681.62,557.88 678.92,558.43 677.00,558.69 C673.97,559.12 667.84,561.40 663.06,563.89 C662.27,564.31 661.44,565.17 661.23,565.82 C660.88,566.87 661.25,567.20 663.61,566.50 C659.44,568.07 656.83,569.00 656.49,569.00 C655.67,569.00 655.00,569.34 655.00,569.75 C654.99,570.16 652.86,571.33 650.25,572.34 C643.80,574.84 643.52,574.96 626.72,582.90 C618.74,586.67 611.63,590.25 605.26,593.72 C605.54,593.52 605.83,593.29 606.14,593.03 C607.93,591.54 608.12,591.06 606.90,591.03 C606.03,591.01 604.50,591.90 603.50,593.00 C602.14,594.50 602.22,595.13 603.12,594.90 C588.30,603.13 577.58,610.82 568.98,619.21 C562.50,625.53 560.03,628.68 557.39,634.15 C557.76,633.26 557.56,633.01 556.79,633.03 C554.09,633.10 552.03,637.82 551.50,645.17 L 550.96 652.50 L 553.30 645.00 C553.56,644.16 553.84,643.31 554.11,642.48 C553.59,644.80 553.50,647.25 553.50,651.50 C553.50,655.26 553.57,657.62 553.94,659.69 C553.92,659.63 553.91,659.56 553.89,659.50 L 552.14 653.50 L 552.07 658.19 C552.02,661.63 552.73,664.09 554.75,667.41 C557.90,672.59 559.91,673.64 557.34,668.75 C557.02,668.13 556.62,667.23 556.19,666.17 C556.35,666.52 556.53,666.89 556.71,667.27 C559.09,672.30 562.18,677.09 566.36,682.13 C564.35,679.83 562.72,677.83 562.00,676.75 C560.62,674.69 559.24,673.01 558.92,673.01 C558.60,673.00 558.33,674.41 558.33,676.13 C558.33,678.51 559.53,680.53 563.34,684.58 C566.10,687.51 568.72,689.68 569.16,689.40 C569.61,689.12 569.73,689.55 569.42,690.35 C568.80,691.96 570.05,692.99 574.50,694.55 C576.15,695.13 577.39,696.12 577.26,696.76 C577.13,697.43 577.67,697.68 578.54,697.35 C579.53,696.97 578.37,695.15 574.10,690.56 C574.77,691.23 575.46,691.90 576.16,692.58 C580.21,696.49 583.44,699.47 587.54,702.91 C583.64,699.80 580.67,698.00 579.41,698.00 C579.01,698.00 579.83,699.01 581.23,700.25 C582.63,701.49 584.09,703.53 584.47,704.78 C585.43,707.97 589.87,712.17 591.85,711.78 C592.76,711.59 594.32,712.47 595.32,713.72 C596.33,714.97 597.82,716.00 598.65,716.00 C599.47,716.00 602.60,717.91 605.59,720.25 C608.58,722.59 611.36,724.49 611.77,724.49 C612.17,724.48 616.19,728.19 620.71,732.74 C625.22,737.28 629.32,741.00 629.81,741.00 C631.44,741.00 639.80,747.91 642.12,751.17 C643.37,752.92 643.81,754.00 643.10,753.56 C641.05,752.30 643.61,756.61 645.85,758.20 C646.86,758.91 648.88,761.41 650.35,763.75 ZM 187.24 600.09 C183.54,603.34 184.33,604.10 188.23,601.03 C189.61,599.95 191.02,599.28 191.37,599.53 C191.71,599.79 191.78,599.70 191.51,599.34 C190.77,598.35 193.09,595.94 194.16,596.60 C195.29,597.30 198.18,595.42 203.50,590.54 C207.31,587.05 207.10,587.12 199.03,592.03 C196.99,593.27 194.83,594.66 192.88,595.97 C201.22,590.30 210.15,584.94 219.74,579.84 C216.69,581.47 214.30,582.84 213.50,583.46 L 211.50 585.00 L 213.50 584.34 C214.60,583.97 216.68,582.86 218.11,581.87 C219.55,580.87 221.02,580.35 221.38,580.71 C221.73,581.07 223.35,580.38 224.97,579.18 C226.59,577.98 228.83,577.00 229.95,577.00 C231.07,577.00 232.55,576.10 233.23,575.00 C233.92,573.90 235.44,573.00 236.62,573.00 C237.79,573.00 239.32,572.33 240.00,571.50 C240.95,570.36 240.96,570.00 240.05,570.00 C239.87,570.00 239.38,570.17 238.66,570.47 C240.89,569.42 243.13,568.38 245.30,567.39 C244.10,567.96 243.28,568.40 243.08,568.59 C242.15,569.51 246.52,568.91 250.87,567.52 C253.41,566.70 256.72,565.80 258.22,565.51 C260.69,565.02 263.80,561.47 262.71,560.38 C262.45,560.12 255.01,563.10 249.36,565.56 C257.79,561.80 264.63,559.00 265.80,559.00 C266.56,559.00 268.39,558.37 269.85,557.59 C271.31,556.81 274.28,555.40 276.45,554.45 C279.94,552.92 292.85,548.57 304.23,544.93 C290.55,549.34 288.00,550.35 288.00,551.08 C288.00,551.59 288.63,552.00 289.39,552.00 C292.27,552.00 304.56,547.70 306.87,545.89 C308.19,544.85 309.86,544.00 310.58,544.00 C311.29,544.00 312.15,543.57 312.47,543.05 C312.73,542.62 311.66,542.67 309.97,543.12 C316.45,541.11 321.62,539.60 322.92,539.42 C324.79,539.17 326.82,538.57 327.42,538.09 C327.75,537.82 329.83,537.10 332.74,536.21 C332.43,536.34 332.22,536.45 332.13,536.54 C331.91,536.76 334.15,536.69 337.11,536.39 C342.60,535.83 347.00,534.28 347.00,532.89 C347.00,532.54 343.37,533.25 339.69,534.16 C345.04,532.65 350.80,531.14 354.00,530.48 C355.92,530.09 357.95,529.43 358.50,529.01 C359.05,528.59 362.88,527.45 367.00,526.48 C371.12,525.51 375.40,524.35 376.50,523.90 C379.91,522.52 402.31,516.74 405.94,516.32 C407.84,516.09 410.76,515.28 412.44,514.50 C414.12,513.73 419.77,512.00 425.00,510.66 C425.20,510.61 425.39,510.56 425.59,510.51 C422.99,511.24 422.52,511.68 423.67,512.14 C424.68,512.54 425.60,512.89 425.73,512.93 C425.86,512.97 427.66,512.35 429.73,511.56 C431.80,510.77 436.20,509.59 439.50,508.94 C442.80,508.29 446.57,506.91 447.88,505.88 C449.01,504.99 449.72,504.44 449.63,504.25 C449.48,503.92 447.14,504.59 440.86,506.38 C436.36,507.67 430.37,509.29 427.36,510.04 C436.37,507.67 449.20,504.00 461.15,500.44 C455.72,502.12 451.00,503.79 451.00,504.18 C451.00,505.69 455.97,505.02 459.74,503.00 C461.79,501.90 464.89,501.00 466.62,501.00 C468.39,501.00 470.82,500.09 472.14,498.92 C474.27,497.05 474.31,496.89 472.50,497.31 C470.30,497.81 467.55,498.55 464.76,499.36 C477.94,495.40 489.41,491.76 492.50,490.44 C494.15,489.73 496.85,488.83 498.50,488.44 C500.97,487.86 505.58,486.00 510.74,483.64 C509.89,484.10 509.26,484.48 509.00,484.75 C508.73,485.04 510.23,484.95 512.34,484.57 C516.99,483.73 523.64,480.39 524.35,478.54 C524.61,477.86 519.68,479.62 515.31,481.50 C523.74,477.44 532.36,472.73 534.84,470.50 C536.68,468.85 538.82,467.14 539.60,466.70 C539.63,466.68 539.66,466.66 539.69,466.64 C539.39,466.99 539.10,467.32 538.82,467.62 L 535.86 470.74 L 538.67 470.43 C541.63,470.11 544.91,466.91 545.13,464.14 C545.20,463.24 545.36,461.49 545.49,460.25 C545.81,457.19 545.34,457.42 543.41,461.25 C543.40,461.28 543.38,461.31 543.37,461.34 C544.52,458.43 545.23,454.82 545.14,451.50 C544.88,442.19 542.93,431.41 540.90,428.08 C539.59,425.92 537.06,423.56 533.97,421.47 C535.75,422.59 537.25,423.70 537.96,424.46 C540.93,427.62 541.00,427.61 540.99,424.25 C540.97,421.03 535.66,417.00 531.45,417.00 C530.03,417.00 527.97,416.52 526.88,415.94 C525.78,415.35 524.40,415.03 523.81,415.23 C523.32,415.39 524.85,416.49 527.36,417.84 C526.78,417.58 526.19,417.34 525.60,417.12 C523.74,416.43 520.93,415.58 517.37,414.63 C518.52,414.85 518.88,414.84 518.98,414.66 C519.05,414.55 519.00,414.36 519.00,414.12 C519.00,411.51 507.58,407.73 496.49,406.66 C493.18,406.34 487.78,405.41 484.49,404.59 C476.71,402.66 471.09,401.74 468.08,401.89 C466.75,401.95 464.63,401.33 463.36,400.50 C462.10,399.67 458.84,399.00 456.07,399.00 C453.32,399.00 448.77,398.09 445.95,396.98 C443.14,395.87 438.17,394.76 434.91,394.50 C431.65,394.25 427.67,393.37 426.08,392.54 C424.48,391.71 420.55,390.81 417.34,390.52 L 411.50 390.01 L 417.50 392.01 C425.23,394.59 450.34,400.42 472.29,404.76 C447.60,399.93 426.43,394.91 408.57,389.65 C410.40,390.07 411.00,389.98 411.00,389.53 C411.00,388.58 405.05,386.00 402.80,385.97 C401.53,385.95 399.63,385.28 398.56,384.47 C397.49,383.66 395.53,383.00 394.20,383.00 C392.88,383.00 390.42,381.85 388.75,380.45 C387.09,379.04 385.07,378.14 384.28,378.45 C383.49,378.75 381.86,379.01 380.67,379.03 C378.82,379.06 378.67,379.14 379.99,379.92 C378.28,379.24 376.61,378.56 375.00,377.87 C374.76,377.49 373.18,376.02 371.12,374.26 C367.09,370.83 358.03,366.21 352.00,364.52 C349.11,363.71 355.06,367.81 361.67,371.52 C352.10,366.42 344.96,361.41 340.36,356.57 C341.30,357.30 341.60,356.59 341.60,354.47 C341.60,352.62 341.19,352.10 340.08,352.52 C339.24,352.84 338.85,352.82 339.20,352.47 C339.54,352.12 339.16,350.25 338.35,348.30 C336.99,345.03 337.02,344.60 338.81,342.63 C341.66,339.50 342.96,336.56 342.11,335.17 C341.65,334.43 340.92,334.56 340.02,335.45 C341.05,334.08 342.20,332.75 343.43,331.52 C344.92,330.02 346.92,328.34 349.27,326.55 C348.03,327.57 347.02,328.49 346.50,329.09 C344.80,331.07 345.01,331.02 347.83,328.71 C350.70,326.37 353.43,325.45 356.23,325.87 C356.63,325.94 357.65,324.64 358.50,322.99 C359.43,321.20 360.84,320.00 362.03,320.00 C363.11,320.00 364.00,319.52 364.00,318.94 C364.00,318.36 364.56,318.21 365.25,318.60 C365.94,319.00 366.17,318.96 365.78,318.52 C365.38,318.08 366.73,316.88 368.78,315.85 C370.82,314.81 373.62,313.03 375.00,311.89 C377.68,309.66 367.39,314.94 359.54,319.56 C363.96,316.81 368.76,314.11 373.50,311.74 C375.90,310.54 379.09,309.08 382.62,307.52 C377.07,310.21 378.22,310.70 386.56,308.45 C390.12,307.48 393.31,306.98 393.66,307.33 C394.01,307.68 392.54,309.57 390.40,311.53 C388.25,313.49 386.50,315.49 386.50,315.96 C386.50,316.43 383.55,320.12 379.95,324.16 C372.98,331.97 368.95,339.22 369.08,343.74 C369.16,346.94 370.72,351.23 373.37,355.60 C375.31,358.79 388.32,367.56 397.36,371.77 C407.89,376.68 436.02,384.44 474.00,392.94 C489.85,396.49 504.47,400.13 512.50,402.54 C516.90,403.86 522.75,405.46 525.50,406.09 C528.25,406.72 533.65,408.35 537.50,409.71 C541.35,411.06 547.58,413.24 551.34,414.55 C560.56,417.75 573.84,425.32 580.28,431.06 C594.66,443.88 595.03,459.16 581.29,472.85 C564.34,489.74 542.50,499.20 461.00,524.96 C450.27,528.35 439.02,531.97 436.00,532.99 C432.98,534.02 423.52,537.12 415.00,539.89 C326.85,568.51 276.17,592.67 237.57,624.48 C227.29,632.95 222.33,637.89 213.42,648.50 C206.11,657.22 198.17,669.92 196.08,676.25 C195.42,678.26 193.79,681.51 192.46,683.47 C187.48,690.80 185.88,698.17 185.28,716.55 C184.79,731.63 186.08,760.73 187.63,769.64 C188.18,772.77 188.15,772.79 182.98,773.50 C175.61,774.52 160.19,774.74 158.76,773.85 C157.84,773.28 157.55,756.10 157.54,700.70 L 157.53 628.30 L 160.37 624.58 C162.02,622.42 163.78,621.08 164.57,621.39 C165.32,621.68 166.20,621.48 166.53,620.96 C166.85,620.43 167.97,620.00 169.01,620.00 C170.33,620.00 171.20,618.92 171.88,616.46 C172.84,612.99 176.64,608.05 178.38,608.02 C179.24,608.00 183.00,604.13 183.00,603.26 C183.00,603.18 182.93,603.16 182.79,603.21 C185.38,601.25 188.04,599.32 190.76,597.43 C189.22,598.52 187.96,599.46 187.24,600.09 ZM 678.94 209.01 C676.18,211.18 672.47,213.74 669.64,215.39 C665.96,217.54 663.17,219.50 663.43,219.76 C663.68,220.02 665.47,219.26 667.39,218.07 C669.31,216.88 671.83,215.73 672.98,215.50 C675.20,215.08 689.26,206.13 689.83,204.79 C690.38,203.50 694.02,203.89 693.75,205.21 C693.18,207.98 685.20,217.00 683.33,217.00 C682.54,217.00 679.71,219.27 677.06,222.04 C672.16,227.14 670.27,228.00 654.50,232.25 C652.30,232.84 649.24,234.55 647.69,236.04 C645.92,237.75 642.05,239.55 637.19,240.94 C632.96,242.16 623.33,245.14 615.78,247.59 C608.24,250.03 599.24,252.28 595.78,252.60 C592.33,252.91 587.80,253.81 585.73,254.59 C581.33,256.24 581.00,256.28 581.00,255.16 C581.00,254.15 585.49,252.00 587.59,252.00 C588.41,252.00 590.05,251.10 591.23,250.00 C592.41,248.90 594.11,248.00 595.00,248.00 C595.89,248.00 597.49,247.29 598.56,246.42 C600.36,244.95 600.37,244.88 598.65,245.42 C597.63,245.75 590.94,247.68 583.78,249.71 C572.57,252.90 571.12,253.54 573.37,254.29 C580.77,256.76 571.38,260.52 548.11,264.44 L 544.72 265.01 L 547.27 263.00 C548.67,261.90 550.31,261.00 550.91,261.00 C551.51,261.00 552.00,260.55 552.00,260.00 C552.00,259.45 552.75,259.00 553.67,259.00 C554.58,259.00 555.08,258.75 554.77,258.44 C554.50,258.17 548.45,259.36 540.67,261.18 C558.43,256.61 578.06,251.37 588.00,248.47 C603.85,243.83 628.42,235.43 634.75,232.47 C637.65,231.12 642.60,228.92 645.75,227.58 C656.93,222.83 671.41,214.62 678.94,209.01 ZM 526.74 264.73 C522.49,265.95 520.58,266.76 521.14,267.11 C521.89,267.58 523.29,267.98 524.25,267.98 C526.73,268.01 526.42,269.87 523.75,270.99 C518.71,273.11 501.68,277.13 498.69,276.89 C496.92,276.75 493.64,277.60 491.34,278.80 C487.48,280.80 476.99,284.35 462.50,288.57 C453.98,291.05 447.00,290.07 447.00,286.40 C447.00,285.41 446.38,285.05 445.25,285.37 C438.52,287.32 431.87,289.33 428.00,290.57 C437.34,287.52 453.31,282.87 456.75,282.43 C458.54,282.20 460.79,281.56 461.75,281.01 C463.49,280.01 494.62,272.07 507.00,269.46 C510.76,268.67 517.98,266.92 526.74,264.73 ZM 730.25 236.42 C731.37,235.60 732.00,234.98 732.00,234.64 C732.00,234.11 731.70,233.96 731.34,234.32 C730.98,234.69 729.99,234.42 729.15,233.74 C728.82,233.47 728.56,233.28 728.38,233.18 C728.32,233.27 728.26,233.36 728.19,233.45 C728.23,233.52 728.27,233.60 728.32,233.68 C728.71,234.33 728.61,235.12 728.10,235.44 C726.75,236.27 727.00,235.23 728.19,233.45 C728.00,233.07 728.05,232.98 728.38,233.18 C729.13,232.11 730.19,230.81 731.44,229.50 C733.53,227.30 736.99,222.80 739.12,219.50 C745.06,210.31 747.06,208.00 749.11,208.00 C751.85,208.00 751.44,210.78 748.23,213.85 C745.51,216.46 743.79,223.00 745.83,223.00 C745.92,223.00 746.05,222.94 746.20,222.83 C743.23,226.24 739.67,229.58 735.79,232.50 C734.02,233.83 732.18,235.14 730.25,236.42 ZM 425.12 291.54 C424.88,291.63 424.71,291.70 424.64,291.74 C424.17,292.02 424.33,292.59 425.00,293.00 C426.73,294.07 425.38,297.49 422.73,298.73 C410.71,304.40 405.62,305.69 401.57,304.11 C399.71,303.37 399.72,303.28 401.82,301.18 C403.02,299.98 403.74,299.00 403.43,299.00 C403.37,299.00 403.16,299.07 402.80,299.19 C407.76,297.29 411.50,296.00 412.37,296.00 C413.30,296.00 415.16,295.29 416.49,294.41 C417.82,293.54 419.34,293.09 419.87,293.42 C420.40,293.75 420.98,293.63 421.16,293.17 C421.25,292.96 422.76,292.36 425.12,291.54 ZM 668.00 363.34 C684.08,364.77 690.21,365.11 688.50,364.47 C684.76,363.08 622.45,353.97 617.10,354.03 C614.77,354.06 614.69,354.17 616.34,355.13 C617.35,355.72 623.20,356.62 629.34,357.13 C635.48,357.64 643.20,358.94 646.50,360.01 C649.97,361.14 659.03,362.54 668.00,363.34 ZM 572.50 348.80 C574.70,349.32 579.20,349.76 582.50,349.77 C587.97,349.80 587.30,349.56 575.00,347.05 C567.58,345.54 557.45,343.01 552.50,341.44 C547.55,339.86 542.54,338.28 541.38,337.91 C539.64,337.36 539.34,337.58 539.75,339.14 C540.33,341.36 540.83,341.74 544.07,342.36 C545.41,342.62 547.88,343.54 549.56,344.40 C551.24,345.26 553.67,345.76 554.94,345.51 C556.22,345.27 559.79,345.69 562.88,346.46 C565.97,347.23 570.30,348.28 572.50,348.80 ZM 470.00 279.30 C470.00,279.80 471.85,279.81 474.25,279.34 C476.59,278.88 481.09,278.52 484.25,278.54 C487.41,278.56 490.00,278.22 490.00,277.79 C490.00,277.35 490.90,277.00 492.00,277.00 C493.10,277.00 494.00,276.55 494.00,276.00 C494.00,275.45 494.67,275.00 495.50,275.00 C496.33,275.00 497.00,274.62 497.00,274.15 C497.00,273.69 498.01,272.78 499.25,272.15 C500.06,271.73 500.66,271.43 500.63,271.33 C500.55,271.08 496.84,271.98 483.75,275.12 C476.19,276.94 470.00,278.82 470.00,279.30 ZM 702.50 368.91 C712.46,371.57 727.80,373.21 722.44,371.04 C718.64,369.50 687.58,364.11 690.50,365.50 C691.05,365.76 696.45,367.30 702.50,368.91 ZM 617.53 585.96 C616.52,587.59 617.79,587.22 623.86,584.13 C626.96,582.56 631.47,580.44 633.88,579.43 C636.28,578.41 637.69,577.40 637.01,577.17 C635.33,576.61 628.00,579.09 628.00,580.22 C628.00,580.71 627.57,580.85 627.04,580.52 C626.04,579.91 618.66,584.13 617.53,585.96 ZM 563.70 621.66 C563.93,622.26 564.08,622.67 564.35,622.78 C564.92,623.01 566.02,621.93 569.46,618.59 C574.36,613.83 574.81,613.00 572.50,613.00 C571.67,613.00 571.00,613.44 571.00,613.97 C571.00,614.51 569.54,615.70 567.75,616.61 C563.98,618.55 562.98,619.79 563.70,621.66 ZM 644.50 230.06 C648.08,230.76 649.40,230.19 654.00,225.94 C657.81,222.42 657.59,222.44 648.00,226.64 C641.77,229.36 641.62,229.50 644.50,230.06 ZM 608.18 242.48 C607.90,242.77 608.90,243.00 610.40,243.00 C613.27,243.00 627.62,237.43 628.52,235.97 C629.04,235.13 609.17,241.49 608.18,242.48 ZM 382.08 522.60 C381.85,522.82 383.38,523.00 385.48,523.00 C389.55,523.00 401.00,519.26 401.00,517.94 C401.00,517.22 383.08,521.63 382.08,522.60 ZM 579.58 607.26 C574.08,612.81 574.35,612.78 583.75,606.68 C587.19,604.45 590.00,602.21 590.00,601.70 C590.00,599.48 584.24,602.55 579.58,607.26 ZM 545.94 452.00 C546.10,456.57 547.97,451.91 547.98,446.90 C548.00,443.72 547.44,441.81 546.18,440.66 C544.44,439.08 544.39,439.23 545.11,444.26 C545.52,447.14 545.89,450.62 545.94,452.00 ZM 592.00 351.98 C593.74,353.42 595.37,353.89 597.38,353.52 C598.96,353.24 601.43,352.97 602.88,352.94 C605.21,352.88 605.28,352.78 603.50,352.07 C602.40,351.63 598.80,350.97 595.50,350.60 L 589.50 349.92 ZM 813.69 404.24 C813.72,404.27 813.76,404.29 813.79,404.31 C827.23,413.26 836.16,422.95 840.61,433.05 C836.13,423.51 825.93,412.77 813.69,404.24 ZM 174.43 609.83 C171.00,612.84 167.09,616.45 163.75,619.75 L 155.00 628.40 L 155.00 627.71 L 162.25 620.73 C166.13,616.98 170.19,613.35 174.43,609.83 ZM 686.84 257.47 C692.50,255.31 697.69,253.17 702.66,250.97 C711.17,247.20 719.76,242.82 725.43,239.50 C715.41,245.60 703.11,251.37 686.84,257.47 ZM 752.29 171.39 C733.35,181.96 705.48,195.78 694.81,199.85 C706.19,195.31 734.21,181.45 752.29,171.39 ZM 820.43 490.51 C818.52,492.21 816.50,493.90 814.36,495.59 C814.51,495.31 814.54,495.07 814.43,494.89 C814.13,494.40 814.57,494.00 815.40,494.00 C816.01,494.00 818.05,492.50 820.43,490.51 ZM 751.78 215.23 C753.19,212.59 754.10,209.93 755.01,205.95 C755.01,205.97 755.01,205.98 755.01,206.00 C754.98,208.58 753.80,211.79 751.78,215.23 ZM 833.90 475.91 C832.71,477.56 831.41,479.20 830.00,480.84 C830.00,480.83 830.00,480.82 830.00,480.81 C830.00,480.28 831.38,478.46 833.07,476.78 C833.38,476.46 833.66,476.18 833.90,475.91 ZM 762.95 197.05 C769.48,192.58 783.74,178.87 792.65,168.80 C783.67,178.99 769.38,192.77 763.00,197.02 C762.98,197.03 762.96,197.04 762.95,197.05 ZM 691.25 201.14 C687.86,202.46 685.06,204.01 682.58,205.97 C682.69,205.86 682.79,205.75 682.89,205.64 C684.16,204.28 687.73,202.37 691.25,201.14 ZM 638.65 743.83 C642.66,747.68 645.62,751.04 647.65,754.01 C648.23,754.85 648.80,755.72 649.34,756.58 C646.60,752.37 643.23,748.31 638.65,743.83 ZM 657.00 777.00 L 657.00 775.40 L 657.26 777.00 L 657.00 777.00 ZM 758.95 199.79 C759.86,199.09 760.95,198.34 762.23,197.53 C762.29,197.49 762.35,197.45 762.42,197.41 C761.01,198.35 759.88,199.12 758.95,199.79 ZM 335.26 349.16 C335.20,349.01 335.13,348.85 335.08,348.70 C334.91,348.26 334.83,347.73 334.82,347.15 C334.86,347.81 335.01,348.47 335.26,349.16 ZM 338.17 354.01 C338.24,354.11 338.31,354.20 338.37,354.29 C337.63,353.35 336.98,352.41 336.43,351.49 C336.90,352.25 337.48,353.08 338.17,354.01 ZM 557.03 634.91 C557.02,634.94 557.01,634.97 556.99,635.00 C556.67,635.68 556.38,636.31 556.12,636.90 C556.42,636.16 556.67,635.59 556.85,635.25 C556.92,635.13 556.98,635.02 557.03,634.91 Z" fill="rgba(125,185,217,1)"/>
<path d="M 191.52 775.75 C191.83,776.67 195.52,777.00 205.40,777.00 L 155.00 777.00 L 155.00 628.40 L 163.75 619.75 C171.73,611.86 183.00,602.21 183.00,603.26 C183.00,604.13 179.24,608.00 178.38,608.02 C176.64,608.05 172.84,612.99 171.88,616.46 C171.20,618.92 170.33,620.00 169.01,620.00 C167.97,620.00 166.85,620.43 166.53,620.96 C166.20,621.48 165.32,621.68 164.57,621.39 C163.78,621.08 162.02,622.42 160.37,624.58 L 157.53 628.30 L 157.54 700.70 C157.55,756.10 157.84,773.28 158.76,773.85 C160.19,774.74 175.61,774.52 182.98,773.50 C188.15,772.79 188.18,772.77 187.63,769.64 C186.62,763.83 185.72,749.44 185.35,735.94 C186.00,750.61 188.20,765.87 191.52,775.75 ZM 507.96 698.87 C511.67,704.76 516.73,710.77 523.48,717.53 C534.42,728.47 544.23,737.38 549.01,740.71 C551.26,742.27 554.27,744.86 557.36,747.89 C557.99,748.51 559.77,750.24 561.32,751.75 C562.87,753.26 567.10,758.06 570.73,762.42 C574.36,766.77 578.16,771.16 579.17,772.17 C580.88,773.88 583.44,774.00 617.44,774.00 C640.66,774.00 654.11,773.64 654.50,773.00 C655.64,771.16 657.00,771.97 657.00,774.50 L 657.00 777.00 L 556.50 777.00 C548.44,777.00 540.60,776.99 533.08,776.98 C565.02,776.91 579.00,776.58 579.00,775.93 C579.00,772.26 559.32,750.83 545.00,738.91 C535.66,731.14 530.26,726.28 523.98,720.01 C517.91,713.94 511.00,705.71 511.00,704.55 C511.00,704.17 509.67,701.69 507.96,698.87 ZM 650.35 763.75 C648.88,761.41 646.86,758.91 645.85,758.20 C643.61,756.61 641.05,752.30 643.10,753.56 C643.81,754.00 643.37,752.92 642.12,751.17 C639.80,747.91 631.44,741.00 629.81,741.00 C629.32,741.00 625.22,737.28 620.71,732.74 C616.19,728.19 612.17,724.48 611.77,724.49 C611.36,724.49 608.58,722.59 605.59,720.25 C602.60,717.91 599.47,716.00 598.65,716.00 C597.82,716.00 596.33,714.97 595.32,713.72 C594.32,712.47 592.76,711.59 591.85,711.78 C589.87,712.17 585.43,707.97 584.47,704.78 C584.09,703.53 582.63,701.49 581.23,700.25 C579.83,699.01 579.01,698.00 579.41,698.00 C580.88,698.00 584.64,700.42 589.50,704.51 C592.25,706.82 602.60,714.80 612.50,722.25 C637.28,740.89 646.46,750.10 652.86,762.71 C655.28,767.48 655.40,768.00 654.01,768.00 C653.47,768.00 651.82,766.09 650.35,763.75 ZM 840.48 438.50 C839.46,436.30 837.36,433.02 835.82,431.22 C834.27,429.41 833.00,427.33 833.00,426.59 C833.00,425.85 832.33,424.69 831.51,424.01 C830.69,423.33 830.27,422.37 830.57,421.89 C830.87,421.40 830.57,421.00 829.89,421.00 C829.22,421.00 828.91,420.75 829.22,420.45 C830.14,419.53 820.85,411.12 819.49,411.64 C818.79,411.91 816.65,410.75 814.73,409.07 C812.81,407.38 810.96,406.00 810.62,406.00 C810.28,406.00 809.10,405.10 808.00,404.00 C806.90,402.90 805.17,402.00 804.15,402.00 C803.14,402.00 801.54,401.15 800.60,400.11 C799.67,399.08 797.53,397.96 795.87,397.62 C794.20,397.29 792.05,396.05 791.10,394.87 C790.07,393.61 786.72,392.02 782.93,391.00 C776.63,389.31 768.90,386.39 762.08,383.14 C755.67,380.07 761.53,380.90 771.96,384.54 C782.19,388.09 783.91,388.80 797.31,394.86 C817.89,404.19 837.30,422.26 841.99,436.48 C843.71,441.69 842.63,443.14 840.48,438.50 ZM 506.50 411.99 C500.45,410.48 486.96,407.60 476.53,405.59 C453.68,401.19 425.73,394.76 417.50,392.01 L 411.50 390.01 L 417.34 390.52 C420.55,390.81 424.48,391.71 426.08,392.54 C427.67,393.37 431.65,394.25 434.91,394.50 C438.17,394.76 443.14,395.87 445.95,396.98 C448.77,398.09 453.32,399.00 456.07,399.00 C458.84,399.00 462.10,399.67 463.36,400.50 C464.63,401.33 466.75,401.95 468.08,401.89 C471.09,401.74 476.71,402.66 484.49,404.59 C487.78,405.41 493.18,406.34 496.49,406.66 C507.58,407.73 519.00,411.51 519.00,414.12 C519.00,414.36 519.05,414.55 518.98,414.66 C518.73,415.07 517.01,414.60 506.50,411.99 ZM 521.44 271.83 C522.35,271.53 523.14,271.25 523.75,270.99 C526.42,269.87 526.73,268.01 524.25,267.98 C523.29,267.98 521.89,267.58 521.14,267.11 C520.25,266.54 525.71,264.80 536.99,262.06 C546.46,259.76 554.46,258.13 554.77,258.44 C555.08,258.75 554.58,259.00 553.67,259.00 C552.75,259.00 552.00,259.45 552.00,260.00 C552.00,260.55 551.51,261.00 550.91,261.00 C550.31,261.00 548.67,261.90 547.27,263.00 L 544.72 265.01 L 548.11 264.44 C571.38,260.52 580.77,256.76 573.37,254.29 C571.12,253.54 572.57,252.90 583.78,249.71 C590.94,247.68 597.63,245.75 598.65,245.42 C600.37,244.88 600.36,244.95 598.56,246.42 C597.49,247.29 595.89,248.00 595.00,248.00 C594.11,248.00 592.41,248.90 591.23,250.00 C590.05,251.10 588.41,252.00 587.59,252.00 C585.49,252.00 581.00,254.15 581.00,255.16 C581.00,256.28 581.33,256.24 585.73,254.59 C587.80,253.81 592.33,252.91 595.78,252.60 C598.93,252.31 606.67,250.41 613.73,248.23 C609.64,249.55 603.29,251.32 598.31,252.53 C592.36,253.97 581.88,256.64 575.00,258.47 C568.12,260.29 558.22,262.77 553.00,263.98 C545.00,265.82 533.28,268.76 521.44,271.83 ZM 759.12 199.66 C756.87,201.36 755.69,202.77 755.43,204.00 C754.02,210.78 752.78,213.98 749.93,218.30 C748.21,220.88 746.37,223.00 745.83,223.00 C743.79,223.00 745.51,216.46 748.23,213.85 C751.44,210.78 751.85,208.00 749.11,208.00 C747.06,208.00 745.06,210.31 739.12,219.50 C736.99,222.80 733.53,227.30 731.44,229.50 C730.19,230.81 729.13,232.11 728.38,233.18 C728.56,233.28 728.82,233.47 729.15,233.74 C729.99,234.42 730.98,234.69 731.34,234.32 C731.70,233.96 732.00,234.11 732.00,234.64 C732.00,236.29 717.21,244.52 702.66,250.97 C701.68,251.40 700.70,251.83 699.70,252.26 C701.54,251.27 702.50,250.49 702.50,249.96 C702.50,249.30 705.90,246.90 710.05,244.63 C726.92,235.41 737.02,225.57 740.91,214.55 C743.54,207.10 744.91,205.66 751.00,203.90 C753.47,203.18 755.72,202.32 756.00,201.97 C756.17,201.77 757.39,200.86 759.12,199.66 ZM 642.34 239.17 C644.74,238.17 646.61,237.08 647.69,236.04 C649.24,234.55 652.30,232.84 654.50,232.25 C670.27,228.00 672.16,227.14 677.06,222.04 C679.71,219.27 682.54,217.00 683.33,217.00 C685.20,217.00 693.18,207.98 693.75,205.21 C694.02,203.89 690.38,203.50 689.83,204.79 C689.26,206.13 675.20,215.08 672.98,215.50 C671.83,215.73 669.31,216.88 667.39,218.07 C665.47,219.26 663.68,220.02 663.43,219.76 C663.17,219.50 665.96,217.54 669.64,215.39 C673.31,213.25 678.47,209.57 681.10,207.21 C684.39,204.26 688.17,202.14 693.19,200.44 C701.29,197.68 725.64,185.82 744.99,175.39 C730.54,183.38 716.24,190.63 704.00,196.04 C692.69,201.04 692.25,201.39 694.36,203.51 C695.88,205.02 695.78,205.45 693.10,209.32 C689.42,214.63 686.09,217.68 678.16,223.02 C671.71,227.37 655.76,234.46 642.34,239.17 ZM 369.51 346.76 C369.25,345.68 369.10,344.67 369.08,343.74 C368.95,339.22 372.98,331.97 379.95,324.16 C383.55,320.12 386.50,316.43 386.50,315.96 C386.50,315.49 388.25,313.49 390.40,311.53 C392.54,309.57 394.01,307.68 393.66,307.33 C393.31,306.98 390.12,307.48 386.56,308.45 C375.49,311.44 377.08,309.60 390.24,304.19 C397.17,301.33 403.11,299.00 403.43,299.00 C403.74,299.00 403.02,299.98 401.82,301.18 C399.72,303.28 399.71,303.37 401.57,304.11 C404.26,305.16 407.40,304.94 412.73,303.02 C412.65,303.06 412.58,303.09 412.50,303.12 C395.46,310.23 389.89,314.26 376.43,329.23 C370.77,335.53 368.51,341.01 369.51,346.76 ZM 420.62 299.72 C421.30,299.40 422.00,299.08 422.73,298.73 C425.38,297.49 426.73,294.07 425.00,293.00 C424.33,292.59 424.17,292.02 424.64,291.74 C425.34,291.33 435.21,288.28 445.25,285.37 C446.38,285.05 447.00,285.41 447.00,286.40 C447.00,289.79 452.93,290.88 460.54,289.09 C456.93,290.06 455.66,290.23 454.79,290.11 C453.15,289.90 426.68,297.12 422.50,298.92 C422.16,299.06 421.50,299.34 420.62,299.72 ZM 668.00 363.34 C659.03,362.54 649.97,361.14 646.50,360.01 C643.20,358.94 635.48,357.64 629.34,357.13 C623.20,356.62 617.35,355.72 616.34,355.13 C614.69,354.17 614.77,354.06 617.10,354.03 C622.45,353.97 684.76,363.08 688.50,364.47 C690.21,365.11 684.08,364.77 668.00,363.34 ZM 572.50 348.80 C570.30,348.28 565.97,347.23 562.88,346.46 C559.79,345.69 556.22,345.27 554.94,345.51 C553.67,345.76 551.24,345.26 549.56,344.40 C547.88,343.54 545.41,342.62 544.07,342.36 C540.83,341.74 540.33,341.36 539.75,339.14 C539.34,337.58 539.64,337.36 541.38,337.91 C542.54,338.28 547.55,339.86 552.50,341.44 C557.45,343.01 567.58,345.54 575.00,347.05 C587.30,349.56 587.97,349.80 582.50,349.77 C579.20,349.76 574.70,349.32 572.50,348.80 ZM 808.04 497.93 C808.63,496.82 810.13,495.52 811.37,495.05 C813.67,494.17 818.12,488.93 819.33,485.66 C819.70,484.65 821.35,483.32 823.00,482.69 C824.65,482.07 826.00,481.21 826.00,480.78 C826.00,480.35 826.61,480.00 827.35,480.00 C829.13,480.00 832.00,476.75 832.00,474.73 C832.00,472.68 833.23,471.91 834.87,472.92 C835.81,473.50 835.33,474.51 833.07,476.78 C831.38,478.46 830.00,480.28 830.00,480.81 C830.00,482.33 817.09,494.00 815.40,494.00 C814.57,494.00 814.13,494.40 814.43,494.89 C814.99,495.79 812.00,498.10 808.73,499.30 C807.21,499.86 807.11,499.66 808.04,497.93 ZM 577.26 696.76 C577.39,696.12 576.15,695.13 574.50,694.55 C570.05,692.99 568.80,691.96 569.42,690.35 C569.73,689.55 569.61,689.12 569.16,689.40 C568.72,689.68 566.10,687.51 563.34,684.58 C559.53,680.53 558.33,678.51 558.33,676.13 C558.33,674.41 558.60,673.00 558.92,673.01 C559.24,673.01 560.62,674.69 562.00,676.75 C563.38,678.80 568.00,684.15 572.28,688.62 C578.03,694.65 579.66,696.92 578.54,697.35 C577.67,697.68 577.13,697.43 577.26,696.76 ZM 750.09 380.92 C740.90,379.11 726.12,373.54 727.33,372.34 C727.79,371.87 739.05,374.41 748.50,377.11 C755.86,379.21 757.92,379.76 757.91,380.27 C757.90,380.49 757.50,380.71 756.97,381.04 C756.16,381.55 755.28,381.93 755.00,381.88 C754.72,381.82 752.52,381.39 750.09,380.92 ZM 744.03 532.82 C744.07,531.02 747.69,528.55 752.50,527.05 C754.70,526.36 758.08,525.02 760.00,524.06 C764.14,522.00 772.85,519.52 773.54,520.20 C774.01,520.68 750.45,532.09 746.21,533.43 C744.69,533.92 744.01,533.72 744.03,532.82 ZM 835.65 468.54 C835.11,467.12 838.84,454.72 841.15,450.28 C843.03,446.67 844.28,448.80 843.56,454.38 C842.84,459.91 838.71,470.00 837.16,470.00 C836.64,470.00 835.96,469.34 835.65,468.54 ZM 470.00 279.30 C470.00,278.82 476.19,276.94 483.75,275.12 C496.84,271.98 500.55,271.08 500.63,271.33 C500.66,271.43 500.06,271.73 499.25,272.15 C498.01,272.78 497.00,273.69 497.00,274.15 C497.00,274.62 496.33,275.00 495.50,275.00 C494.67,275.00 494.00,275.45 494.00,276.00 C494.00,276.55 493.10,277.00 492.00,277.00 C490.90,277.00 490.00,277.35 490.00,277.79 C490.00,278.22 487.41,278.56 484.25,278.54 C481.09,278.52 476.59,278.88 474.25,279.34 C471.85,279.81 470.00,279.80 470.00,279.30 ZM 395.28 385.52 C388.00,383.11 381.25,380.66 380.28,380.10 C378.66,379.15 378.69,379.06 380.67,379.03 C381.86,379.01 383.49,378.75 384.28,378.45 C385.07,378.14 387.09,379.04 388.75,380.45 C390.42,381.85 392.88,383.00 394.20,383.00 C395.53,383.00 397.49,383.66 398.56,384.47 C399.63,385.28 401.53,385.95 402.80,385.97 C405.05,386.00 411.00,388.58 411.00,389.53 C411.00,390.52 408.08,389.78 395.28,385.52 ZM 703.64 548.50 C704.17,547.11 705.61,546.61 708.75,546.73 C709.44,546.76 710.00,546.35 710.00,545.83 C710.00,545.31 710.45,545.16 711.00,545.50 C711.55,545.84 712.00,545.65 712.00,545.08 C712.00,543.14 716.49,541.16 722.50,540.47 C730.54,539.54 729.05,540.84 716.23,545.92 C705.06,550.36 702.74,550.83 703.64,548.50 ZM 338.17 354.01 C334.32,348.81 333.98,346.77 336.14,341.93 C338.70,336.22 341.08,333.52 342.11,335.17 C342.96,336.56 341.66,339.50 338.81,342.63 C337.02,344.60 336.99,345.03 338.35,348.30 C339.16,350.25 339.54,352.12 339.20,352.47 C338.85,352.82 339.24,352.84 340.08,352.52 C341.19,352.10 341.60,352.62 341.60,354.47 C341.60,357.76 340.86,357.66 338.17,354.01 ZM 783.23 513.75 C783.44,513.06 784.99,511.80 786.67,510.95 C788.34,510.09 792.06,507.71 794.93,505.64 C800.73,501.48 804.68,499.69 806.11,500.57 C807.19,501.23 803.25,504.05 792.21,510.51 C784.14,515.23 782.58,515.80 783.23,513.75 ZM 661.23 565.82 C661.44,565.17 662.27,564.31 663.06,563.89 C667.84,561.40 673.97,559.12 677.00,558.69 C678.92,558.43 681.62,557.88 683.00,557.47 C688.93,555.71 682.86,559.10 673.23,562.92 C662.26,567.28 660.61,567.68 661.23,565.82 ZM 702.50 368.91 C696.45,367.30 691.05,365.76 690.50,365.50 C687.58,364.11 718.64,369.50 722.44,371.04 C727.80,373.21 712.46,371.57 702.50,368.91 ZM 537.96 424.46 C536.65,423.06 532.68,420.49 529.15,418.75 C525.62,417.01 523.21,415.43 523.81,415.23 C524.40,415.03 525.78,415.35 526.88,415.94 C527.97,416.52 530.03,417.00 531.45,417.00 C535.66,417.00 540.97,421.03 540.99,424.25 C541.00,427.61 540.93,427.62 537.96,424.46 ZM 346.50 329.09 C347.60,327.81 350.98,325.07 354.00,323.02 C360.86,318.35 378.40,309.05 375.00,311.89 C373.62,313.03 370.82,314.81 368.78,315.85 C366.73,316.88 365.38,318.08 365.78,318.52 C366.17,318.96 365.94,319.00 365.25,318.60 C364.56,318.21 364.00,318.36 364.00,318.94 C364.00,319.52 363.11,320.00 362.03,320.00 C360.84,320.00 359.43,321.20 358.50,322.99 C357.65,324.64 356.63,325.94 356.23,325.87 C353.43,325.45 350.70,326.37 347.83,328.71 C345.01,331.02 344.80,331.07 346.50,329.09 ZM 367.50 374.57 C359.35,370.66 348.26,363.47 352.00,364.52 C358.03,366.21 367.09,370.83 371.12,374.26 C373.53,376.32 375.27,377.98 375.00,377.96 C374.73,377.94 371.35,376.42 367.50,374.57 ZM 288.00 551.08 C288.00,550.27 291.10,549.14 308.78,543.47 C311.13,542.72 312.79,542.53 312.47,543.05 C312.15,543.57 311.29,544.00 310.58,544.00 C309.86,544.00 308.19,544.85 306.87,545.89 C304.56,547.70 292.27,552.00 289.39,552.00 C288.63,552.00 288.00,551.59 288.00,551.08 ZM 423.67 512.14 C422.31,511.60 423.21,511.08 427.17,510.09 C430.10,509.36 436.26,507.69 440.86,506.38 C447.14,504.59 449.48,503.92 449.63,504.25 C449.72,504.44 449.01,504.99 447.88,505.88 C446.57,506.91 442.80,508.29 439.50,508.94 C436.20,509.59 431.80,510.77 429.73,511.56 C427.66,512.35 425.86,512.97 425.73,512.93 C425.60,512.89 424.68,512.54 423.67,512.14 ZM 243.08 568.59 C244.09,567.59 262.30,559.97 262.71,560.38 C263.80,561.47 260.69,565.02 258.22,565.51 C256.72,565.80 253.41,566.70 250.87,567.52 C246.52,568.91 242.15,569.51 243.08,568.59 ZM 213.50 583.46 C216.28,581.30 238.58,570.00 240.05,570.00 C240.96,570.00 240.95,570.36 240.00,571.50 C239.32,572.33 237.79,573.00 236.62,573.00 C235.44,573.00 233.92,573.90 233.23,575.00 C232.55,576.10 231.07,577.00 229.95,577.00 C228.83,577.00 226.59,577.98 224.97,579.18 C223.35,580.38 221.73,581.07 221.38,580.71 C221.02,580.35 219.55,580.87 218.11,581.87 C216.68,582.86 214.60,583.97 213.50,584.34 L 211.50 585.00 ZM 451.00 504.18 C451.00,503.51 464.97,499.04 472.50,497.31 C474.31,496.89 474.27,497.05 472.14,498.92 C470.82,500.09 468.39,501.00 466.62,501.00 C464.89,501.00 461.79,501.90 459.74,503.00 C455.97,505.02 451.00,505.69 451.00,504.18 ZM 617.53 585.96 C618.66,584.13 626.04,579.91 627.04,580.52 C627.57,580.85 628.00,580.71 628.00,580.22 C628.00,579.09 635.33,576.61 637.01,577.17 C637.69,577.40 636.28,578.41 633.88,579.43 C631.47,580.44 626.96,582.56 623.86,584.13 C617.79,587.22 616.52,587.59 617.53,585.96 ZM 185.17 724.21 C185.17,721.42 185.21,718.82 185.28,716.55 C185.88,698.17 187.48,690.80 192.46,683.47 C192.87,682.86 193.31,682.14 193.74,681.36 C190.37,689.79 187.96,698.63 186.44,707.96 C185.69,712.65 185.27,718.22 185.17,724.21 ZM 538.82 467.62 C540.44,465.90 542.51,463.04 543.41,461.25 C545.34,457.42 545.81,457.19 545.49,460.25 C545.36,461.49 545.20,463.24 545.13,464.14 C544.91,466.91 541.63,470.11 538.67,470.43 L 535.86 470.74 ZM 551.50 645.17 C552.03,637.82 554.09,633.10 556.79,633.03 C557.81,633.01 557.83,633.45 556.85,635.25 C556.18,636.49 554.58,640.88 553.30,645.00 L 550.96 652.50 ZM 534.23 311.30 C533.65,312.89 533.44,315.02 533.21,318.98 C532.95,323.39 532.42,327.00 532.02,327.00 C531.63,327.00 530.58,325.16 529.69,322.90 L 528.09 318.82 C531.06,316.78 533.27,314.47 533.63,313.00 C533.78,312.42 533.98,311.86 534.23,311.30 ZM 187.24 600.09 C189.07,598.49 194.37,594.86 199.03,592.03 C207.10,587.12 207.31,587.05 203.50,590.54 C198.18,595.42 195.29,597.30 194.16,596.60 C193.09,595.94 190.77,598.35 191.51,599.34 C191.78,599.70 191.71,599.79 191.37,599.53 C191.02,599.28 189.61,599.95 188.23,601.03 C184.33,604.10 183.54,603.34 187.24,600.09 ZM 563.70 621.66 C562.98,619.79 563.98,618.55 567.75,616.61 C569.54,615.70 571.00,614.51 571.00,613.97 C571.00,613.44 571.67,613.00 572.50,613.00 C574.81,613.00 574.36,613.83 569.46,618.59 C566.02,621.93 564.92,623.01 564.35,622.78 C564.08,622.67 563.93,622.26 563.70,621.66 ZM 644.50 230.06 C641.62,229.50 641.77,229.36 648.00,226.64 C657.59,222.44 657.81,222.42 654.00,225.94 C649.40,230.19 648.08,230.76 644.50,230.06 ZM 608.18 242.48 C609.17,241.49 629.04,235.13 628.52,235.97 C627.62,237.43 613.27,243.00 610.40,243.00 C608.90,243.00 607.90,242.77 608.18,242.48 ZM 382.08 522.60 C383.08,521.63 401.00,517.22 401.00,517.94 C401.00,519.26 389.55,523.00 385.48,523.00 C383.38,523.00 381.85,522.82 382.08,522.60 ZM 579.58 607.26 C584.24,602.55 590.00,599.48 590.00,601.70 C590.00,602.21 587.19,604.45 583.75,606.68 C574.35,612.78 574.08,612.81 579.58,607.26 ZM 554.75 667.41 C552.73,664.09 552.02,661.63 552.07,658.19 L 552.14 653.50 L 553.89 659.50 C554.85,662.80 556.40,666.96 557.34,668.75 C559.91,673.64 557.90,672.59 554.75,667.41 ZM 545.94 452.00 C545.89,450.62 545.52,447.14 545.11,444.26 C544.39,439.23 544.44,439.08 546.18,440.66 C547.44,441.81 548.00,443.72 547.98,446.90 C547.97,451.91 546.10,456.57 545.94,452.00 ZM 592.00 351.98 L 589.50 349.92 L 595.50 350.60 C598.80,350.97 602.40,351.63 603.50,352.07 C605.28,352.78 605.21,352.88 602.88,352.94 C601.43,352.97 598.96,353.24 597.38,353.52 C595.37,353.89 593.74,353.42 592.00,351.98 ZM 509.00 484.75 C510.58,483.15 524.79,477.39 524.35,478.54 C523.64,480.39 516.99,483.73 512.34,484.57 C510.23,484.95 508.73,485.04 509.00,484.75 ZM 332.13 536.54 C333.06,535.61 347.00,532.19 347.00,532.89 C347.00,534.28 342.60,535.83 337.11,536.39 C334.15,536.69 331.91,536.76 332.13,536.54 ZM 471.26 285.95 C481.19,282.89 488.31,280.37 491.34,278.80 C493.64,277.60 496.92,276.75 498.69,276.89 C499.94,276.99 503.62,276.35 507.85,275.42 C497.39,278.22 488.01,280.83 482.50,282.52 C478.05,283.88 474.35,285.02 471.26,285.95 ZM 346.07 761.95 C346.10,758.95 346.67,751.88 347.32,746.23 L 347.87 741.46 C347.78,742.41 347.69,743.43 347.60,744.50 L 346.94 752.50 L 349.31 748.65 C349.39,748.51 349.47,748.38 349.55,748.25 C348.81,749.99 348.50,752.72 348.50,757.20 C348.50,758.55 348.46,759.79 348.39,760.88 C348.42,759.01 348.14,757.32 347.50,757.00 C346.91,756.71 346.37,758.76 346.19,762.00 C346.13,763.18 346.09,764.10 346.10,764.80 C346.06,764.10 346.05,763.16 346.07,761.95 ZM 367.99 685.24 C368.52,684.98 369.12,684.70 369.75,684.43 C373.67,682.76 380.95,683.14 385.03,684.61 C382.77,683.88 379.04,683.85 372.61,684.44 C370.52,684.63 368.99,684.89 367.99,685.24 ZM 603.50 593.00 C604.50,591.90 606.03,591.01 606.90,591.03 C608.12,591.06 607.93,591.54 606.14,593.03 C603.06,595.60 601.17,595.57 603.50,593.00 ZM 316.82 682.62 L 315.92 683.09 C312.75,684.78 307.25,685.29 303.13,684.53 C304.05,684.63 305.02,684.60 306.00,684.43 C307.92,684.11 310.85,683.75 312.50,683.63 C313.89,683.53 315.66,683.10 316.82,682.62 ZM 651.00 549.50 C619.02,563.25 593.25,575.58 572.67,587.11 C578.86,583.62 585.47,580.10 592.50,576.55 C614.09,565.65 622.83,561.61 651.00,549.50 ZM 669.30 263.73 C652.45,269.38 631.37,275.58 602.50,283.47 C578.24,290.11 561.93,295.16 551.38,299.42 C561.95,295.10 578.17,290.13 602.50,283.47 C628.81,276.28 651.93,269.41 669.30,263.73 ZM 518.15 627.46 C517.01,628.74 515.93,630.03 514.91,631.32 C510.60,636.75 507.26,641.73 504.79,646.53 C507.93,640.15 512.37,633.81 518.15,627.46 ZM 728.19 233.45 C727.00,235.23 726.75,236.27 728.10,235.44 C728.61,235.12 728.71,234.33 728.32,233.68 C728.27,233.60 728.23,233.52 728.19,233.45 ZM 555.77 355.08 C563.99,357.21 574.76,359.75 586.57,362.36 C579.51,360.83 573.28,359.44 569.00,358.42 C564.19,357.27 559.79,356.16 555.77,355.08 ZM 524.30 342.81 C527.39,344.97 532.66,347.54 538.51,349.78 C532.19,347.48 527.55,345.21 524.30,342.81 ZM 221.35 639.45 C226.22,634.21 230.71,630.13 237.57,624.48 C231.63,629.38 226.23,634.36 221.35,639.45 ZM 499.20 668.99 C499.22,670.15 499.27,671.31 499.36,672.50 C499.70,676.95 500.42,681.08 501.60,685.05 C499.98,679.76 499.17,674.32 499.20,668.99 ZM 196.80 674.36 C198.20,671.01 200.68,666.55 203.64,661.93 C201.09,665.98 198.82,670.12 196.80,674.36 ZM 368.65 688.64 C367.15,687.68 366.00,686.77 366.00,686.53 C366.00,686.40 366.35,686.14 366.92,685.81 C366.18,686.49 366.77,687.42 368.65,688.64 ZM 316.54 679.44 L 319.34 681.27 L 317.91 682.04 C319.16,681.26 318.88,680.97 316.54,679.44 ZM 386.05 685.03 C387.26,685.61 388.00,686.30 388.00,687.09 C388.00,687.73 386.98,688.47 385.45,689.14 C388.49,687.69 388.66,686.43 386.08,685.04 C386.07,685.04 386.06,685.03 386.05,685.03 ZM 350.64 741.94 C351.51,744.57 351.42,745.31 350.36,746.87 C351.35,745.04 351.37,744.17 350.64,741.94 ZM 369.25 689.01 C369.23,689.00 369.20,688.98 369.18,688.97 C371.63,690.44 374.98,691.10 378.34,690.92 C377.81,690.97 377.28,691.00 376.78,691.00 C374.28,690.99 371.15,690.17 369.25,689.01 ZM 384.51 364.50 C379.31,361.13 374.86,357.71 373.53,355.85 C375.15,357.88 379.48,361.22 384.51,364.50 ZM 348.46 736.33 L 348.50 735.96 L 350.12 740.45 C349.34,738.30 348.65,736.58 348.46,736.33 ZM 808.64 144.23 C805.13,150.95 800.63,158.74 797.84,162.50 C796.51,164.29 794.72,166.44 792.65,168.80 C794.70,166.46 796.49,164.31 797.83,162.50 C800.62,158.75 805.12,150.95 808.64,144.23 ZM 518.68 328.65 C518.24,329.85 518.01,331.06 518.00,332.27 C518.00,332.15 518.00,332.03 518.00,331.91 C518.00,330.84 518.23,329.76 518.68,328.65 ZM 728.19 233.45 C728.26,233.36 728.32,233.27 728.38,233.18 C728.05,232.98 728.00,233.07 728.19,233.45 ZM 347.90 764.64 C347.72,765.38 347.50,765.90 347.25,766.15 C347.20,766.19 347.16,766.24 347.12,766.27 C347.44,765.95 347.70,765.37 347.90,764.64 ZM 527.51 319.21 L 526.28 320.09 C526.68,319.80 527.09,319.50 527.51,319.21 ZM 762.95 197.05 C762.77,197.17 762.61,197.28 762.44,197.39 C762.61,197.28 762.78,197.17 762.95,197.05 Z" fill="rgba(136,186,214,1)"/>
<path d="M 155.73 583.39 C155.38,583.04 155.06,565.04 155.02,543.39 L 154.96 504.02 L 210.22 503.76 L 265.49 503.50 L 267.94 497.50 C271.47,488.84 271.55,474.63 268.11,467.64 C267.33,466.07 266.42,464.67 265.39,463.43 C268.85,467.34 270.49,472.73 270.84,480.75 C271.08,486.09 271.61,488.99 272.35,488.98 C281.48,488.85 382.21,471.03 410.50,464.54 C437.04,458.46 450.10,455.36 460.00,452.80 C466.33,451.16 474.20,449.17 477.50,448.37 C492.53,444.72 519.20,436.25 528.26,432.26 C533.18,430.09 533.83,429.50 532.76,428.20 C532.71,428.15 532.67,428.09 532.62,428.04 C534.98,429.98 536.00,432.05 536.00,434.37 C536.00,442.74 512.35,456.20 479.00,466.81 C461.52,472.37 432.82,479.87 394.31,488.94 C299.46,511.30 265.26,521.91 221.00,542.74 C200.65,552.32 168.96,572.08 159.43,581.12 C157.75,582.73 156.08,583.75 155.73,583.39 ZM 864.31 409.80 C859.57,402.99 848.32,391.78 839.90,385.45 C843.09,387.61 845.35,388.60 846.50,388.32 C848.57,387.81 857.40,383.65 864.70,379.75 L 868.91 377.50 L 868.95 360.25 L 869.00 343.00 L 869.00 380.00 C869.00,390.10 868.97,399.28 868.93,405.97 C868.93,404.78 868.92,403.53 868.91,402.25 C868.85,391.01 868.59,388.21 867.83,390.50 C867.28,392.15 866.85,396.06 866.87,399.18 C866.91,404.22 866.69,404.85 864.96,404.72 C863.88,404.64 863.00,404.31 863.00,403.98 C863.00,403.65 862.32,402.51 861.50,401.44 C860.02,399.53 860.01,399.53 860.68,401.50 C861.32,403.34 861.22,403.38 859.46,402.00 C858.40,401.17 858.93,402.30 860.62,404.50 C861.70,405.90 863.10,407.92 864.31,409.80 ZM 775.74 357.60 C760.75,353.44 743.66,349.65 724.00,346.08 C720.88,345.51 717.89,344.99 714.87,344.47 C729.02,346.78 740.34,349.04 753.50,351.98 C761.14,353.69 768.59,355.58 775.74,357.60 ZM 259.00 458.63 C256.56,457.55 253.79,457.00 250.77,457.00 C254.49,457.00 256.51,457.34 259.00,458.63 ZM 836.46 383.03 C831.97,380.12 827.15,377.37 821.94,374.74 C827.45,377.46 832.33,380.24 836.46,383.03 ZM 517.82 421.38 C509.63,418.94 498.16,416.32 483.25,413.46 C498.45,416.37 509.70,418.91 517.82,421.38 ZM 868.76 416.99 C868.75,417.00 868.75,417.00 868.75,417.00 C868.73,417.00 868.68,416.95 868.61,416.85 C868.68,416.94 868.73,416.99 868.75,416.99 C868.75,416.99 868.75,416.99 868.76,416.99 Z" fill="rgba(139,182,107,1)"/>
<path d="M 191.52 775.75 C185.87,758.92 183.44,726.48 186.44,707.96 C191.72,675.39 207.95,648.89 237.57,624.48 C276.17,592.67 326.85,568.51 415.00,539.89 C423.52,537.12 432.98,534.02 436.00,532.99 C439.02,531.97 450.27,528.35 461.00,524.96 C542.50,499.20 564.34,489.74 581.29,472.85 C595.03,459.16 594.66,443.88 580.28,431.06 C573.84,425.32 560.56,417.75 551.34,414.55 C547.58,413.24 541.35,411.06 537.50,409.71 C533.65,408.35 528.25,406.72 525.50,406.09 C522.75,405.46 516.90,403.86 512.50,402.54 C504.47,400.13 489.85,396.49 474.00,392.94 C436.02,384.44 407.89,376.68 397.36,371.77 C388.18,367.49 375.52,358.92 373.22,355.42 C367.12,346.11 368.04,338.57 376.43,329.23 C389.89,314.26 395.46,310.23 412.50,303.12 C416.90,301.28 421.40,299.39 422.50,298.92 C426.68,297.12 453.15,289.90 454.79,290.11 C456.60,290.35 460.08,289.40 482.50,282.52 C496.32,278.28 534.55,268.23 553.00,263.98 C558.22,262.77 568.12,260.29 575.00,258.47 C581.88,256.64 592.36,253.97 598.31,252.53 C604.25,251.09 612.13,248.85 615.81,247.54 C619.49,246.23 627.41,243.75 633.42,242.04 C647.71,237.95 670.19,228.40 678.16,223.02 C686.09,217.68 689.42,214.63 693.10,209.32 C695.78,205.45 695.88,205.02 694.36,203.51 C692.25,201.39 692.69,201.04 704.00,196.04 C735.10,182.29 779.47,156.68 805.84,137.26 C809.88,134.28 813.43,132.10 813.74,132.41 C814.75,133.41 803.15,155.33 797.83,162.50 C790.64,172.18 770.84,191.79 763.00,197.02 C759.42,199.40 756.28,201.63 756.00,201.97 C755.72,202.32 753.47,203.18 751.00,203.90 C744.91,205.66 743.54,207.10 740.91,214.55 C737.02,225.57 726.92,235.41 710.05,244.63 C705.90,246.90 702.50,249.30 702.50,249.96 C702.50,253.50 660.13,267.71 602.50,283.47 C551.02,297.56 535.86,304.06 533.63,313.00 C533.26,314.50 530.97,316.87 527.91,318.94 C521.40,323.33 518.00,327.78 518.00,331.91 C518.00,342.67 530.65,349.25 569.00,358.42 C582.29,361.59 614.44,368.35 631.50,371.55 C664.86,377.81 709.12,389.23 730.00,396.97 C759.98,408.09 779.93,422.23 787.16,437.50 C790.78,445.16 791.11,455.25 787.96,462.59 C779.03,483.42 759.12,499.35 715.50,520.58 C703.95,526.20 691.58,531.99 688.00,533.46 C684.42,534.93 679.47,537.06 677.00,538.20 C674.53,539.34 662.83,544.42 651.00,549.50 C622.83,561.61 614.09,565.65 592.50,576.55 C537.60,604.28 508.20,630.03 500.84,656.84 C497.21,670.07 499.69,685.43 507.52,698.15 C509.44,701.26 511.00,704.14 511.00,704.55 C511.00,705.71 517.91,713.94 523.98,720.01 C530.26,726.28 535.66,731.14 545.00,738.91 C559.32,750.83 579.00,772.26 579.00,775.93 C579.00,776.68 560.51,777.00 517.50,777.00 C483.67,777.00 456.00,776.73 456.00,776.40 C456.00,776.07 457.22,773.63 458.71,770.98 C460.71,767.42 462.16,766.02 464.30,765.59 C465.89,765.27 468.72,763.48 470.59,761.61 C473.35,758.85 474.00,757.43 474.00,754.13 C474.00,751.90 473.28,748.55 472.40,746.70 C470.83,743.42 470.87,743.21 474.00,737.65 C476.62,733.01 477.09,731.30 476.55,728.42 C475.03,720.34 468.58,718.68 461.94,724.67 C454.64,731.26 453.01,737.14 456.01,746.03 C458.80,754.33 458.55,758.18 454.75,765.34 L 451.50 771.45 L 451.26 765.48 C451.13,762.19 450.56,755.30 449.99,750.16 C448.51,736.74 450.37,719.97 453.74,716.33 C457.26,712.54 458.00,709.81 458.00,700.66 C458.00,694.58 457.56,691.80 456.31,689.97 C453.92,686.48 453.03,686.03 448.42,686.02 C442.67,685.99 439.81,689.23 439.21,696.45 C438.55,704.41 439.75,710.55 442.63,713.97 L 445.14 716.95 L 443.90 728.25 C442.94,737.04 442.92,742.10 443.83,751.08 C445.78,770.36 445.23,773.24 441.37,763.76 C439.83,759.98 439.48,757.86 440.12,756.19 C441.56,752.41 441.13,748.44 439.00,745.73 C436.57,742.64 436.54,741.76 438.64,735.90 C440.76,729.98 439.98,727.02 434.84,721.44 C431.21,717.51 430.25,717.00 426.45,717.00 C422.95,717.00 421.74,717.51 419.99,719.73 C417.50,722.91 417.83,726.54 421.02,731.02 L 423.05 733.87 L 421.03 737.19 C418.46,741.40 418.43,747.56 420.96,751.71 C422.04,753.47 425.20,756.21 427.98,757.80 C432.47,760.37 433.49,761.63 436.99,768.85 L 440.93 777.00 L 395.46 777.00 C370.46,777.00 350.00,776.83 350.00,776.62 C350.00,776.42 351.12,773.71 352.50,770.60 C353.88,767.49 355.00,764.31 355.00,763.54 C355.00,762.77 355.90,761.85 357.01,761.50 C359.98,760.56 364.87,756.16 366.54,752.93 C368.39,749.34 368.38,746.26 366.51,742.67 C365.21,740.17 365.21,739.50 366.52,736.97 C368.57,733.00 368.40,727.68 366.17,725.65 C363.62,723.34 357.83,723.56 354.61,726.09 C353.15,727.24 351.09,729.83 350.02,731.84 L 348.09 735.50 L 347.92 731.25 C347.83,728.91 347.68,726.44 347.60,725.75 C347.52,725.06 348.48,722.97 349.73,721.11 C351.58,718.34 352.00,716.35 352.00,710.28 C352.00,703.40 351.78,702.63 349.08,699.92 C345.47,696.32 341.76,696.15 338.45,699.45 C336.23,701.67 336.00,702.72 336.00,710.38 C336.00,717.99 336.26,719.15 338.54,721.87 L 341.08 724.89 L 340.61 742.69 C340.35,752.49 339.74,761.85 339.25,763.50 L 338.36 766.50 L 336.57 761.83 C334.63,756.75 334.76,751.63 337.02,743.84 C338.71,738.00 337.33,732.58 332.85,727.48 C330.36,724.64 329.09,724.00 325.95,724.00 C319.18,724.00 316.81,731.32 321.10,738.97 C323.08,742.49 323.11,742.89 321.60,745.80 C318.46,751.89 320.33,758.18 326.22,761.31 C328.68,762.61 330.51,764.90 332.81,769.58 C334.57,773.13 336.00,776.25 336.00,776.52 C336.00,776.78 313.05,777.00 285.00,777.00 C244.67,777.00 235.02,777.31 234.15,774.69 C233.79,773.62 234.91,772.04 235.99,769.74 C237.41,766.72 239.24,764.84 242.33,763.20 C254.09,756.96 258.53,749.89 258.44,737.50 C258.40,730.88 257.84,728.16 255.19,721.72 C251.35,712.35 251.23,708.78 254.50,701.00 C257.18,694.63 257.75,688.15 255.80,686.20 C251.15,681.55 239.99,689.80 236.30,700.62 C234.27,706.58 235.02,716.81 237.98,723.50 C240.77,729.80 241.62,738.47 240.06,744.69 C238.54,750.76 230.03,769.00 228.72,769.00 C227.11,769.00 228.61,744.58 230.92,733.21 C233.43,720.80 233.51,710.87 231.19,697.34 L 229.45 687.18 L 231.72 684.54 C233.81,682.11 234.00,680.91 234.00,670.39 C234.00,655.27 232.43,652.00 225.14,652.00 C218.47,652.00 216.01,657.19 216.01,671.32 C216.00,680.73 216.78,683.31 220.60,686.54 C226.21,691.29 227.95,716.29 224.14,737.38 C222.96,743.91 222.00,752.80 222.00,757.13 C222.00,761.46 221.61,765.00 221.12,765.00 C219.64,765.00 216.00,748.44 216.02,741.79 C216.03,738.33 217.15,731.25 218.52,726.05 C222.92,709.31 221.39,700.46 212.54,691.32 C208.48,687.13 206.72,686.00 204.26,686.00 C197.40,686.00 196.31,691.32 201.00,702.00 C204.70,710.44 204.78,714.72 201.39,725.58 C196.48,741.33 199.11,753.26 208.85,759.41 C211.96,761.37 213.27,763.26 215.77,769.41 L 218.86 777.00 L 205.40 777.00 C195.52,777.00 191.83,776.67 191.52,775.75 ZM 288.59 690.50 C290.18,689.29 291.12,688.56 292.18,688.30 C293.77,687.90 295.62,688.52 300.24,690.08 C309.65,693.25 319.16,690.75 324.35,683.75 L 326.39 681.00 L 324.34 678.25 C319.32,671.51 308.86,669.31 298.54,672.81 L 292.59 674.83 L 288.48 671.88 C284.47,669.00 281.08,668.77 280.94,671.36 C280.70,675.66 281.22,691.54 281.62,692.20 C282.54,693.69 285.29,693.02 288.59,690.50 ZM 402.75 697.75 C403.30,697.06 403.69,691.78 403.62,686.00 C403.51,676.28 403.35,675.48 401.48,675.21 C400.37,675.05 397.72,676.22 395.59,677.81 L 391.71 680.70 L 386.61 678.74 C372.35,673.29 353.32,682.21 361.13,690.69 C366.81,696.86 379.20,698.91 387.64,695.08 L 391.77 693.20 L 396.14 696.10 C401.10,699.39 401.39,699.46 402.75,697.75 ZM 346.60 659.82 L 351.03 656.64 L 354.76 658.43 C360.96,661.40 368.70,661.61 374.83,658.98 C385.72,654.29 385.69,647.11 374.77,642.55 C369.76,640.45 360.47,640.61 355.50,642.88 L 351.50 644.70 L 347.36 641.76 C340.41,636.83 339.53,637.74 339.35,650.01 C339.22,659.17 339.91,663.00 341.71,663.00 C341.96,663.00 344.17,661.57 346.60,659.82 ZM 360.38 653.91 C355.91,652.62 354.31,650.44 356.83,649.09 C360.70,647.02 369.41,646.65 372.82,648.41 C376.90,650.52 376.83,651.75 372.53,653.55 C368.68,655.16 365.06,655.27 360.38,653.91 ZM 369.12 688.93 C364.92,686.37 365.94,685.05 372.61,684.44 C380.14,683.74 383.97,683.91 386.08,685.04 C388.90,686.55 388.44,687.92 384.53,689.55 C379.56,691.63 373.12,691.37 369.12,688.93 ZM 299.75 683.48 C296.18,681.48 296.28,680.55 300.25,678.87 C304.86,676.92 313.14,677.21 316.53,679.42 C319.15,681.15 319.20,681.31 317.40,682.33 C316.36,682.93 314.15,683.51 312.50,683.63 C310.85,683.75 307.92,684.11 306.00,684.43 C303.73,684.81 301.53,684.48 299.75,683.48 ZM 347.60 744.50 C347.97,740.10 348.33,736.41 348.41,736.31 C348.49,736.20 349.26,738.06 350.12,740.45 C351.62,744.64 351.59,744.93 349.31,748.65 L 346.94 752.50 ZM 346.19 762.00 C346.37,758.76 346.91,756.71 347.50,757.00 C348.89,757.70 348.59,764.81 347.10,766.29 C346.15,767.24 345.95,766.32 346.19,762.00 Z" fill="rgba(165,218,245,1)"/>
<path d="M 155.07 592.50 L 163.53 585.61 C196.72,558.55 240.36,537.37 300.00,519.38 C319.86,513.39 348.71,506.05 415.50,489.99 C482.72,473.83 514.04,462.85 532.30,449.06 C535.26,446.83 537.98,445.00 538.34,445.00 C538.70,445.00 539.00,447.79 539.00,451.19 L 539.00 457.39 L 533.40 462.81 C525.69,470.28 508.92,478.13 480.77,487.45 C458.91,494.69 444.59,498.79 384.50,515.01 C297.88,538.41 254.97,553.58 215.50,574.79 C195.30,585.65 178.21,597.48 162.75,611.29 L 155.00 618.21 L 155.07 592.50 ZM 792.00 385.32 C795.03,386.71 797.77,387.87 798.10,387.92 C798.42,387.96 798.77,385.59 798.87,382.64 C798.99,378.78 798.59,376.91 797.44,375.95 C795.29,374.17 792.22,374.03 790.87,375.65 C790.27,376.38 789.37,376.73 788.89,376.43 C788.40,376.13 788.00,376.58 788.00,377.44 C788.00,378.33 787.14,379.00 786.00,379.00 C784.90,379.00 783.96,379.56 783.92,380.25 C783.86,381.18 783.72,381.19 783.36,380.31 C783.09,379.65 782.15,379.39 781.27,379.73 C780.21,380.13 779.91,379.95 780.39,379.17 C780.79,378.53 780.61,378.00 780.00,378.00 C779.39,378.00 779.21,377.47 779.61,376.83 C780.09,376.04 779.78,375.87 778.66,376.30 C777.75,376.65 777.00,376.45 777.00,375.86 C777.00,375.27 776.32,375.05 775.49,375.37 C774.15,375.88 774.16,375.59 775.53,372.94 C776.38,371.29 776.84,369.55 776.55,369.08 C775.86,367.97 781.11,366.61 781.91,367.69 C782.23,368.14 783.51,368.54 784.75,368.58 C787.92,368.69 786.84,367.97 780.77,365.93 C776.67,364.56 772.19,363.21 767.30,361.88 C768.73,362.26 770.13,362.64 771.50,363.03 C790.59,368.39 793.00,369.20 793.00,370.23 C793.00,370.72 793.38,370.88 793.85,370.59 C796.32,369.07 825.22,382.79 836.85,391.01 C865.65,411.34 875.43,439.86 864.56,471.82 C860.33,484.25 852.61,497.05 841.94,509.66 C841.98,509.58 842.00,509.52 842.00,509.48 C842.00,508.80 842.67,507.69 843.49,507.01 C844.31,506.33 844.74,505.39 844.45,504.91 C844.15,504.44 843.76,498.08 843.56,490.78 C843.12,474.20 843.08,473.99 841.08,477.01 C839.49,479.43 837.63,481.87 835.51,484.33 C835.54,484.30 835.56,484.27 835.59,484.24 C848.27,468.67 852.75,451.10 847.97,435.65 C838.09,403.64 793.02,378.75 716.50,363.06 C707.53,361.21 699.22,359.61 690.55,358.08 C724.71,363.97 748.75,369.94 772.07,377.89 C780.01,380.60 788.97,383.94 792.00,385.32 ZM 579.16 687.50 C547.73,657.54 553.18,632.20 597.05,605.70 C592.69,608.66 592.63,610.38 591.84,615.70 C590.26,626.37 591.87,636.17 596.95,646.75 L 601.07 655.33 L 604.28 652.34 C607.88,648.99 613.21,644.97 619.39,640.85 C613.32,645.08 608.44,649.33 603.41,654.38 C591.58,666.25 587.96,673.22 587.10,685.78 L 586.50 694.50 ZM 614.13 596.12 C632.35,586.50 651.98,578.12 696.15,560.61 C728.52,547.77 749.67,539.01 765.85,531.47 C750.74,538.63 733.14,545.94 694.00,561.49 C652.77,577.87 630.92,587.32 614.13,596.12 ZM 667.65 615.66 C650.88,623.24 639.08,628.99 629.95,634.23 C634.66,631.44 639.54,628.75 644.31,626.34 C646.99,625.00 656.24,620.77 667.65,615.66 ZM 834.91 517.50 C828.88,523.85 822.12,530.12 814.70,536.24 C819.83,531.96 824.77,527.48 829.75,522.63 C831.59,520.84 833.34,519.10 834.91,517.50 ZM 812.49 504.76 C819.38,499.67 826.00,494.13 830.85,489.35 C825.76,494.47 819.61,499.63 812.49,504.76 ZM 783.36 558.70 C781.76,559.70 780.14,560.70 778.50,561.68 C767.87,568.08 758.65,573.31 747.88,578.83 C750.69,577.37 753.42,575.91 756.20,574.40 C766.43,568.83 775.35,563.69 783.36,558.70 Z" fill="rgba(187,143,106,1)"/>
<path d="M 270.84 480.75 C270.37,469.98 267.57,463.95 261.16,459.89 C257.48,457.55 255.49,457.00 250.77,457.00 C247.56,457.00 243.31,457.68 241.31,458.51 C239.32,459.35 237.63,459.91 237.56,459.76 C237.48,459.62 236.63,455.50 235.66,450.62 C232.73,435.88 225.58,424.40 216.62,420.06 C211.10,417.39 201.13,417.30 195.50,419.87 C188.30,423.16 180.94,432.75 177.95,442.75 C176.77,446.72 174.00,448.72 174.00,445.60 C174.00,444.83 177.76,436.61 182.37,427.33 C218.38,354.71 256.66,306.17 301.50,276.26 C311.14,269.84 321.96,263.52 322.30,264.13 C322.41,264.33 323.19,265.85 324.04,267.50 L 325.57 270.50 L 366.21 271.00 C388.55,271.27 407.11,271.77 407.44,272.11 C407.77,272.44 402.54,274.65 395.82,277.02 C370.69,285.88 348.60,298.52 336.75,310.81 C321.95,326.15 320.31,341.08 331.77,356.16 C349.39,379.35 394.52,396.42 483.25,413.46 C513.20,419.21 529.29,424.00 532.76,428.20 C533.83,429.50 533.18,430.09 528.26,432.26 C519.20,436.25 492.53,444.72 477.50,448.37 C474.20,449.17 466.33,451.16 460.00,452.80 C450.10,455.36 437.04,458.46 410.50,464.54 C382.21,471.03 281.48,488.85 272.35,488.98 C271.61,488.99 271.08,486.09 270.84,480.75 ZM 838.50 384.47 C821.64,372.25 789.82,360.10 753.50,351.98 C724.29,345.46 704.10,342.28 642.00,334.45 C583.37,327.05 558.23,322.41 546.41,316.80 C543.71,315.52 541.50,313.80 541.50,312.99 C541.50,310.69 554.19,304.50 568.00,300.07 C574.88,297.86 592.20,292.85 606.50,288.94 C674.37,270.36 711.07,256.87 733.00,242.44 C744.05,235.17 754.36,224.97 757.97,217.74 C759.64,214.41 761.00,210.78 761.00,209.68 C761.00,207.70 761.43,207.68 804.75,208.33 C828.81,208.70 853.11,209.29 858.75,209.65 L 869.00 210.30 L 869.00 288.00 L 863.22 288.00 C859.60,288.00 856.61,288.58 855.21,289.56 C853.16,291.00 852.94,290.98 852.37,289.31 C847.12,273.88 838.77,265.98 827.79,266.02 C815.83,266.07 807.27,274.20 802.61,289.93 C801.72,292.92 801.00,296.78 801.00,298.51 C801.00,302.69 800.29,303.20 796.92,301.46 C789.38,297.56 778.55,301.19 773.99,309.15 C771.88,312.83 771.51,314.73 771.56,321.50 C771.65,331.58 775.05,341.02 779.00,342.11 C780.38,342.49 801.19,342.85 825.25,342.90 L 869.00 343.00 L 868.95 360.25 L 868.91 377.50 L 864.70 379.75 C857.40,383.65 848.57,387.81 846.50,388.32 C845.19,388.64 842.43,387.31 838.50,384.47 ZM 155.00 476.58 C155.00,464.80 155.27,454.45 155.61,453.58 C155.94,452.71 156.84,452.00 157.61,452.00 C158.37,452.00 159.00,451.55 159.00,451.00 C159.00,450.45 161.17,450.00 163.81,450.00 C168.89,450.00 171.29,451.71 175.34,458.25 C177.03,460.98 179.37,461.83 180.44,460.10 C180.75,459.60 181.65,455.78 182.45,451.60 C184.29,441.97 186.79,436.35 191.56,431.06 C196.50,425.60 199.77,424.00 206.00,424.00 C212.18,424.00 215.51,425.60 220.27,430.88 C226.97,438.29 229.96,447.20 230.89,462.48 C231.63,474.65 232.51,475.20 239.68,468.04 C244.52,463.19 244.93,463.00 250.28,463.00 C257.09,463.00 260.99,465.80 263.56,472.53 C265.59,477.84 265.17,488.38 262.69,494.25 L 261.10 498.00 L 155.00 498.00 ZM 418.47 267.25 C423.61,254.05 422.01,242.39 414.15,235.78 L 411.21 233.31 L 417.41 232.17 C436.03,228.73 510.98,219.00 518.78,219.00 C519.33,219.00 520.05,220.07 520.38,221.37 C520.79,223.03 521.92,223.93 524.11,224.37 C525.84,224.72 540.44,225.00 556.57,225.00 C585.70,225.00 585.90,224.99 587.44,222.78 C588.29,221.57 589.27,219.09 589.61,217.28 C589.79,216.33 589.85,215.63 590.18,215.08 C591.23,213.30 594.94,213.11 613.50,211.58 C646.11,208.89 649.00,208.70 649.00,209.24 C649.00,209.88 635.67,214.32 615.21,220.48 C594.96,226.58 547.66,238.49 516.00,245.46 C481.93,252.96 446.17,261.52 431.68,265.64 C418.00,269.53 417.56,269.59 418.47,267.25 ZM 779.85 333.75 C777.79,329.94 777.50,315.87 779.40,312.19 C781.24,308.64 785.57,306.00 789.58,306.00 C793.03,306.00 798.25,309.23 799.95,312.41 C801.58,315.45 803.79,316.42 805.63,314.89 C806.56,314.12 807.00,311.42 807.00,306.43 C807.00,286.05 815.62,272.00 828.11,272.00 C836.65,272.00 844.45,281.53 847.02,295.12 C848.44,302.59 851.75,304.33 854.48,299.03 C856.31,295.49 858.80,294.00 862.85,294.00 C864.85,294.00 866.21,293.93 867.12,294.52 C869.10,295.82 869.00,300.30 869.00,315.61 L 869.00 336.00 L 781.07 336.00 ZM 328.45 261.53 C327.65,259.62 327.00,255.77 327.00,252.96 C327.00,248.64 327.46,247.39 329.92,244.92 C333.87,240.98 337.06,241.16 342.00,245.62 C347.32,250.43 348.55,249.35 349.26,239.25 C350.19,226.02 356.13,214.52 363.64,211.38 C377.46,205.60 388.54,217.91 390.25,240.90 C390.66,246.45 393.12,247.02 397.92,242.69 C404.41,236.83 410.48,237.73 413.38,244.99 C415.28,249.74 415.43,254.40 413.88,260.56 L 412.76 265.00 L 329.90 265.00 ZM 525.04 216.07 C523.34,212.89 523.78,206.51 525.83,204.65 C528.37,202.36 530.45,202.58 533.59,205.50 C538.00,209.59 539.50,208.51 540.29,200.66 C541.39,189.67 547.39,181.60 554.46,181.60 C560.20,181.60 565.32,188.19 566.54,197.16 C567.90,207.21 569.22,208.55 573.69,204.42 C580.01,198.55 586.55,204.52 584.04,213.85 L 582.92 218.00 L 554.50 218.00 C527.42,218.00 526.02,217.91 525.04,216.07 ZM 245.08 748.98 C247.92,739.85 247.60,731.70 244.00,721.84 C240.62,712.56 240.16,705.57 242.61,700.70 C244.38,697.20 248.90,692.00 250.18,692.00 C250.62,692.00 249.86,694.98 248.49,698.62 C245.04,707.78 245.20,714.17 249.08,723.83 C253.57,734.97 253.85,740.17 250.33,746.93 C248.77,749.92 246.53,752.99 245.33,753.75 L 243.17 755.13 ZM 207.25 748.00 C204.26,743.33 204.35,737.49 207.57,726.93 C210.83,716.24 210.54,707.24 206.66,699.04 C205.24,696.04 204.33,693.34 204.64,693.04 C205.71,692.00 212.65,700.88 213.82,704.79 C215.51,710.42 215.28,714.59 212.88,722.00 C211.53,726.18 210.55,732.60 210.14,740.00 L 209.50 751.50 ZM 286.80 366.80 C287.52,366.08 288.00,362.64 288.00,358.27 C288.00,353.55 288.72,348.79 290.03,344.92 C292.27,338.26 292.02,337.00 288.48,337.00 C286.39,337.00 285.81,337.87 284.04,343.62 C282.91,347.26 281.70,353.34 281.35,357.13 C280.81,362.95 280.99,364.33 282.51,366.01 C284.60,368.32 285.17,368.43 286.80,366.80 ZM 762.39 274.42 C762.73,273.55 763.02,269.61 763.04,265.67 C763.07,261.65 763.77,256.74 764.65,254.50 C767.03,248.41 766.92,245.56 764.31,245.19 C762.70,244.96 761.68,245.71 760.50,248.01 C758.69,251.50 756.00,264.37 756.00,269.52 C756.00,274.60 760.89,278.34 762.39,274.42 ZM 637.80 318.80 C638.52,318.08 639.00,314.64 639.00,310.27 C639.00,305.51 639.72,300.79 641.06,296.83 C643.21,290.45 642.78,288.51 639.36,289.17 C636.94,289.63 635.24,293.35 633.36,302.25 C631.68,310.22 632.03,317.77 634.14,319.11 C635.95,320.25 636.38,320.22 637.80,318.80 ZM 431.50 752.83 C424.88,749.17 423.58,745.38 427.00,739.77 C429.65,735.42 429.52,732.09 426.53,728.05 C422.21,722.18 425.94,720.89 430.90,726.53 C432.77,728.67 433.65,729.55 433.79,730.53 C433.92,731.45 433.42,732.45 432.50,734.65 C430.42,739.63 430.62,744.70 433.00,747.73 C434.96,750.22 435.73,754.03 434.25,753.97 C433.84,753.95 432.60,753.44 431.50,752.83 ZM 338.85 445.99 C339.30,442.80 337.32,433.91 334.89,428.25 C333.37,424.69 332.59,423.92 330.77,424.18 C327.73,424.61 327.43,427.25 329.80,432.83 C330.89,435.40 332.11,439.52 332.51,442.00 C332.90,444.48 333.70,447.08 334.27,447.79 C335.88,449.78 338.46,448.77 338.85,445.99 ZM 329.34 448.82 C329.24,445.68 328.10,442.09 325.84,437.82 C323.11,432.65 322.05,431.50 320.01,431.50 C316.73,431.50 316.26,434.24 318.94,437.66 C320.09,439.12 321.73,442.83 322.59,445.91 C323.44,448.98 324.33,452.09 324.56,452.82 C324.80,453.55 326.01,454.00 327.25,453.82 C329.24,453.54 329.48,452.97 329.34,448.82 ZM 278.43 366.23 C279.62,362.47 273.92,350.10 270.04,348.02 C267.81,346.83 265.00,347.66 265.00,349.51 C265.00,350.22 266.58,353.14 268.50,356.00 C270.42,358.86 272.00,361.86 272.00,362.67 C272.00,367.15 277.22,370.04 278.43,366.23 ZM 753.36 274.78 C754.77,272.56 752.77,266.37 748.97,261.11 C745.38,256.16 743.41,255.16 741.33,257.25 C739.97,258.61 740.17,259.30 743.28,263.81 C745.19,266.59 747.07,270.12 747.45,271.67 C748.78,276.94 751.20,278.21 753.36,274.78 ZM 629.79 317.44 C630.50,312.50 622.67,300.00 618.88,300.00 C615.47,300.00 615.64,302.84 619.39,308.27 C621.37,311.16 623.00,314.11 623.00,314.82 C623.00,315.54 623.48,317.03 624.07,318.13 C625.46,320.73 629.39,320.26 629.79,317.44 ZM 464.71 755.74 C464.96,754.45 464.22,750.63 463.08,747.23 C460.09,738.37 460.34,735.74 464.62,731.00 C466.61,728.80 468.63,727.00 469.12,727.00 C470.88,727.00 469.94,732.25 467.39,736.59 C464.60,741.35 464.54,744.57 467.10,750.78 C468.08,753.13 468.16,754.52 467.41,755.72 C465.75,758.34 464.21,758.35 464.71,755.74 ZM 427.56 438.83 C428.22,436.26 429.75,432.75 430.97,431.04 C433.41,427.61 433.08,425.00 430.21,425.00 C424.89,425.00 418.56,439.16 422.23,442.83 C424.43,445.03 426.35,443.59 427.56,438.83 ZM 775.10 268.25 C775.69,266.74 777.35,263.14 778.79,260.26 C781.56,254.74 781.11,252.45 777.39,253.16 C773.80,253.85 767.97,265.86 769.40,269.60 C770.35,272.07 773.96,271.21 775.10,268.25 ZM 299.77 360.76 C300.09,359.53 301.65,356.08 303.22,353.08 C306.25,347.31 306.24,345.00 303.19,345.00 C300.77,345.00 298.61,347.43 296.08,353.02 C292.93,359.96 293.41,362.66 297.84,362.92 C298.58,362.96 299.45,361.99 299.77,360.76 ZM 447.64 710.49 C445.44,708.29 444.82,705.42 445.19,699.05 C445.54,692.95 447.61,690.60 450.51,693.01 C451.89,694.15 452.13,695.83 451.84,702.16 C451.45,710.74 450.26,713.11 447.64,710.49 ZM 650.77 312.76 C651.09,311.53 652.61,308.14 654.14,305.24 C657.15,299.52 656.98,296.72 653.66,297.20 C649.88,297.74 643.84,309.53 645.33,313.42 C646.26,315.85 650.09,315.39 650.77,312.76 ZM 352.94 448.75 C355.29,442.83 356.29,436.89 355.12,435.72 C353.11,433.71 350.64,436.24 348.63,442.33 C347.13,446.90 347.00,448.30 348.00,449.50 C349.80,451.67 351.91,451.34 352.94,448.75 ZM 866.10 412.74 C864.78,410.41 862.32,406.70 860.62,404.50 C858.93,402.30 858.40,401.17 859.46,402.00 C861.22,403.38 861.32,403.34 860.68,401.50 C860.01,399.53 860.02,399.53 861.50,401.44 C862.32,402.51 863.00,403.65 863.00,403.98 C863.00,404.31 863.88,404.64 864.96,404.72 C866.69,404.85 866.91,404.22 866.87,399.18 C866.85,396.06 867.28,392.15 867.83,390.50 C868.59,388.21 868.85,391.01 868.91,402.25 C868.96,410.36 868.89,417.00 868.75,416.99 C868.61,416.99 867.42,415.08 866.10,412.74 ZM 354.01 754.25 C354.01,753.84 354.91,752.15 356.00,750.50 C358.38,746.91 358.51,744.14 356.51,739.36 C355.12,736.03 355.15,735.59 357.08,732.89 C358.21,731.30 359.78,730.00 360.57,730.00 C362.53,730.00 362.36,731.27 360.00,734.27 C357.66,737.25 357.53,739.55 359.50,743.00 C361.61,746.69 361.31,750.36 358.69,752.83 C356.40,754.97 353.99,755.71 354.01,754.25 ZM 417.80 436.83 C418.32,434.11 416.02,426.94 414.43,426.34 C411.73,425.30 409.90,427.95 410.61,431.89 C410.97,433.87 411.68,436.31 412.20,437.31 C413.35,439.54 417.35,439.19 417.80,436.83 ZM 326.60 753.30 C326.18,751.98 326.52,749.90 327.45,748.10 C329.50,744.13 329.41,741.71 327.00,737.00 C323.50,730.13 325.11,727.58 329.35,733.27 C331.71,736.42 331.66,740.08 329.13,749.00 C327.66,754.22 327.16,755.07 326.60,753.30 ZM 342.67 716.33 C342.30,715.97 342.00,713.04 342.00,709.83 C342.00,705.51 342.36,704.00 343.39,704.00 C345.13,704.00 346.00,706.17 346.00,710.50 C346.00,715.76 344.58,718.25 342.67,716.33 Z" fill="rgba(179,221,136,1)"/>
<path d="M 223.59 681.15 C222.80,679.87 222.68,660.33 223.45,659.08 C224.44,657.48 226.70,657.77 227.39,659.58 C228.53,662.55 228.06,679.54 226.80,680.80 C225.39,682.21 224.32,682.33 223.59,681.15 ZM 596.95 646.75 C591.87,636.17 590.26,626.37 591.84,615.70 C593.09,607.31 592.51,607.86 609.87,598.39 C627.29,588.90 649.20,579.28 694.00,561.49 C741.29,542.70 757.14,535.95 775.13,526.94 C807.24,510.85 830.23,493.45 841.08,477.01 C843.08,473.99 843.12,474.20 843.56,490.78 C843.76,498.08 844.15,504.44 844.45,504.91 C844.74,505.39 844.31,506.33 843.49,507.01 C842.67,507.69 842.00,508.80 842.00,509.48 C842.00,510.16 836.49,516.08 829.75,522.63 C809.61,542.22 790.18,555.89 756.20,574.40 C739.66,583.41 724.74,590.44 685.00,607.96 C666.57,616.08 648.27,624.35 644.31,626.34 C628.87,634.12 612.29,644.88 604.28,652.34 L 601.07 655.33 L 596.95 646.75 ZM 792.00 385.32 C788.97,383.94 780.01,380.60 772.07,377.89 C736.93,365.90 700.14,358.43 629.50,348.94 C578.11,342.03 555.33,337.29 542.81,330.90 C539.36,329.14 539.00,328.58 539.00,324.98 C539.00,320.45 539.60,320.24 544.88,322.94 C555.69,328.46 589.09,334.44 651.29,342.00 C713.35,349.54 754.78,357.20 780.77,365.93 C786.84,367.97 787.92,368.69 784.75,368.58 C783.51,368.54 782.23,368.14 781.91,367.69 C781.11,366.61 775.86,367.97 776.55,369.08 C776.84,369.55 776.38,371.29 775.53,372.94 C774.16,375.59 774.15,375.88 775.49,375.37 C776.32,375.05 777.00,375.27 777.00,375.86 C777.00,376.45 777.75,376.65 778.66,376.30 C779.78,375.87 780.09,376.04 779.61,376.83 C779.21,377.47 779.39,378.00 780.00,378.00 C780.61,378.00 780.79,378.53 780.39,379.17 C779.91,379.95 780.21,380.13 781.27,379.73 C782.15,379.39 783.09,379.65 783.36,380.31 C783.72,381.19 783.86,381.18 783.92,380.25 C783.96,379.56 784.90,379.00 786.00,379.00 C787.14,379.00 788.00,378.33 788.00,377.44 C788.00,376.58 788.40,376.13 788.89,376.43 C789.37,376.73 790.27,376.38 790.87,375.65 C792.22,374.03 795.29,374.17 797.44,375.95 C798.59,376.91 798.99,378.78 798.87,382.64 C798.77,385.59 798.42,387.96 798.10,387.92 C797.77,387.87 795.03,386.71 792.00,385.32 ZM 331.41 332.00 C334.36,312.84 366.32,292.16 417.41,276.35 C433.57,271.36 463.36,263.76 491.03,257.59 C539.06,246.87 547.75,244.86 567.50,239.90 C593.51,233.36 613.95,227.58 637.85,220.00 C648.49,216.63 657.43,214.09 657.71,214.37 C658.47,215.14 640.37,223.37 624.52,229.47 C598.19,239.59 569.47,247.68 497.00,265.41 C454.68,275.76 435.56,281.12 411.29,289.46 C373.76,302.35 345.91,317.63 334.83,331.39 L 330.72 336.50 L 331.41 332.00 Z" fill="rgba(214,174,134,1)"/>
</g>
</svg>