<?xml version="1.0" encoding="UTF-8"?>
<svg id="Layer_1" xmlns="http://www.w3.org/2000/svg" version="1.1" viewBox="0 0 953.4 759.7">
  <!-- Generator: Adobe Illustrator 29.7.1, SVG Export Plug-In . SVG Version: 2.1.1 Build 8)  -->
  <defs>
    <style>
      .st0 {
        fill: #35a154;
        stroke: #35a154;
        stroke-width: .2px;
      }

      .st0, .st1 {
        stroke-miterlimit: 10;
      }

      .st1 {
        fill: none;
        stroke: #9a9999;
        stroke-dasharray: 8 12;
        stroke-linecap: round;
        stroke-width: 5px;
      }

      .st2 {
        fill: #9a9999;
      }

      .st3 {
        fill: #fff;
      }

      .st4 {
        fill: #e1e1e1;
      }
    </style>
  </defs>
  <path class="st3" d="M780,305.4c-5.2-87.4-53.8-169.5-124.6-219.6C544.6,7.4,394,13.8,290,100.6c-60.7,50.6-100.8,126.2-105.4,205.8h-76.9v-27.5c0-2.9-6.2-6.2-8.5-2.5l-52.5,52.4c-.8.9-1.1,1.9-1.1,3.1,0,4.5,48.5,49.3,54.8,56.3,1.6.5,4.2.1,5.6-.8,2.6-1.6,1.8-19.6,1.7-23.6s-2.3-8.5.5-8.5h75.9c2.5,2,1.2,5.4,1.6,8.4,24.6,190.9,220.8,308.5,402,241.4,105.3-39,181.2-136.7,192.3-248.8h76.9v29.5c0,.6,3.5,3.2,4.6,3.3,1.6.2,4.5-1.8,5.8-2.8,8.7-6.3,43.3-41.1,50-49.9,1-1.4,2.4-2.6,2.4-4.5l-2.4-4.5-54-53c-2.1-.4-6.4,1.1-6.4,3.5v27.5h-76.9Z"/>
  <path class="st3" d="M358.4,690c-2.3-23.1-34.2-28-47.4-10.9s-8.3,28-2.4,39.2c10.9,20.7,47.7,16.9,49.8-8.3l-12,.4c-2.7,9.5-11.1,12.9-20.2,9.3-12.4-5-11.7-35.4,1.2-39.2s16.9.4,18.1,9.4h12.9Z"/>
  <path class="st3" d="M389.1,669.3c-20.7,2.8-27.1,25.6-21.8,43.3,8.3,27.6,52.4,24.7,55.9-4.2,2.8-23.6-8.1-42.6-34.1-39.1Z"/>
  <path class="st3" d="M544.2,730v-32h-24.5c-2.7,2.4-1.1,6.7-1.5,10l14,.5c1.5,1.1.5,1.3.3,2.3-1.3,5-5.7,9.4-10.9,10.1-27.7,3.9-24.4-38.3-8.8-40.8,8.6-1.4,15.7.5,19.1,9h12.3c-4.4-25.8-44-26.7-53.1-3.7-5.8,14.6-3,36.7,12.8,43.5s23.2,4.1,30.8-5.8l1.6,6.8h7.9Z"/>
  <path class="st3" d="M594.2,730c-6.1-11.4,4.7-38.1-11.2-43.3-11.9-3.9-28-1.1-29.8,13.3h11.4c1.7-7.7,14.1-9,15.6-.5,0,4.8-14.7,4.7-19.3,6.7-7.5,3.2-10.2,10.4-7.4,18s20.7,8.4,26.6.8l1.6,5.1h12.4Z"/>
  <path class="st3" d="M639.1,699c-1.8-19.7-41.4-18.5-37.7,2.3,2.2,12.6,18.8,9.3,25.2,13.8s1.8,1.8,1.7,3.4c0,5.9-11,5.7-14.6,2.5s-2.3-4.9-2.5-5c-.4-.3-8.6,2.3-11,1-.2,18.6,37.3,19.1,39.9,3.4,3.1-18.3-15.2-14.6-25.2-19.7-10.3-5.2,11.6-12.9,12.9-1.7h11.4Z"/>
  <path class="st3" d="M441.3,731c-.4-1.7.7-2,1.5-3,5.2-6.5,15.5-9.6,15.9-19.8s-1.8-9.8-7.2-11.8c-10.6-4.1-20,1.5-21.2,12.7h8c-1.8-7.7,9.9-10.6,11.8-4.3,3.9,12.8-22.6,18.9-19.8,32.3,9.8.2,19.1.9,29,0v-6h-18Z"/>
  <path d="M186,365.9c-4.9-35.5-1.4-59.5-1.4-59.5,0-1.3.2-2.5.2-3.8,5.6-78.2,45.5-152.1,105.2-202,104-86.8,254.6-93.2,365.4-14.8,70.8,50.1,119.4,132.2,124.6,219.6h76.9v-27.5c0-2.4,4.3-4,6.4-3.5l54,53,2.4,4.5c0,1.9-1.4,3.1-2.4,4.5-6.7,8.8-41.3,43.6-50,49.9s-4.2,2.9-5.8,2.8-4.6-2.7-4.6-3.3v-29.5h-76.9c-11.1,112.1-87,209.8-192.3,248.8-180.1,66.7-375.2-49.1-401.6-238.1"/>
  <path d="M472.1,59c-213.1,9.6-338,250.6-209.4,425.6s384.4,140.7,468.5-50.6c79.7-181.3-63.6-383.9-259.1-375Z"/>
  <path d="M544.2,730h-7.9c0-.1-1.6-7-1.6-7-7.7,10-19.8,10.5-30.8,5.8-15.9-6.8-18.6-28.9-12.8-43.5,9.1-22.9,48.7-22,53.1,3.7h-12.3c-3.4-8.4-10.5-10.3-19.1-8.9-15.6,2.5-18.9,44.7,8.8,40.8,5.2-.7,9.6-5.2,10.9-10.1.3-1,1.2-1.2-.3-2.3l-14-.5c.4-3.3-1.2-7.6,1.5-10h24.5v32Z"/>
  <path d="M389.1,669.3c26-3.5,36.9,15.5,34.1,39.1-3.4,28.8-47.6,31.8-55.9,4.2-5.3-17.7,1.1-40.4,21.8-43.3Z"/>
  <path d="M394.1,679.3c-20.5.6-20.2,38.1-4,41.5,28.1,5.8,27.9-42.1,4-41.5Z"/>
  <path d="M358.4,690h-12.9c-1.2-9.1-10.1-11.9-18.1-9.5-12.9,3.8-13.6,34.2-1.2,39.2,9.1,3.7,17.4.2,20.2-9.3l12-.4c-2,25.2-38.9,29-49.8,8.3-5.9-11.2-5.4-29,2.4-39.2,13.1-17.1,45.1-12.2,47.4,10.9Z"/>
  <path d="M594.2,730h-12.4c0,0-1.6-5-1.6-5-6,7.6-22.8,9.4-26.6-.8s-.2-14.7,7.4-18c4.5-1.9,19.2-1.9,19.3-6.7-1.5-8.5-13.9-7.3-15.6.5h-11.4c1.8-14.5,17.9-17.2,29.8-13.4,15.9,5.2,5,31.9,11.2,43.3Z"/>
  <path d="M580.2,709c-4.9,1.9-20.5,2.6-15,11.6,5.1,8.3,18.7-2.6,15-11.6Z"/>
  <path d="M639.1,699h-11.4c-1.3-11.1-23.2-3.4-12.9,1.8,10,5.1,28.3,1.3,25.2,19.7-2.6,15.6-40.1,15.2-39.9-3.4,2.4,1.3,10.5-1.3,11-1s.6,3.4,2.5,5c3.6,3.2,14.6,3.4,14.6-2.5,0-1.6-.3-2.5-1.7-3.4-6.4-4.5-23-1.2-25.2-13.8-3.6-20.7,35.9-22,37.7-2.3Z"/>
  <path d="M441.3,731h18v6c-9.8.9-19.2.2-29,0-2.8-13.4,23.7-19.5,19.8-32.3-1.9-6.3-13.7-3.4-11.8,4.3h-8c1.2-11.1,10.6-16.7,21.2-12.6,5.4,2.1,7.5,6.2,7.2,11.8-.4,10.2-10.8,13.4-15.9,19.8s-1.9,1.3-1.5,3Z"/>
  <path class="st3" d="M472.1,59c195.6-8.9,338.9,193.7,259.1,375-84.1,191.2-344.8,219.1-468.5,50.6s-3.7-416,209.4-425.6Z"/>
  <path class="st3" d="M472.1,258.7c-77.1,8.7-75.4,127.1,3.7,133.6,98.2,8,99.5-145.2-3.7-133.6Z"/>
  <path class="st3" d="M394.1,679.3c23.8-.6,24.1,47.3-4,41.5-16.1-3.3-16.5-40.9,4-41.5Z"/>
  <path class="st3" d="M580.2,709c3.7,8.9-9.9,19.8-15,11.6-5.5-9,10.1-9.6,15-11.6Z"/>
  <path d="M510.3,335.4h-14c.4,12.3-15.7,16.5-23.6,8.7-7-7-7.3-27-2.2-35,6.8-10.6,24.1-8.8,25.9,4.2h12.9c-1.1-22.5-30.6-28.2-45.9-15.3-12.9,10.9-13.8,40.9-1.6,52.4,16.1,15.2,45.2,8.2,48.4-15Z"/>
  <circle class="st2" cx="334.8" cy="327.3" r="31.5"/>
  <circle class="st2" cx="630.2" cy="327.3" r="31.4"/>
  <line class="st1" x1="342.8" y1="326.8" x2="421" y2="327.3"/>
  <line class="st1" x1="534.5" y1="326.9" x2="612.8" y2="327.4"/>
  <line class="st1" x1="482.7" y1="226.5" x2="482.2" y2="304.8"/>
  <line class="st1" x1="494.8" y1="344.8" x2="547" y2="403.1"/>
  <circle class="st2" cx="550.5" cy="407.7" r="5.1"/>
  <line class="st1" x1="470.7" y1="344.3" x2="418.2" y2="402.3"/>
  <circle class="st2" cx="414" cy="406.2" r="5.1"/>
  <line class="st1" x1="467.5" y1="306.6" x2="417.4" y2="246.5"/>
  <circle class="st2" cx="414.1" cy="241.8" r="5.1"/>
  <g>
    <rect class="st2" x="538.9" y="241.4" width="25" height="4.2"/>
    <rect class="st2" x="538.9" y="241.4" width="25" height="4.2" transform="translate(794.9 -307.9) rotate(90)"/>
  </g>
  <g>
    <rect class="st2" x="567.2" y="270.5" width="25" height="4.2"/>
    <rect class="st2" x="567.2" y="270.5" width="25" height="4.2" transform="translate(852.3 -307.1) rotate(90)"/>
  </g>
  <circle class="st2" cx="482.5" cy="211.9" r="5.1"/>
  <path class="st4" d="M641.4,170.4c-12.1,4.3-20.6-8.3-27.7-16.6-10.2-11.9-21.7-24-35.7-31.5-10.4-5.6-21.9-10.4-32.9-14.4-12.1-4.5-25.4-3.4-38.2-4.5s-41.7-3.3-56.8,5.9c-5.4,3.3-7.5,7.4-5.5,14.3s13,9.7,21.7,7.8c13.9-3,27.8-1.5,42.1-2.1,14.3-.7,28.3,2.2,41.8,6.6,8.9,2.9,17.4,6.9,24.9,12.2s14.8,9,16.2,12.8-2.3,13.3-3,17.3c-1.5,9-6.3,16.5-1.7,25.1s14.8,16.7,23.5,22.5,10.3,8.3,11,17.2c1.9,24.5,19.8,35.1,43.8,25.5.2-4.4,1.3-10.6.2-14.9s-5.8-9.1-8.4-13.8c-6-10.6-5.9-17.8,2.7-26.2s12.3-19.2,5.2-29.2c-6.5-9.1-15.6-16.1-23.2-13.9Z"/>
  <path class="st4" d="M568.4,187.8c1.4-18.9-27.1-27.4-27.8-7.2s2.3,10.8,8.8,13.4,16.9,4.9,19-6.2Z"/>
  <path class="st4" d="M504.4,150.9c-9.7,0-19.6-2.5-28.6-2.6-12.7-.2-26.1,2.8-38.2,6.1s-26,4.2-37.9,11c-9.2,5.2-16,12.6-24.3,18.7s-16.2,7.4-14.2,16.8,10.1,5.5,15.2.8c17.7-16,38.7-26.6,61.1-35.2,14.7-5.7,32.9-5.8,48.3-7.1,5.6-.5,25,2,27.9-2.9-2.7-3.8-8.2-5.6-9.2-5.5Z"/>
  <path class="st4" d="M351.3,134.9c9.6-2.3,19.2-.9,25.4,8,9.1,13.1-2.4,20.6-13.1,26.8s-29.6,16.3-41.9,29c-5.9,6.1-10.7,12.8-10.8,21.3-.2,9,4.9,14.2,7.1,22.4s2.7,19.8-7.2,24c-5.4,2.2-10.8,4.2-16.5,4.9-.4,10.7.2,32.2-16.7,29.1.4-.8.6-1.2,1.2-2-4.6,11-8.7,25.2-10.9,36.9s-1.8,20.3,7.4,22.3c3.4,9.7,14.5,14.5,16.2,23.4,2.6,13.9-22.7,23.2-33.4,17-12.1-6.9-12.2-28.1-15.6-39.8-4.1-14.1-4.7-28.5-1.6-43.1s2.2-21.2,5.7-30.5,18-13.9,25.4-5.1c5.6-4.2,9.7-11.8,13-17.9-6.2-6.8,5.7-22.1,12-25.9-10.7-17.7-5.9-40.7,4.9-58.3s17.1-20.9,28.5-27.9c7-4.3,13.7-10.5,20.9-14.8Z"/>
  <path class="st4" d="M668.5,378.4c-3.4-16.7,10.6-19,17.5-29.2,1.5-2.2,1.8-7.1,3.2-9.9,2.6-5.1,6.7-8.8,7.8-14.7,5.1-25.8-21.2-32.7-26.9-53.1-6.4-22.8,19-40.4,36.4-22.3,6.4,6.7,8.6,16,10.1,24.7,2.2,13,5.1,26.4,7.6,39.4s6.3,30,.6,44.1-20.6,27-34.6,17.4c-2.7,4.4-2.5,10-5.1,14.7s-4.6,6.4-5.5,10.6c-1.9,8.8,2.3,22.4-9.6,26.3,4.4,8.6,9.5,15.8,6.2,25.9s-5.8,10.3-9.2,14.9c-6.7,9.2-12,20.8-19.4,29.1s-23.4,13.8-33,17.1-22.2,4.8-28.9-.7-5.9-17.2-4.2-24.4c3.5-14.2,20.1-12.5,31.7-16.7,14.8-5.4,25.5-15.5,31.4-30.1,5.1-12.5,0-17.5-1.8-30.2-2.1-15.6,5.4-42.3,25.6-32.8Z"/>
  <path class="st4" d="M299.2,445.9c8.4-8.7,16.6-18.7,9.7-31.3-4.1-7.5-8.4-18.7-1.7-26.5s18.1-5.8,24.6-3.2,10.5,10.4,12.5,18.1c4,16,6.1,30.6,23.3,36.6.6-15.3,36.5-.4,34,16.8-1.5,10.2-15.5,12.6-23.7,14.8.5,7.7,2.3,10.4-.7,17.9-.6,1.5-3.4,2.8-3.4,4.3,0,4,5.6,7.8,8.5,9.8,15.1,10.7,34.8,14.2,52.2,18.9,9.8,2.7,21,3.3,31,4.6,8.2,1.1,16,1.5,24.2.7s8.9-.6,12.9-1.9,3.2-3,5-3c11.6.2,16.8,11.7,10.8,21.5s-28,7.5-37.2,7.6c-25.7.4-47.3,2.8-70.3-11.1-17.8-10.7-42.6-12.5-54.7-30.4-5.4-7.9-14.2-20.8-22.7-25.4-8.3-4.5-18.6-2-26.7-7.2-3.9-2.5-8.6-6.9-10.9-10.9-4.5-7.9-4.5-18.8,3.3-20.7Z"/>
  <path class="st4" d="M461.2,489c-7.5,0-16.3,3.5-6.2,7.7,12.4,5.1,30.1.8,43.3.7s35.4-3.4,52.5-9.7c11.3-4.1,19.7-14.1,29.8-20.5,4.1-2.6,19.8-10.4,14.3-18.1-4.2-5.9-15.5-.8-19.7,1.5-17.9,10.2-35.5,22.2-54,30.1-8.5,3.6-18.2,5.6-27.5,6.1s-23.5,3.1-32.5,2.1Z"/>
  <path d="M472.1,258.7c103.2-11.6,101.9,141.6,3.7,133.6-79.1-6.4-80.9-124.9-3.7-133.6Z"/>
  <path class="st3" d="M510.3,335.4c-3.3,23.2-32.3,30.2-48.4,15-12.2-11.5-11.3-41.5,1.6-52.4,15.3-12.9,44.8-7.2,45.9,15.4h-12.9c-1.8-13.1-19.2-14.9-25.9-4.3-5.1,8-4.8,28,2.2,35,7.9,7.9,24.1,3.7,23.6-8.7h14Z"/>
  <path class="st0" d="M184.4,306.3h-76.6v-27.5c0-2.9-6.2-6.2-8.6-2.5l-52.9,52.4c-.8.9-1.1,1.9-1.1,3.1,0,4.5,48.9,49.3,55.2,56.3,1.6.5,4.3.1,5.7-.8,2.6-1.6-.5-32,2.2-32h76.5c0,0,.1.1.2.2-.9-9.4-1.4-18.8-1.4-28.4s.3-13.9.7-20.7Z"/>
</svg>