<?xml version="1.0" encoding="utf-8"?>
<!-- Generator: Adobe Illustrator 23.0.5, SVG Export Plug-In . SVG Version: 6.00 Build 0)  -->
<svg version="1.1" id="Layer_1" xmlns="http://www.w3.org/2000/svg" xmlns:xlink="http://www.w3.org/1999/xlink" x="0px" y="0px"
	 viewBox="0 0 1080 1080" style="enable-background:new 0 0 1080 1080;" xml:space="preserve">
<style type="text/css">
	.st0{fill:url(#SVGID_1_);}
	.st1{fill:url(#SVGID_2_);}
	.st2{fill:#696C6D;}
	.st3{fill:#2AAA54;}
</style>
<g>
	<g>
		<path d="M754.68,361.1c-44.49-44.05-100.36-72.75-161.04-83.4v31.6c111.13,22.01,198.08,111.09,215.74,222.61h31.39
			C831.74,467.45,801.96,407.92,754.68,361.1z M239.23,531.91h31.39c17.7-111.76,104.98-200.98,216.46-222.75v-31.58
			c-60.96,10.54-117.09,39.29-161.76,83.52C278.04,407.92,248.26,467.45,239.23,531.91z M807.09,628.39
			c-25.55,122.73-135.6,215.3-267.09,215.3s-241.54-92.57-267.09-215.3h-31.64c10.95,59.62,39.86,114.49,84.05,158.24
			c57.35,56.78,133.59,88.06,214.68,88.06s157.33-31.28,214.68-88.06c44.19-43.75,73.1-98.62,84.05-158.24H807.09z"/>
	</g>
	<g>
		<linearGradient id="SVGID_1_" gradientUnits="userSpaceOnUse" x1="465.5391" y1="458.4639" x2="754.9791" y2="929.3439">
			<stop  offset="0" style="stop-color:#57C1EA"/>
			<stop  offset="0.5238" style="stop-color:#267CBB"/>
			<stop  offset="1" style="stop-color:#299AD2"/>
		</linearGradient>
		<path class="st0" d="M582.2,674.99c45.29-23.19,63.2-78.71,40-124l-82-160.08l-82,160.08c-12.79,25.38-13.95,56.78,0,84.01
			C481.4,680.29,536.92,698.19,582.2,674.99z M464.74,590.69c0.25-3.85,3.58-6.78,7.44-6.52c3.85,0.25,6.77,3.57,6.53,7.42
			c-0.13,2.12-2.37,50.62,49.47,62c3.78,0.83,6.17,4.57,5.34,8.34c-0.72,3.27-3.62,5.5-6.83,5.5c-0.5,0-1.01-0.05-1.51-0.16
			c-33.27-7.31-47.97-27.78-54.46-43.67C463.79,606.6,464.69,591.33,464.74,590.69z"/>
		<linearGradient id="SVGID_2_" gradientUnits="userSpaceOnUse" x1="542.7141" y1="420.3105" x2="542.7141" y2="943.4167">
			<stop  offset="0" style="stop-color:#299AD2"/>
			<stop  offset="1" style="stop-color:#2AA2DB"/>
		</linearGradient>
		<path class="st1" d="M676.68,735.31c-18.72-18.24-87.54-25.38-104.1-25.92c0,0,1.98,18.9-32.32,18.9
			c-34.3,0-31.82-18.9-31.82-18.9c-112.8,10.56-120.24,38.4-90.72,54.24c29.52,15.84,98.88,24.96,164.4,19.68
			C669.96,775.39,695.4,753.55,676.68,735.31z M633.36,757.51c-18.36,6.6-71.4,17.16-120.12,11.16
			c-44.37-5.46-75.6-9.54-75.75-23.09c-0.03-2.75,1.42-5.29,3.54-7.04c13.13-10.79,49.47-12.41,49.47-12.41
			c-13.68,2.52-23.76,10.08-19.8,16.2s28.44,15.48,66.78,15.66c38.34,0.18,59.22-2.88,75.42-14.04c6.3-5.52-1.5-12.36-18.66-17.82
			c0,0,28.2,2.1,42.6,9.06C651.24,742.15,651.72,750.91,633.36,757.51z"/>
	</g>
	<rect x="501.72" y="347.23" class="st2" width="76.08" height="18.72"/>
	<polygon class="st3" points="366.93,581.47 303.81,527.95 303.81,555.31 203.49,555.31 203.49,604.75 303.81,604.75 303.81,632.11 
			"/>
	<polygon points="713.07,581.47 776.19,527.95 776.19,555.31 876.51,555.31 876.51,604.75 776.19,604.75 776.19,632.11 	"/>
	<path class="st2" d="M599.8,217.75c-0.24-9-4.92-13.08-10.92-12.36c-6,0.72-36.66,5.76-36.66,5.76s-0.81-5.09-12.22-5.09
		s-11.72,5.45-11.72,5.45s-11.52-1.2-24.36-4.08c-12.84-2.88-24.72-2.16-24,11.28c0.72,13.44,8.88,13.08,19.8,11.76
		c10.92-1.32,29.28-5.28,29.28-5.28l-3.05,26.28H510.1c-1.03,0-1.86,0.83-1.86,1.86v86.7h62.16v-86.7c0-1.03-0.83-1.86-1.86-1.86
		h-14.36l-3.1-26.4c0,0,16.92,3,31.92,5.28C598,232.63,600.04,226.75,599.8,217.75z"/>
</g>
</svg>
