<?xml version="1.0" encoding="utf-8"?>
<!-- Generator: Adobe Illustrator 23.0.5, SVG Export Plug-In . SVG Version: 6.00 Build 0)  -->
<svg version="1.1" id="Layer_1" xmlns="http://www.w3.org/2000/svg" xmlns:xlink="http://www.w3.org/1999/xlink" x="0px" y="0px"
	 viewBox="0 0 1080 1080" style="enable-background:new 0 0 1080 1080;" xml:space="preserve">
<style type="text/css">
	.st0{fill:#F4AF2C;}
	.st1{fill:#000001;}
	.st2{fill:#5FAC48;}
	.st3{fill:#60A94C;}
	.st4{fill:#5C3621;}
</style>
<g>
	<g>
		<g>
			<path class="st0" d="M475.83,526.1c2.52,2.4,10.68-3.6,14.52-14.88c3.84-11.28-4.56-24.6-4.56-24.6s-9.96,7.08-12.96,17.16
				C469.83,513.86,475.83,526.1,475.83,526.1z"/>
			<path class="st0" d="M443.74,483.01l-1.83-5.38c-11.39-18.04-35.38-7.48-35.38-7.48C416.18,492.72,439.9,489.72,443.74,483.01z"
				/>
			<path class="st0" d="M697.23,425.01l-13.88,21.12c-5.82-1.61-17.45-3.56-28.29,2.24c2.01-3.06,3.79-5.75,5.28-8
				c18.5-3.47,18.49-19.54,17.41-27.09l12.66-20c0.74-1.17,0.39-2.71-0.78-3.45c-1.17-0.74-2.71-0.39-3.45,0.78l-12.48,19.72
				c-20.88,7.05-19.52,22.1-18.05,28.06c-1.42,2.14-3.06,4.63-4.9,7.43c0.45-4.17,0.42-8.88-0.92-12.96
				c-2.03-6.16-6.02-10.73-8.87-13.4l13.95-21.4l-3.4-2.22l-13.8,20.94c0,0-9,9.36-5.16,25.68c2.27,9.66,7.39,13.03,11.18,14.16
				c-2.61,4.05-5.4,8.41-8.28,12.97c0.62-4.51,0.76-9.85-0.74-14.41c-3.36-10.2-12.12-16.08-12.12-16.08s-9,9.36-5.16,25.68
				c2.45,10.41,8.19,13.51,12.03,14.38c-2.55,4.11-5.12,8.31-7.67,12.53c0.36-3.96,0.26-8.33-1-12.15
				c-3.36-10.2-12.12-16.08-12.12-16.08s-9,9.36-5.16,25.68c2.31,9.82,7.55,13.13,11.36,14.21c-2.94,5.04-5.77,10.02-8.39,14.8
				c0.75-4.73,1.06-10.61-0.57-15.57c-3.36-10.2-12.12-16.08-12.12-16.08s-9,9.36-5.16,25.68c2.72,11.58,9.52,14.11,13.25,14.6
				c-1.29,2.5-2.51,4.92-3.62,7.23c-1.23,2.57-2.44,5.12-3.62,7.66c0.51-4.49,0.48-10.52-1.93-15.85
				c-4.55-10.05-12.19-12.99-12.19-12.99s-2.09,1.2-3.72,4.7c-0.05-0.67-0.11-1.04-0.11-1.04s-25.24,0.56-34.55,25.42v-22.1
				c5.41,0.38,18.62,0.12,26.9-9.98c10.62-12.96,8.28-29.34,8.28-29.34s-26.44,0.58-35.18,27.22v-23.44
				c5.81,0.34,18.21-0.22,26.21-9.8c10.73-12.87,8.53-29.27,8.53-29.27s-25.19,0.34-34.74,25.04v-22.55
				c5.62,0.45,18.42,0.25,26.72-9.45c10.89-12.74,8.89-29.16,8.89-29.16s-26.19,0.03-35.6,26.07v-22.69
				c5.77,0.33,18.27-0.24,26.27-9.91c10.67-12.92,8.4-29.3,8.4-29.3v-30.97c0-1.6-1.29-2.89-2.89-2.89c-1.6,0-2.89,1.29-2.89,2.89
				v31.75c-8.03,1.71-22.32,7.17-28.89,24.52v-15.19c17.69-19.56,5.67-36.27,0-42.29V310.4c0-1.38-1.12-2.5-2.5-2.5
				s-2.5,1.12-2.5,2.5v30.75c-20.24,21.3-6.18,37.4,0,42.81v17.63c-5.76-19.09-20.38-25.34-29.02-27.37v-31.5
				c0-1.85-1.5-3.34-3.34-3.34s-3.34,1.5-3.34,3.34v30.52c0,0-2.27,16.39,8.4,29.3c8.52,10.31,22.14,10.27,27.3,9.84v26.01
				c-8.33-29.28-36.64-29.32-36.64-29.32s-2,16.43,8.89,29.16c8.85,10.36,22.83,9.89,27.75,9.36v25.63
				c-8.6-27.66-35.77-28.02-35.77-28.02s-2.2,16.4,8.53,29.27c8.51,10.2,22.01,10.18,27.24,9.73v27.17
				c-7.42-30.23-36.22-30.87-36.22-30.87s-2.34,16.38,8.28,29.34c8.88,10.83,23.41,10.35,27.94,9.9v25.28
				c-7.37-24.81-29.74-28.05-34.63-28.45c-0.96-2.64-1.84-4.3-1.84-4.3s-10.47,6.29-14.24,16.11c-3.77,9.82,1.28,22.48,1.28,22.48
				c2.33,2.59,10.93-2.77,15.62-13.72c0.24-0.55,0.43-1.11,0.61-1.67c1.28,3.46,3.15,7.03,5.89,10.37
				c8.5,10.38,22.19,10.37,27.31,9.95V728.9c0,1.38,1.12,2.5,2.5,2.5s2.5-1.12,2.5-2.5V555.86c5.75,0.31,18.3-0.29,26.27-10.02
				c3.56-4.35,5.66-9.08,6.89-13.45c1.8,11.27,10.12,18.68,14.86,19.19c-15.41,34.79-25.91,67.65-31.94,99.94
				c-7.37,39.48-11.51,77.45-11.55,77.83c-0.15,1.37,0.84,2.61,2.22,2.75c0.09,0.01,0.18,0.01,0.27,0.01c1.26,0,2.34-0.95,2.48-2.23
				c0.04-0.38,4.16-38.17,11.49-77.45c5.93-31.75,16.25-64.09,31.38-98.34c3.37,3.84,14.91,6.67,25.47,0.65
				c11.52-6.57,11.07-14.04,11.07-14.04s-6.48-4.77-17.1-3.06c-7.01,1.13-12.92,5.94-16.13,9.08c1.6-3.5,3.24-7.01,4.94-10.55
				c1.19-2.48,2.5-5.09,3.91-7.79c2.17,2.48,9.08,8.55,22.28,4.18c16.32-5.4,15.6-15.48,15.6-15.48s-19.8-9.62-35.21,6.26
				c3.16-5.86,6.68-12.07,10.37-18.38c1.78,2.2,8.72,9.1,22.56,4.52c16.32-5.4,15.6-15.48,15.6-15.48s-20.2-9.83-35.68,6.73
				c3.75-6.32,7.62-12.68,11.44-18.84c1.8,2.21,8.74,9.08,22.55,4.51c16.32-5.4,15.6-15.48,15.6-15.48s-19.81-9.63-35.23,6.28
				c4.06-6.49,8.01-12.67,11.61-18.25c3.27,3.95,10.77,8.39,22.84,4.07c14.58-5.22,16.11-15.66,16.11-15.66l13.43-20.4
				L697.23,425.01z"/>
			<path class="st0" d="M463.61,503.56c3.51-0.72,9.28-6.34,12.34-15.31c3.84-11.28-4.56-24.6-4.56-24.6s-9.96,7.08-12.96,17.16
				c-1.37,4.6-0.86,9.64,0.09,13.77c-2.73-4.74-5.54-9.5-8.43-14.29c3.53-1.05,9-6.57,11.94-15.21c3.84-11.28-4.56-24.6-4.56-24.6
				s-9.96,7.08-12.96,17.16c-1.35,4.55-0.87,9.54,0.06,13.65c-1.63-2.62-3.27-5.24-4.95-7.88c-1.42-2.22-2.78-4.37-4.11-6.45
				c3.47-1.81,8.07-7.03,10.68-14.69c3.84-11.28-4.56-24.6-4.56-24.6l-12.83-20.07c-0.73-1.14-2.25-1.45-3.37-0.69
				c-1.07,0.73-1.37,2.18-0.67,3.27l13.14,20.67c-3.15,3.01-7.43,7.96-9.22,13.98c-1.03,3.46-1,7.18-0.51,10.57
				c-1.97-3.09-3.78-5.94-5.44-8.54c3.92-18.3-9.48-24.12-16.32-25.87l-13.29-20.54c-0.85-1.32-2.62-1.68-3.93-0.8
				c-1.28,0.86-1.62,2.59-0.78,3.88l13.57,20.58c-2.6,19.79,10.68,24.72,16.83,25.93c1.82,2.86,3.82,6.01,6.01,9.44
				c-9.12-7.48-21.11-4.8-27.46-2.53l-14.13-21.36c-0.75-1.13-2.27-1.42-3.38-0.65c-1.08,0.75-1.35,2.22-0.62,3.31l13.75,20.55
				c11.18,21.64,34.36,17.14,37.96,10.26c1.44,2.26,2.93,4.6,4.48,7.03c7.37,11.56,14.25,22.97,20.69,34.28
				c-12.1-17.18-35.41-5.89-35.41-5.89c10.46,22.19,34.06,18.34,37.65,11.49l-1.93-5.06c4.18,7.34,8.15,14.64,11.95,21.9
				c-11.74-14.68-33.52-5.43-33.52-5.43c9.36,22.68,33.12,19.98,37.04,13.32l-0.98-3c2.6,5.07,5.09,10.11,7.51,15.15
				c-12.1-10.03-30.41-2.24-30.41-2.24c8.8,21.33,30.33,20.21,36.13,14.47c7.71,17,14.42,33.89,20.19,50.78
				c20.58,60.3,21.7,123.16,21.71,123.79c0.02,1.37,1.13,2.46,2.5,2.46c0.01,0,0.02,0,0.04,0c1.38-0.02,2.48-1.15,2.46-2.54
				c-0.01-0.64-1.13-64.25-21.97-125.33C497.67,570.96,482.68,537.72,463.61,503.56z"/>
		</g>
		<polygon class="st1" points="816.81,533.42 756.99,474.74 756.99,506.66 702.63,506.66 702.63,559.7 756.99,559.7 756.99,593.24 
					"/>
		<polygon class="st2" points="263.19,533.42 323.01,474.74 323.01,506.66 377.37,506.66 377.37,559.7 323.01,559.7 323.01,593.24 
					"/>
		<path class="st3" d="M546.03,729.26c0,0,11.76-51.12,41.28-98.64c29.52-47.52,71.28-75.84,71.28-75.84s-32.4,42-59.04,101.76
			s-25.92,75.84-25.92,75.84l-16.8,9.36L546.03,729.26z"/>
		<path class="st3" d="M533.31,729.26c0,0-11.76-51.12-41.28-98.64c-29.52-47.52-71.28-75.84-71.28-75.84s32.4,42,59.04,101.76
			c26.64,59.76,31.56,92.28,31.56,92.28l11.16-7.08L533.31,729.26z"/>
		<path class="st4" d="M671.19,772.1h-263.4c0,0,9.72-29.28,40.56-14.64c0,0,6-19.68,26.04-24.48s32.76,7.8,32.76,7.8
			s15.54-28.26,51.54-7.56c0,0,8.7-15.72,35.1-12.72c18.72,2.16,25.92,23.04,25.92,23.04s19.8-9.6,34.8-0.24
			S671.19,772.1,671.19,772.1z"/>
	</g>
	<g>
		<path d="M540,903.16c-48.68,0-95.92-9.61-140.4-28.57c-42.94-18.3-81.5-44.49-114.6-77.85c-33.09-33.35-59.08-72.18-77.23-115.42
			C188.99,636.54,179.46,589,179.46,540s9.53-96.54,28.32-141.31c18.15-43.24,44.13-82.08,77.23-115.42
			c33.1-33.36,71.66-59.55,114.6-77.85c44.48-18.96,91.71-28.57,140.4-28.57c48.68,0,95.92,9.61,140.4,28.57
			c42.94,18.3,81.5,44.49,114.6,77.85c33.09,33.35,59.08,72.18,77.23,115.42C891.01,443.46,900.54,491,900.54,540
			s-9.53,96.54-28.32,141.31c-18.15,43.24-44.13,82.08-77.23,115.42c-33.1,33.36-71.66,59.55-114.6,77.85
			C635.92,893.54,588.68,903.16,540,903.16z M540,216.84c-176.75,0-320.54,144.97-320.54,323.16S363.25,863.16,540,863.16
			S860.54,718.19,860.54,540S716.75,216.84,540,216.84z"/>
	</g>
</g>
</svg>
