<svg xmlns="http://www.w3.org/2000/svg" width="1024" height="1024" viewBox="0 0 1024 1024">
<g>
<path d="M 714.69 591.83 C712.59,593.80 711.30,594.00 700.86,594.00 C693.42,594.00 689.47,594.08 687.37,592.15 C684.91,589.89 685.00,584.86 685.00,573.69 L 685.00 558.00 L 675.20 558.00 L 674.85 566.93 C674.46,576.97 673.04,579.90 666.97,583.16 C663.67,584.94 660.32,585.02 597.82,584.77 C533.26,584.50 532.10,584.47 529.38,582.44 C523.78,578.25 522.53,575.48 522.15,566.43 L 521.79 558.00 L 511.28 558.00 L 511.74 564.02 C512.08,568.50 511.78,570.68 510.58,572.52 C509.00,574.93 508.62,575.00 497.05,575.00 C487.56,575.00 484.82,574.68 483.57,573.43 C482.18,572.04 482.00,565.09 482.00,512.13 C482.00,467.01 482.29,452.11 483.20,451.20 C484.01,450.39 488.58,450.00 497.22,450.00 L 510.05 450.00 L 511.09 452.73 C511.66,454.23 512.00,457.72 511.85,460.48 L 511.58 465.50 L 516.79 465.80 L 522.00 466.10 L 522.00 458.30 C522.00,449.13 523.81,444.67 528.90,441.27 C531.88,439.28 533.55,439.00 542.65,439.00 L 553.00 439.00 L 553.00 431.00 L 546.75 430.98 C543.31,430.98 539.92,430.60 539.21,430.15 C538.27,429.56 538.00,426.87 538.21,420.42 L 538.50 411.50 L 563.00 411.23 C585.15,410.99 587.62,411.13 588.75,412.67 C590.37,414.89 590.41,428.19 588.80,429.80 C588.09,430.51 584.64,431.00 580.30,431.00 L 573.00 431.00 L 573.00 439.03 L 625.50 438.50 L 626.12 431.00 L 619.18 431.00 C614.45,431.00 611.88,430.55 611.08,429.60 C610.34,428.71 610.02,425.14 610.21,419.85 L 610.50 411.50 L 635.00 411.23 C657.15,410.99 659.62,411.13 660.75,412.67 C662.37,414.89 662.41,428.19 660.80,429.80 C660.10,430.50 656.76,431.00 652.80,431.00 L 646.00 431.00 L 646.00 439.00 L 655.03 439.00 C671.16,439.00 674.99,442.50 675.00,457.25 L 675.00 466.00 L 685.00 466.00 L 685.00 450.17 C685.00,439.16 684.90,434.15 687.34,431.88 C689.47,429.91 693.52,430.00 701.24,430.00 C706.57,430.00 710.12,429.10 712.47,430.38 C717.92,433.35 717.00,448.00 717.00,512.46 L 717.00 589.65 ZM 198.38 434.83 L 196.25 434.50 C193.64,434.11 184.86,433.85 176.75,433.93 L 162.00 434.07 L 162.00 431.03 C162.00,420.90 169.13,386.86 175.84,365.00 C186.49,330.31 205.38,292.87 227.31,263.00 C244.74,239.26 272.16,210.57 294.50,192.69 C360.15,140.15 438.86,113.49 523.00,115.29 C573.70,116.37 617.06,126.24 661.50,146.80 C726.20,176.74 781.76,225.71 818.62,285.27 C825.61,296.57 837.61,319.53 842.53,331.00 C854.30,358.50 867.03,406.86 868.18,428.50 L 868.50 434.50 L 864.50 434.36 C850.95,433.89 830.86,433.97 830.01,434.50 C829.44,434.85 829.00,439.48 829.00,445.06 L 829.00 455.00 L 910.00 455.00 L 910.00 496.00 L 829.00 496.00 L 829.00 506.03 C829.00,514.04 829.29,516.75 831.47,516.94 C827.48,516.79 822.15,512.62 803.00,497.07 C789.53,486.13 778.50,476.74 778.50,476.20 C778.50,475.66 789.69,466.02 803.36,454.77 L 828.22 434.31 L 834.86 434.12 C840.03,433.97 842.55,434.05 843.58,432.86 C844.67,431.61 844.15,428.98 843.37,423.23 C838.19,385.12 824.40,344.84 804.11,308.61 C760.36,230.50 685.00,172.32 598.68,150.01 C569.56,142.49 549.29,140.02 516.49,140.01 C474.82,139.99 445.90,144.80 407.14,158.19 C340.08,181.35 279.25,228.57 239.88,288.00 C213.16,328.34 196.44,370.52 188.43,417.83 C185.78,433.46 185.86,433.94 191.00,434.00 C192.38,434.01 195.19,434.30 197.25,434.64 L 198.38 434.83 ZM 490.00 827.40 C488.08,827.18 482.00,826.51 476.50,825.92 C442.71,822.29 405.66,812.23 373.00,797.81 C310.39,770.16 255.25,723.65 218.51,667.50 C195.17,631.82 180.79,599.80 170.48,560.50 C167.85,550.48 162.00,522.15 162.00,519.43 C162.00,519.20 167.59,519.00 174.43,519.00 C185.99,519.00 186.91,519.14 187.50,521.00 C188.04,522.71 188.32,523.27 190.39,522.46 C189.10,523.11 188.22,523.57 188.11,523.66 C187.54,524.08 190.68,539.62 194.03,553.00 C209.15,613.38 246.09,674.48 292.87,716.45 C349.70,767.44 414.40,795.76 491.50,803.40 C493.70,803.62 506.75,803.64 520.50,803.45 C546.67,803.09 557.62,801.99 580.26,797.44 C681.64,777.06 768.73,709.31 814.10,615.50 C828.93,584.83 837.40,557.55 843.47,520.85 C843.82,518.77 843.39,518.00 841.09,516.84 C843.27,517.65 847.69,518.00 855.61,518.00 L 868.00 518.00 L 868.00 520.43 C868.00,525.79 862.70,551.44 858.38,567.00 C852.54,588.05 846.75,603.40 837.02,623.63 C812.57,674.45 780.60,714.55 735.07,751.50 C687.03,790.49 624.74,816.63 558.50,825.61 C548.04,827.03 497.98,828.34 490.00,827.40 ZM 465.97 489.02 C463.16,490.52 455.45,490.71 422.81,490.09 L 392.13 489.50 L 388.95 486.50 C387.15,484.80 382.82,477.57 379.00,469.87 C375.28,462.37 371.28,455.28 370.12,454.12 C368.95,452.95 368.00,450.83 368.00,449.39 C368.00,447.31 367.65,446.93 366.25,447.49 C365.29,447.88 362.80,448.44 360.72,448.73 C357.79,449.15 355.93,450.40 352.40,454.32 C345.88,461.57 345.16,463.50 344.41,475.62 C344.03,481.61 343.29,487.06 342.74,487.75 C342.07,488.60 338.58,489.00 331.86,489.00 C326.25,489.00 323.14,489.04 321.53,487.50 C319.48,485.55 319.87,481.04 320.67,470.65 C322.14,451.37 325.57,444.88 340.59,432.93 C344.20,430.06 346.69,427.35 346.41,426.62 C345.44,424.11 349.61,421.04 358.38,417.79 C366.55,414.76 367.34,414.23 368.38,411.03 C369.40,407.85 370.18,407.32 377.50,404.73 C390.42,400.17 391.77,399.38 393.95,395.10 C394.88,393.27 395.53,391.91 396.52,390.90 C399.48,387.91 405.56,388.00 431.60,388.00 C456.38,388.00 462.42,387.73 464.85,390.56 C465.85,391.73 466.24,393.42 467.08,395.87 L 468.67 400.50 L 480.75 400.78 L 492.83 401.06 L 493.86 404.03 L 494.90 407.00 L 506.34 407.00 C515.85,407.00 517.89,407.27 518.39,408.58 C519.54,411.56 519.06,429.54 517.80,430.80 C517.01,431.59 512.76,432.00 505.30,432.00 C495.09,432.00 494.00,432.17 494.00,433.80 C494.00,437.10 491.85,438.00 483.91,438.00 L 476.22 438.00 L 475.64 441.25 C475.32,443.04 473.89,453.05 472.46,463.50 C469.68,483.80 468.73,487.54 465.97,489.02 ZM 343.72 604.41 C326.14,610.26 305.41,600.76 297.10,583.05 C294.90,578.35 294.50,576.11 294.51,568.50 C294.51,560.39 294.88,558.62 298.22,550.64 C305.34,533.57 326.96,498.78 331.29,497.41 C332.97,496.88 334.15,497.56 336.79,500.61 C345.71,510.91 364.51,544.02 368.52,556.50 C374.94,576.49 363.98,597.65 343.72,604.41 ZM 537.00 525.88 C540.52,527.28 623.98,527.34 627.68,525.94 C640.82,520.97 642.67,499.32 630.68,490.77 L 627.50 488.50 L 537.35 488.50 L 533.67 491.30 C528.21,495.47 526.53,499.29 526.58,507.50 C526.64,516.96 530.15,523.14 537.00,525.88 ZM 376.59 449.69 C378.97,451.43 386.49,451.37 388.26,449.59 C389.04,448.82 392.11,444.77 395.08,440.60 C398.06,436.43 401.40,432.68 402.50,432.26 C403.60,431.84 411.25,431.50 419.50,431.50 C427.75,431.50 446.31,431.39 460.75,431.25 L 487.00 431.00 L 487.00 407.39 L 475.79 407.14 C469.63,407.01 464.04,406.45 463.38,405.90 C462.72,405.35 461.64,402.67 460.99,399.95 L 459.80 395.00 L 402.02 395.00 L 398.94 400.45 C396.11,405.47 395.43,406.02 390.27,407.52 C387.19,408.42 382.26,410.05 379.31,411.16 L 373.95 413.16 L 374.37 430.77 C374.74,446.26 375.01,448.53 376.59,449.69 ZM 322.00 597.41 C328.71,599.82 339.36,599.04 346.35,595.62 C359.93,588.97 366.38,573.21 361.53,558.50 C358.74,550.04 350.45,534.13 341.77,520.57 C337.22,513.45 333.00,507.47 332.38,507.28 C331.16,506.89 320.19,523.37 312.28,537.50 C302.55,554.88 299.17,567.69 301.97,576.61 C304.83,585.70 312.98,594.17 322.00,597.41 ZM 511.00 526.00 L 511.00 550.00 L 684.00 550.00 L 684.00 507.00 L 666.00 507.00 L 666.00 512.41 C666.00,517.23 665.66,518.11 662.92,520.41 C660.13,522.76 659.05,523.00 651.10,523.00 L 642.36 523.00 L 637.89 527.28 C635.43,529.64 631.60,532.10 629.35,532.78 C626.40,533.66 613.13,533.99 581.38,533.98 C540.95,533.96 537.19,533.81 533.50,532.12 C531.30,531.11 528.64,529.32 527.60,528.14 C525.97,526.32 524.59,526.00 518.35,526.00 L 511.00 526.00 ZM 579.21 401.02 C561.51,407.65 541.45,400.71 534.35,385.50 C529.98,376.12 531.88,362.05 539.56,346.88 C541.58,342.90 542.54,341.94 544.27,342.19 C545.47,342.36 547.11,343.83 547.97,345.50 C548.81,347.15 549.65,348.73 549.84,349.00 C550.03,349.27 551.27,348.15 552.60,346.50 C556.02,342.26 559.08,333.60 559.84,326.00 C560.44,320.14 560.73,319.47 562.88,319.16 C567.71,318.48 579.66,334.21 583.06,345.76 C584.24,349.74 584.44,349.91 586.08,348.43 C587.04,347.55 588.88,346.99 590.17,347.17 C593.57,347.65 597.03,358.58 597.72,371.03 C598.18,379.42 597.98,381.18 595.98,385.82 C593.17,392.36 586.71,398.22 579.21,401.02 ZM 552.50 577.29 C563.50,577.46 592.90,577.57 617.84,577.55 L 663.17 577.50 L 665.63 574.65 C667.82,572.10 668.05,571.02 667.79,564.65 L 667.50 557.50 L 529.00 556.99 L 529.00 564.88 C529.00,569.79 528.90,572.70 530.27,574.45 C532.37,577.12 537.91,577.08 552.50,577.29 ZM 529.67 465.33 C530.03,465.70 561.31,466.00 599.17,466.00 L 668.00 466.00 L 668.00 458.00 C668.00,454.21 668.59,451.60 667.64,449.82 C665.27,445.37 653.34,446.00 598.95,446.00 L 533.91 446.00 L 531.45 448.45 C529.32,450.58 529.00,451.82 529.00,457.79 C529.00,461.57 529.30,464.97 529.67,465.33 ZM 691.46 585.75 C691.79,586.62 694.56,587.00 700.47,587.00 L 709.00 587.00 L 709.00 436.92 L 691.50 437.50 L 691.24 511.00 C691.10,551.42 691.20,585.06 691.46,585.75 ZM 645.66 511.21 L 645.09 516.00 L 651.49 516.00 C655.51,516.00 658.18,515.54 658.69,514.75 C659.14,514.06 659.54,507.75 659.59,500.71 C659.68,487.60 660.26,485.52 663.64,486.17 C665.20,486.46 665.55,487.62 665.80,493.26 L 666.09 500.00 L 684.00 500.00 L 684.00 473.00 L 511.00 473.00 L 511.00 493.00 L 516.75 493.00 C522.12,493.00 522.68,492.77 525.29,489.50 C526.83,487.57 529.98,484.98 532.29,483.75 C536.48,481.51 536.72,481.50 582.50,481.50 L 628.50 481.50 L 632.95 484.00 C641.90,489.02 647.00,499.94 645.66,511.21 ZM 489.67 567.33 C490.03,567.70 493.41,568.00 497.17,568.00 L 504.00 568.00 L 504.00 457.00 L 489.00 457.00 L 489.00 511.83 C489.00,541.99 489.30,566.97 489.67,567.33 ZM 353.69 577.83 C351.47,579.91 350.57,580.00 331.94,579.92 C321.25,579.88 311.93,579.61 311.23,579.33 C309.08,578.47 306.79,572.97 307.46,570.30 C308.53,566.03 323.93,538.61 326.58,536.25 C328.01,534.98 330.42,534.00 332.10,534.00 C336.46,534.00 338.61,536.70 347.79,553.67 C356.82,570.37 357.72,574.04 353.69,577.83 ZM 582.29 387.70 L 582.29 393.44 L 585.96 389.29 C592.06,382.42 593.42,374.28 590.41,362.64 C589.54,359.26 588.67,356.35 588.49,356.16 C588.31,355.98 586.83,356.81 585.20,358.01 C580.97,361.14 578.00,359.48 578.00,353.98 C578.00,351.80 577.14,347.75 576.08,344.98 C573.96,339.38 568.25,330.00 566.97,330.00 C566.51,330.00 565.39,332.58 564.47,335.74 C562.37,342.99 560.74,346.20 555.85,352.75 C551.47,358.62 548.94,359.36 546.41,355.50 C545.51,354.12 544.43,353.00 544.02,353.00 C542.65,353.00 538.00,368.84 538.00,373.50 C538.00,379.22 540.18,384.55 544.25,388.75 C548.00,392.63 549.26,392.87 548.42,389.55 C547.48,385.79 549.77,380.10 554.86,373.52 C558.53,368.79 559.59,366.53 559.99,362.63 C560.34,359.30 561.10,357.35 562.34,356.60 C563.91,355.66 564.96,356.36 569.64,361.47 C577.26,369.79 582.29,380.22 582.29,387.70 ZM 402.87 468.12 C405.04,469.82 407.19,470.00 424.97,470.00 C435.80,470.00 444.97,469.69 445.35,469.32 C445.93,468.74 426.51,455.49 419.93,451.96 C416.93,450.35 412.54,452.40 409.93,456.62 C407.77,460.10 405.30,460.90 403.20,458.80 C401.16,456.76 401.86,454.16 405.57,450.06 C409.60,445.59 414.65,443.52 419.55,444.31 C421.38,444.61 426.16,447.07 430.19,449.79 C434.21,452.50 440.51,456.56 444.20,458.82 C449.97,462.35 450.97,462.68 451.42,461.21 C452.23,458.62 453.96,445.91 453.98,442.39 L 454.00 439.29 L 447.25 438.65 C443.54,438.30 432.37,438.30 422.44,438.66 L 404.38 439.30 L 394.69 454.11 L 397.58 460.17 C399.17,463.50 401.56,467.08 402.87,468.12 ZM 393.73 481.91 C394.88,482.59 407.21,482.87 428.99,482.73 L 462.48 482.50 L 463.21 477.50 C463.61,474.75 465.08,465.00 466.47,455.84 C467.86,446.67 469.00,438.91 469.00,438.59 C469.00,438.26 467.26,438.00 465.13,438.00 L 461.26 438.00 L 460.03 449.25 C458.68,461.66 456.19,470.10 452.84,473.67 C450.66,475.99 450.52,476.00 426.28,476.00 C406.82,476.00 400.57,476.10 397.06,473.04 C395.28,471.49 394.20,469.11 392.46,465.49 C388.89,458.05 388.83,458.00 384.93,458.00 C382.77,458.00 381.00,458.23 381.00,458.52 C381.00,460.32 392.28,481.07 393.73,481.91 ZM 315.30 572.33 C315.86,573.80 317.94,574.00 332.41,574.00 C342.75,574.00 349.12,573.61 349.53,572.96 C349.88,572.38 346.70,565.52 342.47,557.71 C334.46,542.92 333.25,541.00 332.01,541.00 C331.59,541.00 328.42,546.06 324.96,552.25 C321.49,558.44 317.76,565.11 316.66,567.08 C315.55,569.05 314.94,571.40 315.30,572.33 ZM 619.96 501.55 C618.95,502.77 613.08,503.00 583.13,502.97 C560.79,502.95 546.85,502.56 545.75,501.92 C543.42,500.56 543.52,497.33 545.93,496.04 C548.05,494.90 594.84,494.78 610.99,495.86 C619.04,496.40 620.53,496.77 620.82,498.30 C621.01,499.29 620.62,500.75 619.96,501.55 ZM 327.33 481.41 C328.01,483.19 335.45,483.70 336.48,482.03 C336.81,481.50 337.47,476.60 337.94,471.15 C338.41,465.70 339.37,460.17 340.06,458.87 C340.75,457.57 344.24,453.47 347.82,449.76 L 354.31 443.02 L 352.50 439.01 C351.51,436.80 350.10,435.00 349.38,435.00 C348.66,435.00 344.29,438.71 339.68,443.25 C333.18,449.64 330.92,452.61 329.65,456.40 C327.91,461.64 326.31,478.77 327.33,481.41 ZM 620.50 513.50 L 620.50 519.50 L 583.38 519.76 C550.41,519.99 546.12,519.85 544.94,518.43 C543.98,517.27 543.90,516.38 544.67,515.17 C545.62,513.66 549.30,513.50 583.11,513.50 L 620.50 513.50 ZM 560.38 396.42 C564.13,398.27 565.71,398.34 569.88,396.89 C573.57,395.60 576.00,391.57 576.00,386.71 C576.00,383.44 571.66,373.63 568.40,369.50 C566.86,367.56 566.78,367.56 565.66,369.37 C565.02,370.39 562.36,374.17 559.75,377.75 C554.82,384.53 554.02,387.75 556.13,392.39 C556.76,393.76 558.67,395.57 560.38,396.42 ZM 544.35 418.00 L 545.23 424.04 L 563.87 423.77 L 582.50 423.50 L 582.82 420.75 L 583.13 418.00 L 544.35 418.00 ZM 617.00 418.00 L 617.00 424.04 L 654.50 423.50 L 654.82 420.75 L 655.13 418.00 L 617.00 418.00 ZM 494.00 414.00 L 494.00 425.00 L 512.00 425.00 L 512.00 414.00 L 494.00 414.00 ZM 357.58 434.59 C360.88,440.48 361.38,440.94 363.83,440.36 C368.00,439.37 368.00,439.36 368.00,430.44 C368.00,425.80 367.66,422.00 367.25,422.00 C365.37,422.00 354.00,426.57 354.00,427.33 C354.00,427.79 355.61,431.06 357.58,434.59 ZM 514.75 518.26 C519.94,518.79 520.57,518.57 520.00,516.40 C519.72,515.35 519.50,511.24 519.50,507.25 L 519.50 500.00 L 515.25 500.00 L 511.00 500.00 L 511.00 517.88 ZM 334.43 570.43 C332.54,572.31 331.78,572.38 330.20,570.80 C328.65,569.25 328.67,566.73 330.24,565.16 C331.23,564.17 331.22,563.76 330.20,563.12 C329.43,562.65 328.83,559.95 328.71,556.42 L 328.50 550.50 L 336.00 549.88 L 336.00 555.01 C336.00,557.82 335.51,561.05 334.91,562.17 C334.12,563.65 334.12,564.52 334.91,565.31 C336.43,566.83 336.27,568.59 334.43,570.43 ZM 560.71 438.38 C561.10,438.77 562.57,438.96 563.96,438.80 C566.11,438.55 566.55,437.92 566.81,434.75 C567.12,431.06 567.06,431.00 563.56,431.00 C560.19,431.00 560.00,431.18 560.00,434.33 C560.00,436.17 560.32,437.99 560.71,438.38 ZM 633.00 435.07 C633.00,438.91 633.15,439.12 635.75,438.82 C638.14,438.54 638.54,438.01 638.81,434.75 C639.11,431.17 638.99,431.00 636.06,431.00 C633.15,431.00 633.00,431.20 633.00,435.07 ZM 832.10 516.93 C832.84,516.85 833.75,516.58 834.88,516.19 C835.23,516.07 835.57,515.97 835.88,515.89 C835.68,515.94 835.47,516.01 835.26,516.09 C834.10,516.53 833.12,516.86 832.10,516.93 ZM 836.46 515.77 C837.69,515.58 838.75,515.76 840.03,516.35 C838.69,515.80 837.55,515.61 836.46,515.77 ZM 199.73 517.87 L 200.50 517.49 L 200.50 517.50 L 199.73 517.87 Z" fill="rgba(0,0,0,1)"/>
<path d="M 537.00 525.88 C530.15,523.14 526.64,516.96 526.58,507.50 C526.53,499.29 528.21,495.47 533.67,491.30 L 537.35 488.50 L 627.50 488.50 L 630.68 490.77 C642.67,499.32 640.82,520.97 627.68,525.94 C623.98,527.34 540.52,527.28 537.00,525.88 ZM 322.00 597.41 C312.98,594.17 304.83,585.70 301.97,576.61 C299.17,567.69 302.55,554.88 312.28,537.50 C320.19,523.37 331.16,506.89 332.38,507.28 C333.00,507.47 337.22,513.45 341.77,520.57 C350.45,534.13 358.74,550.04 361.53,558.50 C366.38,573.21 359.93,588.97 346.35,595.62 C339.36,599.04 328.71,599.82 322.00,597.41 ZM 511.00 526.00 L 518.35 526.00 C524.59,526.00 525.97,526.32 527.60,528.14 C528.64,529.32 531.30,531.11 533.50,532.12 C537.19,533.81 540.95,533.96 581.38,533.98 C613.13,533.99 626.40,533.66 629.35,532.78 C631.60,532.10 635.43,529.64 637.89,527.28 L 642.36 523.00 L 651.10 523.00 C659.05,523.00 660.13,522.76 662.92,520.41 C665.66,518.11 666.00,517.23 666.00,512.41 L 666.00 507.00 L 684.00 507.00 L 684.00 550.00 L 511.00 550.00 L 511.00 526.00 ZM 552.50 577.29 C537.91,577.08 532.37,577.12 530.27,574.45 C528.90,572.70 529.00,569.79 529.00,564.88 L 529.00 556.99 L 667.50 557.50 L 667.79 564.65 C668.05,571.02 667.82,572.10 665.63,574.65 L 663.17 577.50 L 617.84 577.55 C592.90,577.57 563.50,577.46 552.50,577.29 ZM 691.46 585.75 C691.20,585.06 691.10,551.42 691.24,511.00 L 691.50 437.50 L 709.00 436.92 L 709.00 587.00 L 700.47 587.00 C694.56,587.00 691.79,586.62 691.46,585.75 ZM 645.66 511.21 C647.00,499.94 641.90,489.02 632.95,484.00 L 628.50 481.50 L 582.50 481.50 C536.72,481.50 536.48,481.51 532.29,483.75 C529.98,484.98 526.83,487.57 525.29,489.50 C522.68,492.77 522.12,493.00 516.75,493.00 L 511.00 493.00 L 511.00 473.00 L 684.00 473.00 L 684.00 500.00 L 666.09 500.00 L 665.80 493.26 C665.55,487.62 665.20,486.46 663.64,486.17 C660.26,485.52 659.68,487.60 659.59,500.71 C659.54,507.75 659.14,514.06 658.69,514.75 C658.18,515.54 655.51,516.00 651.49,516.00 L 645.09 516.00 ZM 353.69 577.83 C357.72,574.04 356.82,570.37 347.79,553.67 C338.61,536.70 336.46,534.00 332.10,534.00 C330.42,534.00 328.01,534.98 326.58,536.25 C323.93,538.61 308.53,566.03 307.46,570.30 C306.79,572.97 309.08,578.47 311.23,579.33 C311.93,579.61 321.25,579.88 331.94,579.92 C350.57,580.00 351.47,579.91 353.69,577.83 ZM 619.96 501.55 C620.62,500.75 621.01,499.29 620.82,498.30 C620.53,496.77 619.04,496.40 610.99,495.86 C594.84,494.78 548.05,494.90 545.93,496.04 C543.52,497.33 543.42,500.56 545.75,501.92 C546.85,502.56 560.79,502.95 583.13,502.97 C613.08,503.00 618.95,502.77 619.96,501.55 ZM 620.50 513.50 L 583.11 513.50 C549.30,513.50 545.62,513.66 544.67,515.17 C543.90,516.38 543.98,517.27 544.94,518.43 C546.12,519.85 550.41,519.99 583.38,519.76 L 620.50 519.50 L 620.50 513.50 ZM 514.75 518.26 L 511.00 517.88 L 511.00 500.00 L 515.25 500.00 L 519.50 500.00 L 519.50 507.25 C519.50,511.24 519.72,515.35 520.00,516.40 C520.57,518.57 519.94,518.79 514.75,518.26 Z" fill="rgba(85,85,85,1)"/>
<path d="M 197.11 434.62 L 202.73 435.15 L 227.37 455.15 C240.92,466.16 252.00,475.52 252.00,475.96 C252.00,476.71 243.57,483.76 215.22,506.76 C210.31,510.74 204.87,514.60 200.50,517.25 L 200.50 496.50 L 160.86 496.24 L 121.23 495.98 L 120.63 493.74 C120.30,492.51 120.02,483.73 120.01,474.23 L 120.00 456.95 L 122.57 455.98 C124.07,455.40 140.84,455.00 163.07,455.00 L 201.00 455.00 L 201.00 435.26 L 197.25 434.64 C197.20,434.63 197.15,434.63 197.11,434.62 ZM 187.41 433.20 C188.10,433.44 189.66,433.74 191.60,434.01 C191.38,434.00 191.18,434.00 191.00,434.00 C189.24,433.98 188.08,433.91 187.41,433.20 ZM 188.43 417.83 C187.41,423.86 186.85,427.76 186.71,430.11 C186.77,427.75 187.39,423.96 188.43,417.83 ZM 197.56 518.93 C197.09,519.19 196.64,519.41 196.22,519.62 C194.21,520.58 192.34,521.50 190.89,522.21 C191.93,521.69 193.18,521.07 194.50,520.43 L 197.56 518.93 Z" fill="rgba(102,169,74,1)"/>
<path d="M 376.59 449.69 C375.01,448.53 374.74,446.26 374.37,430.77 L 373.95 413.16 L 379.31 411.16 C382.26,410.05 387.19,408.42 390.27,407.52 C395.43,406.02 396.11,405.47 398.94,400.45 L 402.02 395.00 L 459.80 395.00 L 460.99 399.95 C461.64,402.67 462.72,405.35 463.38,405.90 C464.04,406.45 469.63,407.01 475.79,407.14 L 487.00 407.39 L 487.00 431.00 L 460.75 431.25 C446.31,431.39 427.75,431.50 419.50,431.50 C411.25,431.50 403.60,431.84 402.50,432.26 C401.40,432.68 398.06,436.43 395.08,440.60 C392.11,444.77 389.04,448.82 388.26,449.59 C386.49,451.37 378.97,451.43 376.59,449.69 ZM 529.67 465.33 C529.30,464.97 529.00,461.57 529.00,457.79 C529.00,451.82 529.32,450.58 531.45,448.45 L 533.91 446.00 L 598.95 446.00 C653.34,446.00 665.27,445.37 667.64,449.82 C668.59,451.60 668.00,454.21 668.00,458.00 L 668.00 466.00 L 599.17 466.00 C561.31,466.00 530.03,465.70 529.67,465.33 ZM 489.67 567.33 C489.30,566.97 489.00,541.99 489.00,511.83 L 489.00 457.00 L 504.00 457.00 L 504.00 568.00 L 497.17 568.00 C493.41,568.00 490.03,567.70 489.67,567.33 ZM 393.73 481.91 C392.28,481.07 381.00,460.32 381.00,458.52 C381.00,458.23 382.77,458.00 384.93,458.00 C388.83,458.00 388.89,458.05 392.46,465.49 C394.20,469.11 395.28,471.49 397.06,473.04 C400.57,476.10 406.82,476.00 426.28,476.00 C450.52,476.00 450.66,475.99 452.84,473.67 C456.19,470.10 458.68,461.66 460.03,449.25 L 461.26 438.00 L 465.13 438.00 C467.26,438.00 469.00,438.26 469.00,438.59 C469.00,438.91 467.86,446.67 466.47,455.84 C465.08,465.00 463.61,474.75 463.21,477.50 L 462.48 482.50 L 428.99 482.73 C407.21,482.87 394.88,482.59 393.73,481.91 ZM 544.35 418.00 L 583.13 418.00 L 582.82 420.75 L 582.50 423.50 L 563.87 423.77 L 545.23 424.04 L 544.35 418.00 ZM 617.00 418.00 L 655.13 418.00 L 654.82 420.75 L 654.50 423.50 L 617.00 424.04 L 617.00 418.00 ZM 357.58 434.59 C355.61,431.06 354.00,427.79 354.00,427.33 C354.00,426.57 365.37,422.00 367.25,422.00 C367.66,422.00 368.00,425.80 368.00,430.44 C368.00,439.36 368.00,439.37 363.83,440.36 C361.38,440.94 360.88,440.48 357.58,434.59 ZM 509.25 422.50 C511.39,424.94 512.00,424.17 512.00,419.00 L 512.00 425.00 L 494.00 425.00 L 494.00 415.62 C494.18,416.29 495.54,417.19 498.03,418.34 C500.22,419.34 501.76,420.58 501.45,421.09 C500.50,422.62 503.67,422.10 505.00,420.50 C506.44,418.77 508.00,418.53 508.00,420.04 C508.00,420.62 508.56,421.72 509.25,422.50 ZM 560.71 438.38 C560.32,437.99 560.00,436.17 560.00,434.33 C560.00,431.18 560.19,431.00 563.56,431.00 C567.06,431.00 567.12,431.06 566.81,434.75 C566.55,437.92 566.11,438.55 563.96,438.80 C562.57,438.96 561.10,438.77 560.71,438.38 ZM 633.00 435.07 C633.00,431.20 633.15,431.00 636.06,431.00 C638.99,431.00 639.11,431.17 638.81,434.75 C638.54,438.01 638.14,438.54 635.75,438.82 C633.15,439.12 633.00,438.91 633.00,435.07 ZM 494.00 415.32 L 494.00 414.00 L 503.00 414.00 C497.24,414.00 494.28,414.41 494.00,415.32 Z" fill="rgba(149,152,148,1)"/>
<path d="M 582.29 387.70 C582.29,380.22 577.26,369.79 569.64,361.47 C564.96,356.36 563.91,355.66 562.34,356.60 C561.10,357.35 560.34,359.30 559.99,362.63 C559.59,366.53 558.53,368.79 554.86,373.52 C549.77,380.10 547.48,385.79 548.42,389.55 C549.26,392.87 548.00,392.63 544.25,388.75 C540.18,384.55 538.00,379.22 538.00,373.50 C538.00,368.84 542.65,353.00 544.02,353.00 C544.43,353.00 545.51,354.12 546.41,355.50 C548.94,359.36 551.47,358.62 555.85,352.75 C560.74,346.20 562.37,342.99 564.47,335.74 C565.39,332.58 566.51,330.00 566.97,330.00 C568.25,330.00 573.96,339.38 576.08,344.98 C577.14,347.75 578.00,351.80 578.00,353.98 C578.00,359.48 580.97,361.14 585.20,358.01 C586.83,356.81 588.31,355.98 588.49,356.16 C588.67,356.35 589.54,359.26 590.41,362.64 C593.42,374.28 592.06,382.42 585.96,389.29 L 582.29 393.44 Z" fill="rgba(245,143,75,1)"/>
<path d="M 315.30 572.33 C314.94,571.40 315.55,569.05 316.66,567.08 C317.76,565.11 321.49,558.44 324.96,552.25 C328.42,546.06 331.59,541.00 332.01,541.00 C333.25,541.00 334.46,542.92 342.47,557.71 C346.70,565.52 349.88,572.38 349.53,572.96 C349.12,573.61 342.75,574.00 332.41,574.00 C317.94,574.00 315.86,573.80 315.30,572.33 ZM 560.38 396.42 C558.67,395.57 556.76,393.76 556.13,392.39 C554.02,387.75 554.82,384.53 559.75,377.75 C562.36,374.17 565.02,370.39 565.66,369.37 C566.78,367.56 566.86,367.56 568.40,369.50 C571.66,373.63 576.00,383.44 576.00,386.71 C576.00,391.57 573.57,395.60 569.88,396.89 C565.71,398.34 564.13,398.27 560.38,396.42 ZM 334.43 570.43 C336.27,568.59 336.43,566.83 334.91,565.31 C334.12,564.52 334.12,563.65 334.91,562.17 C335.51,561.05 336.00,557.82 336.00,555.01 L 336.00 549.88 L 328.50 550.50 L 328.71 556.42 C328.83,559.95 329.43,562.65 330.20,563.12 C331.22,563.76 331.23,564.17 330.24,565.16 C328.67,566.73 328.65,569.25 330.20,570.80 C331.78,572.38 332.54,572.31 334.43,570.43 Z" fill="rgba(247,202,70,1)"/>
<path d="M 491.50 803.40 C414.40,795.76 349.70,767.44 292.87,716.45 C246.09,674.48 209.15,613.38 194.03,553.00 C190.67,539.59 187.54,524.09 188.11,523.64 C188.32,523.47 191.97,521.66 196.22,519.62 C200.81,517.41 208.52,512.19 215.22,506.76 C243.57,483.76 252.00,476.71 252.00,475.96 C252.00,475.52 240.92,466.16 227.37,455.15 L 202.73 435.15 L 195.51 434.47 C191.53,434.10 187.76,433.47 187.12,433.08 C186.27,432.55 186.61,428.57 188.43,417.83 C196.44,370.52 213.16,328.34 239.88,288.00 C279.25,228.57 340.08,181.35 407.14,158.19 C445.90,144.80 474.82,139.99 516.49,140.01 C549.29,140.02 569.56,142.49 598.68,150.01 C685.00,172.32 760.36,230.50 804.11,308.61 C824.40,344.84 838.19,385.12 843.37,423.23 C844.89,434.49 845.42,433.81 834.86,434.12 L 828.22 434.31 L 803.36 454.77 C789.69,466.02 778.50,475.66 778.50,476.20 C778.50,476.74 789.53,486.13 803.00,497.07 C828.24,517.57 829.47,518.29 835.26,516.09 C836.95,515.45 838.59,515.63 840.78,516.69 C843.35,517.94 843.83,518.68 843.47,520.85 C837.40,557.55 828.93,584.83 814.10,615.50 C768.73,709.31 681.64,777.06 580.26,797.44 C557.62,801.99 546.67,803.09 520.50,803.45 C506.75,803.64 493.70,803.62 491.50,803.40 ZM 343.72 604.41 C363.98,597.65 374.94,576.49 368.52,556.50 C364.51,544.02 345.71,510.91 336.79,500.61 C334.15,497.56 332.97,496.88 331.29,497.41 C326.96,498.78 305.34,533.57 298.22,550.64 C294.88,558.62 294.51,560.39 294.51,568.50 C294.50,576.11 294.90,578.35 297.10,583.05 C305.41,600.76 326.14,610.26 343.72,604.41 ZM 714.69 591.83 L 717.00 589.65 L 717.00 512.46 C717.00,420.11 718.89,430.00 701.24,430.00 C684.65,430.00 685.00,429.57 685.00,450.17 L 685.00 466.00 L 680.00 466.00 L 675.00 466.00 L 675.00 457.25 C674.99,442.50 671.16,439.00 655.03,439.00 L 646.00 439.00 L 646.00 435.00 L 646.00 431.00 L 652.80 431.00 C656.76,431.00 660.10,430.50 660.80,429.80 C662.41,428.19 662.37,414.89 660.75,412.67 C659.62,411.13 657.15,410.99 635.00,411.23 L 610.50 411.50 L 610.21 419.85 C610.02,425.14 610.34,428.71 611.08,429.60 C611.88,430.55 614.45,431.00 619.18,431.00 L 626.12 431.00 L 625.81 434.75 L 625.50 438.50 L 599.25 438.77 L 573.00 439.03 L 573.00 435.02 L 573.00 431.00 L 580.30 431.00 C584.64,431.00 588.09,430.51 588.80,429.80 C590.41,428.19 590.37,414.89 588.75,412.67 C587.62,411.13 585.15,410.99 563.00,411.23 L 538.50 411.50 L 538.21 420.42 C538.00,426.87 538.27,429.56 539.21,430.15 C539.92,430.60 543.31,430.98 546.75,430.98 L 553.00 431.00 L 553.00 435.00 L 553.00 439.00 L 542.65 439.00 C533.55,439.00 531.88,439.28 528.90,441.27 C523.81,444.67 522.00,449.13 522.00,458.30 L 522.00 466.10 L 516.79 465.80 L 511.58 465.50 L 511.85 460.48 C512.00,457.72 511.66,454.23 511.09,452.73 L 510.05 450.00 L 497.22 450.00 C488.58,450.00 484.01,450.39 483.20,451.20 C482.29,452.11 482.00,467.01 482.00,512.13 C482.00,565.09 482.18,572.04 483.57,573.43 C484.82,574.68 487.56,575.00 497.05,575.00 C508.62,575.00 509.00,574.93 510.58,572.52 C511.78,570.68 512.08,568.50 511.74,564.02 L 511.28 558.00 L 516.54 558.00 L 521.79 558.00 L 522.15 566.43 C522.53,575.48 523.78,578.25 529.38,582.44 C532.10,584.47 533.26,584.50 597.82,584.77 C660.32,585.02 663.67,584.94 666.97,583.16 C673.04,579.90 674.46,576.97 674.85,566.93 L 675.20 558.00 L 680.10 558.00 L 685.00 558.00 L 685.00 573.69 C685.00,594.38 684.70,594.00 700.86,594.00 C711.30,594.00 712.59,593.80 714.69,591.83 ZM 465.97 489.02 C468.73,487.54 469.68,483.80 472.46,463.50 C473.89,453.05 475.32,443.04 475.64,441.25 L 476.22 438.00 L 483.91 438.00 C491.85,438.00 494.00,437.10 494.00,433.80 C494.00,432.17 495.09,432.00 505.30,432.00 C512.76,432.00 517.01,431.59 517.80,430.80 C519.06,429.54 519.54,411.56 518.39,408.58 C517.89,407.27 515.85,407.00 506.34,407.00 L 494.90 407.00 L 493.86 404.03 L 492.83 401.06 L 480.75 400.78 L 468.67 400.50 L 467.08 395.87 C464.20,387.47 466.60,388.00 431.60,388.00 C396.79,388.00 397.65,387.84 393.95,395.10 C391.77,399.38 390.42,400.17 377.50,404.73 C370.18,407.32 369.40,407.85 368.38,411.03 C367.34,414.23 366.55,414.76 358.38,417.79 C349.61,421.04 345.44,424.11 346.41,426.62 C346.69,427.35 344.20,430.06 340.59,432.93 C325.57,444.88 322.14,451.37 320.67,470.65 C319.24,489.21 319.12,489.00 331.86,489.00 C338.58,489.00 342.07,488.60 342.74,487.75 C343.29,487.06 344.03,481.61 344.41,475.62 C345.16,463.50 345.88,461.57 352.40,454.32 C355.93,450.40 357.79,449.15 360.72,448.73 C362.80,448.44 365.29,447.88 366.25,447.49 C367.65,446.93 368.00,447.31 368.00,449.39 C368.00,450.83 368.95,452.95 370.12,454.12 C371.28,455.28 375.28,462.37 379.00,469.87 C382.82,477.57 387.15,484.80 388.95,486.50 L 392.13 489.50 L 422.81 490.09 C455.45,490.71 463.16,490.52 465.97,489.02 ZM 579.21 401.02 C586.71,398.22 593.17,392.36 595.98,385.82 C597.98,381.18 598.18,379.42 597.72,371.03 C597.03,358.58 593.57,347.65 590.17,347.17 C588.88,346.99 587.04,347.55 586.08,348.43 C584.44,349.91 584.24,349.74 583.06,345.76 C579.66,334.21 567.71,318.48 562.88,319.16 C560.73,319.47 560.44,320.14 559.84,326.00 C559.08,333.60 556.02,342.26 552.60,346.50 C551.27,348.15 550.03,349.27 549.84,349.00 C549.65,348.73 548.81,347.15 547.97,345.50 C547.11,343.83 545.47,342.36 544.27,342.19 C542.54,341.94 541.58,342.90 539.56,346.88 C531.88,362.05 529.98,376.12 534.35,385.50 C541.45,400.71 561.51,407.65 579.21,401.02 ZM 327.33 481.41 C326.31,478.77 327.91,461.64 329.65,456.40 C330.92,452.61 333.18,449.64 339.68,443.25 C344.29,438.71 348.66,435.00 349.38,435.00 C350.10,435.00 351.51,436.80 352.50,439.01 L 354.31 443.02 L 347.82 449.76 C344.24,453.47 340.75,457.57 340.06,458.87 C339.37,460.17 338.41,465.70 337.94,471.15 C337.47,476.60 336.81,481.50 336.48,482.03 C335.45,483.70 328.01,483.19 327.33,481.41 ZM 402.87 468.12 C401.56,467.08 399.17,463.50 397.58,460.17 L 394.69 454.11 L 399.53 446.71 L 404.38 439.30 L 422.44 438.66 C432.37,438.30 443.54,438.30 447.25,438.65 L 454.00 439.29 L 453.98 442.39 C453.96,445.91 452.23,458.62 451.42,461.21 C450.97,462.68 449.97,462.35 444.20,458.82 C440.51,456.56 434.21,452.50 430.19,449.79 C426.16,447.07 421.38,444.61 419.55,444.31 C414.65,443.52 409.60,445.59 405.57,450.06 C401.86,454.16 401.16,456.76 403.20,458.80 C405.30,460.90 407.77,460.10 409.93,456.62 C412.54,452.40 416.93,450.35 419.93,451.96 C426.51,455.49 445.93,468.74 445.35,469.32 C444.97,469.69 435.80,470.00 424.97,470.00 C407.19,470.00 405.04,469.82 402.87,468.12 ZM 509.25 422.50 C508.56,421.72 508.00,420.62 508.00,420.04 C508.00,418.53 506.44,418.77 505.00,420.50 C503.67,422.10 500.50,422.62 501.45,421.09 C501.76,420.58 500.22,419.34 498.03,418.34 C491.38,415.27 492.83,414.00 503.00,414.00 L 512.00 414.00 L 512.00 419.00 C512.00,424.17 511.39,424.94 509.25,422.50 Z" fill="rgba(251,251,251,1)"/>
</g>
</svg>