<svg xmlns="http://www.w3.org/2000/svg" width="1024" height="1024" viewBox="0 0 1024 1024">
<g>
<path d="M 693.90 628.61 C692.94,629.77 679.58,630.00 611.91,630.00 C532.29,630.00 531.05,629.97 530.01,628.01 C529.36,626.80 529.05,620.47 529.22,611.76 L 529.50 597.50 L 536.00 597.20 C539.58,597.03 542.89,596.50 543.37,596.03 C543.85,595.55 544.17,547.65 544.08,488.32 C543.97,413.10 544.25,379.94 545.03,376.29 C546.38,369.99 550.56,363.98 556.17,360.27 L 560.35 357.50 L 610.43 357.20 C644.73,356.99 661.69,357.24 664.27,357.99 C669.06,359.39 674.50,364.15 677.31,369.41 C679.45,373.40 679.51,374.61 680.00,417.97 L 680.50 462.45 L 684.85 463.19 C693.07,464.59 698.72,469.73 700.98,477.88 C701.59,480.07 701.99,500.34 701.99,529.22 L 702.00 576.93 L 705.08 580.44 C711.89,588.20 723.07,586.62 727.18,577.32 C729.03,573.15 729.14,571.30 728.63,552.66 C728.34,541.57 728.07,514.39 728.05,492.25 L 728.00 452.00 L 720.87 452.00 C707.83,452.00 703.99,447.40 704.02,431.85 C704.05,421.34 705.51,416.91 711.00,410.65 C712.80,408.61 713.96,406.61 713.58,406.22 C713.20,405.82 707.86,401.45 701.70,396.50 C689.77,386.91 687.61,383.64 692.43,382.43 C694.62,381.88 697.10,383.47 709.55,393.46 C725.54,406.27 729.53,411.19 733.70,423.19 L 736.04 429.91 L 735.77 503.70 C735.50,576.33 735.47,577.56 733.41,581.50 C730.56,586.96 724.12,591.71 718.40,592.57 C712.27,593.49 706.82,591.74 701.87,587.27 C694.16,580.30 694.56,583.33 694.00,527.50 C693.72,500.00 693.12,476.74 692.67,475.81 C691.33,473.09 687.35,471.00 683.53,471.00 L 679.98 471.00 L 680.24 533.75 L 680.50 596.50 L 694.50 597.50 L 694.78 612.36 C694.97,622.47 694.69,627.67 693.90,628.61 ZM 552.00 376.68 L 552.00 596.00 L 673.00 596.00 L 673.00 487.07 C673.00,412.53 672.66,377.24 671.94,375.32 C670.63,371.87 666.43,367.30 662.80,365.41 C660.59,364.25 651.58,364.00 612.87,364.00 C566.95,364.00 565.51,364.06 561.30,366.10 C558.41,367.49 556.14,369.61 554.49,372.43 L 552.00 376.68 ZM 496.85 628.58 C494.53,629.78 480.26,630.00 405.77,630.00 C323.99,630.00 315.43,630.29 312.75,626.47 C312.25,625.75 311.95,624.87 311.41,623.82 C309.23,619.60 310.29,614.77 314.11,611.56 C315.78,610.15 317.61,609.00 318.17,609.00 C318.85,609.00 319.08,600.16 318.85,582.74 L 318.50 556.48 L 314.52 552.84 C311.09,549.69 310.55,548.62 310.55,544.96 C310.55,541.27 311.07,540.26 314.61,537.11 L 318.68 533.50 L 318.93 490.82 L 319.19 448.15 L 316.01 446.51 C312.21,444.54 309.61,439.05 310.52,434.91 C310.87,433.32 312.76,430.69 314.73,429.07 L 318.31 426.12 L 318.13 400.47 L 317.95 374.82 L 314.54 371.60 C310.17,367.48 309.23,363.84 311.38,359.34 C311.85,358.34 312.22,357.49 312.76,356.78 C315.72,352.91 323.88,353.00 383.47,353.00 L 447.00 353.00 L 447.00 348.93 C447.00,341.17 447.33,341.00 462.41,341.00 L 475.76 341.00 L 476.96 343.91 C477.62,345.51 478.02,348.10 477.83,349.66 L 477.50 352.50 L 486.68 353.01 C494.60,353.45 496.21,353.85 498.42,355.92 C503.45,360.65 502.65,369.32 496.87,372.74 L 494.00 374.43 L 494.01 426.50 L 496.94 428.17 C501.21,430.59 502.93,436.82 500.66,441.59 C499.74,443.52 497.72,445.83 496.18,446.71 L 493.38 448.32 L 493.74 470.41 L 494.11 492.50 L 490.54 496.25 C488.58,498.31 486.75,500.00 486.49,500.00 C486.22,500.00 486.00,488.30 486.00,474.00 L 486.00 448.00 L 325.00 448.00 L 325.00 480.34 C325.00,498.13 325.29,517.48 325.65,523.34 L 326.30 534.00 L 465.97 534.00 L 464.34 537.40 C462.73,540.79 462.68,540.81 454.11,541.47 C449.37,541.84 417.31,541.87 382.85,541.54 C326.24,541.00 320.05,541.10 318.60,542.54 C316.46,544.69 316.58,546.71 318.93,547.96 C320.21,548.65 344.21,549.00 389.84,549.00 L 458.81 549.00 L 456.66 556.00 L 324.70 556.00 L 325.35 566.66 C325.71,572.52 326.00,584.45 326.00,593.18 L 326.00 609.05 L 403.75 608.98 C471.44,608.92 482.07,609.11 485.88,610.45 C488.28,611.30 492.19,612.00 494.57,612.00 C497.90,612.00 499.24,612.51 500.44,614.22 C503.55,618.66 501.70,626.07 496.85,628.58 ZM 189.38 433.84 C187.72,433.47 186.10,433.47 185.58,433.88 C184.99,434.34 179.25,434.50 172.83,434.24 L 161.17 433.75 L 161.66 430.13 C167.66,386.33 178.75,349.42 196.70,313.59 C215.58,275.88 237.10,246.66 268.60,215.95 C325.00,160.97 393.29,127.94 472.50,117.32 C490.89,114.86 540.09,114.85 558.50,117.32 C640.64,128.31 712.83,164.78 771.02,224.67 C815.57,270.52 845.25,324.05 860.44,385.91 C864.09,400.77 867.76,421.31 868.22,429.50 L 868.50 434.50 L 850.50 434.53 C841.01,434.55 832.44,434.65 830.91,434.77 C832.34,433.97 834.83,434.02 839.19,434.01 L 844.87 434.00 L 844.35 430.25 C836.98,377.08 819.52,330.16 791.42,288.00 C738.84,209.12 657.68,157.41 563.53,142.82 C546.74,140.22 503.90,139.19 485.24,140.94 C451.49,144.11 416.00,153.34 383.47,167.42 C331.93,189.72 284.31,227.77 249.52,274.45 C216.36,318.95 194.32,372.75 186.55,428.19 L 185.90 432.88 L 189.38 433.84 ZM 483.50 826.95 C424.05,820.97 368.93,801.31 319.50,768.45 C236.26,713.11 180.59,627.80 163.57,529.50 C162.71,524.55 162.00,520.16 162.00,519.75 C162.00,519.34 167.60,519.00 174.45,519.00 L 186.91 519.00 L 187.58 522.56 C188.24,526.09 188.25,526.12 190.33,524.24 C188.68,525.86 188.30,527.37 188.66,529.38 C198.67,585.41 225.63,641.81 264.06,687.12 C290.82,718.68 330.14,749.49 367.79,768.39 C404.17,786.67 446.80,799.14 485.58,802.87 C500.22,804.28 532.40,804.10 547.26,802.52 C565.23,800.61 576.37,798.67 593.61,794.46 C669.63,775.88 736.27,731.09 783.15,667.06 C812.04,627.61 833.46,578.19 841.48,532.50 C842.35,527.55 843.27,522.55 843.52,521.39 C843.92,519.52 843.42,519.22 837.49,518.48 C841.40,518.72 847.46,518.90 853.25,518.93 C867.14,519.00 868.00,519.11 868.00,520.93 C868.00,524.62 863.06,549.56 859.99,561.37 C839.16,641.56 788.47,714.29 719.00,763.68 C673.95,795.70 616.82,817.80 558.93,825.59 C545.35,827.42 496.85,828.29 483.50,826.95 ZM 328.38 426.35 C329.55,426.60 337.25,426.63 345.50,426.41 C353.75,426.20 388.74,426.02 423.25,426.01 L 486.00 426.00 L 486.00 374.00 L 406.06 374.00 C350.99,374.00 325.91,374.33 325.46,375.06 C325.11,375.64 325.14,387.31 325.54,401.00 C326.25,425.26 326.32,425.91 328.38,426.35 ZM 653.81 465.97 C650.64,467.91 648.85,467.99 612.50,467.99 C576.85,467.99 574.31,467.87 571.37,466.08 C569.90,465.19 568.77,464.54 567.90,463.64 C564.91,460.56 565.00,454.50 565.00,425.23 C565.00,396.50 565.25,390.42 566.52,387.97 C569.57,382.07 570.11,382.00 612.82,382.00 C651.22,382.00 651.77,382.03 654.49,384.17 C659.75,388.31 660.00,390.17 660.00,425.00 C660.00,460.58 659.73,462.36 653.81,465.97 ZM 574.17 458.69 L 576.35 461.00 L 648.85 461.00 L 650.93 458.37 C652.92,455.83 653.00,454.58 653.00,424.37 C653.00,394.33 652.91,392.91 651.00,391.00 C649.07,389.07 647.67,389.00 612.50,389.00 C577.33,389.00 575.93,389.07 574.00,391.00 C572.08,392.92 572.00,394.33 572.00,424.69 C572.00,455.84 572.04,456.41 574.17,458.69 ZM 619.26 349.04 C609.63,350.62 603.08,349.64 593.61,345.18 C581.95,339.70 575.10,330.13 574.24,318.12 C573.63,309.54 575.04,302.98 580.30,290.00 C584.30,280.13 584.74,279.48 587.60,279.20 C590.31,278.93 590.86,279.36 592.48,282.95 C593.48,285.18 594.57,287.00 594.90,286.99 C595.92,286.98 599.76,280.79 602.55,274.69 C604.14,271.20 605.38,266.41 605.66,262.69 C606.41,252.64 606.66,252.00 609.94,252.00 C612.25,252.00 614.07,253.37 618.92,258.74 C625.58,266.12 631.18,275.84 633.05,283.30 L 634.26 288.10 L 636.38 286.20 C641.83,281.31 643.41,282.27 646.47,292.36 C649.73,303.12 651.35,314.15 650.51,319.87 C648.32,334.84 636.05,346.29 619.26,349.04 ZM 513.44 600.50 C487.12,612.99 457.36,588.36 464.39,559.90 C465.26,556.38 468.68,548.07 471.99,541.43 C478.24,528.88 494.42,503.44 496.70,502.56 C499.45,501.51 501.56,503.75 510.20,516.91 C521.14,533.58 531.48,554.23 533.17,562.77 C536.16,577.92 527.96,593.60 513.44,600.50 ZM 445.33 527.70 C442.98,529.24 439.06,529.43 407.39,529.47 C387.96,529.49 370.79,529.18 369.23,528.78 C364.21,527.48 361.49,523.55 361.54,517.67 C361.58,512.79 362.54,510.92 378.78,483.83 C388.24,468.07 397.22,454.18 398.74,452.98 C402.48,450.03 410.12,450.62 413.46,454.11 C415.48,456.22 421.03,465.09 444.21,503.24 C447.46,508.59 450.37,514.48 450.67,516.33 C451.33,520.40 449.05,525.27 445.33,527.70 ZM 492.73 595.92 C505.37,598.94 520.40,590.35 524.59,577.72 C527.43,569.18 526.19,561.81 519.67,548.46 C513.90,536.65 499.47,513.00 498.03,513.00 C496.72,513.00 485.54,530.79 479.07,543.19 C471.96,556.79 469.54,564.50 470.33,571.10 C471.74,583.02 480.82,593.08 492.73,595.92 ZM 536.82 613.50 L 537.14 623.00 L 688.00 623.00 L 688.00 604.00 L 612.25 604.00 L 536.50 604.00 ZM 371.27 521.79 C372.71,522.49 385.15,522.89 406.53,522.93 C434.88,522.99 439.87,522.78 441.78,521.44 C443.00,520.59 444.00,519.09 444.00,518.12 C444.00,516.50 439.55,508.89 417.35,472.50 C409.81,460.14 409.25,459.49 405.93,459.20 L 402.44 458.91 L 390.11 479.70 C383.33,491.14 375.55,504.21 372.82,508.74 C367.56,517.47 367.28,519.86 371.27,521.79 ZM 588.93 334.29 C590.70,335.78 592.47,337.00 592.85,337.00 C593.24,337.00 593.38,335.17 593.17,332.94 C592.64,327.39 595.16,321.31 601.04,313.95 C605.65,308.18 606.59,305.84 607.24,298.50 C607.45,296.07 608.01,295.44 610.19,295.19 C612.49,294.92 613.75,295.98 618.86,302.40 C627.78,313.63 631.50,321.81 631.50,330.22 C631.50,333.95 631.75,337.00 632.05,337.00 C633.15,337.00 639.82,329.41 641.29,326.49 C644.52,320.07 644.33,309.92 640.78,297.75 C639.49,293.33 638.77,293.18 634.82,296.50 C632.47,298.47 631.46,298.78 629.94,297.97 C627.91,296.88 627.47,295.51 626.56,287.50 C625.93,281.90 621.48,272.26 617.16,267.10 C613.99,263.33 612.01,263.60 611.98,267.81 C611.94,271.71 608.04,280.59 603.33,287.50 C596.14,298.05 593.29,299.15 589.67,292.78 C587.48,288.93 587.26,289.19 583.56,300.24 C578.81,314.37 580.89,327.52 588.93,334.29 ZM 318.04 621.55 C319.08,622.80 331.39,623.00 406.07,623.00 C487.23,623.00 492.96,622.89 493.87,621.28 C494.48,620.18 494.48,618.90 493.88,617.78 C492.98,616.10 488.23,616.00 405.53,616.00 C318.33,616.00 318.13,616.00 317.48,618.05 C317.13,619.17 317.38,620.75 318.04,621.55 ZM 317.93 365.42 C319.11,366.84 328.06,367.00 406.00,367.00 C478.34,367.00 492.94,366.77 493.89,365.63 C495.43,363.77 494.26,361.10 491.64,360.47 C490.46,360.18 451.07,360.07 404.11,360.22 C325.69,360.48 318.63,360.64 317.67,362.17 C316.90,363.38 316.98,364.27 317.93,365.42 ZM 317.93 439.42 C319.11,440.84 328.00,441.00 405.37,440.98 C452.74,440.98 492.10,440.59 492.84,440.12 C493.57,439.66 494.02,438.20 493.84,436.89 L 493.50 434.50 L 406.11 434.50 C325.64,434.50 318.63,434.63 317.67,436.17 C316.90,437.38 316.98,438.27 317.93,439.42 ZM 606.37 341.41 C615.61,345.97 625.00,340.37 625.00,330.30 C625.00,324.91 616.70,308.00 614.05,308.00 C613.61,308.00 612.67,309.37 611.98,311.05 C611.28,312.73 608.54,316.82 605.89,320.14 C600.13,327.34 598.93,331.85 601.48,336.59 C602.45,338.39 604.65,340.56 606.37,341.41 ZM 638.07 417.96 C636.89,418.60 626.80,419.00 612.26,419.00 C586.43,419.00 584.49,418.64 585.16,413.94 C585.49,411.54 585.67,411.50 596.75,411.22 L 608.00 410.93 L 608.00 405.17 C608.00,399.20 609.12,397.00 612.16,397.00 C614.68,397.00 616.00,400.08 616.00,405.93 L 616.00 411.00 L 626.80 411.00 C633.87,411.00 638.01,411.41 638.80,412.20 C640.60,414.00 640.25,416.80 638.07,417.96 ZM 712.98 442.25 C714.94,444.74 715.76,445.00 721.53,445.00 L 727.91 445.00 L 728.58 441.41 C728.95,439.43 728.99,435.53 728.65,432.73 C727.95,426.76 721.72,413.00 719.72,413.00 C718.96,413.00 716.80,415.14 714.92,417.75 C711.77,422.12 711.47,423.18 711.16,431.00 C710.86,438.50 711.07,439.82 712.98,442.25 ZM 409.88 500.23 C408.90,502.05 404.51,502.61 402.29,501.20 C400.86,500.29 398.71,479.90 399.91,478.69 C400.35,478.25 403.14,478.02 406.11,478.19 L 411.50 478.50 L 411.16 488.48 C410.97,493.97 410.40,499.26 409.88,500.23 ZM 627.37 439.14 C625.89,440.78 624.06,441.00 612.00,441.00 C599.45,441.00 598.15,440.83 596.45,438.94 C595.02,437.37 594.83,436.49 595.65,435.19 C596.53,433.80 598.71,433.45 608.11,433.19 C626.40,432.70 631.71,434.35 627.37,439.14 ZM 494.96 587.55 C493.54,589.26 491.27,589.36 488.50,587.84 C479.67,582.96 472.79,567.91 477.58,563.93 C479.98,561.94 482.22,563.93 483.58,569.25 C485.08,575.11 488.14,579.40 491.94,580.98 C495.35,582.39 496.74,585.41 494.96,587.55 ZM 409.43 514.43 C407.29,516.57 404.40,516.40 402.00,514.00 C397.98,509.98 399.73,506.00 405.50,506.00 C408.49,506.00 409.97,506.48 410.39,507.58 C411.42,510.27 411.07,512.79 409.43,514.43 ZM 454.00 350.50 C454.00,352.96 454.13,353.00 462.00,353.00 C469.87,353.00 470.00,352.96 470.00,350.50 C470.00,348.04 469.87,348.00 462.00,348.00 C454.13,348.00 454.00,348.04 454.00,350.50 ZM 200.83 435.00 L 197.16 435.00 C195.30,435.00 192.44,434.63 190.53,434.14 C192.61,434.63 195.40,434.99 197.17,434.99 L 200.83 435.00 ZM 829.08 439.40 C829.02,440.89 829.00,442.87 829.00,445.49 C829.00,442.93 828.99,440.94 829.08,439.40 Z" fill="rgba(0,0,0,1)"/>
<path d="M 489.27 497.55 C479.49,509.27 462.94,538.12 457.78,552.38 L 458.81 549.00 L 389.84 549.00 C344.21,549.00 320.21,548.65 318.93,547.96 C316.58,546.71 316.46,544.69 318.60,542.54 C320.05,541.10 326.24,541.00 382.85,541.54 C417.31,541.87 449.37,541.84 454.11,541.47 C462.68,540.81 462.73,540.79 464.34,537.40 L 465.97 534.00 L 326.30 534.00 L 325.65 523.34 C325.29,517.48 325.00,498.13 325.00,480.34 L 325.00 448.00 L 486.00 448.00 L 486.00 474.00 C486.00,488.30 486.22,500.00 486.49,500.00 C486.69,500.00 487.85,498.98 489.27,497.55 ZM 328.38 426.35 C326.32,425.91 326.25,425.26 325.54,401.00 C325.14,387.31 325.11,375.64 325.46,375.06 C325.91,374.33 350.99,374.00 406.06,374.00 L 486.00 374.00 L 486.00 426.00 L 423.25 426.01 C388.74,426.02 353.75,426.20 345.50,426.41 C337.25,426.63 329.55,426.60 328.38,426.35 ZM 456.62 556.00 C455.15,561.15 454.87,564.38 455.18,570.98 C455.55,578.69 456.08,580.78 459.31,587.32 C465.85,600.54 480.17,610.88 493.26,611.83 C493.99,611.88 494.64,611.94 495.23,612.01 C495.02,612.00 494.80,612.00 494.57,612.00 C492.19,612.00 488.28,611.30 485.88,610.45 C482.07,609.11 471.44,608.92 403.75,608.98 L 326.00 609.05 L 326.00 593.18 C326.00,584.45 325.71,572.52 325.35,566.66 L 324.70 556.00 L 456.62 556.00 ZM 445.33 527.70 C449.05,525.27 451.33,520.40 450.67,516.33 C450.37,514.48 447.46,508.59 444.21,503.24 C421.03,465.09 415.48,456.22 413.46,454.11 C410.12,450.62 402.48,450.03 398.74,452.98 C397.22,454.18 388.24,468.07 378.78,483.83 C362.54,510.92 361.58,512.79 361.54,517.67 C361.49,523.55 364.21,527.48 369.23,528.78 C370.79,529.18 387.96,529.49 407.39,529.47 C439.06,529.43 442.98,529.24 445.33,527.70 ZM 492.73 595.92 C480.82,593.08 471.74,583.02 470.33,571.10 C469.54,564.50 471.96,556.79 479.07,543.19 C485.54,530.79 496.72,513.00 498.03,513.00 C499.47,513.00 513.90,536.65 519.67,548.46 C526.19,561.81 527.43,569.18 524.59,577.72 C520.40,590.35 505.37,598.94 492.73,595.92 ZM 318.04 621.55 C317.38,620.75 317.13,619.17 317.48,618.05 C318.13,616.00 318.33,616.00 405.53,616.00 C488.23,616.00 492.98,616.10 493.88,617.78 C494.48,618.90 494.48,620.18 493.87,621.28 C492.96,622.89 487.23,623.00 406.07,623.00 C331.39,623.00 319.08,622.80 318.04,621.55 ZM 317.93 365.42 C316.98,364.27 316.90,363.38 317.67,362.17 C318.63,360.64 325.69,360.48 404.11,360.22 C451.07,360.07 490.46,360.18 491.64,360.47 C494.26,361.10 495.43,363.77 493.89,365.63 C492.94,366.77 478.34,367.00 406.00,367.00 C328.06,367.00 319.11,366.84 317.93,365.42 ZM 317.93 439.42 C316.98,438.27 316.90,437.38 317.67,436.17 C318.63,434.63 325.64,434.50 406.11,434.50 L 493.50 434.50 L 493.84 436.89 C494.02,438.20 493.57,439.66 492.84,440.12 C492.10,440.59 452.74,440.98 405.37,440.98 C328.00,441.00 319.11,440.84 317.93,439.42 ZM 494.96 587.55 C496.74,585.41 495.35,582.39 491.94,580.98 C488.14,579.40 485.08,575.11 483.58,569.25 C482.22,563.93 479.98,561.94 477.58,563.93 C472.79,567.91 479.67,582.96 488.50,587.84 C491.27,589.36 493.54,589.26 494.96,587.55 ZM 454.00 350.50 C454.00,348.04 454.13,348.00 462.00,348.00 C469.87,348.00 470.00,348.04 470.00,350.50 C470.00,352.96 469.87,353.00 462.00,353.00 C454.13,353.00 454.00,352.96 454.00,350.50 ZM 493.42 451.07 L 493.81 470.15 L 494.26 491.97 L 494.10 492.15 L 493.74 470.41 L 493.42 451.07 ZM 500.49 614.29 C500.50,614.31 500.52,614.33 500.53,614.34 C501.90,616.31 502.26,618.92 501.79,621.41 C502.24,618.92 501.87,616.30 500.49,614.29 Z" fill="rgba(71,71,70,1)"/>
<path d="M 201.05 517.16 L 200.78 507.59 C200.51,497.88 200.43,497.57 198.00,496.87 C196.62,496.48 179.72,496.42 160.43,496.74 C141.15,497.05 124.15,497.00 122.66,496.63 L 119.96 495.95 L 120.23 476.23 L 120.50 456.50 L 200.50 455.50 L 200.67 445.25 L 200.82 435.43 C203.19,436.23 206.06,438.43 213.19,444.28 C227.75,456.23 250.10,474.30 251.38,475.17 C252.00,475.60 251.84,476.49 250.94,477.58 C248.56,480.45 213.55,508.07 201.05,517.16 ZM 833.62 518.00 C832.21,517.87 830.61,517.72 828.80,517.56 C827.61,517.46 818.34,510.29 797.16,493.08 C778.01,477.53 776.93,476.47 778.70,475.03 C779.73,474.19 791.27,464.79 804.35,454.14 L 828.13 434.77 L 831.32 434.57 C830.92,434.73 830.59,434.93 830.32,435.20 C828.92,436.54 829.00,439.42 829.00,445.61 L 829.00 455.98 L 869.25 456.24 L 909.50 456.50 L 909.77 475.43 C909.92,485.84 909.67,494.73 909.20,495.20 C908.74,495.66 891.52,496.05 870.93,496.07 C850.34,496.09 832.47,496.36 831.22,496.67 C829.00,497.22 828.94,497.54 829.22,507.37 L 829.50 517.50 L 833.62 518.00 ZM 840.31 434.01 L 844.83 433.73 L 844.33 430.11 C837.05,377.30 819.48,330.10 791.42,288.00 C819.52,330.16 836.98,377.08 844.35,430.25 L 844.87 434.00 L 840.31 434.01 ZM 196.78 519.94 L 198.29 519.11 C197.71,519.51 197.28,519.78 197.00,519.93 C190.26,523.47 188.25,525.49 188.57,528.72 C188.25,525.54 190.17,523.57 196.78,519.94 ZM 843.56 521.20 C843.74,520.09 843.19,519.44 840.50,518.90 C843.45,519.39 843.81,519.86 843.56,521.20 ZM 197.88 435.00 L 197.17 434.99 C195.15,434.99 191.79,434.51 189.70,433.93 C191.79,434.51 195.38,434.99 197.69,434.99 C197.75,434.99 197.82,434.99 197.88,435.00 Z" fill="rgba(103,171,75,1)"/>
<path d="M 552.00 376.68 L 554.49 372.43 C556.14,369.61 558.41,367.49 561.30,366.10 C565.51,364.06 566.95,364.00 612.87,364.00 C651.58,364.00 660.59,364.25 662.80,365.41 C666.43,367.30 670.63,371.87 671.94,375.32 C672.66,377.24 673.00,412.53 673.00,487.07 L 673.00 596.00 L 552.00 596.00 L 552.00 376.68 ZM 653.81 465.97 C659.73,462.36 660.00,460.58 660.00,425.00 C660.00,390.17 659.75,388.31 654.49,384.17 C651.77,382.03 651.22,382.00 612.82,382.00 C570.11,382.00 569.57,382.07 566.52,387.97 C565.25,390.42 565.00,396.50 565.00,425.23 C565.00,454.50 564.91,460.56 567.90,463.64 C568.77,464.54 569.90,465.19 571.37,466.08 C574.31,467.87 576.85,467.99 612.50,467.99 C648.85,467.99 650.64,467.91 653.81,465.97 ZM 536.82 613.50 L 536.50 604.00 L 612.25 604.00 L 688.00 604.00 L 688.00 623.00 L 537.14 623.00 Z" fill="rgba(148,148,148,1)"/>
<path d="M 588.93 334.29 C580.89,327.52 578.81,314.37 583.56,300.24 C587.26,289.19 587.48,288.93 589.67,292.78 C593.29,299.15 596.14,298.05 603.33,287.50 C608.04,280.59 611.94,271.71 611.98,267.81 C612.01,263.60 613.99,263.33 617.16,267.10 C621.48,272.26 625.93,281.90 626.56,287.50 C627.47,295.51 627.91,296.88 629.94,297.97 C631.46,298.78 632.47,298.47 634.82,296.50 C638.77,293.18 639.49,293.33 640.78,297.75 C644.33,309.92 644.52,320.07 641.29,326.49 C639.82,329.41 633.15,337.00 632.05,337.00 C631.75,337.00 631.50,333.95 631.50,330.22 C631.50,321.81 627.78,313.63 618.86,302.40 C613.75,295.98 612.49,294.92 610.19,295.19 C608.01,295.44 607.45,296.07 607.24,298.50 C606.59,305.84 605.65,308.18 601.04,313.95 C595.16,321.31 592.64,327.39 593.17,332.94 C593.38,335.17 593.24,337.00 592.85,337.00 C592.47,337.00 590.70,335.78 588.93,334.29 Z" fill="rgba(246,139,74,1)"/>
<path d="M 371.27 521.79 C367.28,519.86 367.56,517.47 372.82,508.74 C375.55,504.21 383.33,491.14 390.11,479.70 L 402.44 458.91 L 405.93 459.20 C409.25,459.49 409.81,460.14 417.35,472.50 C420.19,477.15 422.73,481.33 425.02,485.08 C424.52,484.41 424.12,484.00 423.93,484.00 C422.58,484.00 422.14,488.25 423.30,490.12 C423.95,491.15 425.53,492.00 426.80,492.00 L 429.13 492.00 L 428.00 489.98 C432.91,498.08 436.39,503.88 438.82,508.04 C437.75,506.91 436.74,506.00 436.54,506.00 C435.06,506.00 433.00,507.43 433.00,508.46 C433.00,509.15 431.99,510.84 430.75,512.22 C429.51,513.60 428.35,515.35 428.17,516.12 C427.99,516.88 427.20,517.86 426.42,518.30 C425.64,518.74 425.00,519.98 425.00,521.05 C425.00,522.16 425.35,522.68 426.57,522.89 C421.69,522.94 415.20,522.95 406.53,522.93 C403.79,522.93 401.20,522.92 398.76,522.90 C401.28,522.75 403.00,522.47 403.00,522.15 C403.00,519.91 399.09,518.13 393.50,517.83 C387.61,517.51 387.49,517.55 387.18,520.25 L 386.90 522.75 C377.58,522.56 372.19,522.23 371.27,521.79 ZM 408.03 503.25 C407.99,504.16 408.37,504.18 410.42,503.39 C411.29,503.06 412.00,501.66 412.00,500.29 C412.00,498.47 412.41,497.94 413.50,498.36 C415.27,499.04 415.50,496.80 413.95,493.91 C412.58,491.34 411.00,492.39 411.00,495.87 C411.00,497.01 410.62,498.50 410.09,499.62 C410.54,497.84 411.00,493.24 411.16,488.48 L 411.50 478.50 L 406.11 478.19 C403.14,478.02 400.35,478.25 399.91,478.69 C399.46,479.15 399.48,482.30 399.76,486.10 C399.52,485.39 399.13,485.00 398.61,485.00 C396.63,485.00 395.79,487.84 397.26,489.52 C399.03,491.52 399.86,491.32 399.98,488.77 C400.53,494.53 401.52,500.71 402.29,501.20 C404.19,502.41 407.67,502.17 409.25,500.95 C408.57,501.90 408.05,502.89 408.03,503.25 ZM 440.30 510.59 C443.14,515.54 444.00,517.41 444.00,518.12 C444.00,519.09 443.00,520.59 441.78,521.44 C440.65,522.23 438.45,522.63 431.01,522.81 C432.36,522.45 432.04,521.51 430.44,519.21 C428.99,517.15 429.04,516.76 431.01,513.99 C433.38,510.66 433.44,510.63 435.83,511.91 C436.94,512.50 438.12,512.39 439.24,511.57 C439.78,511.17 440.14,510.88 440.30,510.59 ZM 409.43 514.43 C411.07,512.79 411.42,510.27 410.39,507.58 C409.97,506.48 408.49,506.00 405.50,506.00 C399.73,506.00 397.98,509.98 402.00,514.00 C404.40,516.40 407.29,516.57 409.43,514.43 ZM 374.76 507.77 C375.37,509.61 381.53,509.27 383.13,507.31 C384.33,505.83 384.28,505.71 382.70,506.30 C381.53,506.74 381.13,506.60 381.57,505.89 C382.28,504.74 380.16,500.00 378.93,500.00 C377.75,500.00 374.30,506.41 374.76,507.77 ZM 600.24 331.18 C600.48,328.07 602.30,324.63 605.89,320.14 C607.58,318.03 609.30,315.60 610.51,313.69 C609.37,315.58 607.80,317.85 606.45,319.50 C604.55,321.81 603.00,324.62 603.00,325.73 C603.00,326.84 602.33,328.32 601.50,329.00 C600.83,329.56 600.41,330.31 600.24,331.18 ZM 612.24 310.45 C612.90,309.06 613.66,308.00 614.05,308.00 C614.07,308.00 614.08,308.00 614.10,308.00 C613.76,308.04 613.01,309.06 612.24,310.45 ZM 619.70 315.51 C622.43,320.74 625.00,327.30 625.00,330.30 C625.00,327.34 622.42,320.76 619.70,315.51 ZM 606.37 341.41 C606.28,341.36 606.18,341.31 606.08,341.26 C606.20,341.32 606.32,341.39 606.45,341.45 C606.42,341.44 606.40,341.42 606.37,341.41 Z" fill="rgba(246,196,60,1)"/>
<path d="M 606.45 341.45 C601.10,338.81 598.27,331.68 601.50,329.00 C602.33,328.32 603.00,326.84 603.00,325.73 C603.00,324.62 604.55,321.81 606.45,319.50 C608.34,317.19 610.67,313.65 611.63,311.65 C612.59,309.64 613.71,308.00 614.12,308.00 C616.70,308.00 625.00,324.99 625.00,330.30 C625.00,340.33 615.61,345.97 606.45,341.45 ZM 425.00 521.05 C425.00,519.98 425.64,518.74 426.42,518.30 C427.20,517.86 427.99,516.88 428.17,516.12 C428.35,515.35 429.51,513.60 430.75,512.22 C431.99,510.84 433.00,509.15 433.00,508.46 C433.00,507.43 435.06,506.00 436.54,506.00 C436.75,506.00 437.83,506.97 438.93,508.16 C440.81,510.18 440.83,510.40 439.24,511.57 C438.12,512.39 436.94,512.50 435.83,511.91 C433.44,510.63 433.38,510.66 431.01,513.99 C429.04,516.76 428.99,517.15 430.44,519.21 C432.70,522.44 432.41,523.00 428.50,523.00 C425.70,523.00 425.00,522.61 425.00,521.05 ZM 387.18 520.25 C387.49,517.55 387.61,517.51 393.50,517.83 C399.09,518.13 403.00,519.91 403.00,522.15 C403.00,522.62 399.37,523.00 394.93,523.00 L 386.87 523.00 ZM 374.76 507.77 C374.30,506.41 377.75,500.00 378.93,500.00 C380.16,500.00 382.28,504.74 381.57,505.89 C381.13,506.60 381.53,506.74 382.70,506.30 C384.28,505.71 384.33,505.83 383.13,507.31 C381.53,509.27 375.37,509.61 374.76,507.77 ZM 408.03 503.25 C408.05,502.84 408.72,501.63 409.53,500.56 C410.34,499.49 411.00,497.38 411.00,495.87 C411.00,492.39 412.58,491.34 413.95,493.91 C415.50,496.80 415.27,499.04 413.50,498.36 C412.41,497.94 412.00,498.47 412.00,500.29 C412.00,501.66 411.29,503.06 410.42,503.39 C408.37,504.18 407.99,504.16 408.03,503.25 ZM 423.30 490.12 C422.14,488.25 422.58,484.00 423.93,484.00 C424.32,484.00 425.64,485.80 426.88,488.00 L 429.13 492.00 L 426.80 492.00 C425.53,492.00 423.95,491.15 423.30,490.12 ZM 397.26 489.52 C395.79,487.84 396.63,485.00 398.61,485.00 C399.49,485.00 400.00,486.10 400.00,488.00 C400.00,491.26 399.19,491.71 397.26,489.52 Z" fill="rgba(249,200,64,1)"/>
<path d="M 485.58 802.87 C446.80,799.14 404.17,786.67 367.79,768.39 C330.14,749.49 290.82,718.68 264.06,687.12 C225.63,641.81 198.67,585.41 188.66,529.38 C188.01,525.75 189.82,523.70 197.00,519.93 C201.46,517.59 248.17,480.91 250.94,477.58 C251.84,476.49 252.00,475.60 251.38,475.17 C250.10,474.30 227.75,456.23 213.19,444.28 C202.92,435.86 201.48,435.00 197.69,434.99 C195.38,434.99 191.79,434.51 189.70,433.93 L 185.90 432.88 L 186.55 428.19 C194.32,372.75 216.36,318.95 249.52,274.45 C284.31,227.77 331.93,189.72 383.47,167.42 C416.00,153.34 451.49,144.11 485.24,140.94 C503.90,139.19 546.74,140.22 563.53,142.82 C657.68,157.41 738.84,209.12 791.42,288.00 C819.48,330.10 837.05,377.30 844.33,430.11 L 844.83 433.73 L 836.48 434.25 L 828.13 434.77 L 804.35 454.14 C791.27,464.79 779.73,474.19 778.70,475.03 C776.93,476.47 778.01,477.53 797.16,493.08 C818.34,510.29 827.61,517.46 828.80,517.56 C842.13,518.73 843.99,519.21 843.53,521.35 C843.27,522.53 842.35,527.55 841.48,532.50 C833.46,578.19 812.04,627.61 783.15,667.06 C736.27,731.09 669.63,775.88 593.61,794.46 C576.37,798.67 565.23,800.61 547.26,802.52 C532.40,804.10 500.22,804.28 485.58,802.87 ZM 496.85 628.58 C501.63,626.10 503.55,618.66 500.53,614.34 C499.40,612.73 497.72,612.15 493.26,611.83 C480.17,610.88 465.85,600.54 459.31,587.32 C456.08,580.78 455.55,578.69 455.18,570.98 C454.85,563.89 455.20,560.70 456.96,554.82 C461.07,541.15 480.43,507.27 490.54,496.08 L 494.26 491.97 L 493.81 470.15 L 493.37 448.33 L 496.18 446.71 C497.72,445.83 499.74,443.52 500.66,441.59 C502.93,436.82 501.21,430.59 496.94,428.17 L 494.01 426.50 L 494.01 400.47 L 494.00 374.43 L 496.87 372.74 C502.65,369.32 503.45,360.65 498.42,355.92 C496.21,353.85 494.60,353.45 486.68,353.01 L 477.50 352.50 L 477.83 349.66 C478.02,348.10 477.62,345.51 476.96,343.91 L 475.76 341.00 L 462.41 341.00 C447.33,341.00 447.00,341.17 447.00,348.93 L 447.00 353.00 L 383.47 353.00 C312.96,353.00 314.46,352.87 311.38,359.34 C309.23,363.84 310.17,367.48 314.54,371.60 L 317.95 374.82 L 318.13 400.47 L 318.31 426.12 L 314.73 429.07 C312.76,430.69 310.87,433.32 310.52,434.91 C309.61,439.05 312.21,444.54 316.01,446.51 L 319.19 448.15 L 318.93 490.82 L 318.68 533.50 L 314.61 537.11 C311.07,540.26 310.55,541.27 310.55,544.96 C310.55,548.62 311.09,549.69 314.52,552.84 L 318.50 556.48 L 318.85 582.74 C319.08,600.16 318.85,609.00 318.17,609.00 C317.61,609.00 315.78,610.15 314.11,611.56 C310.29,614.77 309.23,619.60 311.41,623.82 C314.82,630.42 308.45,630.00 405.77,630.00 C480.26,630.00 494.53,629.78 496.85,628.58 ZM 693.90 628.61 C694.69,627.67 694.97,622.47 694.78,612.36 L 694.50 597.50 L 687.50 597.00 L 680.50 596.50 L 680.24 533.75 L 679.98 471.00 L 683.53 471.00 C687.35,471.00 691.33,473.09 692.67,475.81 C693.12,476.74 693.72,500.00 694.00,527.50 C694.56,583.33 694.16,580.30 701.87,587.27 C706.82,591.74 712.27,593.49 718.40,592.57 C724.12,591.71 730.56,586.96 733.41,581.50 C735.47,577.56 735.50,576.33 735.77,503.70 L 736.04 429.91 L 733.70 423.19 C729.53,411.19 725.54,406.27 709.55,393.46 C697.10,383.47 694.62,381.88 692.43,382.43 C687.61,383.64 689.77,386.91 701.70,396.50 C707.86,401.45 713.20,405.82 713.58,406.22 C713.96,406.61 712.80,408.61 711.00,410.65 C705.51,416.91 704.05,421.34 704.02,431.85 C703.99,447.40 707.83,452.00 720.87,452.00 L 728.00 452.00 L 728.05 492.25 C728.07,514.39 728.34,541.57 728.63,552.66 C729.14,571.30 729.03,573.15 727.18,577.32 C723.07,586.62 711.89,588.20 705.08,580.44 L 702.00 576.93 L 701.99 529.22 C701.99,500.34 701.59,480.07 700.98,477.88 C698.72,469.73 693.07,464.59 684.85,463.19 L 680.50 462.45 L 680.00 417.97 C679.51,374.61 679.45,373.40 677.31,369.41 C674.50,364.15 669.06,359.39 664.27,357.99 C661.69,357.24 644.73,356.99 610.43,357.20 L 560.35 357.50 L 556.17 360.27 C550.56,363.98 546.38,369.99 545.03,376.29 C544.25,379.94 543.97,413.10 544.08,488.32 C544.17,547.65 543.85,595.55 543.37,596.03 C542.89,596.50 539.58,597.03 536.00,597.20 L 529.50 597.50 L 529.22 611.76 C529.05,620.47 529.36,626.80 530.01,628.01 C531.05,629.97 532.29,630.00 611.91,630.00 C679.58,630.00 692.94,629.77 693.90,628.61 ZM 513.44 600.50 C527.96,593.60 536.16,577.92 533.17,562.77 C531.48,554.23 521.14,533.58 510.20,516.91 C501.56,503.75 499.45,501.51 496.70,502.56 C494.42,503.44 478.24,528.88 471.99,541.43 C468.68,548.07 465.26,556.38 464.39,559.90 C457.36,588.36 487.12,612.99 513.44,600.50 ZM 619.26 349.04 C636.05,346.29 648.32,334.84 650.51,319.87 C651.35,314.15 649.73,303.12 646.47,292.36 C643.41,282.27 641.83,281.31 636.38,286.20 L 634.26 288.10 L 633.05 283.30 C631.18,275.84 625.58,266.12 618.92,258.74 C614.07,253.37 612.25,252.00 609.94,252.00 C606.66,252.00 606.41,252.64 605.66,262.69 C605.38,266.41 604.14,271.20 602.55,274.69 C599.76,280.79 595.92,286.98 594.90,286.99 C594.57,287.00 593.48,285.18 592.48,282.95 C590.86,279.36 590.31,278.93 587.60,279.20 C584.74,279.48 584.30,280.13 580.30,290.00 C575.04,302.98 573.63,309.54 574.24,318.12 C575.10,330.13 581.95,339.70 593.61,345.18 C603.08,349.64 609.63,350.62 619.26,349.04 ZM 574.17 458.69 C572.04,456.41 572.00,455.84 572.00,424.69 C572.00,394.33 572.08,392.92 574.00,391.00 C575.93,389.07 577.33,389.00 612.50,389.00 C647.67,389.00 649.07,389.07 651.00,391.00 C652.91,392.91 653.00,394.33 653.00,424.37 C653.00,454.58 652.92,455.83 650.93,458.37 L 648.85 461.00 L 612.60 461.00 L 576.35 461.00 L 574.17 458.69 ZM 627.37 439.14 C631.71,434.35 626.40,432.70 608.11,433.19 C598.71,433.45 596.53,433.80 595.65,435.19 C594.83,436.49 595.02,437.37 596.45,438.94 C598.15,440.83 599.45,441.00 612.00,441.00 C624.06,441.00 625.89,440.78 627.37,439.14 ZM 638.07 417.96 C640.25,416.80 640.60,414.00 638.80,412.20 C638.01,411.41 633.87,411.00 626.80,411.00 L 616.00 411.00 L 616.00 405.93 C616.00,400.08 614.68,397.00 612.16,397.00 C609.12,397.00 608.00,399.20 608.00,405.17 L 608.00 410.93 L 596.75 411.22 C585.67,411.50 585.49,411.54 585.16,413.94 C584.49,418.64 586.43,419.00 612.26,419.00 C626.80,419.00 636.89,418.60 638.07,417.96 ZM 712.98 442.25 C711.07,439.82 710.86,438.50 711.16,431.00 C711.47,423.18 711.77,422.12 714.92,417.75 C716.80,415.14 718.96,413.00 719.72,413.00 C721.72,413.00 727.95,426.76 728.65,432.73 C728.99,435.53 728.95,439.43 728.58,441.41 L 727.91 445.00 L 721.53 445.00 C715.76,445.00 714.94,444.74 712.98,442.25 Z" fill="rgba(252,252,251,1)"/>
</g>
</svg>