<?xml version="1.0" encoding="utf-8"?>
<!-- Generator: Adobe Illustrator 23.0.5, SVG Export Plug-In . SVG Version: 6.00 Build 0)  -->
<svg version="1.1" id="Layer_1" xmlns="http://www.w3.org/2000/svg" xmlns:xlink="http://www.w3.org/1999/xlink" x="0px" y="0px"
	 viewBox="0 0 1080 1080" style="enable-background:new 0 0 1080 1080;" xml:space="preserve">
<style type="text/css">
	.st0{fill:#9DB270;}
	.st1{fill:#B7C799;}
	.st2{fill:#AFAFAF;}
	.st3{fill:#A7BF86;}
	.st4{fill:#A0A978;}
	.st5{fill:#BFCDAC;}
	.st6{fill:#9BB06B;}
	.st7{fill:#9EB16E;}
	.st8{fill:#CBCCCC;}
	.st9{fill:#575758;}
	.st10{fill:#9DBB6E;}
	.st11{fill:#656466;}
</style>
<g>
	<g id="XMLID_1_">
		<g>
			<path d="M923.91,513.12v28.35H715.65v18.21l-32.12-32.13l32.12-32.12v17.69H923.91z M920.91,538.47v-22.35H712.65v-13.45
				l-24.88,24.88l24.88,24.88v-13.96H920.91z"/>
			<polygon class="st0" points="920.91,516.12 920.91,538.47 712.65,538.47 712.65,552.43 687.77,527.55 712.65,502.67 
				712.65,516.12 			"/>
			<path d="M777.47,568.07c3.16,5.05,1.64,11.74-3.38,14.92c-1.73,1.1-3.7,1.66-5.71,1.66c-0.79,0-1.6-0.09-2.39-0.27
				c-2.81-0.64-5.2-2.34-6.73-4.79c-2.18-3.49-2.18-8.01,0-11.51v-0.01l8.26-13.21c0.36-0.58,1.33-0.58,1.69,0L777.47,568.07z
				 M773.02,581.3c4.1-2.59,5.33-8.05,2.76-12.17l-7.42-11.85l-7.41,11.85c-1.78,2.86-1.78,6.55,0,9.4c1.25,1.99,3.2,3.38,5.48,3.9
				C768.71,582.95,771.05,582.55,773.02,581.3z"/>
			<path class="st1" d="M775.78,569.13c2.57,4.12,1.34,9.58-2.76,12.17c-1.97,1.25-4.31,1.65-6.59,1.13
				c-2.28-0.52-4.23-1.91-5.48-3.9c-1.78-2.85-1.78-6.54,0-9.4l7.41-11.85L775.78,569.13z M770.32,577.85
				c0.02-0.55-0.4-1.02-0.95-1.05c-4.42-0.21-4.46-3.86-4.45-4.28c0.02-0.55-0.41-1.01-0.96-1.03c-0.52-0.03-1.02,0.41-1.04,0.96
				c-0.07,2.09,1.16,6.1,6.35,6.35c0.02,0,0.03,0,0.05,0C769.85,578.8,770.29,578.38,770.32,577.85z"/>
			<path d="M769.37,576.8c0.55,0.03,0.97,0.5,0.95,1.05c-0.03,0.53-0.47,0.95-1,0.95c-0.02,0-0.03,0-0.05,0
				c-5.19-0.25-6.42-4.26-6.35-6.35c0.02-0.55,0.52-0.99,1.04-0.96c0.55,0.02,0.98,0.48,0.96,1.03
				C764.91,572.94,764.95,576.59,769.37,576.8z"/>
			<path d="M769.33,381.47v8.6h-4.98v9.98c0,21.52-26.97,22.61-32.38,22.61h-75.03c10.41,97.04,28.55,266.21,28.86,269.52l0.05,0.47
				c0.48,4.74,1.36,13.55-15.87,20.62c-20.17,8.28-53.57,17.01-87.51,17.01c-0.63,0-1.26,0-1.89-0.01
				c-24.51-0.24-83.95-2.07-106.3-13.98c-19.87-10.58-23.12-14.68-21.76-27.39c0.99-9.27,20.47-191.85,30.16-282.55
				c3.22-30.24,5.36-50.27,5.36-50.27c0.16-15.61,35.62-27.83,80.88-27.83c22.63,0,42.81,3.06,57.35,8.06
				c14.54,5.01,23.45,11.96,23.53,19.77c0.08,0.75,1.93,17.99,4.76,44.3h81.64c5.79,0,6.59-2.12,6.59-4.41v-5.9h-4.92v-8.6H769.33z
				 M767.33,388.07v-4.6h-27.46v4.6H767.33z M762.35,400.05v-9.98h-17.56v5.9c0,6.41-6.46,6.41-8.59,6.41h-81.43
				c0.61,5.72,1.27,11.83,1.96,18.28h75.24C737.04,420.66,762.35,419.67,762.35,400.05z M669.22,711.43
				c15.85-6.51,15.09-14.07,14.64-18.58l-0.05-0.47c-0.41-4.3-30.89-288.5-35.43-330.85c-7.03,13.03-39.4,22.6-79.46,22.6
				c-40.05,0-72.43-9.57-79.45-22.6c-4.43,41.48-33.75,316.16-34.97,327.59c-1.24,11.69,1.66,15.25,20.72,25.41
				c21.97,11.7,81.01,13.51,105.38,13.74C614.89,728.59,648.86,719.78,669.22,711.43z M647.81,356.19
				c0-14.06-36.13-25.94-78.89-25.94s-78.89,11.88-78.89,25.94s36.13,25.94,78.89,25.94S647.81,370.25,647.81,356.19z"/>
			<path d="M759.73,349.71c3.88,4.01,9.19,9.51,7.87,16.86c-1.48,8.29-6.31,10.25-9.51,11.55c-0.4,0.16-0.85,0.05-1.13-0.27
				c-0.28-0.32-0.33-0.79-0.12-1.16c0.19-0.33,4.43-8.13-3.27-16.7c-1.93,2.05-6.92,8.53-2.87,17.32c0.17,0.37,0.1,0.81-0.18,1.1
				c-0.19,0.21-0.46,0.32-0.73,0.32c-0.12,0-0.24-0.02-0.36-0.07c-0.37-0.14-9.28-3.64-10.98-13.63
				c-1.66-9.78,2.55-17.27,2.73-17.59c0.19-0.32,0.54-0.51,0.91-0.5c0.37,0.02,0.7,0.24,0.86,0.57c0.31,0.64,1.07,2.07,1.89,3.18
				c1.03-3.9,3.99-12.8,9.84-14.85c0.33-0.12,0.69-0.05,0.96,0.17c0.27,0.22,0.41,0.56,0.36,0.91c-0.01,0.07-1.02,7.77,2.56,11.56
				C758.93,348.88,759.32,349.29,759.73,349.71z M765.64,366.21c1.13-6.34-3.57-11.2-7.35-15.11c-0.41-0.43-0.81-0.84-1.19-1.24
				c-3.09-3.28-3.34-8.61-3.23-11.4c-5.25,3.48-7.49,14.33-7.51,14.45c-0.07,0.33-0.3,0.61-0.61,0.73
				c-0.32,0.13-0.68,0.08-0.96-0.12c-1.01-0.73-1.99-2.17-2.68-3.35c-1.09,2.66-2.77,8.11-1.68,14.52c1,5.91,4.94,9.3,7.48,10.92
				c-3.17-10.52,4.95-17.73,5.03-17.81c0.4-0.34,1.01-0.32,1.38,0.06c6.83,7.02,6.18,13.93,5.18,17.44
				C762.01,374.01,764.64,371.76,765.64,366.21z"/>
			<rect x="739.87" y="383.47" class="st2" width="27.46" height="4.6"/>
			<path class="st3" d="M758.29,351.1c3.78,3.91,8.48,8.77,7.35,15.11c-1,5.55-3.63,7.8-6.14,9.09c1-3.51,1.65-10.42-5.18-17.44
				c-0.37-0.38-0.98-0.4-1.38-0.06c-0.08,0.08-8.2,7.29-5.03,17.81c-2.54-1.62-6.48-5.01-7.48-10.92
				c-1.09-6.41,0.59-11.86,1.68-14.52c0.69,1.18,1.67,2.62,2.68,3.35c0.28,0.2,0.64,0.25,0.96,0.12c0.31-0.12,0.54-0.4,0.61-0.73
				c0.02-0.12,2.26-10.97,7.51-14.45c-0.11,2.79,0.14,8.12,3.23,11.4C757.48,350.26,757.88,350.67,758.29,351.1z"/>
			<path class="st4" d="M762.35,390.07v9.98c0,19.62-25.31,20.61-30.38,20.61h-75.24c-0.69-6.45-1.35-12.56-1.96-18.28h81.43
				c2.13,0,8.59,0,8.59-6.41v-5.9H762.35z"/>
			<path d="M752.29,582.86c2.76,4.38,1.43,10.2-2.96,12.96c-1.51,0.95-3.23,1.44-4.98,1.44c-0.7,0-1.41-0.08-2.11-0.24
				c-2.44-0.55-4.53-2.03-5.87-4.16c-0.95-1.51-1.42-3.25-1.42-5c0-1.74,0.47-3.48,1.42-5l7.11-11.31c0.37-0.58,1.33-0.58,1.7,0
				L752.29,582.86z M748.27,594.12c3.45-2.17,4.49-6.75,2.32-10.2l-6.26-9.96l-6.26,9.96c-1.5,2.4-1.51,5.49,0,7.88
				c1.05,1.67,2.69,2.83,4.62,3.27C744.61,595.51,746.6,595.18,748.27,594.12z"/>
			<path class="st5" d="M750.59,583.92c2.17,3.45,1.13,8.03-2.32,10.2c-1.67,1.06-3.66,1.39-5.58,0.95
				c-1.93-0.44-3.57-1.6-4.62-3.27c-1.51-2.39-1.5-5.48,0-7.88l6.26-9.96L750.59,583.92z"/>
			<path d="M727.77,567.99v21.96h-36.96v-21.96H727.77z M724.77,586.95v-15.96h-30.96v15.96H724.77z"/>
			<rect x="693.81" y="570.99" class="st6" width="30.96" height="15.96"/>
			<path d="M723.81,625.11v16.68h-30.9v-16.68H723.81z M720.81,638.79v-10.68h-24.9v10.68H720.81z"/>
			<rect x="695.91" y="628.11" class="st7" width="24.9" height="10.68"/>
			<path class="st2" d="M683.86,692.85c0.45,4.51,1.21,12.07-14.64,18.58c-20.36,8.35-54.33,17.16-88.62,16.84
				c-24.37-0.23-83.41-2.04-105.38-13.74c-19.06-10.16-21.96-13.72-20.72-25.41c1.22-11.43,30.54-286.11,34.97-327.59
				c7.02,13.03,39.4,22.6,79.45,22.6c40.06,0,72.43-9.57,79.46-22.6c4.54,42.35,35.02,326.55,35.43,330.85L683.86,692.85z
				 M639.98,479.28c0.55-0.06,0.95-0.55,0.88-1.1l-6.84-61.68c-0.06-0.55-0.54-0.94-1.1-0.88c-0.55,0.06-0.94,0.55-0.88,1.1
				l6.84,61.68c0.05,0.51,0.49,0.89,0.99,0.89C639.91,479.29,639.94,479.29,639.98,479.28z M501.85,493.29
				c0.05-0.55-0.36-1.03-0.91-1.09c-0.55-0.05-1.04,0.36-1.09,0.91l-9.54,102.81c-0.05,0.55,0.36,1.03,0.91,1.09
				c0.03,0,0.06,0,0.09,0c0.51,0,0.95-0.39,1-0.91L501.85,493.29z"/>
			<path d="M640.86,478.18c0.07,0.55-0.33,1.04-0.88,1.1c-0.04,0.01-0.07,0.01-0.11,0.01c-0.5,0-0.94-0.38-0.99-0.89l-6.84-61.68
				c-0.06-0.55,0.33-1.04,0.88-1.1c0.56-0.06,1.04,0.33,1.1,0.88L640.86,478.18z"/>
			<path class="st8" d="M568.92,330.25c42.76,0,78.89,11.88,78.89,25.94s-36.13,25.94-78.89,25.94s-78.89-11.88-78.89-25.94
				S526.16,330.25,568.92,330.25z M636.67,354.39c0-11.48-34.28-18.34-67.42-18.34s-67.42,6.86-67.42,18.34
				c0,11.48,34.28,18.34,67.42,18.34S636.67,365.87,636.67,354.39z"/>
			<ellipse class="st9" cx="569.25" cy="354.39" rx="65.42" ry="16.34"/>
			<path d="M569.25,336.05c33.14,0,67.42,6.86,67.42,18.34c0,11.48-34.28,18.34-67.42,18.34s-67.42-6.86-67.42-18.34
				C501.83,342.91,536.11,336.05,569.25,336.05z M634.67,354.39c0-7.89-26.29-16.34-65.42-16.34s-65.42,8.45-65.42,16.34
				c0,7.89,26.29,16.34,65.42,16.34S634.67,362.28,634.67,354.39z"/>
			<path d="M500.94,492.2c0.55,0.06,0.96,0.54,0.91,1.09l-9.54,102.81c-0.05,0.52-0.49,0.91-1,0.91c-0.03,0-0.06,0-0.09,0
				c-0.55-0.06-0.96-0.54-0.91-1.09l9.54-102.81C499.9,492.56,500.39,492.15,500.94,492.2z"/>
			<path d="M432.43,369.76l44.68,44.69l-44.68,44.68v-22.96H156.09v-43.44h276.34V369.76z M435.43,451.89l37.44-37.44l-37.44-37.44
				v18.72H159.09v37.44h276.34V451.89z"/>
			<polygon class="st10" points="472.87,414.45 435.43,451.89 435.43,433.17 159.09,433.17 159.09,395.73 435.43,395.73 
				435.43,377.01 			"/>
			<path d="M464.87,519.93l-43.1,43.1v-22.16H156.09v-41.88h265.68v-22.16L464.87,519.93z M424.77,555.79l35.86-35.86l-35.86-35.86
				v17.92H159.09v35.88h265.68V555.79z"/>
			<polygon class="st10" points="460.63,519.93 424.77,555.79 424.77,537.87 159.09,537.87 159.09,501.99 424.77,501.99 
				424.77,484.07 			"/>
			<path d="M442.17,734.74c0.38,5.09-0.77,9.11-3.41,11.95c-4.15,4.48-10.94,5.05-16.39,5.05h-77.58c-7.93,0-13.63-1.95-16.94-5.81
				c-2.66-3.09-3.66-7.34-2.9-12.27c1.47-9.59,9.34-16.58,21.67-19.32c-0.29-3.25-0.4-11.25,4.45-17.03
				c3.25-3.89,8.08-5.98,14.35-6.23c1.37-3.44,6.63-14.16,18.94-14.16c0.14,0,0.28,0,0.42,0c12.54,0.24,16.24,10.87,17.14,14.5
				c2.88,0.32,10.34,1.68,15.16,7.38c3.31,3.92,4.69,9.06,4.1,15.29C425.77,715.56,441.17,721.45,442.17,734.74z M436.57,744.65
				c2.04-2.2,2.92-5.46,2.6-9.69c-0.98-13.18-19.81-18.29-20-18.34l-1.28-0.34l0.17-1.31c0.79-5.94-0.31-10.73-3.28-14.24
				c-5.1-6.03-14.06-6.41-14.15-6.41l-1.26-0.04l-0.18-1.25c-0.07-0.52-2-12.87-14.47-13.11c-0.12,0-0.24,0-0.36,0
				c-12.33,0-16.28,12.53-16.44,13.06l-0.32,1.06l-1.11,0.01c-5.86,0.05-10.27,1.79-13.11,5.17c-5.2,6.18-3.65,15.96-3.63,16.06
				l0.24,1.45l-1.44,0.27c-11.79,2.26-19.31,8.5-20.64,17.12c-0.43,2.81-0.4,6.81,2.22,9.86c2.71,3.16,7.64,4.76,14.66,4.76h77.58
				C427.21,748.74,433.2,748.28,436.57,744.65z"/>
			<path class="st11" d="M439.17,734.96c0.32,4.23-0.56,7.49-2.6,9.69c-3.37,3.63-9.36,4.09-14.2,4.09h-77.58
				c-7.02,0-11.95-1.6-14.66-4.76c-2.62-3.05-2.65-7.05-2.22-9.86c1.33-8.62,8.85-14.86,20.64-17.12l1.44-0.27l-0.24-1.45
				c-0.02-0.1-1.57-9.88,3.63-16.06c2.84-3.38,7.25-5.12,13.11-5.17l1.11-0.01l0.32-1.06c0.16-0.53,4.11-13.06,16.44-13.06
				c0.12,0,0.24,0,0.36,0c12.47,0.24,14.4,12.59,14.47,13.11l0.18,1.25l1.26,0.04c0.09,0,9.05,0.38,14.15,6.41
				c2.97,3.51,4.07,8.3,3.28,14.24l-0.17,1.31l1.28,0.34C419.36,716.67,438.19,721.78,439.17,734.96z M411.07,728.3
				c0.82-0.09,1.42-0.83,1.33-1.65c-0.68-6.41-6.86-10.76-10.98-11.06c-0.84-0.06-1.55,0.57-1.61,1.39
				c-0.06,0.83,0.57,1.55,1.39,1.61c2.6,0.18,7.7,3.51,8.22,8.38c0.08,0.77,0.73,1.34,1.49,1.34
				C410.96,728.31,411.01,728.31,411.07,728.3z M388,737.3c0.82-0.07,1.43-0.79,1.36-1.62c-0.58-6.81-4.87-8.77-8.56-9.72
				c-0.8-0.22-1.62,0.27-1.82,1.08c-0.21,0.8,0.27,1.62,1.07,1.82c3.51,0.91,5.93,2.46,6.33,7.08c0.06,0.78,0.72,1.37,1.49,1.37
				C387.91,737.31,387.95,737.31,388,737.3z M381.93,701.71c0.05-0.82-0.57-1.54-1.4-1.6c-4.21-0.31-10.63,3.19-11.19,9.28
				c-0.08,0.83,0.53,1.56,1.35,1.63c0.05,0.01,0.09,0.01,0.14,0.01c0.77,0,1.42-0.58,1.49-1.36c0.41-4.39,5.41-6.74,8.01-6.56
				C381.16,703.17,381.87,702.54,381.93,701.71z M361.25,724.95c0.83-0.05,1.46-0.76,1.42-1.58c-0.05-0.83-0.74-1.44-1.58-1.42
				c-7.4,0.42-10.19,9.69-10.3,10.08c-0.23,0.79,0.22,1.63,1.02,1.86c0.14,0.04,0.28,0.06,0.42,0.06c0.65,0,1.25-0.42,1.44-1.08
				C353.69,732.8,355.98,725.24,361.25,724.95z"/>
			<path d="M412.4,726.65c0.09,0.82-0.51,1.56-1.33,1.65c-0.06,0.01-0.11,0.01-0.16,0.01c-0.76,0-1.41-0.57-1.49-1.34
				c-0.52-4.87-5.62-8.2-8.22-8.38c-0.82-0.06-1.45-0.78-1.39-1.61c0.06-0.82,0.77-1.45,1.61-1.39
				C405.54,715.89,411.72,720.24,412.4,726.65z"/>
			<path d="M389.36,735.68c0.07,0.83-0.54,1.55-1.36,1.62c-0.05,0.01-0.09,0.01-0.13,0.01c-0.77,0-1.43-0.59-1.49-1.37
				c-0.4-4.62-2.82-6.17-6.33-7.08c-0.8-0.2-1.28-1.02-1.07-1.82c0.2-0.81,1.02-1.3,1.82-1.08
				C384.49,726.91,388.78,728.87,389.36,735.68z"/>
			<path d="M380.53,700.11c0.83,0.06,1.45,0.78,1.4,1.6c-0.06,0.83-0.77,1.46-1.6,1.4c-2.6-0.18-7.6,2.17-8.01,6.56
				c-0.07,0.78-0.72,1.36-1.49,1.36c-0.05,0-0.09,0-0.14-0.01c-0.82-0.07-1.43-0.8-1.35-1.63
				C369.9,703.3,376.32,699.8,380.53,700.11z"/>
			<path d="M362.67,723.37c0.04,0.82-0.59,1.53-1.42,1.58c-5.27,0.29-7.56,7.85-7.58,7.92c-0.19,0.66-0.79,1.08-1.44,1.08
				c-0.14,0-0.28-0.02-0.42-0.06c-0.8-0.23-1.25-1.07-1.02-1.86c0.11-0.39,2.9-9.66,10.3-10.08
				C361.93,721.93,362.62,722.54,362.67,723.37z"/>
		</g>
	</g>
</g>
</svg>
