<?xml version="1.0" encoding="utf-8"?>
<!-- Generator: Adobe Illustrator 23.0.5, SVG Export Plug-In . SVG Version: 6.00 Build 0)  -->
<svg version="1.1" id="Layer_1" xmlns="http://www.w3.org/2000/svg" xmlns:xlink="http://www.w3.org/1999/xlink" x="0px" y="0px"
	 viewBox="0 0 1080 1080" style="enable-background:new 0 0 1080 1080;" xml:space="preserve">
<style type="text/css">
	.st0{fill:#A3CB4A;}
	.st1{fill:#A1C84A;}
	.st2{fill:#E3E4E3;}
	.st3{fill:#FFFCFF;}
	.st4{fill:#9CE3EE;}
	.st5{fill:#5AC28C;}
	.st6{fill:#B1B2B1;}
</style>
<g>
	<g>
		<path class="st0" d="M706.68,680.22c0,0,29.76-40.08,66.24-58.8c0,0-40.32,42.72-58.8,71.28c0,0,23.34,5.88,52.32-8.88
			c28.98-14.76,42.12-57.24,43.92-102.24c0,0-53.52,3.84-77.76,24C708.36,625.74,699.24,645.9,706.68,680.22z"/>
		<g>
			<path class="st1" d="M580.05,649.54c-0.41-1.04-0.81-2.09-1.2-3.16H427.32v-46.26l-97.2,75.06l97.2,75.06v-46.26h208.51
				c-5.24-1.67-10.77-3.89-16.48-6.79C602.32,688.51,589.09,672.48,580.05,649.54z"/>
			<path class="st1" d="M657,648.56c17.44,16.2,28.92,31.66,28.92,31.66c7.44-34.32-1.68-54.48-25.92-74.64
				c-24.24-20.16-77.76-24-77.76-24c0.94,23.48,4.97,46.28,12.73,64.8c7.1,16.98,17.33,30.38,31.19,37.44
				c11.55,5.88,22.2,8.49,30.84,9.49c13.04,1.52,21.48-0.61,21.48-0.61c-5.69-8.8-13.46-18.94-21.48-28.76
				c-4.99-6.11-10.07-12.1-14.82-17.56c-12.41-14.27-22.5-24.96-22.5-24.96c12.81,6.57,24.79,15.78,34.94,24.96
				C655.43,647.11,656.22,647.83,657,648.56z"/>
		</g>
		<path class="st2" d="M598.64,565.98H201.96V483.9h383c-4.03,18.04-4.44,34.6-1.2,49.59C586.24,544.94,591.34,555.95,598.64,565.98
			z"/>
		<g id="XMLID_1_">
			<g>
				<polygon class="st3" points="731.4,498.87 681.72,579.9 690.36,522.3 654.36,521.58 702.6,439.74 694.27,498.87 				"/>
				<path class="st4" d="M761.16,529.02c3.74,17.46-0.26,38.7-10.45,52.03c-20.31,11.96-44.85,17.77-64.91,16.01
					c-15.65-1.37-30.82-6.36-44.03-13.94c-5.75-6.46-16.14-21.75-12.61-45.22c4.8-31.92,22.08-47.28,42.72-78
					c20.64-30.72,21.12-48.78,21.12-48.78s30.96,28.26,33.84,75.78l10.44-11.25C737.28,475.65,756.84,508.86,761.16,529.02z
					 M681.72,579.9l49.68-81.03h-37.13l8.33-59.13l-48.24,81.84l36,0.72L681.72,579.9z"/>
				<path class="st5" d="M765,424.14c0,0,29.52,53.4,25.56,100.92c-2.02,24.29-18.62,43.5-39.85,55.99
					c10.19-13.33,14.19-34.57,10.45-52.03c-4.32-20.16-23.88-53.37-23.88-53.37l-10.44,11.25c-2.88-47.52-33.84-75.78-33.84-75.78
					s-0.48,18.06-21.12,48.78c-20.64,30.72-37.92,46.08-42.72,78c-3.53,23.47,6.86,38.76,12.61,45.22
					c-21.44-12.29-37.69-31.41-42.37-53.02c-7.56-34.92,10.2-76.92,30.12-110.28l10.8,18.72c0,0,13.98-12.84,26.04-39.12
					s12.96-54.24,12.72-73.2c0,0,65.04,50.52,68.28,118.92L765,424.14z"/>
			</g>
		</g>
		<path class="st6" d="M531.87,490.14c1.57,0,2.85-1.28,2.85-2.85v-17.46c0-1.57-1.28-2.85-2.85-2.85h-7.35v-14.37
			c0-1.57-1.28-2.85-2.85-2.85h-19.98c-1.57,0-2.85,1.28-2.85,2.85v14.37h-7.35c-1.57,0-2.85,1.28-2.85,2.85v17.46
			c0,1.57,1.28,2.85,2.85,2.85h7.35v69.96h-7.35c-1.57,0-2.85,1.28-2.85,2.85v17.46c0,1.57,1.28,2.85,2.85,2.85h7.35v14.37
			c0,1.57,1.28,2.85,2.85,2.85h19.98c1.57,0,2.85-1.28,2.85-2.85v-14.37h7.35c1.57,0,2.85-1.28,2.85-2.85v-17.46
			c0-1.57-1.28-2.85-2.85-2.85h-7.35v-69.96H531.87z"/>
		<path class="st6" d="M339.39,490.14c1.57,0,2.85-1.28,2.85-2.85v-17.46c0-1.57-1.28-2.85-2.85-2.85h-7.35v-14.37
			c0-1.57-1.28-2.85-2.85-2.85h-19.98c-1.57,0-2.85,1.28-2.85,2.85v14.37h-7.35c-1.57,0-2.85,1.28-2.85,2.85v17.46
			c0,1.57,1.28,2.85,2.85,2.85h7.35v69.96h-7.35c-1.57,0-2.85,1.28-2.85,2.85v17.46c0,1.57,1.28,2.85,2.85,2.85h7.35v14.37
			c0,1.57,1.28,2.85,2.85,2.85h19.98c1.57,0,2.85-1.28,2.85-2.85v-14.37h7.35c1.57,0,2.85-1.28,2.85-2.85v-17.46
			c0-1.57-1.28-2.85-2.85-2.85h-7.35v-69.96H339.39z"/>
	</g>
	<g>
		<path d="M540,905.4c-49.45,0-97.43-9.66-142.61-28.71c-43.63-18.4-82.82-44.74-116.46-78.29
			c-33.65-33.55-60.07-72.63-78.53-116.14c-19.12-45.07-28.81-92.93-28.81-142.25s9.69-97.19,28.81-142.25
			c18.46-43.52,44.88-82.59,78.53-116.14c33.65-33.55,72.83-59.89,116.46-78.29c45.18-19.05,93.16-28.71,142.61-28.71
			c49.45,0,97.43,9.66,142.61,28.71c43.63,18.4,82.82,44.74,116.46,78.29c33.65,33.55,60.07,72.63,78.53,116.14
			c19.12,45.07,28.81,92.93,28.81,142.25s-9.69,97.19-28.81,142.25c-18.46,43.52-44.88,82.59-78.53,116.14
			c-33.65,33.55-72.83,59.89-116.46,78.29C637.43,895.74,589.45,905.4,540,905.4z M540,213.6c-180.54,0-327.42,146.42-327.42,326.4
			S359.46,866.4,540,866.4S867.42,719.98,867.42,540S720.54,213.6,540,213.6z"/>
	</g>
</g>
</svg>
