<?xml version="1.0" encoding="utf-8"?>
<!-- Generator: Adobe Illustrator 23.0.5, SVG Export Plug-In . SVG Version: 6.00 Build 0)  -->
<svg version="1.1" id="Layer_1" xmlns="http://www.w3.org/2000/svg" xmlns:xlink="http://www.w3.org/1999/xlink" x="0px" y="0px"
	 viewBox="0 0 1080 1080" style="enable-background:new 0 0 1080 1080;" xml:space="preserve">
<style type="text/css">
	.st0{fill:#4ECBBC;}
	.st1{fill:#A5D060;}
</style>
<g>
	<g>
		<g id="XMLID_2_">
			<g>
				<path class="st0" d="M721.19,595.11c-3.56,0.74-16.45,2.95-28.87-0.65c0.44-1.72-0.19-3.58-1.65-4.68
					c-9.99-7.53-14.9-15.99-15.93-27.44c-0.72-8.07,4.45-24.14,8.24-34.28l3.54,3.54c1.25,1.25,3.11,1.65,4.76,1.03
					c1.66-0.62,2.79-2.15,2.91-3.91c0.81-12.31,7.82-23.47,13.04-30.19c3.83,12.6,12.32,28.76,13.54,31.04
					c0.66,1.25,1.87,2.11,3.26,2.33c1.39,0.23,2.81-0.22,3.82-1.19l2.44-2.34c3.68,7.69,9.87,22.83,9.87,37.49
					c0,17.1-15.68,23.03-16.33,23.27c-2.16,0.77-3.39,3.04-2.87,5.27C721.02,594.65,721.1,594.88,721.19,595.11z"/>
				<path class="st1" d="M711.1,655.91l19.74,1.14l-29.97,40.23l5.7-24.94c0.3-1.33-0.02-2.74-0.87-3.81
					c-0.86-1.07-2.15-1.69-3.52-1.69h-20.49l8.73-46.43l29.01,0.33l-12.22,28.93c-0.57,1.35-0.44,2.89,0.33,4.13
					C708.31,655.04,709.64,655.83,711.1,655.91z"/>
				<path d="M706.57,672.34l-5.7,24.94l29.97-40.23l-19.74-1.14c-1.46-0.08-2.79-0.87-3.56-2.11c-0.77-1.24-0.9-2.78-0.33-4.13
					l12.22-28.93l-29.01-0.33l-8.73,46.43h20.49c1.37,0,2.66,0.62,3.52,1.69C706.55,669.6,706.87,671.01,706.57,672.34z
					 M743.52,651.14c0.7,1.5,0.52,3.26-0.47,4.59l-47.7,64.04c-0.87,1.17-2.23,1.81-3.61,1.81c-0.64,0-1.28-0.13-1.89-0.41
					c-1.93-0.9-2.97-3.02-2.5-5.09l9.19-40.24h-20.28c-1.34,0-2.61-0.6-3.46-1.63c-0.86-1.03-1.21-2.39-0.96-3.7l10.44-55.47
					c0.4-2.13,2.26-3.67,4.42-3.67c0.02,0,0.03,0,0.05,0l39.48,0.45c1.5,0.02,2.89,0.78,3.71,2.03c0.82,1.26,0.97,2.84,0.38,4.22
					l-12.33,29.23l21.71,1.25C741.35,648.64,742.82,649.64,743.52,651.14z"/>
				<path d="M692.32,594.46c-0.07,0.28-0.16,0.55-0.29,0.82c-0.75,1.61-2.36,2.59-4.07,2.59c-0.34,0-0.69-0.04-1.04-0.12
					c-1.55-0.37-38.05-9.31-54.14-36.56c-13.36-22.64-12.93-48.86,1.28-77.94c10.41-21.34,16.23-39.98,17.04-46.41
					c0.22-1.8,1.5-3.29,3.25-3.77c1.75-0.49,3.62,0.12,4.74,1.54c0.38,0.48,7.58,9.6,12.99,17.13c4.4-6.74,11.69-18.77,15.54-29.69
					c4.19-11.92,7.02-27.03,8.39-44.94c0.13-1.66,1.17-3.12,2.7-3.78c1.53-0.66,3.31-0.42,4.61,0.62
					c0.77,0.62,18.94,15.3,29.54,32.06c8.99,14.21,16.87,35.87,19.67,52.89c3.77-4.42,7.8-9.61,9.37-13.18
					c0.7-1.58,2.24-2.62,3.97-2.68c1.72-0.05,3.34,0.88,4.14,2.42c0.87,1.66,21.27,41.13,21.27,78.88c0,38.66-34.47,69.76-65.4,73.5
					c-2.02,0.24-3.92-0.9-4.69-2.73c-0.09-0.23-0.17-0.46-0.23-0.71c-0.52-2.23,0.71-4.5,2.87-5.27
					c0.65-0.24,16.33-6.17,16.33-23.27c0-14.66-6.19-29.8-9.87-37.49l-2.44,2.34c-1.01,0.97-2.43,1.42-3.82,1.19
					c-1.39-0.22-2.6-1.08-3.26-2.33c-1.22-2.28-9.71-18.44-13.54-31.04c-5.22,6.72-12.23,17.88-13.04,30.19
					c-0.12,1.76-1.25,3.29-2.91,3.91c-1.65,0.62-3.51,0.22-4.76-1.03l-3.54-3.54c-3.79,10.14-8.96,26.21-8.24,34.28
					c1.03,11.45,5.94,19.91,15.93,27.44C692.13,590.88,692.76,592.74,692.32,594.46z M640.53,556.61
					c7.53,12.75,20.7,21.08,31.41,26.1c-3.5-5.78-5.51-12.23-6.16-19.57c-1.26-14.14,10.07-41.75,11.37-44.86
					c0.58-1.38,1.81-2.38,3.28-2.67c1.48-0.3,2.99,0.17,4.05,1.23l2.21,2.21c4.87-18.9,19.35-32.93,20.06-33.6
					c1.3-1.25,3.22-1.6,4.88-0.89c1.66,0.71,2.73,2.34,2.73,4.14c0,5.97,6.32,20.65,11.63,31.33l2.43-2.33
					c1-0.95,2.38-1.4,3.74-1.21c1.37,0.2,2.57,1.01,3.27,2.2c0.56,0.97,13.73,23.97,13.73,47.17c0,6.61-1.69,11.99-4.14,16.31
					c6.54-3.52,12.82-8.22,18.26-13.81c12.25-12.59,19-28.22,19-44.02c0-26.26-10.96-54.33-16.76-67.33
					c-5.18,7.2-12.16,14.44-13.2,15.51c-1.26,1.3-3.17,1.71-4.86,1.05c-1.68-0.66-2.81-2.26-2.86-4.06
					c-0.45-16.21-9.13-42.53-19.34-58.68c-6.03-9.54-15.03-18.6-21.09-24.19c-1.63,14.9-4.33,27.79-8.07,38.39
					c-6.14,17.45-19.75,36.51-20.33,37.31c-0.86,1.21-2.28,1.92-3.76,1.88c-1.49-0.04-2.87-0.81-3.67-2.06
					c-2.47-3.82-6.9-9.76-10.52-14.5c-2.9,10.06-8.37,24.57-15.68,39.53C629.35,513.39,628.81,536.75,640.53,556.61z"/>
				<path class="st1" d="M665.78,563.14c0.65,7.34,2.66,13.79,6.16,19.57c-10.71-5.02-23.88-13.35-31.41-26.1
					c-11.72-19.86-11.18-43.22,1.61-69.42c7.31-14.96,12.78-29.47,15.68-39.53c3.62,4.74,8.05,10.68,10.52,14.5
					c0.8,1.25,2.18,2.02,3.67,2.06c1.48,0.04,2.9-0.67,3.76-1.88c0.58-0.8,14.19-19.86,20.33-37.31c3.74-10.6,6.44-23.49,8.07-38.39
					c6.06,5.59,15.06,14.65,21.09,24.19c10.21,16.15,18.89,42.47,19.34,58.68c0.05,1.8,1.18,3.4,2.86,4.06
					c1.69,0.66,3.6,0.25,4.86-1.05c1.04-1.07,8.02-8.31,13.2-15.51c5.8,13,16.76,41.07,16.76,67.33c0,15.8-6.75,31.43-19,44.02
					c-5.44,5.59-11.72,10.29-18.26,13.81c2.45-4.32,4.14-9.7,4.14-16.31c0-23.2-13.17-46.2-13.73-47.17c-0.7-1.19-1.9-2-3.27-2.2
					c-1.36-0.19-2.74,0.26-3.74,1.21l-2.43,2.33c-5.31-10.68-11.63-25.36-11.63-31.33c0-1.8-1.07-3.43-2.73-4.14
					c-1.66-0.71-3.58-0.36-4.88,0.89c-0.71,0.67-15.19,14.7-20.06,33.6l-2.21-2.21c-1.06-1.06-2.57-1.53-4.05-1.23
					c-1.47,0.29-2.7,1.29-3.28,2.67C675.85,521.39,664.52,549,665.78,563.14z"/>
				<path d="M605.86,514.36c1.72,1.76,1.7,4.58-0.04,6.32l-41.1,41.1c-0.86,0.86-2.01,1.32-3.18,1.32c-0.58,0-1.17-0.11-1.72-0.34
					c-1.68-0.7-2.78-2.34-2.78-4.16v-18.24h-63.06c-2.49,0-4.5-2.01-4.5-4.5v-36.72c0-2.49,2.01-4.5,4.5-4.5h63.06v-19.26
					c0-1.83,1.11-3.48,2.8-4.17c1.7-0.69,3.64-0.28,4.92,1.03L605.86,514.36z M596.31,517.46l-30.27-31.02v61.3L596.31,517.46z
					 M557.04,531.36v-27.72h-58.56v27.72H557.04z"/>
				<polygon class="st1" points="566.04,486.44 596.31,517.46 566.04,547.74 				"/>
				<rect x="498.48" y="503.64" class="st1" width="58.56" height="27.72"/>
				<path class="st1" d="M402.51,506.81c6.2,4.36,43.63,30.58,53.07,36.32l1.6,0.96c9.93,6,12.67,8.25,11.71,11.59
					c-0.58,2.04-1.62,3.41-3.09,4.07c-1.28,0.58-2.87,0.56-4.13-0.05c-4.11-1.97-59.69-30.85-67.25-34.77l-11.09-13.87
					c0.01-0.01,0.02-0.02,0.03-0.03c0.21-0.24,0.41-0.48,0.6-0.73c0.09-0.11,0.18-0.22,0.27-0.33c0.25-0.34,0.5-0.67,0.73-1.02
					c0.09-0.13,0.17-0.26,0.26-0.39c0.12-0.19,0.24-0.37,0.35-0.56c0.04-0.06,0.07-0.12,0.11-0.18c0.05-0.08,0.1-0.16,0.15-0.25
					c0.07-0.12,0.13-0.24,0.2-0.35c0.01-0.03,0.03-0.06,0.04-0.08c0.04-0.08,0.09-0.16,0.13-0.24c0.11-0.21,0.22-0.43,0.33-0.64
					c0.06-0.13,0.12-0.25,0.18-0.37c0.09-0.2,0.18-0.4,0.27-0.6c0.06-0.14,0.12-0.29,0.18-0.43c0.07-0.19,0.15-0.38,0.22-0.57
					c0.02-0.06,0.05-0.12,0.07-0.18L402.51,506.81z"/>
				<path class="st1" d="M366.8,378.37c2.06-0.51,3.76-0.3,5.07,0.64c1.14,0.83,1.92,2.21,2.02,3.61
					c0.35,4.54,3.13,67.12,3.51,75.63l-6.46,16.53c-0.06-0.01-0.11-0.02-0.17-0.03c-0.17-0.03-0.33-0.06-0.5-0.09
					c-0.2-0.03-0.4-0.06-0.6-0.09c-0.16-0.02-0.31-0.04-0.46-0.06c-0.22-0.02-0.44-0.04-0.66-0.06c-0.13-0.01-0.27-0.03-0.41-0.03
					c-0.24-0.02-0.48-0.03-0.72-0.04c-0.09,0-0.18-0.01-0.27-0.01c-0.03,0-0.06,0-0.08,0c-0.14,0-0.27-0.01-0.41-0.01
					c-0.13,0-0.26,0.01-0.39,0.01c-0.04,0-0.08,0-0.11,0c-0.09,0-0.17,0.01-0.25,0.01c-0.25,0.01-0.5,0.02-0.74,0.04
					c-0.13,0-0.26,0.01-0.39,0.03c-0.23,0.01-0.45,0.04-0.68,0.06c-0.14,0.02-0.29,0.04-0.43,0.06c-0.21,0.03-0.42,0.06-0.63,0.09
					c-0.06,0.01-0.12,0.02-0.18,0.03l-5.19-14.39c0.67-7.55,4.66-53.07,4.91-64.12l0.04-1.87
					C362.85,382.71,363.43,379.22,366.8,378.37z"/>
				<path class="st1" d="M365.46,509.57c-0.23-0.02-0.47-0.05-0.7-0.08c-0.07-0.01-0.15-0.03-0.22-0.04
					c-0.09-0.01-0.18-0.03-0.27-0.05c-0.27-0.04-0.53-0.1-0.8-0.17c-0.06-0.01-0.13-0.03-0.2-0.05s-0.15-0.04-0.22-0.06
					c-0.26-0.08-0.52-0.16-0.77-0.25c-0.09-0.03-0.17-0.06-0.25-0.09c-0.07-0.03-0.15-0.05-0.22-0.08
					c-0.22-0.09-0.44-0.18-0.65-0.28c-0.11-0.06-0.22-0.11-0.34-0.16c-0.08-0.05-0.17-0.09-0.26-0.14c-0.15-0.08-0.3-0.16-0.46-0.25
					c-0.16-0.09-0.31-0.19-0.47-0.29c-0.08-0.05-0.16-0.1-0.24-0.16c-0.1-0.06-0.19-0.12-0.29-0.19c-0.2-0.14-0.4-0.29-0.59-0.44
					c-0.06-0.05-0.12-0.1-0.18-0.14c-0.06-0.05-0.12-0.11-0.18-0.16c-0.22-0.18-0.42-0.37-0.63-0.57c-0.05-0.04-0.09-0.09-0.14-0.14
					c-0.05-0.05-0.1-0.09-0.14-0.14c-0.2-0.21-0.39-0.41-0.57-0.63c-0.05-0.06-0.11-0.12-0.16-0.18c-0.04-0.06-0.09-0.12-0.14-0.18
					c-0.15-0.19-0.3-0.39-0.44-0.59c-0.07-0.1-0.13-0.19-0.2-0.29c-0.05-0.08-0.1-0.16-0.15-0.24c-0.1-0.16-0.2-0.31-0.29-0.47
					c-0.09-0.17-0.19-0.33-0.27-0.5c-0.03-0.06-0.06-0.11-0.09-0.17c-0.06-0.13-0.12-0.26-0.19-0.39c-0.11-0.24-0.21-0.48-0.31-0.72
					c0-0.01,0-0.02-0.01-0.03c-0.04-0.12-0.09-0.24-0.13-0.36c-0.1-0.28-0.19-0.57-0.27-0.85c-0.04-0.12-0.06-0.23-0.09-0.35
					c-0.08-0.29-0.14-0.59-0.19-0.89c-0.03-0.13-0.05-0.26-0.07-0.4c-0.04-0.28-0.07-0.55-0.1-0.83c-0.01-0.18-0.02-0.36-0.02-0.54
					c-0.01-0.23-0.02-0.46-0.02-0.69c0-0.03,0-0.06,0-0.09c0.01-0.2,0.02-0.39,0.03-0.59c0.01-0.16,0.02-0.32,0.04-0.48
					c0.01-0.12,0.02-0.24,0.04-0.36c0.02-0.16,0.05-0.31,0.07-0.46c0.02-0.12,0.04-0.24,0.06-0.36c0.04-0.18,0.08-0.37,0.12-0.55
					c0.03-0.12,0.06-0.24,0.09-0.36c0.03-0.11,0.06-0.22,0.1-0.33c0.05-0.18,0.11-0.36,0.17-0.54c0.04-0.12,0.09-0.24,0.13-0.35
					c0.05-0.14,0.1-0.28,0.16-0.42c0.05-0.11,0.1-0.22,0.15-0.34c0.07-0.15,0.14-0.3,0.21-0.45c0.09-0.16,0.17-0.33,0.26-0.5
					c0.02-0.03,0.03-0.06,0.05-0.08c0.12-0.22,0.25-0.43,0.39-0.64c0.08-0.13,0.16-0.26,0.24-0.38c0.18-0.26,0.38-0.52,0.58-0.77
					c0.05-0.07,0.1-0.13,0.15-0.2c0.24-0.28,0.49-0.56,0.75-0.82c0.02-0.02,0.04-0.04,0.05-0.06c0.02-0.01,0.04-0.03,0.06-0.05
					c0.26-0.26,0.54-0.51,0.82-0.75c0.07-0.05,0.13-0.1,0.2-0.15c0.25-0.2,0.51-0.4,0.77-0.58c0.12-0.08,0.25-0.16,0.38-0.24
					c0.21-0.14,0.42-0.27,0.64-0.39c0.02-0.02,0.05-0.03,0.08-0.05c0.17-0.09,0.34-0.17,0.51-0.26c0.15-0.07,0.29-0.14,0.44-0.21
					c0.12-0.05,0.23-0.1,0.34-0.15c0.14-0.06,0.29-0.11,0.43-0.16c0.11-0.05,0.23-0.09,0.34-0.13c0.18-0.06,0.35-0.12,0.53-0.17
					c0.12-0.04,0.24-0.07,0.37-0.1c0.11-0.03,0.22-0.06,0.33-0.09c0.18-0.04,0.36-0.08,0.54-0.11c0.13-0.03,0.26-0.05,0.39-0.07
					c0.15-0.03,0.29-0.05,0.44-0.07c0.12-0.02,0.23-0.03,0.34-0.04c0.18-0.02,0.35-0.03,0.52-0.04c0.19-0.01,0.38-0.02,0.58-0.03
					c0.02,0,0.04,0,0.06,0c0.24,0,0.49,0.01,0.73,0.02c0.17,0,0.34,0.01,0.51,0.02c0.29,0.03,0.57,0.06,0.86,0.11
					c0.13,0.02,0.25,0.03,0.38,0.05c0.3,0.06,0.6,0.13,0.9,0.2c0.11,0.03,0.22,0.05,0.33,0.08c0.29,0.09,0.58,0.18,0.87,0.28
					c0.12,0.05,0.24,0.09,0.36,0.13c0.25,0.1,0.5,0.21,0.76,0.33c0.12,0.06,0.25,0.12,0.38,0.18c0.04,0.03,0.09,0.05,0.14,0.08
					c0.18,0.09,0.35,0.19,0.53,0.29c0.15,0.09,0.3,0.18,0.46,0.28c0.07,0.04,0.15,0.09,0.23,0.14c0.1,0.07,0.2,0.14,0.31,0.21
					c0.19,0.15,0.39,0.29,0.58,0.44c0.05,0.04,0.11,0.09,0.16,0.13c0.07,0.06,0.14,0.12,0.21,0.17c0.21,0.18,0.42,0.37,0.62,0.57
					c0.04,0.04,0.09,0.08,0.13,0.13c0.05,0.05,0.11,0.11,0.16,0.16c0.19,0.2,0.38,0.4,0.56,0.62c0.05,0.06,0.1,0.12,0.15,0.18
					c0.05,0.06,0.1,0.12,0.15,0.19c0.15,0.19,0.3,0.38,0.44,0.58c0.07,0.1,0.13,0.19,0.2,0.29c0.05,0.08,0.1,0.16,0.15,0.24
					c0.1,0.16,0.2,0.31,0.29,0.47c0.09,0.17,0.19,0.34,0.28,0.51c0.02,0.05,0.05,0.1,0.08,0.16c0.06,0.12,0.12,0.25,0.18,0.38
					c0.12,0.25,0.22,0.49,0.32,0.74c0,0.01,0,0.01,0.01,0.01c0.04,0.13,0.09,0.25,0.13,0.37c0.1,0.28,0.19,0.57,0.27,0.86
					c0.03,0.11,0.06,0.22,0.09,0.34c0.07,0.29,0.14,0.59,0.19,0.89c0.03,0.13,0.05,0.26,0.07,0.39c0.04,0.28,0.07,0.56,0.1,0.85
					c0.01,0.17,0.02,0.35,0.02,0.53c0.01,0.23,0.02,0.46,0.02,0.69c0,0.03,0,0.06,0,0.09c-0.01,0.2-0.02,0.39-0.03,0.58
					c-0.01,0.17-0.02,0.33-0.04,0.49c-0.01,0.12-0.02,0.24-0.04,0.36c-0.02,0.16-0.05,0.31-0.07,0.46
					c-0.02,0.12-0.04,0.24-0.06,0.36c-0.04,0.18-0.08,0.37-0.12,0.55c-0.03,0.12-0.06,0.23-0.09,0.35c-0.03,0.11-0.06,0.23-0.1,0.34
					c-0.05,0.18-0.11,0.36-0.17,0.54c-0.04,0.12-0.08,0.23-0.13,0.35c-0.05,0.14-0.1,0.28-0.16,0.42c-0.05,0.11-0.1,0.22-0.15,0.34
					c-0.07,0.15-0.14,0.3-0.21,0.44c-0.09,0.17-0.17,0.34-0.26,0.51c-0.02,0.03-0.03,0.06-0.05,0.08c-0.11,0.21-0.24,0.41-0.36,0.6
					c-0.1,0.15-0.19,0.3-0.29,0.44c-0.16,0.24-0.33,0.46-0.51,0.68c-0.08,0.11-0.16,0.21-0.25,0.32c-0.19,0.23-0.4,0.45-0.61,0.67
					c-0.08,0.08-0.16,0.17-0.25,0.25c-0.21,0.21-0.43,0.41-0.66,0.6c-0.1,0.09-0.2,0.18-0.31,0.26c-0.21,0.17-0.42,0.33-0.64,0.48
					c-0.12,0.09-0.25,0.17-0.37,0.26c-0.05,0.03-0.09,0.05-0.14,0.08c-0.16,0.11-0.32,0.2-0.49,0.3c-0.16,0.1-0.33,0.19-0.5,0.28
					c-0.08,0.04-0.16,0.08-0.24,0.12c-0.1,0.05-0.2,0.1-0.31,0.15c-0.23,0.1-0.46,0.2-0.7,0.3c-0.06,0.02-0.13,0.05-0.19,0.07
					c-0.07,0.03-0.15,0.06-0.22,0.08c-0.28,0.1-0.55,0.19-0.83,0.27c-0.06,0.01-0.12,0.03-0.18,0.05c-0.06,0.01-0.12,0.03-0.19,0.05
					c-0.28,0.07-0.56,0.13-0.85,0.18c-0.07,0.01-0.14,0.03-0.22,0.04c-0.07,0.01-0.14,0.02-0.21,0.03
					c-0.26,0.04-0.51,0.07-0.76,0.09c-0.11,0.01-0.22,0.02-0.33,0.03c-0.09,0-0.19,0.01-0.28,0.01c-0.2,0.01-0.39,0.01-0.58,0.01
					c-0.17,0-0.34,0-0.51-0.01c-0.09,0-0.19-0.01-0.28-0.01C365.72,509.59,365.59,509.58,365.46,509.57z"/>
				<path d="M264.29,555.44c2.42,2.5,5.73,1.25,15.89-4.34l1.64-0.9c9.69-5.32,51.11-24.62,57.98-27.81l9.87-11.69
					c-0.11-0.13-0.21-0.27-0.31-0.4c-0.09-0.11-0.18-0.22-0.27-0.33c-0.25-0.34-0.5-0.67-0.73-1.02c-0.09-0.13-0.17-0.26-0.26-0.39
					c-0.12-0.19-0.24-0.37-0.36-0.56c-0.03-0.06-0.06-0.12-0.09-0.17c-0.06-0.09-0.11-0.17-0.16-0.26c-0.07-0.12-0.13-0.24-0.2-0.35
					c-0.01-0.03-0.03-0.06-0.04-0.08c-0.04-0.08-0.08-0.16-0.13-0.24c-0.11-0.21-0.22-0.43-0.33-0.64
					c-0.06-0.13-0.12-0.25-0.17-0.37c-0.1-0.2-0.19-0.4-0.28-0.6c-0.06-0.14-0.12-0.29-0.18-0.43c-0.07-0.19-0.15-0.38-0.22-0.57
					c-0.06-0.16-0.12-0.32-0.17-0.47c-0.02-0.06-0.04-0.11-0.06-0.16l-17.55,2.67c-7.18,4.58-59.98,38.28-63.74,40.85
					c-1.16,0.79-1.97,2.15-2.11,3.56C262.15,552.34,262.81,553.92,264.29,555.44z M365.28,518.59c-0.07,0-0.15-0.01-0.22-0.01
					c-0.36-0.03-0.72-0.06-1.08-0.11c-0.11-0.01-0.23-0.03-0.34-0.04c-0.35-0.05-0.69-0.11-1.03-0.17c-0.1-0.02-0.19-0.03-0.28-0.05
					c-0.43-0.08-0.85-0.18-1.27-0.29c-0.06-0.02-0.13-0.04-0.19-0.05c-0.32,32.77-6.66,168.51-7.97,196.25h27.68
					c-0.8-20.11-3.95-98.55-4.73-109.54c-0.75-10.67-2.61-66.95-3.25-86.76c-0.03,0.01-0.06,0.02-0.09,0.03
					c-0.08,0.02-0.16,0.05-0.25,0.07c-0.42,0.11-0.84,0.21-1.27,0.29c-0.09,0.02-0.18,0.03-0.26,0.05c-0.35,0.06-0.7,0.12-1.06,0.17
					c-0.11,0.01-0.22,0.03-0.33,0.04c-0.36,0.05-0.72,0.08-1.08,0.11c-0.07,0-0.15,0.01-0.22,0.01c-0.46,0.03-0.92,0.05-1.38,0.05
					C366.2,518.64,365.74,518.62,365.28,518.59z M365.17,474.42c0.24-0.02,0.49-0.03,0.74-0.04c0.08,0,0.16-0.01,0.25-0.01
					c0.03,0,0.07,0,0.11,0c0.13,0,0.26-0.01,0.39-0.01c0.14,0,0.27,0.01,0.41,0.01c0.02,0,0.05,0,0.08,0c0.09,0,0.18,0.01,0.27,0.01
					c0.24,0.01,0.48,0.02,0.72,0.04c0.14,0,0.28,0.02,0.41,0.03c0.22,0.02,0.44,0.04,0.66,0.06c0.15,0.02,0.3,0.04,0.46,0.06
					c0.2,0.03,0.4,0.06,0.6,0.09c0.17,0.03,0.33,0.06,0.5,0.09c0.06,0.01,0.11,0.02,0.17,0.03l6.46-16.53
					c-0.38-8.51-3.16-71.09-3.51-75.63c-0.1-1.4-0.88-2.78-2.02-3.61c-1.31-0.94-3.01-1.15-5.07-0.64
					c-3.37,0.85-3.95,4.34-4.18,15.94l-0.04,1.87c-0.25,11.05-4.24,56.57-4.91,64.12l5.19,14.39c0.06-0.01,0.12-0.02,0.18-0.03
					c0.21-0.03,0.42-0.06,0.63-0.09c0.14-0.02,0.29-0.04,0.43-0.06c0.23-0.02,0.45-0.05,0.68-0.06
					C364.91,474.43,365.04,474.42,365.17,474.42z M360.56,508.12c0.09,0.05,0.18,0.09,0.26,0.14c0.12,0.05,0.23,0.1,0.34,0.16
					c0.21,0.1,0.43,0.19,0.65,0.28c0.07,0.03,0.15,0.05,0.22,0.08c0.08,0.03,0.16,0.06,0.25,0.09c0.25,0.09,0.51,0.17,0.77,0.25
					c0.07,0.02,0.15,0.04,0.22,0.06s0.14,0.04,0.2,0.05c0.27,0.07,0.53,0.13,0.8,0.17c0.09,0.02,0.18,0.04,0.27,0.05
					c0.07,0.01,0.15,0.03,0.22,0.04c0.23,0.03,0.47,0.06,0.7,0.08c0.13,0.01,0.26,0.02,0.39,0.03c0.09,0,0.19,0.01,0.28,0.01
					c0.17,0.01,0.34,0.01,0.51,0.01c0.19,0,0.38,0,0.58-0.01c0.09,0,0.19-0.01,0.28-0.01c0.11-0.01,0.22-0.02,0.33-0.03
					c0.25-0.02,0.5-0.05,0.76-0.09c0.07-0.01,0.14-0.02,0.21-0.03c0.08-0.01,0.15-0.03,0.22-0.04c0.29-0.05,0.57-0.11,0.85-0.18
					c0.07-0.02,0.13-0.04,0.19-0.05c0.06-0.02,0.12-0.04,0.18-0.05c0.28-0.08,0.55-0.17,0.83-0.27c0.07-0.02,0.15-0.05,0.22-0.08
					c0.06-0.02,0.13-0.05,0.19-0.07c0.24-0.1,0.47-0.2,0.7-0.3c0.11-0.05,0.21-0.1,0.31-0.15c0.08-0.04,0.16-0.08,0.24-0.12
					c0.17-0.09,0.34-0.18,0.5-0.28c0.17-0.1,0.33-0.19,0.49-0.3c0.05-0.03,0.09-0.05,0.14-0.08c0.12-0.09,0.25-0.17,0.37-0.26
					c0.22-0.15,0.43-0.31,0.64-0.48c0.11-0.08,0.21-0.17,0.31-0.26c0.23-0.19,0.45-0.39,0.66-0.6c0.09-0.08,0.17-0.17,0.25-0.25
					c0.21-0.22,0.42-0.44,0.61-0.67c0.09-0.11,0.17-0.21,0.25-0.32c0.18-0.22,0.35-0.44,0.51-0.68c0.1-0.14,0.19-0.29,0.29-0.44
					c0.12-0.19,0.25-0.39,0.36-0.6c0.02-0.02,0.03-0.05,0.05-0.08c0.09-0.17,0.17-0.34,0.26-0.51c0.07-0.14,0.14-0.29,0.21-0.44
					c0.05-0.12,0.1-0.23,0.15-0.34c0.06-0.14,0.11-0.28,0.16-0.42c0.05-0.12,0.09-0.23,0.13-0.35c0.06-0.18,0.12-0.36,0.17-0.54
					c0.04-0.11,0.07-0.23,0.1-0.34c0.03-0.12,0.06-0.23,0.09-0.35c0.04-0.18,0.08-0.37,0.12-0.55c0.02-0.12,0.04-0.24,0.06-0.36
					c0.02-0.15,0.05-0.3,0.07-0.46c0.02-0.12,0.03-0.24,0.04-0.36c0.02-0.16,0.03-0.32,0.04-0.49c0.01-0.19,0.02-0.38,0.03-0.58
					c0-0.03,0-0.06,0-0.09c0-0.23-0.01-0.46-0.02-0.69c0-0.18-0.01-0.36-0.02-0.53c-0.03-0.29-0.06-0.57-0.1-0.85
					c-0.02-0.13-0.04-0.26-0.07-0.39c-0.05-0.3-0.12-0.6-0.19-0.89c-0.03-0.12-0.06-0.23-0.09-0.34c-0.08-0.29-0.17-0.58-0.27-0.86
					c-0.04-0.12-0.09-0.24-0.13-0.37c-0.01,0-0.01,0-0.01-0.01c-0.1-0.25-0.2-0.49-0.32-0.74c-0.06-0.13-0.12-0.26-0.18-0.38
					c-0.03-0.06-0.06-0.11-0.08-0.16c-0.09-0.17-0.19-0.34-0.28-0.51c-0.09-0.16-0.19-0.31-0.29-0.47c-0.05-0.08-0.1-0.16-0.15-0.24
					c-0.07-0.1-0.13-0.19-0.2-0.29c-0.14-0.2-0.29-0.39-0.44-0.58c-0.05-0.07-0.1-0.13-0.15-0.19c-0.05-0.06-0.1-0.12-0.15-0.18
					c-0.18-0.22-0.37-0.42-0.56-0.62c-0.05-0.05-0.11-0.11-0.16-0.16c-0.04-0.05-0.09-0.09-0.13-0.13c-0.2-0.2-0.41-0.39-0.62-0.57
					c-0.07-0.05-0.14-0.11-0.21-0.17c-0.05-0.04-0.11-0.09-0.16-0.13c-0.19-0.15-0.39-0.29-0.58-0.44
					c-0.11-0.07-0.21-0.14-0.31-0.21c-0.08-0.05-0.16-0.1-0.23-0.14c-0.16-0.1-0.31-0.19-0.46-0.28c-0.18-0.1-0.35-0.2-0.53-0.29
					c-0.05-0.03-0.1-0.05-0.14-0.08c-0.13-0.06-0.26-0.12-0.38-0.18c-0.26-0.12-0.51-0.23-0.76-0.33c-0.12-0.04-0.24-0.08-0.36-0.13
					c-0.29-0.1-0.58-0.19-0.87-0.28c-0.11-0.03-0.22-0.05-0.33-0.08c-0.3-0.07-0.6-0.14-0.9-0.2c-0.13-0.02-0.25-0.03-0.38-0.05
					c-0.29-0.05-0.57-0.08-0.86-0.11c-0.17-0.01-0.34-0.02-0.51-0.02c-0.24-0.01-0.49-0.02-0.73-0.02c-0.02,0-0.04,0-0.06,0
					c-0.2,0.01-0.39,0.02-0.58,0.03c-0.17,0.01-0.34,0.02-0.52,0.04c-0.11,0.01-0.22,0.02-0.34,0.04c-0.15,0.02-0.29,0.04-0.44,0.07
					c-0.13,0.02-0.26,0.04-0.39,0.07c-0.18,0.03-0.36,0.07-0.54,0.11c-0.11,0.03-0.22,0.06-0.33,0.09c-0.13,0.03-0.25,0.06-0.37,0.1
					c-0.18,0.05-0.35,0.11-0.53,0.17c-0.11,0.04-0.23,0.08-0.34,0.13c-0.14,0.05-0.29,0.1-0.43,0.16c-0.11,0.05-0.22,0.1-0.34,0.15
					c-0.15,0.07-0.29,0.14-0.44,0.21c-0.17,0.09-0.34,0.17-0.51,0.26c-0.03,0.02-0.06,0.03-0.08,0.05
					c-0.22,0.12-0.43,0.25-0.64,0.39c-0.13,0.08-0.26,0.16-0.38,0.24c-0.26,0.18-0.52,0.38-0.77,0.58c-0.07,0.05-0.13,0.1-0.2,0.15
					c-0.28,0.24-0.56,0.49-0.82,0.75c-0.02,0.02-0.04,0.04-0.06,0.05c-0.01,0.02-0.03,0.04-0.05,0.06
					c-0.26,0.26-0.51,0.54-0.75,0.82c-0.05,0.07-0.1,0.13-0.15,0.2c-0.2,0.25-0.4,0.51-0.58,0.77c-0.08,0.12-0.16,0.25-0.24,0.38
					c-0.14,0.21-0.27,0.42-0.39,0.64c-0.02,0.02-0.03,0.05-0.05,0.08c-0.09,0.17-0.17,0.34-0.26,0.5c-0.07,0.15-0.14,0.3-0.21,0.45
					c-0.05,0.12-0.1,0.23-0.15,0.34c-0.06,0.14-0.11,0.28-0.16,0.42c-0.04,0.11-0.09,0.23-0.13,0.35c-0.06,0.18-0.12,0.36-0.17,0.54
					c-0.04,0.11-0.07,0.22-0.1,0.33c-0.03,0.12-0.06,0.24-0.09,0.36c-0.04,0.18-0.08,0.37-0.12,0.55c-0.02,0.12-0.04,0.24-0.06,0.36
					c-0.02,0.15-0.05,0.3-0.07,0.46c-0.02,0.12-0.03,0.24-0.04,0.36c-0.02,0.16-0.03,0.32-0.04,0.48c-0.01,0.2-0.02,0.39-0.03,0.59
					c0,0.03,0,0.06,0,0.09c0,0.23,0.01,0.46,0.02,0.69c0,0.18,0.01,0.36,0.02,0.54c0.03,0.28,0.06,0.55,0.1,0.83
					c0.02,0.14,0.04,0.27,0.07,0.4c0.05,0.3,0.11,0.6,0.19,0.89c0.03,0.12,0.05,0.23,0.09,0.35c0.08,0.28,0.17,0.57,0.27,0.85
					c0.04,0.12,0.09,0.24,0.13,0.36c0.01,0.01,0.01,0.02,0.01,0.03c0.1,0.24,0.2,0.48,0.31,0.72c0.07,0.13,0.13,0.26,0.19,0.39
					c0.03,0.06,0.06,0.11,0.09,0.17c0.08,0.17,0.18,0.33,0.27,0.5c0.09,0.16,0.19,0.31,0.29,0.47c0.05,0.08,0.1,0.16,0.15,0.24
					c0.07,0.1,0.13,0.19,0.2,0.29c0.14,0.2,0.29,0.4,0.44,0.59c0.05,0.06,0.1,0.12,0.14,0.18c0.05,0.06,0.11,0.12,0.16,0.18
					c0.18,0.22,0.37,0.42,0.57,0.63c0.04,0.05,0.09,0.09,0.14,0.14c0.05,0.05,0.09,0.1,0.14,0.14c0.21,0.2,0.41,0.39,0.63,0.57
					c0.06,0.05,0.12,0.11,0.18,0.16c0.06,0.04,0.12,0.09,0.18,0.14c0.19,0.15,0.39,0.3,0.59,0.44c0.1,0.07,0.19,0.13,0.29,0.19
					c0.08,0.06,0.16,0.11,0.24,0.16c0.16,0.1,0.31,0.2,0.47,0.29C360.26,507.96,360.41,508.04,360.56,508.12z M394.42,524.93
					c7.56,3.92,63.14,32.8,67.25,34.77c1.26,0.61,2.85,0.63,4.13,0.05c1.47-0.66,2.51-2.03,3.09-4.07
					c0.96-3.34-1.78-5.59-11.71-11.59l-1.6-0.96c-9.44-5.74-46.87-31.96-53.07-36.32l-15.06-2.7c-0.02,0.06-0.05,0.12-0.07,0.18
					c-0.07,0.19-0.15,0.38-0.22,0.57c-0.06,0.14-0.12,0.29-0.18,0.43c-0.09,0.2-0.18,0.4-0.27,0.6c-0.06,0.12-0.12,0.24-0.18,0.37
					c-0.11,0.21-0.22,0.43-0.33,0.64c-0.04,0.08-0.09,0.16-0.13,0.24c-0.01,0.02-0.03,0.05-0.04,0.08c-0.07,0.11-0.13,0.23-0.2,0.35
					c-0.05,0.09-0.1,0.17-0.15,0.25c-0.04,0.06-0.07,0.12-0.11,0.18c-0.11,0.19-0.23,0.37-0.35,0.56c-0.09,0.13-0.17,0.26-0.26,0.39
					c-0.23,0.35-0.48,0.68-0.73,1.02c-0.09,0.11-0.18,0.22-0.27,0.33c-0.19,0.25-0.39,0.49-0.6,0.73c-0.01,0.01-0.02,0.02-0.03,0.03
					L394.42,524.93z M461.84,536.39c9.61,5.81,18.7,11.3,15.71,21.77c-1.31,4.57-4.17,8.05-8.06,9.8c-1.79,0.81-3.74,1.21-5.7,1.21
					c-2.07,0-4.14-0.45-6.02-1.35c-4.51-2.17-65.74-33.99-68.35-35.35c-0.55-0.29-1.04-0.69-1.43-1.18l-6.2-7.74
					c0.76,23.26,2.37,70.94,3.04,80.39c0.89,12.71,4.76,110.35,4.93,114.5c0.05,1.23-0.41,2.42-1.26,3.3
					c-0.84,0.88-2.02,1.38-3.24,1.38h-37.08c-1.23,0-2.41-0.5-3.26-1.39s-1.29-2.09-1.23-3.32c0.08-1.69,7.3-153.75,8.12-196.29
					l-5.77,6.83c-0.42,0.5-0.95,0.91-1.54,1.18c-0.48,0.22-48.26,22.43-58.36,27.96l-1.62,0.89c-6.21,3.42-12.21,6.73-17.69,6.73
					c-3.2,0-6.22-1.12-9.01-4.01c-3.31-3.42-4.89-7.63-4.46-11.87c0.41-4.03,2.64-7.8,5.98-10.08c4.13-2.83,62.31-39.94,64.78-41.52
					c0.53-0.34,1.13-0.56,1.75-0.66l18.73-2.85c0-0.03,0-0.07,0.01-0.1c0.01-0.23,0.04-0.45,0.06-0.68
					c0.02-0.14,0.04-0.29,0.06-0.44c0.03-0.21,0.06-0.41,0.09-0.62c0.03-0.16,0.06-0.32,0.09-0.48c0.03-0.19,0.07-0.39,0.11-0.58
					c0.04-0.17,0.08-0.34,0.12-0.51c0.04-0.18,0.09-0.36,0.14-0.54c0.04-0.18,0.1-0.36,0.15-0.53c0.05-0.17,0.1-0.34,0.15-0.51
					c0.06-0.18,0.13-0.37,0.19-0.55c0.05-0.16,0.11-0.31,0.17-0.47c0.07-0.19,0.15-0.38,0.23-0.58c0.05-0.14,0.11-0.27,0.17-0.41
					c0.09-0.21,0.18-0.41,0.28-0.62c0.05-0.11,0.11-0.23,0.17-0.35c0.11-0.22,0.22-0.44,0.34-0.66c0.04-0.07,0.08-0.15,0.12-0.22
					c0.01-0.03,0.03-0.06,0.04-0.09c0.07-0.11,0.13-0.23,0.2-0.35c0.06-0.12,0.14-0.23,0.21-0.35c0.01-0.02,0.03-0.05,0.04-0.07
					c0.05-0.08,0.09-0.15,0.14-0.22c0.13-0.21,0.26-0.42,0.4-0.63c0.07-0.1,0.15-0.21,0.22-0.32c0.13-0.18,0.26-0.37,0.4-0.55
					c0.08-0.12,0.17-0.23,0.26-0.35c0.13-0.17,0.26-0.33,0.4-0.5c0.1-0.12,0.2-0.24,0.31-0.36c0.13-0.16,0.26-0.31,0.4-0.46
					c0.11-0.12,0.22-0.24,0.34-0.37c0.13-0.14,0.27-0.27,0.4-0.41c0.13-0.13,0.26-0.25,0.39-0.37c0.13-0.13,0.26-0.25,0.39-0.37
					c0.14-0.13,0.29-0.26,0.43-0.38c0.13-0.11,0.26-0.22,0.39-0.33c0.16-0.13,0.32-0.25,0.47-0.37c0.13-0.1,0.26-0.2,0.38-0.29
					c0.18-0.13,0.35-0.26,0.53-0.38c0.11-0.08,0.23-0.16,0.35-0.24c0.05-0.03,0.1-0.07,0.15-0.1l-5.62-15.59
					c-0.23-0.62-0.31-1.28-0.25-1.93c0.04-0.53,4.71-53.01,4.96-64.51l0.04-1.85c0.22-11.24,0.44-21.85,10.99-24.49
					c4.62-1.15,9.06-0.42,12.52,2.07c3.28,2.37,5.43,6.19,5.74,10.23c0.38,4.99,3.43,73.93,3.56,76.86c0.03,0.63-0.07,1.25-0.3,1.84
					l-6.9,17.64c0.03,0.02,0.06,0.05,0.1,0.07c0.18,0.12,0.35,0.25,0.53,0.38c0.13,0.09,0.25,0.19,0.37,0.28
					c0.16,0.13,0.32,0.25,0.48,0.38c0.13,0.11,0.26,0.22,0.39,0.33c0.14,0.12,0.29,0.25,0.43,0.38c0.13,0.12,0.26,0.24,0.39,0.37
					c0.13,0.12,0.26,0.24,0.39,0.37c0.13,0.14,0.27,0.27,0.4,0.41c0.11,0.12,0.23,0.25,0.35,0.37c0.13,0.15,0.26,0.3,0.39,0.46
					c0.11,0.12,0.21,0.24,0.31,0.36c0.14,0.17,0.27,0.33,0.39,0.5c0.1,0.12,0.19,0.23,0.27,0.35c0.14,0.18,0.27,0.37,0.4,0.55
					c0.07,0.11,0.15,0.22,0.22,0.32c0.14,0.21,0.27,0.42,0.4,0.63c0.05,0.07,0.09,0.14,0.14,0.22c0.01,0.02,0.03,0.05,0.04,0.08
					c0.07,0.11,0.15,0.22,0.21,0.34c0.07,0.12,0.13,0.24,0.2,0.35c0.01,0.03,0.03,0.06,0.04,0.08c0.04,0.08,0.08,0.16,0.12,0.23
					c0.12,0.22,0.23,0.44,0.34,0.66c0.06,0.12,0.12,0.24,0.17,0.36c0.1,0.2,0.19,0.4,0.28,0.61c0.06,0.13,0.12,0.28,0.17,0.42
					c0.08,0.19,0.16,0.38,0.23,0.57c0.06,0.16,0.12,0.31,0.17,0.47c0.06,0.18,0.13,0.37,0.19,0.55c0.05,0.17,0.1,0.34,0.15,0.51
					c0.05,0.17,0.11,0.35,0.15,0.53c0.05,0.18,0.1,0.36,0.14,0.54c0.04,0.17,0.08,0.34,0.12,0.51c0.04,0.19,0.08,0.39,0.11,0.58
					c0.03,0.16,0.06,0.32,0.09,0.48c0.03,0.21,0.06,0.41,0.09,0.62c0.02,0.15,0.04,0.3,0.06,0.44c0.02,0.23,0.04,0.45,0.06,0.68
					c0.02,0.13,0.03,0.26,0.03,0.39c0.01,0.06,0.02,0.13,0.02,0.2l16.31,2.92c0.65,0.12,1.26,0.37,1.8,0.75
					c0.43,0.3,43.55,30.58,53.39,36.55L461.84,536.39z"/>
				<path class="st1" d="M362.33,518.21c0.09,0.02,0.18,0.03,0.28,0.05c0.34,0.06,0.68,0.12,1.03,0.17
					c0.11,0.01,0.23,0.03,0.34,0.04c0.36,0.05,0.72,0.08,1.08,0.11c0.07,0,0.15,0.01,0.22,0.01c0.46,0.03,0.92,0.05,1.38,0.05
					c0.46,0,0.92-0.02,1.38-0.05c0.07,0,0.15-0.01,0.22-0.01c0.36-0.03,0.72-0.06,1.08-0.11c0.11-0.01,0.22-0.03,0.33-0.04
					c0.36-0.05,0.71-0.11,1.06-0.17c0.08-0.02,0.17-0.03,0.26-0.05c0.43-0.08,0.85-0.18,1.27-0.29c0.09-0.02,0.17-0.05,0.25-0.07
					c0.03-0.01,0.06-0.02,0.09-0.03c0.64,19.81,2.5,76.09,3.25,86.76c0.78,10.99,3.93,89.43,4.73,109.54H352.9
					c1.31-27.74,7.65-163.48,7.97-196.25c0.06,0.01,0.13,0.03,0.19,0.05C361.48,518.03,361.9,518.13,362.33,518.21z"/>
				<path class="st1" d="M349.36,510.3c0.1,0.13,0.2,0.27,0.31,0.4l-9.87,11.69c-6.87,3.19-48.29,22.49-57.98,27.81l-1.64,0.9
					c-10.16,5.59-13.47,6.84-15.89,4.34c-1.48-1.52-2.14-3.1-1.98-4.7c0.14-1.41,0.95-2.77,2.11-3.56
					c3.76-2.57,56.56-36.27,63.74-40.85l17.55-2.67c0.02,0.05,0.04,0.1,0.06,0.16c0.05,0.15,0.11,0.31,0.17,0.47
					c0.07,0.19,0.15,0.38,0.22,0.57c0.06,0.14,0.12,0.29,0.18,0.43c0.09,0.2,0.18,0.4,0.28,0.6c0.05,0.12,0.11,0.24,0.17,0.37
					c0.11,0.21,0.22,0.43,0.33,0.64c0.05,0.08,0.09,0.16,0.13,0.24c0.01,0.02,0.03,0.05,0.04,0.08c0.07,0.11,0.13,0.23,0.2,0.35
					c0.05,0.09,0.1,0.17,0.16,0.26c0.03,0.05,0.06,0.11,0.09,0.17c0.12,0.19,0.24,0.37,0.36,0.56c0.09,0.13,0.17,0.26,0.26,0.39
					c0.23,0.35,0.48,0.68,0.73,1.02C349.18,510.08,349.27,510.19,349.36,510.3z"/>
			</g>
		</g>
	</g>
	<g>
		<path d="M540,905.68c-50.09,0-98.7-9.66-144.46-28.71c-44.21-18.4-83.92-44.75-118.02-78.31c-34.12-33.58-60.9-72.68-79.62-116.24
			c-19.39-45.11-29.22-93.03-29.22-142.42c0-49.39,9.83-97.31,29.22-142.42c18.72-43.55,45.5-82.66,79.62-116.24
			c34.1-33.56,73.81-59.91,118.02-78.31c45.77-19.05,94.37-28.71,144.46-28.71s98.7,9.66,144.46,28.71
			c44.21,18.4,83.92,44.75,118.02,78.31c34.12,33.58,60.9,72.68,79.62,116.24c19.39,45.11,29.22,93.03,29.22,142.42
			c0,49.39-9.83,97.31-29.22,142.42c-18.72,43.55-45.5,82.66-79.62,116.24c-34.1,33.56-73.81,59.91-118.02,78.31
			C638.7,896.02,590.09,905.68,540,905.68z M540,203.32c-188.76,0-342.32,151.03-342.32,336.68
			c0,185.65,153.56,336.68,342.32,336.68c188.76,0,342.32-151.03,342.32-336.68C882.32,354.35,728.76,203.32,540,203.32z"/>
	</g>
</g>
</svg>
