<?xml version="1.0" encoding="utf-8"?>
<!-- Generator: Adobe Illustrator 23.0.5, SVG Export Plug-In . SVG Version: 6.00 Build 0)  -->
<svg version="1.1" id="Layer_1" xmlns="http://www.w3.org/2000/svg" xmlns:xlink="http://www.w3.org/1999/xlink" x="0px" y="0px"
	 viewBox="0 0 1080 1080" style="enable-background:new 0 0 1080 1080;" xml:space="preserve">
<style type="text/css">
	.st0{fill:url(#SVGID_1_);}
	.st1{fill:none;}
	.st2{fill:url(#SVGID_2_);}
	.st3{fill:url(#SVGID_3_);}
	.st4{fill:url(#SVGID_4_);}
	.st5{fill:url(#SVGID_5_);}
	.st6{fill:#A4A3A4;}
	.st7{fill:#575658;}
	.st8{fill:#010001;}
</style>
<g>
	<linearGradient id="SVGID_1_" gradientUnits="userSpaceOnUse" x1="543.4524" y1="662.1599" x2="543.4524" y2="414.3293">
		<stop  offset="0" style="stop-color:#59C9F3"/>
		<stop  offset="1" style="stop-color:#97E0AB"/>
	</linearGradient>
	<path class="st0" d="M634.77,549.84c-5.04-41.4-28.2-90.48-28.2-90.48l-12.72,19.44c-7.68-59.52-62.04-111.48-62.04-111.48
		c-0.72,10.44-5.94,41.04-14.04,59.94c-8.1,18.9-26.28,50.76-26.28,50.76l-12.95-22.26c-32.75,91.2-30.79,111.36-19.99,138
		c10.63,26.22,32.95,41.39,39.67,44.18c0.11,0.04,0.21,0.08,0.31,0.12c3.45,1.2,6.39,2.02,8.62,2.5c21.92,4.68,47.41,8.13,85.3-4.14
		C614.7,623.82,639.81,591.22,634.77,549.84z M517.59,626.16l24.66-83.76h-37.92l17.76-94.44h60.48l-31.14,67.14h45L517.59,626.16z"
		/>
	<polygon class="st1" points="517.59,626.16 542.25,542.4 504.33,542.4 522.09,447.96 582.57,447.96 551.43,515.1 596.43,515.1 	"/>
	<linearGradient id="SVGID_2_" gradientUnits="userSpaceOnUse" x1="550.8774" y1="618.763" x2="530.9658" y2="294.8659">
		<stop  offset="0.2492" style="stop-color:#5EC494"/>
		<stop  offset="1" style="stop-color:#AFDB66"/>
	</linearGradient>
	<path class="st2" d="M601.29,633.36c-3.02,1.12-5.96,2.14-8.84,3.06c22.25-12.6,47.36-45.2,42.32-86.58
		c-5.04-41.4-28.2-90.48-28.2-90.48l-12.72,19.44c-7.68-59.52-62.04-111.48-62.04-111.48c-0.72,10.44-5.94,41.04-14.04,59.94
		c-8.1,18.9-26.28,50.76-26.28,50.76l-12.95-22.26c-32.75,91.2-30.79,111.36-19.99,138c10.63,26.22,32.95,41.39,39.67,44.18
		c-26.44-9.32-82.64-41.02-91.09-114.98c-3.12-40.8,22.56-94.32,28.56-110.4c6-16.08,9.18-29.58,10.62-36.6
		c0,0,13.86,14.22,23.58,39.06c0,0,15.24-16.86,31.08-56.46c15.84-39.6,18.96-85.44,18.48-105.84c0,0,97.44,64.8,107.04,175.68
		c0,0,15.48-14.1,24.48-40.02c0,0,25.56,57.78,30.6,114.3C686.61,559.2,644.13,617.52,601.29,633.36z"/>
	<path class="st1" d="M592.45,636.42c-0.01,0.01-0.02,0.01-0.03,0.02"/>
	<polygon class="st1" points="517.59,626.16 542.25,542.4 504.33,542.4 522.09,447.96 582.57,447.96 551.43,515.1 596.43,515.1 	"/>
	<linearGradient id="SVGID_3_" gradientUnits="userSpaceOnUse" x1="674.1934" y1="614.1708" x2="725.0734" y2="582.0107">
		<stop  offset="0" style="stop-color:#4CBE8F"/>
		<stop  offset="1" style="stop-color:#AFDB66"/>
	</linearGradient>
	<path class="st3" d="M748.08,565.95c0,0-2.79,25.65-17.91,42.39s-42.12,19.62-54,11.88c0,0,19.62-18.09,29.34-24.84
		c9.72-6.75,17.46-12.51,17.46-12.51s-30.36,8.97-52.32,27.81c0,0-2.04-29.52,28.2-42.84C719.19,559.02,748.08,565.95,748.08,565.95
		z"/>
	<linearGradient id="SVGID_4_" gradientUnits="userSpaceOnUse" x1="401.4899" y1="573.4649" x2="303.9964" y2="573.465">
		<stop  offset="0" style="stop-color:#4CBE8F"/>
		<stop  offset="1" style="stop-color:#AFDB66"/>
	</linearGradient>
	<path class="st4" d="M411.21,596.64h-73.98v29.34l-61.74-52.2l61.47-52.83v29.97h49.59C386.55,550.92,391.59,568.92,411.21,596.64z
		"/>
	<linearGradient id="SVGID_5_" gradientUnits="userSpaceOnUse" x1="464.5978" y1="361.9199" x2="464.5978" y2="321.4395">
		<stop  offset="0" style="stop-color:#4CBE8F"/>
		<stop  offset="1" style="stop-color:#AFDB66"/>
	</linearGradient>
	<path class="st5" d="M464.85,363c0,0-12.42-7.74-12.78-22.23c-0.36-14.49,12.24-35.73,12.24-35.73s10.44,15.66,12.6,31.68
		C479.07,352.74,464.85,363,464.85,363z"/>
	<g id="XMLID_1_">
		<g>
			<rect x="467.85" y="669.12" class="st6" width="151.68" height="82.8"/>
			<path class="st7" d="M663.45,742.56v18.72c0,2.92-2.36,5.28-5.28,5.28h-6.6v-29.28h6.6
				C661.09,737.28,663.45,739.64,663.45,742.56z"/>
			<path class="st7" d="M663.45,659.76v18.72c0,2.92-2.36,5.28-5.28,5.28h-6.6v-29.28h6.6
				C661.09,654.48,663.45,656.84,663.45,659.76z"/>
			<path class="st7" d="M619.53,751.92v-82.8v-20.3c0-6.55,5.37-11.86,12-11.86s12,5.31,12,11.86v123.04c0,6.55-5.37,11.86-12,11.86
				s-12-5.31-12-11.86V751.92z"/>
			<path class="st7" d="M435.45,737.28v29.28h-6.6c-2.92,0-5.28-2.36-5.28-5.28v-18.72c0-2.92,2.36-5.28,5.28-5.28H435.45z"/>
			<path class="st7" d="M435.45,654.48v29.28h-6.6c-2.92,0-5.28-2.36-5.28-5.28v-18.72c0-2.92,2.36-5.28,5.28-5.28H435.45z"/>
			<path class="st7" d="M467.85,669.12v82.8v19.94c0,6.55-5.37,11.86-12,11.86c-6.63,0-12-5.31-12-11.86V648.82
				c0-6.55,5.37-11.86,12-11.86c6.63,0,12,5.31,12,11.86V669.12z"/>
		</g>
	</g>
	<g>
		<path class="st8" d="M540,907.28c-49.43,0-97.39-9.71-142.55-28.88c-43.61-18.5-82.77-44.99-116.39-78.71
			c-33.62-33.73-60.02-73-78.46-116.74c-19.09-45.29-28.77-93.38-28.77-142.95c0-49.57,9.68-97.67,28.77-142.95
			c18.44-43.74,44.84-83.01,78.46-116.74c33.62-33.73,72.78-60.21,116.39-78.71c45.16-19.16,93.12-28.87,142.55-28.87
			c49.43,0,97.39,9.71,142.55,28.87c43.61,18.5,82.76,44.99,116.39,78.71c33.62,33.73,60.02,73,78.46,116.74
			c19.09,45.28,28.78,93.38,28.78,142.95c0,49.57-9.68,97.67-28.78,142.95c-18.44,43.74-44.84,83.01-78.46,116.74
			c-33.62,33.73-72.78,60.21-116.39,78.71C637.39,897.57,589.43,907.28,540,907.28z M540,200.72
			c-186.47,0-338.17,152.2-338.17,339.28c0,187.08,151.7,339.28,338.17,339.28S878.17,727.08,878.17,540
			C878.17,352.92,726.47,200.72,540,200.72z"/>
	</g>
</g>
</svg>
