<?xml version="1.0" encoding="utf-8"?>
<!-- Generator: Adobe Illustrator 23.0.5, SVG Export Plug-In . SVG Version: 6.00 Build 0)  -->
<svg version="1.1" id="Layer_1" xmlns="http://www.w3.org/2000/svg" xmlns:xlink="http://www.w3.org/1999/xlink" x="0px" y="0px"
	 viewBox="0 0 1080 1080" style="enable-background:new 0 0 1080 1080;" xml:space="preserve">
<style type="text/css">
	.st0{fill:#FFFFFF;}
	.st1{fill:#010000;}
	.st2{fill:#F2F9FA;}
	.st3{fill:#D2E1E0;}
	.st4{fill:#E6F2F1;}
	.st5{fill:#CD8D2A;}
	.st6{fill:#DBC7C5;}
	.st7{fill:#E6AE42;}
	.st8{fill:#99C64B;}
	.st9{fill:#A5CA55;}
</style>
<g>
	<g>
		<path d="M881.57,395.71c-18.67-44.15-45.4-83.79-79.44-117.83s-73.68-60.77-117.83-79.44c-45.71-19.34-94.26-29.14-144.3-29.14
			s-98.59,9.8-144.3,29.14c-44.14,18.67-83.78,45.4-117.83,79.44c-34.04,34.04-60.76,73.68-79.43,117.83
			c-19.34,45.71-29.14,94.26-29.14,144.3c0,50.03,9.8,98.58,29.14,144.29c18.67,44.15,45.39,83.79,79.43,117.83
			c34.05,34.04,73.69,60.77,117.83,79.44c45.71,19.34,94.26,29.14,144.3,29.14s98.59-9.8,144.3-29.14
			c44.15-18.67,83.79-45.4,117.83-79.44s60.77-73.68,79.44-117.83c19.33-45.71,29.14-94.26,29.14-144.29
			C910.7,489.97,900.9,441.41,881.57,395.71z M539.99,883.71c-189.52,0-343.7-154.19-343.7-343.7
			c0-189.52,154.18-343.71,343.7-343.71S883.7,350.48,883.7,540.01C883.7,729.52,729.52,883.71,539.99,883.71z"/>
		<path class="st0" d="M883.7,540.01c0,189.51-154.19,343.7-343.71,343.7s-343.7-154.19-343.7-343.7
			c0-189.52,154.18-343.71,343.7-343.71S883.7,350.48,883.7,540.01z"/>
	</g>
	<g>
		<g>
			<path class="st1" d="M539.57,750.97h75.81c30.38,0,42.25-3.87,52.73-26.79c8.77-19.2-3.31-39.17-12.12-53.75
				c-1.39-2.29-2.69-4.44-3.8-6.41c-7.85-14.02-70.39-130.47-71.02-131.64l-0.53-1v-97.5l-2.1,1.17c0.21,0,13.38,0,13.38,0
				c1.43,0,2.77-0.55,3.78-1.56c1.01-1.01,1.56-2.35,1.56-3.77c0-2.94-2.4-5.33-5.34-5.33h-52.35h-51.81
				c-1.43,0-2.77,0.55-3.78,1.56c-1.01,1.01-1.56,2.35-1.56,3.77c0,2.94,2.4,5.33,5.34,5.33h11.1v96.35l-75.45,138.11
				c-14.48,24.27-19.39,38.6-10.2,59.33c6.02,13.57,17.91,20.52,37.42,21.85c3.64,0.25,7.13,0.28,9.77,0.28H539.57z M663.69,665.79
				c9.3,15.38,23.35,38.6,12.6,62.13c-12.53,27.42-28.91,32.04-60.91,32.04H460.4c-2.78,0-6.47-0.03-10.39-0.3
				c-11.44-0.78-20.84-3.4-28.31-7.91c-7.47-4.5-13-10.9-16.71-19.27c-11.71-26.39-2.98-44.63,10.64-67.49l74.23-135.88v-85.07h-2.1
				c-7.91,0-14.34-6.42-14.34-14.32c0-3.82,1.49-7.42,4.2-10.13c2.7-2.71,6.31-4.19,10.14-4.19h104.16
				c7.91,0,14.34,6.42,14.34,14.32c0,3.82-1.49,7.43-4.2,10.13c-2.71,2.71-6.31,4.19-10.14,4.19h-2.28v85.09
				c6.15,11.45,62.98,117.25,70.41,130.5C661.08,661.46,662.35,663.56,663.69,665.79z"/>
			<path class="st2" d="M519.92,532.41c0,6.59,0.6,15.22-14.28,45.65h-12.96c0,0,12.48-28.04,13.92-33.07
				c1.44-5.03,2.16-26,2.16-32.83c0-6.83,0-55.24,0-57.76c0-2.52,11.16-2.88,11.16,0S519.92,525.82,519.92,532.41z"/>
			<g>
				<g id="XMLID_3_">
					<g>
						<path class="st3" d="M655.99,670.43c8.81,14.58,20.89,34.55,12.12,53.75c-10.48,22.92-22.35,26.79-52.73,26.79h-75.81v-6.95
							v-5.09c30.35,0,60.45,0,72.39,0c25.92,0,31.68-1.08,41.4-14.38c9.72-13.3,2.28-31.09-1.8-38.76
							c-4.08-7.67-57-104.49-57-104.49h-54.99v-8.99V424.39h52.35c2.94,0,5.34,2.4,5.34,5.33c0,1.43-0.55,2.77-1.56,3.77
							c-1.01,1.01-2.35,1.56-3.78,1.56c0,0-5.56,0-9.35,0l-1.93-3.39v3.39c-0.9,0-1.48,0-1.53,0l1.53,1.14v95.19l0.53,1
							c0.63,1.17,63.17,117.62,71.02,131.64C653.3,665.99,654.6,668.14,655.99,670.43z"/>
						<path class="st3" d="M580.64,431.67l1.93,3.39c-0.72,0-1.38,0-1.93,0V431.67z"/>
						<path class="st3" d="M580.64,435.06v1.14l-1.53-1.14C579.16,435.06,579.74,435.06,580.64,435.06z"/>
					</g>
				</g>
			</g>
			<path class="st4" d="M422,715.87c5.64,21.09,24.72,23.07,38.64,23.07c7.51,0,43.39,0,78.93,0v5.09v6.95H460.4
				c-2.64,0-6.13-0.03-9.77-0.28c-19.51-1.33-31.4-8.28-37.42-21.85c-9.19-20.73-4.28-35.06,10.2-59.33l75.45-138.11v-96.35h-11.1
				c-2.94,0-5.34-2.4-5.34-5.33c0-1.43,0.55-2.77,1.56-3.77c1.01-1.01,2.35-1.56,3.78-1.56h51.81v147.92v8.99h-55.41
				c0,0-44.16,81.96-50.88,94.42C426.56,688.19,418.04,699.57,422,715.87z M505.64,578.07c14.88-30.44,14.28-39.06,14.28-45.65
				c0-6.59,0-75.13,0-78.01s-11.16-2.52-11.16,0c0,2.52,0,50.93,0,57.76c0,6.83-0.72,27.8-2.16,32.83
				c-1.44,5.03-13.92,33.07-13.92,33.07H505.64z"/>
			<path class="st5" d="M651.56,685.79c4.08,7.67,11.52,25.46,1.8,38.76c-9.72,13.3-15.48,14.38-41.4,14.38
				c-11.94,0-42.04,0-72.39,0V581.3h54.99C594.56,581.3,647.48,678.12,651.56,685.79z"/>
			<path class="st6" d="M453.2,722.58c-2.79,2.88-16.56,1.08-18.36-14.47c-1.38-11.77,6.75-23.82,10.35-30.38
				c3.6-6.56,40.89-78.1,40.89-78.1l12.84,0.72c0,0-42.39,84.21-45.45,90.32c-3.06,6.11-5.22,11.68-4.32,16.72
				C450.05,712.42,455.99,719.7,453.2,722.58z"/>
			<path class="st7" d="M434.84,708.11c1.8,15.55,15.57,17.34,18.36,14.47s-3.15-10.16-4.05-15.19c-0.9-5.03,1.26-10.6,4.32-16.72
				c3.06-6.11,45.45-90.32,45.45-90.32l-12.84-0.72c0,0-37.29,71.54-40.89,78.1C441.59,684.29,433.46,696.33,434.84,708.11z
				 M539.57,581.3v157.63c-35.54,0-71.42,0-78.93,0c-13.92,0-33-1.98-38.64-23.07c-3.96-16.3,4.56-27.68,11.28-40.14
				c6.72-12.46,50.88-94.42,50.88-94.42H539.57z"/>
		</g>
		<polygon points="771.26,564.96 728.6,528.65 728.6,549.8 645.32,549.8 645.32,579.76 728.6,579.76 728.6,601.81 		"/>
		<polygon class="st8" points="351.4,549.8 351.4,528.65 308.74,564.96 351.4,601.81 351.4,579.76 434.68,579.76 434.68,549.8 		"/>
		<path class="st9" d="M538,388.44c-1.26-16.38-0.54-39.96,21.6-54.36s52.74-14.04,52.74-14.04s0.18,28.26-10.62,49.68
			c-10.8,21.42-40.14,33.84-57.06,27.72c0,0,17.1-27,43.56-53.1c0,0-15.42,7.98-31.62,24.3C540.4,384.96,538,388.44,538,388.44z"/>
		<path class="st9" d="M530.32,398.28c-7.56,0.12-28.92,0.24-41.4-18.72c-12.48-18.96-8.28-39.72-8.28-39.72s20.64,0.12,35.88,8.52
			s22.92,25.68,18.48,43.2c0,0-21.84-27-36.36-33.12c0,0,18.84,21.36,22.92,26.64C525.64,390.36,530.32,398.28,530.32,398.28z"/>
	</g>
</g>
</svg>
