<?xml version="1.0" encoding="utf-8"?>
<!-- Generator: Adobe Illustrator 23.0.5, SVG Export Plug-In . SVG Version: 6.00 Build 0)  -->
<svg version="1.1" id="Layer_1" xmlns="http://www.w3.org/2000/svg" xmlns:xlink="http://www.w3.org/1999/xlink" x="0px" y="0px"
	 viewBox="0 0 1080 1080" style="enable-background:new 0 0 1080 1080;" xml:space="preserve">
<style type="text/css">
	.st0{fill:#000001;}
</style>
<g>
	<path d="M791.85,595.6c-1.8-12.36-12.36-24.48-17.64-29.52c-5.28-5.04-9.12-14.4-10.2-22.08c-1.08-7.68-0.36-13.92-4.44-28.2
		c-4.08-14.28-19.92-17.52-31.44-21.48c-11.52-3.96-15.24-13.68-16.2-22.68s-1.92-16.92-8.16-24.12c-6.24-7.2-21.48-7.68-34.08-13.2
		c-12.6-5.52-15.12-18.96-19.44-33.72c-4.32-14.76-11.64-21.96-25.08-29.64s-24.12-0.6-38.28-2.4c-14.16-1.8-18.96-9.12-24.72-15.72
		c-5.76-6.6-7.8-12.84-22.24-19.32c-14.44-6.48-28.76-2.64-33.92,1.2c-5.16,3.84-15,12.84-25.32,22.2
		c-10.32,9.36-12.24,12.72-16.32,26.16s-13.8,18.6-25.8,19.8s-26.4,4.2-33.24,15.48c-6.84,11.28-7.8,24.6-10.2,31.92
		c-2.4,7.32-8.04,19.56-22.8,23.88c-14.76,4.32-21.84,7.92-26.88,16.44c-5.04,8.52-11.64,22.8-13.2,33.96
		c-1.56,11.16-4.32,18.12-13.08,25.56s-20.64,18.84-26.88,29.52s-6.96,23.88-1.68,29.16c5.28,5.28,18.12,8.76,34.2,10.08
		s34.8,6.24,40.92,8.28l20.43,6.91c0.9-0.58,1.89-1.15,2.97-1.7c7.33-3.75,10.04-5.52,12.7-9.25c2.48-3.49,6.26-5.49,10.37-5.49
		c3.88,0,7.36,1.78,9.31,4.75c2,3.04,3.42,3.74,5.06,3.88c8.01,0.68,9.14,6.35,9.88,10.1c0.52,2.6,2.08,5.91,4.42,7.44
		c0.5,0.33,0.96,0.69,1.39,1.09c4.17,0.5,7.68,0.78,9.99,0.75c12.06-0.18,40.68-1.08,53.28-1.08c12.6,0,38.16,1.44,57.78,3.24
		s50.82-1.92,50.82-1.92l0.24-0.02c1.65-2.98,4.12-5.48,6.3-7.06c1.22-0.88,1.37-1.42,1.83-3.01c0.49-1.69,1.16-4.01,3.28-6.31
		c2.71-2.95,5.25-3.3,6.94-3.53c1.09-0.15,1.8-0.24,3.44-1.48c3.33-2.53,7.04-4.86,11.63-4.86c3.13,0,6.27,1.1,9.59,3.36
		c1.11,0.75,2.04,1.41,2.84,1.98c3.43,2.44,3.57,2.54,7.18,2.64c12.33,0.36,16.74,6.62,18.21,12.16
		c11.03-0.34,31.15-8.51,40.48-12.59c9.6-4.2,31.8-6.84,44.76-9.36C783.81,615.28,793.65,607.96,791.85,595.6z M424.62,437.29
		c1.19,0,2.16,0.97,2.16,2.16s-0.97,2.16-2.16,2.16s-2.16-0.97-2.16-2.16S423.43,437.29,424.62,437.29z M395.82,500.29
		c1.49,0,2.7,1.21,2.7,2.7c0,1.49-1.21,2.7-2.7,2.7c-1.49,0-2.7-1.21-2.7-2.7C393.12,501.5,394.33,500.29,395.82,500.29z
		 M373.64,526.91c1.16,0,2.09,0.94,2.09,2.09s-0.94,2.09-2.09,2.09c-1.16,0-2.09-0.94-2.09-2.09S372.48,526.91,373.64,526.91z
		 M360.99,529.49c0.89,0,1.61,0.72,1.61,1.61s-0.72,1.61-1.61,1.61s-1.61-0.72-1.61-1.61S360.1,529.49,360.99,529.49z
		 M396.72,590.16c-1.37,0-2.47-1.11-2.47-2.48c0-1.37,1.11-2.47,2.47-2.47c1.37,0,2.48,1.11,2.48,2.47
		C399.2,589.05,398.09,590.16,396.72,590.16z M412.47,521.72c-5.01,3.21-5.34,6.43-5.94,12.28c-0.29,2.88-0.63,6.14-1.61,10.12
		c-3.09,12.56-8.52,15.54-17.85,19.73c-5.93,2.66-13.27,3.76-19.18,4.65c-3.05,0.46-5.68,0.85-7.38,1.36
		c-4.74,1.41-14.17,9.06-16.97,14.65l-0.92,1.84c-2.41,4.86-4,8.07-7.36,11.76c-3.72,4.09-12.25,8.92-12.61,9.12
		c-0.23,0.13-0.48,0.19-0.73,0.19c-0.52,0-1.03-0.28-1.31-0.76c-0.41-0.72-0.15-1.64,0.57-2.04c0.08-0.05,8.47-4.79,11.87-8.52
		c3.07-3.38,4.51-6.28,6.89-11.07l0.92-1.85c3.2-6.41,13.3-14.55,18.79-16.19c1.89-0.56,4.63-0.97,7.79-1.45
		c5.72-0.86,12.85-1.93,18.4-4.42c8.96-4.03,13.4-6.46,16.17-17.71c0.93-3.78,1.25-6.93,1.54-9.71c0.62-6.1,1.07-10.51,7.3-14.5
		c1.68-1.08,3.16-1.98,4.47-2.77c5.09-3.08,7.19-4.36,8.6-8.51c0.27-0.79,1.11-1.21,1.9-0.94c0.78,0.27,1.21,1.12,0.94,1.9
		c-1.76,5.19-4.64,6.94-9.89,10.12C415.58,519.77,414.12,520.66,412.47,521.72z M421.47,605.92c-1.38,0-2.49-1.11-2.49-2.49
		s1.11-2.49,2.49-2.49s2.49,1.11,2.49,2.49S422.85,605.92,421.47,605.92z M424.89,546.01c0-1.59,1.29-2.88,2.88-2.88
		c1.59,0,2.88,1.29,2.88,2.88s-1.29,2.88-2.88,2.88C426.18,548.89,424.89,547.6,424.89,546.01z M430.2,599.92
		c-1.19,0-2.16-0.97-2.16-2.16s0.97-2.16,2.16-2.16s2.16,0.97,2.16,2.16S431.39,599.92,430.2,599.92z M555.39,393.19
		c1.19,0,2.16,0.97,2.16,2.16c0,1.19-0.97,2.16-2.16,2.16s-2.16-0.97-2.16-2.16C553.23,394.16,554.2,393.19,555.39,393.19z
		 M545.94,384.73c1.39,0,2.52,1.13,2.52,2.52c0,1.39-1.13,2.52-2.52,2.52c-1.39,0-2.52-1.13-2.52-2.52
		C543.42,385.86,544.55,384.73,545.94,384.73z M481.68,391.75c1.69,0,3.06,1.37,3.06,3.06s-1.37,3.06-3.06,3.06
		s-3.06-1.37-3.06-3.06S479.99,391.75,481.68,391.75z M450,512.44c-1.79,0-3.24-1.45-3.24-3.24c0-1.79,1.45-3.24,3.24-3.24
		c1.79,0,3.24,1.45,3.24,3.24C453.24,510.99,451.79,512.44,450,512.44z M453.6,499.93c-1.13,0-2.05-0.92-2.05-2.05
		s0.92-2.05,2.05-2.05c1.13,0,2.05,0.92,2.05,2.05S454.73,499.93,453.6,499.93z M458.64,541.24c-1.04,0-1.89-0.85-1.89-1.89
		c0-1.04,0.85-1.89,1.89-1.89s1.89,0.85,1.89,1.89C460.53,540.4,459.68,541.24,458.64,541.24z M490.69,619
		c-1.81,3.9-3.73,8.23-3.64,10.29c0.03,0.83-0.61,1.53-1.44,1.56c-0.02,0-0.04,0-0.06,0c-0.8,0-1.47-0.63-1.5-1.44
		c-0.1-2.47,1.36-6.15,3.92-11.67c2.06-4.45-0.05-9.51-2.12-13.43c-2.2-4.15-1.03-9.67-0.09-14.11c0.22-1.03,0.43-2.01,0.56-2.86
		c0.51-3.14-3.3-7.14-6.37-10.35c-0.47-0.49-0.92-0.97-1.35-1.43c-3.18-3.43-3.14-6.79-3.09-10.68c0.01-0.98,0.03-1.99-0.01-3.07
		c-0.03-0.83,0.62-1.52,1.45-1.55c0.82-0.05,1.52,0.62,1.55,1.45c0.04,1.15,0.03,2.19,0.01,3.21c-0.05,3.65-0.08,6.05,2.29,8.6
		c0.42,0.45,0.87,0.92,1.33,1.4c3.52,3.7,7.91,8.3,7.15,12.91c-0.15,0.92-0.36,1.93-0.59,3c-0.84,3.96-1.88,8.89-0.19,12.08
		C490.89,607.44,493.31,613.35,490.69,619z M496.89,510.73c-1.34,0-2.43-1.09-2.43-2.43s1.09-2.43,2.43-2.43
		c1.34,0,2.43,1.09,2.43,2.43S498.23,510.73,496.89,510.73z M498.96,477.88c-1.79,0-3.24-1.45-3.24-3.24c0-1.79,1.45-3.24,3.24-3.24
		c1.79,0,3.24,1.45,3.24,3.24C502.2,476.43,500.75,477.88,498.96,477.88z M518.1,351.48c-2.83,4.07-4.92,10.77-3.53,14.25l0.12,0.29
		c1.65,4.11,3.69,9.22-0.27,15.06l-0.08,0.12c-3.54,5.22-4.86,7.17-4.62,13.02c0.29,6.81-1.69,9.57-6.28,14.25
		c-0.73,0.75-1.47,1.56-2.24,2.4c-3.64,3.99-8.17,8.95-15.68,11.22c-8.72,2.63-11.27,3.55-17.85,8.91
		c-0.67,0.55-1.33,1.08-1.98,1.59c-5.79,4.62-9.98,7.95-9.98,17.14c0,11.46-5.94,17.63-6.19,17.88c-0.29,0.3-0.68,0.45-1.07,0.45
		c-0.38,0-0.76-0.14-1.05-0.43c-0.59-0.58-0.6-1.53-0.02-2.12c0.07-0.07,5.33-5.63,5.33-15.78c0-10.63,5.15-14.73,11.11-19.48
		c0.64-0.51,1.29-1.03,1.95-1.57c6.97-5.69,10.08-6.8,18.87-9.45c6.72-2.03,10.76-6.46,14.33-10.37c0.79-0.87,1.56-1.7,2.31-2.48
		c4.21-4.3,5.66-6.32,5.42-12.03c-0.29-6.84,1.52-9.51,5.13-14.83l0.08-0.12c3.07-4.52,1.49-8.46-0.03-12.26l-0.12-0.29
		c-1.83-4.58,0.52-12.27,3.85-17.07c0.47-0.68,1.41-0.85,2.09-0.38C518.41,349.86,518.57,350.8,518.1,351.48z M532.98,537.1
		c-1.94,0-3.51-1.57-3.51-3.51c0-1.94,1.57-3.51,3.51-3.51s3.51,1.57,3.51,3.51C536.49,535.53,534.92,537.1,532.98,537.1z
		 M539.28,583.77c-1.12,0-2.02-0.91-2.02-2.03c0-1.12,0.91-2.02,2.02-2.02c1.12,0,2.03,0.91,2.03,2.02
		C541.31,582.86,540.4,583.77,539.28,583.77z M561.24,604.15c-1.54,0-2.79-1.25-2.79-2.79c0-1.54,1.25-2.79,2.79-2.79
		s2.79,1.25,2.79,2.79C564.03,602.9,562.78,604.15,561.24,604.15z M579.47,552.05c-0.63,1.08-1.26,2.18-1.88,3.31
		c-3.4,6.31-1.39,17.81-1.37,17.92c0.15,0.82-0.4,1.59-1.21,1.74c-0.09,0.02-0.18,0.02-0.27,0.02c-0.71,0-1.34-0.51-1.47-1.24
		c-0.09-0.51-2.21-12.66,1.69-19.88c0.63-1.16,1.28-2.28,1.92-3.39c3.07-5.29,5.96-10.28,5.46-18.67
		c-0.59-9.85-5.21-15.63-15.98-19.94c-12.23-4.89-15.63-13.91-17.13-26.87c-0.21-1.8-0.38-3.55-0.55-5.25
		c-1.14-11.59-2.13-18.23-9.09-19.92c-9.3-2.25-10.65-4.37-12.62-8.57l-0.37-0.79c-1.85-3.88-5.56-7.86-5.59-7.9
		c-0.56-0.61-0.53-1.55,0.07-2.12c0.61-0.56,1.56-0.53,2.12,0.07c0.16,0.18,4.05,4.36,6.11,8.66l0.38,0.81
		c1.58,3.38,2.3,4.92,10.61,6.93c9.37,2.27,10.3,11.67,11.37,22.54c0.17,1.68,0.34,3.42,0.54,5.2c1.42,12.17,4.37,20.07,15.27,24.43
		c11.86,4.75,17.2,11.49,17.86,22.54C585.88,540.99,582.62,546.61,579.47,552.05z M585.18,458.26c-1.14,0-2.07-0.93-2.07-2.07
		s0.93-2.07,2.07-2.07s2.07,0.93,2.07,2.07S586.32,458.26,585.18,458.26z M599.85,613c-1.79,0-3.24-1.45-3.24-3.24
		c0-1.79,1.45-3.24,3.24-3.24c1.79,0,3.24,1.45,3.24,3.24C603.09,611.55,601.64,613,599.85,613z M596.07,489.58
		c0-1.44,1.17-2.61,2.61-2.61s2.61,1.17,2.61,2.61s-1.17,2.61-2.61,2.61S596.07,491.02,596.07,489.58z M615.65,436.06
		c-0.11,0.02-0.21,0.03-0.32,0.03c-0.69,0-1.31-0.48-1.47-1.18c-0.02-0.11-2.39-10.76-9.02-14.69c-7.39-4.38-10.76-7.3-9.72-15.17
		c0.87-6.58,0.64-10.16-3.02-13.98c-0.57-0.6-0.55-1.55,0.05-2.12c0.6-0.57,1.55-0.55,2.12,0.05c4.45,4.65,4.78,9.18,3.82,16.44
		c-0.78,5.92,1.06,7.92,8.28,12.19c7.77,4.6,10.32,16.15,10.42,16.64C616.97,435.09,616.46,435.88,615.65,436.06z M618.21,399
		c-1.47,0-2.66-1.19-2.66-2.65s1.19-2.66,2.66-2.66c1.47,0,2.65,1.19,2.65,2.66S619.68,399,618.21,399z M627.33,600.4
		c-1.66,0-3-1.34-3-3s1.34-3,3-3s3,1.34,3,3S628.99,600.4,627.33,600.4z M628.05,515.74c-1.49,0-2.7-1.21-2.7-2.7
		c0-1.49,1.21-2.7,2.7-2.7s2.7,1.21,2.7,2.7C630.75,514.53,629.54,515.74,628.05,515.74z M637.71,462.91
		c-1.18,0-2.13-0.95-2.13-2.13c0-1.18,0.95-2.13,2.13-2.13c1.18,0,2.13,0.95,2.13,2.13C639.84,461.96,638.89,462.91,637.71,462.91z
		 M725.37,529.36c1.72,0,3.12,1.4,3.12,3.12c0,1.72-1.4,3.12-3.12,3.12s-3.12-1.4-3.12-3.12
		C722.25,530.76,723.65,529.36,725.37,529.36z M685.77,484.36c1.33,0,2.4,1.07,2.4,2.4s-1.07,2.4-2.4,2.4c-1.33,0-2.4-1.07-2.4-2.4
		S684.44,484.36,685.77,484.36z M682.07,466.95c1.07,0,1.93,0.87,1.93,1.93s-0.87,1.93-1.93,1.93s-1.93-0.87-1.93-1.93
		S681,466.95,682.07,466.95z M665.13,560.08c-1.26,0-2.28-1.02-2.28-2.28s1.02-2.28,2.28-2.28s2.28,1.02,2.28,2.28
		S666.39,560.08,665.13,560.08z M686.49,555.64c-1.13,0-2.04-0.91-2.04-2.04c0-1.13,0.91-2.04,2.04-2.04s2.04,0.91,2.04,2.04
		C688.53,554.73,687.62,555.64,686.49,555.64z M712.17,593.62c0-1.29,1.05-2.34,2.34-2.34s2.34,1.05,2.34,2.34s-1.05,2.34-2.34,2.34
		S712.17,594.91,712.17,593.62z M718.65,612.16c-1.59,0-2.88-1.29-2.88-2.88s1.29-2.88,2.88-2.88c1.59,0,2.88,1.29,2.88,2.88
		S720.24,612.16,718.65,612.16z M752.11,606.28c-0.27,0.52-0.79,0.82-1.34,0.82c-0.23,0-0.46-0.05-0.68-0.17
		c-4.38-2.24-10.12-12.03-12.59-18.24c-2.45-6.16-3.74-7.65-13.04-10.83c-8.37-2.87-11.94-6.45-16.08-10.6
		c-0.84-0.84-1.71-1.71-2.65-2.6c-5.32-5.06-7.12-12.31-8.7-18.71c-0.15-0.61-0.3-1.21-0.45-1.81c-1.85-7.32-4.12-11.96-9.66-12.46
		c-7.11-0.65-12.7-1.15-16.78-7.43c-3.69-5.66-7.77-13.46-7.81-13.53c-0.38-0.73-0.1-1.64,0.63-2.02c0.73-0.38,1.64-0.1,2.02,0.63
		c0.04,0.08,4.06,7.74,7.67,13.29c3.29,5.05,7.75,5.46,14.51,6.07c8.13,0.74,10.62,7.98,12.33,14.72c0.15,0.6,0.3,1.21,0.46,1.83
		c1.56,6.29,3.17,12.8,7.85,17.26c0.96,0.91,1.85,1.8,2.7,2.66c4.04,4.04,7.22,7.24,14.93,9.88c10.3,3.53,12.12,5.66,14.86,12.57
		c2.81,7.07,8.24,15.18,11.17,16.68C752.2,604.64,752.49,605.54,752.11,606.28z"/>
	<path d="M438.12,647.98c-1.62-1.07-2.93-2.53-3.96-4.16c-1.34-2.09-2.2-4.44-2.61-6.49c-0.72-3.63-1.17-5.73-5.4-6.09
		c-4.23-0.36-6.75-2.97-8.82-6.12c-2.07-3.15-8.1-3.78-11.43,0.9c-3.16,4.44-6.4,6.61-13.34,10.21c-0.37,0.19-0.75,0.39-1.15,0.59
		c-7.74,3.96-9.13,8.03-9.9,15.21c-0.54,5.04-0.18,8.73,7.47,10.8c7.65,2.07,17.19,4.32,29.34,4.23c12.15-0.09,20.79-3.69,22.5-6.93
		C442.53,656.89,441.81,650.41,438.12,647.98z M397.53,654.1c-1.39,0-2.52-1.13-2.52-2.52c0-1.39,1.13-2.52,2.52-2.52
		c1.39,0,2.52,1.13,2.52,2.52C400.05,652.97,398.92,654.1,397.53,654.1z M413.1,642.04c-1.21,0-2.21-0.89-2.39-2.05
		c-0.02-0.13-0.04-0.25-0.04-0.38c0-1.34,1.09-2.43,2.43-2.43s2.43,1.09,2.43,2.43c0,0.43-0.12,0.82-0.31,1.17
		C414.8,641.53,414.02,642.04,413.1,642.04z M418.5,661.39c-1.14,0-2.07-0.93-2.07-2.07s0.93-2.07,2.07-2.07s2.07,0.93,2.07,2.07
		S419.64,661.39,418.5,661.39z M421.11,648.79c-1.59,0-2.88-1.29-2.88-2.88c0-1.59,1.29-2.88,2.88-2.88s2.88,1.29,2.88,2.88
		C423.99,647.5,422.7,648.79,421.11,648.79z"/>
	<path d="M680.94,641.68c-0.12-0.55-0.26-1.07-0.44-1.56c-2.01-5.82-7.51-7.36-13.24-7.53c-6.21-0.18-6.48-1.26-12.69-5.49
		c-6.21-4.23-10.17-2.61-15.39,1.35s-6.66,1.08-9.72,4.41c-3.06,3.33-1.26,6.66-5.85,9.99c-0.96,0.7-1.88,1.53-2.69,2.44
		c-3.08,3.42-4.75,7.92-2.26,10.34c3.15,3.06,23.85,7.47,35.19,6.93c0,0,9.54-0.27,18.9-2.52s13.14-5.04,11.43-7.32
		C682.47,650.44,682.47,648.79,680.94,641.68z M632.37,651.58c-1.23,0-2.22-0.99-2.22-2.22s0.99-2.22,2.22-2.22s2.22,0.99,2.22,2.22
		S633.6,651.58,632.37,651.58z M645.33,647.14c-1.69,0-3.06-1.37-3.06-3.06c0-0.22,0.03-0.44,0.07-0.65
		c0.3-1.38,1.52-2.41,2.99-2.41c1.28,0,2.38,0.79,2.83,1.91c0.15,0.36,0.23,0.75,0.23,1.15
		C648.39,645.77,647.02,647.14,645.33,647.14z M658.41,652.72c-1.39,0-2.52-1.13-2.52-2.52c0-1.39,1.13-2.52,2.52-2.52
		c1.39,0,2.52,1.13,2.52,2.52C660.93,651.59,659.8,652.72,658.41,652.72z M671.73,647.14c-1.69,0-3.06-1.37-3.06-3.06
		s1.37-3.06,3.06-3.06s3.06,1.37,3.06,3.06S673.42,647.14,671.73,647.14z"/>
	<path d="M351.83,644.22c-2.22-0.35-4.94,0.01-5.84,1.42c-0.62,0.96-0.61,2.13,0.01,3.13c0.48,0.77,1.96,2.39,5.93,2.39
		c0.56,0,1.18-0.03,1.85-0.1l0.07-0.01c0.08-0.02,0.75-0.21,1.34-0.8c0.56-0.55,1.13-1.58,0.7-3.29
		C355.55,645.59,354.07,644.59,351.83,644.22z"/>
	<path d="M326.75,638.01c-3.7-3.19-8.8-5-12.68-4.51c-7.12,0.91-12.44,7.86-12.44,13.46c0,1.13,0.38,2.07,1.12,2.79
		c1.75,1.71,5.29,2.05,9.64,2.05c1.37,0,2.82-0.03,4.32-0.07c1.52-0.03,3.08-0.07,4.62-0.07h0.04c0.39-0.03,9.47-0.83,9.34-6.82
		C330.66,642.6,329.25,640.17,326.75,638.01z"/>
	<path d="M466.9,662.49c-2.91,0.86-4.76,2.16-5.06,3.57c-0.31,1.46,0.1,2.92,1.17,4.13c1.59,1.8,4.37,2.78,7.79,2.78
		c0.53,0,1.09-0.02,1.65-0.07c3.78-0.33,7.04-2.27,7.93-4.73c0.57-1.54,0.12-3.15-1.26-4.52
		C476.71,661.23,471.14,661.23,466.9,662.49z"/>
	<path d="M555.57,670.65c-1.13,0.22-3.81,0.88-4.18,2.41c-0.27,1.14-0.03,2.24,0.68,3.13c0.86,1.08,2.86,2.35,7.48,2.35h0.35
		c1.18-0.02,3.35-1.07,4.22-2.76c0.4-0.78,0.68-2.01-0.31-3.43C562.43,670.38,558.57,670.09,555.57,670.65z"/>
	<path d="M593.34,658.82c-6.01-0.66-10.04,2.58-10.54,5.08c-0.19,0.94-0.31,2.72,0.99,4.11c1.08,1.15,2.87,1.73,5.35,1.73
		c0.85,0,1.77-0.07,2.77-0.2c7.24-0.97,8.73-3.27,8.72-5.03C600.59,661.76,596.68,659.2,593.34,658.82z"/>
	<path d="M749.98,652.52c-7.17-0.19-12.21,2.86-13.1,7.97c-0.31,1.77-0.06,3.11,0.78,4.09c1.61,1.89,5.39,2.37,11.31,2.37
		c0.75,0,1.53-0.01,2.35-0.02c0.45,0.01,8.18,0.12,9.81-3.44c0.6-1.3,0.3-3.04-0.84-4.88C758.52,655.76,754.54,652.64,749.98,652.52
		z"/>
	<path d="M720.99,656.34c-2.53-1-6.34-1.35-8.35-0.2c-0.7,0.4-1.13,0.98-1.23,1.66c-0.2,1.25,0.09,2.37,0.83,3.23
		c0.57,0.67,1.38,1.18,2.43,1.53c1.06,0.34,2.36,0.53,3.88,0.55h0.07c2.49,0,4.12-1.66,4.44-3.31
		C723.36,658.29,722.57,656.96,720.99,656.34z"/>
</g>
<g>
	<path class="st0" d="M540,834.69c-91.69,0-177.9-35.54-242.74-100.08c-31.53-31.38-56.29-67.93-73.58-108.62
		c-17.91-42.14-26.99-86.9-26.99-133.04c0-46.14,9.08-90.9,26.99-133.04c17.29-40.7,42.05-77.24,73.58-108.62
		C362.1,186.76,448.31,151.22,540,151.22c91.69,0,177.9,35.54,242.74,100.08c31.53,31.38,56.29,67.93,73.58,108.62
		c17.91,42.14,26.99,86.9,26.99,133.04c0,46.14-9.08,90.9-26.99,133.04c-17.29,40.7-42.05,77.24-73.58,108.62
		C717.9,799.15,631.69,834.69,540,834.69z M540,170.22c-178.83,0-324.31,144.78-324.31,322.74c0,177.96,145.48,322.73,324.31,322.73
		c178.83,0,324.31-144.78,324.31-322.73C864.31,315,718.83,170.22,540,170.22z"/>
</g>
</svg>
