<?xml version="1.0" encoding="utf-8"?>
<!-- Generator: Adobe Illustrator 23.0.5, SVG Export Plug-In . SVG Version: 6.00 Build 0)  -->
<svg version="1.1" id="Layer_1" xmlns="http://www.w3.org/2000/svg" xmlns:xlink="http://www.w3.org/1999/xlink" x="0px" y="0px"
	 viewBox="0 0 1080 1080" style="enable-background:new 0 0 1080 1080;" xml:space="preserve">
<style type="text/css">
	.st0{fill:#F8C4B2;}
	.st1{fill:#F8BEAC;}
	.st2{fill:#FFFFFF;}
	.st3{fill:#E3AC6F;}
	.st4{fill:#FCFCFC;}
	.st5{fill:#F9BDAB;}
	.st6{fill:#F9C0AD;}
	.st7{fill:#D99F62;}
	.st8{fill:#FCD8C8;}
	.st9{fill:#FCD8CA;}
	.st10{fill:#D8A168;}
	.st11{fill:#F7504E;}
	.st12{fill:#F9BAA8;}
	.st13{fill:#F55451;}
	.st14{fill:#F9B8A6;}
	.st15{fill:#FAB6A2;}
	.st16{fill:#E8B276;}
	.st17{fill:#FBE2D8;}
	.st18{fill:#FAC2AE;}
	.st19{fill:#F9B8A4;}
	.st20{fill:#FBD6C8;}
	.st21{fill:#DB9F61;}
	.st22{fill:#F7C2AF;}
	.st23{fill:#E5AC77;}
	.st24{fill:#D5985E;}
	.st25{fill:#FCFAFA;}
	.st26{fill:#F9DCCD;}
	.st27{fill:#F9BCA9;}
	.st28{fill:#F9C1AD;}
	.st29{fill:#FADACD;}
	.st30{fill:#D89F60;}
</style>
<g>
	<g>
		<g id="XMLID_2_">
			<g>
				<path d="M884.71,328.52c19.51,46.13,29.4,95.12,29.4,145.62s-9.89,99.49-29.4,145.62c-18.85,44.55-45.82,84.56-80.17,118.92
					c-34.36,34.35-74.37,61.32-118.92,80.17c-46.12,19.51-95.12,29.4-145.62,29.4s-99.5-9.89-145.62-29.4
					c-44.55-18.85-84.56-45.82-118.92-80.17c-34.35-34.36-61.32-74.37-80.17-118.92c-19.51-46.13-29.4-95.12-29.4-145.62
					s9.89-99.49,29.4-145.62c18.85-44.55,45.82-84.56,80.17-118.92c34.36-34.35,74.37-61.32,118.92-80.17
					c46.13-19.51,95.12-29.4,145.62-29.4s99.5,9.89,145.62,29.4c44.55,18.85,84.56,45.82,118.92,80.17
					C838.89,243.96,865.86,283.97,884.71,328.52z M893.11,474.14c0-194.71-158.4-353.11-353.11-353.11s-353.11,158.4-353.11,353.11
					S345.29,827.25,540,827.25S893.11,668.85,893.11,474.14z"/>
				<path class="st0" d="M779.42,526.19c13.13-0.09,20.12,7.33,31.52-4.73c1.21,2.36,1.95,4.97,1.71,7.69
					c-0.4,4.64-2.29,8.29-5.45,10.57c-3.46,2.49-8.22,3.17-13.4,1.93c-2.59-0.62-4.6-1.21-6.37-1.73c-7.01-2.05-10.38-2.79-23.7-0.6
					c-4.11,0.67-8.15,2.24-12.1,4.43c-1.49,0.82-2.97,1.73-4.44,2.73c0.22-3.86-0.05-7.65-0.42-10.72
					C751.52,533.5,767.72,526.27,779.42,526.19z"/>
				<path class="st1" d="M796.02,329.46c2.33,12.32-3.61,15.86-8.28,17.46c-1.72,0.58-3.86,0.81-6.34,1.08
					c-7.17,0.77-16.99,1.83-26.92,13.05c-2.9,3.28-5.46,6.83-7.68,10.69c-1.26-3.17-2.88-5.96-4.43-8.25
					c2.87-5.36,6.26-10.3,10.23-14.16c13.68-13.32,25.56-12.42,35.1-17.64c3.48-1.9,4.18-5.39,3.67-9.05
					C793.64,324.2,795.44,326.38,796.02,329.46z"/>
				<path d="M300.7,647.14c-0.03,5.88-0.09,16.82,6.26,23.2c3.7,3.72,9.32,5.61,16.7,5.61h438c8.25,0,23.86-4.59,23.86-21.94
					c0-5.65-0.11-11.11-0.26-15.9c1.17-1.09,2.18-2.28,3.03-3.6c3.04-4.7,3.53-10.08,2.98-14.93c0.11,0.3,0.18,0.62,0.2,0.96
					c0.01,0.15,1.05,15.92,1.05,33.47c0,19-15.52,28.94-30.86,28.94h-438c-9.31,0-16.6-2.58-21.66-7.67
					c-8.4-8.45-8.34-21.28-8.3-28.17v-1.14v-34.38c0,10.61,2.3,18.59,7,24.1V647.14z"/>
				<path d="M785.26,638.11c-0.29-9.67-0.74-16.65-0.77-17.09c0-0.01,0-0.02,0-0.02c-0.13-1.93,1.33-3.59,3.25-3.72
					c1.57-0.1,2.99,0.86,3.52,2.27c0,0.01,0.01,0.02,0.01,0.03c0.55,4.85,0.06,10.23-2.98,14.93
					C787.44,635.83,786.43,637.02,785.26,638.11z"/>
				<circle class="st2" cx="790.7" cy="491.41" r="2.54"/>
				<path d="M676.36,360.81c1.42-0.26,2.6-1.38,2.84-2.89c0.2-1.26,0.36-2.52,0.47-3.79c6.43-1.28,11.98-2.58,16.24-4.13
					c19.88-7.21,34.78-18.57,40.73-26.63c2.4-3.24,2.5-6.91,2.63-11.16c0.12-4.29,0.27-9.15,2.84-14.16
					c2.88-5.62,10.19-9.34,18.61-9.47c7.39-0.13,13.33,2.59,15.88,7.22c2.99,5.4,3.64,10.72,4.07,14.25
					c0.07,0.53,0.14,1.14,0.22,1.64c0.15,0.03,0.3,0.06,0.44,0.09c1.66,0.32,4.17,0.8,6.91,1.71c1.27,2.53,2.68,5.91,3.13,9.15
					c-3.63-2.5-8.46-3.43-11.36-3.99c-1.67-0.32-2.59-0.49-3.41-0.96c-2.2-1.26-2.49-3.7-2.87-6.79c-0.39-3.17-0.93-7.5-3.25-11.72
					c-1.23-2.22-5.08-3.66-9.65-3.6c-5.69,0.09-10.83,2.42-12.5,5.67c-1.84,3.6-1.95,7.27-2.06,11.16
					c-0.14,4.74-0.3,10.12-3.99,15.12c-6.1,8.25-21.28,20.81-43.99,29.05c-5.66,2.05-13.11,3.66-21.73,5.28L676.36,360.81z"/>
				<path class="st2" d="M788.16,491.41c0,1.4,1.14,2.54,2.54,2.54c1.4,0,2.54-1.14,2.54-2.54s-1.14-2.54-2.54-2.54
					C789.3,488.87,788.16,490.01,788.16,491.41z M786.24,491.41c0-2.46,2-4.46,4.46-4.46c2.46,0,4.46,2,4.46,4.46s-2,4.46-4.46,4.46
					C788.24,495.87,786.24,493.87,786.24,491.41z"/>
				<path class="st3" d="M308.18,641.51c7.99,4.01,17.98,4.18,28.6,4.18c0.49,0,0.98,0,1.47,0h420.83c12,0,20.78-2.55,26.18-7.58
					c0.15,4.79,0.26,10.25,0.26,15.9c0,17.35-15.61,21.94-23.86,21.94h-438c-7.38,0-13-1.89-16.7-5.61
					c-6.35-6.38-6.29-17.32-6.26-23.2v-11.45C302.74,638.09,305.23,640.02,308.18,641.51z"/>
				<path d="M784.49,621.02h-0.08c-0.39-4.38-1.97-8.49-2.96-10.7c-3.31-7.36-23.55-46.75-29.61-58.53c2.04-1.33,4.08-2.48,6.12-3.4
					c5.99,11.64,26.43,51.4,29.87,59.07c1.13,2.51,2.86,7.01,3.43,12.09c-0.53-1.41-1.95-2.37-3.52-2.27
					c-1.92,0.13-3.38,1.79-3.25,3.72C784.49,621,784.49,621.01,784.49,621.02z"/>
				<path d="M300.7,611.59c0,16.42,6.06,21.37,10.63,23.67c6.86,3.44,16.59,3.43,26.91,3.43h1.44h90.81h328.59
					c12.05,0,19.9-2.69,23.33-7.99c1.88-2.9,2.28-6.37,2-9.68h0.08c0.03,0.44,0.48,7.42,0.77,17.09c-5.4,5.03-14.18,7.58-26.18,7.58
					H338.25c-0.49,0-0.98,0-1.47,0c-10.62,0-20.61-0.17-28.6-4.18c-2.95-1.49-5.44-3.42-7.48-5.82V611.59z"/>
				<path class="st4" d="M754.94,303.07c0.54-4.32,9.36-4.86,10.53-1.08c1.17,3.78-4.86,4.59-4.86,4.59
					C759.62,309.91,754.4,307.39,754.94,303.07z"/>
				<path d="M751.64,543.76c1.72-0.89,3.83-0.21,4.71,1.5c0.15,0.28,0.72,1.39,1.61,3.13c-2.04,0.92-4.08,2.07-6.12,3.4
					c-1.05-2.03-1.67-3.24-1.71-3.32C749.24,546.75,749.92,544.64,751.64,543.76z"/>
				<path d="M733.63,511.49c0.49-0.01,0.99-0.13,1.46-0.36c1.73-0.87,2.42-2.98,1.55-4.7l-1.01-2c10.52-0.59,25.2-4.08,29.75-9.32
					c1.64-1.89,2.86-4.05,4.15-6.33c3.28-5.82,7-12.41,18.23-13.38c7.71-0.68,14.97,2.64,18.92,8.63
					c4.04,6.13,4.25,14.17,0.66,22.41c4.44,3.66,13.24,12.38,12.29,23.31c-0.58,6.64-3.55,12.2-8.34,15.65
					c-5.14,3.7-11.93,4.78-19.13,3.05c-2.75-0.66-4.84-1.27-6.69-1.81c-5.89-1.72-8.32-2.43-20.6-0.42
					c-2.29,0.38-4.6,1.13-6.91,2.17c-0.89-1.74-1.46-2.85-1.61-3.13c-0.88-1.71-2.99-2.39-4.71-1.5l-0.01-0.01
					c3.95-2.19,7.99-3.76,12.1-4.43c13.32-2.19,16.69-1.45,23.7,0.6c1.77,0.52,3.78,1.11,6.37,1.73c5.18,1.24,9.94,0.56,13.4-1.93
					c3.16-2.28,5.05-5.93,5.45-10.57c0.24-2.72-0.5-5.33-1.71-7.69c-3.23-6.39-9.86-11-9.95-11.07c-1.49-1-1.98-2.97-1.14-4.55
					c3.71-6.92,4.06-13.3,0.99-17.95c-2.58-3.91-7.25-5.97-12.48-5.52c-7.54,0.65-9.72,4.51-12.74,9.85
					c-1.4,2.49-2.85,5.06-4.96,7.49C763.49,507.95,744.4,511.26,733.63,511.49z"/>
				<path d="M751.84,551.79c-2.44,1.58-4.87,3.42-7.28,5.43c0.35-0.35,0.64-0.78,0.82-1.28c1.09-2.95,1.62-6.23,1.81-9.46
					c1.47-1,2.95-1.91,4.44-2.73l0.01,0.01c-1.72,0.88-2.4,2.99-1.51,4.71C750.17,548.55,750.79,549.76,751.84,551.79z"/>
				<path d="M749.17,381.9c-0.22-3.65-1.13-7.08-2.37-10.16c2.22-3.86,4.78-7.41,7.68-10.69c9.93-11.22,19.75-12.28,26.92-13.05
					c2.48-0.27,4.62-0.5,6.34-1.08c4.67-1.6,10.61-5.14,8.28-17.46c-0.58-3.08-2.38-5.26-4.65-6.82c-0.45-3.24-1.86-6.62-3.13-9.15
					c5.96,1.97,13.02,5.97,14.66,14.67c2.4,12.71-2.18,21.73-12.9,25.38c-2.46,0.84-5.08,1.12-7.85,1.42
					c-6.7,0.72-14.3,1.54-22.43,10.73c-4.47,5.05-8.02,10.82-10.76,17.64C749.12,382.89,749.2,382.4,749.17,381.9z"/>
				<path d="M745.67,385.61c-1.84,0-3.38-1.44-3.49-3.3c-0.01-0.25-0.03-0.5-0.06-0.75c1.36-3.5,2.92-6.76,4.68-9.82
					c1.24,3.08,2.15,6.51,2.37,10.16c0.03,0.5-0.05,0.99-0.21,1.43c-0.03,0.07-0.06,0.13-0.08,0.19c-0.52,1.16-1.65,2-3,2.08
					C745.81,385.6,745.74,385.61,745.67,385.61z"/>
				<path d="M739.72,535.91c4.22-1.68,5.68,0.5,5.68,0.5s0.49-0.25,1.37-0.65c0.37,3.07,0.64,6.86,0.42,10.72
					c-2.74,1.83-5.44,3.92-8.08,6.18C740.78,547.35,740.35,540.56,739.72,535.91z"/>
				<path d="M740.89,558.01c-1.82-0.67-2.74-2.68-2.07-4.49c0.1-0.28,0.2-0.57,0.29-0.86c2.64-2.26,5.34-4.35,8.08-6.18
					c-0.19,3.23-0.72,6.51-1.81,9.46c-0.18,0.5-0.47,0.93-0.82,1.28c-0.01,0.01-0.01,0.02-0.02,0.02c-0.09,0.09-0.2,0.18-0.3,0.25
					c-0.05,0.05-0.11,0.09-0.16,0.13c-0.58,0.39-1.27,0.61-1.98,0.61C741.7,558.23,741.29,558.16,740.89,558.01z"/>
				<path d="M745.4,536.41c0,0-1.46-2.18-5.68-0.5c-0.43-3.16-0.95-5.34-0.96-5.39c-0.46-1.88,0.69-3.77,2.57-4.23
					c1.88-0.46,3.77,0.69,4.23,2.57c0.06,0.26,0.72,3.01,1.21,6.9C745.89,536.16,745.4,536.41,745.4,536.41z"/>
				<path d="M738.74,371.01c1.1-2.55,2.31-5.08,3.63-7.52c1.55,2.29,3.17,5.08,4.43,8.25c-1.76,3.06-3.32,6.32-4.68,9.82
					C741.76,377.67,740.38,374.06,738.74,371.01z"/>
				<path class="st5" d="M639.01,597.24c0.08,1.74,1.52,3.11,3.25,3.11c0.04,0,0.09,0,0.14,0c1.6-0.07,39.59-2.01,69.72-33.68
					c1.23-1.3,1.18-3.36-0.12-4.6c-0.15-0.14-0.31-0.26-0.47-0.37c1.53-1.3,2.97-2.59,4.34-3.88c1.15-0.34,2.52-1.28,3.67-3.6
					c4.93-5.01,8.82-9.64,12.72-13.19c3.12-2.84,5.57-4.36,7.46-5.12c0.63,4.65,1.06,11.44-0.61,16.75
					c-5.82,4.95-11.39,10.65-16.66,16.04c-2.53,2.59-4.92,5.04-7.21,7.26c-12.33,11.99-40.58,32.29-67.88,39.07
					c-14.43,3.59-32.62,4.51-46.33,4.59c4.4-3.48,8.28-8.72,10.73-16.52c1.48-4.73,2.5-9.71,3.06-14.88
					c20.59,1.35,42.85,0.45,69.43-10.29c4.52-1.83,8.57-3.79,12.23-5.83c-11.11,8.67-22.62,13.9-32.17,17.05
					c-12.75,4.2-22.01,4.7-22.19,4.7C640.33,593.93,638.94,595.44,639.01,597.24z"/>
				<path class="st6" d="M686.78,478.98c0.58,0,1.16-0.15,1.68-0.47c27.5-16.63,36.11-40.2,38.5-57.05
					c0.63-4.46,0.88-8.68,0.88-12.5c0.67-2.96,1.15-5.72,1.72-8.4c1.46-6.82,4.35-18.41,9.18-29.55c1.64,3.05,3.02,6.66,3.38,10.55
					c-3.71,9.51-5.98,20.78-7.05,34.46c-1.14,14.65-7.97,40.93-19.08,61.36c-5.17,9.5-11.26,17.74-18.14,22.95
					c-8.32-2.21-17.13-5.68-25.45-11.23c-6.12-4.08-12.27-7.9-18.46-11.46c12.35-1.04,31.77-4.67,50.42-26.42
					c5.49-6.4,9.65-12.04,12.84-17.07c-4.6,13.57-13.96,27.83-32.1,38.8c-1.54,0.93-2.03,2.93-1.1,4.46
					C684.61,478.42,685.68,478.98,686.78,478.98z"/>
				<path class="st7" d="M546.49,614.85c7.32,5.65,21.02,11.2,33.75,11.29c0.02,0.01,0.03,0.01,0.05,0.01
					c0.71,0.04,8.19,0.51,18.69,0.51c14.26,0,34.08-0.86,50.06-4.83c28.65-7.12,58.2-28.33,71.08-40.85
					c2.35-2.29,4.77-4.76,7.34-7.39c3.18-3.25,6.47-6.61,9.83-9.83c16.68,18.73-1.93,35.84-25.92,47.77
					c-25.09,12.48-56.03,19.68-94.67,21.84c-38.64,2.16-71.86-11.61-71.86-11.61L546.49,614.85z"/>
				<path d="M732.02,356.98c1.34-1.39,3.55-1.43,4.95-0.09c0.21,0.21,2.71,2.65,5.4,6.6c-1.32,2.44-2.53,4.97-3.63,7.52
					c-2.9-5.42-6.57-9.02-6.63-9.08C730.72,360.59,730.68,358.37,732.02,356.98z"/>
				<path d="M727.77,504.36c0.33,0,0.66,0.02,0.97,0.03c0.76,0.03,1.47,0.05,2.12,0.08c1.44,0.06,3.05,0.05,4.77-0.04l1.01,2
					c0.87,1.72,0.18,3.83-1.55,4.7c-0.47,0.23-0.97,0.35-1.46,0.36c-0.04,0.01-0.07,0.01-0.11,0.01c-0.01,0-0.02,0-0.03,0
					c-1.27-0.01-2.49-0.71-3.1-1.93L727.77,504.36z"/>
				<path class="st8" d="M727.84,408.96c0.01-11.78-2.23-19.92-2.35-20.37c-0.49-1.73-2.28-2.73-4.01-2.25
					c-1.73,0.49-2.73,2.28-2.25,4.01c0.09,0.33,5.67,21.11-2.03,43.8c-3.19,5.03-7.35,10.67-12.84,17.07
					c-18.65,21.75-38.07,25.38-50.42,26.42c-17.97-10.37-36.31-18.59-55.58-24.95c-11.07-3.65-26.1-5.32-40.01-6.01
					c1.93-9.52,10.39-43.48,35.34-60.24c19.68-13.22,49.32-18.54,73.13-22.81c3.38-0.6,6.64-1.19,9.74-1.77
					c8.62-1.62,16.07-3.23,21.73-5.28c22.71-8.24,37.89-20.8,43.99-29.05c3.69-5,3.85-10.38,3.99-15.12
					c0.11-3.89,0.22-7.56,2.06-11.16c1.67-3.25,6.81-5.58,12.5-5.67c4.57-0.06,8.42,1.38,9.65,3.6c2.32,4.22,2.86,8.55,3.25,11.72
					c0.38,3.09,0.67,5.53,2.87,6.79c0.82,0.47,1.74,0.64,3.41,0.96c2.9,0.56,7.73,1.49,11.36,3.99c0.51,3.66-0.19,7.15-3.67,9.05
					c-9.54,5.22-21.42,4.32-35.1,17.64c-3.97,3.86-7.36,8.8-10.23,14.16c-2.69-3.95-5.19-6.39-5.4-6.6c-1.4-1.34-3.61-1.3-4.95,0.09
					c-1.34,1.39-1.3,3.61,0.09,4.95c0.06,0.06,3.73,3.66,6.63,9.08c-4.83,11.14-7.72,22.73-9.18,29.55
					C728.99,403.24,728.51,406,727.84,408.96z M695.25,404.54c0.02,0.07,1.44,6.85-2.92,12.07c-1.15,1.37-0.97,3.42,0.4,4.57
					c0.61,0.51,1.35,0.76,2.09,0.76c0.93,0,1.85-0.4,2.49-1.17c6.49-7.75,4.37-17.29,4.28-17.69c-0.41-1.75-2.16-2.84-3.9-2.44
					C695.94,401.05,694.85,402.8,695.25,404.54z M657.2,451.22c0.69,0,1.39-0.22,1.98-0.67c10.48-8.07,10.8-19.67,10.81-20.16
					c0.03-1.79-1.39-3.26-3.18-3.3c-1.79-0.03-3.27,1.38-3.32,3.17c-0.01,0.36-0.34,9.03-8.27,15.13c-1.42,1.1-1.69,3.14-0.6,4.56
					C655.26,450.78,656.23,451.22,657.2,451.22z M652.98,378.02c-0.06,1.93,1.46,3.55,3.39,3.61c0.12,0,0.63,0.02,1.46,0.02
					c5.4,0,24.54-0.61,41.54-8.63c1.75-0.83,2.5-2.91,1.68-4.66c-0.83-1.75-2.92-2.5-4.66-1.68c-18.01,8.5-39.47,7.96-39.8,7.95
					C654.63,374.55,653.04,376.09,652.98,378.02z M585.98,418.71c1.18,0,2.33-0.6,2.99-1.68c0.16-0.26,15.91-25.64,47.91-32.58
					c1.89-0.41,3.09-2.27,2.68-4.16c-0.41-1.89-2.27-3.09-4.16-2.68c-34.91,7.57-51.71,34.63-52.41,35.78
					c-1.01,1.65-0.48,3.81,1.17,4.81C584.73,418.55,585.36,418.71,585.98,418.71z M760.61,306.58c0,0,6.03-0.81,4.86-4.59
					c-1.17-3.78-9.99-3.24-10.53,1.08S759.62,309.91,760.61,306.58z"/>
				<path d="M722.95,479.21l12.68,25.22c-1.72,0.09-3.33,0.1-4.77,0.04c-0.65-0.03-1.36-0.05-2.12-0.08
					c-0.31-0.01-0.64-0.03-0.97-0.03l-8.98-17.86C720.25,484.16,721.63,481.72,722.95,479.21z"/>
				<path class="st9" d="M790.7,495.87c2.46,0,4.46-2,4.46-4.46s-2-4.46-4.46-4.46c-2.46,0-4.46,2-4.46,4.46
					S788.24,495.87,790.7,495.87z M710.3,534.92c2.16,0,3.91-1.75,3.91-3.91c0-2.16-1.75-3.91-3.91-3.91
					c-2.16,0-3.91,1.75-3.91,3.91C706.39,533.17,708.14,534.92,710.3,534.92z M687.5,559.34c0.26,0,0.53-0.03,0.8-0.1
					c0.38-0.1,9.31-2.49,10.36-13.65c0.16-1.79-1.15-3.37-2.94-3.54c-1.78-0.17-3.37,1.15-3.54,2.94c-0.59,6.35-4.98,7.81-5.52,7.96
					c-1.72,0.46-2.75,2.21-2.31,3.94C684.72,558.36,686.05,559.34,687.5,559.34z M645.9,500.98c0.76,0.58,7.63,5.71,13.57,7.1
					c0.27,0.06,0.54,0.09,0.8,0.09c1.59,0,3.03-1.09,3.41-2.7c0.44-1.89-0.73-3.77-2.61-4.21c-1.91-0.45-4.2-1.58-6.24-2.77
					c-2.03-1.18-3.81-2.42-4.69-3.09c-1.54-1.17-3.74-0.87-4.91,0.67C644.06,497.61,644.36,499.8,645.9,500.98z M637.51,569.77
					c0.27,1.45,1.53,2.46,2.95,2.46c0.18,0,0.36-0.02,0.54-0.05c11.65-2.14,18.61-13.71,18.9-14.2c0.84-1.43,0.37-3.26-1.05-4.11
					c-1.42-0.84-3.26-0.37-4.11,1.05c-0.06,0.1-5.89,9.72-14.82,11.36C638.29,566.58,637.21,568.14,637.51,569.77z M581.47,474.63
					c0.37,0.07,37.08,7.34,50.82,18.7c0.65,0.54,1.44,0.8,2.23,0.8c1,0,2-0.43,2.7-1.27c1.23-1.49,1.02-3.69-0.47-4.93
					c-15.09-12.48-52.36-19.87-53.94-20.18c-1.89-0.36-3.73,0.87-4.11,2.77C578.33,472.42,579.57,474.25,581.47,474.63z
					 M545.04,453.29c2.98,0.05,6.11,0.12,9.33,0.24c14.41,0.55,30.52,2.08,41.79,5.8c25.3,8.36,48.97,20,72.36,35.59
					c9.96,6.64,20.48,10.53,30.17,12.85c12.16,2.91,23,3.34,29.77,3.61c0.75,0.03,1.44,0.06,2.08,0.09
					c0.89,0.04,1.88,0.05,2.95,0.03c0.01,0,0.02,0,0.03,0c0.04,0,0.07,0,0.11-0.01c10.77-0.23,29.86-3.54,37.03-11.78
					c2.11-2.43,3.56-5,4.96-7.49c3.02-5.34,5.2-9.2,12.74-9.85c5.23-0.45,9.9,1.61,12.48,5.52c3.07,4.65,2.72,11.03-0.99,17.95
					c-0.84,1.58-0.35,3.55,1.14,4.55c0.09,0.07,6.72,4.68,9.95,11.07c-11.4,12.06-18.39,4.64-31.52,4.73
					c-11.7,0.08-27.9,7.31-32.65,9.57c-0.49-3.89-1.15-6.64-1.21-6.9c-0.46-1.88-2.35-3.03-4.23-2.57
					c-1.88,0.46-3.03,2.35-2.57,4.23c0.01,0.05,0.53,2.23,0.96,5.39c-1.89,0.76-4.34,2.28-7.46,5.12
					c-3.9,3.55-7.79,8.18-12.72,13.19c0.57-1.12,1.08-2.55,1.49-4.38c0.39-1.75-0.71-3.49-2.46-3.88c-1.75-0.4-3.49,0.71-3.88,2.46
					c-0.44,1.94-0.89,2.86-1.12,3.23c-1.12,0.39-1.98,1.36-2.17,2.61c-0.26,1.78,0.97,3.43,2.75,3.69c0.16,0.02,0.36,0.04,0.57,0.04
					c0.34,0,0.73-0.04,1.15-0.17c-1.37,1.29-2.81,2.58-4.34,3.88c-1.29-0.83-3.03-0.66-4.13,0.49c-3.53,3.71-7.19,6.99-10.9,9.89
					c-0.01,0.01-0.01,0.01-0.02,0.02c-3.66,2.04-7.71,4-12.23,5.83c-26.58,10.74-48.84,11.64-69.43,10.29
					c3.69-33.77-11.82-75.96-42-111.9C564.26,466.12,554.75,458.33,545.04,453.29z"/>
				<path d="M718.79,486.5l-2.87-5.7c-0.56-1.11-0.47-2.39,0.13-3.39c0.33-0.54,0.81-1,1.42-1.31c1.73-0.87,3.83-0.17,4.7,1.56
					l0.78,1.55C721.63,481.72,720.25,484.16,718.79,486.5z"/>
				<path class="st10" d="M727.77,504.36c-5.28-0.22-12.83-0.59-21.37-2.14c4.55-4.33,8.68-9.72,12.39-15.72L727.77,504.36z"/>
				<path class="st11" d="M717.2,434.15c7.7-22.69,2.12-43.47,2.03-43.8c-0.48-1.73,0.52-3.52,2.25-4.01
					c1.73-0.48,3.52,0.52,4.01,2.25c0.12,0.45,2.36,8.59,2.35,20.37C726.32,415.77,723.86,423.66,717.2,434.15z"/>
				<path d="M717.47,476.1c-0.61,0.31-1.09,0.77-1.42,1.31l-0.06-0.03c11.11-20.43,17.94-46.71,19.08-61.36
					c1.07-13.68,3.34-24.95,7.05-34.46c0.03,0.25,0.05,0.5,0.06,0.75c0.11,1.86,1.65,3.3,3.49,3.3c0.07,0,0.14-0.01,0.21-0.01
					c1.35-0.08,2.48-0.92,3-2.08c-3.6,8.99-5.79,19.77-6.83,33.04c-1.11,14.18-7.62,40.91-19.1,62.65l-0.78-1.55
					C721.3,475.93,719.2,475.23,717.47,476.1z"/>
				<path class="st11" d="M715.87,557.82c1.29-1.21,2.52-2.42,3.67-3.6C718.39,556.54,717.02,557.48,715.87,557.82z"/>
				<path d="M706.4,502.22c-2.76-0.49-5.62-1.11-8.55-1.89c6.88-5.21,12.97-13.45,18.14-22.95l0.06,0.03c-0.6,1-0.69,2.28-0.13,3.39
					l2.87,5.7C715.08,492.5,710.95,497.89,706.4,502.22z"/>
				<path class="st11" d="M714.15,557.95c-1.78-0.26-3.01-1.91-2.75-3.69c0.19-1.25,1.05-2.22,2.17-2.61
					c0.23-0.37,0.68-1.29,1.12-3.23c0.39-1.75,2.13-2.86,3.88-2.46c1.75,0.39,2.85,2.13,2.46,3.88c-0.41,1.83-0.92,3.26-1.49,4.38
					c-1.15,1.18-2.38,2.39-3.67,3.6c-0.42,0.13-0.81,0.17-1.15,0.17C714.51,557.99,714.31,557.97,714.15,557.95z"/>
				<path class="st11" d="M642.26,600.35c-1.73,0-3.17-1.37-3.25-3.11c-0.07-1.8,1.32-3.31,3.11-3.39c0.18,0,9.44-0.5,22.19-4.7
					c9.55-3.15,21.06-8.38,32.17-17.05c0.01-0.01,0.01-0.01,0.02-0.02c5.93-3.32,10.83-6.85,15.03-10.38
					c0.16,0.11,0.32,0.23,0.47,0.37c1.3,1.24,1.35,3.3,0.12,4.6c-30.13,31.67-68.12,33.61-69.72,33.68
					C642.35,600.35,642.3,600.35,642.26,600.35z"/>
				<circle class="st11" cx="710.3" cy="531.01" r="3.91"/>
				<path class="st11" d="M711.53,561.7c-4.2,3.53-9.1,7.06-15.03,10.38c3.71-2.9,7.37-6.18,10.9-9.89
					C708.5,561.04,710.24,560.87,711.53,561.7z"/>
				<path d="M696.94,505.39c-1.16-1.55-0.84-3.75,0.7-4.9c0.07-0.05,0.14-0.11,0.21-0.16c2.93,0.78,5.79,1.4,8.55,1.89
					c-1.48,1.41-3,2.7-4.56,3.87c-0.63,0.47-1.37,0.7-2.1,0.7c-0.26,0-0.53-0.03-0.79-0.09
					C698.17,506.52,697.45,506.08,696.94,505.39z"/>
				<path d="M698.69,507.77l0.26-1.07c0.26,0.06,0.53,0.09,0.79,0.09c0.73,0,1.47-0.23,2.1-0.7c1.56-1.17,3.08-2.46,4.56-3.87
					c8.54,1.55,16.09,1.92,21.37,2.14l2.62,5.21c0.61,1.22,1.83,1.92,3.1,1.93c-1.07,0.02-2.06,0.01-2.95-0.03
					c-0.64-0.03-1.33-0.06-2.08-0.09C721.69,511.11,710.85,510.68,698.69,507.77z"/>
				<path class="st11" d="M694.82,421.94c-0.74,0-1.48-0.25-2.09-0.76c-1.37-1.15-1.55-3.2-0.4-4.57c4.36-5.22,2.94-12,2.92-12.07
					c-0.4-1.74,0.69-3.49,2.44-3.9c1.74-0.4,3.49,0.69,3.9,2.44c0.09,0.4,2.21,9.94-4.28,17.69
					C696.67,421.54,695.75,421.94,694.82,421.94z"/>
				<path class="st2" d="M699.37,373.02c-17,8.02-36.14,8.63-41.54,8.63c-0.83,0-1.34-0.02-1.46-0.02
					c-1.93-0.06-3.45-1.68-3.39-3.61c0.06-1.93,1.65-3.47,3.61-3.39c0.33,0.01,21.79,0.55,39.8-7.95c1.74-0.82,3.83-0.07,4.66,1.68
					C701.87,370.11,701.12,372.19,699.37,373.02z"/>
				<path class="st11" d="M686.78,478.98c-1.1,0-2.17-0.56-2.78-1.57c-0.93-1.53-0.44-3.53,1.1-4.46
					c18.14-10.97,27.5-25.23,32.1-38.8c6.66-10.49,9.12-18.38,10.64-25.19c0,3.82-0.25,8.04-0.88,12.5
					c-2.39,16.85-11,40.42-38.5,57.05C687.94,478.83,687.36,478.98,686.78,478.98z"/>
				<path class="st11" d="M688.3,559.24c-0.27,0.07-0.54,0.1-0.8,0.1c-1.45,0-2.78-0.98-3.15-2.45c-0.44-1.73,0.59-3.48,2.31-3.94
					c0.54-0.15,4.93-1.61,5.52-7.96c0.17-1.79,1.76-3.11,3.54-2.94c1.79,0.17,3.1,1.75,2.94,3.54
					C697.61,556.75,688.68,559.14,688.3,559.24z"/>
				<path d="M596.16,459.33c-11.27-3.72-27.38-5.25-41.79-5.8l0.05-1.34c1.71,0,3.21-1.24,3.46-2.98c0.01-0.06,0.15-0.97,0.47-2.53
					c13.91,0.69,28.94,2.36,40.01,6.01c19.27,6.36,37.61,14.58,55.58,24.95c6.19,3.56,12.34,7.38,18.46,11.46
					c8.32,5.55,17.13,9.02,25.45,11.23c-0.07,0.05-0.14,0.11-0.21,0.16c-1.54,1.15-1.86,3.35-0.7,4.9c0.51,0.69,1.23,1.13,2.01,1.31
					l-0.26,1.07c-9.69-2.32-20.21-6.21-30.17-12.85C645.13,479.33,621.46,467.69,596.16,459.33z"/>
				<path d="M675.19,360.83c-1.91-0.31-3.21-2.1-2.91-4.01c0.07-0.44,0.13-0.88,0.19-1.32c2.5-0.46,4.9-0.91,7.2-1.37
					c-0.11,1.27-0.27,2.53-0.47,3.79c-0.24,1.51-1.42,2.63-2.84,2.89c-0.2,0.04-0.41,0.06-0.62,0.06
					C675.56,360.87,675.37,360.86,675.19,360.83z"/>
				<path d="M551.26,446.4c0.98-5.35,4.51-21.53,13.58-37.67c5.78-10.33,13.84-20.65,24.95-28.11
					c12.29-8.25,27.89-13.54,43.62-17.38c11.02-2.7,22.11-4.7,32.18-6.5c2.36-0.42,4.66-0.83,6.88-1.24
					c-0.06,0.44-0.12,0.88-0.19,1.32c-0.3,1.91,1,3.7,2.91,4.01c0.18,0.03,0.37,0.04,0.55,0.04c0.21,0,0.42-0.02,0.62-0.06l0.2,1.05
					c-3.1,0.58-6.36,1.17-9.74,1.77c-23.81,4.27-53.45,9.59-73.13,22.81c-24.95,16.76-33.41,50.72-35.34,60.24
					C555.94,446.56,553.57,446.47,551.26,446.4z"/>
				<path class="st11" d="M657.2,451.22c-0.97,0-1.94-0.44-2.58-1.27c-1.09-1.42-0.82-3.46,0.6-4.56c7.93-6.1,8.26-14.77,8.27-15.13
					c0.05-1.79,1.53-3.2,3.32-3.17c1.79,0.04,3.21,1.51,3.18,3.3c-0.01,0.49-0.33,12.09-10.81,20.16
					C658.59,451,657.89,451.22,657.2,451.22z"/>
				<path class="st12" d="M654.02,304.71c1.57,1.75,3.06,3.59,4.49,5.52c7.75,10.64,16.36,27.03,13.96,45.27
					c-2.22,0.41-4.52,0.82-6.88,1.24c-10.07,1.8-21.16,3.8-32.18,6.5C641.38,354.62,661.77,329.45,654.02,304.71z"/>
				<path class="st2" d="M650.14,495.4c0.88,0.67,2.66,1.91,4.69,3.09c2.04,1.19,4.33,2.32,6.24,2.77c1.88,0.44,3.05,2.32,2.61,4.21
					c-0.38,1.61-1.82,2.7-3.41,2.7c-0.26,0-0.53-0.03-0.8-0.09c-5.94-1.39-12.81-6.52-13.57-7.1c-1.54-1.18-1.84-3.37-0.67-4.91
					C646.4,494.53,648.6,494.23,650.14,495.4z"/>
				<path class="st13" d="M640.46,572.23c-1.42,0-2.68-1.01-2.95-2.46c-0.3-1.63,0.78-3.19,2.41-3.49
					c8.93-1.64,14.76-11.26,14.82-11.36c0.85-1.42,2.69-1.89,4.11-1.05c1.42,0.85,1.89,2.68,1.05,4.11
					c-0.29,0.49-7.25,12.06-18.9,14.2C640.82,572.21,640.64,572.23,640.46,572.23z"/>
				<path class="st2" d="M585.98,418.71c-0.62,0-1.25-0.16-1.82-0.51c-1.65-1-2.18-3.16-1.17-4.81c0.7-1.15,17.5-28.21,52.41-35.78
					c1.89-0.41,3.75,0.79,4.16,2.68c0.41,1.89-0.79,3.75-2.68,4.16c-32,6.94-47.75,32.32-47.91,32.58
					C588.31,418.11,587.16,418.71,585.98,418.71z"/>
				<path class="st2" d="M476.29,315.65c-0.89,0-1.79-0.35-2.48-1.03c-1.37-1.37-1.35-3.6,0.02-4.97
					c5.3-5.3,75.59-44.77,145.78-12.34c1.75,0.81,2.52,2.89,1.71,4.65c-0.81,1.75-2.89,2.52-4.65,1.71
					c-35.23-16.28-69.89-13.09-92.76-7.55c-26.69,6.46-43.82,17.29-45.16,18.51C478.07,315.31,477.18,315.65,476.29,315.65z"/>
				<path class="st2" d="M578.7,470.52c0.38-1.9,2.22-3.13,4.11-2.77c1.58,0.31,38.85,7.7,53.94,20.18c1.49,1.24,1.7,3.44,0.47,4.93
					c-0.7,0.84-1.7,1.27-2.7,1.27c-0.79,0-1.58-0.26-2.23-0.8c-13.74-11.36-50.45-18.63-50.82-18.7
					C579.57,474.25,578.33,472.42,578.7,470.52z"/>
				<path d="M580.24,626.14c-1.91-0.15-3.34-1.81-3.21-3.71c0.12-1.8,1.57-3.2,3.33-3.27c0.02-0.01,0.04-0.01,0.06,0
					c0.07-0.01,0.14-0.01,0.21-0.01c0.04,0,0.08,0,0.12,0.01c0.18,0.01,8.62,0.54,20.28,0.46c-5.35,4.25-11.47,5.88-16.7,6.36
					c-1.24,0.12-2.49,0.17-3.76,0.17C580.46,626.15,580.35,626.15,580.24,626.14z"/>
				<path class="st14" d="M565.78,562.34c0.16,0.12,15.84,12.28,16.17,36.34c0.03,1.77,1.48,3.2,3.25,3.2c0.01,0,0.03,0,0.04,0
					c1.8-0.03,3.23-1.5,3.21-3.29c-0.38-27.2-18-40.86-18.75-41.43c-1.43-1.08-3.47-0.8-4.55,0.63
					C564.07,559.22,564.35,561.26,565.78,562.34z M520.81,453.7c15.29,0.45,32.54,10.31,46.65,27.12
					c33.31,39.67,48.08,86.85,37.62,120.18c-3.44,10.96-10.64,17.02-21.39,18.01c-1.02,0.09-2.04,0.14-3.06,0.14
					c-0.07,0-0.14,0-0.21,0.01c-0.02-0.01-0.04-0.01-0.06,0c-14.48-0.02-29.07-8.34-32.02-12.08l3.14-13.21l0.21-0.86l-0.11-0.69
					c-1.63-10.22-24.11-29.2-55.8-46.54c-2.08-4.7-7.04-17.1-9.11-32.25c-1.03-7.51-1.34-15.7-0.23-23.96
					c0.54-4.11,1.44-8.24,2.78-12.31c4.16-12.62,12.71-20.78,24.09-22.98C515.74,453.81,518.25,453.62,520.81,453.7z M536.8,474.67
					c0.13,0.13,12.44,13.66,16.92,45.22c0.23,1.62,1.62,2.79,3.22,2.79c0.15,0,0.3-0.01,0.46-0.03c1.77-0.25,3.01-1.9,2.76-3.67
					c-4.77-33.56-18.04-48.14-18.6-48.74c-1.22-1.32-3.28-1.39-4.59-0.17C535.65,471.29,535.58,473.35,536.8,474.67z M531.03,543.43
					c3.23,9.01,9.89,14.91,16.18,14.91c1.1,0,2.2-0.18,3.26-0.56c4.88-1.75,7.63-7.18,7.63-13.84c0-3.02-0.56-6.3-1.75-9.6
					c-3.8-10.59-12.34-16.89-19.44-14.34c-3.65,1.31-6.29,4.79-7.24,9.56C528.84,533.75,529.32,538.68,531.03,543.43z
					 M519.72,517.16c0.63,0.9,1.64,1.38,2.66,1.38c0.65,0,1.3-0.19,1.87-0.59c1.47-1.03,1.82-3.06,0.79-4.53
					c-17.08-24.32-17.29-39.71-17.29-39.98c0.02-1.78-1.41-3.25-3.2-3.28c-0.02,0-0.03,0-0.05,0c-1.77,0-3.22,1.42-3.25,3.2
					C501.24,474.06,501.21,490.8,519.72,517.16z"/>
				<path d="M580.24,626.14c0.11,0.01,0.22,0.01,0.33,0.01c1.27,0,2.52-0.05,3.76-0.17c5.23-0.48,11.35-2.11,16.7-6.36
					c13.71-0.08,31.9-1,46.33-4.59c27.3-6.78,55.55-27.08,67.88-39.07c2.29-2.22,4.68-4.67,7.21-7.26
					c5.27-5.39,10.84-11.09,16.66-16.04c-0.09,0.29-0.19,0.58-0.29,0.86c-0.67,1.81,0.25,3.82,2.07,4.49
					c0.4,0.15,0.81,0.22,1.21,0.22c0.71,0,1.4-0.22,1.98-0.61c-2.29,1.93-4.55,4-6.79,6.14c-3.36,3.22-6.65,6.58-9.83,9.83
					c-2.57,2.63-4.99,5.1-7.34,7.39c-12.88,12.52-42.43,33.73-71.08,40.85c-15.98,3.97-35.8,4.83-50.06,4.83
					c-10.5,0-17.98-0.47-18.69-0.51C580.27,626.15,580.26,626.15,580.24,626.14z"/>
				<path d="M548.34,607.08c2.95,3.74,17.54,12.06,32.02,12.08c-1.76,0.07-3.21,1.47-3.33,3.27c-0.13,1.9,1.3,3.56,3.21,3.71
					c-12.73-0.09-26.43-5.64-33.75-11.29L548.34,607.08z"/>
				<path class="st11" d="M569.7,557.16c0.75,0.57,18.37,14.23,18.75,41.43c0.02,1.79-1.41,3.26-3.21,3.29c-0.01,0-0.03,0-0.04,0
					c-1.77,0-3.22-1.43-3.25-3.2c-0.33-24.06-16.01-36.22-16.17-36.34c-1.43-1.08-1.71-3.12-0.63-4.55
					C566.23,556.36,568.27,556.08,569.7,557.16z"/>
				<path d="M551.26,446.4c2.31,0.07,4.68,0.16,7.09,0.28c-0.32,1.56-0.46,2.47-0.47,2.53c-0.25,1.74-1.75,2.98-3.46,2.98
					c-0.17,0-0.35-0.01-0.52-0.04c-1.91-0.28-3.23-2.06-2.94-3.97C550.99,447.99,551.08,447.38,551.26,446.4z"/>
				<path class="st15" d="M551.26,446.4c-5.14-0.15-9.98-0.18-14.24-0.15c3.4-6.36,14.44-25.84,27.82-37.52
					C555.77,424.87,552.24,441.05,551.26,446.4z"/>
				<path d="M542.79,589.59c3.18-0.1,5.02-0.21,5.12-0.21c1.93-0.12,3.59,1.35,3.7,3.28c0.03,0.42-0.02,0.83-0.13,1.21
					c-0.41,1.37-1.64,2.4-3.15,2.49c-0.38,0.03-2.03,0.12-4.69,0.23l0.89-3.75C544.26,591.94,543.68,590.85,542.79,589.59z"/>
				<path d="M546.49,614.85c-2.22-1.72-3.86-3.45-4.7-5.04c-0.44-0.82-0.51-1.74-0.29-2.57c0.25-0.9,0.85-1.69,1.74-2.16
					c1.71-0.91,3.83-0.26,4.73,1.45c0.09,0.17,0.21,0.35,0.37,0.55L546.49,614.85z"/>
				<path class="st16" d="M479.6,630.92c14.85,0.2,48.05-0.32,63.57-8.24l1.5-0.2l0.17-0.72c0,0,33.22,13.77,71.86,11.61
					c38.64-2.16,69.58-9.36,94.67-21.84c23.99-11.93,42.6-29.04,25.92-47.77c2.24-2.14,4.5-4.21,6.79-6.14
					c0.05-0.04,0.11-0.08,0.16-0.13c0.1-0.07,0.21-0.16,0.3-0.25c0.01,0,0.01-0.01,0.02-0.02c2.41-2.01,4.84-3.85,7.28-5.43
					c6.06,11.78,26.3,51.17,29.61,58.53c0.99,2.21,2.57,6.32,2.96,10.7c0.28,3.31-0.12,6.78-2,9.68c-3.43,5.3-11.28,7.99-23.33,7.99
					H430.49v-1.25C451.83,637.44,468.18,634.29,479.6,630.92z"/>
				<path d="M543.17,622.68c0.58-0.3,1.14-0.6,1.67-0.92l-0.17,0.72L543.17,622.68z"/>
				<path d="M541.12,607.15l2.52-10.56c2.66-0.11,4.31-0.2,4.69-0.23c1.51-0.09,2.74-1.12,3.15-2.49l-3.14,13.21
					c-0.16-0.2-0.28-0.38-0.37-0.55c-0.9-1.71-3.02-2.36-4.73-1.45c-0.89,0.47-1.49,1.26-1.74,2.16L541.12,607.15z"/>
				<path d="M497.53,616.3c19.81,1.58,35.67,0.39,41.46-0.18l2.13-8.97l0.38,0.09c-0.22,0.83-0.15,1.75,0.29,2.57
					c0.84,1.59,2.48,3.32,4.7,5.04l-1.65,6.91c-0.53,0.32-1.09,0.62-1.67,0.92l-0.89,0.12c-0.91,0.12-10.61,1.37-25.12,1.37
					c-5.64,0-12.02-0.19-18.89-0.71c0.65-0.35,1.02-0.58,1.13-0.65c1.63-1.03,2.13-3.19,1.1-4.82c-0.66-1.06-1.8-1.65-2.97-1.65
					V616.3z"/>
				<path d="M537.62,541.07c2.53,7.04,7.63,11.15,10.49,10.12c2.86-1.03,4.18-7.44,1.66-14.48c-1.13-3.16-2.79-5.73-4.52-7.51
					c-1.74-1.78-3.56-2.77-5.03-2.77c-0.33,0-0.65,0.05-0.94,0.16c-1.29,0.46-2.28,2.04-2.74,4.33
					C535.96,533.85,536.35,537.54,537.62,541.07z M547.21,558.34c-6.29,0-12.95-5.9-16.18-14.91c-1.71-4.75-2.19-9.68-1.36-13.87
					c0.95-4.77,3.59-8.25,7.24-9.56c7.1-2.55,15.64,3.75,19.44,14.34c1.19,3.3,1.75,6.58,1.75,9.6c0,6.66-2.75,12.09-7.63,13.84
					C549.41,558.16,548.31,558.34,547.21,558.34z"/>
				<path class="st17" d="M548.11,551.19c-2.86,1.03-7.96-3.08-10.49-10.12c-1.27-3.53-1.66-7.22-1.08-10.15
					c0.46-2.29,1.45-3.87,2.74-4.33c0.29-0.11,0.61-0.16,0.94-0.16c1.47,0,3.29,0.99,5.03,2.77c1.73,1.78,3.39,4.35,4.52,7.51
					C552.29,543.75,550.97,550.16,548.11,551.19z"/>
				<path class="st11" d="M536.97,470.07c1.31-1.22,3.37-1.15,4.59,0.17c0.56,0.6,13.83,15.18,18.6,48.74
					c0.25,1.77-0.99,3.42-2.76,3.67c-0.16,0.02-0.31,0.03-0.46,0.03c-1.6,0-2.99-1.17-3.22-2.79
					c-4.48-31.56-16.79-45.09-16.92-45.22C535.58,473.35,535.65,471.29,536.97,470.07z"/>
				<path d="M495.15,552.5c1.73-0.87,2.42-2.97,1.56-4.7c-0.03-0.05-0.38-0.75-0.93-2.02c31.69,17.34,54.17,36.32,55.8,46.54
					l0.11,0.69l-0.21,0.86c0.11-0.38,0.16-0.79,0.13-1.21c-0.11-1.93-1.77-3.4-3.7-3.28c-0.1,0-1.94,0.11-5.12,0.21
					c-5.53-7.9-22.85-22.38-48.66-36.77C494.48,552.77,494.82,552.66,495.15,552.5z"/>
				<path d="M536.82,372.18c-4.12,0.59-8.19,1.25-12.18,1.99c2.81-2.54,5.36-4.91,6.84-6.48c0.51-0.55,1.16-0.89,1.85-1.03
					c1.07-0.22,2.23,0.08,3.09,0.89C537.73,368.79,537.87,370.78,536.82,372.18z"/>
				<path d="M536.42,367.55c-0.86-0.81-2.02-1.11-3.09-0.89l-0.15-1c17.53-2.66,36.17-3.93,54.62-2.54
					c1.93,0.15,3.38,1.83,3.23,3.75c-0.15,1.93-1.85,3.38-3.75,3.23c-17-1.28-34.18-0.24-50.46,2.08
					C537.87,370.78,537.73,368.79,536.42,367.55z"/>
				<path class="st18" d="M493.6,595.38c13.14,1.15,25.48,1.47,35.11,1.47c6.33,0,11.48-0.14,14.93-0.26l-2.52,10.56l-2.13,8.97
					c-5.79,0.57-21.65,1.76-41.46,0.18c-2.96-0.24-6.02-0.54-9.14-0.92L493.6,595.38z"/>
				<path class="st19" d="M474.81,571.59c0.12,0.02,11.94,2.25,20.14,9.97c0.63,0.59,1.43,0.88,2.23,0.88
					c0.86,0,1.73-0.34,2.37-1.02c1.23-1.31,1.16-3.37-0.14-4.6c-9.59-9.01-22.86-11.52-23.42-11.63c-1.78-0.32-3.46,0.85-3.79,2.62
					C471.88,569.57,473.05,571.26,474.81,571.59z M423.7,549.4c-1.72,7.33,8.92,13.86,20.31,16.53c3.75,0.88,7.48,1.33,10.87,1.33
					c1.73,0,3.37-0.12,4.89-0.36c7.4-1.15,9.3-4.73,9.78-6.77c1.71-7.33-8.92-13.86-20.32-16.53c-5.67-1.33-11.27-1.67-15.76-0.97
					C426.08,543.78,424.17,547.37,423.7,549.4z M392.06,518.04c11.95,0,28.89,3.93,51.15,11.83c17.61,6.25,33.48,13.51,47.15,20.88
					v0.01c0.04,0.08,0.07,0.14,0.09,0.18c0.7,1.4,2.21,2.12,3.68,1.88c25.81,14.39,43.13,28.87,48.66,36.77
					c-15.78,0.51-64.58,1.01-98.1-10.65c-32.28-11.22-67.87-32.14-71.57-47.7c-0.79-3.33,0-6.11,2.49-8.74
					c0.21-0.18,0.43-0.35,0.65-0.51C379.89,519.36,385.14,518.04,392.06,518.04z"/>
				<path d="M545.04,453.29c-8.02-4.15-16.17-6.42-24.04-6.61c1.7-0.09,7.75-0.37,16.02-0.43c4.26-0.03,9.1,0,14.24,0.15
					c-0.18,0.98-0.27,1.59-0.3,1.78c-0.29,1.91,1.03,3.69,2.94,3.97c0.17,0.03,0.35,0.04,0.52,0.04l-0.05,1.34
					C551.15,453.41,548.02,453.34,545.04,453.29z"/>
				<path class="st11" d="M504.55,470.16c1.79,0.03,3.22,1.5,3.2,3.28c0,0.27,0.21,15.66,17.29,39.98c1.03,1.47,0.68,3.5-0.79,4.53
					c-0.57,0.4-1.22,0.59-1.87,0.59c-1.02,0-2.03-0.48-2.66-1.38c-18.51-26.36-18.48-43.1-18.47-43.8c0.03-1.78,1.48-3.2,3.25-3.2
					C504.52,470.16,504.53,470.16,504.55,470.16z"/>
				<path class="st20" d="M473.81,314.62c0.69,0.68,1.59,1.03,2.48,1.03c0.89,0,1.78-0.34,2.46-1.02
					c1.34-1.22,18.47-12.05,45.16-18.51c22.87-5.54,57.53-8.73,92.76,7.55c1.76,0.81,3.84,0.04,4.65-1.71
					c0.81-1.76,0.04-3.84-1.71-4.65c-70.19-32.43-140.48,7.04-145.78,12.34C472.46,311.02,472.44,313.25,473.81,314.62z
					 M446.78,487.4c1.16,0,2.29-0.63,2.87-1.73c0.09-0.16,8.37-15.72,17.72-23.3c8.13-6.59,19.06-10.09,27.84-12.91
					c1.48-0.47,2.9-0.93,4.26-1.38c12.63-4.21,30.43-16.03,42.51-36.58c0.91-1.55,0.39-3.54-1.15-4.45
					c-1.55-0.91-3.54-0.39-4.45,1.16c-14.42,24.52-34.99,32.38-38.97,33.71c-1.33,0.44-2.73,0.89-4.18,1.35
					c-9.3,2.98-20.87,6.69-29.96,14.06c-10.38,8.42-19,24.62-19.36,25.3c-0.84,1.59-0.23,3.56,1.35,4.39
					C445.75,487.28,446.27,487.4,446.78,487.4z M442.22,399.51c0.5,0,1.01-0.11,1.49-0.34c0.51-0.24,35.92-16.73,80.93-25
					c-6.24,5.61-13.77,12-13.88,12.09c-1.48,1.25-1.66,3.46-0.41,4.93c0.69,0.82,1.68,1.24,2.67,1.24c0.8,0,1.61-0.27,2.26-0.83
					c0.66-0.56,16.24-13.77,21.28-19.11c0.09-0.1,0.18-0.2,0.26-0.31c16.28-2.32,33.46-3.36,50.46-2.08c1.9,0.15,3.6-1.3,3.75-3.23
					c0.15-1.92-1.3-3.6-3.23-3.75c-18.45-1.39-37.09-0.12-54.62,2.54c-50.6,7.67-91.9,26.92-92.45,27.19
					c-1.75,0.82-2.5,2.91-1.67,4.65C439.65,398.77,440.91,399.51,442.22,399.51z M422.93,344.31c1.53,1.17,3.73,0.89,4.91-0.65
					c0.31-0.41,0.72-0.96,1.21-1.62c9.81-13.15,20.17-24.38,31.05-33.63c0.22-0.15,0.41-0.31,0.58-0.49
					c15.03-12.68,31.02-21.6,47.83-26.64c46.4-13.91,111.01-15.57,145.51,23.43c7.75,24.74-12.64,49.91-20.61,58.53
					c-15.73,3.84-31.33,9.13-43.62,17.38c-11.11,7.46-19.17,17.78-24.95,28.11c-13.38,11.68-24.42,31.16-27.82,37.52
					c-8.27,0.06-14.32,0.34-16.02,0.43c-0.01,0-0.01,0-0.01,0c-3.05-0.08-6.06,0.16-9.01,0.73c-13.98,2.7-24.43,12.52-29.4,27.67
					c-1.73,5.27-2.81,10.58-3.38,15.83c-4.74,1.2-14.2,2.6-32.58,2.6c-24.46,0-39.94,0-61.3-3.74c7.05-6.97,23.6-21.76,42.06-27.35
					c1.72-0.52,2.69-2.33,2.17-4.05c-0.52-1.72-2.33-2.69-4.05-2.17c-23.67,7.16-43.62,27.57-47.85,32.12
					c-4.72-0.96-9.77-2.1-15.27-3.45c-35.26-8.64-46.1,0.9-68.68,3.06c-16.28,1.56-23.92-3.53-26.03-11.14
					c0.83-4.91,2.87-10.36,6.12-16.12c11.29-20,33.92-56.88,58.69-79.09c15.17-13.62,65.29-56.11,113.5-69.72
					c-7.8,7.65-15.33,16.32-22.54,26c-0.47,0.63-0.85,1.15-1.16,1.54C421.11,340.93,421.4,343.13,422.93,344.31z M358.94,396.21
					c0.71,0,1.43-0.21,2.05-0.66c0.42-0.31,43.13-30.93,76.2-41.07c1.84-0.57,2.88-2.53,2.32-4.38c-0.57-1.84-2.53-2.88-4.38-2.32
					c-34.18,10.49-76.45,40.81-78.24,42.09c-1.56,1.13-1.92,3.32-0.79,4.89C356.78,395.71,357.86,396.21,358.94,396.21z"/>
				<path d="M521,446.68c7.87,0.19,16.02,2.46,24.04,6.61c-13.54-0.17-23.84,0.39-24.06,0.4c-0.06,0-0.11,0-0.17,0
					c-1.87,0-3.42-1.43-3.52-3.3c-0.11-1.93,1.36-3.58,3.29-3.69c0.08,0,0.21-0.01,0.41-0.02
					C520.99,446.68,520.99,446.68,521,446.68z"/>
				<path d="M520.98,453.69c0.22-0.01,10.52-0.57,24.06-0.4c9.71,5.04,19.22,12.83,27.78,23.03c30.18,35.94,45.69,78.13,42,111.9
					c-0.56,5.17-1.58,10.15-3.06,14.88c-2.45,7.8-6.33,13.04-10.73,16.52c-11.66,0.08-20.1-0.45-20.28-0.46
					c-0.04-0.01-0.08-0.01-0.12-0.01c1.02,0,2.04-0.05,3.06-0.14c10.75-0.99,17.95-7.05,21.39-18.01
					c10.46-33.33-4.31-80.51-37.62-120.18c-14.11-16.81-31.36-26.67-46.65-27.12v-0.01C520.87,453.69,520.92,453.69,520.98,453.69z"
					/>
				<path d="M479.2,490.91c0.57-5.25,1.65-10.56,3.38-15.83c4.97-15.15,15.42-24.97,29.4-27.67c2.95-0.57,5.96-0.81,9.01-0.73
					c-0.2,0.01-0.33,0.02-0.41,0.02c-1.93,0.11-3.4,1.76-3.29,3.69c0.1,1.87,1.65,3.3,3.52,3.3v0.01c-2.56-0.08-5.07,0.11-7.5,0.58
					c-11.38,2.2-19.93,10.36-24.09,22.98c-1.34,4.07-2.24,8.2-2.78,12.31l-2.76-0.38C483.68,489.19,482.8,490,479.2,490.91z"/>
				<path class="st2" d="M513.02,392.43c-0.99,0-1.98-0.42-2.67-1.24c-1.25-1.47-1.07-3.68,0.41-4.93
					c0.11-0.09,7.64-6.48,13.88-12.09c3.99-0.74,8.06-1.4,12.18-1.99c-0.08,0.11-0.17,0.21-0.26,0.31
					c-5.04,5.34-20.62,18.55-21.28,19.11C514.63,392.16,513.82,392.43,513.02,392.43z"/>
				<path class="st21" d="M543.17,622.68c-15.52,7.92-48.72,8.44-63.57,8.24c10.02-2.96,16.24-6.1,18.66-7.46
					c0.01,0.01,0.01,0.01,0.01,0c6.87,0.52,13.25,0.71,18.89,0.71c14.51,0,24.21-1.25,25.12-1.37L543.17,622.68z"/>
				<path d="M498.26,623.46c-4.47-0.34-9.15-0.81-13.98-1.46c7.5-2.72,11.31-5.06,11.4-5.12c0.57-0.36,1.22-0.54,1.85-0.54
					c1.17,0,2.31,0.59,2.97,1.65c1.03,1.63,0.53,3.79-1.1,4.82C499.29,622.88,498.92,623.11,498.26,623.46
					C498.27,623.47,498.27,623.47,498.26,623.46z"/>
				<path d="M494.13,552.82c-1.23-0.68-2.49-1.37-3.77-2.06v-0.01c-0.46-0.93-2.19-4.53-4.18-10.02c3.28,1.66,6.49,3.35,9.6,5.05
					c0.55,1.27,0.9,1.97,0.93,2.02c0.86,1.73,0.17,3.83-1.56,4.7C494.82,552.66,494.48,552.77,494.13,552.82z"/>
				<path d="M494.13,552.82c-1.47,0.24-2.98-0.48-3.68-1.88c-0.02-0.04-0.05-0.1-0.09-0.18
					C491.64,551.45,492.9,552.14,494.13,552.82z"/>
				<path d="M483.5,510.72c-0.3-0.03-1.86-0.16-4.33-0.35c-0.6-6.2-0.69-12.77,0.03-19.46c3.6-0.91,4.48-1.72,4.48-1.72l2.76,0.38
					c-1.11,8.26-0.8,16.45,0.23,23.96l-0.04,0.01C486.34,512.05,485.09,510.86,483.5,510.72z"/>
				<path d="M479.17,510.37c2.47,0.19,4.03,0.32,4.33,0.35c1.59,0.14,2.84,1.33,3.13,2.82c0.06,0.31,0.08,0.64,0.05,0.97
					c-0.16,1.82-1.69,3.19-3.48,3.19c-0.11,0-0.21,0-0.31-0.01c-0.06,0-1.07-0.09-2.8-0.23
					C479.72,515.17,479.41,512.8,479.17,510.37z"/>
				<path class="st22" d="M435.08,613.27c5.11,0.18,8.99,0.21,11.1,0.21c0.46,0,0.83,0,1.12-0.01c12.57,4.28,25.21,6.93,36.98,8.53
					c-9.94,3.61-26.37,7.89-49.2,8.39V613.27z"/>
				<path class="st23" d="M486.18,540.73c-8.06-4.09-16.59-8.02-25.43-11.64h21.81C483.72,533.52,485,537.46,486.18,540.73z"/>
				<path d="M482.56,529.09c-0.94-3.58-1.8-7.49-2.47-11.63c1.73,0.14,2.74,0.23,2.8,0.23c0.1,0.01,0.2,0.01,0.31,0.01
					c1.79,0,3.32-1.37,3.48-3.19c0.03-0.33,0.01-0.66-0.05-0.97l0.04-0.01c2.07,15.15,7.03,27.55,9.11,32.25
					c-3.11-1.7-6.32-3.39-9.6-5.05C485,537.46,483.72,533.52,482.56,529.09z"/>
				<path class="st24" d="M482.56,529.09h-21.81c-4.98-2.05-10.05-3.99-15.2-5.82c-8.49-3.01-16.25-5.46-23.31-7.35
					c0.95-0.06,1.89-0.13,2.83-0.2c16.24-1.18,45.82,1,55.02,1.74C480.76,521.6,481.62,525.51,482.56,529.09z"/>
				<path class="st11" d="M475.99,565.19c0.56,0.11,13.83,2.62,23.42,11.63c1.3,1.23,1.37,3.29,0.14,4.6
					c-0.64,0.68-1.51,1.02-2.37,1.02c-0.8,0-1.6-0.29-2.23-0.88c-8.2-7.72-20.02-9.95-20.14-9.97c-1.76-0.33-2.93-2.02-2.61-3.78
					C472.53,566.04,474.21,564.87,475.99,565.19z"/>
				<path d="M460.68,307.92c-0.17,0.18-0.36,0.34-0.58,0.49C460.29,308.24,460.48,308.07,460.68,307.92z"/>
				<path d="M457.57,302.05c1.9-0.32,3.71,0.97,4.03,2.87c0.19,1.13-0.18,2.23-0.92,3c-0.2,0.15-0.39,0.32-0.58,0.49
					c-0.4,0.27-0.86,0.46-1.37,0.55c-4.22,0.71-8.48,1.69-12.75,2.9c3.48-3.43,7.01-6.64,10.6-9.63
					C456.91,302.16,457.24,302.11,457.57,302.05z"/>
				<path d="M456.58,302.23c15.64-13.13,32.33-22.38,49.91-27.65c50.66-15.2,122.35-16.07,157.66,31.5
					c11.59,15.9,16.9,32.42,15.52,48.05c-2.3,0.46-4.7,0.91-7.2,1.37c2.4-18.24-6.21-34.63-13.96-45.27
					c-1.43-1.93-2.92-3.77-4.49-5.52c-34.5-39-99.11-37.34-145.51-23.43c-16.81,5.04-32.8,13.96-47.83,26.64
					c0.74-0.77,1.11-1.87,0.92-3c-0.32-1.9-2.13-3.19-4.03-2.87C457.24,302.11,456.91,302.16,456.58,302.23z"/>
				<path d="M428.08,605.92c11.65,0.63,19.53,0.55,19.74,0.55c0.37,0,0.72,0.05,1.05,0.15c1.44,0.43,2.47,1.73,2.49,3.31
					c0.02,1.93-1.52,3.52-3.46,3.54c-0.1,0-0.3,0-0.6,0c-2.53-0.85-5.05-1.78-7.57-2.77C435.65,609.09,431.77,607.5,428.08,605.92z"
					/>
				<path class="st11" d="M445.49,559.6c4.81,1.13,9.65,1.45,13.28,0.88c3.18-0.49,4.37-1.51,4.45-1.83
					c0.29-1.24-4.58-6.17-15.47-8.72c-3.25-0.76-6.51-1.15-9.41-1.15c-1.39,0-2.69,0.09-3.87,0.27c-3.18,0.5-4.37,1.52-4.44,1.83
					C429.74,552.12,434.6,557.05,445.49,559.6z M433.47,542.63c4.49-0.7,10.09-0.36,15.76,0.97c11.4,2.67,22.03,9.2,20.32,16.53
					c-0.48,2.04-2.38,5.62-9.78,6.77c-1.52,0.24-3.16,0.36-4.89,0.36c-3.39,0-7.12-0.45-10.87-1.33
					c-11.39-2.67-22.03-9.2-20.31-16.53C424.17,547.37,426.08,543.78,433.47,542.63z"/>
				<path class="st25" d="M434.47,549.05c1.18-0.18,2.48-0.27,3.87-0.27c2.9,0,6.16,0.39,9.41,1.15
					c10.89,2.55,15.76,7.48,15.47,8.72c-0.08,0.32-1.27,1.34-4.45,1.83c-3.63,0.57-8.47,0.25-13.28-0.88
					c-10.89-2.55-15.75-7.48-15.46-8.72C430.1,550.57,431.29,549.55,434.47,549.05z"/>
				<path d="M484.28,622c-11.77-1.6-24.41-4.25-36.98-8.53c0.3,0,0.5,0,0.6,0c1.94-0.02,3.48-1.61,3.46-3.54
					c-0.02-1.58-1.05-2.88-2.49-3.31v-0.01c13.39,4.6,27,7.28,39.52,8.77c3.12,0.38,6.18,0.68,9.14,0.92v0.04
					c-0.63,0-1.28,0.18-1.85,0.54C495.59,616.94,491.78,619.28,484.28,622z"/>
				<path class="st11" d="M445.26,487.02c-1.58-0.83-2.19-2.8-1.35-4.39c0.36-0.68,8.98-16.88,19.36-25.3
					c9.09-7.37,20.66-11.08,29.96-14.06c1.45-0.46,2.85-0.91,4.18-1.35c3.98-1.33,24.55-9.19,38.97-33.71
					c0.91-1.55,2.9-2.07,4.45-1.16c1.54,0.91,2.06,2.9,1.15,4.45c-12.08,20.55-29.88,32.37-42.51,36.58
					c-1.36,0.45-2.78,0.91-4.26,1.38c-8.78,2.82-19.71,6.32-27.84,12.91c-9.35,7.58-17.63,23.14-17.72,23.3
					c-0.58,1.1-1.71,1.73-2.87,1.73C446.27,487.4,445.75,487.28,445.26,487.02z"/>
				<path d="M442.22,399.51c-1.31,0-2.57-0.74-3.16-2.01c-0.83-1.74-0.08-3.83,1.67-4.65c0.55-0.27,41.85-19.52,92.45-27.19l0.15,1
					c-0.69,0.14-1.34,0.48-1.85,1.03c-1.48,1.57-4.03,3.94-6.84,6.48c-45.01,8.27-80.42,24.76-80.93,25
					C443.23,399.4,442.72,399.51,442.22,399.51z"/>
				<path d="M358.94,396.21c-1.08,0-2.16-0.5-2.84-1.45c-1.13-1.57-0.77-3.76,0.79-4.89c1.79-1.28,44.06-31.6,78.24-42.09
					c1.85-0.56,3.81,0.48,4.38,2.32c0.56,1.85-0.48,3.81-2.32,4.38c-33.07,10.14-75.78,40.76-76.2,41.07
					C360.37,396,359.65,396.21,358.94,396.21z"/>
				<path class="st26" d="M352.23,599.18c26.72,10.74,63.59,13.44,82.85,14.09v17.12c-2.54,0.05-5.17,0.06-7.87,0.02
					c-41.9-0.64-79.91-12.85-96.84-31.1c-6.59-7.1-9.1-15.96-9.87-23.6C325.61,583.44,335.01,592.26,352.23,599.18z"/>
				<path d="M314.4,557.61c-0.02,0.59-0.25,8.51,6.1,18.1c0.77,7.64,3.28,16.5,9.87,23.6c16.93,18.25,54.94,30.46,96.84,31.1
					c2.7,0.04,5.33,0.03,7.87-0.02c22.83-0.5,39.26-4.78,49.2-8.39c4.83,0.65,9.51,1.12,13.98,1.46c-2.42,1.36-8.64,4.5-18.66,7.46
					c-11.42,3.37-27.77,6.52-49.11,6.52c-1.11,0-2.24-0.01-3.38-0.03c-44.39-0.68-83.43-13.46-101.88-33.34
					c-16.5-17.78-11.52-43.53-10.8-46.8C314.42,557.38,314.41,557.5,314.4,557.61z"/>
				<path class="st11" d="M377.65,488.32c4.23-4.55,24.18-24.96,47.85-32.12c1.72-0.52,3.53,0.45,4.05,2.17
					c0.52,1.72-0.45,3.53-2.17,4.05c-18.46,5.59-35.01,20.38-42.06,27.35C382.85,489.34,380.3,488.85,377.65,488.32z"/>
				<path d="M427.84,343.66c-1.18,1.54-3.38,1.82-4.91,0.65c-1.53-1.18-1.82-3.38-0.65-4.91c0.31-0.39,0.69-0.91,1.16-1.54
					c7.21-9.68,14.74-18.35,22.54-26c4.27-1.21,8.53-2.19,12.75-2.9c0.51-0.09,0.97-0.28,1.37-0.55
					c-10.88,9.25-21.24,20.48-31.05,33.63C428.56,342.7,428.15,343.25,427.84,343.66z"/>
				<path d="M393.18,511.12c7.97,0.14,17.6,1.73,29.06,4.8c-16.21,1.17-32.88,2.21-49.78,0.2
					C377.43,512.64,384.26,510.97,393.18,511.12z"/>
				<path class="st27" d="M344.6,567.82c0.65,0.74,16.1,18.35,37.64,22.66c0.22,0.04,0.43,0.06,0.64,0.06
					c1.52,0,2.88-1.07,3.19-2.61c0.35-1.76-0.79-3.48-2.55-3.83c-19.29-3.85-33.81-20.32-34-20.54c-1.18-1.36-3.23-1.5-4.59-0.33
					C343.58,564.41,343.43,566.46,344.6,567.82z M321.43,558.9c2.63-3.14,14.2-14.56,41.51-11.47c1.89,12.42,8.65,23.35,20.55,33.28
					c10.2,8.51,24.54,16.64,44.59,25.21c-19.88-1.08-50.75-4.2-73.23-13.24C324.96,580.67,321.76,563.26,321.43,558.9z"/>
				<path d="M393.19,510.25c10.57,0,21.07-0.76,31.38-1.51c16.13-1.17,43.9,0.78,54.6,1.63c0.24,2.43,0.55,4.8,0.92,7.09
					c-9.2-0.74-38.78-2.92-55.02-1.74c-0.94,0.07-1.88,0.14-2.83,0.2c-11.46-3.07-21.09-4.66-29.06-4.8L393.19,510.25z"/>
				<path d="M297.19,501.2c5.5-0.06,11.27-0.58,16.97-1.09c2.15-0.2,4.27-0.39,6.35-0.55c10.39-0.82,19.08,1.66,28.26,4.29
					c5.88,1.67,11.95,3.41,19.19,4.57c8.41,1.35,16.84,1.83,25.23,1.83l-0.01,0.87c-8.92-0.15-15.75,1.52-20.72,5
					c-1.87-0.23-3.75-0.49-5.62-0.79c-7.64-1.23-14.2-3.1-19.99-4.75c-8.93-2.56-16.65-4.76-25.8-4.04
					c-2.05,0.16-4.14,0.35-6.26,0.54c-4.57,0.41-9.34,0.84-14.09,1.02v-2.89c0-1.93-1.57-3.5-3.5-3.5L297.19,501.2z"/>
				<path class="st11" d="M376.85,489.19c0.08-0.1,0.35-0.4,0.8-0.87c2.65,0.53,5.2,1.02,7.67,1.45c-2.27,2.25-3.56,3.68-3.61,3.74
					c-0.64,0.72-1.54,1.09-2.43,1.09c-0.77,0-1.54-0.27-2.16-0.82C375.78,492.59,375.66,490.53,376.85,489.19z"/>
				<path class="st28" d="M297.19,501.2c-8.22,0.13-15.83-0.73-21.65-4.07c-6.78-3.88-9.43-11.17-7.87-20.34
					c2.11,7.61,9.75,12.7,26.03,11.14c22.58-2.16,33.42-11.7,68.68-3.06c5.5,1.35,10.55,2.49,15.27,3.45
					c-0.45,0.47-0.72,0.77-0.8,0.87c-1.19,1.34-1.07,3.4,0.27,4.59c0.62,0.55,1.39,0.82,2.16,0.82c0.89,0,1.79-0.37,2.43-1.09
					c0.05-0.06,1.34-1.49,3.61-3.74c21.36,3.74,36.84,3.74,61.3,3.74c18.38,0,27.84-1.4,32.58-2.6c-0.72,6.69-0.63,13.26-0.03,19.46
					c-10.7-0.85-38.47-2.8-54.6-1.63c-10.31,0.75-20.81,1.51-31.38,1.51c-8.39,0-16.82-0.48-25.23-1.83
					c-7.24-1.16-13.31-2.9-19.19-4.57c-9.18-2.63-17.87-5.11-28.26-4.29c-2.08,0.16-4.2,0.35-6.35,0.55
					C308.46,500.62,302.69,501.14,297.19,501.2z"/>
				<path d="M366.67,523.89c0.78-2.28,2.13-4.43,4.02-6.38c0.09-0.09,0.18-0.17,0.27-0.25s0.19-0.15,0.29-0.22
					c1.34-0.91,3.19-0.78,4.39,0.4c1.39,1.34,1.43,3.56,0.08,4.94c-0.04,0.04-0.08,0.08-0.11,0.12c-4.2,3.43-6.24,9.15-6.23,17.42
					c-1.48-2.39-2.52-4.75-3.07-7.06C365.57,529.72,365.69,526.7,366.67,523.89z"/>
				<path d="M369.38,539.92c-0.01-8.27,2.03-13.99,6.23-17.42c-2.49,2.63-3.28,5.41-2.49,8.74c3.7,15.56,39.29,36.48,71.57,47.7
					c33.52,11.66,82.32,11.16,98.1,10.65c0.89,1.26,1.47,2.35,1.74,3.25l-0.89,3.75c-3.45,0.12-8.6,0.26-14.93,0.26
					c-9.63,0-21.97-0.32-35.11-1.47c-17.11-1.49-35.58-4.39-51.21-9.82C412.2,575.05,379.89,556.88,369.38,539.92z"/>
				<path d="M375.64,517.44c-1.2-1.18-3.05-1.31-4.39-0.4c0.29-0.26,0.59-0.49,0.9-0.71c0.1-0.07,0.21-0.15,0.31-0.21
					c16.9,2.01,33.57,0.97,49.78-0.2c7.06,1.89,14.82,4.34,23.31,7.35c5.15,1.83,10.22,3.77,15.2,5.82
					c8.84,3.62,17.37,7.55,25.43,11.64c1.99,5.49,3.72,9.09,4.18,10.02c-13.67-7.37-29.54-14.63-47.15-20.88
					c-22.26-7.9-39.2-11.83-51.15-11.83c-6.92,0-12.17,1.32-15.8,3.95c-0.22,0.16-0.44,0.33-0.65,0.51
					c0.03-0.04,0.07-0.08,0.11-0.12C377.07,521,377.03,518.78,375.64,517.44z"/>
				<path d="M370.96,517.26c-0.09,0.08-0.18,0.16-0.27,0.25C370.78,517.41,370.87,517.33,370.96,517.26z"/>
				<path class="st29" d="M369.4,541.12c-0.01-0.4-0.02-0.81-0.02-1.2c10.51,16.96,42.82,35.13,73.01,45.64
					c15.63,5.43,34.1,8.33,51.21,9.82l-5.21,20c-12.52-1.49-26.13-4.17-39.52-8.77c-2.2-0.75-4.38-1.56-6.56-2.42
					c-49.2-19.43-70.63-37.07-72.74-60.26C369.48,543,369.42,542.07,369.4,541.12z"/>
				<path class="st30" d="M346.85,510.58c5.79,1.65,12.35,3.52,19.99,4.75c1.87,0.3,3.75,0.56,5.62,0.79
					c-0.1,0.06-0.21,0.14-0.31,0.21c-0.31,0.22-0.61,0.45-0.9,0.71c-0.1,0.07-0.2,0.14-0.29,0.22c-0.09,0.07-0.18,0.15-0.27,0.25
					c-1.99,1.7-3.62,3.74-4.88,6.12c-5.75-1.79-21.86-6.53-32.07-7.18c-10.65-0.68-26.45-1.17-33.04-2.28v-6.07
					c4.75-0.18,9.52-0.61,14.09-1.02c2.12-0.19,4.21-0.38,6.26-0.54C330.2,505.82,337.92,508.02,346.85,510.58z"/>
				<path d="M365.4,547.74c-0.83-0.12-1.66-0.22-2.46-0.31c-0.31-2-0.49-4.05-0.54-6.13c-0.01-0.33-0.01-0.66-0.01-0.98
					c1.3,0.13,2.62,0.29,3.98,0.48c1.64,0.23,2.85,1.56,3,3.15c0.02,0.26,0.02,0.53-0.02,0.81
					C369.08,546.67,367.31,548,365.4,547.74z"/>
				<path d="M370.69,517.51c-1.89,1.95-3.24,4.1-4.02,6.38c-0.25-0.08-0.54-0.17-0.86-0.26
					C367.07,521.25,368.7,519.21,370.69,517.51z"/>
				<path class="st16" d="M300.7,514.17c6.59,1.11,22.39,1.6,33.04,2.28c10.21,0.65,26.32,5.39,32.07,7.18
					c-2.36,4.39-3.48,9.92-3.42,16.69c-33.53-3.31-46.1,13.6-47.33,15.41c-0.01,0.01-0.01,0.01-0.02,0.02
					c-0.03,0.05-0.06,0.09-0.07,0.11c-0.06,0.08-0.11,0.17-0.15,0.26c-0.05,0.08-0.1,0.17-0.13,0.27c-0.05,0.1-0.09,0.2-0.12,0.31
					c-0.06,0.17-0.1,0.34-0.13,0.52c0,0.02-0.01,0.04-0.01,0.05c-0.72,3.27-5.7,29.02,10.8,46.8
					c18.45,19.88,57.49,32.66,101.88,33.34c1.14,0.02,2.27,0.03,3.38,0.03v1.25h-90.81h-1.44c-10.32,0-20.05,0.01-26.91-3.43
					c-4.57-2.3-10.63-7.25-10.63-23.67V514.17z"/>
				<path d="M366.67,523.89c-0.98,2.81-1.1,5.83-0.36,8.97c0.55,2.31,1.59,4.67,3.07,7.06c0,0.39,0.01,0.8,0.02,1.2
					c0.02,0.95,0.08,1.88,0.17,2.81l-0.2,0.02c-0.15-1.59-1.36-2.92-3-3.15c-1.36-0.19-2.68-0.35-3.98-0.48
					c-0.06-6.77,1.06-12.3,3.42-16.69C366.13,523.72,366.42,523.81,366.67,523.89z"/>
				<path d="M383.49,580.71c-11.9-9.93-18.66-20.86-20.55-33.28c0.8,0.09,1.63,0.19,2.46,0.31c1.91,0.26,3.68-1.07,3.95-2.98
					c0.04-0.28,0.04-0.55,0.02-0.81l0.2-0.02c2.11,23.19,23.54,40.83,72.74,60.26c2.18,0.86,4.36,1.67,6.56,2.42v0.01
					c-0.33-0.1-0.68-0.15-1.05-0.15c-0.21,0-8.09,0.08-19.74-0.55C408.03,597.35,393.69,589.22,383.49,580.71z"/>
				<path class="st11" d="M349.52,563.56c0.19,0.22,14.71,16.69,34,20.54c1.76,0.35,2.9,2.07,2.55,3.83
					c-0.31,1.54-1.67,2.61-3.19,2.61c-0.21,0-0.42-0.02-0.64-0.06c-21.54-4.31-36.99-21.92-37.64-22.66
					c-1.17-1.36-1.02-3.41,0.33-4.59C346.29,562.06,348.34,562.2,349.52,563.56z"/>
				<path d="M321.17,559.22c0.07-0.09,0.16-0.2,0.26-0.32c0.33,4.36,3.53,21.77,33.42,33.78c22.48,9.04,53.35,12.16,73.23,13.24
					c3.69,1.58,7.57,3.17,11.65,4.78c2.52,0.99,5.04,1.92,7.57,2.77c-0.29,0.01-0.66,0.01-1.12,0.01c-2.11,0-5.99-0.03-11.1-0.21
					c-19.26-0.65-56.13-3.35-82.85-14.09c-17.22-6.92-26.62-15.74-31.73-23.47C319.71,567.83,320.78,561.25,321.17,559.22z"/>
				<path d="M318.06,554.27c1.92,0.09,3.41,1.72,3.34,3.64c0,0.1-0.01,0.44,0.03,0.99c-0.1,0.12-0.19,0.23-0.26,0.32
					c-0.39,2.03-1.46,8.61-0.67,16.49c-6.35-9.59-6.12-17.51-6.1-18.1c0.01-0.11,0.02-0.23,0.03-0.34c0-0.01,0.01-0.03,0.01-0.05
					c0.03-0.13,0.05-0.21,0.06-0.26c0.02-0.09,0.04-0.17,0.07-0.26c0.03-0.11,0.07-0.21,0.12-0.31c0.04-0.09,0.08-0.18,0.13-0.27
					c0.04-0.09,0.09-0.18,0.15-0.26c0.01-0.02,0.04-0.06,0.07-0.11c0.01-0.01,0.01-0.01,0.02-0.02
					C315.73,554.8,316.84,554.21,318.06,554.27z"/>
				<path d="M315.06,555.73c1.23-1.81,13.8-18.72,47.33-15.41c0,0.32,0,0.65,0.01,0.98c0.05,2.08,0.23,4.13,0.54,6.13
					c-27.31-3.09-38.88,8.33-41.51,11.47c-0.04-0.55-0.03-0.89-0.03-0.99c0.07-1.92-1.42-3.55-3.34-3.64
					C316.84,554.21,315.73,554.8,315.06,555.73z"/>
				<path d="M314.82,556.12c-0.05,0.09-0.09,0.18-0.13,0.27C314.72,556.29,314.77,556.2,314.82,556.12z"/>
				<path d="M314.5,556.96c-0.01,0.05-0.03,0.13-0.06,0.26c0.03-0.18,0.07-0.35,0.13-0.52C314.54,556.79,314.52,556.87,314.5,556.96
					z"/>
				<path d="M297.2,608.09c1.93,0,3.5,1.57,3.5,3.5v24.1c-4.7-5.51-7-13.49-7-24.1C293.7,609.66,295.27,608.09,297.2,608.09z"/>
				<path d="M297.2,501.71c1.93,0,3.5,1.57,3.5,3.5v2.89c-2.34,0.1-4.69,0.13-7,0.07v-2.96C293.7,503.28,295.27,501.71,297.2,501.71
					z"/>
				<path d="M297.2,608.09c-1.93,0-3.5,1.57-3.5,3.5V508.17c2.31,0.06,4.66,0.03,7-0.07v6.07v97.42
					C300.7,609.66,299.13,608.09,297.2,608.09z"/>
				<path d="M275.54,497.13c5.82,3.34,13.43,4.2,21.65,4.07l0.01,0.51c-1.93,0-3.5,1.57-3.5,3.5v2.96
					c-7.91-0.19-15.47-1.42-21.64-4.96c-13.91-7.98-15.63-26.03-4.37-45.98c11.5-20.38,34.6-57.98,60.11-80.86
					c16.78-15.06,75.38-64.64,128.78-74.14c-3.59,2.99-7.12,6.2-10.6,9.63c-48.21,13.61-98.33,56.1-113.5,69.72
					c-24.77,22.21-47.4,59.09-58.69,79.09c-3.25,5.76-5.29,11.21-6.12,16.12C266.11,485.96,268.76,493.25,275.54,497.13z"/>
			</g>
		</g>
	</g>
</g>
</svg>
