<?xml version="1.0" encoding="utf-8"?>
<!-- Generator: Adobe Illustrator 23.0.5, SVG Export Plug-In . SVG Version: 6.00 Build 0)  -->
<svg version="1.1" id="Layer_1" xmlns="http://www.w3.org/2000/svg" xmlns:xlink="http://www.w3.org/1999/xlink" x="0px" y="0px"
	 viewBox="0 0 1080 1080" style="enable-background:new 0 0 1080 1080;" xml:space="preserve">
<style type="text/css">
	.st0{fill:#FEFEFE;}
	.st1{fill:#989955;}
	.st2{fill:#D1D8A3;}
</style>
<g>
	<g>
		<g id="XMLID_1_">
			<g>
				<path d="M774.34,307.01c62.62,62.23,97.1,144.98,97.1,232.99s-34.48,170.76-97.1,232.99c-62.6,62.21-145.82,96.47-234.34,96.47
					s-171.74-34.26-234.34-96.47c-62.62-62.23-97.1-144.98-97.1-232.99s34.48-170.76,97.1-232.99
					c62.6-62.21,145.82-96.47,234.34-96.47S711.74,244.8,774.34,307.01z M850.44,540c0-170.09-139.26-308.46-310.44-308.46
					S229.56,369.91,229.56,540S368.82,848.46,540,848.46S850.44,710.09,850.44,540z"/>
				<path class="st0" d="M540,231.54c171.18,0,310.44,138.37,310.44,308.46S711.18,848.46,540,848.46S229.56,710.09,229.56,540
					S368.82,231.54,540,231.54z M701.52,678.36V457.38c0-32.93-15.79-41.61-31.07-50.01l-0.78-0.43
					c-12.43-6.84-12.43-12.43-12.43-16.52v-13.2c9.67-1.05,17.22-9.26,17.22-19.2v-21.06c0-10.65-8.67-19.32-19.32-19.32H424.02
					c-10.65,0-19.32,8.67-19.32,19.32v21.06c0,9.98,7.61,18.22,17.34,19.22v13.72c0,6.82-3.06,9.1-12.72,15.28
					c-2.27,1.45-4.85,3.1-7.65,5.05c-20.16,14.54-23.85,25.9-23.85,43.03v203.16c0,3.43-0.08,6.88-0.17,10.53
					c-0.53,22.82-1.14,48.69,19.42,72.14c19.38,22.12,46.19,24.25,67.89,24.25c2.68,0,5.29-0.03,7.8-0.06
					c2.35-0.03,4.63-0.06,6.82-0.06h139.68c31.94,0,55.19-11.57,69.08-34.38C699.81,711.09,701.52,689.53,701.52,678.36z"/>
				<path d="M701.52,457.38v220.98c0,11.17-1.71,32.73-13.18,51.54c-13.89,22.81-37.14,34.38-69.08,34.38H479.58
					c-2.19,0-4.47,0.03-6.82,0.06c-2.51,0.03-5.12,0.06-7.8,0.06c-21.7,0-48.51-2.13-67.89-24.25
					c-20.56-23.45-19.95-49.32-19.42-72.14c0.09-3.65,0.17-7.1,0.17-10.53V454.32c0-17.13,3.69-28.49,23.85-43.03
					c2.8-1.95,5.38-3.6,7.65-5.05c9.66-6.18,12.72-8.46,12.72-15.28v-13.72c-9.73-1-17.34-9.24-17.34-19.22v-21.06
					c0-10.65,8.67-19.32,19.32-19.32h231.12c10.65,0,19.32,8.67,19.32,19.32v21.06c0,9.94-7.55,18.15-17.22,19.2v13.2
					c0,4.09,0,9.68,12.43,16.52l0.78,0.43C685.73,415.77,701.52,424.45,701.52,457.38z M689.52,678.36V457.38
					c0-25.83-9.89-31.26-24.85-39.49l-0.78-0.43c-18.65-10.27-18.65-21.6-18.65-27.04v-13.08h-211.2v13.62
					c0,13.71-8.46,19.12-18.25,25.39c-2.29,1.46-4.65,2.97-7.18,4.73c-16.93,12.21-18.79,19.86-18.79,33.24v203.16
					c0,3.57-0.09,7.25-0.17,10.81c-0.51,21.64-1.03,44.02,16.44,63.96c18.14,20.69,44.96,20.36,66.52,20.09
					c2.4-0.03,4.73-0.06,6.97-0.06h139.68C682.67,752.28,689.52,700.59,689.52,678.36z M662.46,358.02v-21.06
					c0-4.04-3.28-7.32-7.32-7.32H424.02c-4.04,0-7.32,3.28-7.32,7.32v21.06c0,4.04,3.28,7.32,7.32,7.32h231.12
					C659.18,365.34,662.46,362.06,662.46,358.02z"/>
				<path class="st0" d="M689.52,457.38v220.98c0,22.23-6.85,73.92-70.26,73.92H479.58c-2.24,0-4.57,0.03-6.97,0.06
					c-21.56,0.27-48.38,0.6-66.52-20.09c-17.47-19.94-16.95-42.32-16.44-63.96c0.08-3.56,0.17-7.24,0.17-10.81V454.32
					c0-13.38,1.86-21.03,18.79-33.24c2.53-1.76,4.89-3.27,7.18-4.73c9.79-6.27,18.25-11.68,18.25-25.39v-13.62h211.2v13.08
					c0,5.44,0,16.77,18.65,27.04l0.78,0.43C679.63,426.12,689.52,431.55,689.52,457.38z M676.44,483.03
					c1.18-1.63,1.51-3.82,0.68-5.81c-1.27-3.06-4.78-4.51-7.84-3.24c-13.08,5.44-37.54,14.47-54.39,13.94
					c-15.81-0.5-41.75-3.68-62.84-11.01c-22.54-7.83-50.32-11.85-78.23-11.31c-29,0.56-67.2,17.99-68.81,18.73
					c-3.01,1.38-4.33,4.95-2.94,7.96c0.17,0.36,0.36,0.7,0.59,1.01c0,17.06,0,162.51,0,178.1c0,16.56-1.62,35.1,12.42,50.04
					c14.04,14.94,25.2,18.54,52.92,18.54s120.06,0,135.72,0c15.66,0,39.78,2.7,56.34-14.58c16.56-17.28,16.38-30.6,16.38-50.58
					C676.44,655.94,676.44,500.17,676.44,483.03z M634.95,440.36c3.58-15.57-11.63-36.52-13.37-38.86c-1.13-1.51-2.89-2.4-4.77-2.41
					c-0.02,0-0.03,0-0.04,0c-1.87,0-3.63,0.87-4.76,2.35c-0.34,0.44-8.24,10.85-14.06,25.87c-0.08,0.21-0.15,0.41-0.21,0.62
					c-2.95,11.09,1.46,17.48,4.36,20.3c3.62,3.53,8.77,5.44,14.11,5.44c2.11,0,4.25-0.3,6.34-0.91
					C628.96,450.87,633.6,446.24,634.95,440.36z"/>
				<path d="M677.12,477.22c0.83,1.99,0.5,4.18-0.68,5.81c-0.62,0.87-1.49,1.59-2.56,2.03c-16.5,6.86-39.64,14.88-57.56,14.88
					c-0.61,0-1.21,0-1.81-0.02c-16.65-0.53-44.03-3.9-66.4-11.67c-21.23-7.38-47.53-11.17-74.05-10.65
					c-26.52,0.51-63.66,17.46-64.03,17.63c-2.65,1.22-5.73,0.35-7.37-1.93c-0.23-0.31-0.42-0.65-0.59-1.01
					c-1.39-3.01-0.07-6.58,2.94-7.96c1.61-0.74,39.81-18.17,68.81-18.73c27.91-0.54,55.69,3.48,78.23,11.31
					c21.09,7.33,47.03,10.51,62.84,11.01c16.85,0.53,41.31-8.5,54.39-13.94C672.34,472.71,675.85,474.16,677.12,477.22z"/>
				<path class="st1" d="M676.44,674.82c0,19.98,0.18,33.3-16.38,50.58c-16.56,17.28-40.68,14.58-56.34,14.58
					c-15.66,0-108,0-135.72,0s-38.88-3.6-52.92-18.54c-14.04-14.94-12.42-33.48-12.42-50.04c0-15.59,0-161.04,0-178.1
					c1.64,2.28,4.72,3.15,7.37,1.93c0.37-0.17,37.51-17.12,64.03-17.63c26.52-0.52,52.82,3.27,74.05,10.65
					c22.37,7.77,49.75,11.14,66.4,11.67c0.6,0.02,1.2,0.02,1.81,0.02c17.92,0,41.06-8.02,57.56-14.88c1.07-0.44,1.94-1.16,2.56-2.03
					C676.44,500.17,676.44,655.94,676.44,674.82z M658.86,643.32V519.48c0-3.31-2.69-6-6-6s-6,2.69-6,6v123.84c0,3.31,2.69,6,6,6
					S658.86,646.63,658.86,643.32z M627.43,563.53c1.76-2.81,0.92-6.51-1.89-8.27s-6.51-0.92-8.27,1.89l-9.72,15.48
					c-1.76,2.8-0.92,6.51,1.89,8.27c0.99,0.62,2.09,0.92,3.18,0.92c2,0,3.95-0.99,5.09-2.81L627.43,563.53z M619.02,636.8
					c2.62-2.04,3.08-5.81,1.04-8.42c-2.04-2.62-5.82-3.08-8.42-1.04l-10.71,8.37c-2.62,2.04-3.08,5.81-1.04,8.42
					c1.19,1.52,2.95,2.31,4.73,2.31c1.3,0,2.6-0.42,3.69-1.27L619.02,636.8z M617.43,696.36c2.96-1.49,4.15-5.1,2.66-8.06
					c-1.49-2.96-5.1-4.15-8.05-2.66l-12.91,6.5c-2.96,1.49-4.15,5.1-2.66,8.06c1.06,2.09,3.17,3.3,5.36,3.3
					c0.91,0,1.83-0.2,2.7-0.64L617.43,696.36z M573.54,589.08c0-3.38-2.74-6.12-6.12-6.12s-6.12,2.74-6.12,6.12s2.74,6.12,6.12,6.12
					S573.54,592.46,573.54,589.08z M519.33,628.68c2.05-2.61,1.61-6.38-0.99-8.43c-2.61-2.05-6.38-1.61-8.43,0.99l-11.43,14.49
					c-2.05,2.61-1.61,6.38,0.99,8.43c1.1,0.87,2.41,1.29,3.72,1.29c1.77,0,3.53-0.78,4.71-2.28L519.33,628.68z M516.03,554.9
					c1.97-2.67,1.4-6.43-1.27-8.39c-2.67-1.97-6.43-1.4-8.39,1.27l-10.8,14.67c-1.97,2.67-1.4,6.43,1.27,8.39
					c1.07,0.79,2.32,1.17,3.56,1.17c1.84,0,3.66-0.85,4.83-2.44L516.03,554.9z M470.79,692.38c2.69-1.94,3.29-5.69,1.36-8.38
					l-9.09-12.6c-1.94-2.69-5.69-3.3-8.38-1.36s-3.29,5.69-1.36,8.38l9.09,12.6c1.18,1.63,3.01,2.49,4.87,2.49
					C468.5,693.51,469.73,693.14,470.79,692.38z M460.31,599.4c2.74-1.86,3.44-5.6,1.57-8.33L454.32,580
					c-1.87-2.74-5.6-3.44-8.33-1.57c-2.74,1.86-3.44,5.6-1.57,8.33l7.56,11.07c1.16,1.7,3.04,2.62,4.96,2.62
					C458.1,600.45,459.28,600.11,460.31,599.4z"/>
				<path class="st0" d="M662.46,336.96v21.06c0,4.04-3.28,7.32-7.32,7.32H424.02c-4.04,0-7.32-3.28-7.32-7.32v-21.06
					c0-4.04,3.28-7.32,7.32-7.32h231.12C659.18,329.64,662.46,332.92,662.46,336.96z"/>
				<path d="M658.86,519.48v123.84c0,3.31-2.69,6-6,6s-6-2.69-6-6V519.48c0-3.31,2.69-6,6-6S658.86,516.17,658.86,519.48z"/>
				<path d="M621.58,401.5c1.74,2.34,16.95,23.29,13.37,38.86c-1.35,5.88-5.99,10.51-12.4,12.4c-2.09,0.61-4.23,0.91-6.34,0.91
					c-5.34,0-10.49-1.91-14.11-5.44c-2.9-2.82-7.31-9.21-4.36-20.3c0.06-0.21,0.13-0.41,0.21-0.62
					c5.82-15.02,13.72-25.43,14.06-25.87c1.13-1.48,2.89-2.35,4.76-2.35c0.01,0,0.02,0,0.04,0
					C618.69,399.1,620.45,399.99,621.58,401.5z M623.25,437.68c1.27-5.54-2.38-14.42-6.5-21.62c-2.32,3.91-5.1,9.18-7.49,15.27
					c-0.67,2.68-0.96,6.19,1.22,8.31c1.93,1.88,5.5,2.54,8.68,1.61C620.47,440.86,622.74,439.89,623.25,437.68z"/>
				<path d="M625.54,555.26c2.81,1.76,3.65,5.46,1.89,8.27l-9.72,15.48c-1.14,1.82-3.09,2.81-5.09,2.81c-1.09,0-2.19-0.3-3.18-0.92
					c-2.81-1.76-3.65-5.47-1.89-8.27l9.72-15.48C619.03,554.34,622.73,553.5,625.54,555.26z"/>
				<path class="st0" d="M616.75,416.06c4.12,7.2,7.77,16.08,6.5,21.62c-0.51,2.21-2.78,3.18-4.09,3.57
					c-3.18,0.93-6.75,0.27-8.68-1.61c-2.18-2.12-1.89-5.63-1.22-8.31C611.65,425.24,614.43,419.97,616.75,416.06z"/>
				<path d="M620.06,628.38c2.04,2.61,1.58,6.38-1.04,8.42l-10.71,8.37c-1.09,0.85-2.39,1.27-3.69,1.27c-1.78,0-3.54-0.79-4.73-2.31
					c-2.04-2.61-1.58-6.38,1.04-8.42l10.71-8.37C614.24,625.3,618.02,625.76,620.06,628.38z"/>
				<path d="M620.09,688.3c1.49,2.96,0.3,6.57-2.66,8.06l-12.9,6.5c-0.87,0.44-1.79,0.64-2.7,0.64c-2.19,0-4.3-1.21-5.36-3.3
					c-1.49-2.96-0.3-6.57,2.66-8.06l12.91-6.5C614.99,684.15,618.6,685.34,620.09,688.3z"/>
				<circle cx="567.42" cy="589.08" r="6.12"/>
				<path d="M518.34,620.25c2.6,2.05,3.04,5.82,0.99,8.43l-11.43,14.49c-1.18,1.5-2.94,2.28-4.71,2.28c-1.31,0-2.62-0.42-3.72-1.29
					c-2.6-2.05-3.04-5.82-0.99-8.43l11.43-14.49C511.96,618.64,515.73,618.2,518.34,620.25z"/>
				<path d="M514.76,546.51c2.67,1.96,3.24,5.72,1.27,8.39l-10.8,14.67c-1.17,1.59-2.99,2.44-4.83,2.44c-1.24,0-2.49-0.38-3.56-1.17
					c-2.67-1.96-3.24-5.72-1.27-8.39l10.8-14.67C508.33,545.11,512.09,544.54,514.76,546.51z"/>
				<path d="M472.15,684c1.93,2.69,1.33,6.44-1.36,8.38c-1.06,0.76-2.29,1.13-3.51,1.13c-1.86,0-3.69-0.86-4.87-2.49l-9.09-12.6
					c-1.93-2.69-1.33-6.44,1.36-8.38s6.44-1.33,8.38,1.36L472.15,684z"/>
				<path d="M461.88,591.07c1.87,2.73,1.17,6.47-1.57,8.33c-1.03,0.71-2.21,1.05-3.37,1.05c-1.92,0-3.8-0.92-4.96-2.62l-7.56-11.07
					c-1.87-2.73-1.17-6.47,1.57-8.33c2.73-1.87,6.46-1.17,8.33,1.57L461.88,591.07z"/>
			</g>
		</g>
	</g>
	<circle class="st2" cx="652.95" cy="673.74" r="6.3"/>
</g>
</svg>
