<?xml version="1.0" encoding="utf-8"?>
<!-- Generator: Adobe Illustrator 23.0.5, SVG Export Plug-In . SVG Version: 6.00 Build 0)  -->
<svg version="1.1" id="Layer_1" xmlns="http://www.w3.org/2000/svg" xmlns:xlink="http://www.w3.org/1999/xlink" x="0px" y="0px"
	 viewBox="0 0 1080 1080" style="enable-background:new 0 0 1080 1080;" xml:space="preserve">
<style type="text/css">
	.st0{fill:#71A243;}
	.st1{fill:#94C145;}
	.st2{fill:#010000;}
	.st3{fill:#F2F9FA;}
	.st4{fill:#D2E1E0;}
	.st5{fill:#E6F2F1;}
	.st6{fill:#622A20;}
	.st7{fill:#DBC7C5;}
	.st8{fill:#7D4037;}
	.st9{fill:#99C64B;}
</style>
<g>
	<g>
		<g id="XMLID_1_">
			<g>
				<path class="st0" d="M575.03,349.97l-31.62,38c-0.89-0.03-1.8-0.07-2.73-0.13c0,0-0.07-0.41-0.15-1.15l32.52-38.38
					L575.03,349.97z"/>
				<path class="st1" d="M588.2,334.86c0,0,7.48,54.69-44.79,53.11l31.62-38l-1.98-1.66l-32.52,38.38
					C539.68,379.28,537.36,338.35,588.2,334.86z"/>
			</g>
		</g>
		<g id="XMLID_2_">
			<g>
				<path class="st0" d="M505,349.97l31.62,38c0.89-0.03,1.8-0.07,2.73-0.13c0,0,0.07-0.41,0.15-1.15l-32.52-38.38L505,349.97z"/>
				<path class="st1" d="M491.83,334.86c0,0-7.48,54.69,44.79,53.11l-31.62-38l1.98-1.66l32.52,38.38
					C540.35,379.28,542.67,338.35,491.83,334.86z"/>
			</g>
		</g>
		<g>
			<path class="st2" d="M539.57,736.14h75.81c30.38,0,42.25-3.88,52.73-26.83c8.77-19.23-3.31-39.23-12.12-53.83
				c-1.39-2.29-2.69-4.45-3.8-6.42c-7.85-14.04-70.39-130.66-71.02-131.83l-0.53-1v-97.64l-2.1,1.17c0.21,0,13.38,0,13.38,0
				c1.43,0,2.77-0.55,3.78-1.56c1.01-1.01,1.56-2.35,1.56-3.78c0-2.94-2.4-5.34-5.34-5.34h-52.35h-51.81
				c-1.43,0-2.77,0.55-3.78,1.56c-1.01,1.01-1.56,2.35-1.56,3.78c0,2.94,2.4,5.34,5.34,5.34h11.1v96.49l-75.45,138.31
				c-14.48,24.31-19.39,38.66-10.2,59.42c6.02,13.59,17.91,20.55,37.42,21.88c3.64,0.25,7.13,0.28,9.77,0.28H539.57z M663.69,650.83
				c9.3,15.4,23.35,38.66,12.6,62.22c-12.53,27.46-28.91,32.09-60.91,32.09H460.4c-2.78,0-6.47-0.03-10.39-0.3
				c-11.44-0.78-20.84-3.4-28.31-7.92c-7.47-4.51-13-10.92-16.71-19.3c-11.71-26.43-2.98-44.7,10.64-67.59l74.23-136.08v-85.19h-2.1
				c-7.91,0-14.34-6.43-14.34-14.34c0-3.83,1.49-7.43,4.2-10.14c2.7-2.71,6.31-4.2,10.14-4.2h104.16c7.91,0,14.34,6.43,14.34,14.34
				c0,3.83-1.49,7.44-4.2,10.14c-2.71,2.71-6.31,4.2-10.14,4.2h-2.28v85.21c6.15,11.47,62.98,117.42,70.41,130.69
				C661.08,646.5,662.35,648.6,663.69,650.83z"/>
			<path class="st3" d="M519.92,517.26c0,6.6,0.6,15.24-14.28,45.72h-12.96c0,0,12.48-28.08,13.92-33.12
				c1.44-5.04,2.16-26.04,2.16-32.88s0-55.32,0-57.84c0-2.52,11.16-2.88,11.16,0C519.92,442.02,519.92,510.66,519.92,517.26z"/>
			<g>
				<g id="XMLID_3_">
					<g>
						<path class="st4" d="M655.99,655.48c8.81,14.6,20.89,34.6,12.12,53.83c-10.48,22.95-22.35,26.83-52.73,26.83h-75.81v-6.96
							v-5.1c30.35,0,60.45,0,72.39,0c25.92,0,31.68-1.08,41.4-14.4c9.72-13.32,2.28-31.14-1.8-38.82c-4.08-7.68-57-104.64-57-104.64
							h-54.99v-9V409.08h52.35c2.94,0,5.34,2.4,5.34,5.34c0,1.43-0.55,2.77-1.56,3.78c-1.01,1.01-2.35,1.56-3.78,1.56
							c0,0-5.56,0-9.35,0l-1.93-3.39v3.39c-0.9,0-1.48,0-1.53,0l1.53,1.14v95.33l0.53,1c0.63,1.17,63.17,117.79,71.02,131.83
							C653.3,651.03,654.6,653.19,655.99,655.48z"/>
						<path class="st4" d="M580.64,416.37l1.93,3.39c-0.72,0-1.38,0-1.93,0V416.37z"/>
						<path class="st4" d="M580.64,419.76v1.14l-1.53-1.14C579.16,419.76,579.74,419.76,580.64,419.76z"/>
					</g>
				</g>
			</g>
			<path class="st5" d="M422,700.98c5.64,21.12,24.72,23.1,38.64,23.1c7.51,0,43.39,0,78.93,0v5.1v6.96H460.4
				c-2.64,0-6.13-0.03-9.77-0.28c-19.51-1.33-31.4-8.29-37.42-21.88c-9.19-20.76-4.28-35.11,10.2-59.42l75.45-138.31v-96.49h-11.1
				c-2.94,0-5.34-2.4-5.34-5.34c0-1.43,0.55-2.77,1.56-3.78c1.01-1.01,2.35-1.56,3.78-1.56h51.81v148.14v9h-55.41
				c0,0-44.16,82.08-50.88,94.56S418.04,684.66,422,700.98z M505.64,562.98c14.88-30.48,14.28-39.12,14.28-45.72
				c0-6.6,0-75.24,0-78.12c0-2.88-11.16-2.52-11.16,0c0,2.52,0,51,0,57.84s-0.72,27.84-2.16,32.88
				c-1.44,5.04-13.92,33.12-13.92,33.12H505.64z"/>
			<path class="st6" d="M651.56,670.86c4.08,7.68,11.52,25.5,1.8,38.82c-9.72,13.32-15.48,14.4-41.4,14.4c-11.94,0-42.04,0-72.39,0
				V566.22h54.99C594.56,566.22,647.48,663.18,651.56,670.86z"/>
			<path class="st7" d="M453.2,707.7c-2.79,2.88-16.56,1.08-18.36-14.49c-1.38-11.79,6.75-23.85,10.35-30.42
				c3.6-6.57,40.89-78.21,40.89-78.21l12.84,0.72c0,0-42.39,84.33-45.45,90.45c-3.06,6.12-5.22,11.7-4.32,16.74
				C450.05,697.53,455.99,704.82,453.2,707.7z"/>
			<path class="st8" d="M434.84,693.21c1.8,15.57,15.57,17.37,18.36,14.49c2.79-2.88-3.15-10.17-4.05-15.21
				c-0.9-5.04,1.26-10.62,4.32-16.74c3.06-6.12,45.45-90.45,45.45-90.45l-12.84-0.72c0,0-37.29,71.64-40.89,78.21
				C441.59,669.36,433.46,681.42,434.84,693.21z M539.57,566.22v157.86c-35.54,0-71.42,0-78.93,0c-13.92,0-33-1.98-38.64-23.1
				c-3.96-16.32,4.56-27.72,11.28-40.2s50.88-94.56,50.88-94.56H539.57z"/>
		</g>
		<polygon points="771.26,542.28 728.6,505.92 728.6,527.1 645.32,527.1 645.32,557.1 728.6,557.1 728.6,579.19 		"/>
		<polygon class="st9" points="351.4,527.1 351.4,505.92 308.74,542.28 351.4,579.19 351.4,557.1 434.68,557.1 434.68,527.1 		"/>
	</g>
	<g>
		<path class="st2" d="M540,848.59c-82.43,0-159.92-32.1-218.21-90.38c-58.28-58.29-90.38-135.78-90.38-218.21
			s32.1-159.92,90.38-218.21c58.29-58.28,135.78-90.38,218.21-90.38c82.43,0,159.92,32.1,218.21,90.38
			c58.29,58.29,90.38,135.78,90.38,218.21s-32.1,159.92-90.38,218.21S622.43,848.59,540,848.59z M540,265.41
			c-151.41,0-274.59,123.18-274.59,274.59c0,151.41,123.18,274.59,274.59,274.59S814.59,691.41,814.59,540
			C814.59,388.59,691.41,265.41,540,265.41z"/>
	</g>
</g>
</svg>
