<?xml version="1.0" encoding="utf-8"?>
<!-- Generator: Adobe Illustrator 23.0.5, SVG Export Plug-In . SVG Version: 6.00 Build 0)  -->
<svg version="1.1" id="Layer_1" xmlns="http://www.w3.org/2000/svg" xmlns:xlink="http://www.w3.org/1999/xlink" x="0px" y="0px"
	 viewBox="0 0 1080 1080" style="enable-background:new 0 0 1080 1080;" xml:space="preserve">
<style type="text/css">
	.st0{fill:#D69866;}
	.st1{fill:#E7373D;}
	.st2{fill:#F4AA2E;}
	.st3{fill:#E54140;}
	.st4{fill:#FFFFFF;}
	.st5{fill:#050505;}
	.st6{fill:#E3E3E3;}
	.st7{fill:#F1AA36;}
</style>
<g>
	<g id="XMLID_1_">
		<g>
			<g>
				<ellipse cx="561.21" cy="671.09" rx="4.11" ry="2.01"/>
			</g>
			<g>
				<ellipse cx="540.87" cy="674.67" rx="4.11" ry="2.01"/>
			</g>
			<g>
				<path d="M513.85,672.33c2.27,0.09,4.06,1.21,4.01,2.5c-0.05,1.29-1.93,2.26-4.19,2.18c-2.27-0.09-4.07-1.21-4.02-2.5
					C509.7,673.22,511.58,672.25,513.85,672.33z"/>
			</g>
			<g>
				<path d="M541.47,659.55c2.16,0.68,3.65,2.08,3.33,3.14c-0.33,1.06-2.36,1.38-4.53,0.7c-2.16-0.67-3.65-2.07-3.33-3.14
					C537.27,659.19,539.3,658.88,541.47,659.55z"/>
			</g>
			<g>
				<path d="M523.51,664.14c2.27,0.09,4.07,1.21,4.02,2.5c-0.05,1.29-1.93,2.27-4.2,2.18c-2.27-0.09-4.07-1.21-4.02-2.5
					C519.36,665.03,521.24,664.06,523.51,664.14z"/>
			</g>
			<g>
				<path d="M525.2,654.54c0.26,1.26-1.33,2.66-3.56,3.11c-2.22,0.45-4.23-0.21-4.49-1.47c-0.26-1.27,1.33-2.66,3.56-3.11
					C522.93,652.61,524.94,653.27,525.2,654.54z"/>
			</g>
			<g>
				<path d="M508,665.66c0.35,1.24-1.14,2.75-3.32,3.37c-2.19,0.62-4.24,0.11-4.59-1.14c-0.35-1.24,1.13-2.75,3.32-3.36
					C505.59,663.91,507.65,664.42,508,665.66z"/>
			</g>
			<g>
				<path class="st0" d="M585.1,680.47H475.74c0.1-1.14,0.51-2.17,1.22-3.12c3.14-4.15,10.9-5.22,10.98-5.23l1-0.13l0.49-0.88
					c5.64-10.2,16.82-13.79,16.93-13.82l0.85-0.26l0.38-0.82c4.72-10.28,14.26-8.33,14.65-8.24l0.78,0.18l0.68-0.4
					c11.11-6.48,16.97,1.9,17.21,2.26l0.68,1.02l1.22-0.14c9.74-1.13,12.51,7.24,12.62,7.59l0.43,1.43l1.49-0.01
					c0.04,0,0.07,0,0.11,0c10.41,0,15.64,11.56,15.69,11.67l0.51,1.17l1.28,0.03C582.47,672.93,584.54,677.66,585.1,680.47z
					 M565.32,671.09c0-1.11-1.84-2.01-4.11-2.01s-4.11,0.9-4.11,2.01s1.84,2.01,4.11,2.01S565.32,672.2,565.32,671.09z
					 M544.8,662.69c0.32-1.06-1.17-2.46-3.33-3.14c-2.17-0.67-4.2-0.36-4.53,0.7c-0.32,1.07,1.17,2.47,3.33,3.14
					C542.44,664.07,544.47,663.75,544.8,662.69z M544.98,674.67c0-1.11-1.84-2.01-4.11-2.01c-2.27,0-4.11,0.9-4.11,2.01
					s1.84,2.01,4.11,2.01C543.14,676.68,544.98,675.78,544.98,674.67z M527.53,666.64c0.05-1.29-1.75-2.41-4.02-2.5
					c-2.27-0.08-4.15,0.89-4.2,2.18c-0.05,1.29,1.75,2.41,4.02,2.5C525.6,668.91,527.48,667.93,527.53,666.64z M521.64,657.65
					c2.23-0.45,3.82-1.85,3.56-3.11c-0.26-1.27-2.27-1.93-4.49-1.47c-2.23,0.45-3.82,1.84-3.56,3.11
					C517.41,657.44,519.42,658.1,521.64,657.65z M517.86,674.83c0.05-1.29-1.74-2.41-4.01-2.5c-2.27-0.08-4.15,0.89-4.2,2.18
					c-0.05,1.29,1.75,2.41,4.02,2.5C515.93,677.09,517.81,676.12,517.86,674.83z M504.68,669.03c2.18-0.62,3.67-2.13,3.32-3.37
					c-0.35-1.24-2.41-1.75-4.59-1.13c-2.19,0.61-3.67,2.12-3.32,3.36C500.44,669.14,502.49,669.65,504.68,669.03z"/>
			</g>
			<g>
				<path d="M576.25,668.83c10.45,0.83,13.13,9.2,13.06,13.67l-0.03,1.97H472.09l-0.25-1.71c-0.43-2.93,0.22-5.56,1.94-7.83
					c3.39-4.49,10.09-6.13,12.64-6.61c5.61-9.42,15.02-13.49,17.91-14.56c4.71-9.33,13.36-10.57,18.01-9.84
					c11.5-6.31,18.83,0.27,21.13,2.89c8.67-0.51,13.48,5.09,15.27,9.13C568.91,656.64,574.54,665.6,576.25,668.83z M475.74,680.47
					H585.1c-0.56-2.81-2.63-7.54-10.16-7.7l-1.28-0.03l-0.51-1.17c-0.05-0.11-5.28-11.67-15.69-11.67c-0.04,0-0.07,0-0.11,0
					l-1.49,0.01l-0.43-1.43c-0.11-0.35-2.88-8.72-12.62-7.59l-1.22,0.14l-0.68-1.02c-0.24-0.36-6.1-8.74-17.21-2.26l-0.68,0.4
					l-0.78-0.18c-0.39-0.09-9.93-2.04-14.65,8.24l-0.38,0.82l-0.85,0.26c-0.11,0.03-11.29,3.62-16.93,13.82l-0.49,0.88l-1,0.13
					c-0.08,0.01-7.84,1.08-10.98,5.23C476.25,678.3,475.84,679.33,475.74,680.47z"/>
			</g>
		</g>
	</g>
	<g id="XMLID_2_">
		<g>
			<path class="st1" d="M459.41,609.93c5.74-8.06,9.83-12.24,12.2-12.44c0.15-0.02,0.27,0,0.38,0.04c0.12,0.12,0.26,0.24,0.4,0.34
				c2.28,2.6,3.69,9.01,2.11,13.58c-0.91,2.64-2.64,4.18-5.13,4.57c-7.74,1.23-9.68-5.12-9.88-5.85
				C459.47,610.09,459.45,610.01,459.41,609.93z"/>
			<path class="st2" d="M474.08,589.99l14.55,5.27c-6.03,0.41-11.9,0.42-13.71-0.51c-0.09-0.09-0.19-0.17-0.29-0.25
				c-0.18-0.27-0.44-0.84-0.57-1.87C473.96,591.84,473.97,590.95,474.08,589.99z"/>
			<path class="st2" d="M494.47,593.12l-19.38-7.01c0.63-1.55,1.54-3.08,2.78-4.44c2.4-2.61,4.02-3.74,5.28-3.68
				c1.39,0.07,3.25,1.7,5.69,4.97C491.7,586.79,493.45,590.5,494.47,593.12z"/>
			<path class="st3" d="M484.54,525.53c2.29,3.1,1.48,8.06,0.8,10.74c-1.12,4.45-3.28,8.25-4.89,10.02
				c-2.92-4.34-6.75-8.44-11.48-12.22c-7.89-6.3-18.7-8.79-28.05-9.27c-0.91-0.87-2.97-4.76-3.38-8.73
				c-0.17-1.67-0.1-3.96,1.22-5.42c1.26-1.39,3.41-1.91,5.89-1.42c3.57,0.69,6.84,3.27,7.94,6.26c0.31,0.84,1.15,1.38,2.04,1.3
				c0.9-0.07,1.63-0.73,1.8-1.61c0.02-0.09,1.85-9.2,7.39-8.14c6.42,1.23,8.42,11.57,7.74,18.18c-0.09,0.86,0.39,1.68,1.19,2.03
				c0.79,0.35,1.72,0.14,2.3-0.5c0.86-0.97,3.64-3.47,6.15-3.35C482.44,523.46,483.53,524.15,484.54,525.53z"/>
			<circle class="st4" cx="456.99" cy="564.21" r="2.61"/>
			<path class="st5" d="M450.14,567.19c0-4.82,3.91-8.73,8.73-8.73c4.82,0,8.73,3.91,8.73,8.73c0,4.82-3.91,8.73-8.73,8.73
				C454.05,575.92,450.14,572.01,450.14,567.19z M459.6,564.21c0-1.44-1.17-2.61-2.61-2.61s-2.61,1.17-2.61,2.61
				s1.17,2.61,2.61,2.61S459.6,565.65,459.6,564.21z"/>
			<path class="st6" d="M282.25,514.24l14.33,20.44c0,0.02-0.01,0.05-0.02,0.08c-0.25-0.39-0.64-0.68-1.12-0.82
				c-1.06-0.3-2.17,0.31-2.46,1.38c-0.34,1.2-0.72,2.76-1.1,4.6c-4.24-3.83-12.45-12.15-12.69-19.42c-0.11-3.37,0.94-5.58,2.97-6.24
				C282.19,514.25,282.22,514.24,282.25,514.24z"/>
			<path class="st7" d="M408.55,675.89c3.54,2.62,6.87,5.95,7.41,7.35c-0.1,0.03-0.21,0.04-0.3,0.05c-1.97,0.14-5.93-2.02-8.66-4.68
				c-3.4-3.31-11.1-6.95-13.32-7.96l-11.04-18.69c1.68,0.03,3.42,0,5.21-0.07l8.36,14.74c0.34,0.6,0.97,0.98,1.66,1.01
				c11.49,0.47,18.94,3.64,21.35,5.51c-1.91,0.16-5.59-0.15-9.1-0.83c-0.91-0.18-1.83,0.3-2.21,1.15
				C407.53,674.33,407.8,675.33,408.55,675.89z"/>
			<path class="st7" d="M342.63,667.39c0.1,0.06,10.37,5.69,16.55,9.57c2.53,1.59,3.23,2.92,3.35,3.45
				c-0.06-0.01-0.13-0.02-0.21-0.04c-2.95-0.84-7.11-2.83-7.16-2.85c-0.83-0.41-1.83-0.18-2.41,0.54c-0.59,0.72-0.6,1.75-0.03,2.48
				c3.83,4.98,4.42,7.32,4.49,8.12c-0.46-0.11-1.26-0.46-2.05-1.23c-3.24-3.15-15.03-15.5-17.62-18.23l-0.93-16.49
				c1.4,0.4,2.87,0.61,4.36,0.67l0.62,12.36C341.63,666.44,342.02,667.06,342.63,667.39z"/>
			<path class="st6" d="M440.26,626.87c-9.75,8.11-24.36,16.46-39.85,19.53c-22.79,4.51-42.8-2.26-43-2.33
				c-0.88-0.3-1.86,0.04-2.35,0.83c-0.99,1.6-6.61,4.21-12.23,4.49c-0.02,0-0.04,0-0.06,0s-0.05,0.01-0.07,0.01
				c-2.58,0.12-5.15-0.26-7.28-1.46c-6.95-3.92-10.49-9.35-11.47-17.58c-0.07-0.58-0.39-1.1-0.88-1.42
				c-0.17-0.11-17.06-11.66-25.21-34.36c-5.71-15.92-4.93-34.78-3.2-47.14c-0.09,6.93,1.31,15.05,5.34,24.24
				c14.49,33.07,33.42,52.92,66.9,62.1C394.44,641.33,426.73,633.5,440.26,626.87z"/>
			<path class="st4" d="M370.98,562.12c14.25,3.02,24.85,16.38,23.63,29.78c-1.29,14.22-14.9,23.39-33.05,22.3
				c-19.83-1.18-36.25-11.77-42.21-21.61c-2.93-4.83-3.64-9.56-1.9-12.64c0.86-1.52,2.23-2.43,3.67-2.43c0.09,0,0.19-0.01,0.28-0.02
				c2.21,1.73,4.77,3.17,7.68,4.17c1.04,0.36,2.18-0.19,2.54-1.24c0.36-1.04-0.19-2.18-1.24-2.54
				c-10.01-3.46-15.6-13.54-15.95-21.71c-0.14-3.45,0.74-6.12,2.25-6.79c3.59-1.59,4.93-0.67,8.15,1.57
				c1.79,1.24,4.03,2.79,7.16,4.09c5.12,2.12,12.28,3.05,20.56,4.14C358.23,559.93,364.66,560.77,370.98,562.12z"/>
			<path class="st4" d="M315.93,594.66c6.5,10.73,24.18,22.27,45.39,23.54c1.02,0.06,2.02,0.09,3.01,0.09
				c18.66,0,32.86-10.62,34.26-26.03c1.4-15.34-10.61-30.62-26.77-34.06c-6.48-1.37-13-2.23-18.75-2.98
				c-8-1.05-14.91-1.95-19.54-3.87c-2.75-1.13-4.7-2.49-6.42-3.68c-3.44-2.38-6.4-4.44-12.05-1.94c-3.12,1.38-4.85,5.35-4.62,10.62
				c0.24,5.77,2.68,12.57,7.46,17.89c-1.59,0.74-2.97,2.03-3.93,3.75C311.47,582.41,312.19,588.49,315.93,594.66z M296.82,536.4
				c0.16-0.58,0.06-1.17-0.26-1.64c0.01-0.03,0.02-0.06,0.02-0.08l-14.33-20.44c2.34-0.7,5.49,0.62,7.05,2.97
				c0.51,0.76,1.53,1,2.33,0.55c0.79-0.45,1.11-1.45,0.71-2.28c-2.02-4.19-6.75-16.43-4.49-22.64c0.9-2.49,2.89-2.96,4.4-2.91
				c4.99,0.17,11.62,5.81,14.65,16.27c0.25,0.86,1.12,1.39,2.01,1.23c0.88-0.17,1.5-0.99,1.41-1.88
				c-0.94-10.02-0.19-26.7,5.86-28.82c2.24-0.78,4.1-0.61,5.71,0.53c3.73,2.65,5.4,9.91,5.4,15.94c0,0.97-0.01,1.89-0.03,2.78
				c-0.12,8.01-0.2,13.79,10.08,21.65c10.25,7.83,29.09,14.87,46.88,17.5c15.32,2.27,31.09-2.45,39.56-4.98
				c0.72-0.21,1.38-0.41,1.99-0.59c2.94-0.86,7.67-1.44,13.08-1.31c0.6,0.37,1.33,0.38,1.93,0.07c8.73,0.45,18.81,2.75,26.01,8.49
				c4.79,3.82,8.58,8,11.37,12.41c0.01,0.24,0.07,0.48,0.17,0.7c0.17,0.37,0.44,0.66,0.76,0.85c4.16,7.31,5.55,15.21,3.98,23.23
				c-3.11-0.02-5.76,2.37-8.14,4.97c-4.39,4.78-5.33,10.74-4.81,14.39c0.02,0.12,0.05,0.23,0.07,0.35
				c-4.55,1.24-10.43,7.94-19.83,22.48c-2.02,3.13-5.52,6.88-10.1,10.68c-13.53,6.63-45.82,14.46-73.36,6.91
				c-33.48-9.18-52.41-29.03-66.9-62.1c-4.03-9.19-5.43-17.31-5.34-24.24C295.35,542.55,296.18,538.67,296.82,536.4z M467.6,567.19
				c0-4.82-3.91-8.73-8.73-8.73c-4.82,0-8.73,3.91-8.73,8.73c0,4.82,3.91,8.73,8.73,8.73C463.69,575.92,467.6,572.01,467.6,567.19z"
				/>
			<path d="M282.25,514.24c-0.03,0-0.06,0.01-0.09,0.02c-2.03,0.66-3.08,2.87-2.97,6.24c0.24,7.27,8.45,15.59,12.69,19.42
				c0.38-1.84,0.76-3.4,1.1-4.6c0.29-1.07,1.4-1.68,2.46-1.38c0.48,0.14,0.87,0.43,1.12,0.82c-1.09,3.63-1.85,7.87-1.9,12.68
				c-1.73,12.36-2.51,31.22,3.2,47.14c8.15,22.7,25.04,34.25,25.21,34.36c0.49,0.32,0.81,0.84,0.88,1.42
				c0.98,8.23,4.52,13.66,11.47,17.58c2.13,1.2,4.7,1.58,7.28,1.46c0.02,0,0.05-0.01,0.07-0.01s0.04,0,0.06,0
				c5.62-0.28,11.24-2.89,12.23-4.49c0.49-0.79,1.47-1.13,2.35-0.83c0.2,0.07,20.21,6.84,43,2.33c15.49-3.07,30.1-11.42,39.85-19.53
				c4.58-3.8,8.08-7.55,10.1-10.68c9.4-14.54,15.28-21.24,19.83-22.48c-0.02-0.12-0.05-0.23-0.07-0.35
				c-0.52-3.65,0.42-9.61,4.81-14.39c2.38-2.6,5.03-4.99,8.14-4.97c1.57-8.02,0.18-15.92-3.98-23.23c-0.32-0.19-0.59-0.48-0.76-0.85
				c-0.1-0.22-0.16-0.46-0.17-0.7c-2.79-4.41-6.58-8.59-11.37-12.41c-7.2-5.74-17.28-8.04-26.01-8.49c-0.6,0.31-1.33,0.3-1.93-0.07
				c-5.41-0.13-10.14,0.45-13.08,1.31c-0.61,0.18-1.27,0.38-1.99,0.59c-8.47,2.53-24.24,7.25-39.56,4.98
				c-17.79-2.63-36.63-9.67-46.88-17.5c-10.28-7.86-10.2-13.64-10.08-21.65c0.02-0.89,0.03-1.81,0.03-2.78
				c0-6.03-1.67-13.29-5.4-15.94c-1.61-1.14-3.47-1.31-5.71-0.53c-6.05,2.12-6.8,18.8-5.86,28.82c0.09,0.89-0.53,1.71-1.41,1.88
				c-0.89,0.16-1.76-0.37-2.01-1.23c-3.03-10.46-9.66-16.1-14.65-16.27c-1.51-0.05-3.5,0.42-4.4,2.91
				c-2.26,6.21,2.47,18.45,4.49,22.64c0.4,0.83,0.08,1.83-0.71,2.28c-0.8,0.45-1.82,0.21-2.33-0.55
				C287.74,514.86,284.59,513.54,282.25,514.24z M499.61,596.09c0.01,0.08,0.02,0.17,0.03,0.25c0,0.06-0.01,0.12-0.01,0.17
				c-0.01,0.08-0.01,0.16-0.02,0.23c-0.02,0.07-0.03,0.13-0.05,0.19c-0.02,0.05-0.02,0.1-0.04,0.15c0,0.02-0.01,0.03-0.02,0.04
				c-0.06,0.15-0.13,0.3-0.22,0.43c-0.02,0.02-0.03,0.03-0.04,0.05c-0.03,0.03-0.06,0.06-0.08,0.09c-0.1,0.11-0.21,0.21-0.32,0.3
				c-0.04,0.03-0.07,0.05-0.11,0.08c-0.14,0.09-0.3,0.17-0.47,0.23c-0.03,0.01-0.07,0.01-0.1,0.02c-0.09,0.03-0.18,0.05-0.27,0.06
				c-2.08,0.27-9.36,1.14-15.72,1.14c-1.55,0-3.04-0.05-4.39-0.18c1.59,4.12,1.9,9.38,0.5,13.42c-1.39,4.03-4.34,6.59-8.29,7.22
				c-7.22,1.14-11.38-2.66-13.29-6.14c-0.95,1.42-1.95,2.93-2.98,4.53c-6.7,10.36-28.68,27.23-52.53,31.95
				c-3.04,0.6-6.02,1.01-8.91,1.28l6.87,12.1c12.52,0.71,22.11,4.66,24.27,8.18c0.84,1.38,0.54,2.51,0.29,3.06
				c-0.79,1.71-3.31,2.45-7.51,2.23c1.89,1.89,3.56,4.03,3.8,5.83c0.12,0.98-0.11,1.88-0.68,2.6c-0.56,0.7-1.6,1.56-3.41,1.68
				c-0.12,0.01-0.25,0.01-0.38,0.01c-3.52,0-8.31-2.87-11.33-5.82c-2.81-2.74-10.14-6.29-12.72-7.43c-0.39-0.17-0.71-0.45-0.92-0.81
				l-12.67-21.45c-10.01-0.63-17.57-2.64-20.5-3.52c-2.37,2.2-7.25,4.31-12.43,4.94l0.57,11.23c2.74,1.52,10.63,5.91,15.77,9.15
				c5.05,3.17,5.85,6.54,4.91,8.63c-0.81,1.82-2.81,2.63-4.99,2c-0.52-0.15-1.07-0.32-1.62-0.52c2.03,3.82,2.17,6.53,0.4,8.1
				c-0.67,0.6-1.55,0.89-2.52,0.89c-1.63,0-3.52-0.83-5.12-2.39c-3.67-3.58-17.64-18.24-18.23-18.86c-0.33-0.35-0.52-0.79-0.55-1.27
				l-1.08-19.31c-7.19-4.37-11.17-10.49-12.41-19.12c-3.54-2.6-18.31-14.38-25.99-35.79c-6.51-18.13-5.1-39.29-2.97-52.02
				c-3.61-3.05-15.11-13.52-15.44-23.3c-0.2-6.02,2.6-8.4,4.49-9.33c0.34-0.16,0.65-0.28,0.91-0.36c1.78-0.57,3.79-0.46,5.68,0.19
				c-2.01-5.57-4.24-13.9-2.22-19.48c1.23-3.38,4.17-5.32,7.82-5.21c4.44,0.15,10.02,3.39,14.12,10.08
				c0.12-8.75,1.6-20.66,8.53-23.08c3.29-1.15,6.37-0.82,8.89,0.98c5.07,3.59,6.88,12.06,6.88,18.79c0,0.98-0.01,1.93-0.03,2.83
				c-0.11,7.76-0.18,12.03,8.7,18.82c9.82,7.5,28.02,14.26,45.28,16.82c14.54,2.15,29.83-2.42,38.04-4.87
				c0.72-0.22,1.39-0.42,2.01-0.6c2.72-0.8,6.71-1.37,11.33-1.47c-1.19-2.26-2.22-5.22-2.54-8.09c-0.41-3.63,0.36-6.63,2.22-8.67
				c2.22-2.45,5.73-3.43,9.61-2.67c3.3,0.64,6.34,2.42,8.48,4.81c1.81-4.02,5.22-8.03,10.67-7c7.16,1.37,10.78,9.59,11.12,17.97
				c1.58-0.97,3.55-1.77,5.69-1.68c1.71,0.08,4.2,0.79,6.39,3.75c2.42,3.28,2.94,8.29,1.46,14.1c-1.16,4.57-3.74,10-6.65,12.56
				c4.3,7.89,5.66,16.45,3.88,25.16c1.72,1,3.52,2.81,5.59,5.59c5.83,7.82,7.49,15.1,7.55,15.41
				C499.6,596.01,499.6,596.05,499.61,596.09z M475.09,586.11l19.38,7.01c-1.02-2.62-2.77-6.33-5.63-10.16
				c-2.44-3.27-4.3-4.9-5.69-4.97c-1.26-0.06-2.88,1.07-5.28,3.68C476.63,583.03,475.72,584.56,475.09,586.11z M488.63,595.26
				l-14.55-5.27c-0.11,0.96-0.12,1.85-0.02,2.64c0.13,1.03,0.39,1.6,0.57,1.87c0.1,0.08,0.2,0.16,0.29,0.25
				C476.73,595.68,482.6,595.67,488.63,595.26z M485.34,536.27c0.68-2.68,1.49-7.64-0.8-10.74c-1.01-1.38-2.1-2.07-3.34-2.13
				c-2.51-0.12-5.29,2.38-6.15,3.35c-0.58,0.64-1.51,0.85-2.3,0.5c-0.8-0.35-1.28-1.17-1.19-2.03c0.68-6.61-1.32-16.95-7.74-18.18
				c-5.54-1.06-7.37,8.05-7.39,8.14c-0.17,0.88-0.9,1.54-1.8,1.61c-0.89,0.08-1.73-0.46-2.04-1.3c-1.1-2.99-4.37-5.57-7.94-6.26
				c-2.48-0.49-4.63,0.03-5.89,1.42c-1.32,1.46-1.39,3.75-1.22,5.42c0.41,3.97,2.47,7.86,3.38,8.73c9.35,0.48,20.16,2.97,28.05,9.27
				c4.73,3.78,8.56,7.88,11.48,12.22C482.06,544.52,484.22,540.72,485.34,536.27z M474.5,611.45c1.58-4.57,0.17-10.98-2.11-13.58
				c-0.14-0.1-0.28-0.22-0.4-0.34c-0.11-0.04-0.23-0.06-0.38-0.04c-2.37,0.2-6.46,4.38-12.2,12.44c0.04,0.08,0.06,0.16,0.08,0.24
				c0.2,0.73,2.14,7.08,9.88,5.85C471.86,615.63,473.59,614.09,474.5,611.45z M410.12,672.32c3.51,0.68,7.19,0.99,9.1,0.83
				c-2.41-1.87-9.86-5.04-21.35-5.51c-0.69-0.03-1.32-0.41-1.66-1.01l-8.36-14.74c-1.79,0.07-3.53,0.1-5.21,0.07l11.04,18.69
				c2.22,1.01,9.92,4.65,13.32,7.96c2.73,2.66,6.69,4.82,8.66,4.68c0.09-0.01,0.2-0.02,0.3-0.05c-0.54-1.4-3.87-4.73-7.41-7.35
				c-0.75-0.56-1.02-1.56-0.64-2.42C408.29,672.62,409.21,672.14,410.12,672.32z M362.32,680.37c0.08,0.02,0.15,0.03,0.21,0.04
				c-0.12-0.53-0.82-1.86-3.35-3.45c-6.18-3.88-16.45-9.51-16.55-9.57c-0.61-0.33-1-0.95-1.04-1.65l-0.62-12.36
				c-1.49-0.06-2.96-0.27-4.36-0.67l0.93,16.49c2.59,2.73,14.38,15.08,17.62,18.23c0.79,0.77,1.59,1.12,2.05,1.23
				c-0.07-0.8-0.66-3.14-4.49-8.12c-0.57-0.73-0.56-1.76,0.03-2.48c0.58-0.72,1.58-0.95,2.41-0.54
				C355.21,677.54,359.37,679.53,362.32,680.37z"/>
			<path d="M371.82,558.2c16.16,3.44,28.17,18.72,26.77,34.06c-1.4,15.41-15.6,26.03-34.26,26.03c-0.99,0-1.99-0.03-3.01-0.09
				c-21.21-1.27-38.89-12.81-45.39-23.54c-3.74-6.17-4.46-12.25-1.96-16.67c0.96-1.72,2.34-3.01,3.93-3.75
				c-4.78-5.32-7.22-12.12-7.46-17.89c-0.23-5.27,1.5-9.24,4.62-10.62c5.65-2.5,8.61-0.44,12.05,1.94c1.72,1.19,3.67,2.55,6.42,3.68
				c4.63,1.92,11.54,2.82,19.54,3.87C358.82,555.97,365.34,556.83,371.82,558.2z M394.61,591.9c1.22-13.4-9.38-26.76-23.63-29.78
				c-6.32-1.35-12.75-2.19-18.43-2.93c-8.28-1.09-15.44-2.02-20.56-4.14c-3.13-1.3-5.37-2.85-7.16-4.09
				c-3.22-2.24-4.56-3.16-8.15-1.57c-1.51,0.67-2.39,3.34-2.25,6.79c0.35,8.17,5.94,18.25,15.95,21.71c1.05,0.36,1.6,1.5,1.24,2.54
				c-0.36,1.05-1.5,1.6-2.54,1.24c-2.91-1-5.47-2.44-7.68-4.17c-0.09,0.01-0.19,0.02-0.28,0.02c-1.44,0-2.81,0.91-3.67,2.43
				c-1.74,3.08-1.03,7.81,1.9,12.64c5.96,9.84,22.38,20.43,42.21,21.61C379.71,615.29,393.32,606.12,394.61,591.9z"/>
			<path d="M296.56,534.76c0.32,0.47,0.42,1.06,0.26,1.64c-0.64,2.27-1.47,6.15-2.16,11.04
				C294.71,542.63,295.47,538.39,296.56,534.76z"/>
		</g>
	</g>
	<g id="XMLID_4_">
		<g>
			<path class="st1" d="M466.87,490.18c-5.38-7.83-9.24-11.92-11.52-12.16c-0.14-0.02-0.26-0.01-0.37,0.03
				c-0.12,0.11-0.25,0.22-0.39,0.32c-2.24,2.44-3.71,8.55-2.27,12.95c0.83,2.55,2.47,4.05,4.85,4.48c7.43,1.34,9.41-4.7,9.61-5.4
				C466.81,490.33,466.83,490.26,466.87,490.18z"/>
			<path class="st2" d="M453.11,470.8l-14.1,4.74c5.8,0.52,11.44,0.65,13.2-0.21c0.09-0.08,0.19-0.16,0.28-0.23
				c0.18-0.25,0.44-0.79,0.58-1.78C453.19,472.57,453.2,471.72,453.11,470.8z"/>
			<path class="st2" d="M433.43,473.37l18.77-6.31c-0.58-1.5-1.43-2.98-2.6-4.31c-2.26-2.55-3.8-3.66-5.01-3.63
				c-1.34,0.04-3.16,1.56-5.56,4.64C436.21,467.37,434.46,470.89,433.43,473.37z"/>
			<path class="st3" d="M444.2,408.89c-2.26,2.92-1.57,7.68-0.96,10.26c1,4.28,3.01,7.96,4.53,9.69c2.89-4.09,6.65-7.94,11.27-11.46
				c7.71-5.87,18.15-8.03,27.16-8.29c0.89-0.81,2.94-4.49,3.41-8.29c0.19-1.59,0.17-3.79-1.08-5.21c-1.19-1.36-3.25-1.9-5.64-1.48
				c-3.45,0.59-6.64,2.99-7.75,5.83c-0.31,0.8-1.13,1.3-1.99,1.2c-0.86-0.09-1.56-0.73-1.7-1.58c-0.02-0.09-1.62-8.84-6.97-7.94
				c-6.2,1.04-8.31,10.9-7.77,17.24c0.07,0.82-0.41,1.6-1.18,1.92c-0.77,0.32-1.66,0.1-2.2-0.53c-0.81-0.95-3.44-3.4-5.86-3.33
				C446.26,406.95,445.2,407.59,444.2,408.89z"/>
			
				<ellipse transform="matrix(0.2459 -0.9693 0.9693 0.2459 -78.3198 792.2839)" class="st4" cx="470.02" cy="446.48" rx="2.5" ry="2.51"/>
			<path class="st5" d="M468,457.64c-4.64-0.1-8.33-3.92-8.24-8.54c0.09-4.61,3.92-8.27,8.56-8.18c4.64,0.1,8.33,3.92,8.24,8.54
				S472.64,457.74,468,457.64z M469.97,448.97c1.39,0.03,2.53-1.07,2.56-2.44s-1.08-2.52-2.46-2.55c-1.39-0.03-2.53,1.07-2.56,2.44
				C467.48,447.8,468.58,448.94,469.97,448.97z"/>
			<path class="st6" d="M639.06,402.25l-14.16,19.27c0,0.02,0.01,0.05,0.02,0.08c0.25-0.37,0.63-0.64,1.09-0.76
				c1.03-0.27,2.08,0.34,2.34,1.37c0.31,1.16,0.64,2.66,0.98,4.43c4.15-3.58,12.2-11.37,12.56-18.32c0.17-3.22-0.8-5.36-2.75-6.03
				C639.12,402.27,639.09,402.25,639.06,402.25z"/>
			<path class="st7" d="M514.63,554.36c-3.45,2.43-6.72,5.55-7.26,6.88c0.1,0.03,0.2,0.04,0.29,0.05c1.89,0.17,5.74-1.81,8.42-4.3
				c3.33-3.1,10.81-6.42,12.96-7.34l10.96-17.66c-1.62-0.01-3.29-0.07-5.01-0.17l-8.31,13.93c-0.34,0.57-0.95,0.92-1.62,0.93
				c-11.07,0.21-18.29,3.09-20.64,4.83c1.84,0.19,5.38-0.03,8.77-0.61c0.88-0.15,1.76,0.32,2.11,1.15
				C515.64,552.89,515.36,553.84,514.63,554.36z"/>
			<path class="st7" d="M578.21,547.58c-0.1,0.06-10.08,5.23-16.1,8.82c-2.46,1.47-3.16,2.73-3.29,3.23
				c0.06-0.01,0.13-0.02,0.2-0.03c2.85-0.74,6.89-2.56,6.94-2.58c0.81-0.38,1.76-0.13,2.31,0.57c0.55,0.7,0.55,1.69-0.02,2.37
				c-3.77,4.69-4.38,6.91-4.47,7.68c0.44-0.1,1.22-0.41,1.99-1.13c3.17-2.95,14.74-14.52,17.28-17.08l1.19-15.76
				c-1.35,0.35-2.77,0.52-4.21,0.55l-0.82,11.82C579.19,546.69,578.81,547.28,578.21,547.58z"/>
			<path class="st6" d="M484.99,506.79c9.24,7.96,23.15,16.26,38,19.51c21.85,4.79,41.23-1.28,41.42-1.34
				c0.85-0.27,1.79,0.08,2.25,0.84c0.92,1.55,6.29,4.17,11.69,4.55c0.02,0,0.04,0,0.06,0c0.02,0,0.05,0.01,0.07,0.01
				c2.48,0.17,4.96-0.14,7.03-1.25c6.76-3.61,10.26-8.73,11.35-16.59c0.08-0.55,0.4-1.04,0.87-1.34
				c0.17-0.1,16.63-10.81,24.88-32.36c5.78-15.12,5.37-33.18,3.92-45.05c-0.04,6.63-1.53,14.38-5.57,23.09
				c-14.54,31.35-33.11,49.96-65.49,58.05C528.83,521.57,497.89,513.41,484.99,506.79z"/>
			<path class="st4" d="M552.82,446.25c-13.77,2.6-24.21,15.16-23.27,28.01c0.99,13.64,13.92,22.69,31.4,22.02
				c19.1-0.72,35.09-10.52,41.01-19.81c2.91-4.56,3.67-9.07,2.05-12.06c-0.8-1.47-2.1-2.37-3.49-2.4c-0.09,0-0.18-0.01-0.27-0.02
				c-2.16,1.61-4.65,2.94-7.47,3.83c-1.01,0.32-2.09-0.23-2.42-1.24c-0.33-1,0.22-2.08,1.24-2.41c9.69-3.11,15.25-12.64,15.74-20.45
				c0.2-3.3-0.6-5.87-2.04-6.54c-3.43-1.6-4.73-0.74-7.87,1.33c-1.74,1.15-3.93,2.59-6.96,3.77c-4.96,1.92-11.87,2.67-19.86,3.54
				C565.13,444.42,558.93,445.09,552.82,446.25z"/>
			<path class="st4" d="M607.4,462.61c-0.89-1.67-2.2-2.93-3.71-3.67c4.7-4.99,7.16-11.45,7.5-16.97c0.32-5.04-1.28-8.87-4.26-10.26
				c-5.39-2.51-8.28-0.6-11.63,1.61c-1.68,1.1-3.58,2.36-6.24,3.39c-4.49,1.74-11.16,2.46-18.87,3.3c-5.55,0.6-11.84,1.29-18.1,2.47
				c-15.61,2.96-27.44,17.34-26.37,32.05c1.07,14.78,14.54,25.23,32.5,25.62c0.95,0.02,1.92,0.01,2.9-0.02
				c20.43-0.78,37.65-11.46,44.1-21.59C608.92,472.7,609.72,466.89,607.4,462.61z M626.52,433.77c-0.04,6.63-1.53,14.38-5.57,23.09
				c-14.54,31.35-33.11,49.96-65.49,58.05c-26.64,6.66-57.57-1.5-70.47-8.13c-4.34-3.73-7.64-7.39-9.53-10.43
				c-8.78-14.11-14.32-20.64-18.68-21.92c0.02-0.11,0.05-0.22,0.07-0.33c0.57-3.48-0.23-9.21-4.37-13.87
				c-2.24-2.54-4.75-4.88-7.74-4.92c-1.37-7.71,0.11-15.24,4.25-22.15c0.31-0.18,0.58-0.45,0.75-0.8c0.1-0.21,0.16-0.44,0.18-0.67
				c2.76-4.16,6.49-8.09,11.16-11.64c7.03-5.35,16.77-7.34,25.18-7.59c0.57,0.31,1.27,0.31,1.86-0.03
				c5.21-0.01,9.75,0.64,12.56,1.52c0.58,0.18,1.22,0.39,1.9,0.61c8.11,2.6,23.2,7.44,37.98,5.58c17.17-2.15,35.42-8.5,45.43-15.78
				c10.03-7.31,10.06-12.84,10.09-20.51c0-0.85,0-1.73,0.02-2.66c0.11-5.77,1.85-12.68,5.48-15.14c1.57-1.06,3.36-1.18,5.5-0.39
				c5.78,2.15,6.21,18.13,5.12,27.7c-0.1,0.85,0.48,1.65,1.32,1.83c0.85,0.17,1.7-0.32,1.96-1.14c3.1-9.95,9.58-15.21,14.39-15.27
				c1.45-0.02,3.36,0.47,4.18,2.88c2.06,5.99-2.71,17.61-4.73,21.58c-0.4,0.79-0.11,1.75,0.64,2.2c0.76,0.45,1.75,0.24,2.25-0.48
				c1.54-2.22,4.6-3.42,6.84-2.7l-14.16,19.27c0,0.02,0.01,0.05,0.02,0.08c-0.32,0.44-0.42,1.01-0.28,1.56
				C625.22,425.35,625.95,429.08,626.52,433.77z M468,457.64c4.64,0.1,8.47-3.56,8.56-8.18s-3.61-8.44-8.24-8.54
				c-4.64-0.1-8.47,3.56-8.56,8.18C459.67,453.72,463.36,457.54,468,457.64z"/>
			<path d="M632.22,404.95c-0.5,0.72-1.49,0.93-2.25,0.48c-0.75-0.45-1.04-1.41-0.64-2.2c2.02-3.97,6.79-15.59,4.73-21.58
				c-0.82-2.4-2.73-2.89-4.18-2.88c-4.8,0.06-11.29,5.32-14.39,15.27c-0.26,0.82-1.1,1.31-1.96,1.14c-0.84-0.18-1.43-0.98-1.32-1.83
				c1.08-9.57,0.66-25.55-5.12-27.7c-2.14-0.79-3.93-0.67-5.5,0.39c-3.64,2.46-5.37,9.37-5.48,15.14c-0.02,0.93-0.02,1.81-0.02,2.66
				c-0.03,7.67-0.05,13.2-10.09,20.51c-10,7.28-28.26,13.63-45.43,15.78c-14.78,1.86-29.87-2.99-37.98-5.58
				c-0.69-0.22-1.32-0.42-1.9-0.61c-2.81-0.88-7.35-1.54-12.56-1.52c-0.58,0.34-1.29,0.34-1.86,0.03
				c-8.41,0.25-18.15,2.24-25.18,7.59c-4.68,3.56-8.4,7.48-11.16,11.64c-0.01,0.23-0.08,0.46-0.18,0.67
				c-0.17,0.35-0.44,0.62-0.75,0.8c-4.13,6.91-5.61,14.44-4.25,22.15c2.99,0.04,5.5,2.39,7.74,4.92c4.14,4.67,4.94,10.39,4.37,13.87
				c-0.02,0.11-0.05,0.22-0.07,0.33c4.36,1.28,9.89,7.81,18.68,21.92c1.89,3.04,5.19,6.7,9.53,10.43c9.24,7.96,23.15,16.26,38,19.51
				c21.85,4.79,41.23-1.28,41.42-1.34c0.85-0.27,1.79,0.08,2.25,0.84c0.92,1.55,6.29,4.17,11.69,4.55c0.02,0,0.04,0,0.06,0
				c0.02,0,0.05,0.01,0.07,0.01c2.48,0.17,4.96-0.14,7.03-1.25c6.76-3.61,10.26-8.73,11.35-16.59c0.08-0.55,0.4-1.04,0.87-1.34
				c0.17-0.1,16.63-10.81,24.88-32.36c5.78-15.12,5.37-33.18,3.92-45.05c0.04-4.6-0.62-8.68-1.6-12.17
				c0.25-0.37,0.63-0.64,1.09-0.76c1.03-0.27,2.08,0.34,2.34,1.37c0.31,1.16,0.64,2.66,0.98,4.43c4.15-3.58,12.2-11.37,12.56-18.32
				c0.17-3.22-0.8-5.36-2.75-6.03c-0.03-0.01-0.06-0.02-0.09-0.02C636.82,401.54,633.77,402.73,632.22,404.95z M428.45,475.99
				c0.06-0.3,1.79-7.23,7.54-14.59c2.04-2.62,3.81-4.31,5.48-5.23c-1.56-8.37-0.09-16.54,4.18-24c-2.75-2.51-5.14-7.76-6.17-12.16
				c-1.32-5.59-0.73-10.38,1.66-13.46c2.16-2.79,4.57-3.42,6.22-3.46c2.06-0.04,3.94,0.76,5.45,1.73
				c0.48-8.01,4.11-15.81,11.02-16.97c5.26-0.87,8.47,3.03,10.14,6.92c2.1-2.24,5.06-3.88,8.25-4.43c3.75-0.65,7.11,0.36,9.2,2.75
				c1.75,1.99,2.44,4.88,1.98,8.34c-0.36,2.74-1.4,5.55-2.59,7.69c4.44,0.19,8.27,0.82,10.88,1.64c0.59,0.19,1.23,0.39,1.92,0.62
				c7.86,2.51,22.49,7.2,36.52,5.45c16.65-2.09,34.29-8.19,43.87-15.16c8.67-6.32,8.68-10.4,8.71-17.83c0-0.86,0-1.77,0.02-2.71
				c0.12-6.44,2.01-14.51,6.96-17.84c2.46-1.67,5.43-1.92,8.57-0.75c6.63,2.46,7.84,13.89,7.79,22.26c4.07-6.32,9.49-9.3,13.77-9.36
				c3.51-0.03,6.31,1.89,7.43,5.15c1.84,5.38-0.45,13.31-2.49,18.6c1.83-0.58,3.77-0.65,5.47-0.06c0.25,0.08,0.54,0.2,0.87,0.36
				c1.8,0.93,4.45,3.26,4.15,9.02c-0.49,9.35-11.75,19.14-15.28,21.98c1.82,12.23,2.8,32.51-3.79,49.73
				c-7.77,20.33-22.2,31.3-25.65,33.72c-1.35,8.23-5.29,14.01-12.28,18.04l-1.39,18.46c-0.04,0.46-0.23,0.88-0.55,1.2
				c-0.58,0.58-14.28,14.32-17.88,17.67c-1.57,1.46-3.4,2.22-4.97,2.18c-0.93-0.02-1.78-0.32-2.41-0.9
				c-1.68-1.54-1.49-4.13,0.53-7.74c-0.53,0.18-1.07,0.33-1.57,0.46c-2.11,0.56-4.02-0.26-4.77-2.02c-0.87-2.02-0.04-5.23,4.88-8.16
				c5-2.99,12.68-7.03,15.34-8.43l0.75-10.74c-4.97-0.71-9.63-2.83-11.87-4.98c-2.84,0.78-10.15,2.55-19.79,2.95l-12.58,20.27
				c-0.21,0.34-0.52,0.6-0.9,0.76c-2.5,1.04-9.62,4.28-12.37,6.85c-2.96,2.76-7.62,5.41-11.01,5.34c-0.13,0-0.25-0.01-0.37-0.02
				c-1.74-0.15-2.72-1-3.25-1.68c-0.54-0.7-0.74-1.57-0.61-2.5c0.26-1.72,1.91-3.73,3.76-5.5c-4.05,0.12-6.46-0.64-7.19-2.29
				c-0.23-0.53-0.5-1.62,0.33-2.92c2.14-3.32,11.44-6.91,23.5-7.33l6.83-11.44c-2.78-0.32-5.64-0.77-8.55-1.41
				c-22.87-5.01-43.71-21.61-49.98-31.66c-0.96-1.55-1.9-3.02-2.79-4.4c-1.9,3.29-5.97,6.84-12.9,5.6c-3.79-0.68-6.58-3.2-7.85-7.08
				c-1.27-3.9-0.88-8.92,0.72-12.83c-1.3,0.1-2.74,0.11-4.23,0.08c-6.12-0.13-13.11-1.11-15.11-1.42c-0.09-0.01-0.17-0.03-0.26-0.06
				c-0.03-0.01-0.07-0.01-0.1-0.02c-0.16-0.06-0.32-0.14-0.45-0.23c-0.04-0.03-0.07-0.05-0.1-0.08c-0.1-0.09-0.21-0.19-0.3-0.29
				c-0.02-0.03-0.05-0.06-0.08-0.09c-0.01-0.02-0.02-0.03-0.04-0.05c-0.08-0.13-0.15-0.27-0.2-0.42c-0.01-0.01-0.02-0.02-0.02-0.04
				c-0.02-0.05-0.02-0.1-0.04-0.14c-0.02-0.06-0.03-0.12-0.04-0.18c-0.01-0.07-0.01-0.14-0.02-0.22c0-0.05-0.01-0.11-0.01-0.16
				c0.01-0.08,0.02-0.16,0.03-0.24C428.44,476.07,428.44,476.03,428.45,475.99z M449.61,462.76c-2.26-2.55-3.8-3.66-5.01-3.63
				c-1.34,0.04-3.16,1.56-5.56,4.64c-2.82,3.61-4.57,7.12-5.6,9.61l18.77-6.31C451.63,465.57,450.78,464.08,449.61,462.76z
				 M452.22,475.33c0.09-0.08,0.19-0.16,0.28-0.23c0.18-0.25,0.44-0.79,0.58-1.78c0.11-0.75,0.12-1.61,0.03-2.53l-14.1,4.74
				C444.81,476.06,450.46,476.19,452.22,475.33z M447.76,428.84c2.89-4.09,6.65-7.94,11.27-11.46c7.71-5.87,18.15-8.03,27.16-8.29
				c0.89-0.81,2.94-4.49,3.41-8.29c0.19-1.59,0.17-3.79-1.08-5.21c-1.19-1.36-3.25-1.9-5.64-1.48c-3.45,0.59-6.64,2.99-7.75,5.83
				c-0.31,0.8-1.13,1.3-1.99,1.2c-0.86-0.09-1.56-0.73-1.7-1.58c-0.02-0.09-1.62-8.84-6.97-7.94c-6.2,1.04-8.31,10.9-7.77,17.24
				c0.07,0.82-0.41,1.6-1.18,1.92c-0.77,0.32-1.66,0.1-2.2-0.53c-0.81-0.95-3.44-3.4-5.86-3.33c-1.19,0.03-2.26,0.67-3.25,1.97
				c-2.26,2.92-1.57,7.68-0.96,10.26C444.24,423.43,446.25,427.11,447.76,428.84z M457.18,495.81c7.43,1.34,9.41-4.7,9.61-5.4
				c0.02-0.08,0.04-0.15,0.08-0.23c-5.38-7.83-9.24-11.92-11.52-12.16c-0.14-0.02-0.26-0.01-0.37,0.03
				c-0.12,0.11-0.25,0.22-0.39,0.32c-2.24,2.44-3.71,8.55-2.27,12.95C453.15,493.87,454.79,495.38,457.18,495.81z M515.29,552.06
				c0.35,0.83,0.07,1.78-0.66,2.3c-3.45,2.43-6.72,5.55-7.26,6.88c0.1,0.03,0.2,0.04,0.29,0.05c1.89,0.17,5.74-1.81,8.42-4.3
				c3.33-3.1,10.81-6.42,12.96-7.34l10.96-17.66c-1.62-0.01-3.29-0.07-5.01-0.17l-8.31,13.93c-0.34,0.57-0.95,0.92-1.62,0.93
				c-11.07,0.21-18.29,3.09-20.64,4.83c1.84,0.19,5.38-0.03,8.77-0.61C514.06,550.76,514.94,551.24,515.29,552.06z M565.97,557.02
				c0.81-0.38,1.76-0.13,2.31,0.57c0.55,0.7,0.55,1.69-0.02,2.37c-3.77,4.69-4.38,6.91-4.47,7.68c0.44-0.1,1.22-0.41,1.99-1.13
				c3.17-2.95,14.74-14.52,17.28-17.08l1.19-15.76c-1.35,0.35-2.77,0.52-4.21,0.55l-0.82,11.82c-0.05,0.67-0.44,1.25-1.03,1.56
				c-0.1,0.06-10.08,5.23-16.1,8.82c-2.46,1.47-3.16,2.73-3.29,3.23c0.06-0.01,0.13-0.02,0.2-0.03
				C561.89,558.86,565.93,557.04,565.97,557.02z"/>
			<path d="M570.18,440.01c7.72-0.84,14.38-1.56,18.87-3.3c2.67-1.02,4.57-2.29,6.24-3.39c3.35-2.21,6.24-4.12,11.63-1.61
				c2.98,1.39,4.57,5.22,4.26,10.26c-0.33,5.52-2.8,11.98-7.5,16.97c1.52,0.74,2.82,2,3.71,3.67c2.33,4.28,1.52,10.09-2.18,15.91
				c-6.45,10.14-23.67,20.82-44.1,21.59c-0.98,0.04-1.95,0.04-2.9,0.02c-17.96-0.38-31.43-10.84-32.5-25.62
				c-1.07-14.71,10.76-29.09,26.37-32.05C558.34,441.3,564.63,440.61,570.18,440.01z M560.95,496.29
				c19.1-0.72,35.09-10.52,41.01-19.81c2.91-4.56,3.67-9.07,2.05-12.06c-0.8-1.47-2.1-2.37-3.49-2.4c-0.09,0-0.18-0.01-0.27-0.02
				c-2.16,1.61-4.65,2.94-7.47,3.83c-1.01,0.32-2.09-0.23-2.42-1.24c-0.33-1,0.22-2.08,1.24-2.41c9.69-3.11,15.25-12.64,15.74-20.45
				c0.2-3.3-0.6-5.87-2.04-6.54c-3.43-1.6-4.73-0.74-7.87,1.33c-1.74,1.15-3.93,2.59-6.96,3.77c-4.96,1.92-11.87,2.67-19.86,3.54
				c-5.48,0.59-11.68,1.26-17.79,2.42c-13.77,2.6-24.21,15.16-23.27,28.01C530.53,487.9,543.47,496.96,560.95,496.29z"/>
			<path d="M624.92,421.6c-0.32,0.44-0.42,1.01-0.28,1.56c0.58,2.19,1.3,5.92,1.88,10.61C626.56,429.17,625.91,425.09,624.92,421.6z
				"/>
		</g>
	</g>
	<g>
		<path d="M540,868.44c-88.53,0-171.78-34.15-234.4-96.15c-62.66-62.04-97.16-144.54-97.16-232.29
			c0-87.76,34.51-170.25,97.16-232.29c62.62-62,145.86-96.15,234.4-96.15c88.54,0,171.78,34.15,234.4,96.15
			c62.66,62.04,97.17,144.54,97.17,232.29c0,87.76-34.51,170.25-97.17,232.29C711.78,834.29,628.53,868.44,540,868.44z M540,241.56
			c-166.28,0-301.56,133.88-301.56,298.44c0,164.56,135.28,298.44,301.56,298.44c166.28,0,301.56-133.88,301.56-298.44
			C841.56,375.44,706.28,241.56,540,241.56z"/>
	</g>
	<g id="XMLID_3_">
		<g>
			<path class="st1" d="M609.26,600.79c-6.59-7.42-11.12-11.14-13.51-11.1c-0.15,0-0.27,0.03-0.38,0.08
				c-0.11,0.13-0.23,0.27-0.36,0.38c-2.01,2.82-2.74,9.35-0.68,13.73c1.19,2.53,3.08,3.88,5.61,4.01c7.87,0.41,9.14-6.1,9.27-6.85
				C609.22,600.95,609.23,600.87,609.26,600.79z"/>
			<path class="st2" d="M592.5,582.49l-14,6.76c6.07-0.22,11.95-0.83,13.66-1.94c0.08-0.1,0.17-0.19,0.26-0.28
				c0.15-0.29,0.35-0.88,0.37-1.92C592.81,584.32,592.71,583.43,592.5,582.49z"/>
			<path class="st2" d="M572.43,587.74l18.65-9c-0.79-1.48-1.86-2.9-3.25-4.12c-2.67-2.34-4.41-3.3-5.67-3.11
				c-1.38,0.22-3.07,2.03-5.17,5.54C574.54,581.15,573.18,585.03,572.43,587.74z"/>
			<path class="st3" d="M575.25,519.48c-1.96,3.32-0.63,8.17,0.33,10.76c1.59,4.31,4.15,7.86,5.94,9.45
				c2.46-4.62,5.86-9.1,10.2-13.35c7.23-7.09,17.78-10.7,27.08-12.15c0.82-0.96,2.47-5.04,2.46-9.04c-0.01-1.68-0.32-3.95-1.79-5.26
				c-1.41-1.25-3.61-1.54-6.04-0.8c-3.5,1.06-6.5,3.97-7.28,7.06c-0.22,0.87-1,1.49-1.9,1.51c-0.91,0.02-1.71-0.56-1.97-1.41
				c-0.03-0.09-2.82-8.96-8.25-7.32c-6.29,1.89-7.2,12.39-5.83,18.89c0.18,0.85-0.21,1.71-0.98,2.14c-0.75,0.43-1.71,0.32-2.35-0.26
				c-0.96-0.87-4.01-3.07-6.5-2.69C577.14,517.2,576.12,518,575.25,519.48z"/>
			<ellipse class="st4" cx="606.88" cy="555.07" rx="2.62" ry="2.61"/>
			<path class="st5" d="M606.23,566.91c-4.82,0.5-9.14-2.98-9.65-7.77c-0.51-4.79,2.99-9.09,7.81-9.6s9.14,2.98,9.65,7.77
				C614.55,562.11,611.05,566.4,606.23,566.91z M607.15,557.66c1.44-0.15,2.49-1.44,2.34-2.87c-0.15-1.43-1.44-2.47-2.88-2.32
				s-2.49,1.44-2.34,2.87C604.42,556.77,605.71,557.81,607.15,557.66z"/>
			<path class="st6" d="M776.38,487.09l-12.18,21.83c0,0.02,0.02,0.05,0.03,0.08c0.21-0.41,0.57-0.74,1.03-0.93
				c1.03-0.41,2.2,0.08,2.61,1.12c0.47,1.16,1.01,2.67,1.58,4.46c3.84-4.25,11.17-13.39,10.65-20.64c-0.24-3.36-1.53-5.45-3.63-5.9
				C776.44,487.09,776.41,487.09,776.38,487.09z"/>
			<path class="st7" d="M667.07,661.07c-3.26,2.98-6.24,6.64-6.64,8.08c0.1,0.02,0.21,0.02,0.31,0.02c1.98-0.07,5.72-2.63,8.17-5.56
				c3.05-3.65,10.37-8.07,12.48-9.31l9.08-19.74c-1.68,0.21-3.42,0.36-5.22,0.48l-6.81,15.53c-0.28,0.63-0.87,1.08-1.55,1.18
				c-11.44,1.67-18.56,5.6-20.77,7.71c1.93-0.04,5.57-0.73,9.01-1.78c0.89-0.27,1.86,0.11,2.33,0.91
				C667.93,659.41,667.76,660.43,667.07,661.07z"/>
			<path class="st7" d="M732.1,645.72c-0.09,0.07-9.77,6.74-15.55,11.25c-2.36,1.85-2.92,3.24-2.99,3.78
				c0.06-0.02,0.13-0.03,0.21-0.06c2.86-1.14,6.81-3.56,6.86-3.58c0.79-0.49,1.81-0.37,2.47,0.28c0.67,0.65,0.78,1.68,0.29,2.46
				c-3.31,5.35-3.65,7.74-3.64,8.55c0.45-0.16,1.21-0.59,1.92-1.44c2.91-3.47,13.4-16.99,15.7-19.97l-0.8-16.5
				c-1.36,0.54-2.81,0.91-4.29,1.12l0.68,12.36C733,644.67,732.68,645.32,732.1,645.72z"/>
			<path class="st6" d="M630.2,615.63c10.6,7.05,26.09,13.82,41.91,15.25c23.27,2.1,42.57-6.72,42.76-6.82
				c0.85-0.39,1.86-0.15,2.44,0.58c1.16,1.49,7.05,3.5,12.7,3.19c0.02,0,0.04,0,0.06-0.01c0.02,0,0.05,0,0.07,0
				c2.59-0.15,5.12-0.8,7.13-2.21c6.54-4.63,9.51-10.4,9.62-18.68c0.01-0.58,0.27-1.13,0.73-1.5c0.16-0.13,15.84-13.38,21.6-36.81
				c4.04-16.43,1.27-35.1-1.76-47.22c0.82,6.88,0.27,15.1-2.79,24.67c-11.01,34.4-27.86,56.13-60.38,68.76
				C677.55,625.22,644.43,620.81,630.2,615.63z"/>
			<path class="st4" d="M692.68,543.99c-13.93,4.49-23.13,18.89-20.5,32.09c2.79,14.01,17.36,21.7,35.4,18.72
				c19.71-3.25,35.02-15.5,39.94-25.91c2.42-5.11,2.63-9.89,0.57-12.77c-1.02-1.42-2.49-2.18-3.93-2.03
				c-0.09,0.01-0.19,0.01-0.28,0.01c-2.03,1.95-4.44,3.65-7.24,4.95c-1,0.47-2.2,0.04-2.67-0.97c-0.47-1-0.04-2.19,0.97-2.66
				c9.65-4.49,14.18-15.1,13.67-23.26c-0.22-3.45-1.38-6.01-2.96-6.52c-3.76-1.21-5-0.15-7.99,2.41c-1.66,1.42-3.74,3.2-6.73,4.82
				c-4.9,2.64-11.96,4.32-20.13,6.27C705.2,540.48,698.86,541.99,692.68,543.99z"/>
			<path class="st4" d="M751.36,553.81c-1.14-1.61-2.66-2.75-4.32-3.32c4.22-5.79,5.95-12.81,5.58-18.57
				c-0.32-5.27-2.47-9.03-5.74-10.08c-5.91-1.9-8.66,0.46-11.85,3.19c-1.6,1.36-3.4,2.92-6.03,4.33
				c-4.43,2.39-11.24,4.01-19.14,5.89c-5.67,1.35-12.1,2.88-18.44,4.92c-15.8,5.11-26.2,21.56-23.19,36.67
				c3.02,15.18,18.34,24.26,37,22.3c0.99-0.1,1.99-0.24,3-0.4c21.08-3.48,37.55-16.81,42.92-28.16
				C754.25,564.07,754.33,557.94,751.36,553.81z M767.46,521.41c0.82,6.88,0.27,15.1-2.79,24.67
				c-11.01,34.4-27.86,56.13-60.38,68.76c-26.75,10.39-59.87,5.98-74.1,0.8c-4.98-3.3-8.88-6.66-11.22-9.56
				c-10.93-13.48-17.52-19.53-22.2-20.28c0.01-0.12,0.03-0.23,0.03-0.36c0.14-3.68-1.43-9.51-6.32-13.81
				c-2.65-2.34-5.56-4.44-8.66-4.09c-2.41-7.81-1.85-15.81,1.54-23.52c0.3-0.22,0.54-0.54,0.67-0.92c0.08-0.23,0.11-0.47,0.1-0.71
				c2.33-4.68,5.68-9.23,10.07-13.53c6.6-6.46,16.44-9.8,25.12-11.16c0.63,0.25,1.36,0.16,1.92-0.27c5.4-0.7,10.19-0.61,13.22-0.07
				c0.63,0.12,1.31,0.25,2.05,0.38c8.74,1.63,25.01,4.67,40.09,0.81c17.52-4.48,35.62-13.45,45.05-22.31
				c9.45-8.89,8.77-14.63,7.8-22.59c-0.11-0.88-0.22-1.8-0.32-2.76c-0.63-6,0.27-13.39,3.72-16.42c1.49-1.3,3.33-1.67,5.66-1.12
				c6.27,1.48,8.78,17.99,8.89,28.05c0,0.89,0.71,1.65,1.61,1.72c0.91,0.07,1.72-0.55,1.88-1.43c1.93-10.72,7.97-17.02,12.94-17.71
				c1.5-0.21,3.54,0.05,4.71,2.43c2.91,5.94-0.53,18.61-2.11,22.99c-0.31,0.87,0.11,1.83,0.95,2.19c0.85,0.36,1.84,0.02,2.27-0.79
				c1.31-2.5,4.32-4.14,6.74-3.69l-12.18,21.83c0,0.02,0.02,0.05,0.03,0.08c-0.27,0.5-0.31,1.1-0.09,1.66
				C765.02,512.84,766.26,516.62,767.46,521.41z M606.23,566.91c4.82-0.5,8.32-4.8,7.81-9.6c-0.51-4.79-4.83-8.27-9.65-7.77
				s-8.32,4.8-7.81,9.6C597.08,563.93,601.41,567.41,606.23,566.91z"/>
			<path d="M769.64,490.78c-0.43,0.81-1.42,1.15-2.27,0.79c-0.84-0.36-1.26-1.33-0.95-2.19c1.58-4.38,5.02-17.05,2.11-22.99
				c-1.16-2.38-3.2-2.64-4.71-2.43c-4.97,0.69-11.01,6.99-12.94,17.71c-0.16,0.88-0.97,1.5-1.88,1.43c-0.9-0.08-1.6-0.83-1.61-1.72
				c-0.11-10.06-2.62-26.57-8.89-28.05c-2.32-0.54-4.16-0.18-5.66,1.12c-3.45,3.03-4.36,10.42-3.72,16.42
				c0.1,0.96,0.21,1.88,0.32,2.76c0.96,7.95,1.65,13.69-7.8,22.59c-9.43,8.86-27.53,17.83-45.05,22.31
				c-15.08,3.86-31.35,0.82-40.09-0.81c-0.74-0.13-1.42-0.26-2.05-0.38c-3.03-0.55-7.82-0.63-13.22,0.07
				c-0.56,0.43-1.29,0.52-1.92,0.27c-8.68,1.36-18.52,4.7-25.12,11.16c-4.39,4.3-7.74,8.85-10.07,13.53
				c0.02,0.24-0.02,0.48-0.1,0.71c-0.13,0.39-0.37,0.7-0.67,0.92c-3.39,7.71-3.95,15.71-1.54,23.52c3.11-0.35,6.01,1.75,8.66,4.09
				c4.89,4.29,6.46,10.12,6.32,13.81c-0.01,0.12-0.03,0.23-0.03,0.36c4.68,0.76,11.27,6.81,22.2,20.28
				c2.35,2.9,6.24,6.26,11.22,9.56c10.6,7.05,26.09,13.82,41.91,15.25c23.27,2.1,42.57-6.72,42.76-6.82
				c0.85-0.39,1.86-0.15,2.44,0.58c1.16,1.49,7.05,3.5,12.7,3.19c0.02,0,0.04,0,0.06-0.01c0.02,0,0.05,0,0.07,0
				c2.59-0.15,5.12-0.8,7.13-2.21c6.54-4.63,9.51-10.4,9.62-18.68c0.01-0.58,0.27-1.13,0.73-1.5c0.16-0.13,15.84-13.38,21.6-36.81
				c4.04-16.43,1.27-35.1-1.76-47.22c-0.56-4.78-1.76-8.92-3.23-12.41c0.21-0.41,0.57-0.74,1.03-0.93c1.03-0.41,2.2,0.08,2.61,1.12
				c0.47,1.16,1.01,2.67,1.58,4.46c3.84-4.25,11.17-13.39,10.65-20.64c-0.24-3.36-1.53-5.45-3.63-5.9
				c-0.03-0.01-0.06-0.01-0.09-0.01C773.97,486.64,770.96,488.28,769.64,490.78z M567.61,591.11c0.03-0.31,0.92-7.73,5.93-16.12
				c1.78-2.98,3.39-4.97,5-6.14c-2.7-8.48-2.24-17.13,1.23-25.43c-3.18-2.24-6.33-7.37-7.97-11.8c-2.09-5.62-2.1-10.66-0.02-14.18
				c1.88-3.17,4.29-4.14,6-4.4c2.13-0.31,4.19,0.28,5.87,1.08c-0.54-8.37,2.21-16.92,9.23-19.03c5.34-1.59,9.17,2.04,11.41,5.85
				c1.89-2.6,4.74-4.69,7.98-5.67c3.8-1.16,7.41-0.55,9.89,1.65c2.07,1.83,3.16,4.74,3.13,8.39c-0.02,2.89-0.74,5.94-1.69,8.31
				c4.63-0.38,8.68-0.23,11.49,0.28c0.64,0.11,1.33,0.24,2.07,0.39c8.47,1.58,24.24,4.52,38.56,0.86
				c16.99-4.35,34.48-12.98,43.52-21.46c8.17-7.68,7.65-11.92,6.72-19.63c-0.11-0.89-0.22-1.84-0.33-2.81
				c-0.71-6.69,0.21-15.31,4.9-19.41c2.33-2.05,5.38-2.7,8.79-1.9c7.19,1.68,9.92,13.37,10.96,22.06c3.4-7.08,8.64-10.89,13.06-11.5
				c3.64-0.49,6.78,1.13,8.37,4.36c2.61,5.34,1.25,13.86-0.17,19.61c1.82-0.84,3.82-1.16,5.66-0.78c0.27,0.05,0.59,0.14,0.95,0.26
				c1.99,0.73,5.04,2.8,5.47,8.81c0.7,9.76-9.7,21.38-12.99,24.79c3.47,12.44,7.11,33.33,2.5,52.05
				c-5.43,22.1-18.96,35.36-22.23,38.31c-0.33,8.71-3.67,15.22-10.4,20.31l0.95,19.32c0.02,0.48-0.12,0.94-0.42,1.32
				c-0.52,0.68-12.95,16.72-16.25,20.66c-1.44,1.72-3.24,2.74-4.87,2.91c-0.97,0.1-1.88-0.09-2.61-0.62
				c-1.94-1.38-2.08-4.09-0.45-8.1c-0.53,0.26-1.06,0.48-1.57,0.69c-2.11,0.85-4.2,0.26-5.2-1.47c-1.16-1.98-0.71-5.42,4-9.1
				c4.8-3.76,12.23-8.95,14.81-10.75l-0.61-11.23c-5.25-0.08-10.35-1.67-12.95-3.61c-2.84,1.18-10.19,3.97-20.13,5.65l-10.42,22.66
				c-0.17,0.38-0.46,0.69-0.83,0.9c-2.46,1.4-9.42,5.7-11.94,8.72c-2.71,3.25-7.2,6.61-10.72,6.97c-0.13,0.01-0.26,0.03-0.38,0.03
				c-1.82,0.07-2.95-0.68-3.59-1.31c-0.65-0.66-0.97-1.53-0.95-2.51c0.05-1.82,1.5-4.12,3.19-6.2c-4.18,0.66-6.78,0.19-7.75-1.43
				c-0.31-0.52-0.73-1.61-0.03-3.07c1.79-3.73,10.97-8.66,23.41-10.67l5.6-12.75c-2.92,0.03-5.94-0.06-9.05-0.34
				c-24.35-2.2-48.11-16.68-55.9-26.28c-1.2-1.48-2.36-2.88-3.46-4.19c-1.54,3.66-5.3,7.88-12.65,7.5
				c-4.02-0.21-7.24-2.45-9.05-6.31c-1.83-3.87-2.07-9.13-0.91-13.4c-1.34,0.27-2.82,0.48-4.37,0.64
				c-6.36,0.67-13.73,0.56-15.84,0.51c-0.09,0-0.18-0.01-0.28-0.03c-0.03-0.01-0.07,0-0.1-0.01c-0.18-0.04-0.34-0.1-0.49-0.18
				c-0.04-0.03-0.08-0.04-0.12-0.07c-0.12-0.08-0.24-0.17-0.35-0.26c-0.02-0.03-0.06-0.05-0.09-0.08c-0.01-0.02-0.02-0.03-0.05-0.05
				c-0.1-0.12-0.19-0.26-0.27-0.4c-0.01-0.01-0.02-0.02-0.02-0.04c-0.03-0.05-0.03-0.1-0.06-0.15c-0.03-0.06-0.04-0.12-0.07-0.18
				c-0.02-0.07-0.03-0.15-0.04-0.23c-0.01-0.05-0.02-0.11-0.03-0.17c0-0.08,0-0.17,0-0.25
				C567.61,591.19,567.61,591.15,567.61,591.11z M587.83,574.61c-2.67-2.34-4.41-3.3-5.67-3.11c-1.38,0.22-3.07,2.03-5.17,5.54
				c-2.46,4.11-3.82,7.98-4.56,10.69l18.65-9C590.28,577.26,589.21,575.84,587.83,574.61z M592.16,587.31
				c0.08-0.1,0.17-0.19,0.26-0.28c0.15-0.29,0.35-0.88,0.37-1.92c0.02-0.8-0.09-1.68-0.3-2.62l-14,6.76
				C584.57,589.03,590.44,588.43,592.16,587.31z M581.53,539.7c2.46-4.62,5.86-9.1,10.2-13.35c7.23-7.09,17.78-10.7,27.08-12.15
				c0.82-0.96,2.47-5.04,2.46-9.04c-0.01-1.68-0.32-3.95-1.79-5.26c-1.41-1.25-3.61-1.54-6.04-0.8c-3.5,1.06-6.5,3.97-7.28,7.06
				c-0.22,0.87-1,1.49-1.9,1.51c-0.91,0.02-1.71-0.56-1.97-1.41c-0.03-0.09-2.82-8.96-8.25-7.32c-6.29,1.89-7.2,12.39-5.83,18.89
				c0.18,0.85-0.21,1.71-0.98,2.14c-0.75,0.43-1.71,0.32-2.35-0.26c-0.96-0.87-4.01-3.07-6.5-2.69c-1.23,0.19-2.25,0.99-3.12,2.47
				c-1.96,3.32-0.63,8.17,0.33,10.76C577.17,534.55,579.73,538.11,581.53,539.7z M599.94,607.89c7.87,0.41,9.14-6.1,9.27-6.85
				c0.01-0.08,0.02-0.16,0.05-0.25c-6.59-7.42-11.12-11.14-13.51-11.1c-0.15,0-0.27,0.03-0.38,0.08c-0.11,0.13-0.23,0.27-0.36,0.38
				c-2.01,2.82-2.74,9.35-0.68,13.73C595.52,606.41,597.41,607.76,599.94,607.89z M667.46,658.59c0.47,0.82,0.31,1.84-0.39,2.47
				c-3.26,2.98-6.24,6.64-6.64,8.08c0.1,0.02,0.21,0.02,0.31,0.02c1.98-0.07,5.72-2.63,8.17-5.56c3.05-3.65,10.37-8.07,12.48-9.31
				l9.08-19.74c-1.68,0.21-3.42,0.36-5.22,0.48l-6.81,15.53c-0.28,0.63-0.87,1.08-1.55,1.18c-11.44,1.67-18.56,5.6-20.77,7.71
				c1.93-0.04,5.57-0.73,9.01-1.78C666.02,657.41,666.99,657.79,667.46,658.59z M720.64,657.1c0.79-0.49,1.81-0.37,2.47,0.28
				c0.67,0.65,0.78,1.68,0.29,2.46c-3.31,5.35-3.65,7.74-3.64,8.55c0.45-0.16,1.21-0.59,1.92-1.44c2.91-3.47,13.4-16.99,15.7-19.97
				l-0.8-16.5c-1.36,0.54-2.81,0.91-4.29,1.12l0.68,12.36c0.03,0.7-0.29,1.36-0.87,1.75c-0.09,0.07-9.77,6.74-15.55,11.25
				c-2.36,1.85-2.92,3.24-2.99,3.78c0.06-0.02,0.13-0.03,0.21-0.06C716.64,659.54,720.59,657.13,720.64,657.1z"/>
			<path d="M709.86,535.25c7.89-1.88,14.71-3.5,19.14-5.89c2.63-1.41,4.44-2.97,6.03-4.33c3.19-2.73,5.93-5.09,11.85-3.19
				c3.27,1.05,5.41,4.81,5.74,10.08c0.37,5.76-1.36,12.78-5.58,18.57c1.67,0.57,3.18,1.71,4.32,3.32
				c2.97,4.13,2.88,10.26-0.21,16.78c-5.37,11.35-21.84,24.68-42.92,28.16c-1.01,0.17-2.01,0.3-3,0.4
				c-18.66,1.95-33.98-7.12-37-22.3c-3.01-15.11,7.39-31.56,23.19-36.67C697.76,538.14,704.19,536.6,709.86,535.25z M707.58,594.8
				c19.71-3.25,35.02-15.5,39.94-25.91c2.42-5.11,2.63-9.89,0.57-12.77c-1.02-1.42-2.49-2.18-3.93-2.03
				c-0.09,0.01-0.19,0.01-0.28,0.01c-2.03,1.95-4.44,3.65-7.24,4.95c-1,0.47-2.2,0.04-2.67-0.97c-0.47-1-0.04-2.19,0.97-2.66
				c9.65-4.49,14.18-15.1,13.67-23.26c-0.22-3.45-1.38-6.01-2.96-6.52c-3.76-1.21-5-0.15-7.99,2.41c-1.66,1.42-3.74,3.2-6.73,4.82
				c-4.9,2.64-11.96,4.32-20.13,6.27c-5.6,1.33-11.95,2.84-18.12,4.84c-13.93,4.49-23.13,18.89-20.5,32.09
				C674.96,590.09,689.54,597.78,707.58,594.8z"/>
			<path d="M764.23,508.99c-0.27,0.5-0.31,1.1-0.09,1.66c0.88,2.19,2.12,5.96,3.32,10.75C766.91,516.63,765.7,512.49,764.23,508.99z
				"/>
		</g>
	</g>
</g>
</svg>
