<?xml version="1.0" encoding="iso-8859-1"?>
<!-- Uploaded to: SVG Repo, www.svgrepo.com, Generator: SVG Repo Mixer Tools -->
<!DOCTYPE svg PUBLIC "-//W3C//DTD SVG 1.1//EN" "http://www.w3.org/Graphics/SVG/1.1/DTD/svg11.dtd">
<svg fill="#000000" height="800px" width="800px" version="1.1" id="Capa_1" xmlns="http://www.w3.org/2000/svg" xmlns:xlink="http://www.w3.org/1999/xlink" 
	 viewBox="0 0 470 470" xml:space="preserve">
<g>
	<path d="M460.799,210.23l-0.518-0.214c6.379-16.947,9.719-35.08,9.719-53.73c0-59.748-34.599-111.559-84.808-136.476l0.349-0.842
		c1.586-3.827-0.231-8.214-4.059-9.799c-3.823-1.587-8.213,0.232-9.799,4.059l-0.243,0.587c-16.709-6.319-34.806-9.788-53.7-9.788
		c-16.868,0-33.314,2.733-48.843,7.974l-0.313-0.756c-1.585-3.827-5.972-5.645-9.799-4.059c-3.827,1.585-5.645,5.972-4.059,9.799
		l0.214,0.518c-16.494,7.472-31.678,17.933-44.866,31.12l-52.462,52.462c-0.016,0.017-52.462,52.462-52.462,52.462
		c-0.033,0.033-45.367,45.367-45.367,45.367l-0.391-0.391c-2.93-2.928-7.678-2.928-10.607,0c-2.929,2.93-2.929,7.678,0,10.607
		l0.504,0.504c-23.402,24.948-38.512,57.756-40.894,93.988H7.5c-4.143,0-7.5,3.357-7.5,7.5s3.357,7.5,7.5,7.5h0.64
		c0.488,15.309,3.237,30.056,7.94,43.912l-0.809,0.335c-3.827,1.585-5.645,5.972-4.059,9.799c1.196,2.889,3.988,4.632,6.932,4.632
		c0.956,0,1.929-0.185,2.867-0.573l0.591-0.245c23.956,52.731,77.121,89.491,138.711,89.491c17.068,0,33.489-2.823,48.821-8.027
		l0.335,0.809c1.196,2.889,3.988,4.632,6.932,4.632c0.956,0,1.929-0.185,2.867-0.573c3.827-1.585,5.645-5.972,4.059-9.799
		l-0.245-0.591c16.464-7.48,31.366-17.812,44.084-30.355c0.281-0.211,0.555-0.436,0.812-0.692l52.467-52.466
		c0.023-0.022,0.036-0.036,0.05-0.05l52.426-52.426c0.023-0.022,0.036-0.036,0.05-0.05l52.436-52.436
		c11.927-11.928,21.624-25.49,28.898-40.175l0.756,0.313c0.938,0.389,1.91,0.573,2.867,0.573c2.943,0,5.735-1.743,6.932-4.632
		C466.443,216.203,464.626,211.815,460.799,210.23z M441.669,202.306c-3.824-1.583-8.214,0.23-9.799,4.059
		c-1.586,3.826,0.231,8.214,4.059,9.799l4.481,1.857c-6.506,12.897-15.102,24.812-25.613,35.323l-5.762,5.762
		c5.577-15.967,8.49-32.93,8.49-50.343c0-17.068-2.823-33.489-8.027-48.821l0.808-0.335c3.827-1.585,5.645-5.973,4.059-9.799
		c-1.585-3.827-5.972-5.644-9.799-4.059l-0.59,0.244c-6.219-13.688-14.41-26.296-24.201-37.468l0.681-0.681
		c2.929-2.93,2.929-7.678,0-10.607c-2.93-2.928-7.678-2.928-10.607,0l-0.503,0.503c-27.246-25.558-63.864-41.238-104.08-41.238
		c-17.413,0-34.376,2.912-50.344,8.49l5.762-5.762c11.771-11.771,25.307-21.131,40.005-27.854l1.963,4.738
		c1.196,2.889,3.988,4.632,6.932,4.632c0.956,0,1.929-0.185,2.867-0.573c3.827-1.585,5.645-5.972,4.059-9.799l-1.856-4.481
		c13.72-4.519,28.224-6.867,43.088-6.867c16.863,0,33.021,3.064,47.958,8.652l-1.938,4.679c-1.586,3.827,0.231,8.214,4.059,9.799
		c0.938,0.39,1.91,0.573,2.867,0.573c2.943,0,5.735-1.744,6.932-4.632l1.822-4.399C424.22,56.329,455,102.778,455,156.286
		c0,16.646-2.953,32.836-8.593,47.982L441.669,202.306z M356.559,311.581c4.494-12.866,7.25-26.378,8.152-40.252h0.89
		c4.143,0,7.5-3.357,7.5-7.5s-3.357-7.5-7.5-7.5h-0.64c-1.836-57.667-35.892-107.335-84.72-131.567l0.349-0.844
		c1.586-3.827-0.231-8.214-4.059-9.799c-3.824-1.588-8.215,0.232-9.799,4.059l-0.244,0.588c-13.71-5.185-28.356-8.443-43.61-9.446
		v-0.895c0-4.143-3.357-7.5-7.5-7.5s-7.5,3.357-7.5,7.5v0.639c-15.691,0.494-30.972,3.351-45.435,8.403l5.776-5.776
		c25.923-25.917,60.386-40.19,97.044-40.19c36.081,0,68.948,14,93.472,36.845l-3.531,3.531c-2.929,2.93-2.929,7.678,0,10.607
		c1.465,1.464,3.385,2.196,5.304,2.196s3.839-0.732,5.304-2.196l3.337-3.337c8.434,9.764,15.514,20.726,20.955,32.59l-4.67,1.935
		c-3.827,1.585-5.645,5.973-4.059,9.799c1.196,2.889,3.988,4.632,6.932,4.632c0.956,0,1.929-0.185,2.867-0.573l4.422-1.832
		c4.489,13.55,6.927,28.027,6.927,43.063c0,36.645-14.263,71.097-40.163,97.017L356.559,311.581z M215.402,433.886
		c-1.585-3.827-5.972-5.646-9.799-4.059c-3.827,1.585-5.645,5.972-4.059,9.799l1.831,4.421c-13.551,4.489-28.027,6.927-43.064,6.927
		c-55.351,0-103.149-32.936-124.841-80.236l4.669-1.934c3.827-1.585,5.645-5.972,4.059-9.799c-1.585-3.827-5.973-5.644-9.799-4.059
		l-4.421,1.831c-3.998-12.069-6.36-24.874-6.83-38.154h5.056c4.143,0,7.5-3.357,7.5-7.5s-3.357-7.5-7.5-7.5h-4.781
		c2.344-32.099,15.777-61.163,36.473-83.381l3.53,3.53c1.465,1.464,3.385,2.196,5.304,2.196s3.839-0.732,5.304-2.196
		c2.929-2.93,2.929-7.678,0-10.607l-3.337-3.337c24.063-20.786,55.396-33.374,89.614-33.374c36.08,0,68.947,14,93.472,36.845
		l-3.53,3.53c-2.929,2.93-2.929,7.678,0,10.607c1.465,1.464,3.385,2.196,5.304,2.196s3.839-0.732,5.304-2.196l3.337-3.337
		c20.786,24.063,33.374,55.396,33.374,89.614c0,55.351-32.936,103.149-80.236,124.841L215.402,433.886z M303.967,364.172
		c5.566-15.799,8.605-32.779,8.605-50.458c0-38.354-14.261-73.436-37.751-100.237l0.681-0.681c2.929-2.93,2.929-7.678,0-10.607
		c-2.93-2.928-7.678-2.928-10.607,0l-0.504,0.504c-27.246-25.558-63.864-41.237-104.079-41.237c-17.679,0-34.659,3.039-50.459,8.605
		l5.905-5.905c24.76-24.747,57.31-38.864,92.12-40.08v5.057c0,4.143,3.357,7.5,7.5,7.5s7.5-3.357,7.5-7.5v-4.781
		c13.227,0.966,25.937,3.816,37.868,8.28l-1.938,4.679c-1.586,3.827,0.231,8.214,4.059,9.799c0.938,0.39,1.91,0.573,2.867,0.573
		c2.943,0,5.736-1.744,6.932-4.632l1.822-4.398c43.404,21.935,73.645,66.249,75.463,117.678h-5.056c-4.143,0-7.5,3.357-7.5,7.5
		s3.357,7.5,7.5,7.5h4.789c-2.371,32.844-16.29,63.4-39.798,86.925L303.967,364.172z"/>
	<path d="M212.698,385.672c-15.294,11.153-33.408,17.049-52.386,17.049c-44.156,0-81.138-31.61-87.935-75.163
		c-0.638-4.092-4.465-6.896-8.566-6.254c-4.093,0.639-6.893,4.474-6.254,8.566c3.783,24.242,16.146,46.47,34.809,62.589
		c18.863,16.29,42.993,25.262,67.946,25.262c22.176,0,43.347-6.892,61.224-19.93c3.347-2.44,4.081-7.132,1.641-10.479
		C220.734,383.965,216.043,383.23,212.698,385.672z"/>
	<path d="M63.812,306.124c0.392,0.062,0.781,0.091,1.165,0.091c3.632,0,6.824-2.644,7.401-6.345
		c6.797-43.553,43.778-75.163,87.935-75.163c44.155,0,81.137,31.61,87.935,75.163c0.638,4.093,4.471,6.897,8.566,6.254
		c4.093-0.639,6.893-4.475,6.254-8.566c-3.783-24.242-16.146-46.471-34.81-62.589c-18.862-16.29-42.992-25.262-67.945-25.262
		s-49.083,8.972-67.946,25.262c-18.663,16.119-31.025,38.347-34.809,62.589C56.919,301.65,59.719,305.485,63.812,306.124z"/>
	<path d="M256.814,321.304c-4.104-0.641-7.928,2.162-8.567,6.253c-2.162,13.849-7.687,27.176-15.977,38.542
		c-2.44,3.347-1.706,8.039,1.64,10.479c1.334,0.973,2.881,1.441,4.414,1.441c2.314,0,4.597-1.068,6.065-3.081
		c9.69-13.287,16.149-28.871,18.678-45.067C263.706,325.778,260.906,321.942,256.814,321.304z"/>
	<path d="M160.313,272.961c17.678,0,33.244,11.286,38.734,28.083c1.287,3.937,5.521,6.088,9.459,4.799
		c3.938-1.287,6.086-5.521,4.799-9.459c-7.512-22.981-28.808-38.423-52.992-38.423c-30.743,0-55.754,25.011-55.754,55.753
		s25.011,55.753,55.754,55.753c24.184,0,45.479-15.44,52.992-38.423c1.287-3.937-0.861-8.172-4.799-9.459
		c-3.939-1.289-8.173,0.863-9.459,4.799c-5.49,16.797-21.057,28.083-38.734,28.083c-22.472,0-40.754-18.281-40.754-40.753
		S137.841,272.961,160.313,272.961z"/>
</g>
</svg>