<svg id="Layer_1" data-name="Layer 1" xmlns="http://www.w3.org/2000/svg" viewBox="0 0 50 50"><defs><style>.cls-1{fill:#fff;}</style></defs><path d="M35.51,22.53c.32.42.55.8.85,1.12a6,6,0,0,1,.92,5.11,7.78,7.78,0,0,1-2.21,3.14,3.53,3.53,0,0,1-1.58.76,7.19,7.19,0,0,1-4.25-.37A4.4,4.4,0,0,1,27.49,31a8.94,8.94,0,0,1-1.94-3.92c-.14-.6-.27-1.2-.42-1.84l-.62-.08c-.52-.09-1.05-.15-1.57-.27a6.81,6.81,0,0,1-4.14-2.66,10,10,0,0,1-1.63-3.31,5.67,5.67,0,0,1,1.21-5,4.2,4.2,0,0,1,2-1.29,9.05,9.05,0,0,1,3.23-.4,3.59,3.59,0,0,1,1.27.31,6.62,6.62,0,0,1,2.42,1.59c.08.08.18.14.31.25a1.9,1.9,0,0,0,.33-.26l2-2.88q1.41-2,2.83-3.95c.5-.69,1-1.37,1.54-2a10.47,10.47,0,0,1,.73-.89,8.38,8.38,0,0,0,1.19-1.64A1.44,1.44,0,0,1,38.41,2a18.46,18.46,0,0,1,2.5,1.48A21.66,21.66,0,0,1,46,8.61a4.1,4.1,0,0,1,.67,1.9,1.06,1.06,0,0,1-.34,1c-.48.47-.92,1-1.44,1.43-3.2,2.77-5.94,6-8.86,9C35.83,22.08,35.7,22.28,35.51,22.53ZM37,5.29a5.43,5.43,0,0,0-.43.38c-.75.94-1.54,1.86-2.25,2.84-1.18,1.62-2.32,3.27-3.46,4.91-1,1.47-2,3-3.06,4.44a13.16,13.16,0,0,1-1,1.21.56.56,0,0,1-.72.09,1.23,1.23,0,0,1-.32-1.83c.25-.33.49-.66.71-1s.3-.65-.11-1.08a3.79,3.79,0,0,0-3-1.28,7.27,7.27,0,0,0-2.16.43,4.15,4.15,0,0,0-2.68,3.73,2.42,2.42,0,0,0,.33,1.44c.36.61.73,1.21,1.14,1.78a3.5,3.5,0,0,0,.83.8,5.84,5.84,0,0,0,4.09,1.07c.23,0,.47-.06.7-.11a1,1,0,0,1,1,.29,1.2,1.2,0,0,1,.4,1.27,4.13,4.13,0,0,0-.15,1.4,9.56,9.56,0,0,0,.46,2,5.08,5.08,0,0,0,1.64,2.26,2.19,2.19,0,0,0,1,.51,11.82,11.82,0,0,0,1.57.2,3.92,3.92,0,0,0,2.87-1.16,5.08,5.08,0,0,0,1.41-2.61,3.13,3.13,0,0,0-1.13-3.32.59.59,0,0,0-.93,0c-.34.28-.63.62-1,.92a13.25,13.25,0,0,1-1.1.88.65.65,0,0,1-.88-.14,3.2,3.2,0,0,1-.4-.78.58.58,0,0,1,.17-.65c.1-.1.22-.19.33-.29,1.66-1.45,3.31-2.92,4.83-4.53,2.37-2.5,4.63-5.11,7.23-7.4a.63.63,0,0,0,.3-.63,1.79,1.79,0,0,0-.89-.52c-.14.12-.27.23-.39.35-.31.32-.59.67-.91,1a5.58,5.58,0,0,1-.78.57.26.26,0,0,1-.39-.05.54.54,0,0,1-.09-.4,2.16,2.16,0,0,1,.37-.59c.34-.41.7-.8,1-1.21a.52.52,0,0,0,0-.79,2.45,2.45,0,0,0-1.12-.85,14.94,14.94,0,0,0-1.72,1.65c-.5.63-1,1.27-1.45,1.9a2.24,2.24,0,0,1-.44.43.57.57,0,0,1-.65-.1.53.53,0,0,1,0-.59l.1-.14c.4-.51.79-1,1.2-1.53.62-.76,1.25-1.5,1.87-2.25a.88.88,0,0,0,.13-.28A1.26,1.26,0,0,0,38.35,7l-.79.84a3.35,3.35,0,0,1-1.11.87.31.31,0,0,1-.42-.3,1.64,1.64,0,0,1,.2-.66,8.83,8.83,0,0,1,.69-.92c.19-.26.4-.5.62-.78Zm7.66,4.37a1.18,1.18,0,0,0-.34-.86A20.29,20.29,0,0,0,41.86,6a16.49,16.49,0,0,0-1.72-1.38A9.21,9.21,0,0,0,39,4c-.1,0-.22-.08-.33-.13a.37.37,0,0,0-.47.11c-.14.17,0,.34.05.48a2.39,2.39,0,0,0,.28.35,34.85,34.85,0,0,0,3.73,3.76,4.23,4.23,0,0,0,.61.51c.37.24.76.45,1.14.66A.55.55,0,0,0,44.68,9.66Z"/><path d="M21.94,37.72a21,21,0,0,0-3.35,3.38c-.35.43-.72.85-1.09,1.27-.85,1-1.7,2-2.56,2.93-1.09,1.2-2.19,2.38-3.28,3.59a1,1,0,0,1-1.1.3,17.08,17.08,0,0,1-4.14-2,8.38,8.38,0,0,1-3.17-3.7c-.26-.59-.55-1.17-.84-1.75a1.87,1.87,0,0,1,.22-2.15c.56-.71,1.12-1.44,1.74-2.11,1.76-1.91,3.53-3.79,5.32-5.67.72-.74,1.48-1.44,2.22-2.16l.88-.86c-.09-.24-.14-.43-.23-.61a9.88,9.88,0,0,1-.81-3.16A5.22,5.22,0,0,1,12,22.71a24.44,24.44,0,0,1,2.24-4.49,1.16,1.16,0,0,1,.16-.21.83.83,0,0,1,1.45.13,1.52,1.52,0,0,1,.22.93,7.1,7.1,0,0,0,1.63,4.73l.12.14a8.55,8.55,0,0,0,4.74,2.53l.53.05a1.39,1.39,0,0,1,1.23,1.1,6.28,6.28,0,0,1,.19.86A6.37,6.37,0,0,0,27,32.43a6,6,0,0,0,3.56,1.38l.62,0a1.23,1.23,0,0,1,.78.36A.94.94,0,0,1,32,35.69a7.86,7.86,0,0,1-3.39,2.16,9.51,9.51,0,0,1-6.08,0C22.38,37.81,22.17,37.77,21.94,37.72Zm1-9.29a3.24,3.24,0,0,0-.39-.14,11,11,0,0,1-3.63-1.56,7.22,7.22,0,0,1-2.78-2.89c-.33-.66-.7-1.3-1.05-1.94a2.88,2.88,0,0,0-.31-.36,2.44,2.44,0,0,0-.33.48c-.27.59-.52,1.18-.76,1.78a2.68,2.68,0,0,0-.21.77,6,6,0,0,0,1.31,4.54c.36.42.76.82,1.14,1.23s.54.54.78.84a1.33,1.33,0,0,1,.23.56c0,.07-.12.25-.18.25A2.38,2.38,0,0,1,15,31.52a2.5,2.5,0,0,0-1-.76A6.48,6.48,0,0,0,12,32.35q-3.6,3.72-7.15,7.48a10,10,0,0,0-1,1.26c-.26.38-.22.5.22,1a2,2,0,0,0,.79-.52c.23-.23.45-.47.67-.7l2-2.12a3.75,3.75,0,0,1,.51-.36,1.36,1.36,0,0,1,.21.34A1.17,1.17,0,0,1,8,39.9c-.86.9-1.7,1.8-2.55,2.71-.14.15-.29.29-.42.45a.75.75,0,0,0,.33,1.09.54.54,0,0,0,.4-.1c.27-.23.5-.5.76-.74.47-.44.94-.89,1.42-1.32a.7.7,0,0,1,.67-.22A1,1,0,0,1,8.38,43c-.39.4-.81.77-1.2,1.17a2.4,2.4,0,0,0-.69,1,1.69,1.69,0,0,0,1.25.8c.61-.37.85-1.08,1.55-1.25a1.13,1.13,0,0,1,0,1.19A1.24,1.24,0,0,0,9,46.8l.71.29A1,1,0,0,0,11,46.76c.42-.49.87-1,1.3-1.45l2.3-2.68,1.28-1.47c1.45-1.66,2.88-3.35,4.47-4.88.87-.83.95-.86,2-.32a4.47,4.47,0,0,0,2.29.53l1.77-.09a4.79,4.79,0,0,0,2.23-.76c.1-.06.15-.21.24-.36A10.53,10.53,0,0,1,22.9,28.43Z"/><path class="cls-1" d="M37,5.29l.52.74c-.22.28-.43.52-.62.78a8.83,8.83,0,0,0-.69.92,1.64,1.64,0,0,0-.2.66.31.31,0,0,0,.42.3,3.35,3.35,0,0,0,1.11-.87L38.35,7a1.26,1.26,0,0,1,.77.86.88.88,0,0,1-.13.28c-.62.75-1.25,1.49-1.87,2.25-.41.5-.8,1-1.2,1.53l-.1.14a.53.53,0,0,0,0,.59.57.57,0,0,0,.65.1,2.24,2.24,0,0,0,.44-.43c.49-.63.95-1.27,1.45-1.9a14.94,14.94,0,0,1,1.72-1.65,2.45,2.45,0,0,1,1.12.85.52.52,0,0,1,0,.79c-.34.41-.7.8-1,1.21a2.16,2.16,0,0,0-.37.59.54.54,0,0,0,.09.4.26.26,0,0,0,.39.05,5.58,5.58,0,0,0,.78-.57c.32-.3.6-.65.91-1,.12-.12.25-.23.39-.35a1.79,1.79,0,0,1,.89.52.63.63,0,0,1-.3.63c-2.6,2.29-4.86,4.9-7.23,7.4-1.52,1.61-3.17,3.08-4.83,4.53-.11.1-.23.19-.33.29a.58.58,0,0,0-.17.65,3.2,3.2,0,0,0,.4.78.65.65,0,0,0,.88.14,13.25,13.25,0,0,0,1.1-.88c.33-.3.62-.64,1-.92a.59.59,0,0,1,.93,0,3.13,3.13,0,0,1,1.13,3.32,5.08,5.08,0,0,1-1.41,2.61A3.92,3.92,0,0,1,31.52,31,11.82,11.82,0,0,1,30,30.8a2.19,2.19,0,0,1-1-.51A5.08,5.08,0,0,1,27.29,28a9.56,9.56,0,0,1-.46-2,4.13,4.13,0,0,1,.15-1.4,1.2,1.2,0,0,0-.4-1.27,1,1,0,0,0-1-.29c-.23,0-.47.08-.7.11a5.84,5.84,0,0,1-4.09-1.07,3.5,3.5,0,0,1-.83-.8c-.41-.57-.78-1.17-1.14-1.78a2.42,2.42,0,0,1-.33-1.44,4.15,4.15,0,0,1,2.68-3.73A7.27,7.27,0,0,1,23.36,14a3.79,3.79,0,0,1,3,1.28c.41.43.42.59.11,1.08s-.46.68-.71,1a1.23,1.23,0,0,0,.32,1.83.56.56,0,0,0,.72-.09,13.16,13.16,0,0,0,1-1.21c1-1.47,2-3,3.06-4.44,1.14-1.64,2.28-3.29,3.46-4.91.71-1,1.5-1.9,2.25-2.84A5.43,5.43,0,0,1,37,5.29Zm-4.6,7.4a1.82,1.82,0,0,0-.89,1,6,6,0,0,1-1,1.64c-.2.25-.42.48-.61.75a6.24,6.24,0,0,0-.49.83.36.36,0,0,0,.12.47.39.39,0,0,0,.49,0,2.73,2.73,0,0,0,.86-1.1,6.18,6.18,0,0,1,1.51-2.14C32.88,13.68,32.86,13.44,32.42,12.69ZM35,9.18a1.31,1.31,0,0,0-.12.15.58.58,0,0,0,0,.65.52.52,0,0,0,.55.17c.22-.05.34-.22.34-.53a2,2,0,0,0,0-.35A.32.32,0,0,0,35.19,9Zm-.89,1.61a3.44,3.44,0,0,0-.66.21.61.61,0,0,0-.21.7c.09.23.31.24.52.24a.41.41,0,0,0,.44-.43A5,5,0,0,0,34.1,10.79Z"/><path class="cls-1" d="M22.9,28.43a10.53,10.53,0,0,0,6,6.85c-.09.15-.14.3-.24.36a4.79,4.79,0,0,1-2.23.76l-1.77.09A4.47,4.47,0,0,1,22.33,36c-1-.54-1.12-.51-2,.32-1.59,1.53-3,3.22-4.47,4.88l-1.28,1.47-2.3,2.68c-.43.49-.88,1-1.3,1.45a1,1,0,0,1-1.26.33L9,46.8a1.24,1.24,0,0,1,.28-.86,1.13,1.13,0,0,0,0-1.19c-.7.17-.94.88-1.55,1.25a1.69,1.69,0,0,1-1.25-.8,2.4,2.4,0,0,1,.69-1c.39-.4.81-.77,1.2-1.17a1,1,0,0,0,.18-1.26.7.7,0,0,0-.67.22c-.48.43-.95.88-1.42,1.32-.26.24-.49.51-.76.74a.54.54,0,0,1-.4.1A.75.75,0,0,1,5,43.06c.13-.16.28-.3.42-.45C6.25,41.7,7.09,40.8,8,39.9a1.17,1.17,0,0,0,.37-1.19,1.36,1.36,0,0,0-.21-.34,3.75,3.75,0,0,0-.51.36l-2,2.12c-.22.23-.44.47-.67.7a2,2,0,0,1-.79.52c-.44-.48-.48-.6-.22-1a10,10,0,0,1,1-1.26Q8.44,36.08,12,32.35A6.48,6.48,0,0,1,14,30.76a2.5,2.5,0,0,1,1,.76,2.38,2.38,0,0,0,1.74.47c.06,0,.19-.18.18-.25a1.33,1.33,0,0,0-.23-.56c-.24-.3-.52-.56-.78-.84s-.78-.81-1.14-1.23a6,6,0,0,1-1.31-4.54,2.68,2.68,0,0,1,.21-.77c.24-.6.49-1.19.76-1.78a2.44,2.44,0,0,1,.33-.48,2.88,2.88,0,0,1,.31.36c.35.64.72,1.28,1.05,1.94a7.22,7.22,0,0,0,2.78,2.89,11,11,0,0,0,3.63,1.56A3.24,3.24,0,0,1,22.9,28.43ZM10.28,40.08a.92.92,0,0,0-.3,0,.72.72,0,0,0-.63.61.49.49,0,0,0,.54.6.59.59,0,0,0,.51-.41A.74.74,0,0,0,10.28,40.08Zm1.4-5.73a2.66,2.66,0,0,0-.24.38.46.46,0,0,0,.44.66c.27,0,.48-.12.48-.37a2.6,2.6,0,0,0-.1-.68c0-.06-.18-.12-.28-.12A.78.78,0,0,0,11.68,34.35Zm-1.27,2.89a.77.77,0,0,0,.1-1,.36.36,0,0,0-.3-.08.72.72,0,0,0-.49.8.48.48,0,0,0,.27.29A1,1,0,0,0,10.41,37.24Zm1.05,1.6c-.07,0-.21-.05-.28,0a1.42,1.42,0,0,0-.38.46.36.36,0,0,0,.11.47.48.48,0,0,0,.57,0A.62.62,0,0,0,11.46,38.84ZM9.28,37.09c-.45.27-.55.36-.63.57a.42.42,0,0,0,.25.56A.41.41,0,0,0,9.46,38,.82.82,0,0,0,9.28,37.09Z"/><path d="M32.42,12.69c.44.75.46,1,0,1.44a6.18,6.18,0,0,0-1.51,2.14,2.73,2.73,0,0,1-.86,1.1.39.39,0,0,1-.49,0,.36.36,0,0,1-.12-.47,6.24,6.24,0,0,1,.49-.83c.19-.27.41-.5.61-.75a6,6,0,0,0,1-1.64A1.82,1.82,0,0,1,32.42,12.69Z"/><path d="M35,9.18l.2-.14a.32.32,0,0,1,.51.23,2,2,0,0,1,0,.35c0,.31-.12.48-.34.53a.52.52,0,0,1-.55-.17.58.58,0,0,1,0-.65A1.31,1.31,0,0,1,35,9.18Z"/><path d="M34.1,10.79a5,5,0,0,1,.09.72.41.41,0,0,1-.44.43c-.21,0-.43,0-.52-.24a.61.61,0,0,1,.21-.7A3.44,3.44,0,0,1,34.1,10.79Z"/><path d="M10.28,40.08a.74.74,0,0,1,.12.77.59.59,0,0,1-.51.41.49.49,0,0,1-.54-.6.72.72,0,0,1,.63-.61A.92.92,0,0,1,10.28,40.08Z"/><path d="M11.68,34.35a.78.78,0,0,1,.3-.13c.1,0,.26.06.28.12a2.6,2.6,0,0,1,.1.68c0,.25-.21.39-.48.37a.46.46,0,0,1-.44-.66A2.66,2.66,0,0,1,11.68,34.35Z"/><path d="M10.41,37.24a1,1,0,0,1-.42,0A.48.48,0,0,1,9.72,37a.72.72,0,0,1,.49-.8.36.36,0,0,1,.3.08A.77.77,0,0,1,10.41,37.24Z"/><path d="M11.46,38.84a.62.62,0,0,1,0,1,.48.48,0,0,1-.57,0,.36.36,0,0,1-.11-.47,1.42,1.42,0,0,1,.38-.46C11.25,38.79,11.39,38.84,11.46,38.84Z"/><path d="M9.28,37.09a.82.82,0,0,1,.18.88.41.41,0,0,1-.56.25.42.42,0,0,1-.25-.56C8.73,37.45,8.83,37.36,9.28,37.09Z"/></svg>