<svg id="Layer_1" data-name="Layer 1" xmlns="http://www.w3.org/2000/svg" viewBox="0 0 50 50"><path d="M46.35,12.24a6.39,6.39,0,0,0-1.1-2.14L45,9.82a1.64,1.64,0,0,1-.29-.35,1.31,1.31,0,0,0-.84-.6L43,8.59a9.41,9.41,0,0,0-1.79-.47c-.3,0-.61-.07-.92-.1a11.14,11.14,0,0,1-1.76-.27c-1.91-.51-3.67.15-5.45.94-.56.25-1.11.56-1.63.85s-.74.42-1.11.61a28.74,28.74,0,0,0-2.78,1.59,12.58,12.58,0,0,0-2.52,2l-.31.31a5,5,0,0,0-.7.8,8.11,8.11,0,0,0-.49.92A7,7,0,0,0,21,16.3l-.38.13-.48.14a7.55,7.55,0,0,0-1.26.44c-.5.25-1,.55-1.43.84l-.36.23a24.63,24.63,0,0,0-2.69,2.07l-.13.11a14.24,14.24,0,0,0-4.48,6.47s0,0,0,.06l-.2.06a17.86,17.86,0,0,0-2.64,1.26c-.61.38-1.19.82-1.75,1.24l-.75.55a7.85,7.85,0,0,0-2.16,2.54l-.11.17a2.69,2.69,0,0,0-.48,1.24,4.4,4.4,0,0,0,.17,1.53A7.69,7.69,0,0,0,3.5,38.06l.07.08a9.18,9.18,0,0,1,1.55,2.72.69.69,0,0,0,0,.32c.13.38.63,1.64,1.57,1.89a1.33,1.33,0,0,0,.28,0,2.34,2.34,0,0,0,.77-.16l.08,0,.84-.26.87-.28A16.38,16.38,0,0,0,12.63,41l.76-.41a14.26,14.26,0,0,0,1.86-1.11,10.84,10.84,0,0,1,1-.64,9,9,0,0,0,1.49-1.08c.72-.66,1.47-1.34,2.18-2a9.19,9.19,0,0,0,1.73-2.24l.34-.57c.14-.22.28-.45.4-.68a4.07,4.07,0,0,0,.39-1.49c0-.13.05-.26.07-.38a3.56,3.56,0,0,0,.09-.57,2.55,2.55,0,0,0,.68-.34,4.62,4.62,0,0,0,1.12-1.31v0A7.12,7.12,0,0,1,26.89,28h.46a5.56,5.56,0,0,0,2.16-.32c.22-.08.44-.14.66-.21a8.16,8.16,0,0,0,1.69-.65,10.48,10.48,0,0,0,1.29-.95c.21-.18.43-.36.67-.54l.2-.15a6.54,6.54,0,0,0,1.49-1.34c.15-.2.32-.39.49-.58a6.11,6.11,0,0,0,.66-.84,3.33,3.33,0,0,0,.61-1.75,2,2,0,0,0-.06-.56,2.25,2.25,0,0,1,0-.44c.1,0,.19.09.29.12a4.78,4.78,0,0,0,1.23.16h.47a11.25,11.25,0,0,0,2.35-.25,6.92,6.92,0,0,0,4-2.85A5.26,5.26,0,0,0,46.35,12.24ZM35.44,17.7a2.4,2.4,0,0,0-.66,0,.69.69,0,0,0-.32,0l-.24.07-.35.11a3.52,3.52,0,0,0-.38.16l-.06,0h0l-.14.08-.19.08a.77.77,0,0,0-.46.41.71.71,0,0,0,0,.57.8.8,0,0,0,.73.53.67.67,0,0,0,.24,0,3.43,3.43,0,0,0,.44-.19h0l.28-.11a3.83,3.83,0,0,1,.78-.24,1.27,1.27,0,0,1,.32,0,1,1,0,0,0,.24,0c0,.06,0,.12,0,.18a1.53,1.53,0,0,0,0,.3,2.52,2.52,0,0,0,.06.48,1.83,1.83,0,0,1,0,.46A2.2,2.2,0,0,1,35,22l-.42.53a7.39,7.39,0,0,1-.67.78c-.26.24-.54.45-.84.68s-.53.4-.79.63a5.61,5.61,0,0,1-1.8,1.17c-.4.15-.81.27-1.22.4l-.76.23a5.49,5.49,0,0,1-1.74.1l-.37,0a10.6,10.6,0,0,0-1.13,0l0-.29a.76.76,0,0,0,.1-.39,1.93,1.93,0,0,1,0-.34v-.17a2.24,2.24,0,0,0,0-.52h0a.53.53,0,0,1,0-.13,1,1,0,0,0-.07-.39.88.88,0,0,0-.37-.43.79.79,0,0,0-.6,0,.76.76,0,0,0-.45.39s0,0,0,0l-.07-.07v.31a.8.8,0,0,0,0,.27v0a7.12,7.12,0,0,1-.12,1.78A3,3,0,0,1,23,27.88a2.26,2.26,0,0,1-1.18.63l-.14,0a3.15,3.15,0,0,0-1.37.25,6,6,0,0,1-.6.19l-.26.06-.62.15h0l-.15,0h-.24a3.12,3.12,0,0,0-.44.09.76.76,0,0,0-.46.4.72.72,0,0,0,0,.59.78.78,0,0,0,.73.52h.08l-.05.08.53-.11.18,0H19l.23-.05h0l.3-.07.1,0h.07a1.15,1.15,0,0,0,.38-.17l.58-.17.39-.13.19-.06a.19.19,0,0,0,0,.08,3,3,0,0,0-.07.5,3.79,3.79,0,0,1-.08.52,2.92,2.92,0,0,1-.41.78l-.19.3c-.11.19-.21.39-.31.58s-.23.44-.36.65a6.82,6.82,0,0,1-1.31,1.39l-.31.27c-.23.21-.45.43-.68.66a10.45,10.45,0,0,1-1.22,1.1,40.45,40.45,0,0,1-4.85,3,18.26,18.26,0,0,1-3,1.24L8,41.27a2.8,2.8,0,0,1-.83.24h0c-.11,0-.24-.12-.37-.33a.42.42,0,0,0,0-.18,12,12,0,0,0-1-2.42,13.48,13.48,0,0,0-1.57-2l0-.05a4.1,4.1,0,0,1-1-2.18A3,3,0,0,1,4,32.58l.24-.33a5.78,5.78,0,0,1,1.53-1.42l.34-.26a17.48,17.48,0,0,1,2.25-1.48c.23-.11.46-.21.7-.3l.49-.21.23-.1a3.17,3.17,0,0,1,.73-.29,2.15,2.15,0,0,1,1.63.43l.42.23a2.59,2.59,0,0,1,.39.25.78.78,0,0,0,.32.33c.18.09.37.18.6.27a2.47,2.47,0,0,0,.36.11l.29,0h0a1.57,1.57,0,0,0,.24,0h.08a.54.54,0,0,0,.26-.15A.78.78,0,0,0,15,28.36l-.18-.06a.48.48,0,0,0-.12,0l-.27-.13a9.29,9.29,0,0,1-.89-.55,6.17,6.17,0,0,0-1.33-.75,5.32,5.32,0,0,0-.73-.2,15.13,15.13,0,0,1,1.19-2.25l0-.06a11,11,0,0,1,1.74-2.17,23.52,23.52,0,0,1,4.73-3.57,11.12,11.12,0,0,1,2.24-.84l.86-.25.21-.07c.24-.09.74-.28.91-.18a.15.15,0,0,1,.06.12.41.41,0,0,0,0,.11.74.74,0,0,0,0,.39l0,.07a.48.48,0,0,1,0,.12v.45l.05,0v0a2.71,2.71,0,0,0,0,.4.76.76,0,0,0,.39.48.77.77,0,0,0,.37.08.59.59,0,0,0,.23,0,.76.76,0,0,0,.46-.4l.05-.16a.67.67,0,0,0,0-.25,1.77,1.77,0,0,1,0-.23,2.71,2.71,0,0,0,0-.29L25,18c0-.12,0-.25-.05-.37v-.16a2.09,2.09,0,0,0-.14-.83,5.26,5.26,0,0,1,1-1.58l.36-.34a10.13,10.13,0,0,1,1.54-1.33,40.18,40.18,0,0,1,4.11-2.32c.35-.17.69-.36,1-.54a9.58,9.58,0,0,1,3.72-1.4,6.24,6.24,0,0,1,1.93.21A10.42,10.42,0,0,0,40,9.55c.33,0,.66,0,1,.1a7.46,7.46,0,0,1,1.38.39l.8.26.22,0,0,0,0,.09a2.17,2.17,0,0,0,.4.44L44,11a.79.79,0,0,0,.15.27l.17.21a1.12,1.12,0,0,1,.17.21,4.21,4.21,0,0,1,.44,1.22A3.66,3.66,0,0,1,44.81,15a5.85,5.85,0,0,1-2.58,2.81,5.15,5.15,0,0,1-2,.49l-.2,0a4.88,4.88,0,0,1-2.42-.15l-.23-.09a3.76,3.76,0,0,0-.82-.29,6.51,6.51,0,0,0-.76-.07Z"/><path d="M43.45,35.27h0a3.94,3.94,0,0,0-.72-2,5.15,5.15,0,0,0-3.44-2,3.28,3.28,0,0,0-.62,0h-.44a2.13,2.13,0,0,0-.66,0,1.29,1.29,0,0,0-.52.28,1.59,1.59,0,0,1-.21.15,2.83,2.83,0,0,1-.36.16,2.43,2.43,0,0,0-.54.26.77.77,0,0,0-.22.22,2.9,2.9,0,0,0-.41.27,5.89,5.89,0,0,1-.55.37,6.61,6.61,0,0,0-.84.61A4.2,4.2,0,0,0,32.82,35a7.93,7.93,0,0,0-.6,1.82,5.58,5.58,0,0,0,.39,3.58,3.85,3.85,0,0,0,.94,1.23,10.7,10.7,0,0,0,1.45.87l.19.1a3.23,3.23,0,0,0,1.55.37,4.44,4.44,0,0,0,2.09-.55c.17-.09.35-.17.52-.24a4.61,4.61,0,0,0,1.09-.62l.29-.23a9.13,9.13,0,0,0,1-.88,1.71,1.71,0,0,1,.2-.18,1.52,1.52,0,0,0,.38-.38l.07-.11c.13-.2.26-.41.37-.62a7.61,7.61,0,0,0,.66-1.95,8.2,8.2,0,0,0,.05-1.85ZM41.93,36v.32a4.39,4.39,0,0,1-.84,2.7,1,1,0,0,1-.15.13l-.18.14a2.25,2.25,0,0,0-.21.24c-.06.07-.11.14-.18.21a10.68,10.68,0,0,1-1.11.86,5.07,5.07,0,0,1-.62.29,4.64,4.64,0,0,0-.55.26,2.74,2.74,0,0,1-1.43.33,2.42,2.42,0,0,1-1.11-.38L35.31,41a2.48,2.48,0,0,1-1.55-1.68,2.63,2.63,0,0,1-.1-1V38a4.63,4.63,0,0,1,.24-1.57l.06-.18a3.35,3.35,0,0,1,.6-1.21,6,6,0,0,1,1.12-.88l.08-.06a3.55,3.55,0,0,0,.31-.23,1.35,1.35,0,0,1,.76-.4.71.71,0,0,0,.68-.46l.24-.13.16-.12.1-.06h.24l.23,0a3.86,3.86,0,0,1,2.52.91,2.76,2.76,0,0,1,.73,1A3.13,3.13,0,0,1,41.93,36Z"/><path d="M10.36,37.48a2.79,2.79,0,0,0-.38-.39c-.17-.15-.37-.28-.53-.43l.11.1a.63.63,0,0,0-.25-.2A.91.91,0,0,0,9,36.43a1.08,1.08,0,0,0-.4,0,1.18,1.18,0,0,0-.38.09.87.87,0,0,0-.47.45.58.58,0,0,0,.1.58c.21.22.46.4.69.6l.07.09v0h0v0a.79.79,0,0,0,.25.36,1,1,0,0,0,.33.15,1.05,1.05,0,0,0,.4.07,1.33,1.33,0,0,0,.72-.22.72.72,0,0,0,.3-.54A1.06,1.06,0,0,0,10.36,37.48Z"/><path d="M31.9,22.17l-.12-.2a.79.79,0,0,0-.32-.26c-.09,0-.18,0-.26,0a1.09,1.09,0,0,0-.26,0l-.12,0-.26.15a.11.11,0,0,1-.07,0h-.06a.53.53,0,0,0-.28.12.61.61,0,0,0-.21.26.86.86,0,0,0-.13.34l0,.26a1.45,1.45,0,0,0,.1.51l.12.2a.75.75,0,0,0,.33.26,1.09,1.09,0,0,0,.25,0,1,1,0,0,0,.26,0l.12,0,.25-.15.1,0s0,0,.05,0a.37.37,0,0,0,.27-.12.64.64,0,0,0,.21-.25A.94.94,0,0,0,32,23l0-.27A1.25,1.25,0,0,0,31.9,22.17Z"/><path d="M42.5,13a.93.93,0,0,0-.26-.39.39.39,0,0,1-.1-.08l-.09-.14a.78.78,0,0,1,0-.14c0-.1-.09-.19-.14-.29a1,1,0,0,0-.2-.24,1.21,1.21,0,0,0-.57-.3l-.31,0h-.23a.84.84,0,0,0-.38.08.64.64,0,0,0-.32.18.63.63,0,0,0-.21.28.69.69,0,0,0-.09.34l0,.23a.84.84,0,0,0,.26.39l.2.14.18.06.08.18a1.77,1.77,0,0,0,.16.22,1.5,1.5,0,0,0,.35.36.78.78,0,0,0,.33.19.78.78,0,0,0,.38.07.85.85,0,0,0,.39-.07.8.8,0,0,0,.32-.19.83.83,0,0,0,.29-.62Z"/><path d="M40,37.56a1.19,1.19,0,0,0-.2-.44L39.68,37a.63.63,0,0,0-.39-.13l-.18,0H39a.85.85,0,0,0-.23,0h-.05l-.13.06-.12.07-.15.15h0a.67.67,0,0,0-.25.2.88.88,0,0,0-.16.32,1,1,0,0,0-.07.39l0,.27a1.27,1.27,0,0,0,.2.44l.16.15a.64.64,0,0,0,.39.14.66.66,0,0,0,.28,0l.2-.11h0a.6.6,0,0,0,.08-.08h.1a.58.58,0,0,0,.3-.09.61.61,0,0,0,.25-.21.8.8,0,0,0,.16-.32.82.82,0,0,0,.06-.38Z"/></svg>